<?xml version="1.0" standalone="no"?>
<!DOCTYPE svg PUBLIC "-//W3C//DTD SVG 20010904//EN"
 "http://www.w3.org/TR/2001/REC-SVG-20010904/DTD/svg10.dtd">
<svg version="1.0" xmlns="http://www.w3.org/2000/svg"
 width="965.000000pt" height="1438.000000pt" viewBox="0 0 965.000000 1438.000000"
 preserveAspectRatio="xMidYMid meet">

<g transform="translate(0.000000,1438.000000) scale(0.100000,-0.100000)"
fill="#000000" stroke="none">
<path d="M4655 14360 c3 -5 8 -10 11 -10 2 0 4 5 4 10 0 6 -5 10 -11 10 -5 0
-7 -4 -4 -10z"/>
<path d="M9622 13361 c2 -7 7 -12 11 -12 12 1 9 15 -3 20 -7 2 -11 -2 -8 -8z"/>
<path d="M4810 13018 c0 -9 5 -20 11 -23 17 -11 20 0 4 21 -13 17 -14 17 -15
2z"/>
<path d="M3636 12645 c-8 -8 -23 -15 -34 -15 -11 0 -25 -7 -32 -15 -7 -8 -18
-15 -24 -15 -6 0 -27 -14 -46 -31 -19 -17 -46 -37 -60 -46 -15 -8 -35 -28 -46
-44 -10 -16 -26 -29 -34 -29 -8 0 -32 -18 -53 -40 -20 -22 -41 -40 -46 -40
-17 0 -75 -54 -219 -202 -20 -21 -42 -38 -49 -38 -7 0 -13 -7 -13 -16 0 -8 -4
-13 -9 -10 -5 4 -11 3 -13 -1 -3 -8 -44 -44 -116 -102 -42 -33 -43 -35 -36
-79 6 -42 5 -44 -15 -37 -17 5 -21 2 -21 -18 0 -14 -11 -35 -25 -48 -20 -19
-25 -34 -25 -75 0 -28 -12 -87 -26 -130 -24 -74 -25 -84 -15 -164 6 -47 12
-166 13 -265 2 -182 20 -351 57 -540 10 -55 25 -147 32 -205 6 -58 15 -109 20
-115 9 -12 29 -86 34 -126 2 -16 11 -43 19 -61 9 -17 16 -36 16 -42 0 -7 9
-29 20 -51 11 -21 23 -55 26 -74 4 -20 13 -45 20 -56 8 -11 14 -29 14 -40 0
-12 16 -47 35 -79 19 -32 35 -61 35 -63 0 -3 8 -17 19 -31 10 -15 33 -60 50
-101 18 -41 48 -94 67 -118 19 -24 37 -53 38 -66 8 -63 30 -166 35 -162 11 6
-5 -139 -17 -162 -7 -12 -12 -35 -12 -52 0 -17 -4 -31 -9 -31 -11 0 -25 112
-17 137 3 10 1 25 -4 33 -15 24 -33 -38 -26 -90 16 -115 18 -184 6 -242 -6
-35 -16 -68 -21 -74 -6 -7 -11 -20 -13 -30 -7 -33 -44 -112 -56 -119 -9 -6 -9
-2 -1 13 6 11 11 36 11 55 0 46 37 165 61 196 19 24 25 51 12 51 -26 -1 -71
-113 -113 -280 -5 -19 -16 -40 -25 -46 -53 -39 -65 -50 -65 -60 0 -6 -12 -22
-27 -36 -16 -14 -63 -63 -107 -108 -55 -57 -81 -78 -86 -69 -6 9 -20 3 -52
-21 -23 -18 -50 -40 -58 -49 -8 -9 -38 -31 -66 -49 -62 -39 -83 -59 -149 -137
-27 -33 -90 -102 -140 -155 -142 -150 -139 -147 -132 -127 9 25 -20 22 -34 -5
-9 -16 -9 -23 0 -26 15 -5 14 -27 -2 -44 -7 -7 -36 -46 -66 -86 -32 -43 -59
-71 -67 -68 -20 8 -39 -21 -25 -38 9 -10 0 -30 -39 -90 -27 -42 -50 -81 -50
-86 0 -6 -4 -10 -9 -10 -9 0 -25 -41 -35 -90 -7 -32 -53 -171 -76 -230 -10
-25 -23 -69 -30 -99 -10 -44 -10 -55 1 -62 9 -5 17 -3 22 6 4 8 14 15 21 15
10 0 12 10 9 36 -3 23 -1 34 5 30 5 -3 13 11 16 32 4 20 11 48 16 62 4 14 20
68 35 120 50 176 54 181 300 429 55 56 103 101 107 101 4 0 42 34 84 75 42 41
81 75 87 75 6 0 39 29 75 65 35 36 70 65 77 65 8 0 17 9 20 20 3 11 11 20 16
20 5 0 12 8 16 18 7 19 61 73 113 112 51 39 255 243 252 253 -1 5 2 5 8 2 6
-4 19 0 28 7 36 31 42 31 35 -3 -4 -23 -3 -30 5 -25 7 4 12 15 12 24 0 9 7 30
15 46 8 15 12 32 9 37 -3 5 -1 9 4 9 6 0 13 17 17 38 4 20 11 42 17 49 5 7 8
18 5 25 -2 7 3 22 13 33 22 26 50 103 50 138 0 15 5 27 10 27 6 0 10 11 10 24
0 14 5 28 11 32 6 3 9 15 6 25 -3 11 -2 19 3 19 4 0 8 10 8 23 1 12 3 36 6 52
2 17 7 51 10 78 3 26 10 56 16 66 13 25 13 157 0 235 -7 41 -19 71 -40 97 -16
21 -30 41 -30 44 0 3 -13 23 -28 43 -16 20 -37 57 -47 82 -10 25 -24 52 -31
60 -26 33 -74 141 -74 168 0 16 -7 35 -15 42 -8 7 -13 16 -10 20 5 9 -12 100
-25 135 -7 19 -20 65 -40 145 -24 95 -36 136 -75 265 -67 217 -92 358 -89 489
2 56 -2 86 -12 102 -12 18 -12 23 -2 28 10 5 10 7 1 12 -7 3 -13 13 -13 22 0
15 2 15 11 2 8 -11 9 -8 4 13 -7 36 -8 358 0 378 3 9 1 27 -4 41 -8 21 -7 28
5 32 9 3 12 11 8 18 -16 26 13 169 37 184 5 3 9 14 9 25 0 26 22 24 50 -6 13
-14 31 -25 41 -25 21 0 38 -22 21 -28 -15 -5 -16 -42 -1 -42 17 0 81 -31 114
-55 17 -12 58 -36 93 -54 55 -28 62 -34 56 -55 -3 -13 1 -39 9 -57 8 -19 12
-49 10 -66 -3 -17 2 -44 11 -61 9 -17 16 -41 16 -52 0 -27 69 -170 82 -170 6
0 7 8 3 18 -3 9 -9 31 -12 47 -7 40 -44 147 -55 160 -4 5 -8 24 -8 42 0 19 -7
50 -15 70 -8 19 -15 42 -15 49 0 23 40 16 97 -16 65 -37 71 -37 66 -2 -4 21
-2 24 6 12 6 -8 11 -11 11 -6 0 4 15 -3 34 -18 19 -14 39 -26 44 -26 5 0 32
-22 61 -50 28 -27 96 -79 151 -115 54 -36 105 -71 112 -78 31 -31 102 -77 120
-77 10 0 18 7 18 15 0 45 45 -9 89 -108 16 -35 34 -67 39 -71 30 -18 76 -259
62 -324 -16 -73 -19 -245 -5 -277 7 -16 20 -49 28 -72 9 -22 44 -82 77 -132
106 -157 147 -304 136 -495 -9 -155 -12 -192 -24 -242 -5 -22 -7 -55 -4 -74 4
-28 2 -32 -12 -27 -12 5 -16 0 -17 -16 -1 -12 -1 -26 0 -31 1 -5 -4 -13 -11
-17 -9 -6 -9 -13 0 -31 6 -13 12 -33 14 -46 5 -41 23 -28 31 23 4 28 9 59 10
70 2 11 6 27 10 35 3 8 11 56 17 105 13 110 31 185 43 185 17 0 -2 195 -23
242 -11 24 -20 55 -20 69 0 26 1 27 78 30 68 4 82 8 111 32 18 15 39 27 46 27
7 0 25 14 38 31 l24 31 6 -158 c5 -154 17 -226 38 -240 17 -10 24 6 11 26 -7
11 -12 28 -12 37 0 14 9 9 35 -19 31 -33 37 -35 70 -28 48 11 63 25 71 69 4
20 11 44 16 54 5 11 5 17 -2 17 -5 0 -10 10 -10 23 0 12 -10 42 -21 67 -34 74
-49 132 -49 193 0 69 15 100 42 86 10 -5 18 -16 18 -24 0 -9 6 -25 13 -38 6
-12 12 -23 13 -25 2 -6 110 53 130 71 27 23 38 9 30 -37 -4 -20 0 -58 10 -92
10 -33 18 -77 20 -99 1 -22 6 -71 11 -110 17 -148 -4 -357 -45 -440 -11 -22
-32 -66 -47 -97 -15 -31 -49 -78 -76 -103 -27 -26 -49 -51 -49 -56 0 -5 -6 -9
-13 -9 -8 0 -24 -11 -36 -24 -27 -28 -58 -30 -72 -4 -13 24 -29 23 -29 -2 0
-14 -9 -21 -37 -26 -51 -9 -113 -36 -113 -49 0 -7 -17 -10 -45 -8 -29 2 -53
-2 -70 -13 -13 -9 -30 -12 -37 -8 -7 4 -64 8 -128 9 -116 1 -143 8 -205 57
-28 22 -87 58 -96 58 -5 0 -14 12 -20 27 -8 21 -12 24 -19 13 -7 -11 -11 -8
-21 13 -7 15 -18 26 -25 23 -7 -3 -20 4 -30 15 -13 15 -14 19 -3 19 8 1 0 9
-18 18 -17 9 -58 43 -91 75 -33 31 -65 57 -70 57 -6 0 -21 15 -34 33 -20 29
-109 118 -171 172 -44 38 -57 70 -53 127 2 29 5 64 5 77 1 16 6 21 15 18 24
-9 43 25 48 85 4 51 2 60 -19 80 -13 12 -23 26 -23 32 0 6 -9 28 -20 48 -29
54 -42 180 -24 230 8 22 14 50 14 62 0 29 20 54 45 58 17 3 20 -3 20 -34 0
-20 3 -40 8 -44 4 -4 7 1 7 11 0 15 3 16 12 7 21 -21 31 -13 25 22 -4 24 1 47
14 72 34 67 20 108 -48 143 -24 12 -73 -1 -73 -19 0 -6 -4 -9 -10 -5 -5 3 -21
-13 -36 -35 -15 -22 -29 -38 -32 -35 -3 3 2 13 11 23 17 19 14 32 -8 32 -19 0
-45 -56 -45 -97 0 -21 -9 -63 -20 -93 -22 -61 -22 -157 0 -227 32 -98 53 -154
62 -159 5 -3 20 -31 34 -61 20 -45 22 -59 12 -71 -8 -10 -13 -50 -13 -116 0
-120 9 -138 99 -212 33 -27 87 -78 120 -113 34 -35 96 -90 138 -123 42 -33 84
-70 92 -83 9 -13 60 -53 114 -88 54 -35 110 -75 125 -89 45 -42 127 -61 267
-64 128 -2 251 15 258 36 5 14 32 -7 32 -25 0 -7 7 -18 15 -25 8 -7 15 -27 15
-44 0 -21 8 -40 24 -55 14 -13 22 -30 19 -40 -8 -30 215 -152 252 -137 8 3 15
0 15 -5 0 -7 10 -9 28 -5 15 4 35 7 45 7 9 0 17 4 17 9 0 13 -28 20 -104 26
-39 2 -72 9 -74 14 -2 6 -10 10 -18 10 -25 0 -151 132 -183 193 -49 90 -33
123 67 137 62 8 75 16 148 88 24 23 46 42 48 42 5 0 -6 -41 -19 -73 -5 -13 -3
-16 8 -11 9 3 19 20 23 37 3 18 16 45 27 61 11 15 20 35 21 45 1 9 16 45 33
81 36 76 56 146 73 248 17 104 5 436 -21 566 -21 105 -21 141 0 85 7 -19 17
-42 22 -51 5 -10 9 -25 9 -33 0 -8 5 -15 11 -15 20 0 -24 129 -79 228 -17 32
-24 64 -27 120 -2 42 -8 100 -13 127 -6 30 -6 90 0 150 20 228 21 287 2 370
-9 44 -16 96 -15 115 3 65 -26 168 -65 230 -12 19 -28 53 -35 75 -12 39 -31
77 -71 142 -11 18 -21 50 -22 72 -2 21 -13 54 -25 74 -11 19 -21 41 -21 50 0
8 -15 28 -32 44 -38 33 -69 71 -50 59 6 -4 12 -3 12 2 0 12 -71 102 -81 102
-4 0 -28 20 -53 44 -25 24 -59 49 -76 56 -16 7 -30 16 -30 21 0 5 -5 9 -10 9
-6 0 -24 10 -40 22 -50 36 -32 67 18 32 12 -8 22 -10 22 -5 0 6 -18 23 -40 37
-26 18 -40 34 -40 48 0 45 -87 136 -130 136 -20 0 -10 -28 18 -45 41 -26 82
-67 82 -82 0 -17 -15 -16 -34 2 -9 9 -17 11 -21 5 -8 -13 -45 26 -45 49 0 27
-17 35 -28 15 -8 -15 -11 -15 -40 0 -17 9 -36 16 -42 16 -12 0 -26 6 -125 50
-27 12 -51 22 -53 21 -6 -3 -59 29 -71 43 -10 12 -9 14 8 9 12 -3 21 -1 21 5
0 19 -15 21 -48 5 -35 -17 -39 -16 -147 47 -58 34 -68 36 -89 15z m76 -66 c22
-20 29 -32 21 -36 -15 -6 -18 -73 -3 -73 6 0 10 11 10 24 0 20 4 23 33 20 48
-5 129 -32 162 -54 17 -11 39 -25 50 -32 43 -28 131 -97 150 -117 16 -19 19
-34 16 -103 -2 -64 0 -79 11 -76 7 3 14 20 16 39 5 55 9 63 28 45 8 -9 21 -16
27 -16 7 0 38 -25 70 -55 31 -30 64 -55 72 -55 22 0 19 7 -19 43 -19 18 -48
49 -66 69 l-31 37 46 -15 c32 -11 50 -25 61 -45 8 -16 19 -27 23 -24 15 9 241
-222 235 -240 -4 -11 0 -15 15 -15 38 0 113 -90 143 -172 11 -32 25 -58 30
-58 5 0 25 -35 44 -77 20 -43 50 -109 69 -148 29 -61 55 -170 46 -199 -1 -6 7
-48 19 -94 18 -69 21 -103 16 -181 -6 -119 -14 -167 -32 -208 -8 -17 -14 -38
-14 -46 0 -9 -6 -17 -12 -19 -7 -3 -13 -13 -13 -24 0 -19 -19 -21 -104 -12
-18 2 -28 -4 -37 -20 -6 -13 -21 -32 -33 -43 -25 -23 -28 -37 -36 -154 -4 -49
-11 -95 -17 -102 -16 -20 -31 -15 -25 7 3 10 -1 24 -9 31 -17 14 -20 84 -3 74
6 -4 8 -13 5 -21 -3 -8 -1 -14 4 -14 13 0 13 47 1 54 -5 3 -7 14 -4 25 5 21
-23 52 -67 73 -17 8 -65 13 -131 13 -89 0 -104 -2 -101 -16 1 -9 -9 -21 -23
-27 -32 -15 -45 -15 -45 -2 0 6 9 10 19 10 23 0 36 16 21 25 -14 9 -82 -25
-103 -52 -10 -13 -25 -30 -33 -38 -24 -23 -2 -92 41 -133 34 -33 41 -35 123
-40 l87 -5 35 33 c19 18 50 39 67 46 31 14 33 13 46 -13 8 -16 20 -46 27 -68
7 -22 22 -50 34 -63 11 -13 21 -31 21 -40 0 -10 13 -20 32 -25 31 -9 32 -11
26 -52 -8 -59 12 -141 46 -184 15 -20 34 -52 41 -72 11 -30 10 -40 -5 -70 -31
-60 -58 -64 -104 -16 l-32 32 2 141 c1 78 -1 145 -4 151 -3 5 -9 33 -13 61 -5
39 -11 52 -23 52 -9 0 -22 5 -28 11 -6 6 -32 15 -58 20 -40 7 -51 6 -75 -11
-16 -11 -34 -20 -41 -20 -14 0 -101 -49 -109 -61 -3 -4 -17 -12 -32 -18 -30
-11 -40 -3 -53 39 -4 14 -27 46 -51 72 -49 52 -60 77 -16 35 15 -15 32 -27 36
-27 10 0 -32 60 -60 85 -33 29 -46 84 -43 177 2 65 9 96 30 141 14 32 23 60
18 62 -4 3 -10 -4 -14 -15 -3 -11 -10 -20 -14 -20 -12 0 -22 153 -11 160 9 5
-129 291 -151 315 -16 17 -10 35 24 65 29 27 57 39 57 24 0 -3 -14 -19 -31
-35 l-31 -29 27 -10 c14 -5 28 -10 30 -10 1 0 10 18 19 40 9 23 23 40 32 40 8
0 52 13 97 29 45 15 104 32 132 36 61 9 105 30 105 51 0 10 -5 14 -15 10 -45
-18 -47 -16 -14 15 20 19 56 48 79 64 23 17 48 43 57 58 8 16 43 56 79 91 83
81 114 123 114 157 0 40 -16 44 -29 8 -6 -17 -40 -59 -77 -93 -36 -35 -78 -82
-94 -106 -30 -45 -98 -105 -130 -115 -10 -3 -25 -17 -34 -30 -9 -14 -23 -25
-30 -25 -7 0 -19 -7 -26 -15 -31 -37 -231 -93 -285 -79 -18 4 -28 -2 -51 -33
-15 -21 -31 -41 -34 -46 -8 -9 -70 12 -70 23 0 16 -64 69 -120 99 -30 16 -75
41 -100 55 -25 14 -53 29 -62 32 -10 4 -18 10 -18 15 0 5 -9 9 -21 9 -30 0
-74 38 -74 63 0 18 -8 23 -50 31 -27 5 -52 12 -55 17 -3 4 -23 10 -45 12 -22
2 -48 8 -57 12 -10 4 -25 4 -33 1 -9 -3 -18 1 -21 9 -3 7 -12 11 -19 8 -14 -5
-117 45 -123 60 -2 4 -10 7 -18 7 -8 0 -22 13 -32 29 -14 25 -105 90 -177 126
-28 14 -30 41 -6 62 12 9 21 22 21 28 0 6 10 21 23 33 12 11 40 39 62 61 22
23 45 41 50 41 6 0 25 16 44 35 18 19 37 35 42 35 5 0 9 7 9 16 0 9 9 18 20
21 11 3 20 14 20 24 0 12 10 21 26 25 16 4 23 11 20 21 -4 9 4 16 24 20 16 3
28 9 25 13 -6 10 52 55 82 64 13 4 26 18 29 31 5 19 10 23 23 16 22 -12 70 24
53 41 -12 12 2 48 19 48 6 0 30 17 54 37 39 32 148 99 167 102 4 0 22 -13 40
-30z m636 -261 c19 -19 14 -30 -8 -18 -11 6 -20 15 -20 20 0 14 14 12 28 -2z
m-53 -36 c-7 -8 -35 13 -35 26 0 13 3 12 19 -4 10 -10 17 -20 16 -22z m265
-214 c0 -6 -7 -5 -15 2 -8 7 -15 17 -15 22 0 6 7 5 15 -2 8 -7 15 -17 15 -22z
m-669 -842 c11 6 31 -24 24 -35 -7 -13 -85 24 -85 39 0 6 -7 10 -15 10 -8 0
-15 4 -15 10 0 5 19 1 42 -10 23 -10 45 -17 49 -14z m1093 -546 c-4 -34 -10
-47 -15 -38 -12 18 -11 58 1 58 6 0 10 10 10 22 0 12 2 19 5 16 4 -3 3 -29 -1
-58z m-104 -80 c0 -5 -7 -10 -16 -10 -8 0 -12 5 -9 10 3 6 10 10 16 10 5 0 9
-4 9 -10z m38 -53 c19 -13 15 -65 -7 -77 -49 -26 -111 2 -111 49 0 15 2 30 4
32 8 7 101 4 114 -4z m-1383 -67 c-4 -14 -12 -19 -22 -16 -8 3 -26 6 -39 6
-34 0 -32 35 4 54 24 13 29 13 46 -3 12 -13 16 -26 11 -41z m1047 33 c10 -9
18 -29 18 -45 0 -24 -5 -30 -29 -34 -17 -4 -43 -19 -58 -35 -29 -29 -55 -41
-33 -14 18 22 -8 20 -32 -2 -13 -12 -37 -16 -86 -17 -60 0 -67 2 -67 19 -1 11
-6 19 -13 18 -7 -2 -12 7 -12 20 1 31 57 58 104 50 23 -4 42 -1 53 8 15 12 16
12 10 -3 -4 -12 0 -21 12 -27 23 -13 35 -3 19 16 -15 19 8 42 53 53 19 4 36 8
38 9 3 1 13 -6 23 -16z m-1161 -81 c-11 -17 -21 -44 -21 -62 0 -18 -4 -29 -10
-25 -13 8 -2 83 17 114 10 16 18 20 25 13 7 -7 4 -20 -11 -40z m1589 -21 c13
-49 13 -49 -15 -43 -32 6 -83 -15 -96 -39 -15 -29 -46 -23 -63 13 -22 43 -21
45 19 40 31 -4 40 1 78 41 47 50 60 48 77 -12z m-2159 -39 c13 -35 15 -52 8
-50 -13 4 -39 82 -38 113 0 14 2 15 6 5 3 -8 14 -39 24 -68z m516 -14 c8 -109
34 -262 51 -304 21 -50 21 -52 2 -47 -11 3 -23 10 -28 17 -35 45 -67 310 -42
341 16 19 15 19 17 -7z m1639 -48 c20 0 18 -43 -4 -70 -19 -24 -95 -39 -106
-21 -4 5 2 28 13 50 20 38 42 53 69 45 8 -2 20 -4 28 -4z m-2119 -67 c8 -32
18 -71 23 -88 5 -16 18 -64 29 -105 10 -41 22 -84 26 -95 9 -31 -20 33 -45 97
-12 32 -27 89 -34 127 -6 38 -15 73 -19 77 -4 4 -7 19 -7 32 0 38 11 20 27
-45z m1900 45 c-3 -8 -6 -5 -6 6 -1 11 2 17 5 13 3 -3 4 -12 1 -19z m40 -25
c-3 -10 -5 -2 -5 17 0 19 2 27 5 18 2 -10 2 -26 0 -35z m-51 -30 c-5 -23 -13
-29 -36 -31 -20 -2 -30 2 -30 11 0 10 8 13 25 10 20 -4 25 0 31 21 9 36 18 25
10 -11z m-173 -66 c8 -34 6 -42 -20 -75 -16 -20 -50 -48 -74 -61 -41 -22 -48
-23 -77 -10 -17 7 -40 30 -52 51 l-21 38 47 30 c27 16 56 30 65 30 10 0 21 5
24 11 10 16 47 28 75 26 19 -2 26 -10 33 -40z m-228 -147 l20 -22 -25 3 c-29
5 -54 48 -43 75 6 16 8 15 18 -8 5 -14 19 -36 30 -48z m712 38 c-3 -7 -5 -2
-5 12 0 14 2 19 5 13 2 -7 2 -19 0 -25z m-1610 -141 c3 -23 2 -37 -5 -37 -14
0 -33 57 -25 76 8 22 23 3 30 -39z m910 -269 c-3 -7 -5 -2 -5 12 0 14 2 19 5
13 2 -7 2 -19 0 -25z m-1150 -370 c-3 -7 -5 -2 -5 12 0 14 2 19 5 13 2 -7 2
-19 0 -25z m-262 -763 c-17 -30 -33 -45 -47 -45 -21 0 -20 5 17 46 6 7 19 24
30 39 30 41 30 11 0 -40z m100 28 c-8 -21 -17 -51 -20 -67 -5 -21 -9 -26 -15
-17 -4 8 -13 10 -19 7 -19 -12 -12 11 13 41 12 15 28 38 35 51 18 34 21 26 6
-15z m-158 -109 c9 -25 -330 -349 -366 -349 -9 0 -15 -7 -13 -17 1 -9 -1 -19
-6 -22 -4 -2 -8 6 -7 19 0 21 48 74 166 182 13 12 64 62 112 112 48 50 92 91
98 91 5 0 12 -7 16 -16z m-343 -245 c-4 -6 -25 -28 -47 -48 -22 -20 -60 -57
-85 -83 -54 -57 -74 -63 -36 -10 34 45 99 108 139 133 35 22 39 23 29 8z
m-105 -205 c3 -16 1 -17 -13 -5 -19 16 -21 34 -3 29 6 -3 14 -13 16 -24z m-66
-62 c-23 -25 -36 -31 -30 -14 1 4 6 6 11 4 5 -2 6 4 3 12 -7 17 -3 21 21 23
18 1 17 -1 -5 -25z m-84 -70 c-13 -11 -29 -17 -36 -15 -20 8 -16 17 15 35 36
22 53 5 21 -20z m-49 -32 c0 -5 -5 -10 -12 -10 -7 0 -21 -9 -33 -20 -96 -93
-117 -111 -122 -107 -3 3 0 12 6 19 6 7 23 28 37 46 43 54 124 100 124 72z"/>
<path d="M3527 12473 c-12 -11 -8 -23 8 -23 8 0 15 7 15 15 0 16 -12 20 -23 8z"/>
<path d="M3475 12450 c-4 -6 -3 -16 3 -22 6 -6 12 -6 17 2 4 6 3 16 -3 22 -6
6 -12 6 -17 -2z"/>
<path d="M4748 11665 c-6 -14 -8 -28 -5 -31 10 -11 37 17 37 37 0 27 -18 23
-32 -6z"/>
<path d="M4674 11565 c-11 -28 -61 -74 -87 -81 -28 -6 -37 -29 -14 -37 16 -5
47 3 47 13 0 5 6 15 13 22 21 21 67 84 67 91 0 13 -21 7 -26 -8z"/>
<path d="M4468 11393 c7 -3 16 -2 19 1 4 3 -2 6 -13 5 -11 0 -14 -3 -6 -6z"/>
<path d="M4880 11210 c0 -5 5 -10 10 -10 6 0 10 5 10 10 0 6 -4 10 -10 10 -5
0 -10 -4 -10 -10z"/>
<path d="M4250 10240 c0 -5 5 -10 11 -10 5 0 7 5 4 10 -3 6 -8 10 -11 10 -2 0
-4 -4 -4 -10z"/>
<path d="M4296 10167 c3 -10 9 -15 12 -12 3 3 0 11 -7 18 -10 9 -11 8 -5 -6z"/>
<path d="M7122 11735 c0 -16 2 -22 5 -12 2 9 2 23 0 30 -3 6 -5 -1 -5 -18z"/>
<path d="M8376 11382 c-3 -6 -1 -14 5 -17 15 -10 25 3 12 16 -7 7 -13 7 -17 1z"/>
<path d="M3350 11350 c-9 -12 -21 -18 -32 -14 -22 7 -25 -18 -4 -35 11 -9 21
-6 45 15 32 26 41 54 18 54 -7 0 -19 -9 -27 -20z"/>
<path d="M4143 10097 c2 -27 9 -53 15 -59 6 -6 8 6 5 39 -3 26 -10 53 -15 58
-7 7 -9 -6 -5 -38z"/>
<path d="M3524 10008 c6 -49 26 -76 26 -35 0 15 -5 27 -12 27 -9 0 -9 3 -1 11
12 12 7 39 -8 39 -6 0 -7 -19 -5 -42z"/>
<path d="M4705 9434 c-27 -13 -54 -29 -59 -34 -6 -6 -21 -10 -35 -10 -15 0
-37 -9 -50 -19 -19 -15 -22 -23 -16 -49 3 -18 12 -32 18 -32 25 0 94 23 153
51 55 26 63 33 68 64 12 62 -2 67 -79 29z m55 -23 c0 -19 -10 -26 -64 -42
l-29 -9 21 20 c12 11 24 20 27 20 4 0 13 7 21 15 20 20 24 19 24 -4z m-105
-50 c3 -6 -2 -14 -12 -19 -29 -16 -66 -18 -70 -4 -8 21 69 43 82 23z"/>
<path d="M4260 9224 c0 -8 5 -12 10 -9 6 3 10 10 10 16 0 5 -4 9 -10 9 -5 0
-10 -7 -10 -16z"/>
<path d="M5395 9164 c-17 -8 -37 -21 -45 -28 -23 -19 -79 -43 -148 -62 -58
-16 -65 -16 -97 -1 -37 18 -60 15 -69 -9 -3 -8 -15 -14 -26 -14 -15 0 -22 -8
-26 -30 -5 -24 -17 -35 -58 -54 -54 -26 -104 -35 -123 -23 -6 4 -23 3 -38 -3
-37 -14 -30 -45 11 -45 16 -1 44 -11 61 -23 31 -22 63 -29 63 -14 0 4 -10 13
-21 20 -26 16 -19 23 46 47 28 10 57 24 66 31 22 20 31 17 24 -6 -3 -11 -2
-20 4 -20 5 0 11 10 13 22 3 20 8 23 39 20 20 -2 83 8 140 22 145 35 254 40
352 14 42 -11 77 -24 77 -29 0 -9 -83 -3 -149 12 -24 5 -46 7 -49 4 -9 -9 21
-26 35 -20 7 2 15 0 18 -5 3 -4 54 -8 113 -8 59 0 126 -5 147 -11 22 -6 60
-16 84 -22 41 -10 43 -12 37 -41 l-6 -30 18 22 18 23 37 -56 c21 -31 42 -59
48 -62 14 -9 99 -140 99 -153 0 -6 3 -12 8 -14 15 -7 42 -71 42 -100 0 -17 3
-28 7 -24 12 12 14 54 3 61 -5 3 -10 13 -10 22 0 15 -36 96 -52 118 -39 53
-76 104 -89 125 -9 14 -26 36 -38 49 -12 13 -20 26 -18 28 12 11 104 -19 137
-46 21 -17 41 -31 45 -31 3 0 40 -26 83 -58 42 -32 85 -61 94 -65 9 -3 25 -21
34 -39 18 -34 79 -121 123 -174 14 -17 35 -42 45 -55 11 -12 30 -65 43 -117
25 -102 27 -113 15 -96 -26 39 -327 214 -367 214 -8 0 -15 7 -15 15 0 9 -6 12
-15 9 -8 -4 -15 -1 -15 5 0 6 -6 11 -14 11 -8 0 -17 9 -21 19 -11 35 -32 45
-51 23 -14 -17 -22 -18 -53 -10 -20 6 -41 14 -47 19 -6 5 -18 7 -27 3 -8 -3
-18 0 -22 5 -3 6 -11 9 -16 6 -18 -12 -8 -23 26 -28 20 -3 44 -15 53 -26 10
-12 34 -21 60 -24 24 -3 48 -9 53 -14 5 -5 16 -40 24 -79 13 -62 13 -77 -1
-146 -10 -43 -21 -78 -25 -78 -5 0 -9 -7 -9 -15 0 -31 19 -14 36 33 10 26 22
53 27 60 5 6 11 42 12 80 4 126 3 121 28 114 48 -12 191 -94 344 -196 57 -37
64 -46 79 -96 9 -30 23 -71 31 -90 41 -94 121 -418 143 -582 10 -71 18 -95 41
-124 18 -23 30 -52 34 -82 3 -26 15 -92 25 -147 25 -126 25 -146 0 -196 -32
-62 -7 -84 29 -25 25 40 42 119 43 201 0 86 -27 478 -52 720 -5 55 -12 129
-16 165 -3 36 -8 68 -10 72 -3 4 -7 24 -9 45 -9 78 -16 110 -37 181 -12 39
-26 72 -30 72 -8 0 -1 -71 9 -100 8 -22 23 -99 27 -145 2 -22 9 -76 15 -120
15 -112 38 -386 46 -540 3 -71 10 -179 15 -239 12 -138 -3 -175 -19 -50 -17
127 -42 278 -47 283 -2 2 -4 -11 -4 -29 0 -56 -14 -23 -27 63 -15 103 -16 127
-4 107 6 -8 7 -18 5 -22 -3 -4 0 -16 5 -25 19 -33 13 35 -6 70 -18 34 -23 50
-27 107 -5 59 -25 128 -76 255 -32 83 -60 166 -60 180 0 6 9 -1 20 -15 10 -14
21 -22 25 -19 3 4 -8 19 -25 35 -43 40 -67 90 -74 152 -7 64 -15 100 -26 127
-22 50 -70 222 -70 252 0 41 -17 52 -30 19 -6 -18 -5 -33 7 -56 8 -17 17 -50
20 -73 3 -23 10 -50 15 -59 5 -10 6 -18 2 -18 -10 0 -25 21 -101 135 -37 55
-83 120 -102 145 l-36 45 55 -39 c30 -22 70 -53 87 -70 18 -16 36 -27 39 -23
10 10 -14 35 -75 80 -30 22 -77 62 -104 88 -48 46 -77 61 -77 40 0 -6 10 -17
22 -25 19 -13 19 -16 5 -22 -9 -3 -14 -10 -11 -15 3 -5 0 -9 -6 -9 -6 0 -8 10
-5 23 5 18 1 26 -20 35 -14 6 -29 22 -34 35 -7 18 -17 23 -47 24 -21 1 -40 6
-42 12 -2 6 -12 11 -22 11 -9 0 -23 7 -30 15 -7 8 -17 15 -22 15 -5 0 -28 9
-50 20 -23 11 -46 20 -52 20 -15 0 -86 33 -86 41 0 3 20 14 45 23 47 18 59 36
26 36 -11 0 -46 -6 -78 -14 -32 -8 -131 -17 -223 -20 -91 -3 -182 -8 -202 -11
-49 -8 -49 7 -2 39 35 24 70 64 62 71 -2 2 -17 -3 -33 -11z m-285 -109 c0 -2
-14 -8 -30 -14 -28 -9 -29 -9 -20 9 6 12 17 16 30 13 11 -3 20 -7 20 -8z m776
-93 c-4 -4 -92 17 -141 34 -23 8 -46 14 -52 14 -7 0 -24 5 -40 12 -28 12 -27
12 22 18 44 4 60 0 132 -35 45 -22 80 -41 79 -43z m199 -472 c3 -5 1 -10 -4
-10 -6 0 -11 5 -11 10 0 6 2 10 4 10 3 0 8 -4 11 -10z m58 -85 c-7 -21 -13
-19 -13 6 0 11 4 18 10 14 5 -3 7 -12 3 -20z"/>
<path d="M4777 8863 c-14 -13 -6 -23 18 -23 16 0 25 6 25 15 0 15 -31 21 -43
8z"/>
<path d="M5910 8720 c0 -5 5 -10 11 -10 5 0 7 5 4 10 -3 6 -8 10 -11 10 -2 0
-4 -4 -4 -10z"/>
<path d="M5090 8681 c0 -5 7 -11 15 -15 9 -3 15 0 15 9 0 8 -7 15 -15 15 -8 0
-15 -4 -15 -9z"/>
<path d="M5133 8678 c-5 -10 -11 -9 65 -12 34 -1 59 1 55 5 -11 10 -114 16
-120 7z"/>
<path d="M5286 8655 c10 -8 31 -15 45 -15 15 0 70 -9 123 -20 53 -11 110 -22
128 -24 43 -6 113 -24 165 -41 23 -8 54 -17 68 -19 14 -3 35 -8 46 -11 16 -5
20 -3 17 6 -4 12 -78 39 -158 56 -14 3 -27 9 -30 14 -3 4 -25 10 -50 13 -25 2
-45 5 -45 7 0 1 -9 3 -20 5 -11 2 -63 12 -115 23 -52 12 -117 21 -144 21 -46
0 -48 -1 -30 -15z"/>
<path d="M5350 8438 c-14 -6 -39 -17 -57 -24 -17 -8 -35 -14 -39 -14 -11 0
-160 -63 -249 -104 -38 -19 -78 -43 -88 -54 -26 -29 -4 -38 32 -13 16 12 33
21 39 21 5 0 22 6 38 14 96 47 189 89 221 100 64 23 153 68 153 77 0 12 -19
10 -50 -3z"/>
<path d="M5145 8293 c-16 -9 -35 -22 -43 -29 -11 -12 -11 -14 4 -14 10 0 33 5
51 12 28 10 36 10 49 -4 14 -14 12 -16 -25 -22 -51 -8 -54 -27 -3 -26 71 0
207 -20 247 -37 22 -9 58 -32 80 -49 22 -18 85 -55 140 -84 55 -28 105 -56
110 -62 10 -10 7 -10 -44 3 -18 5 -33 -55 -18 -70 17 -17 25 -13 29 13 l3 25
50 -24 c68 -31 133 -82 208 -162 98 -106 127 -134 127 -125 0 19 -77 110 -159
190 -177 171 -204 194 -249 216 -142 66 -179 112 -60 73 47 -15 73 -32 112
-72 28 -29 67 -62 86 -75 19 -13 49 -35 65 -51 61 -57 111 -97 140 -112 40
-20 74 -58 58 -64 -7 -3 -13 -11 -13 -19 0 -9 4 -13 9 -9 5 3 32 -17 59 -43
73 -71 91 -155 52 -232 -20 -40 -139 -153 -190 -181 -16 -9 -27 -19 -23 -23 3
-3 -4 -6 -16 -6 -14 0 -25 -9 -32 -27 -20 -54 -56 -82 -164 -132 -5 -2 -4 3 4
12 7 10 17 17 22 17 12 0 112 70 121 84 11 17 -1 21 -15 4 -6 -9 -23 -18 -37
-21 -14 -4 -54 -24 -88 -47 -35 -22 -65 -40 -67 -40 -3 0 -5 11 -5 25 0 14 -8
29 -20 35 -11 6 -20 20 -20 32 0 12 -3 19 -6 16 -18 -19 -123 70 -202 172 -92
118 -102 128 -102 107 0 -21 -14 -22 -30 -2 -7 8 -17 15 -23 15 -5 0 -47 18
-93 40 -46 22 -90 37 -98 34 -9 -3 -14 -9 -12 -13 3 -3 -41 4 -96 18 -98 24
-101 24 -134 6 -19 -10 -48 -31 -66 -47 -18 -16 -52 -34 -75 -40 -24 -6 -43
-14 -43 -19 0 -5 -3 -8 -7 -7 -5 0 -15 -2 -23 -5 -8 -3 -40 -13 -72 -22 -31
-9 -62 -23 -69 -31 -8 -10 -14 -11 -19 -4 -8 13 -60 -4 -60 -20 0 -6 -5 -8
-10 -5 -6 3 -13 0 -16 -8 -3 -8 -26 -26 -52 -40 -80 -44 -82 -46 -161 -218
-12 -25 -21 -54 -21 -65 0 -28 -26 -98 -38 -102 -5 -1 -8 -11 -5 -22 3 -11 -4
-28 -16 -41 -16 -17 -18 -26 -9 -36 6 -7 8 -16 4 -20 -3 -3 -6 -1 -6 7 0 9 -3
10 -14 1 -12 -10 -19 -36 -44 -181 -6 -32 -6 -65 -1 -78 8 -21 -4 -153 -16
-173 -3 -4 -7 -25 -9 -46 -2 -21 -9 -69 -16 -106 -9 -51 -9 -72 -1 -80 8 -8
15 -7 28 5 12 13 18 44 23 120 7 110 48 380 59 388 3 3 7 23 9 45 3 50 96 362
128 431 38 81 79 119 190 174 56 27 106 50 111 50 6 0 25 8 44 17 19 10 69 19
116 23 77 5 84 7 110 37 28 32 89 61 150 70 24 4 47 -3 87 -26 32 -18 58 -27
61 -21 8 12 36 6 138 -28 68 -22 84 -32 125 -80 77 -89 175 -176 209 -186 12
-4 25 -15 28 -25 3 -10 19 -33 36 -52 l30 -33 -23 -18 c-13 -10 -42 -30 -65
-44 -24 -14 -43 -30 -43 -35 0 -5 -7 -9 -15 -9 -9 0 -18 -7 -21 -15 -4 -8 -13
-15 -21 -15 -17 0 -48 -28 -39 -37 7 -7 -13 -33 -26 -33 -5 0 -6 5 -3 10 3 6
2 10 -3 10 -5 0 -12 -9 -15 -19 -2 -11 -24 -32 -48 -47 -138 -87 -149 -96
-149 -115 0 -21 16 -26 23 -6 4 9 6 9 6 0 1 -7 -10 -20 -24 -29 -27 -17 -33
-34 -12 -34 14 0 77 51 116 93 14 16 56 49 92 73 36 24 75 53 87 64 12 11 24
20 27 20 3 0 43 25 89 55 46 30 101 62 122 72 22 10 41 21 44 25 3 4 21 14 40
23 58 27 73 38 132 98 31 31 60 57 65 57 6 0 25 17 44 38 19 20 70 69 113 109
l79 71 8 64 c10 82 3 113 -34 150 -17 17 -44 50 -59 75 -30 47 -75 90 -141
134 -23 15 -67 51 -97 79 -30 28 -66 58 -80 65 -14 7 -55 40 -92 73 -67 60
-151 102 -204 102 -13 0 -40 7 -59 14 -19 8 -35 12 -35 9 0 -3 -9 2 -20 12
-11 10 -20 24 -20 32 0 7 -3 14 -7 15 -21 4 -65 9 -129 16 -46 4 -79 13 -91
25 -24 21 -30 21 -68 0z m-205 -757 c0 -11 -19 -15 -25 -6 -3 5 1 10 9 10 9 0
16 -2 16 -4z m-130 -82 c0 -8 -5 -12 -10 -9 -6 4 -8 11 -5 16 9 14 15 11 15
-7z m930 -414 c0 -5 -5 -10 -11 -10 -5 0 -7 5 -4 10 3 6 8 10 11 10 2 0 4 -4
4 -10z m-40 -20 c0 -5 -5 -10 -11 -10 -5 0 -7 5 -4 10 3 6 8 10 11 10 2 0 4
-4 4 -10z m-79 -50 c-13 -11 -28 -20 -35 -20 -6 0 0 9 14 20 33 26 52 25 21 0z"/>
<path d="M5471 8241 c-10 -6 -9 -10 5 -15 20 -8 25 -4 16 11 -4 7 -13 9 -21 4z"/>
<path d="M5515 8210 c3 -5 8 -10 11 -10 2 0 4 5 4 10 0 6 -5 10 -11 10 -5 0
-7 -4 -4 -10z"/>
<path d="M4030 7919 c0 -5 5 -7 10 -4 6 3 10 8 10 11 0 2 -4 4 -10 4 -5 0 -10
-5 -10 -11z"/>
<path d="M3940 7770 c0 -11 5 -20 10 -20 6 0 10 9 10 20 0 11 -4 20 -10 20 -5
0 -10 -9 -10 -20z"/>
<path d="M3987 7693 c-4 -3 -7 -11 -7 -17 0 -6 5 -5 12 2 6 6 9 14 7 17 -3 3
-9 2 -12 -2z"/>
<path d="M3933 7653 c-17 -6 -16 -23 1 -23 8 0 16 7 20 15 6 15 1 17 -21 8z"/>
<path d="M3842 7498 c-17 -17 -15 -28 7 -28 16 0 31 18 31 36 0 9 -27 3 -38
-8z"/>
<path d="M6826 7463 c9 -38 14 -42 14 -10 0 14 -5 29 -10 32 -7 4 -8 -3 -4
-22z"/>
<path d="M3807 7456 c-4 -10 -5 -21 -2 -24 9 -9 17 6 13 25 -3 17 -4 17 -11
-1z"/>
<path d="M3766 7404 c-3 -9 -3 -20 0 -25 9 -15 34 10 27 27 -7 19 -19 18 -27
-2z"/>
<path d="M3582 7370 c-6 -11 -12 -24 -12 -30 0 -17 27 -11 34 8 3 9 9 23 12
30 9 20 -20 14 -34 -8z"/>
<path d="M3710 7350 c-14 -16 -29 -29 -34 -29 -5 -1 -28 -18 -50 -38 -60 -54
-95 -83 -101 -83 -3 0 -31 -20 -63 -45 -31 -25 -61 -45 -65 -45 -10 0 22 43
87 116 61 67 80 94 72 101 -7 8 -116 -109 -110 -119 3 -4 -2 -8 -10 -8 -9 0
-16 -4 -16 -8 0 -27 -145 -172 -196 -197 -36 -17 -38 -35 -3 -35 10 0 19 -3
19 -6 0 -11 -23 -50 -43 -71 -16 -18 -17 -23 -6 -23 42 0 209 144 225 193 8
24 28 47 42 47 6 0 26 15 45 33 52 49 108 97 113 97 3 0 15 10 28 23 45 44 86
77 95 77 9 0 21 23 21 41 0 18 -25 7 -50 -21z m-322 -315 c-6 -14 -16 -25 -23
-25 -6 0 -31 -20 -55 -45 -24 -24 -46 -43 -48 -40 -6 6 40 78 63 97 11 10 28
17 38 18 9 0 17 5 17 10 0 6 4 10 10 10 6 0 5 -10 -2 -25z"/>
<path d="M8770 7220 c0 -5 5 -10 10 -10 6 0 10 5 10 10 0 6 -4 10 -10 10 -5 0
-10 -4 -10 -10z"/>
<path d="M2147 7090 c-21 -6 -50 -16 -65 -24 -15 -8 -42 -12 -61 -10 -29 3
-33 1 -28 -16 7 -25 -33 -55 -63 -47 -14 4 -25 -2 -36 -18 -9 -14 -26 -27 -37
-31 -12 -4 -25 -12 -29 -18 -6 -8 -11 -7 -17 4 -8 12 -12 10 -19 -10 -5 -14
-8 -28 -5 -32 7 -14 39 -9 64 10 39 28 60 40 139 78 104 50 144 63 162 53 16
-9 61 -21 168 -44 84 -19 166 -52 316 -127 67 -33 132 -60 146 -60 14 0 38
-12 54 -27 58 -52 198 -223 224 -272 7 -13 28 -39 46 -57 19 -18 34 -36 34
-39 0 -14 55 -63 70 -63 9 0 25 -9 35 -20 10 -11 22 -20 27 -20 15 0 8 25 -12
37 -10 7 -24 22 -31 34 -6 12 21 -6 62 -40 82 -69 159 -111 202 -111 41 0 29
24 -16 31 -20 3 -53 18 -74 32 -21 15 -73 51 -116 82 -43 30 -82 53 -87 50 -8
-5 -59 48 -79 82 -9 16 -12 16 -21 3 -5 -8 -10 -10 -10 -5 0 6 -24 40 -53 76
-28 36 -63 81 -77 100 -14 19 -47 57 -73 86 -27 28 -46 57 -42 63 3 6 3 9 -2
8 -5 -2 -24 14 -42 34 -21 24 -45 40 -67 44 -19 3 -34 10 -34 15 0 5 -3 8 -7
7 -5 -1 -21 4 -38 11 -16 7 -52 17 -80 23 -27 6 -60 15 -72 20 -12 6 -29 8
-38 4 -9 -3 -26 -1 -38 6 -12 7 -42 15 -67 19 -25 4 -54 10 -65 12 -11 3 -41
9 -68 13 -26 3 -50 11 -53 15 -5 9 3 11 56 13 40 2 152 -23 177 -39 36 -24 50
-17 22 11 -14 14 -43 30 -65 35 -21 5 -48 12 -59 14 -46 11 -123 13 -158 5z
m525 -190 c15 -11 33 -20 40 -20 17 0 77 -49 60 -50 -11 0 -89 38 -166 83
l-31 18 35 -6 c19 -3 47 -14 62 -25z"/>
<path d="M1898 7053 c-30 -3 -48 -9 -48 -17 0 -19 12 -27 24 -17 6 5 29 11 50
13 22 2 41 9 44 16 2 6 -2 11 -10 10 -7 -1 -34 -3 -60 -5z"/>
<path d="M1707 6853 c-15 -16 -30 -49 -37 -78 -6 -27 -16 -54 -23 -60 -39 -31
-81 -211 -60 -257 8 -19 11 -12 16 41 7 64 30 155 47 181 16 26 20 4 9 -51 -6
-30 -13 -67 -15 -82 -2 -16 -7 -34 -11 -40 -4 -6 -8 -25 -10 -42 -2 -16 -7
-31 -12 -33 -4 -1 -6 -13 -4 -25 3 -13 -1 -48 -7 -78 -6 -30 -11 -65 -11 -79
0 -32 -18 -80 -32 -80 -5 0 -4 -8 5 -17 18 -23 16 -49 -11 -150 -14 -50 -28
-83 -36 -83 -10 0 -13 -19 -13 -69 0 -56 3 -69 14 -64 10 4 14 -3 14 -21 0
-14 4 -26 9 -26 4 0 7 33 5 73 -2 51 1 78 12 91 13 18 14 15 14 -32 0 -29 5
-52 10 -52 6 0 10 40 11 98 1 145 6 172 64 307 23 53 65 209 65 238 0 61 -24
17 -47 -84 -12 -57 -27 -113 -32 -124 -6 -11 -13 -30 -16 -42 -4 -13 -11 -23
-17 -23 -5 0 -7 7 -4 16 5 13 22 106 31 174 2 14 8 38 14 53 6 16 8 33 5 38
-3 6 -2 15 4 22 8 11 17 60 38 197 4 24 13 55 21 67 9 13 11 23 7 23 -5 1 4
12 21 25 16 13 26 28 22 32 -5 4 -12 1 -17 -7 -5 -8 -12 -12 -15 -8 -3 3 1 13
10 22 15 15 13 36 -4 36 -4 0 -19 -12 -34 -27z m-140 -915 c-3 -8 -6 -5 -6 6
-1 11 2 17 5 13 3 -3 4 -12 1 -19z"/>
<path d="M6930 6871 c0 -5 -11 -19 -25 -32 -13 -13 -25 -30 -25 -38 0 -10 10
-5 29 13 30 28 47 66 30 66 -5 0 -9 -4 -9 -9z"/>
<path d="M2865 6820 c-7 -12 15 -27 78 -50 55 -21 75 -40 40 -40 -14 0 -13 -3
5 -20 12 -12 22 -26 22 -32 0 -7 32 -42 70 -79 48 -45 69 -60 65 -46 -4 12
-28 43 -54 68 -51 48 -74 82 -64 93 11 10 19 7 48 -20 29 -27 46 -25 29 4 -14
22 -104 82 -125 82 -8 0 -37 11 -62 24 -26 13 -49 20 -52 16z"/>
<path d="M6821 6743 c-13 -28 -13 -28 8 -9 22 20 27 36 13 36 -5 0 -14 -12
-21 -27z"/>
<path d="M2660 6720 c0 -5 5 -10 11 -10 5 0 7 5 4 10 -3 6 -8 10 -11 10 -2 0
-4 -4 -4 -10z"/>
<path d="M6802 6665 c-30 -30 -55 -55 -57 -55 -2 0 -19 -15 -38 -32 -36 -34
-151 -118 -161 -118 -24 0 -160 -116 -191 -163 -9 -15 -24 -27 -31 -27 -8 0
-14 -4 -14 -10 0 -5 -9 -10 -20 -10 -11 0 -20 -4 -20 -9 0 -10 -108 -53 -265
-106 -111 -38 -244 -91 -320 -129 -55 -27 -69 -25 -59 7 6 19 5 20 -8 9 -20
-16 -28 -46 -18 -62 8 -13 44 -5 117 27 17 7 38 13 46 13 9 0 31 9 49 19 18
10 67 29 108 41 41 13 98 33 125 45 28 12 88 35 135 51 124 41 418 185 426
207 7 21 -4 37 -14 20 -7 -12 -194 -104 -200 -99 -6 6 103 94 158 127 30 18
89 61 130 94 41 34 90 70 108 79 18 9 30 21 27 27 -4 5 7 25 24 45 29 32 41
65 24 64 -5 -1 -32 -25 -61 -55z"/>
<path d="M6748 6663 c7 -3 16 -2 19 1 4 3 -2 6 -13 5 -11 0 -14 -3 -6 -6z"/>
<path d="M5175 6648 c-3 -7 20 -76 50 -152 30 -77 53 -141 51 -144 -3 -2 -20
27 -40 64 -40 80 -62 111 -71 103 -3 -4 12 -40 33 -81 42 -78 84 -177 125
-293 54 -151 77 -189 99 -167 8 8 5 16 -9 29 -11 10 -29 43 -39 73 -10 30 -21
60 -25 65 -4 6 -10 25 -14 42 -5 28 -4 32 9 27 18 -7 21 7 7 22 -6 5 -21 42
-35 83 -28 82 -25 98 21 121 58 30 103 63 103 76 0 16 -26 19 -35 3 -4 -5 -17
-15 -28 -20 -12 -5 -40 -20 -63 -34 l-41 -24 -17 42 c-10 23 -26 61 -37 84
-10 24 -19 52 -19 62 0 24 -18 38 -25 19z"/>
<path d="M4910 6516 c-50 -62 -92 -88 -124 -80 -34 8 -43 24 -23 39 10 7 17
15 17 19 0 14 -23 4 -60 -25 -24 -20 -45 -29 -55 -25 -22 8 -55 -11 -55 -32 0
-18 -90 -80 -150 -102 -19 -8 -57 -23 -85 -35 -79 -34 -149 -60 -158 -57 -5 1
-6 -2 -3 -6 3 -5 -27 -24 -67 -42 -81 -37 -88 -37 -407 -25 -96 4 -172 3 -168
0 4 -4 29 -9 55 -11 26 -3 71 -6 98 -9 28 -2 50 -4 50 -5 0 0 55 -1 123 -2 67
-1 122 -5 122 -8 0 -8 -78 -35 -145 -50 -40 -10 -64 -9 -120 3 -38 8 -72 13
-74 11 -10 -9 19 -26 65 -39 27 -7 43 -14 37 -14 -20 -1 -15 -21 5 -21 9 0 43
9 75 20 31 10 84 22 117 26 37 4 60 11 60 19 0 7 28 20 63 29 147 40 287 108
287 141 0 7 15 18 33 25 71 29 196 92 207 105 7 8 18 15 26 15 7 0 17 6 21 13
23 35 41 39 87 22 42 -16 46 -16 73 0 15 10 44 37 63 61 19 23 38 43 41 43 6
1 56 -75 77 -114 15 -29 52 -142 52 -157 -1 -24 -47 -65 -94 -83 -57 -22 -67
-35 -28 -35 34 0 67 16 102 48 13 12 27 22 31 22 9 0 99 -161 99 -179 0 -8 5
-29 12 -48 11 -29 10 -35 -8 -51 -10 -11 -44 -48 -74 -83 -123 -142 -191 -189
-272 -189 -43 0 -42 1 64 53 114 57 178 100 165 113 -4 4 -27 -7 -52 -25 -25
-18 -45 -29 -45 -24 0 4 -4 3 -8 -2 -11 -16 -60 -45 -74 -45 -7 0 -26 -7 -42
-15 -26 -14 -30 -14 -41 2 -11 15 -13 15 -23 -4 -12 -22 -112 -83 -136 -83 -8
0 -16 -3 -18 -8 -1 -4 -37 -23 -78 -41 -41 -19 -96 -47 -121 -62 -28 -18 -67
-31 -102 -35 -41 -5 -57 -11 -57 -22 0 -10 7 -13 26 -9 l25 4 -25 -26 c-30
-31 -31 -35 -12 -54 13 -12 9 -17 -27 -36 -23 -12 -56 -30 -73 -40 -17 -10
-45 -22 -62 -26 -18 -3 -32 -11 -32 -16 0 -5 -7 -9 -15 -9 -8 0 -15 -4 -15 -8
0 -5 -11 -14 -25 -20 -14 -7 -22 -17 -19 -25 3 -8 -3 -20 -13 -28 -16 -13 -17
-12 -4 4 8 9 11 20 8 24 -6 5 -157 -56 -167 -68 -3 -4 -15 -9 -27 -13 -13 -4
-23 -13 -23 -21 0 -7 -13 -16 -30 -20 -16 -4 -30 -10 -30 -14 0 -5 -15 -11
-33 -14 -18 -3 -61 -19 -97 -36 -35 -17 -67 -31 -72 -31 -15 0 -157 -70 -163
-80 -3 -6 -14 -10 -24 -10 -10 0 -24 -7 -31 -15 -7 -8 -20 -15 -30 -15 -10 0
-24 -10 -32 -22 -13 -19 -26 -22 -121 -26 -89 -4 -105 -7 -96 -18 14 -17 11
-18 -112 -38 -125 -21 -138 -20 -166 6 l-23 21 0 -22 c0 -16 10 -26 37 -37 33
-14 47 -14 147 1 61 10 145 26 186 37 41 11 84 21 95 23 35 6 68 14 125 30 30
9 62 17 70 18 8 2 29 10 46 19 17 10 34 15 37 12 3 -3 13 -1 24 5 28 16 124
41 134 35 5 -3 9 -1 9 3 0 5 10 13 22 18 28 13 39 42 12 30 -11 -4 -68 -21
-129 -37 -60 -16 -118 -33 -127 -38 -21 -12 -28 -12 -28 -2 0 4 15 13 33 21
17 7 64 28 102 46 139 66 163 74 206 72 26 -1 44 3 47 11 2 7 8 12 14 12 5 0
21 9 34 19 14 11 49 28 77 37 29 9 66 25 84 35 l32 18 5 -42 c3 -23 8 -71 11
-107 9 -102 12 -119 28 -215 9 -49 25 -153 36 -230 12 -77 32 -189 47 -250 14
-60 28 -122 31 -137 3 -16 10 -28 15 -28 6 0 8 -6 5 -14 -3 -7 2 -24 11 -37
20 -29 87 -165 97 -199 4 -14 23 -56 40 -95 18 -38 36 -79 39 -90 3 -11 27
-41 52 -67 34 -35 47 -58 51 -85 3 -22 16 -50 31 -65 14 -16 23 -29 19 -29 -4
-1 -11 -3 -17 -4 -5 -1 -13 -3 -17 -4 -5 -1 -1 -6 7 -12 12 -9 11 -9 -5 -2
-11 4 -58 7 -105 6 -47 -1 -123 -2 -170 -2 -47 0 -96 -1 -110 -2 -36 -2 -50
-1 -98 5 -35 4 -43 2 -38 -9 7 -19 -4 -24 -29 -14 -19 7 -19 8 -1 8 11 1 16 4
12 8 -10 10 -76 11 -76 1 0 -4 7 -8 15 -8 8 0 15 -4 15 -8 0 -4 -21 -7 -47 -5
-141 6 -188 1 -180 -20 2 -7 13 -11 23 -9 10 2 46 3 79 3 302 0 334 1 345 19
6 8 10 11 10 5 0 -6 42 -8 117 -5 77 3 142 0 188 -8 38 -8 81 -15 94 -16 14
-2 27 -8 29 -15 3 -10 -4 -11 -27 -6 -20 4 -31 3 -31 -4 0 -6 7 -11 16 -11 9
0 37 -11 63 -24 88 -45 131 -60 131 -45 0 5 -8 12 -17 15 -49 16 -123 50 -123
57 0 4 14 7 30 7 17 0 30 -4 30 -10 0 -5 5 -10 11 -10 5 0 7 4 4 10 -9 15 -24
18 220 -40 127 -30 139 -42 35 -35 -47 3 -98 9 -114 12 -21 4 -27 2 -24 -8 6
-18 61 -26 238 -34 80 -3 152 -8 160 -10 69 -19 110 -14 89 11 -9 11 -6 13 20
10 39 -4 53 -16 20 -17 -21 0 -19 -2 11 -14 48 -18 80 -18 80 0 0 18 -5 18
-31 5 -15 -9 -19 -7 -19 6 0 13 7 15 33 10 123 -21 171 -26 241 -26 44 1 87 5
97 11 10 5 31 9 47 9 16 0 48 7 71 15 23 8 42 14 44 14 14 -2 145 60 153 72 3
5 10 7 15 4 16 -10 10 22 -7 36 -20 16 -16 19 122 64 60 20 125 45 145 55 20
11 44 20 53 20 9 0 16 5 16 10 0 6 7 10 16 10 29 0 284 130 290 147 3 10 8 25
11 33 4 8 5 22 4 32 -1 9 7 54 19 101 11 47 20 100 20 118 1 19 10 84 21 144
11 61 22 119 23 130 9 58 47 135 88 177 21 22 38 44 38 49 0 17 -45 -12 -68
-44 -13 -18 -29 -41 -37 -52 -14 -19 -14 -17 -9 15 8 51 33 131 49 161 8 14
12 29 9 32 -3 3 0 15 6 28 7 12 19 54 27 93 21 111 23 116 33 116 5 0 12 -11
16 -25 7 -27 34 -56 34 -35 0 6 -9 23 -20 38 -11 14 -25 44 -31 68 -7 26 -18
44 -29 47 -29 8 -98 119 -131 212 -10 28 -23 49 -29 47 -17 -4 -35 19 -55 73
-11 28 -25 61 -32 75 -7 14 -13 35 -13 48 0 13 -11 38 -25 56 -14 18 -25 36
-25 40 0 4 -13 27 -30 51 -16 24 -30 50 -30 57 0 7 -9 31 -20 52 -12 21 -29
59 -40 85 -20 52 -41 85 -112 178 -27 34 -48 69 -48 78 0 21 -24 14 -28 -8 -2
-9 29 -56 68 -104 39 -48 74 -100 77 -115 3 -16 9 -28 14 -28 5 0 9 -6 9 -12
0 -7 11 -34 24 -60 25 -52 21 -65 -6 -20 -10 15 -31 43 -47 62 -17 19 -31 40
-31 46 0 5 -18 28 -39 50 -21 21 -50 60 -63 85 -45 84 -153 258 -160 259 -16
0 -7 -28 24 -76 18 -27 41 -65 53 -85 40 -70 61 -103 146 -228 48 -69 101
-143 119 -163 20 -24 30 -44 26 -54 -4 -9 0 -21 8 -28 26 -19 98 -205 109
-281 9 -57 32 -184 55 -295 11 -52 25 -126 32 -165 7 -38 19 -75 27 -82 11 -8
14 -24 10 -55 -5 -44 -46 -171 -60 -184 -4 -4 -7 -17 -7 -29 0 -11 -4 -25 -9
-30 -13 -14 -31 -85 -22 -85 4 0 20 33 36 73 71 185 77 196 69 132 -3 -27 -8
-66 -10 -85 -2 -19 -7 -51 -10 -70 -11 -58 -13 -89 -13 -221 -1 -112 -22 -333
-37 -382 -3 -10 -15 -22 -27 -27 -12 -6 -35 -20 -50 -32 -24 -19 -29 -20 -37
-8 -8 12 -11 11 -16 -7 -4 -13 -11 -20 -20 -16 -8 3 -21 0 -29 -7 -8 -7 -15
-10 -15 -7 0 4 -29 -5 -65 -18 -77 -29 -76 -29 -69 -10 7 17 -21 21 -31 5 -11
-17 -103 -60 -130 -60 -14 0 -25 -4 -25 -9 0 -5 -16 -12 -35 -15 -19 -4 -35
-11 -35 -16 0 -17 -45 -57 -70 -63 -15 -3 -33 0 -44 9 -26 18 -70 18 -86 -1
-18 -21 -9 -26 27 -16 18 5 37 5 47 -1 16 -9 12 -13 -25 -29 -23 -11 -49 -17
-56 -15 -8 3 -13 -2 -13 -12 -1 -12 -34 -34 -108 -70 -94 -46 -114 -52 -167
-51 -33 0 -76 7 -95 14 -35 13 -34 13 39 14 107 1 191 18 226 46 16 13 26 28
21 32 -4 4 -14 -1 -22 -11 -8 -11 -14 -17 -14 -13 0 4 -8 4 -17 -1 -10 -6 -38
-13 -63 -17 -40 -7 -43 -6 -31 8 19 24 3 42 -19 22 -15 -13 -37 -17 -101 -16
-113 1 -149 9 -149 31 0 10 9 22 20 25 11 3 20 11 20 16 0 5 9 9 19 9 11 0 27
10 35 22 20 28 12 37 -12 15 -10 -10 -22 -17 -26 -17 -4 0 -20 -9 -35 -19 -15
-11 -39 -23 -54 -26 -15 -4 -27 -11 -27 -16 0 -10 -44 -11 -117 -3 -50 6 -75
24 -34 24 24 0 88 27 96 40 3 5 14 10 25 10 10 0 51 14 91 31 220 91 285 109
452 125 47 5 67 11 67 21 0 10 -10 12 -37 8 -21 -2 -72 -7 -113 -10 -81 -6
-153 -26 -270 -75 -41 -17 -104 -42 -140 -57 -36 -14 -79 -31 -97 -39 -17 -8
-35 -14 -40 -14 -9 0 -73 -28 -83 -37 -2 -2 2 -9 10 -14 12 -8 11 -9 -5 -5
-11 3 -76 10 -145 16 -69 6 -132 14 -140 17 -8 3 -23 5 -32 4 -10 -1 -18 3
-18 8 0 6 5 11 10 11 6 0 10 5 10 10 0 16 -19 11 -41 -11 l-21 -21 -41 28
c-40 26 -137 120 -137 133 0 3 -11 28 -24 56 -14 27 -30 72 -37 98 -7 29 -20
52 -32 59 -17 9 -19 8 -13 -7 3 -9 9 -29 12 -43 4 -21 0 -17 -20 16 -27 45
-51 116 -36 107 5 -3 11 -1 14 4 3 5 -5 16 -19 25 -25 16 -48 78 -60 161 -6
41 -25 119 -51 211 -8 28 -14 61 -14 73 0 11 -4 29 -10 39 -13 23 -40 109 -40
127 0 8 -5 15 -11 15 -7 0 -9 -9 -5 -22 4 -13 14 -45 22 -73 8 -27 24 -88 34
-134 10 -46 22 -91 25 -100 4 -9 8 -32 10 -51 1 -19 6 -43 10 -54 6 -14 5 -18
-6 -14 -7 2 -23 38 -35 79 -12 41 -40 115 -61 164 -34 77 -63 169 -79 248 -2
11 -6 54 -10 96 -4 42 -13 88 -21 104 -11 23 -11 27 0 27 11 0 13 9 6 43 -4
23 -13 74 -19 112 -6 39 -13 84 -17 100 -6 29 -6 30 14 12 17 -14 23 -40 33
-130 12 -109 49 -226 58 -184 2 10 0 23 -5 30 -16 21 -32 89 -38 157 -2 36 -7
74 -9 85 -2 11 -4 30 -5 43 -1 14 -7 22 -20 22 -12 0 -21 10 -26 28 -13 51
-14 101 -3 108 6 4 8 3 4 -4 -3 -6 -2 -13 4 -17 5 -3 10 3 10 14 0 12 5 21 10
21 6 0 10 -4 10 -10 0 -19 24 -10 45 16 14 18 48 36 101 53 72 24 79 29 77 51
-2 21 5 28 40 44 23 11 45 22 50 24 4 2 7 -3 7 -12 0 -9 5 -16 10 -16 6 0 10
5 10 10 0 6 11 15 25 20 14 5 25 14 25 19 0 5 10 13 21 16 12 4 35 20 50 36
16 17 29 27 29 24 0 -4 14 3 30 15 17 12 30 26 30 31 0 14 -30 11 -36 -5 -3
-8 -13 -12 -23 -9 -9 2 -23 -3 -30 -11 -8 -9 -29 -16 -48 -16 -30 0 -34 2 -23
15 6 8 15 14 18 13 4 -1 51 20 105 46 91 45 104 49 190 53 129 6 176 34 315
188 29 32 56 63 60 69 4 6 15 17 25 25 15 12 18 10 28 -18 6 -17 15 -31 20
-31 4 0 2 18 -6 40 -12 34 -12 42 1 54 20 20 18 26 -8 23 -19 -2 -24 5 -34 49
-6 29 -25 80 -43 115 -17 34 -31 68 -31 76 0 8 -4 12 -9 9 -5 -3 -16 15 -25
41 -21 62 -20 66 6 18 12 -22 23 -34 25 -28 7 19 -74 170 -123 234 -24 30 -44
61 -44 67 0 21 -14 12 -50 -32z m-833 -392 c-3 -3 -12 -4 -19 -1 -8 3 -5 6 6
6 11 1 17 -2 13 -5z m428 -664 c-3 -5 -13 -10 -21 -10 -8 0 -14 -4 -14 -10 0
-5 -6 -7 -14 -4 -8 3 -24 -4 -35 -15 -12 -12 -21 -18 -21 -15 0 3 -20 -6 -45
-19 -41 -24 -63 -24 -47 -1 13 17 89 65 118 74 41 12 86 12 79 0z m2215 -362
c0 -16 -3 -19 -11 -11 -6 6 -8 16 -5 22 11 17 16 13 16 -11z m79 -141 c26 -53
51 -94 54 -91 3 3 3 13 0 22 -3 10 4 6 16 -8 17 -20 19 -34 14 -74 -3 -26 -9
-60 -13 -75 -8 -24 -8 -24 -9 -3 -1 12 -8 39 -17 60 -8 20 -16 50 -16 66 -1
18 -7 30 -19 33 -17 5 -50 80 -65 148 -10 44 1 29 55 -78z m-85 31 c32 -68 44
-125 43 -193 -1 -30 1 -55 5 -55 5 0 8 20 8 45 0 25 5 45 10 45 6 0 10 -9 10
-19 0 -11 4 -22 9 -26 5 -3 13 -29 16 -59 6 -42 2 -67 -16 -117 -30 -86 -43
-97 -36 -32 4 34 2 53 -5 55 -7 3 -12 23 -12 45 -1 23 -4 44 -8 48 -4 4 -4 13
-1 21 3 8 0 20 -6 28 -6 7 -9 15 -6 18 4 4 -26 174 -41 226 -11 39 5 24 30
-30z m69 -554 c-6 -44 -8 -46 -13 -19 -3 17 -1 40 5 52 14 31 16 23 8 -33z
m-30 -218 c-3 -4 -9 -31 -13 -60 l-8 -51 -1 50 c0 28 2 75 6 105 l7 55 7 -45
c3 -25 4 -49 2 -54z m-2525 -41 c6 -22 14 -51 17 -65 4 -14 9 -33 12 -44 8
-28 -16 -9 -29 22 -12 31 -48 162 -48 177 0 18 36 -49 48 -90z m87 -185 c7
-33 6 -34 -9 -15 -8 11 -16 31 -16 45 0 33 16 14 25 -30z m22 -72 c-3 -8 -6
-5 -6 6 -1 11 2 17 5 13 3 -3 4 -12 1 -19z m63 -146 c0 -9 10 -35 21 -57 15
-27 17 -36 6 -27 -19 16 -50 102 -36 102 5 0 9 -8 9 -18z m1608 -414 c-8 -12
-20 -24 -26 -26 -15 -5 -8 28 9 39 24 15 32 10 17 -13z m-65 -25 c9 -9 -49
-43 -73 -43 -10 0 -22 -4 -25 -10 -8 -13 -35 -13 -35 0 0 5 12 13 28 16 15 4
34 12 42 19 14 11 37 22 51 24 3 1 9 -2 12 -6z m-824 -19 c2 -2 -10 -4 -27 -4
-18 0 -32 5 -32 10 0 9 47 4 59 -6z m185 -15 c-6 -10 -63 -8 -70 2 -3 5 13 8
35 7 22 -1 38 -5 35 -9z m-78 -50 c3 -5 -10 -7 -27 -5 -18 2 -35 8 -36 13 -4
12 55 4 63 -8z"/>
<path d="M6860 4853 c0 -13 5 -23 10 -23 13 0 13 11 0 30 -8 12 -10 11 -10 -7z"/>
<path d="M6595 6529 c-11 -17 1 -21 15 -4 8 9 8 15 2 15 -6 0 -14 -5 -17 -11z"/>
<path d="M6726 6438 c-23 -13 -20 -60 7 -107 12 -22 59 -80 104 -128 123 -132
146 -160 131 -167 -9 -4 -8 -5 2 -5 29 2 58 -13 71 -37 25 -48 118 -113 239
-170 19 -9 44 -24 55 -33 29 -25 94 -61 110 -61 8 0 18 -6 22 -13 13 -21 182
-128 238 -150 27 -12 66 -30 85 -42 19 -12 55 -31 80 -43 58 -27 151 -114 185
-172 15 -25 32 -49 39 -55 23 -19 61 -80 109 -174 27 -53 60 -112 74 -132 18
-28 24 -51 26 -101 2 -59 -1 -68 -28 -99 -25 -29 -81 -142 -108 -221 -4 -10
-12 -18 -19 -18 -13 0 -70 -133 -84 -195 -4 -16 -18 -52 -30 -79 -13 -28 -24
-55 -24 -62 0 -6 -7 -14 -15 -18 -8 -3 -15 -12 -15 -21 0 -9 -9 -25 -20 -37
-11 -12 -20 -28 -20 -35 0 -7 -4 -13 -9 -13 -5 0 -16 -18 -25 -40 -9 -22 -20
-40 -25 -40 -5 0 -12 -11 -15 -24 -3 -13 -23 -52 -44 -87 -22 -35 -43 -75 -47
-88 -4 -14 -16 -34 -26 -45 -21 -22 -24 -42 -9 -51 5 -3 12 7 16 22 3 15 12
33 19 38 7 6 15 19 17 30 1 11 11 27 21 37 9 10 17 25 17 33 0 8 5 15 11 15 6
0 9 6 6 14 -3 8 0 17 7 19 7 3 25 31 40 62 20 40 32 55 43 51 11 -5 14 -1 10
13 -3 12 1 22 9 25 8 3 14 11 14 18 0 7 9 30 19 50 11 19 17 39 14 42 -4 3 -1
6 6 6 7 0 10 -8 7 -17 -14 -50 -36 -195 -31 -204 4 -5 -8 -23 -26 -39 -34 -29
-34 -54 0 -33 16 10 17 8 14 -15 -8 -50 -34 -157 -43 -177 -5 -11 -19 -48 -31
-83 -22 -63 -95 -152 -126 -152 -7 0 -13 -4 -13 -9 0 -39 74 8 128 82 47 64
77 147 106 297 13 63 33 133 44 155 12 22 22 45 22 52 0 8 4 21 9 31 11 21 23
67 52 192 28 125 46 168 86 210 18 20 33 42 33 50 0 9 -12 2 -30 -18 -29 -32
-41 -23 -21 16 5 9 17 37 26 62 9 25 21 52 26 60 5 8 16 30 24 49 9 19 29 56
45 83 17 27 30 56 31 66 0 13 2 14 6 2 13 -34 78 -131 81 -121 2 6 -13 45 -33
87 -42 86 -37 113 13 73 20 -17 36 -46 52 -94 12 -38 29 -89 37 -112 20 -60 7
-183 -28 -268 -24 -56 -42 -113 -44 -140 -10 -86 -19 -132 -30 -145 -7 -8 -18
-33 -25 -55 -47 -150 -72 -210 -129 -308 -33 -58 -101 -128 -114 -120 -5 3 -2
10 7 15 9 5 16 17 16 28 0 10 6 25 13 32 19 21 37 56 37 73 0 8 4 15 8 15 5 0
15 18 22 40 7 22 17 40 21 40 4 0 13 17 20 37 7 21 20 51 30 68 11 16 19 38
19 48 0 9 5 17 10 17 6 0 10 8 10 17 0 9 6 24 13 32 19 23 59 120 54 134 -3
11 -77 -135 -77 -153 0 -9 -16 -40 -78 -152 -18 -31 -32 -66 -32 -77 0 -12 -4
-21 -8 -21 -5 0 -15 -12 -23 -27 -7 -16 -27 -50 -44 -78 -17 -27 -37 -63 -45
-80 -8 -16 -33 -57 -55 -90 -23 -33 -70 -118 -106 -189 -36 -72 -74 -135 -87
-144 -25 -17 -105 -134 -127 -186 -8 -18 -21 -39 -30 -46 -9 -7 -28 -37 -42
-67 -14 -29 -31 -53 -38 -53 -6 0 -19 -18 -29 -40 -10 -23 -30 -48 -44 -58
-43 -26 -103 -105 -147 -190 -15 -28 -33 -52 -41 -52 -7 0 -25 -11 -40 -25
-65 -60 -102 -15 -207 249 -7 16 -42 89 -78 162 -36 73 -62 131 -58 128 7 -4
94 -127 127 -179 7 -11 37 -69 67 -128 69 -137 110 -197 134 -197 6 0 -5 25
-25 55 l-36 54 31 27 c17 14 31 30 31 36 0 5 6 24 14 41 21 47 37 100 32 105
-11 10 -25 -12 -52 -75 -48 -118 -62 -119 -116 -16 -20 37 -53 95 -75 128 -22
33 -52 82 -69 108 -16 27 -41 64 -56 82 -34 40 -35 54 -5 85 34 37 87 114 87
127 0 15 32 25 55 16 15 -5 17 -3 11 12 -5 14 6 31 46 69 51 50 128 135 128
143 0 3 18 26 40 52 22 26 40 53 40 59 0 7 4 12 9 12 8 0 52 63 106 149 6 9
13 18 16 21 11 9 79 115 79 122 0 5 -4 8 -10 8 -5 0 -10 -7 -10 -15 0 -8 -4
-15 -10 -15 -5 0 -16 -13 -25 -29 -8 -16 -20 -35 -27 -43 -7 -7 -40 -54 -73
-103 -60 -90 -75 -111 -128 -169 -15 -17 -33 -43 -40 -58 -6 -16 -18 -28 -24
-28 -7 0 -13 -3 -13 -7 0 -14 -100 -109 -143 -136 -15 -10 -31 -26 -34 -35 -6
-17 -43 -68 -75 -107 -10 -11 -24 -29 -32 -40 -14 -20 -15 -19 -50 14 -20 19
-36 45 -36 57 0 22 31 49 64 55 11 2 22 11 26 19 27 53 33 71 27 77 -4 3 -8 4
-9 2 -2 -2 -10 -17 -18 -33 -17 -32 -78 -69 -142 -86 -24 -7 -56 -18 -73 -25
-48 -20 -187 -44 -267 -45 -21 -1 -40 -6 -44 -11 -8 -14 2 -23 15 -14 6 3 48
8 94 10 45 2 102 10 126 19 25 8 49 13 53 10 5 -3 14 -1 21 4 7 5 23 12 37 14
14 3 33 9 43 13 12 5 17 3 17 -9 0 -9 -4 -16 -9 -16 -11 0 -5 -55 9 -81 10
-17 4 -27 -39 -69 -28 -27 -62 -52 -76 -56 -38 -9 -29 -40 10 -36 l30 3 -30
-27 c-120 -106 -175 -160 -175 -173 0 -10 9 -6 28 12 55 53 200 177 205 177 3
0 26 21 50 46 l43 46 45 -73 c24 -41 45 -77 47 -80 2 -4 -7 -9 -20 -12 -13 -4
-23 -5 -23 -4 0 1 -11 -8 -25 -20 -13 -13 -26 -23 -29 -24 -39 -5 -68 -4 -78
4 -21 15 -16 -17 5 -35 22 -20 41 -16 99 19 72 44 89 46 117 12 36 -42 42 -70
20 -82 -10 -6 -32 -26 -50 -45 -22 -24 -37 -33 -49 -29 -12 5 -16 2 -13 -11 6
-33 41 -24 91 23 26 25 50 45 52 45 5 0 85 -165 85 -174 0 -22 77 -136 101
-150 16 -10 29 -13 29 -9 0 9 15 17 88 52 28 14 42 27 42 40 0 11 4 23 10 26
5 3 19 26 30 51 11 26 53 80 95 123 41 43 75 83 75 89 0 6 11 19 25 28 14 9
29 33 35 53 5 20 23 50 40 68 27 29 49 66 99 171 11 23 25 42 31 42 7 0 6 -9
-3 -27 -49 -92 -119 -244 -115 -248 5 -5 44 61 93 160 19 39 39 77 44 85 5 8
19 38 31 65 12 28 25 52 29 55 3 3 15 23 25 45 88 184 124 239 185 284 29 22
56 41 60 43 7 3 38 47 94 133 28 43 57 111 78 185 23 81 52 144 89 190 34 43
71 123 85 184 3 16 8 126 10 245 4 199 3 220 -16 271 -19 51 -57 129 -69 140
-24 23 -41 66 -36 91 6 33 -1 37 -20 12 -20 -27 -16 -44 22 -93 18 -25 50 -76
70 -114 30 -59 36 -79 38 -147 2 -44 1 -77 -3 -74 -3 4 -13 32 -22 63 -33 114
-56 163 -89 190 -25 22 -33 37 -37 74 -4 32 -9 45 -18 42 -7 -3 -26 17 -44 48
-18 29 -42 68 -54 86 -12 18 -47 70 -77 117 -31 46 -78 108 -105 138 -28 29
-63 71 -80 92 -36 47 -113 124 -158 157 -56 41 -117 61 -117 38 0 -5 9 -10 20
-10 11 0 20 -4 20 -10 0 -5 6 -10 13 -10 15 -1 73 -47 66 -54 -9 -9 -171 76
-250 132 -26 17 -52 32 -58 32 -6 0 -11 5 -11 10 0 6 -7 10 -15 10 -8 0 -15
-4 -15 -10 0 -5 7 -10 15 -10 8 0 15 -4 15 -9 0 -5 14 -14 30 -20 17 -5 30
-14 30 -19 0 -5 13 -15 29 -22 19 -7 28 -17 24 -26 -6 -17 -25 -8 -101 49 -42
30 -53 43 -49 59 6 20 -13 48 -31 48 -5 0 -15 7 -22 15 -7 9 -15 13 -18 11 -3
-3 -21 8 -41 23 -20 16 -54 33 -75 37 -22 4 -49 12 -60 18 -36 19 -80 49 -102
68 -11 10 -31 17 -44 16 -17 -2 -30 6 -47 31 -13 19 -39 45 -58 58 -19 13 -35
28 -35 34 0 13 39 2 61 -17 8 -8 19 -14 23 -14 14 0 199 -92 291 -144 90 -53
134 -69 120 -45 -4 5 -17 15 -28 20 -29 12 -111 60 -117 68 -3 3 -94 51 -202
105 -109 54 -198 103 -198 107 0 5 -11 9 -24 9 -16 0 -35 14 -60 44 -36 44
-45 63 -26 51 6 -3 10 -2 10 4 0 14 -35 32 -44 23 -10 -9 -26 18 -25 43 0 19
1 19 16 -2 16 -23 39 -28 81 -17 32 9 27 25 -7 22 -30 -2 -65 18 -55 33 15 25
-28 45 -60 27z m654 -599 c0 -12 -38 2 -44 17 -4 11 0 11 19 2 14 -6 25 -15
25 -19z m54 -28 c37 -31 58 -53 52 -58 -6 -6 -96 68 -96 80 0 9 13 2 44 -22z
m276 -181 c14 -11 28 -20 32 -20 4 0 34 -13 67 -29 32 -15 70 -31 83 -34 26
-7 131 -107 122 -116 -4 -3 -13 4 -21 17 -9 12 -22 22 -31 22 -9 0 -25 9 -36
19 -25 23 -86 58 -182 104 -69 33 -99 57 -72 57 7 0 24 -9 38 -20z m425 -331
c14 -21 25 -42 25 -46 0 -16 -50 42 -59 69 -14 38 3 28 34 -23z m61 -76 c20
-27 16 -38 -6 -18 -20 18 -26 35 -14 35 4 0 13 -8 20 -17z m92 -178 c58 -114
82 -212 29 -123 -30 51 -83 152 -91 174 -8 22 50 -26 62 -51z m-144 -623 c-9
-29 -20 -52 -25 -52 -12 0 -12 17 1 25 6 3 10 15 10 26 0 21 19 63 25 57 2 -2
-3 -27 -11 -56z m350 -164 c-15 -46 -36 -92 -47 -103 -19 -20 -19 -20 -12 10
4 17 8 35 9 40 13 52 20 74 31 100 7 17 19 48 26 70 l14 40 3 -37 c2 -21 -8
-73 -24 -120z m-419 -98 c-28 -113 -44 -152 -45 -110 0 14 4 41 9 60 5 19 12
54 15 77 3 24 13 57 23 75 28 53 27 11 -2 -102z m-1221 -1006 c3 -8 2 -12 -4
-9 -6 3 -10 10 -10 16 0 14 7 11 14 -7z m6 -94 c0 -5 -5 -10 -11 -10 -5 0 -7
5 -4 10 3 6 8 10 11 10 2 0 4 -4 4 -10z m79 -52 c13 -21 20 -38 17 -38 -8 0
-56 73 -56 84 0 13 12 -1 39 -46z m-114 12 c-11 -17 -65 -52 -60 -38 3 8 18
21 33 31 32 19 35 20 27 7z"/>
<path d="M5340 6395 c0 -8 5 -15 10 -15 6 0 10 7 10 15 0 8 -4 15 -10 15 -5 0
-10 -7 -10 -15z"/>
<path d="M4986 6371 c-10 -11 -33 -27 -52 -36 -19 -9 -34 -20 -34 -25 0 -14
23 -25 28 -12 2 7 9 12 16 12 17 0 69 56 64 70 -2 7 -10 4 -22 -9z"/>
<path d="M5410 6343 c-35 -5 -60 -18 -60 -34 0 -9 82 -1 118 12 12 5 22 13 22
19 0 10 -14 11 -80 3z"/>
<path d="M4837 6303 c-13 -12 -7 -23 13 -23 11 0 20 -4 20 -9 0 -5 7 -11 15
-15 20 -7 19 7 -4 32 -19 23 -33 27 -44 15z"/>
<path d="M4783 6262 c-12 -15 -35 -40 -52 -57 -17 -16 -31 -36 -31 -44 0 -7
27 14 60 48 56 57 71 81 53 81 -5 0 -18 -13 -30 -28z"/>
<path d="M3382 6213 c3 -16 13 -23 125 -82 69 -37 108 -38 47 -1 -120 72 -175
99 -172 83z"/>
<path d="M5470 6200 c-25 -16 -53 -30 -62 -30 -29 0 -24 -75 10 -136 26 -50
75 -114 86 -114 3 0 6 9 6 20 0 25 143 122 174 119 12 -1 36 2 54 6 27 6 30
10 20 22 -23 28 -124 -5 -217 -72 -53 -39 -63 -35 -103 41 -34 63 -35 80 -5
88 24 6 87 61 87 77 0 12 1 13 -50 -21z"/>
<path d="M9578 6162 c-22 -4 -23 -16 -3 -32 12 -10 16 -9 21 4 8 22 2 32 -18
28z"/>
<path d="M6832 6108 c3 -7 20 -22 39 -33 l34 -20 -25 32 c-25 31 -56 45 -48
21z"/>
<path d="M5065 6070 c-10 -11 -22 -20 -26 -20 -4 0 -31 -16 -60 -35 -39 -25
-48 -36 -37 -40 15 -6 56 9 68 24 3 4 26 19 52 34 32 19 45 32 42 42 -8 20
-17 19 -39 -5z"/>
<path d="M6927 6054 c3 -7 9 -14 14 -14 14 0 10 17 -5 23 -10 4 -13 1 -9 -9z"/>
<path d="M5651 6032 c-11 -11 -9 -13 15 -10 15 2 29 8 31 13 5 16 -32 13 -46
-3z"/>
<path d="M10 5953 c0 -13 5 -23 10 -23 13 0 13 11 0 30 -8 12 -10 11 -10 -7z"/>
<path d="M1566 5801 c-4 -5 -3 -12 2 -15 16 -10 -7 -149 -28 -171 -11 -12 -20
-27 -20 -33 0 -17 -34 -92 -41 -92 -4 0 -5 18 -2 40 4 28 2 40 -7 40 -8 0 -11
-15 -8 -50 1 -28 -1 -51 -7 -53 -22 -8 -7 -698 15 -712 4 -3 15 6 24 20 15 23
15 25 -1 26 -10 0 -13 3 -7 5 14 6 8 125 -7 134 -8 5 -8 10 0 14 7 5 7 15 0
33 -6 17 -6 30 1 38 8 10 8 15 0 20 -7 4 -9 19 -5 36 4 16 3 34 -1 40 -3 6 -6
53 -5 105 2 99 5 122 25 224 1 3 12 31 26 63 24 58 48 78 36 31 -7 -27 22 -98
56 -134 10 -10 18 -24 18 -30 0 -5 4 -10 9 -10 5 0 12 -8 16 -17 7 -23 55 -77
61 -70 3 2 -1 11 -8 18 -30 32 -40 49 -30 49 23 0 60 -53 65 -93 6 -41 27 -64
81 -92 11 -6 27 -24 36 -40 8 -17 18 -32 21 -35 10 -9 89 -152 89 -161 0 -5 5
-9 10 -9 6 0 10 -4 10 -9 0 -10 55 -96 75 -117 5 -6 17 -22 25 -34 34 -50 37
-53 43 -43 4 6 -9 30 -28 54 -19 24 -35 50 -35 57 0 6 -4 12 -10 12 -5 0 -10
5 -10 10 0 6 -16 33 -36 62 -20 28 -37 57 -38 63 -1 7 -8 20 -14 28 -8 9 -9
18 -4 21 6 3 12 0 15 -8 3 -7 14 -16 25 -18 11 -3 -10 23 -47 58 -46 43 -63
66 -56 73 8 8 21 4 45 -13 19 -12 52 -31 73 -41 20 -9 37 -21 37 -26 0 -5 5
-9 10 -9 6 0 10 7 10 15 0 8 -6 15 -14 15 -7 0 -31 14 -52 31 -22 17 -68 45
-104 62 -73 35 -81 42 -101 79 -8 15 -50 66 -94 114 -118 128 -120 132 -122
303 -2 140 -5 163 -17 142z m212 -566 c-3 -3 -9 2 -12 12 -6 14 -5 15 5 6 7
-7 10 -15 7 -18z"/>
<path d="M6548 5697 c-6 -16 1 -37 13 -37 12 0 12 37 0 44 -5 3 -11 0 -13 -7z"/>
<path d="M6545 5610 c3 -5 8 -10 11 -10 2 0 4 5 4 10 0 6 -5 10 -11 10 -5 0
-7 -4 -4 -10z"/>
<path d="M4674 5565 c-24 -37 -10 -42 16 -6 12 17 17 31 11 31 -6 0 -18 -11
-27 -25z"/>
<path d="M6625 5480 c-3 -5 1 -10 10 -10 9 0 13 5 10 10 -3 6 -8 10 -10 10 -2
0 -7 -4 -10 -10z"/>
<path d="M6692 5455 c-14 -16 -2 -21 14 -5 13 13 54 1 48 -14 -3 -9 6 -13 26
-14 16 0 30 3 30 8 0 4 9 6 20 3 11 -3 20 -1 20 5 0 14 -47 21 -59 9 -7 -7
-16 -5 -29 6 -23 21 -53 21 -70 2z"/>
<path d="M6915 5419 c22 -4 49 -8 60 -8 17 -1 17 1 5 9 -8 5 -35 9 -60 9 l-45
-1 40 -9z"/>
<path d="M6850 5400 c0 -5 5 -10 10 -10 6 0 10 5 10 10 0 6 -4 10 -10 10 -5 0
-10 -4 -10 -10z"/>
<path d="M6900 5380 c34 -11 60 -11 35 0 -11 5 -29 8 -40 8 -16 0 -15 -2 5 -8z"/>
<path d="M4362 5342 c-13 -10 -20 -20 -17 -24 9 -9 55 15 55 30 0 16 -11 15
-38 -6z"/>
<path d="M7300 5240 c0 -5 4 -10 10 -10 5 0 28 -16 50 -36 22 -20 43 -35 45
-32 7 7 -81 88 -95 88 -5 0 -10 -4 -10 -10z"/>
<path d="M7607 5105 c-37 -37 -56 -81 -55 -125 0 -24 -5 -65 -18 -140 -4 -27
-3 -32 7 -23 6 6 18 58 25 115 10 74 19 110 34 128 62 77 66 104 7 45z"/>
<path d="M7520 5050 c0 -5 5 -10 11 -10 5 0 7 5 4 10 -3 6 -8 10 -11 10 -2 0
-4 -4 -4 -10z"/>
<path d="M2090 5034 c0 -10 30 -31 68 -50 17 -9 32 -20 32 -25 0 -5 5 -9 12
-9 7 0 21 -11 33 -25 22 -27 161 -72 235 -77 22 -1 40 -6 40 -11 0 -4 10 -5
22 -1 11 3 97 6 189 5 100 0 171 3 174 9 3 6 18 10 33 10 14 0 47 7 72 16 25
9 51 18 59 20 9 3 11 8 5 14 -5 5 -28 4 -54 -1 -229 -50 -524 -45 -655 11 -26
11 -51 20 -57 20 -16 0 -108 47 -147 75 -32 24 -61 32 -61 19z"/>
<path d="M2568 4823 c7 -3 16 -2 19 1 4 3 -2 6 -13 5 -11 0 -14 -3 -6 -6z"/>
<path d="M7725 4818 c-2 -7 -12 -56 -23 -108 -10 -52 -21 -101 -23 -109 -2 -7
1 -15 7 -18 6 -2 16 26 24 69 7 40 19 95 26 122 17 59 16 56 4 56 -6 0 -12 -6
-15 -12z"/>
<path d="M7520 4729 c0 -16 4 -28 9 -25 5 3 9 17 9 31 0 14 -4 25 -9 25 -5 0
-9 -14 -9 -31z"/>
<path d="M1488 4743 c-22 -5 -22 -20 -4 -98 8 -33 20 -95 26 -137 7 -43 17
-78 21 -78 5 0 9 6 9 14 0 8 6 17 13 19 9 4 8 8 -3 16 -12 8 -12 13 -3 19 17
11 -14 122 -33 122 -8 0 -14 4 -14 10 0 5 7 7 17 3 13 -5 15 -2 10 18 -4 13
-7 30 -7 37 0 6 -7 12 -15 12 -8 0 -15 8 -14 18 0 10 3 12 6 5 7 -18 23 -16
23 1 0 18 -10 24 -32 19z"/>
<path d="M6972 4718 c2 -6 10 -14 16 -16 7 -2 10 2 6 12 -7 18 -28 22 -22 4z"/>
<path d="M6990 4684 c0 -6 7 -19 15 -30 8 -10 15 -27 15 -37 0 -10 4 -16 10
-12 6 3 5 16 -2 33 -13 31 -38 61 -38 46z"/>
<path d="M7522 4660 c0 -14 2 -19 5 -12 2 6 2 18 0 25 -3 6 -5 1 -5 -13z"/>
<path d="M4145 4651 c-3 -5 -1 -12 5 -16 5 -3 10 1 10 9 0 18 -6 21 -15 7z"/>
<path d="M7510 4603 c0 -22 2 -25 10 -13 13 20 13 40 0 40 -5 0 -10 -12 -10
-27z"/>
<path d="M4160 4608 c0 -9 7 -29 16 -44 l15 -29 -6 35 c-8 38 -25 65 -25 38z"/>
<path d="M7667 4563 c-4 -3 -7 -19 -7 -35 0 -16 -7 -39 -15 -51 -9 -14 -11
-27 -5 -37 7 -12 10 -11 15 5 4 11 9 27 12 35 20 57 20 104 0 83z"/>
<path d="M9330 4555 c0 -8 5 -15 10 -15 6 0 10 7 10 15 0 8 -4 15 -10 15 -5 0
-10 -7 -10 -15z"/>
<path d="M7496 4525 c-3 -8 -1 -15 4 -15 13 0 22 18 11 24 -5 3 -11 -1 -15 -9z"/>
<path d="M7940 4530 c0 -5 5 -10 11 -10 5 0 7 5 4 10 -3 6 -8 10 -11 10 -2 0
-4 -4 -4 -10z"/>
<path d="M6853 4506 c0 -15 3 -29 8 -32 11 -7 11 27 0 45 -6 9 -8 5 -8 -13z"/>
<path d="M7917 4493 c-10 -9 -8 -33 2 -33 5 0 11 9 14 20 5 20 -3 26 -16 13z"/>
<path d="M7379 4478 c-2 -5 -6 -50 -9 -112 -3 -54 -24 -124 -79 -266 -25 -65
-27 -81 -6 -54 8 10 15 29 15 40 0 12 7 27 15 34 8 7 15 21 15 30 0 10 3 20 8
22 8 4 43 110 48 148 12 104 14 149 4 155 -5 3 -11 5 -11 3z"/>
<path d="M7475 4428 c-3 -23 -10 -52 -15 -63 -16 -37 -60 -198 -55 -203 8 -8
10 -4 53 148 22 80 37 149 33 153 -5 5 -12 -11 -16 -35z"/>
<path d="M7890 4439 c0 -5 5 -7 10 -4 6 3 10 8 10 11 0 2 -4 4 -10 4 -5 0 -10
-5 -10 -11z"/>
<path d="M7867 4400 c-3 -11 -1 -20 4 -20 5 0 9 9 9 20 0 11 -2 20 -4 20 -2 0
-6 -9 -9 -20z"/>
<path d="M7613 4383 c-6 -16 -28 -68 -48 -116 -21 -48 -35 -91 -31 -94 3 -3
10 6 15 20 5 14 15 28 20 32 6 3 11 13 11 21 0 8 9 33 19 57 18 40 37 107 29
107 -2 0 -8 -12 -15 -27z"/>
<path d="M1541 4373 c1 -36 14 -70 22 -56 6 10 -10 83 -18 83 -3 0 -5 -12 -4
-27z"/>
<path d="M6874 4370 c2 -19 4 -43 5 -52 0 -10 5 -18 10 -18 11 0 2 81 -10 95
-5 5 -7 -5 -5 -25z"/>
<path d="M7830 4351 c-5 -11 -10 -28 -10 -38 0 -13 5 -10 20 12 11 17 20 33
20 38 0 14 -20 7 -30 -12z"/>
<path d="M1560 4281 c0 -12 5 -21 10 -21 6 0 10 6 10 14 0 8 -4 18 -10 21 -5
3 -10 -3 -10 -14z"/>
<path d="M7787 4274 c-22 -29 -14 -47 8 -18 12 16 20 45 13 44 -2 0 -11 -12
-21 -26z"/>
<path d="M6890 4252 c0 -18 4 -32 9 -32 5 0 8 11 6 25 -4 38 -15 43 -15 7z"/>
<path d="M1629 4250 c-1 -14 0 -29 1 -35 1 -5 7 -28 12 -50 5 -22 13 -49 18
-60 5 -11 11 -27 14 -35 3 -8 3 5 0 30 -4 25 -10 53 -15 62 -5 9 -9 32 -9 50
0 42 -19 76 -21 38z"/>
<path d="M7900 4249 c0 -5 5 -7 10 -4 6 3 10 8 10 11 0 2 -4 4 -10 4 -5 0 -10
-5 -10 -11z"/>
<path d="M1570 4223 c0 -30 26 -88 34 -75 3 6 2 13 -3 16 -4 3 -8 17 -8 32 0
14 -6 31 -12 37 -8 8 -11 6 -11 -10z"/>
<path d="M7750 4209 c-13 -24 -4 -41 10 -19 10 16 13 40 5 40 -2 0 -9 -9 -15
-21z"/>
<path d="M7720 4149 c0 -11 5 -17 10 -14 6 3 10 13 10 21 0 8 -4 14 -10 14 -5
0 -10 -9 -10 -21z"/>
<path d="M7390 4134 c0 -8 5 -12 10 -9 6 3 10 10 10 16 0 5 -4 9 -10 9 -5 0
-10 -7 -10 -16z"/>
<path d="M1600 4111 c0 -6 5 -13 10 -16 6 -3 10 1 10 9 0 9 -4 16 -10 16 -5 0
-10 -4 -10 -9z"/>
<path d="M7686 4103 c-3 -10 -19 -36 -36 -58 -28 -38 -40 -72 -21 -61 8 5 81
123 81 132 0 12 -19 2 -24 -13z"/>
<path d="M7377 4093 c-4 -3 -7 -11 -7 -17 0 -6 5 -5 12 2 6 6 9 14 7 17 -3 3
-9 2 -12 -2z"/>
<path d="M6205 4070 c-3 -5 1 -10 9 -10 9 0 16 5 16 10 0 6 -4 10 -9 10 -6 0
-13 -4 -16 -10z"/>
<path d="M6540 4051 c0 -12 -135 -156 -171 -182 -15 -10 -36 -20 -47 -22 -12
-2 -29 -10 -39 -19 -10 -8 -35 -21 -55 -29 -48 -16 -49 -32 -3 -23 19 3 35 2
35 -2 -2 -33 -108 -110 -178 -130 -56 -16 -192 -97 -192 -114 0 -5 -7 -7 -15
-4 -8 4 -21 1 -29 -5 -7 -6 -15 -9 -17 -7 -2 3 -15 -4 -29 -14 -52 -40 36 -16
167 46 28 13 56 24 62 24 6 0 41 17 78 37 74 41 169 130 179 168 4 16 17 28
41 36 22 7 66 43 117 94 87 90 123 140 106 150 -5 3 -10 2 -10 -4z"/>
<path d="M1680 4047 c0 -29 100 -273 138 -336 1 -2 5 -1 8 2 4 4 1 14 -7 23
-8 10 -13 19 -12 20 5 8 -10 64 -17 64 -5 0 -14 17 -20 38 -12 39 -26 75 -41
104 -5 10 -9 26 -9 36 0 11 -9 27 -20 37 -11 10 -20 16 -20 12z"/>
<path d="M1620 4028 c0 -20 24 -78 32 -78 12 0 10 38 -2 45 -5 3 -10 15 -10
26 0 10 -4 19 -10 19 -5 0 -10 -5 -10 -12z"/>
<path d="M7250 4011 c0 -5 -3 -16 -6 -25 -3 -9 -2 -16 4 -16 5 0 12 11 14 25
3 14 1 25 -3 25 -5 0 -9 -4 -9 -9z"/>
<path d="M7601 3954 c0 -11 3 -14 6 -6 3 7 2 16 -1 19 -3 4 -6 -2 -5 -13z"/>
<path d="M7210 3917 c0 -13 -4 -27 -9 -32 -5 -6 -12 -20 -16 -32 -4 -17 -3
-21 7 -18 7 3 19 23 26 45 15 48 15 60 2 60 -5 0 -10 -10 -10 -23z"/>
<path d="M1667 3890 c9 -22 20 -40 25 -40 5 0 6 6 1 13 -4 6 -8 17 -8 22 -2
18 -17 45 -25 45 -5 0 -1 -18 7 -40z"/>
<path d="M7876 3835 c-15 -11 -16 -15 -5 -15 8 0 24 7 35 15 14 11 15 14 4 14
-8 0 -24 -6 -34 -14z"/>
<path d="M7141 3765 c-12 -27 -29 -63 -38 -78 -8 -16 -12 -31 -9 -34 3 -4 0
-13 -8 -22 -8 -9 -24 -40 -36 -70 -11 -30 -30 -74 -41 -97 -21 -48 -24 -64 -9
-64 6 0 10 11 10 25 0 14 5 25 10 25 6 0 10 5 10 11 0 13 31 82 40 89 4 3 9
14 13 25 14 49 35 97 45 107 7 7 12 17 12 23 0 7 7 26 16 43 8 18 14 40 12 50
-2 11 -12 0 -27 -33z"/>
<path d="M1836 3663 c9 -37 14 -44 25 -38 5 4 2 19 -6 36 -19 37 -27 37 -19 2z"/>
<path d="M7702 3642 c-7 -12 -10 -27 -7 -32 3 -5 -2 -13 -11 -18 -9 -5 -14
-17 -12 -28 5 -18 5 -18 13 1 4 11 14 28 22 37 8 9 13 27 11 40 l-3 23 -13
-23z"/>
<path d="M5895 3610 c-3 -5 -1 -10 4 -10 6 0 11 5 11 10 0 6 -2 10 -4 10 -3 0
-8 -4 -11 -10z"/>
<path d="M5930 3616 c0 -2 7 -7 16 -10 8 -3 12 -2 9 4 -6 10 -25 14 -25 6z"/>
<path d="M1870 3587 c0 -14 38 -115 64 -172 32 -70 59 -131 77 -179 11 -28 29
-61 40 -72 14 -15 18 -29 14 -46 -7 -28 20 -83 67 -137 40 -45 58 -90 58 -144
0 -24 5 -57 10 -74 12 -32 134 -135 235 -196 33 -20 78 -54 100 -76 22 -23 54
-48 71 -56 17 -9 62 -46 101 -83 38 -37 101 -95 139 -130 38 -35 81 -74 95
-87 14 -14 30 -25 34 -25 4 0 14 -8 21 -17 7 -10 15 -15 19 -12 6 7 -358 371
-378 378 -28 9 -139 106 -148 130 -8 19 -12 22 -19 12 -6 -11 -17 -8 -53 16
-64 44 -107 84 -107 101 0 9 -6 12 -16 8 -42 -16 -92 63 -81 131 5 28 -3 52
-45 131 -28 53 -62 114 -75 134 -12 21 -23 40 -23 42 0 3 -20 47 -45 97 -25
51 -45 96 -45 101 0 5 -11 33 -24 61 -40 87 -54 121 -61 150 -7 28 -25 38 -25
14z m240 -531 c-1 -6 -10 0 -20 13 -11 13 -20 28 -20 35 1 6 10 0 20 -13 11
-13 20 -28 20 -35z"/>
<path d="M7636 3501 c-4 -7 -5 -15 -2 -18 9 -9 19 4 14 18 -4 11 -6 11 -12 0z"/>
<path d="M5745 3480 c-3 -5 -1 -10 4 -10 6 0 11 5 11 10 0 6 -2 10 -4 10 -3 0
-8 -4 -11 -10z"/>
<path d="M5475 3460 c3 -5 8 -10 11 -10 2 0 4 5 4 10 0 6 -5 10 -11 10 -5 0
-7 -4 -4 -10z"/>
<path d="M5705 3460 c-3 -5 1 -10 9 -10 9 0 16 5 16 10 0 6 -4 10 -9 10 -6 0
-13 -4 -16 -10z"/>
<path d="M3516 3393 c-5 -13 -9 -14 -15 -5 -12 20 -155 -1 -148 -21 3 -7 11
-10 18 -8 58 14 122 17 134 4 17 -16 21 -16 106 3 45 10 69 20 69 30 0 8 -4
14 -10 14 -5 0 -10 -4 -10 -8 0 -5 -10 -8 -22 -7 -13 1 -29 -2 -35 -8 -9 -6
-13 -6 -13 1 0 22 -31 21 -40 -1 l-9 -22 0 23 c-1 26 -16 29 -25 5z"/>
<path d="M3246 3367 c-5 -21 -6 -21 -20 -2 -9 11 -16 15 -16 8 0 -6 -3 -19 -7
-28 -5 -14 -2 -16 13 -11 10 3 36 8 58 10 45 6 53 11 38 29 -19 22 -59 19 -66
-6z"/>
<path d="M3137 3371 c-10 -4 -17 -11 -15 -16 2 -6 -21 -10 -50 -11 -28 0 -55
-4 -59 -7 -7 -8 -8 -8 60 -12 26 -2 47 0 47 5 0 4 9 6 20 3 26 -7 53 4 45 17
-5 8 -12 7 -23 -2 -14 -10 -15 -10 -4 2 23 27 15 36 -21 21z"/>
<path d="M2914 3338 c-16 -5 -94 -8 -174 -7 -121 1 -146 -1 -148 -14 -2 -11 8
-15 44 -15 26 -1 51 -7 55 -13 4 -7 12 -8 20 -3 7 4 27 9 44 10 16 1 30 3 30
4 0 2 110 10 143 9 46 0 72 10 72 27 0 16 -34 16 -86 2z"/>
<path d="M4376 3312 l-29 -7 24 -12 c26 -13 45 -17 161 -38 101 -18 185 -42
190 -56 2 -6 21 -12 43 -13 22 -1 50 -8 63 -14 12 -7 22 -10 22 -6 0 3 11 -1
25 -10 14 -9 29 -15 33 -12 9 5 44 -2 132 -28 59 -18 163 -44 195 -49 11 -2
29 -7 40 -10 17 -6 266 -35 348 -42 15 -1 30 -5 34 -8 3 -4 12 -2 20 4 10 9
13 8 13 -1 0 -6 6 -10 13 -7 6 2 20 0 30 -5 9 -5 17 -5 17 -1 -1 22 -21 34
-61 36 -25 2 -51 7 -58 11 -7 5 -34 10 -59 12 -134 10 -231 24 -254 36 -12 6
-18 5 -18 -2 0 -6 -11 -3 -24 6 -14 8 -28 15 -31 14 -11 -4 -200 45 -203 52
-2 5 -18 8 -36 8 -18 0 -66 11 -106 25 -40 14 -75 23 -78 20 -2 -2 -21 7 -40
20 -26 18 -38 21 -43 13 -6 -9 -27 -7 -84 10 -42 12 -80 20 -84 17 -5 -2 -14
1 -20 9 -6 8 -33 17 -59 21 -26 3 -56 8 -67 10 -11 2 -33 0 -49 -3z"/>
<path d="M4725 3310 c-3 -5 -1 -10 4 -10 6 0 11 5 11 10 0 6 -2 10 -4 10 -3 0
-8 -4 -11 -10z"/>
<path d="M7101 3223 c-7 -17 -35 -54 -62 -84 -27 -29 -49 -57 -49 -61 0 -36
94 51 115 107 19 50 16 85 -4 38z"/>
<path d="M5415 3210 c-8 -13 4 -17 60 -23 28 -3 58 -9 68 -12 9 -4 17 -3 17 3
0 9 -47 23 -92 27 -9 1 -23 5 -32 8 -8 3 -18 2 -21 -3z"/>
<path d="M5570 3180 c0 -5 5 -10 11 -10 5 0 7 5 4 10 -3 6 -8 10 -11 10 -2 0
-4 -4 -4 -10z"/>
<path d="M6153 3162 c-29 -4 -63 -48 -63 -81 0 -25 1 -25 17 7 21 43 41 52
121 57 37 2 73 4 80 4 6 1 12 4 12 9 0 7 -123 10 -167 4z"/>
<path d="M6345 3160 c-4 -6 6 -10 24 -10 16 0 33 5 36 10 4 6 -6 10 -24 10
-16 0 -33 -4 -36 -10z"/>
<path d="M6580 3133 c-8 -2 -24 -8 -35 -13 -25 -10 -57 -23 -67 -25 -5 -2 -11
-4 -15 -5 -5 -1 -11 -2 -15 -2 -3 1 -12 -5 -18 -13 -7 -8 -17 -15 -23 -15 -19
0 -177 -80 -177 -90 0 -6 3 -10 6 -10 11 0 109 55 112 63 2 4 13 7 24 7 11 0
44 13 73 29 29 16 56 27 60 23 3 -4 9 -2 13 4 8 12 80 34 111 34 12 0 19 4 16
10 -6 10 -39 12 -65 3z"/>
<path d="M5980 3059 c0 -42 -3 -50 -15 -45 -13 5 -15 -1 -9 -32 3 -20 7 -41 8
-47 0 -5 -13 -10 -29 -11 -25 -2 -33 3 -44 27 -15 34 -35 28 -27 -7 5 -20 1
-26 -19 -34 -15 -6 -37 -10 -51 -10 -15 0 -24 -6 -24 -15 0 -24 23 -27 69 -12
37 13 42 13 50 -1 7 -13 10 -12 15 6 9 27 45 30 47 5 4 -41 -11 -123 -22 -124
-14 -2 -21 -4 -81 -24 -57 -18 -70 -29 -45 -38 6 -2 -1 -3 -16 -1 -40 5 -77
-5 -77 -22 0 -8 -4 -14 -9 -14 -5 0 -17 -3 -27 -7 -12 -4 -15 -3 -10 5 4 7 1
12 -8 12 -9 0 -16 -7 -16 -15 0 -13 -11 -19 -31 -17 -4 1 -22 -3 -40 -8 -28
-8 -37 -7 -54 10 -31 31 -82 70 -91 70 -4 0 11 -16 34 -36 23 -19 42 -43 42
-53 0 -10 15 -24 35 -33 27 -12 35 -13 35 -3 0 8 29 20 73 30 39 9 87 23 105
31 18 8 36 13 41 10 5 -3 14 1 21 9 14 17 40 20 40 5 0 -5 12 -10 26 -10 19 0
25 4 20 15 -7 20 20 31 39 15 8 -6 19 -9 25 -5 5 3 10 3 10 -2 0 -11 -93 -53
-119 -53 -32 0 -39 -30 -12 -52 24 -19 52 -15 32 5 -7 7 6 19 47 39 31 15 60
28 63 28 16 0 28 -66 33 -189 l5 -135 -32 -27 c-17 -15 -29 -30 -26 -33 3 -3
15 3 27 14 12 11 26 20 31 20 15 0 23 -59 25 -169 l1 -96 -35 -3 c-19 -2 -41
-8 -47 -14 -7 -6 -19 -8 -27 -5 -8 3 -17 3 -20 -1 -4 -3 -17 -7 -29 -9 -23 -4
-54 -29 -46 -37 4 -5 85 12 168 34 28 7 37 6 47 -8 8 -11 13 -12 14 -4 0 6 6
12 13 12 8 0 28 7 45 16 18 8 42 16 55 18 12 1 27 5 33 9 6 3 34 9 62 13 55 7
73 18 46 28 -17 6 -98 -9 -126 -25 -10 -5 -24 -6 -32 -3 -8 3 -30 1 -50 -4
-20 -6 -38 -7 -41 -2 -3 5 0 39 7 76 11 59 10 67 -5 76 -13 7 -17 23 -17 70 0
59 2 63 46 110 57 61 52 74 -7 17 -43 -41 -44 -42 -50 -18 -11 39 -10 251 1
289 6 19 13 65 15 103 3 54 1 67 -10 67 -8 0 -15 -9 -15 -20 0 -12 -9 -24 -22
-29 -26 -10 -41 -5 -32 11 4 6 6 46 6 89 -1 43 2 99 7 124 9 48 4 95 -10 95
-5 0 -9 -23 -9 -51z m50 -304 c0 -7 -9 -15 -20 -18 -14 -4 -20 0 -20 12 0 10
3 20 6 24 9 9 34 -4 34 -18z m-92 -27 c-3 -7 -17 -14 -31 -16 -15 -2 -27 -7
-27 -11 0 -4 -11 -7 -25 -7 -35 0 -31 8 13 28 45 20 75 22 70 6z m88 -30 c-3
-13 -6 -29 -6 -36 0 -7 -4 -10 -10 -7 -11 7 -14 48 -3 58 14 15 25 6 19 -15z
m-276 -28 c-19 -13 -30 -13 -30 0 0 6 10 10 23 10 18 0 19 -2 7 -10z"/>
<path d="M7140 3074 c-6 -16 -22 -50 -35 -76 -17 -33 -21 -49 -13 -54 15 -9
33 18 58 84 14 37 18 58 11 65 -7 7 -14 0 -21 -19z"/>
<path d="M4976 3078 c3 -4 12 -8 20 -8 8 0 14 4 14 8 0 4 -9 8 -19 8 -11 0
-17 -4 -15 -8z"/>
<path d="M5053 3043 c23 -4 28 -9 24 -23 -3 -13 1 -21 14 -25 10 -4 19 -11 19
-16 0 -6 5 -7 10 -4 6 3 10 -1 10 -9 0 -9 7 -16 15 -16 9 0 18 -7 21 -15 4 -8
12 -15 20 -15 8 0 14 -4 14 -10 0 -5 5 -10 10 -10 6 0 10 6 10 13 0 14 -36 48
-43 40 -3 -2 -8 4 -12 14 -9 26 -91 83 -118 82 -17 -2 -15 -3 6 -6z"/>
<path d="M6595 3030 c-3 -5 -2 -10 4 -10 5 0 13 5 16 10 3 6 2 10 -4 10 -5 0
-13 -4 -16 -10z"/>
<path d="M6510 2980 c0 -5 7 -10 15 -10 8 0 15 5 15 10 0 6 -7 10 -15 10 -8 0
-15 -4 -15 -10z"/>
<path d="M7261 2958 c-4 -13 -14 -40 -21 -60 -8 -20 -18 -36 -24 -35 -6 1 -11
-5 -11 -13 0 -8 7 -16 16 -18 11 -2 24 15 42 56 15 33 27 64 27 70 0 22 -20
22 -29 0z"/>
<path d="M6200 2960 c0 -5 5 -10 10 -10 6 0 10 5 10 10 0 6 -4 10 -10 10 -5 0
-10 -4 -10 -10z"/>
<path d="M6475 2960 c-16 -7 -17 -9 -3 -9 9 -1 20 4 23 9 7 11 7 11 -20 0z"/>
<path d="M6145 2940 c-19 -8 -19 -9 2 -9 12 -1 25 4 28 9 7 12 -2 12 -30 0z"/>
<path d="M6405 2930 c-21 -23 -16 -25 19 -9 14 7 23 16 20 20 -8 14 -19 11
-39 -11z"/>
<path d="M6347 2915 c-10 -7 -14 -16 -9 -19 5 -3 17 1 27 8 10 7 14 15 9 19
-5 3 -17 -1 -27 -8z"/>
<path d="M6060 2899 c0 -5 5 -7 10 -4 6 3 10 8 10 11 0 2 -4 4 -10 4 -5 0 -10
-5 -10 -11z"/>
<path d="M6300 2900 c0 -5 5 -10 11 -10 5 0 7 5 4 10 -3 6 -8 10 -11 10 -2 0
-4 -4 -4 -10z"/>
<path d="M5245 2865 c17 -14 47 -41 67 -60 20 -19 43 -35 50 -35 8 0 6 5 -4
11 -10 5 -18 17 -18 24 0 8 -4 15 -9 15 -6 0 -27 16 -48 35 -21 19 -45 35 -53
35 -9 0 -4 -10 15 -25z"/>
<path d="M6240 2877 c-24 -8 -35 -18 -36 -32 0 -11 -4 -28 -8 -37 -7 -16 -64
-48 -94 -52 -9 -2 -18 -9 -20 -16 -3 -9 1 -11 14 -6 11 4 31 10 46 13 39 8 81
52 75 80 -3 18 2 24 29 33 19 7 34 16 34 21 0 5 -1 9 -2 8 -2 0 -19 -6 -38
-12z"/>
<path d="M2260 2842 c0 -5 11 -18 25 -30 29 -25 32 -21 9 13 -16 24 -34 33
-34 17z"/>
<path d="M6126 2836 c-22 -7 -41 -17 -43 -23 -5 -13 85 11 101 27 13 13 -7 11
-58 -4z"/>
<path d="M2232 2829 c2 -7 10 -15 17 -17 8 -3 12 1 9 9 -2 7 -10 15 -17 17 -8
3 -12 -1 -9 -9z"/>
<path d="M2261 2778 c-1 -20 4 -28 15 -28 12 0 14 4 7 13 -6 6 -13 19 -16 27
-3 9 -6 3 -6 -12z"/>
<path d="M2327 2771 c3 -12 9 -21 14 -21 14 0 11 16 -5 29 -12 10 -13 8 -9 -8z"/>
<path d="M6468 2705 c-32 -31 -58 -60 -58 -65 0 -6 -6 -10 -14 -10 -8 0 -18
-9 -21 -20 -4 -11 -10 -18 -14 -16 -4 3 -34 -19 -67 -49 -39 -36 -60 -49 -62
-39 -2 8 -8 14 -14 14 -5 0 -8 -7 -4 -15 6 -18 -39 -43 -69 -38 -19 4 -19 3
-2 -10 15 -13 23 -13 58 0 23 7 47 19 53 26 7 7 37 32 66 57 71 59 140 129
140 141 0 5 7 9 15 9 7 0 18 6 22 13 4 8 16 16 26 20 16 6 25 37 10 37 -5 0
-34 -25 -65 -55z"/>
<path d="M5395 2730 c3 -5 8 -10 11 -10 2 0 4 5 4 10 0 6 -5 10 -11 10 -5 0
-7 -4 -4 -10z"/>
<path d="M2390 2693 c0 -5 7 -18 15 -29 15 -18 15 -18 13 5 -3 23 -28 44 -28
24z"/>
<path d="M2446 2625 c4 -8 8 -15 10 -15 2 0 4 7 4 15 0 8 -4 15 -10 15 -5 0
-7 -7 -4 -15z"/>
<path d="M5609 2577 c6 -8 7 -17 3 -21 -4 -4 0 -13 8 -19 19 -15 44 -67 60
-126 12 -46 6 -121 -13 -155 -6 -12 -12 -23 -12 -26 -1 -3 -10 -22 -20 -43
-19 -37 -19 -37 -32 -15 -9 17 -12 19 -13 6 0 -9 -11 -38 -25 -65 -21 -39 -36
-53 -78 -72 -33 -16 -46 -26 -35 -28 31 -7 117 45 135 82 9 19 23 35 30 35 17
0 73 112 88 178 13 54 9 94 -16 155 -20 50 -70 127 -81 127 -7 0 -7 -5 1 -13z"/>
<path d="M7085 2567 c-25 -39 -73 -68 -115 -70 -22 -1 -39 -6 -37 -11 6 -19
51 -23 87 -9 38 14 100 76 100 99 0 21 -18 17 -35 -9z"/>
<path d="M5715 2450 c10 -11 20 -18 23 -15 7 6 -18 35 -31 35 -5 0 -2 -9 8
-20z"/>
<path d="M7205 2385 c-17 -8 -42 -19 -57 -24 -16 -6 -28 -15 -28 -21 0 -14 16
-12 29 4 7 8 27 17 46 20 19 4 37 11 41 17 10 17 0 18 -31 4z"/>
<path d="M2755 2360 c10 -11 22 -17 28 -13 6 4 3 12 -8 20 -28 20 -41 16 -20
-7z"/>
<path d="M5927 2333 c-24 -3 -37 -9 -34 -16 4 -12 30 -12 75 -2 23 6 32 26 10
23 -7 -1 -30 -3 -51 -5z"/>
<path d="M7075 2330 c-3 -5 1 -10 9 -10 9 0 16 5 16 10 0 6 -4 10 -9 10 -6 0
-13 -4 -16 -10z"/>
<path d="M2850 2295 c7 -8 17 -15 22 -15 6 0 5 7 -2 15 -7 8 -17 15 -22 15 -6
0 -5 -7 2 -15z"/>
<path d="M7005 2300 c-3 -5 -12 -7 -20 -3 -10 3 -15 -1 -15 -12 0 -10 5 -14
13 -11 6 3 20 9 30 12 9 4 17 10 17 15 0 12 -17 11 -25 -1z"/>
<path d="M6900 2268 c-14 -6 -20 -12 -14 -14 6 -3 26 2 45 10 23 10 27 15 14
15 -11 0 -31 -5 -45 -11z"/>
<path d="M5920 2251 c0 -5 -9 -13 -20 -16 -11 -3 -20 -13 -20 -20 0 -11 6 -11
30 3 29 16 41 42 20 42 -5 0 -10 -4 -10 -9z"/>
<path d="M6845 2240 c3 -5 10 -10 16 -10 5 0 9 5 9 10 0 6 -7 10 -16 10 -8 0
-12 -4 -9 -10z"/>
<path d="M6788 2228 c-22 -6 -35 -15 -32 -22 9 -23 -103 -68 -201 -81 -22 -3
-45 -18 -39 -26 3 -5 12 -5 22 0 9 5 49 15 89 21 73 12 153 52 153 77 0 7 4
13 8 13 5 0 17 7 28 15 22 16 22 16 -28 3z"/>
<path d="M2970 2215 c7 -8 17 -15 22 -15 6 0 5 7 -2 15 -7 8 -17 15 -22 15 -6
0 -5 -7 2 -15z"/>
<path d="M5815 2182 c-16 -9 -38 -25 -50 -36 -20 -18 -20 -19 10 -12 17 4 42
21 57 37 31 33 26 36 -17 11z"/>
<path d="M6680 2190 c0 -5 5 -10 10 -10 6 0 10 5 10 10 0 6 -4 10 -10 10 -5 0
-10 -4 -10 -10z"/>
<path d="M3045 2180 c-9 -15 5 -32 21 -26 8 3 14 -1 14 -8 0 -17 145 -90 165
-82 8 3 14 0 12 -7 -1 -7 5 -12 13 -12 16 0 73 -20 103 -36 10 -5 22 -7 26 -5
5 3 33 -2 62 -11 30 -9 58 -16 63 -14 4 1 13 -2 20 -7 6 -4 25 -9 41 -11 24
-2 28 0 18 10 -7 7 -21 14 -30 16 -33 5 -198 60 -248 83 -28 13 -66 33 -85 46
-41 28 -70 33 -50 9 7 -8 19 -15 26 -15 8 0 14 -4 14 -8 0 -19 -14 -20 -39 -3
-14 10 -36 21 -47 25 -28 9 -63 46 -43 46 11 0 11 2 -1 10 -20 13 -47 13 -55
0z"/>
<path d="M6440 2127 c-14 -6 -28 -17 -32 -23 -5 -7 -17 -10 -28 -7 -13 4 -20
0 -20 -10 0 -12 6 -13 38 -5 20 5 46 11 58 12 30 3 44 15 37 31 -6 18 -19 18
-53 2z"/>
<path d="M5715 2121 c-3 -6 -14 -11 -23 -11 -10 0 -24 -9 -32 -20 -8 -11 -25
-20 -38 -20 -12 0 -25 -7 -29 -15 -9 -24 5 -30 25 -12 10 10 24 17 30 17 7 0
12 4 12 9 0 5 13 12 29 16 16 3 32 13 35 22 8 19 1 29 -9 14z"/>
<path d="M5395 2010 c-3 -5 1 -10 10 -10 9 0 13 5 10 10 -3 6 -8 10 -10 10 -2
0 -7 -4 -10 -10z"/>
<path d="M5515 2011 c-6 -11 9 -23 19 -14 9 9 7 23 -3 23 -6 0 -12 -4 -16 -9z"/>
<path d="M5300 1990 c0 -5 7 -7 15 -4 8 4 15 8 15 10 0 2 -7 4 -15 4 -8 0 -15
-4 -15 -10z"/>
<path d="M5470 1985 c-8 -9 -8 -15 -2 -15 12 0 26 19 19 26 -2 2 -10 -2 -17
-11z"/>
<path d="M5808 1994 c-3 -3 -19 -6 -34 -8 -16 -1 -28 -8 -27 -14 2 -8 -7 -9
-30 -5 -29 6 -31 5 -19 -10 8 -9 26 -15 40 -15 15 1 34 0 42 -3 8 -2 14 1 13
7 -2 8 6 10 20 6 20 -5 20 -4 8 11 -12 15 -11 17 3 17 9 0 16 5 16 10 0 11
-23 14 -32 4z"/>
<path d="M5215 1980 c-3 -5 1 -10 10 -10 9 0 13 5 10 10 -3 6 -8 10 -10 10 -2
0 -7 -4 -10 -10z"/>
<path d="M3440 1956 c0 -15 76 -34 87 -22 4 3 13 0 21 -6 40 -34 95 -57 162
-70 30 -6 62 -13 70 -16 8 -2 22 -6 30 -7 8 -2 60 -12 115 -24 55 -11 123 -23
151 -25 29 -3 71 -12 95 -20 24 -8 60 -15 79 -14 19 0 66 -3 104 -7 50 -5 67
-4 62 4 -15 24 27 43 64 28 8 -3 22 -5 30 -6 8 0 85 -3 170 -7 120 -5 190 -3
310 11 85 10 160 21 165 24 6 4 38 7 71 7 45 -1 60 2 57 11 -4 9 -22 11 -67 7
-429 -41 -606 -45 -606 -12 0 5 23 7 53 5 54 -5 127 10 127 26 0 7 -70 4 -194
-8 -11 -1 -23 -10 -27 -21 -7 -18 -8 -18 -8 1 -1 20 -5 20 -104 13 -56 -3
-124 -14 -151 -23 -26 -9 -55 -14 -63 -10 -9 3 -39 8 -66 11 -28 3 -61 10 -75
15 -18 7 -28 6 -34 -3 -6 -10 -14 -6 -33 15 -23 25 -30 27 -26 5 0 -5 -6 -8
-14 -8 -8 0 -15 5 -15 11 0 8 -12 10 -35 6 -21 -3 -33 -2 -30 4 4 5 -3 9 -13
9 -25 0 -89 26 -97 40 -3 5 -15 10 -26 10 -10 0 -19 5 -19 10 0 6 -9 10 -19
10 -11 0 -23 5 -26 11 -4 5 -12 8 -18 6 -7 -2 -24 2 -39 9 -15 8 -29 10 -32 5
-3 -4 19 -16 49 -26 30 -9 55 -21 55 -26 0 -13 -27 -11 -35 2 -4 6 -13 8 -21
5 -8 -3 -34 1 -57 10 -23 8 -57 17 -74 20 -18 2 -44 9 -59 14 -34 13 -44 13
-44 -4z m965 -156 c-3 -5 -18 -10 -33 -10 -21 0 -24 2 -12 10 20 13 53 13 45
0z"/>
<path d="M5306 1956 c-16 -7 -25 -16 -20 -19 5 -3 21 3 34 14 29 21 26 22 -14
5z"/>
<path d="M5648 1958 c-7 -7 -44 -14 -83 -16 -38 -2 -86 -7 -107 -11 -34 -8
-38 -7 -38 11 0 17 -3 18 -15 8 -8 -7 -13 -16 -10 -20 2 -4 -21 -8 -53 -9
-202 -6 -233 -9 -248 -21 -17 -15 -18 -15 -119 -25 -38 -3 -77 -9 -85 -12 -8
-4 -30 -7 -49 -7 -40 -1 -56 -26 -17 -26 14 0 47 5 73 10 26 6 66 12 88 14 22
2 63 9 90 14 72 15 205 22 205 11 0 -5 -5 -9 -12 -9 -6 0 -8 -3 -5 -6 4 -4 14
-1 22 6 9 8 28 15 43 16 15 2 72 8 127 14 55 6 120 12 145 13 25 2 51 6 57 10
6 4 18 4 27 1 11 -4 16 -1 16 10 0 9 -8 16 -21 16 -11 0 -17 5 -14 10 9 14 -1
12 -17 -2z"/>
<path d="M5738 1923 c7 -3 16 -2 19 1 4 3 -2 6 -13 5 -11 0 -14 -3 -6 -6z"/>
<path d="M5580 1869 c0 -5 5 -7 10 -4 6 3 10 8 10 11 0 2 -4 4 -10 4 -5 0 -10
-5 -10 -11z"/>
<path d="M5402 1840 c0 -14 2 -19 5 -12 2 6 2 18 0 25 -3 6 -5 1 -5 -13z"/>
<path d="M5495 1850 c4 -6 11 -8 16 -5 14 9 11 15 -7 15 -8 0 -12 -5 -9 -10z"/>
<path d="M4485 1740 c-4 -6 3 -10 14 -10 25 0 27 6 6 13 -8 4 -17 2 -20 -3z"/>
<path d="M4545 1740 c-18 -8 -17 -9 8 -9 15 -1 27 4 27 9 0 12 -8 12 -35 0z"/>
<path d="M6275 1089 c-8 -13 14 -30 79 -63 51 -26 153 -119 221 -200 22 -26
52 -61 68 -77 15 -16 27 -33 27 -37 1 -13 77 -92 89 -92 6 0 11 -6 11 -14 0
-17 26 -39 40 -34 10 3 -11 32 -63 88 -8 8 -25 30 -38 49 -13 19 -37 48 -52
65 -16 17 -40 49 -54 71 -39 61 -161 173 -225 206 -31 16 -59 33 -63 39 -8 13
-32 13 -40 -1z"/>
<path d="M6830 551 c0 -12 29 -41 41 -41 5 0 9 -7 9 -15 0 -8 5 -15 11 -15 5
0 24 -13 42 -30 30 -28 47 -37 47 -24 0 8 -27 34 -37 34 -4 0 -28 23 -53 50
-43 48 -60 60 -60 41z"/>
<path d="M7105 320 c3 -5 8 -10 11 -10 2 0 4 5 4 10 0 6 -5 10 -11 10 -5 0 -7
-4 -4 -10z"/>
</g>
</svg>
