<?xml version="1.0" standalone="no"?>
<!DOCTYPE svg PUBLIC "-//W3C//DTD SVG 20010904//EN"
 "http://www.w3.org/TR/2001/REC-SVG-20010904/DTD/svg10.dtd">
<svg version="1.0" xmlns="http://www.w3.org/2000/svg"
 width="450.000000pt" height="590.000000pt" viewBox="0 0 450.000000 590.000000"
 preserveAspectRatio="xMidYMid meet">
<metadata>
Created by potrace 1.10, written by Peter Selinger 2001-2011
</metadata>
<g transform="translate(0.000000,590.000000) scale(0.100000,-0.100000)"
fill="#000000" stroke="none">
<path d="M1508 5390 c10 -12 18 -16 21 -9 2 6 -3 15 -10 20 -24 15 -29 10 -11
-11z"/>
<path d="M1060 4922 c0 -5 7 -16 16 -23 14 -12 16 -11 13 5 -4 20 -29 35 -29
18z"/>
<path d="M1917 4439 c-58 -41 -80 -66 -29 -32 37 23 99 73 92 73 -3 0 -31 -18
-63 -41z"/>
<path d="M2005 4431 c-3 -6 -10 -9 -15 -6 -5 3 -20 -7 -34 -22 -23 -25 -33
-43 -51 -98 -5 -16 -11 -10 -36 33 -16 29 -34 52 -40 52 -6 0 -8 4 -4 9 3 6
-4 15 -15 21 -18 10 -20 8 -20 -24 0 -26 -4 -34 -14 -30 -8 3 -24 -8 -38 -26
-22 -28 -28 -31 -46 -21 -57 30 -82 -2 -38 -48 13 -15 35 -57 49 -96 14 -38
26 -64 26 -56 1 11 5 10 17 -5 9 -10 4 3 -11 30 -22 40 -26 53 -17 67 12 18
11 19 -68 77 -2 2 2 8 10 13 12 9 11 9 -5 4 -15 -5 -17 -3 -9 5 7 7 21 9 34 5
15 -5 19 -10 11 -14 -7 -4 2 -8 19 -8 19 0 29 5 27 11 -7 19 29 57 47 50 12
-5 16 -20 16 -59 0 -45 3 -53 21 -58 17 -4 19 -3 10 6 -6 6 -11 24 -11 40 0
16 -5 47 -12 69 -9 29 -9 41 0 48 7 6 10 7 7 4 -2 -4 7 -20 20 -36 15 -18 27
-48 31 -79 4 -28 13 -56 20 -63 7 -7 14 -26 17 -42 l4 -29 2 29 c0 16 -6 38
-16 48 -15 16 -15 20 0 36 8 9 24 37 35 62 11 25 27 54 36 65 16 19 16 19 10
-6 -6 -29 25 -113 33 -90 3 7 1 16 -5 20 -6 3 -14 19 -17 34 -6 22 -2 34 15
53 13 13 21 26 18 30 -3 3 -9 0 -13 -5z"/>
<path d="M2032 4403 c-19 -18 -32 -40 -31 -54 l0 -24 10 25 c6 13 17 33 26 43
16 17 17 17 29 -5 11 -20 8 -27 -19 -60 -65 -75 -108 -139 -104 -151 4 -9 6
-9 6 0 1 14 23 44 57 77 12 12 23 26 25 31 2 6 27 32 56 59 39 36 57 46 72 41
12 -3 21 -11 21 -16 0 -6 -4 -7 -10 -4 -5 3 -10 -3 -10 -13 0 -11 -15 -39 -34
-61 -19 -23 -40 -58 -47 -79 -6 -20 -14 -41 -18 -47 -3 -5 -7 -37 -8 -70 -5
-114 -7 -125 -23 -120 -8 3 -27 -2 -42 -9 -17 -9 -30 -11 -34 -5 -11 19 -23
-2 -14 -26 5 -14 7 -32 4 -40 -4 -8 -1 -15 4 -15 6 0 14 -21 18 -47 11 -75 13
-84 22 -97 12 -14 3 -78 -10 -70 -5 3 -18 -2 -28 -11 -10 -9 -23 -14 -29 -11
-5 3 -11 2 -13 -2 -5 -13 -77 -22 -84 -11 -8 14 -14 51 -20 131 -6 69 7 114
29 102 9 -5 8 -3 0 7 -27 28 -55 -47 -42 -111 11 -51 4 -49 -25 7 -13 27 -31
55 -40 62 -35 29 -50 -25 -19 -69 17 -24 16 -24 -16 3 -35 29 -46 33 -56 17
-9 -15 26 -119 39 -114 7 2 20 -2 31 -10 19 -15 18 -15 -17 -16 -21 0 -38 -4
-38 -9 0 -4 22 -6 48 -3 44 4 49 2 60 -22 9 -21 9 -27 -4 -34 -10 -5 -18 -30
-23 -63 -5 -39 -11 -54 -22 -53 -8 1 -15 -7 -15 -17 0 -17 1 -17 21 -1 11 9
23 22 27 27 4 6 8 6 8 2 0 -5 14 1 30 13 24 17 39 21 65 16 46 -9 52 -22 16
-40 -23 -12 -31 -13 -34 -3 -4 8 -6 7 -7 -3 -1 -8 -36 -41 -78 -73 -42 -32
-100 -77 -128 -101 -29 -24 -57 -45 -63 -47 -9 -3 -8 -14 4 -39 l16 -35 -6 31
c-5 26 -1 35 27 57 18 14 53 45 78 67 71 66 130 104 130 85 0 -9 5 -13 11 -10
6 4 8 13 5 20 -3 8 7 18 24 25 54 22 77 70 33 70 -11 0 -13 3 -5 13 6 6 10 17
11 22 0 23 31 15 42 -12 29 -68 59 -126 59 -111 0 31 -62 157 -75 152 -7 -3
-22 5 -34 17 -23 24 -27 19 -11 -11 14 -26 -8 -61 -35 -58 -11 1 -35 -6 -52
-15 -29 -16 -33 -16 -33 -2 0 32 30 87 44 82 8 -3 27 5 43 19 15 13 39 24 53
24 14 0 42 9 63 20 l37 20 0 -44 c0 -30 5 -46 16 -50 10 -4 13 -2 8 6 -5 8 0
9 17 4 13 -5 47 -11 75 -15 53 -7 101 -34 161 -90 23 -22 33 -27 36 -17 7 18
-24 45 -43 38 -8 -2 -12 -1 -8 3 4 4 -10 20 -32 36 -22 16 -56 51 -77 79 -20
27 -39 47 -41 45 -3 -2 7 -20 22 -39 14 -19 26 -37 26 -40 0 -8 -74 -8 -94 0
-9 3 -16 14 -17 23 0 10 -2 11 -6 4 -11 -27 -31 -13 -27 20 1 17 3 46 4 62 2
29 2 28 17 -13 29 -83 23 -34 -7 58 -17 51 -28 95 -25 98 2 3 1 10 -4 16 -4 6
-11 25 -14 41 -3 17 -8 37 -12 45 -4 11 1 16 14 17 11 1 22 -6 24 -15 3 -12 5
-10 6 6 0 12 4 22 9 23 4 0 17 2 30 3 29 3 59 -38 54 -75 -2 -19 -13 -29 -45
-41 -23 -9 -34 -17 -24 -17 21 -1 22 -15 1 -36 -9 -9 -14 -18 -12 -20 5 -5 43
35 45 48 1 5 4 11 7 14 11 11 6 -37 -5 -55 -12 -19 -5 -107 9 -116 4 -2 7 34
8 80 0 47 5 89 10 94 32 32 52 -71 24 -124 -16 -32 -16 -34 4 -47 12 -8 26
-14 33 -14 6 0 20 -9 31 -19 12 -10 25 -15 30 -12 6 3 13 -1 16 -10 3 -8 10
-13 15 -9 5 3 13 0 17 -6 4 -8 3 -9 -4 -5 -25 15 -10 -11 42 -76 30 -36 52
-68 50 -71 -6 -6 45 -47 59 -47 6 0 2 9 -8 20 -12 14 -16 29 -12 52 l6 33 -13
-29 -13 -28 -21 34 c-12 19 -30 45 -41 58 -32 38 -36 45 -39 60 -6 25 -22 39
-42 35 -10 -2 -28 5 -41 16 -12 10 -26 16 -30 13 -5 -3 -15 1 -22 8 -9 10 -10
21 -2 45 l11 32 32 -54 c20 -32 38 -52 45 -49 9 3 0 19 -26 47 -47 51 -32 60
38 22 26 -14 63 -25 82 -25 34 0 36 -3 48 -54 3 -15 8 -27 10 -24 2 2 -1 24
-6 48 -6 25 -11 58 -11 73 -1 17 -4 23 -9 16 -4 -8 -14 2 -28 29 -11 22 -35
52 -53 66 -35 27 -32 34 5 14 20 -10 21 -10 8 6 -8 10 -23 15 -33 13 -10 -3
-18 -1 -18 4 0 5 13 12 30 15 16 4 27 11 24 16 -4 6 2 8 14 4 11 -4 23 -2 27
3 4 7 -1 8 -12 4 -13 -5 -9 3 12 29 34 40 67 52 88 31 12 -13 15 -13 20 1 4
10 1 13 -9 9 -9 -3 -14 2 -14 16 0 12 5 21 10 21 7 0 7 6 0 19 -5 11 -10 28
-9 38 0 16 1 16 10 -2 9 -20 9 -20 6 0 -4 34 -22 17 -22 -23 -1 -42 -10 -62
-30 -62 -8 0 -11 7 -8 20 3 11 10 17 17 13 6 -3 0 6 -14 22 -25 28 -25 28 -2
22 12 -3 20 -1 16 4 -10 17 -44 10 -44 -10 0 -10 -10 -31 -22 -47 l-22 -29 32
29 c42 39 42 16 0 -45 -30 -44 -110 -100 -124 -87 -7 7 5 24 51 72 17 17 26
28 20 24 -22 -19 -25 -5 -5 27 27 43 34 83 19 101 -19 23 -31 16 -15 -9 14
-20 12 -28 -23 -97 -41 -79 -68 -98 -64 -45 2 25 1 27 -7 10 -6 -14 -9 -16
-10 -5 -1 8 -4 28 -6 44 -2 16 -5 35 -8 42 -3 7 0 14 6 16 7 3 8 10 4 17 -15
23 -27 -10 -21 -54 5 -29 3 -36 -4 -25 -6 8 -11 10 -11 4 0 -6 7 -17 15 -24
20 -17 19 -36 -2 -44 -10 -3 -24 -9 -30 -12 -7 -3 -13 0 -13 6 0 7 -9 23 -20
37 -11 14 -17 29 -14 34 2 5 9 45 14 89 10 86 30 136 86 214 37 52 40 82 12
100 -14 8 -23 5 -48 -19 -33 -32 -33 -32 -47 9 l-9 30 -32 -31z m144 -492 c2
-32 -36 -74 -59 -66 -20 8 -22 27 -6 58 22 42 63 46 65 8z m58 -64 c48 -43 76
-86 76 -116 0 -20 2 -21 15 -11 12 10 15 10 15 -4 0 -18 -38 -22 -68 -7 -55
28 -111 51 -124 51 -10 0 -13 9 -10 38 3 23 7 31 11 21 6 -17 88 -89 99 -89 4
1 -14 20 -40 45 -51 46 -55 54 -36 85 17 26 18 26 62 -13z m-479 -88 c19 -33
35 -65 35 -72 0 -7 7 -25 15 -40 16 -32 10 -59 -14 -55 -20 4 -27 38 -10 49
11 6 8 14 -13 36 -23 25 -68 113 -68 134 0 24 23 3 55 -52z m-63 -20 c13 -17
35 -44 51 -61 31 -34 32 -38 14 -38 -27 0 -90 57 -102 93 -16 48 3 51 37 6z"/>
<path d="M2720 4351 c0 -11 -3 -27 -7 -37 -4 -11 -3 -15 4 -11 7 5 11 -6 11
-28 0 -22 -6 -39 -16 -45 -16 -9 -15 -9 1 -10 9 0 17 -7 17 -17 0 -9 -3 -13
-7 -10 -3 4 -17 0 -31 -9 -35 -23 -40 -9 -14 38 12 23 20 43 17 46 -2 2 -12
-13 -22 -33 l-18 -38 -5 58 c-3 34 -10 60 -17 63 -7 2 -13 -4 -13 -13 0 -20
-65 -96 -74 -87 -3 3 -6 19 -6 36 0 40 -10 76 -21 76 -4 0 -13 -17 -18 -37
-23 -88 -24 -96 -12 -89 6 4 11 3 11 -3 0 -5 7 -17 16 -25 8 -9 26 -42 39 -73
13 -32 24 -51 25 -42 0 8 -9 34 -20 56 l-20 42 22 40 c12 23 25 41 30 41 5 0
17 15 28 33 l20 32 0 -52 c0 -28 4 -63 10 -77 6 -17 6 -26 0 -26 -12 0 -50
-73 -50 -96 0 -10 12 7 28 36 33 66 58 80 48 27 -4 -21 -2 -38 4 -42 6 -3 7
-11 4 -17 -4 -6 -10 -5 -16 3 -8 11 -9 10 -5 -3 8 -24 -12 -88 -29 -95 -8 -3
-21 -21 -29 -40 -13 -31 -18 -34 -41 -29 -15 4 -32 2 -40 -5 -35 -29 -54 22
-75 201 -10 87 -6 135 11 125 6 -3 10 -1 10 5 0 6 -11 15 -25 20 -14 5 -25 14
-25 20 0 6 -4 8 -10 5 -5 -3 -7 0 -4 8 3 8 -3 20 -12 28 -15 12 -16 11 -9 -21
4 -19 11 -39 15 -44 5 -5 6 -16 3 -25 -4 -13 -3 -13 5 -2 6 8 7 21 4 30 -5 14
-3 14 10 3 12 -9 14 -21 9 -40 -15 -55 -4 -175 24 -257 15 -44 32 -84 38 -90
7 -7 7 -5 2 5 -7 13 -6 13 7 2 8 -7 23 -9 33 -6 10 4 21 1 26 -7 7 -11 9 -11
9 4 0 9 6 17 14 17 7 0 19 7 26 15 7 8 16 15 21 15 14 0 10 -26 -5 -39 -20
-17 -31 -88 -16 -106 8 -10 8 -19 1 -33 -6 -11 -6 -23 -1 -28 6 -6 0 -30 -15
-62 -13 -28 -22 -52 -19 -52 3 0 0 -9 -6 -21 -7 -11 -9 -23 -7 -26 3 -3 17 21
32 52 27 60 40 156 25 185 -9 17 35 149 58 172 21 21 42 0 42 -42 0 -45 19
-54 43 -20 12 18 15 18 35 4 20 -13 21 -13 16 1 -6 15 -48 31 -71 27 -7 -2
-13 6 -13 18 0 24 -41 44 -52 27 -14 -22 -17 0 -7 39 6 21 30 64 53 96 54 74
107 160 102 165 -2 2 -32 -39 -67 -91 -41 -61 -67 -91 -74 -85 -10 10 15 64
46 97 10 11 15 22 12 25 -3 4 10 22 28 42 19 20 33 41 31 46 -4 16 18 50 28
44 5 -3 7 -13 4 -23 -5 -15 -5 -15 6 1 6 9 8 22 5 27 -12 20 -32 9 -51 -27
-10 -21 -27 -49 -36 -62 -18 -24 -18 -24 -19 30 -1 30 -1 62 0 72 1 9 -3 17
-8 17 -6 0 -11 -9 -11 -19z m-188 -98 c3 -21 7 -44 9 -52 2 -7 -2 -16 -8 -18
-18 -7 -35 46 -28 85 8 41 22 34 27 -15z m182 -78 c-4 -8 -10 -15 -16 -15 -5
0 -6 -6 -2 -12 5 -9 3 -9 -7 0 -12 11 -11 15 5 28 25 18 27 18 20 -1z m-60
-231 c4 -10 2 -13 -6 -8 -8 5 -9 1 -4 -12 4 -10 4 -15 0 -11 -4 4 -13 2 -21
-4 -18 -15 -17 1 3 29 18 26 20 27 28 6z m104 -56 c-6 -18 -28 -21 -28 -4 0 9
7 16 16 16 9 0 14 -5 12 -12z"/>
<path d="M1789 4223 c30 -27 60 -52 68 -56 7 -4 22 -26 33 -48 27 -51 34 -50
11 1 -16 37 -61 91 -61 74 0 -4 -20 12 -45 35 -24 22 -48 41 -52 41 -4 0 17
-21 46 -47z"/>
<path d="M1417 4245 c-3 -7 1 -16 8 -19 20 -7 26 6 10 21 -10 10 -14 9 -18 -2z"/>
<path d="M1730 4207 c0 -5 13 -27 29 -50 16 -23 32 -57 36 -74 4 -18 10 -33
15 -33 5 0 11 -13 15 -30 6 -29 25 -52 25 -31 0 6 6 11 13 11 17 0 49 -34 42
-43 -3 -4 -2 -4 3 -1 21 16 -11 53 -48 54 -9 0 -24 25 -39 64 -21 55 -90 156
-91 133z"/>
<path d="M2476 4180 c15 -20 43 -101 59 -170 8 -35 13 -45 14 -28 1 40 -46
184 -67 199 -15 12 -16 12 -6 -1z"/>
<path d="M3176 4130 c7 -76 22 -140 33 -140 4 0 4 24 0 53 -5 40 -3 56 9 70 9
11 11 17 4 17 -7 0 -12 -4 -12 -10 0 -21 -20 -9 -21 13 0 12 -4 31 -9 42 -6
13 -7 -3 -4 -45z"/>
<path d="M3115 4170 c3 -5 0 -10 -7 -12 -13 -5 -14 -111 -3 -223 4 -40 3 -55
-4 -45 -5 9 -11 42 -13 75 -3 59 -23 95 -52 95 -6 0 -1 -8 11 -18 16 -13 23
-32 28 -86 4 -38 11 -79 16 -92 8 -24 -3 -34 -16 -14 -3 6 -12 10 -18 10 -7 0
-6 -4 3 -10 10 -6 15 -27 16 -59 l2 -50 -49 2 c-55 2 -59 0 -26 -12 13 -5 27
-5 35 1 7 6 12 7 12 1 0 -19 -109 -112 -153 -131 -36 -15 -38 -15 -31 3 4 8 2
15 -4 15 -11 0 -25 -30 -17 -38 3 -3 22 0 42 6 20 6 38 10 40 8 2 -2 -3 -16
-12 -32 -21 -41 -20 -74 3 -74 28 0 34 11 14 26 -16 12 -16 15 5 54 12 23 17
40 10 40 -8 0 -8 3 0 11 14 14 36 2 27 -14 -3 -7 1 -4 9 6 19 22 27 22 27 -3
0 -11 -4 -20 -9 -20 -5 0 -14 -14 -20 -31 -26 -76 -3 -60 28 19 12 30 16 52
10 52 -5 0 -7 5 -4 10 4 6 10 8 15 5 8 -5 25 24 21 38 -1 5 3 6 9 2 6 -3 9 -9
7 -13 -24 -46 -37 -85 -34 -95 5 -14 31 43 42 91 7 34 -9 44 -33 20 -7 -7 -12
-8 -12 -2 0 6 9 19 21 30 17 16 22 16 31 4 8 -12 9 -12 4 3 -6 18 9 24 19 7 3
-5 14 -10 23 -10 18 -1 65 -61 94 -120 16 -32 17 -33 11 -6 l-6 28 27 -17 c30
-20 34 -45 7 -45 -10 0 -32 -3 -49 -6 -30 -6 -31 -5 -47 52 -15 55 -40 103
-48 93 -6 -7 5 -149 12 -149 3 0 4 26 3 57 -5 67 4 66 21 -2 15 -59 30 -70 90
-61 40 6 47 10 47 30 0 15 -10 30 -27 41 -36 23 -83 66 -83 77 0 5 13 2 30 -7
16 -8 37 -15 47 -14 14 0 15 2 3 6 -8 3 -31 12 -50 21 -19 8 -38 14 -42 14
-12 -3 -10 7 4 21 6 7 25 11 41 9 21 -3 28 -1 23 7 -10 16 10 14 28 -4 17 -18
26 -19 26 -5 0 6 -10 15 -22 20 l-23 9 22 0 c67 2 154 74 125 103 -13 13 -61
-3 -101 -34 -42 -32 -41 -19 1 38 39 52 63 61 38 15 -15 -29 -6 -26 14 3 14
22 14 26 0 40 -11 12 -12 20 -4 35 5 11 10 22 10 25 0 12 -38 5 -50 -8 -6 -8
-18 -12 -27 -9 -11 4 -14 2 -11 -8 3 -8 -12 -47 -33 -86 -21 -40 -33 -73 -28
-73 5 0 23 29 40 64 29 61 89 133 89 107 0 -17 -38 -90 -67 -128 -13 -18 -20
-33 -16 -33 4 -1 -5 -8 -21 -16 -24 -13 -30 -14 -37 -2 -12 18 -11 36 6 83 17
47 19 95 5 95 -17 0 -28 -43 -29 -112 -1 -26 -3 -27 -26 -16 -15 7 -25 20 -25
32 0 12 -3 72 -7 135 -5 110 -5 115 17 131 l23 17 -22 6 c-11 3 -19 1 -16 -3z
m265 -335 c-18 -21 -64 -45 -87 -45 -10 0 -36 -9 -58 -20 -72 -37 -51 -4 25
39 85 48 114 61 123 52 7 -7 5 -16 -3 -26z m-218 -17 c18 -34 18 -44 -3 -67
-32 -35 -69 -20 -69 27 0 57 47 84 72 40z m-132 -146 c0 -4 -15 -16 -32 -26
l-33 -18 30 26 c34 28 35 29 35 18z"/>
<path d="M2943 4143 c-7 -2 -12 -17 -12 -31 2 -24 2 -24 6 -4 6 28 20 28 44 0
11 -11 19 -17 19 -11 0 8 -38 54 -43 52 -1 0 -8 -3 -14 -6z"/>
<path d="M3240 4134 c0 -3 7 -13 16 -21 15 -16 15 -23 -1 -99 -5 -20 -4 -25 3
-15 8 11 11 11 16 0 3 -8 4 -5 1 6 -3 11 -1 34 4 50 10 35 -1 70 -23 78 -9 4
-16 4 -16 1z"/>
<path d="M2200 4069 c-6 -11 -10 -25 -7 -32 2 -6 9 3 15 21 12 36 8 42 -8 11z"/>
<path d="M2941 4069 c-2 -26 66 -153 95 -179 l28 -25 -24 35 c-14 19 -28 37
-32 38 -4 2 -8 12 -8 23 0 10 -4 19 -10 19 -5 0 -9 3 -8 8 1 4 -8 27 -19 52
-12 25 -22 38 -22 29z"/>
<path d="M1920 4063 c0 -5 5 -15 10 -23 8 -12 10 -11 10 8 0 12 -4 22 -10 22
-5 0 -10 -3 -10 -7z"/>
<path d="M2080 4054 c0 -3 7 -12 15 -20 13 -13 15 -13 15 -1 0 8 -7 17 -15 21
-8 3 -15 3 -15 0z"/>
<path d="M3021 4030 c29 -45 29 -45 29 -34 0 5 -12 23 -26 39 l-26 30 23 -35z"/>
<path d="M2576 4011 c-3 -4 -2 -28 3 -52 l8 -44 4 53 c4 48 -2 65 -15 43z"/>
<path d="M2350 3949 l-24 -34 27 24 c20 18 27 21 27 9 0 -23 -46 -68 -70 -68
-12 0 -18 -4 -15 -10 3 -5 15 -10 25 -10 10 0 25 -9 33 -20 11 -16 16 -18 20
-7 3 9 -5 20 -19 28 -20 10 -22 14 -10 21 8 5 24 21 35 37 17 24 18 31 7 46
-12 16 -14 15 -36 -16z"/>
<path d="M2820 3970 c0 -5 8 -10 18 -10 10 0 23 -5 30 -12 6 -6 14 -9 18 -6 3
4 -8 14 -25 22 -35 19 -41 19 -41 6z"/>
<path d="M2836 3942 c-3 -6 2 -20 14 -32 11 -11 20 -24 20 -30 0 -5 29 -23 65
-40 36 -17 63 -35 60 -39 -3 -5 4 -7 15 -4 20 5 19 7 -8 23 -15 10 -37 20 -48
24 -23 7 -99 77 -106 96 -3 10 -6 11 -12 2z"/>
<path d="M2900 3940 c0 -4 14 -13 30 -19 17 -5 30 -8 30 -6 0 2 -13 10 -30 19
-16 8 -30 11 -30 6z"/>
<path d="M1888 3918 c3 -14 0 -17 -12 -12 -19 7 -34 -22 -18 -38 7 -7 10 -4 9
8 -1 11 4 18 11 16 8 -1 16 8 20 20 l6 23 7 -25 7 -25 1 27 c1 20 -4 26 -18
25 -12 -1 -17 -7 -13 -19z"/>
<path d="M2014 3911 c4 -5 0 -11 -6 -14 -7 -2 -11 -7 -8 -10 3 -3 16 3 30 13
l25 20 -23 0 c-13 0 -21 -4 -18 -9z"/>
<path d="M2989 3889 c13 -11 26 -17 29 -14 7 6 -29 34 -43 34 -5 0 1 -9 14
-20z"/>
<path d="M1890 3863 c0 -9 -7 -24 -16 -34 -21 -23 -12 -51 13 -42 15 5 16 3 6
-8 -7 -7 -13 -18 -13 -23 1 -16 30 25 30 42 0 9 -7 11 -20 7 -23 -7 -28 12 -6
21 8 3 16 15 19 26 7 26 28 13 23 -15 -1 -12 -1 -16 1 -9 3 7 9 10 14 6 5 -3
4 6 -3 20 -13 29 -48 36 -48 9z"/>
<path d="M2401 3851 c26 -21 39 -19 39 7 0 12 -3 13 -8 5 -5 -8 -13 -9 -22 -3
-27 17 -33 10 -9 -9z"/>
<path d="M2828 3853 c24 -10 1 -22 -36 -17 l-37 4 35 -11 c30 -9 32 -12 17
-21 -15 -8 -16 -12 -6 -25 15 -18 83 -53 101 -53 7 1 -8 12 -34 25 -26 14 -49
29 -53 35 -9 14 39 23 88 17 27 -4 36 -2 26 4 -7 5 -34 9 -58 9 -35 0 -42 3
-33 12 17 17 15 28 -5 27 -11 0 -13 -3 -5 -6z"/>
<path d="M1832 3810 c1 -25 -2 -61 -6 -80 l-6 -35 16 38 c13 31 15 46 6 80
l-10 42 0 -45z"/>
<path d="M2730 3846 c0 -2 7 -20 15 -40 8 -20 15 -38 15 -41 -1 -28 1 -35 9
-35 9 0 1 47 -18 93 -9 23 -21 36 -21 23z"/>
<path d="M2311 3823 c7 -10 14 -20 16 -22 1 -2 1 6 0 18 -1 11 -8 21 -15 21
-12 0 -12 -3 -1 -17z"/>
<path d="M2494 3815 c-17 -13 -17 -14 -1 -15 9 0 17 5 17 10 0 21 18 9 30 -20
14 -35 7 -206 -12 -275 -6 -22 -12 -49 -13 -60 -1 -11 -8 -19 -14 -17 -7 1
-10 -1 -7 -6 3 -5 -1 -18 -9 -28 -8 -10 -15 -14 -15 -7 0 6 5 15 10 18 6 4 7
13 1 23 -5 9 -10 71 -11 137 -4 161 -3 155 -13 155 -10 0 0 -281 11 -308 3
-10 0 -13 -9 -10 -8 3 -28 -10 -46 -28 l-31 -33 -84 20 c-115 30 -187 68 -243
131 -36 41 -43 46 -31 22 17 -34 75 -89 113 -107 17 -8 20 -13 11 -19 -9 -5
-7 -8 7 -8 11 0 66 -12 123 -26 100 -26 102 -28 100 -55 -1 -15 -7 -27 -13
-26 -5 1 -9 -4 -7 -10 1 -7 -3 -13 -10 -13 -6 0 -9 -3 -5 -6 8 -9 -14 -65 -23
-59 -13 8 -33 -34 -25 -53 3 -9 3 -13 -1 -10 -3 4 -26 -6 -50 -23 -48 -33 -54
-29 -24 16 11 17 20 35 20 40 0 18 -43 -57 -46 -79 -1 -11 -3 -24 -3 -28 -1
-5 -6 -8 -12 -8 -7 0 -9 15 -5 43 5 37 4 39 -4 12 -6 -16 -8 -38 -6 -48 2 -10
-7 -37 -20 -61 -14 -25 -28 -64 -33 -88 l-8 -43 -7 50 c-18 128 -30 178 -46
193 -10 9 -20 31 -23 47 -5 28 -5 28 -5 -5 0 -58 -2 -67 -12 -45 -8 18 -9 18
-8 -5 0 -14 -4 -38 -11 -53 -15 -38 -13 -103 4 -152 17 -47 15 -52 -11 -24
-50 55 -98 99 -109 99 -6 0 -30 9 -53 20 -22 11 -45 20 -49 20 -5 0 -14 9 -21
20 -10 16 -10 20 0 20 7 1 -2 7 -20 15 -22 10 -31 19 -26 27 4 7 4 10 -1 6 -4
-4 -25 2 -46 12 -41 21 -59 25 -59 12 0 -5 22 -19 48 -31 27 -13 61 -38 77
-57 16 -19 36 -34 44 -35 12 0 10 -3 -4 -9 -36 -14 -120 13 -120 39 0 16 -94
93 -105 86 -5 -3 -10 0 -10 8 0 8 -9 25 -19 38 l-19 24 1 -27 c1 -15 8 -30 16
-33 18 -7 -5 -35 -30 -35 -10 0 -21 -5 -24 -10 -4 -6 -10 -8 -14 -6 -4 3 -8 0
-9 -7 -22 -154 -24 -182 -13 -199 6 -10 11 -29 11 -42 0 -39 13 -37 45 5 16
22 31 35 33 30 2 -6 8 -11 13 -11 6 0 6 7 0 18 -5 10 -9 48 -9 84 0 75 16 93
43 52 9 -14 20 -22 25 -19 4 3 6 -5 3 -17 -3 -16 -2 -19 5 -10 7 10 12 8 24
-10 39 -58 158 -179 169 -172 5 3 9 -5 10 -18 1 -14 20 -40 50 -66 46 -42 49
-43 71 -28 13 9 17 16 9 16 -8 0 -19 8 -26 17 -17 23 -45 26 -38 5 4 -10 3
-14 -1 -10 -4 3 -8 12 -10 20 -3 23 -17 39 -28 32 -6 -4 -8 -2 -5 3 4 6 -10
26 -31 44 -20 18 -37 35 -37 38 0 3 -27 31 -59 61 -32 30 -69 74 -83 97 -14
24 -29 41 -34 37 -5 -3 -6 2 -3 10 3 9 -5 21 -20 31 -35 23 -33 36 4 22 17 -6
30 -15 30 -19 0 -16 53 -62 89 -78 21 -10 38 -24 38 -32 0 -16 88 -147 133
-198 44 -49 27 -21 -52 89 -71 97 -83 127 -48 118 11 -3 23 -1 26 4 9 14 50
10 64 -6 8 -9 21 -13 32 -9 10 3 18 2 17 -3 -4 -21 3 -32 24 -39 21 -8 21 -8
-8 -15 l-30 -7 31 -1 c22 -1 37 -9 48 -26 9 -14 22 -25 28 -25 6 0 4 8 -5 18
-10 10 -17 22 -17 27 0 4 10 -5 22 -21 12 -16 25 -31 28 -34 3 -3 11 -17 17
-31 10 -23 8 -34 -13 -75 -13 -26 -24 -57 -24 -68 0 -12 -9 -27 -20 -34 -11
-6 -29 -31 -40 -54 -16 -34 -17 -38 -3 -18 10 13 28 36 40 50 19 21 24 23 33
10 7 -11 6 -16 -4 -18 -8 -2 -19 -15 -24 -30 -5 -15 -20 -38 -32 -52 -12 -14
-30 -34 -39 -45 -9 -11 -28 -28 -44 -38 -24 -16 -28 -16 -33 -2 -17 44 34 135
117 210 22 20 38 39 35 43 -9 8 -67 -50 -138 -137 -54 -66 -60 -77 -56 -112 2
-21 1 -39 -2 -39 -12 0 -60 57 -53 63 3 4 -1 7 -9 7 -9 0 -23 10 -31 23 -9 12
-16 19 -16 15 -1 -4 13 -23 30 -43 30 -34 31 -37 14 -49 -15 -11 -23 -11 -47
1 -15 8 -28 18 -28 23 0 5 -10 10 -22 12 -22 3 -39 28 -18 28 6 0 8 -5 4 -12
-4 -7 -3 -8 4 -4 13 8 17 36 5 36 -4 0 -17 -10 -30 -22 -22 -20 -23 -21 -23
-2 0 14 -2 16 -9 6 -4 -8 -11 -13 -15 -13 -19 3 -39 -1 -28 -6 19 -8 14 -22
-13 -35 -23 -10 -36 -48 -16 -48 5 0 11 -11 14 -25 3 -17 0 -24 -7 -22 -21 8
-47 -13 -41 -32 4 -14 -1 -20 -20 -25 -14 -4 -23 -11 -20 -16 5 -8 -32 -40
-47 -40 -17 0 -7 21 15 29 21 9 21 10 -10 21 -50 18 -41 33 17 28 43 -4 47 -3
32 8 -26 20 -70 17 -84 -6 -7 -11 -23 -20 -35 -20 -32 0 -53 -10 -53 -26 0 -8
3 -14 8 -14 4 0 7 -15 7 -32 0 -46 27 -49 43 -4 14 37 48 62 37 26 -10 -32 36
-26 70 10 15 16 31 27 36 25 4 -3 9 1 12 7 2 7 8 10 11 6 4 -3 -6 -19 -23 -34
-38 -34 -39 -44 -2 -44 27 0 87 37 77 47 -3 3 -17 -4 -32 -16 -27 -21 -54 -28
-54 -13 0 4 13 16 29 25 22 13 41 16 72 11 l42 -7 -27 -14 c-39 -20 -27 -39
23 -35 39 2 41 1 29 -18 -8 -13 -9 -23 -2 -30 14 -14 82 7 110 35 l23 23 41
-29 c24 -17 38 -34 34 -41 -5 -7 -11 -5 -20 7 -8 10 -17 15 -21 10 -5 -4 -2
-10 5 -12 23 -9 12 -23 -18 -23 -34 0 -37 6 -13 32 9 10 11 18 5 18 -16 0 -54
-58 -50 -78 2 -9 12 -17 23 -17 16 0 21 -8 23 -37 2 -21 6 -38 10 -38 12 0 8
64 -5 78 -21 22 -15 35 14 28 16 -5 29 -3 33 5 5 8 14 5 30 -11 18 -18 20 -24
9 -31 -8 -4 -19 -3 -26 3 -9 7 -13 7 -13 0 0 -6 8 -16 18 -21 9 -6 11 -11 5
-11 -7 0 -13 -9 -13 -20 0 -11 -4 -20 -10 -20 -5 0 -10 10 -10 22 0 17 -3 19
-12 10 -10 -9 -9 -16 4 -28 18 -18 38 -11 38 12 0 13 4 12 30 -1 34 -17 34
-19 20 -46 -6 -10 -7 -19 -2 -19 5 0 17 -19 26 -42 9 -24 26 -54 37 -68 20
-24 20 -23 -1 15 -31 54 -51 113 -41 119 5 3 22 -24 39 -60 19 -41 31 -59 34
-48 3 16 4 16 20 1 21 -22 27 -6 17 48 -4 22 -3 47 2 57 5 9 9 30 9 46 0 25 6
32 31 41 42 15 42 15 24 -19 -16 -31 -19 -58 -9 -85 6 -14 8 -14 25 1 18 16
19 16 19 -1 0 -25 22 -85 32 -85 8 0 0 28 -13 46 -27 34 -1 119 46 150 32 21
50 13 59 -23 10 -44 60 -96 85 -88 18 5 21 14 21 60 0 30 5 57 10 60 6 4 28
-12 49 -35 31 -34 40 -39 49 -27 17 20 12 88 -10 124 -18 31 -77 73 -101 73
-7 0 -6 -4 3 -11 10 -7 11 -9 2 -7 -8 2 -14 8 -14 13 0 6 -7 19 -14 30 -17 23
-17 35 -4 69 14 37 41 24 33 -15 -4 -24 -2 -29 14 -29 10 0 24 5 31 12 18 18
44 -20 30 -45 -5 -10 -7 -21 -4 -25 3 -3 6 -1 6 5 0 6 12 27 26 48 15 23 24
47 21 61 -4 21 -1 22 27 17 17 -3 33 -7 35 -9 2 -2 -8 -49 -22 -106 -27 -112
-31 -148 -16 -148 5 0 9 15 9 33 0 46 36 182 56 213 15 22 19 23 26 10 12 -21
35 -20 47 1 11 20 10 21 39 -27 l21 -36 -51 -24 c-61 -29 -100 -59 -93 -70 3
-5 32 -12 65 -16 l59 -6 -17 -27 c-9 -14 -29 -41 -44 -59 -54 -63 -31 -79 53
-36 28 14 53 23 55 21 6 -6 -36 -57 -45 -54 -17 5 -152 -118 -149 -137 2 -14
-21 -70 -27 -64 -7 7 17 138 26 138 5 0 6 6 3 13 -9 24 26 101 64 141 l37 39
-33 -23 c-46 -31 -69 -72 -88 -159 -9 -40 -23 -86 -30 -100 -8 -14 -13 -35
-13 -46 1 -17 2 -16 9 5 15 46 11 -12 -4 -66 -21 -73 -28 -134 -16 -134 18 0
7 -73 -18 -121 -26 -51 -37 -58 -132 -88 -36 -11 -57 -20 -48 -20 11 -1 18
-12 21 -33 l4 -33 1 36 c2 30 7 38 26 43 13 3 32 9 42 13 14 5 16 2 11 -18 -3
-13 -2 -44 3 -69 l7 -45 2 61 c1 49 5 65 23 80 15 14 20 15 16 4 -3 -8 -11
-32 -19 -52 -10 -30 -11 -45 -1 -71 15 -41 16 -77 2 -77 -16 0 -5 -38 18 -63
12 -13 19 -27 15 -30 -3 -4 3 -7 14 -7 12 0 33 14 48 32 24 28 27 38 22 78 -3
26 -16 68 -28 93 l-23 47 27 79 c20 59 24 86 18 103 -9 21 -10 19 -10 -13 -1
-20 -12 -66 -25 -101 -22 -58 -23 -68 -11 -92 8 -15 16 -35 17 -44 2 -9 6 -19
10 -22 16 -12 12 -101 -5 -118 -16 -15 -19 -15 -45 0 -23 15 -27 23 -24 55 2
20 -2 56 -8 78 -11 41 0 102 17 92 5 -3 9 11 10 31 1 21 9 42 19 49 9 7 14 19
11 27 -4 9 -2 18 3 21 6 4 10 19 10 35 0 15 5 30 11 32 6 2 2 14 -10 29 -11
14 -16 30 -12 35 5 5 14 38 21 74 9 48 21 76 46 107 19 23 34 46 34 51 0 5 29
35 64 66 53 46 65 53 69 39 3 -13 7 -8 12 15 11 48 25 39 25 -18 0 -34 4 -50
13 -50 18 0 76 44 104 78 l22 27 1 -38 c0 -44 15 -77 33 -77 16 0 72 58 80 83
4 10 11 16 16 13 5 -4 11 -2 13 3 2 6 28 4 63 -5 33 -7 66 -14 73 -14 25 0 24
31 -2 64 -42 56 -38 60 60 56 23 -1 45 3 48 9 11 17 -11 47 -49 71 -38 23 -38
40 0 40 13 0 27 4 30 10 3 6 16 10 28 10 40 0 49 13 33 45 -11 22 -27 32 -63
41 -26 7 -59 13 -73 14 l-25 1 27 23 c35 31 69 98 58 116 -7 11 -20 9 -70 -10
-34 -13 -77 -34 -96 -46 l-34 -23 0 33 c0 18 -6 39 -14 46 -8 6 -16 21 -18 32
-2 12 -11 26 -21 32 -16 9 -24 5 -53 -28 -19 -22 -40 -59 -47 -83 l-12 -42
-29 35 -28 35 43 52 c24 28 37 47 29 42 -8 -5 -22 -10 -31 -10 -20 -2 -49 -29
-49 -45 0 -6 11 2 24 17 13 15 26 26 29 23 3 -3 -8 -20 -23 -38 -24 -29 -30
-32 -47 -21 -19 11 -19 12 -1 47 10 20 18 51 18 69 l0 32 26 -24 c21 -19 30
-22 45 -14 11 5 19 14 19 20 0 6 4 8 9 5 12 -8 54 41 46 53 -6 11 81 131 96
131 5 0 9 7 9 15 0 9 7 18 15 21 18 7 20 25 3 21 -7 -1 -13 8 -14 21 -1 12 -4
26 -8 30 -4 3 -6 -12 -5 -35 2 -28 -3 -46 -15 -58 -16 -16 -18 -16 -37 1 -17
15 -26 16 -62 7 -41 -11 -41 -11 -17 7 13 10 30 15 39 12 10 -4 13 -1 8 11 -3
8 1 21 8 27 8 7 17 28 21 49 4 20 20 50 37 69 17 17 26 32 20 32 -6 0 -23 -13
-36 -30 -21 -24 -33 -30 -66 -30 -39 0 -44 -4 -86 -61 -25 -34 -45 -65 -45
-70 0 -5 -5 -9 -11 -9 -7 0 -9 10 -7 25 3 13 1 22 -3 19 -5 -3 -9 -1 -9 4 0
11 20 30 35 32 6 1 12 4 15 7 3 4 -1 3 -7 -1 -19 -11 -16 -1 22 80 66 139 76
169 60 190 -8 11 -15 28 -15 40 0 24 -29 54 -53 54 -33 0 -26 19 20 53 54 40
119 104 112 111 -2 3 -33 -22 -68 -55 l-63 -60 -17 33 c-19 36 -18 48 5 48 8
0 13 -4 9 -9 -3 -5 -1 -12 4 -15 5 -3 12 5 15 19 4 14 14 25 24 25 32 1 74 50
42 50 -5 0 -10 -5 -10 -10 0 -12 -123 -70 -147 -70 -8 0 -17 -9 -20 -20 -6
-23 -8 -24 -34 -9 -11 5 -17 14 -14 20 9 14 -18 10 -40 -6 -14 -11 -19 -26
-18 -55 2 -32 -2 -40 -16 -40 -9 0 -22 -5 -29 -12 -16 -16 -15 -68 2 -82 10
-9 11 -16 1 -34 -12 -23 -12 -23 -35 15 -13 21 -23 43 -23 50 0 7 -5 9 -10 6
-6 -4 -8 0 -4 10 4 11 2 14 -8 11 -10 -4 -3 -22 28 -72 45 -70 84 -151 79
-164 -1 -5 2 -8 8 -8 5 0 7 -7 4 -15 -12 -30 -34 -14 -83 62 -28 42 -51 73
-51 68 0 -19 72 -135 96 -154 32 -25 59 -28 50 -5 -3 9 1 25 9 37 8 12 15 26
15 32 0 5 -5 2 -11 -8 -10 -17 -12 -17 -25 8 -8 15 -14 28 -14 29 0 8 46 -1
52 -9 4 -6 8 -1 8 10 0 11 7 28 15 38 13 18 14 18 24 -1 5 -10 24 -34 42 -53
21 -22 28 -26 20 -12 -10 19 -8 24 9 35 11 7 20 21 20 32 0 30 -22 96 -33 96
-5 0 -6 -8 -2 -17 24 -55 12 -119 -20 -107 -27 11 -48 114 -24 114 16 0 38 31
39 53 0 20 37 37 60 29 19 -7 50 -33 50 -43 0 -16 -33 -39 -56 -39 -14 0 -22
-4 -19 -10 4 -6 18 -5 40 4 29 13 35 13 46 0 9 -12 5 -14 -27 -15 l-39 -1 35
-11 c19 -6 36 -11 38 -13 2 -1 -16 -42 -39 -90 -22 -49 -48 -104 -55 -121 -18
-41 -24 -41 -46 -3 -21 37 -52 39 -74 4 -14 -21 -15 -33 -7 -71 l11 -46 -29
31 c-30 32 -52 33 -63 5 -8 -19 38 -81 68 -93 18 -7 15 -9 -15 -9 -19 -1 -56
-11 -81 -24 -39 -20 -45 -27 -42 -50 2 -17 -3 -30 -14 -36 -14 -7 -20 -1 -34
40 l-16 49 23 0 c30 0 39 14 26 39 -8 14 -6 22 8 35 9 9 23 16 30 16 10 0 9 6
-2 24 -15 22 -15 25 3 41 24 21 26 53 5 61 -9 4 -15 19 -15 35 0 21 -5 29 -18
29 -10 0 -22 -4 -28 -10 -6 -6 -9 20 -9 70 0 43 3 76 8 73 4 -2 7 1 7 6 0 6
-6 11 -14 11 -8 0 -17 14 -21 31 -4 17 -9 28 -12 25 -3 -3 2 -26 11 -52 21
-61 22 -144 2 -144 -8 0 -21 -3 -30 -6 -11 -4 -16 -1 -16 10 0 20 -24 21 -44
1 -8 -8 -17 -15 -20 -15 -6 0 10 57 23 85 35 71 59 165 27 104 -19 -37 -56
-146 -56 -165 0 -8 -4 -13 -8 -10 -13 8 -29 -7 -46 -44 -9 -19 -13 -26 -10
-15 15 48 16 105 3 122 -12 15 -12 16 4 10 10 -4 16 -3 13 2 -3 4 6 13 20 20
18 8 25 17 21 30 -2 10 0 25 5 32 8 11 9 10 4 -3 -12 -40 11 -14 34 37 14 30
28 55 33 55 4 0 7 13 7 29 0 16 6 36 13 43 7 7 16 21 20 31 8 22 52 20 52 -3
0 -21 34 -39 70 -39 28 1 26 2 -14 15 -11 4 -11 7 0 22 13 15 12 16 -4 3 -16
-13 -20 -12 -35 4 -16 16 -16 17 0 12 9 -3 22 1 30 11 12 15 11 16 -4 3 -10
-7 -18 -10 -18 -5 0 16 15 30 30 29 8 0 30 20 48 45 18 25 36 44 39 42 4 -1 8
4 9 12 1 8 24 43 51 77 93 118 85 103 64 130 -10 13 -21 33 -24 44 -4 16 -5
15 -6 -6 0 -15 6 -32 14 -39 20 -17 19 -24 -10 -57 l-26 -28 7 46 c8 60 -9 72
-45 33 l-26 -28 26 22 c14 12 28 22 32 22 3 0 5 -24 4 -54 -1 -30 -5 -52 -8
-50 -3 2 -11 -8 -17 -21 -6 -14 -31 -46 -54 -72 -24 -26 -37 -43 -30 -39 17
10 15 -9 -2 -23 -11 -9 -15 -9 -20 1 -3 7 -4 5 -3 -6 1 -11 -5 -20 -15 -21
-21 -4 -22 -1 -6 28 6 12 13 40 15 62 2 22 6 60 10 85 3 25 6 48 5 51 -1 4 -2
38 -4 78 -1 39 -5 66 -9 60 -5 -8 -8 -8 -13 0 -9 15 -18 14 -42 -4z m264 -437
c17 -17 15 -73 -3 -88 -35 -29 -67 34 -39 78 16 25 25 27 42 10z m-84 -30 c20
-28 20 -48 2 -48 -8 0 -16 -5 -18 -11 -3 -9 -10 -9 -26 0 -16 9 -22 21 -22 46
0 30 3 35 24 35 14 0 32 -10 40 -22z m-48 -74 c26 -7 21 -44 -6 -44 -10 0 -23
-6 -30 -14 -11 -15 -40 -11 -40 4 0 5 4 20 10 34 10 26 26 31 66 20z m84 -15
c9 -16 8 -25 -6 -40 -21 -23 -44 -9 -44 26 0 40 32 49 50 14z m-47 -101 c-7
-28 -50 -88 -63 -88 -17 0 -42 61 -36 86 4 13 19 30 34 38 15 9 23 16 17 16
-5 1 -1 5 10 9 24 10 46 -26 38 -61z m-609 -75 c3 -10 8 -36 11 -58 2 -22 9
-67 15 -100 5 -33 10 -79 10 -102 0 -39 -2 -43 -24 -43 -21 0 -27 9 -46 73
-28 89 -30 170 -7 215 20 36 33 41 41 15z m-520 -45 c-3 -4 -12 -8 -20 -8 -16
0 -15 4 -19 -80 -3 -68 -18 -120 -34 -120 -6 0 -17 15 -25 33 -13 26 -14 44
-6 91 5 32 7 63 3 69 -3 6 -1 7 5 3 6 -4 12 4 14 21 4 37 46 49 70 19 9 -11
14 -24 12 -28z m707 35 c0 -5 2 -18 3 -30 2 -13 -1 -23 -5 -23 -4 0 -5 -9 -2
-19 3 -12 -12 -52 -37 -98 -24 -43 -53 -97 -66 -121 -12 -23 -25 -39 -28 -34
-9 14 13 148 32 200 28 73 99 159 103 125z m-606 -41 c-3 -3 -16 5 -28 17
l-22 23 28 -17 c15 -10 25 -20 22 -23z m738 -23 c5 -17 9 -19 26 -9 18 9 21 8
21 -10 0 -24 9 -25 36 -5 29 22 37 18 31 -15 -5 -22 -3 -30 7 -30 23 0 25 -24
3 -47 -17 -19 -18 -25 -6 -39 14 -17 10 -21 -41 -55 -11 -8 -12 -11 -2 -15 20
-9 15 -44 -7 -44 -31 0 -51 -11 -51 -27 0 -12 -7 -14 -30 -9 -22 4 -30 2 -30
-9 0 -8 -3 -15 -6 -15 -10 0 -49 23 -56 33 -6 10 77 97 92 97 4 0 15 9 24 19
36 40 -3 103 -42 68 -10 -9 -29 -17 -43 -17 -13 -1 -35 -7 -49 -15 -35 -20
-43 -18 -30 5 6 11 17 20 25 20 19 0 19 5 -1 36 -13 19 -14 24 -3 22 7 -2 20
12 28 30 13 28 19 32 42 27 19 -4 28 -1 32 9 9 22 24 20 30 -5z m563 -76 c-6
-24 -106 -133 -122 -133 -3 0 -12 6 -20 14 -30 31 68 146 124 146 21 0 23 -3
18 -27z m-1011 -7 c17 -13 27 -27 24 -31 -4 -3 -22 8 -40 24 -40 37 -27 41 16
7z m799 -41 l19 -47 -31 -31 -31 -31 -16 37 c-18 43 -20 108 -3 125 18 18 41
-2 62 -53z m-479 25 c3 -5 -1 -10 -10 -10 -15 0 -24 -14 -29 -42 -1 -7 -19
-36 -40 -63 -47 -60 -44 -53 13 48 45 76 54 86 66 67z m145 -40 c0 -9 -9 -25
-20 -35 -20 -18 -20 -17 -20 17 0 19 3 37 6 41 11 10 34 -5 34 -23z m-50 -27
c0 -48 -162 -176 -203 -160 -17 6 -24 47 -8 47 4 0 20 18 35 41 32 47 108 99
148 99 24 0 28 -4 28 -27z m298 -33 c46 -53 46 -56 -3 -39 -32 12 -78 66 -69
81 11 17 31 6 72 -42z m157 -50 c-9 -33 -25 -52 -41 -46 -7 3 -14 0 -16 -6 -2
-6 -13 -8 -26 -4 -46 15 -14 96 43 108 27 6 47 -21 40 -52z m151 39 c12 -20
-20 -38 -84 -45 -56 -6 -62 -5 -56 10 14 36 122 64 140 35z m-853 -56 c8 -16
17 -44 21 -64 5 -31 2 -42 -20 -68 -14 -17 -34 -31 -43 -31 -30 0 -56 38 -55
81 2 60 40 92 63 52 6 -10 11 -12 11 -6 0 7 -8 18 -19 25 -14 9 -16 14 -7 24
18 21 34 16 49 -13z m813 -39 c-34 -45 -53 -89 -20 -48 15 18 15 18 4 -3 -17
-37 -27 -34 -33 8 -3 22 -13 49 -23 60 -17 18 -16 19 17 20 19 1 45 4 59 8 14
4 27 7 28 5 2 -1 -12 -24 -32 -50z m-248 34 c-6 -17 -88 -64 -127 -73 -27 -6
-31 -4 -31 14 0 24 26 40 95 56 67 17 67 17 63 3z m20 -84 c-11 -40 3 -129 25
-164 5 -10 7 -29 3 -43 -6 -25 -7 -26 -24 -9 -10 9 -17 23 -14 30 3 7 -5 12
-21 12 -16 0 -26 7 -30 20 -7 27 -25 25 -39 -5 -13 -29 -16 -30 -42 -10 -10 8
-23 12 -27 9 -5 -3 -9 0 -9 7 0 6 -7 17 -17 24 -17 13 -10 35 11 35 7 0 18 12
25 26 6 15 14 24 17 21 3 -3 0 -14 -7 -25 -16 -25 -5 -52 20 -52 23 0 68 51
106 121 36 67 24 62 -21 -8 -40 -63 -73 -103 -86 -103 -17 0 -7 39 22 78 38
53 38 67 0 22 -17 -19 -30 -29 -30 -22 0 7 -13 -2 -28 -20 -28 -30 -30 -31
-52 -15 l-23 16 28 25 c15 14 36 26 46 26 31 0 33 0 56 15 12 8 28 12 35 10 8
-3 27 8 43 25 27 29 30 29 37 11 4 -11 2 -37 -4 -57z m146 57 c25 -27 32 -84
12 -100 -23 -19 -42 -8 -65 37 l-20 39 22 21 c26 27 29 27 51 3z m-391 -61 c9
-46 -5 -69 -28 -50 -13 11 -15 23 -10 59 12 78 23 75 38 -9z m-156 27 c-5 -15
-48 -11 -59 6 -6 9 -8 9 -8 0 0 -7 -5 -13 -11 -13 -8 0 -8 5 1 15 7 8 16 13
20 10 5 -3 11 -1 15 5 9 14 48 -8 42 -23z m109 -3 c-3 -9 -6 -26 -6 -39 0 -34
-54 -40 -75 -8 -9 13 -20 23 -26 23 -6 0 1 -14 15 -31 24 -28 27 -39 30 -89 1
-24 -22 -80 -33 -80 -6 0 -23 19 -40 43 -44 62 -78 96 -106 103 -27 7 -28 8
-19 42 6 22 12 23 78 22 93 -1 129 4 134 18 2 7 15 12 29 12 19 0 24 -4 19
-16z m357 -13 c14 -69 -12 -176 -36 -152 -12 12 -23 141 -13 166 10 27 43 18
49 -14z m-346 -72 c17 -17 4 -50 -16 -39 -9 5 -24 11 -33 14 -10 3 -18 12 -18
21 0 18 50 21 67 4z m-357 -72 c0 -54 -17 -92 -67 -155 -19 -23 -33 -49 -30
-56 5 -13 -10 -36 -24 -36 -14 0 -22 81 -9 93 10 9 11 6 8 -16 -4 -18 -1 -26
6 -24 6 2 12 17 12 33 3 55 27 159 45 196 17 34 21 37 39 26 15 -10 20 -24 20
-61z m155 20 c22 -24 48 -56 58 -71 10 -14 26 -26 36 -26 19 0 51 57 51 90 0
11 6 20 13 20 18 -1 47 -25 47 -40 0 -8 8 -10 26 -6 23 6 25 5 19 -16 -4 -13
-13 -30 -21 -38 -12 -12 -16 -12 -30 5 -13 17 -15 17 -10 3 4 -13 0 -18 -12
-18 -10 0 -24 -6 -30 -12 -7 -7 -31 -17 -55 -23 -48 -12 -84 -56 -93 -117 l-7
-39 -58 5 c-32 3 -63 7 -68 11 -5 3 -28 -2 -50 -11 -41 -16 -97 -12 -86 6 3 4
26 16 51 26 39 15 47 15 55 3 7 -11 9 -11 9 4 0 9 7 17 16 17 11 0 14 -6 9
-22 -6 -18 -5 -20 5 -11 7 6 10 19 6 29 -5 13 -14 15 -44 10 -69 -13 -82 -14
-82 -6 0 5 8 15 19 22 29 21 81 121 82 159 l1 34 8 -29 c5 -15 12 -52 16 -82
3 -30 12 -58 18 -62 19 -11 26 -38 13 -51 -8 -8 -8 -11 0 -11 6 0 18 6 25 13
7 7 22 16 32 20 10 4 16 10 13 13 -3 3 -15 0 -27 -6 -27 -14 -37 -6 -20 16 8
9 23 14 37 11 18 -3 21 -1 13 8 -6 7 -7 16 -2 19 14 8 2 107 -19 155 -11 24
-22 42 -25 38 -3 -3 2 -20 12 -39 26 -48 25 -145 -1 -164 -35 -26 -49 -13 -56
46 -4 30 -11 75 -17 99 -9 38 -8 47 6 58 30 22 74 7 117 -40z m260 33 c11 -18
-6 -50 -26 -50 -13 0 -19 7 -19 24 0 30 32 48 45 26z m492 -66 c-3 -4 -18 -3
-33 0 -25 7 -26 8 -8 21 16 12 21 12 33 0 8 -8 12 -17 8 -21z m-457 -3 c5 -11
10 -29 10 -41 0 -14 4 -19 13 -14 6 4 1 -5 -13 -20 -14 -15 -26 -22 -28 -16
-3 7 -14 3 -28 -11 -13 -12 -24 -17 -24 -11 0 7 -9 6 -27 -3 -30 -16 -47 -7
-41 21 5 28 38 31 38 4 0 -12 4 -18 11 -15 6 4 8 13 5 21 -3 8 -4 14 -2 14 3
0 13 3 23 7 16 6 16 5 4 -10 -8 -10 -12 -19 -10 -21 2 -2 13 8 23 22 11 14 14
22 8 18 -7 -4 -12 -3 -12 3 0 21 21 21 28 0 5 -13 11 -18 15 -12 4 6 0 16 -8
23 -17 14 -21 60 -5 60 5 0 14 -9 20 -19z m-554 -48 c-3 -26 -13 -58 -22 -72
l-17 -24 -13 29 c-8 20 -13 23 -13 11 -1 -10 4 -27 9 -38 9 -16 7 -19 -10 -19
-11 0 -20 -5 -20 -11 0 -5 4 -8 10 -4 5 3 17 -6 26 -20 21 -33 7 -71 -31 -81
-34 -8 -49 7 -41 42 5 18 10 24 15 16 4 -7 7 2 7 21 -1 23 -5 33 -13 30 -7 -3
-13 1 -13 9 0 8 -5 19 -11 25 -15 15 -21 94 -9 113 7 11 10 6 10 -20 0 -19 4
-41 9 -49 14 -22 60 2 96 49 17 22 32 39 34 40 2 0 1 -21 -3 -47z m674 26 c0
-15 5 -19 15 -15 9 3 15 0 15 -9 0 -8 9 -15 20 -15 25 0 26 -22 2 -43 -23 -21
-61 -12 -55 12 6 22 -31 35 -47 16 -15 -19 -1 -48 21 -42 15 4 19 0 19 -22 0
-41 -19 -54 -40 -28 l-17 21 -13 -24 -13 -24 -19 37 c-10 20 -25 37 -34 37 -8
0 -12 5 -9 10 4 7 13 6 27 -1 15 -8 19 -8 13 1 -4 7 2 18 15 27 15 11 20 23
17 39 -4 24 -3 24 19 9 29 -19 34 -19 34 1 0 8 4 12 10 9 6 -3 7 1 4 9 -3 9
-1 16 5 16 6 0 11 -9 11 -21z m341 1 c13 -7 19 -21 19 -45 0 -18 4 -37 10 -40
5 -3 36 8 67 25 32 16 68 30 79 30 37 0 38 -30 3 -67 -18 -18 -29 -36 -25 -40
12 -13 118 -42 132 -36 8 3 14 0 14 -5 0 -20 -29 -40 -83 -57 -39 -12 -53 -22
-54 -36 -1 -11 2 -17 6 -14 11 6 91 -52 91 -65 0 -6 -26 -10 -58 -10 -52 0
-82 -11 -82 -31 0 -3 13 -23 30 -44 16 -20 28 -41 25 -45 -3 -5 -31 -2 -63 5
-80 18 -110 17 -118 -7 -8 -27 -64 -89 -74 -83 -5 3 -11 28 -15 55 -4 28 -11
50 -17 50 -5 0 -30 -20 -55 -45 -25 -25 -51 -44 -57 -42 -6 2 -12 31 -14 66
-3 71 -3 71 -95 24 -27 -13 -51 -22 -54 -20 -2 3 10 21 26 40 17 19 31 38 31
43 0 4 12 20 26 35 l26 27 -72 7 c-83 8 -82 16 10 61 33 16 60 34 60 39 0 6
-11 26 -24 45 -13 19 -26 45 -30 58 -7 22 -6 21 40 -8 26 -16 52 -30 57 -30 5
0 8 21 7 48 -3 77 -1 102 9 102 5 0 33 -25 62 -55 29 -30 56 -55 60 -55 4 0 5
15 2 33 -7 48 20 97 53 97 14 0 34 -5 45 -10z m225 -27 c-6 -15 -9 -15 -16 -3
-6 9 -5 17 3 22 16 10 21 2 13 -19z m-1628 -15 c-6 -18 -28 -21 -28 -4 0 9 7
16 16 16 9 0 14 -5 12 -12z m26 -10 c-10 -16 -11 -58 -2 -58 8 0 12 15 9 38
-1 6 5 12 14 12 9 0 14 -4 10 -9 -3 -5 8 -9 24 -9 30 1 50 -13 69 -48 11 -21
11 -21 -40 -62 -14 -11 -20 -10 -38 8 -30 30 -54 22 -58 -18 -4 -37 -2 -36
-62 -18 -26 8 -46 20 -48 30 -5 23 24 20 61 -6 l32 -21 -21 23 c-22 22 -22 22
-3 41 11 11 24 17 29 14 20 -12 9 13 -10 26 l-21 14 22 28 c22 27 47 38 33 15z
m-56 -20 c-6 -17 -36 -34 -45 -24 -4 4 1 14 11 22 24 17 39 18 34 2z m1192
-45 c0 -27 -1 -27 -35 -11 l-25 11 22 24 c24 26 38 17 38 -24z m-960 22 c0 -8
6 -15 13 -15 12 -1 52 -48 45 -55 -2 -2 -22 1 -45 7 -33 8 -44 16 -52 41 -14
39 -15 37 14 37 16 0 25 -6 25 -15z m556 -4 c-20 -22 -56 -112 -56 -140 0 -28
54 -81 82 -81 14 0 33 -9 42 -19 17 -18 49 -121 41 -129 -10 -10 -26 12 -22
29 3 11 2 17 -2 14 -5 -2 -13 7 -19 20 -7 14 -18 25 -25 25 -15 0 -55 40 -41
41 5 0 -2 5 -15 10 -13 5 -26 8 -28 6 -7 -8 14 -52 23 -47 5 3 10 -12 12 -32
2 -22 -1 -38 -7 -38 -6 0 -11 -9 -11 -20 0 -47 -59 -25 -60 23 0 10 -6 20 -14
23 -8 3 -13 11 -11 17 11 37 13 77 5 77 -6 0 -10 -13 -10 -28 0 -22 -10 -35
-45 -60 -25 -17 -45 -37 -45 -44 0 -9 -4 -9 -11 2 -9 12 -10 12 -5 -4 7 -21
-20 -70 -34 -61 -11 7 8 77 24 88 8 5 8 9 -1 15 -6 4 -10 23 -9 42 2 19 4 45
5 58 0 14 5 21 12 16 8 -4 10 -26 6 -61 -3 -31 -2 -51 4 -48 5 4 6 -2 2 -12
-3 -10 -2 -14 2 -10 5 4 9 20 10 35 0 15 6 26 13 25 6 -2 9 4 6 12 -4 8 -10
15 -15 15 -5 0 -9 10 -9 23 0 18 2 19 10 7 5 -8 10 -10 10 -4 0 7 -12 20 -27
29 -25 17 -37 20 -88 24 -19 2 -19 2 -1 12 10 6 46 10 80 9 33 -1 70 -2 81 -2
11 0 14 -2 7 -5 -6 -3 -9 -9 -6 -14 10 -17 33 11 40 50 4 20 13 48 20 62 7 15
10 30 6 34 -4 3 0 5 8 3 8 -2 14 3 12 10 -1 8 1 11 6 8 4 -2 14 -1 22 5 8 5
21 9 29 9 11 0 10 -4 -3 -19z m54 -38 c0 -17 -40 -27 -54 -13 -8 8 -7 15 7 24
9 7 17 19 17 27 0 16 29 -21 30 -38z m-836 28 c9 -14 -4 -41 -20 -41 -15 0
-17 10 -8 34 7 18 20 21 28 7z m895 -23 c-2 -13 0 -29 4 -36 11 -17 -1 -52
-19 -52 -9 0 -14 11 -14 33 0 18 -5 38 -11 44 -15 15 -3 33 22 33 15 0 20 -6
18 -22z m65 6 c4 -9 4 -19 1 -22 -8 -8 -55 16 -55 28 0 17 47 11 54 -6z m-110
-47 c-13 -22 -37 -47 -46 -47 -16 0 -8 29 14 49 22 21 44 19 32 -2z m-634 -41
c0 -45 -14 -63 -34 -47 -19 16 -22 87 -3 94 20 7 37 -14 37 -47z m-101 -5 c15
-23 15 -23 -19 -16 -19 4 -38 9 -42 12 -10 5 -10 37 -1 46 9 9 43 -14 62 -42z
m161 4 c0 -27 -5 -35 -27 -43 -19 -7 -22 -11 -10 -11 12 -1 16 -5 11 -13 -4
-7 2 -4 14 6 25 21 26 19 12 -19 l-10 -26 -29 22 c-24 18 -28 26 -20 40 5 10
10 31 11 46 2 38 5 42 28 36 15 -4 20 -14 20 -38z m-122 -4 c2 -31 -9 -44 -47
-56 -18 -5 -22 -4 -16 5 5 9 4 11 -4 6 -6 -4 -9 -11 -7 -14 2 -4 -13 -6 -35
-4 -21 2 -39 6 -39 8 0 12 63 34 76 26 30 -17 83 5 54 23 -10 6 -3 35 9 35 4
0 8 -13 9 -29z m-359 -13 c-14 -6 -31 -23 -38 -39 -13 -31 -31 -39 -31 -14 0
7 8 19 18 24 9 6 14 11 10 12 -8 1 -20 5 -35 8 -18 5 35 20 67 19 34 0 34 0 9
-10z m638 -32 l26 -25 -24 -6 c-13 -3 -34 -7 -46 -8 -13 0 -23 -2 -23 -3 0 0
7 -15 15 -31 13 -26 13 -34 2 -56 -11 -20 -17 -23 -25 -15 -7 7 -12 8 -12 3 0
-6 -4 -4 -9 4 -6 9 -4 22 5 37 8 12 16 44 18 70 4 59 2 54 26 54 12 0 33 -11
47 -24z m-257 -18 c0 -17 -56 -48 -86 -48 -31 0 -24 14 20 41 36 22 66 25 66
7z m168 -20 c2 -15 -4 -40 -13 -57 -16 -33 -45 -42 -45 -15 0 14 2 15 18 3 15
-12 15 -11 -1 8 -26 30 -14 95 17 91 14 -2 22 -11 24 -30z m185 -45 c-3 -32
-8 -61 -12 -65 -11 -12 -65 -22 -57 -10 4 6 -2 8 -14 5 -11 -3 -23 -9 -26 -14
-3 -5 -12 -9 -20 -9 -18 0 -18 34 1 50 11 9 12 17 5 30 -16 29 -2 47 43 57 85
21 86 20 80 -44z m305 -61 c2 -7 -2 -10 -12 -6 -9 3 -16 11 -16 16 0 13 23 5
28 -10z m-497 -20 c0 -15 1 -15 8 1 6 17 8 17 25 -2 20 -22 51 -28 61 -11 12
19 25 10 25 -17 -1 -30 -28 -137 -29 -114 -1 8 -3 12 -6 9 -9 -8 6 -38 16 -32
5 3 9 0 9 -5 0 -26 -35 -5 -44 26 -4 13 -23 41 -42 64 -45 54 -55 74 -48 93 7
19 24 11 25 -12z m437 -79 c-2 -10 -11 -19 -21 -21 -16 -3 -17 -1 -7 17 13 25
33 28 28 4z m235 -98 c-15 -19 -29 -32 -31 -30 -6 5 41 64 51 64 4 1 -5 -15
-20 -34z"/>
<path d="M2052 2839 c6 -16 12 -28 14 -26 5 5 -13 57 -20 57 -3 0 0 -14 6 -31z"/>
<path d="M2165 2935 c-9 -26 -15 -48 -12 -51 3 -3 12 16 21 42 21 62 14 68 -9
9z"/>
<path d="M2195 2745 c-16 -14 -25 -25 -19 -25 6 0 21 11 34 25 30 32 24 31
-15 0z"/>
<path d="M2185 2625 c11 -8 31 -24 44 -37 22 -22 23 -22 12 -2 -5 12 -21 29
-35 38 -31 20 -49 21 -21 1z"/>
<path d="M2091 2549 c-1 -8 6 -24 15 -35 15 -19 15 -19 6 1 -5 11 -12 27 -15
35 -5 13 -6 13 -6 -1z"/>
<path d="M2359 2512 c-16 -17 -39 -56 -39 -66 0 -3 5 -6 10 -6 6 0 10 9 10 19
0 20 29 56 38 47 2 -3 -1 -14 -9 -23 -12 -16 -12 -17 2 -6 9 7 19 10 22 6 12
-12 7 13 -5 29 -12 15 -14 15 -29 0z"/>
<path d="M2051 2388 c-1 -32 8 -58 21 -58 5 0 6 5 2 12 -4 6 -11 25 -15 42 -7
30 -7 30 -8 4z"/>
<path d="M2143 2295 c-10 -10 -9 -14 2 -18 7 -3 16 1 19 8 7 20 -6 26 -21 10z"/>
<path d="M2520 2388 c0 -7 -3 -24 -6 -38 l-5 -25 15 25 c18 29 20 50 6 50 -5
0 -10 -6 -10 -12z"/>
<path d="M2906 2353 c-4 -9 -2 -21 4 -27 7 -7 10 -2 10 17 0 31 -5 34 -14 10z"/>
<path d="M2780 2351 c0 -5 14 -14 30 -20 17 -5 30 -8 30 -6 0 3 -13 11 -30 20
-16 9 -30 11 -30 6z"/>
<path d="M2700 2282 c0 -14 41 -26 67 -19 11 3 6 5 -12 6 -17 0 -36 6 -43 13
-9 9 -12 9 -12 0z"/>
<path d="M2880 2283 c-47 -17 -65 -69 -37 -107 7 -9 31 -20 54 -23 39 -5 43
-3 62 28 27 43 27 85 2 99 -21 11 -56 12 -81 3z m58 -9 c17 -5 22 -14 22 -38
0 -17 -7 -42 -16 -54 -16 -23 -44 -30 -44 -11 0 5 -5 7 -11 4 -14 -9 -38 24
-39 52 0 14 10 28 28 37 32 18 30 18 60 10z"/>
<path d="M3045 2260 c-28 -7 -28 -8 -5 -9 14 0 32 4 40 9 17 11 8 11 -35 0z"/>
<path d="M2750 2200 c-38 -8 -91 -29 -75 -29 17 0 104 24 111 32 4 4 5 6 3 6
-2 -1 -20 -5 -39 -9z"/>
<path d="M3020 2170 c-13 -9 -13 -10 0 -10 8 0 22 5 30 10 13 9 13 10 0 10 -8
0 -22 -5 -30 -10z"/>
<path d="M2751 2115 c-17 -15 -31 -31 -31 -36 0 -5 8 -1 19 10 10 10 27 23 37
29 10 6 16 13 13 17 -4 3 -21 -6 -38 -20z"/>
<path d="M2891 2131 c-1 -8 -9 -24 -18 -35 -18 -21 -18 -21 5 -2 22 19 22 19
22 0 0 -11 -4 -34 -9 -52 -5 -17 -6 -32 -1 -32 12 0 20 27 19 63 0 33 -17 84
-18 58z"/>
<path d="M2817 2083 c-26 -25 -47 -50 -47 -55 0 -6 23 13 52 41 28 28 49 53
47 56 -3 2 -26 -16 -52 -42z"/>
<path d="M2958 2104 c6 -11 18 -28 26 -39 15 -18 15 -17 2 15 -8 19 -19 36
-26 38 -9 3 -9 -1 -2 -14z"/>
<path d="M1587 2370 c-9 -11 -13 -20 -8 -20 11 0 35 29 29 35 -2 2 -12 -4 -21
-15z"/>
<path d="M2197 2213 c-12 -12 -7 -43 7 -43 18 0 26 -21 27 -73 l1 -42 8 35 c5
19 4 42 -1 51 -5 10 -6 31 -3 48 6 26 3 31 -13 31 -11 0 -23 -3 -26 -7z"/>
<path d="M1962 2148 c-15 -15 -16 -65 0 -74 8 -5 9 -2 5 9 -5 14 -2 16 18 11
22 -6 25 -3 25 24 0 18 -6 32 -16 36 -20 8 -18 8 -32 -6z m38 -34 c0 -12 -4
-13 -21 -3 -17 9 -19 13 -8 19 16 11 29 4 29 -16z"/>
<path d="M1932 1960 c0 -19 2 -27 5 -17 2 9 2 25 0 35 -3 9 -5 1 -5 -18z"/>
<path d="M2431 3808 c-1 -9 3 -19 8 -22 5 -3 7 -16 3 -28 -3 -13 -1 -19 6 -15
11 8 10 20 -6 57 -7 17 -11 20 -11 8z"/>
<path d="M2470 3772 c0 -6 11 -28 25 -48 14 -20 25 -30 25 -22 0 8 -11 29 -25
48 -14 19 -25 29 -25 22z"/>
<path d="M3367 3746 c5 -32 3 -36 -15 -36 -11 0 -24 5 -27 10 -10 15 -25 12
-19 -4 7 -19 58 -53 52 -35 -2 7 4 21 14 31 22 22 23 41 3 58 -12 10 -13 6 -8
-24z"/>
<path d="M1397 3729 c-15 -23 -26 -46 -24 -52 2 -6 17 13 35 41 38 61 29 69
-11 11z"/>
<path d="M1158 3749 c-4 -9 -9 -38 -12 -65 l-6 -49 15 48 c16 48 18 103 3 66z"/>
<path d="M1470 3729 c0 -8 7 -41 15 -74 8 -33 15 -89 16 -125 0 -36 5 -76 9
-90 15 -43 0 176 -16 237 -15 58 -24 78 -24 52z"/>
<path d="M1880 3727 c-8 -7 -22 -21 -30 -32 -15 -20 -14 -20 8 -1 17 14 22 16
22 5 1 -10 5 -8 15 5 25 34 16 48 -15 23z"/>
<path d="M2887 3712 c-54 -22 -67 -31 -65 -46 4 -26 20 -30 43 -11 19 16 19
16 -2 6 -15 -8 -24 -8 -28 -1 -6 9 92 60 115 60 6 0 10 5 10 10 0 6 -1 10 -2
9 -2 0 -34 -12 -71 -27z"/>
<path d="M2973 3703 c-10 -10 -29 -17 -42 -15 -13 2 -27 0 -32 -5 -6 -6 3 -8
23 -6 l33 5 -34 -19 c-19 -10 -37 -24 -39 -30 -3 -12 72 32 123 71 18 13 18
15 3 16 -10 0 -26 -8 -35 -17z"/>
<path d="M860 3688 c-14 -6 -20 -12 -14 -14 15 -6 60 11 48 18 -5 3 -20 1 -34
-4z"/>
<path d="M1422 3661 c-7 -21 -11 -81 -10 -132 l1 -94 7 107 c5 73 12 115 24
133 13 20 14 25 3 25 -8 0 -19 -17 -25 -39z"/>
<path d="M1896 3681 c-18 -7 -18 -8 -3 -14 9 -3 17 -2 17 3 0 5 8 11 18 13 11
3 12 5 2 5 -8 0 -24 -3 -34 -7z"/>
<path d="M1247 3673 c-4 -3 -7 -18 -6 -32 1 -26 1 -25 10 3 9 31 7 41 -4 29z"/>
<path d="M1609 3667 c-20 -15 -33 -48 -16 -41 13 5 41 44 35 49 -2 2 -10 -2
-19 -8z"/>
<path d="M1848 3658 c-19 -19 -13 -24 11 -9 7 5 12 13 10 18 -2 5 -12 1 -21
-9z"/>
<path d="M2299 3656 c14 -15 26 -26 28 -26 9 0 -24 40 -37 45 -8 4 -4 -5 9
-19z"/>
<path d="M2523 3635 c0 -22 2 -30 4 -17 2 12 2 30 0 40 -3 9 -5 -1 -4 -23z"/>
<path d="M3281 3666 c12 -13 67 -24 80 -15 10 6 9 8 -6 7 -11 0 -33 3 -50 7
-16 4 -27 5 -24 1z"/>
<path d="M1286 3638 c10 -12 29 -34 42 -48 26 -29 55 -119 76 -235 8 -44 15
-72 15 -62 1 9 7 17 14 17 9 0 9 2 0 8 -6 4 -16 30 -21 57 -36 179 -38 186
-105 258 -31 32 -49 37 -21 5z"/>
<path d="M2722 3606 c-33 -24 -63 -50 -68 -57 -8 -13 -1 -9 64 41 59 44 113
32 62 -15 -11 -10 -17 -21 -14 -26 6 -10 -155 -129 -175 -129 -11 0 -12 -3 -4
-11 9 -9 24 -6 60 11 26 13 54 25 62 26 8 2 21 10 30 19 15 15 13 15 -23 0
-21 -9 -40 -14 -42 -12 -2 2 21 21 51 42 30 20 55 41 55 46 0 21 2 25 23 47
18 20 19 24 7 32 -8 5 -19 10 -23 10 -5 0 -5 5 -2 10 11 18 -2 11 -63 -34z"/>
<path d="M1550 3601 c-5 -11 -10 -29 -10 -41 0 -12 -3 -19 -8 -16 -4 2 -5 -14
-3 -37 4 -41 4 -41 15 23 6 36 15 71 19 78 5 6 6 12 3 12 -3 0 -10 -9 -16 -19z"/>
<path d="M1716 3595 c-11 -8 -16 -15 -11 -15 5 0 -1 -9 -13 -20 -16 -15 -22
-32 -21 -58 l1 -37 10 37 c5 21 23 49 40 63 16 14 24 25 18 25 -6 0 -8 5 -5
10 8 13 4 12 -19 -5z"/>
<path d="M1095 3580 c3 -5 14 -10 24 -10 24 0 70 -41 54 -47 -7 -3 -13 -9 -13
-14 0 -6 5 -7 11 -4 5 4 31 -15 55 -42 54 -56 48 -41 -14 41 -26 33 -59 64
-78 72 -40 17 -47 17 -39 4z"/>
<path d="M1641 3568 c-1 -10 3 -18 8 -18 5 0 15 8 22 18 13 15 12 16 -3 4 -13
-10 -17 -10 -21 0 -4 8 -6 7 -6 -4z"/>
<path d="M2387 3524 c15 -30 29 -51 31 -46 4 13 -38 102 -48 102 -6 0 2 -25
17 -56z"/>
<path d="M1800 3551 c0 -10 8 -21 18 -23 17 -5 17 -2 8 18 -13 29 -26 31 -26
5z"/>
<path d="M3081 3543 c55 -63 63 -103 24 -121 -14 -6 -25 -16 -25 -22 0 -5 -5
-10 -11 -10 -8 0 -10 16 -5 50 5 37 2 58 -9 81 -21 39 -29 33 -14 -10 18 -52
5 -137 -36 -230 -40 -91 -47 -136 -25 -176 12 -23 11 -27 -17 -53 -16 -15 -33
-36 -37 -47 -4 -11 11 0 32 24 l38 45 27 -20 c17 -11 25 -26 23 -36 -2 -10 0
-18 5 -18 5 0 -14 -22 -43 -50 -29 -27 -48 -50 -41 -50 7 0 17 9 23 21 11 19
12 19 24 3 12 -16 13 -16 19 0 4 10 3 15 -3 11 -26 -16 -6 17 28 46 20 17 32
29 25 25 -6 -3 -14 -2 -17 3 -7 11 194 122 227 125 13 2 32 8 43 15 15 10 15
11 2 7 -53 -18 -54 -18 -34 -4 10 7 31 23 46 35 34 28 63 39 124 47 49 7 92
23 83 32 -4 5 -74 -10 -137 -28 -19 -6 -56 -23 -82 -38 -25 -16 -49 -26 -54
-22 -4 4 -4 1 0 -5 4 -8 1 -13 -8 -13 -8 0 -16 -4 -18 -9 -3 -9 -190 -111
-203 -111 -3 0 -3 5 1 12 4 6 3 8 -2 5 -13 -8 -26 2 -53 41 -19 27 -22 41 -16
77 3 26 13 49 23 54 9 5 14 13 10 16 -4 4 -1 14 7 21 7 8 21 35 30 61 10 27
32 61 49 78 l31 29 8 -74 c5 -47 14 -81 24 -90 14 -13 15 -13 8 5 -4 11 -9 39
-12 61 l-5 42 78 42 c127 67 178 53 119 -33 -18 -28 -25 -49 -23 -80 l1 -42 4
37 c4 31 8 37 31 40 17 2 35 15 49 37 l23 34 0 -37 c0 -30 -9 -46 -47 -87 -30
-32 -49 -46 -53 -38 -6 8 -9 8 -14 0 -4 -6 -4 -15 -1 -21 3 -5 1 -10 -6 -10
-7 0 -10 -3 -6 -6 3 -4 34 14 68 40 66 50 105 58 135 29 17 -17 18 -17 11 0
-3 9 -2 17 3 17 6 0 10 -5 10 -12 0 -6 3 -8 6 -5 4 4 1 14 -7 23 -10 12 -23
15 -55 10 l-43 -5 6 34 c6 40 -4 108 -16 100 -5 -2 -11 -18 -14 -34 -4 -17
-16 -35 -27 -41 -31 -17 -35 -6 -10 28 56 76 -13 107 -116 52 -31 -16 -60 -27
-63 -24 -3 4 0 9 7 11 17 6 15 42 -2 49 -8 3 -24 0 -36 -6 -18 -10 -24 -9 -31
1 -13 20 -11 29 6 29 8 0 15 8 14 18 0 10 -3 12 -6 5 -7 -19 -21 -16 -49 12
-34 34 -54 32 -23 -2z m119 -77 c0 -29 -20 -66 -35 -66 -21 0 -19 49 3 66 22
17 32 17 32 0z"/>
<path d="M1060 3550 c-1 -34 92 -159 135 -182 20 -11 20 -11 1 11 -11 11 -14
21 -8 21 6 0 -2 14 -18 31 -17 19 -26 38 -22 47 3 10 1 13 -7 8 -7 -4 -9 -17
-6 -29 6 -20 5 -20 -14 3 -11 14 -29 43 -40 65 -11 22 -20 33 -21 25z"/>
<path d="M1251 3550 c0 -8 5 -40 12 -70 8 -31 12 -60 10 -65 -2 -6 13 -28 32
-49 19 -22 35 -44 35 -50 0 -5 7 -18 17 -28 9 -10 14 -20 12 -23 -9 -8 -49 7
-49 19 0 6 -43 31 -95 56 -52 24 -95 47 -95 51 0 4 -12 5 -27 2 -16 -3 -38 -6
-50 -6 -13 1 -20 -3 -17 -8 3 -5 10 -9 15 -9 5 0 42 -18 81 -40 39 -22 73 -39
75 -36 2 2 -29 23 -69 46 -62 35 -68 41 -38 35 19 -3 78 -31 130 -63 118 -71
120 -71 150 -55 14 7 21 13 15 13 -9 0 -21 15 -71 95 -10 17 -17 34 -16 38 1
5 -1 6 -6 3 -5 -3 -18 32 -30 77 -11 45 -20 75 -21 67z"/>
<path d="M1577 3523 c-12 -19 -46 -127 -42 -131 3 -3 5 -3 5 0 0 3 11 35 24
72 22 59 26 81 13 59z"/>
<path d="M2817 3496 c-52 -14 -81 -32 -32 -20 56 13 110 32 95 32 -8 1 -36 -5
-63 -12z"/>
<path d="M2967 3493 c-3 -5 -7 -37 -10 -73 -7 -73 -2 -63 11 23 9 55 8 66 -1
50z"/>
<path d="M1050 3453 c0 -12 5 -25 10 -28 13 -8 13 15 0 35 -8 12 -10 11 -10
-7z"/>
<path d="M1610 3412 c-34 -65 -90 -146 -102 -151 -7 -2 -9 3 -5 12 20 51 26
97 18 118 l-10 24 -2 -25 c-1 -14 -3 -36 -4 -50 -1 -14 -5 -38 -8 -55 -6 -24
-3 -33 13 -43 17 -10 20 -10 20 3 0 15 46 95 60 105 9 6 51 102 47 106 -1 2
-14 -18 -27 -44z"/>
<path d="M1923 3425 c0 -22 2 -30 4 -17 2 12 2 30 0 40 -3 9 -5 -1 -4 -23z"/>
<path d="M1650 3395 c-6 -8 -10 -20 -7 -27 4 -8 6 -7 6 4 1 9 9 22 19 27 9 6
12 11 6 11 -6 0 -17 -7 -24 -15z"/>
<path d="M1993 3400 c2 -8 9 -15 15 -14 7 1 38 2 70 4 l57 3 -50 6 c-27 4 -56
2 -63 -3 -9 -7 -17 -5 -24 5 -8 12 -9 12 -5 -1z"/>
<path d="M1826 3379 c-14 -11 -41 -25 -59 -30 -17 -5 -52 -25 -76 -44 -51 -41
-48 -46 5 -10 20 14 40 22 45 19 5 -3 9 2 9 10 0 11 9 16 26 16 14 0 39 10 56
21 21 15 33 18 40 11 8 -8 -5 -26 -42 -61 -30 -28 -58 -51 -64 -51 -5 0 -17
-6 -25 -14 -9 -8 -30 -22 -46 -30 -22 -12 -25 -16 -11 -16 15 0 16 -3 6 -15
-7 -9 -8 -15 -2 -15 9 0 17 12 21 35 1 6 12 15 23 21 16 9 32 7 72 -8 39 -14
46 -15 32 -3 -11 8 -28 15 -38 15 -19 0 -21 19 -3 32 16 12 22 9 28 -9 2 -10
24 -29 48 -42 42 -23 43 -23 25 -2 -11 11 -24 21 -30 21 -6 0 -19 11 -28 24
-17 24 -17 25 17 59 62 62 37 118 -29 66z"/>
<path d="M980 3381 c0 -10 49 -55 54 -50 2 2 -9 16 -25 30 -16 15 -29 23 -29
20z"/>
<path d="M1954 3375 c-26 -18 -15 -26 15 -11 13 7 19 16 14 19 -6 4 -19 0 -29
-8z"/>
<path d="M1049 3360 c0 -3 -2 -13 -4 -23 -2 -12 14 -27 60 -52 87 -49 153 -71
168 -56 9 9 8 10 -7 5 -13 -5 -17 -4 -12 4 4 7 2 10 -6 7 -17 -6 -124 47 -121
61 2 10 -4 12 -46 16 -11 1 -18 5 -16 8 2 3 0 12 -6 20 -5 8 -9 13 -10 10z"/>
<path d="M2911 3269 c-36 -86 -39 -121 -3 -41 41 90 52 122 45 122 -5 0 -23
-36 -42 -81z"/>
<path d="M1953 3335 c4 -5 41 -8 83 -7 69 2 75 0 69 -16 -4 -9 -10 -28 -12
-42 -3 -14 -14 -32 -25 -40 -19 -16 -19 -16 2 -43 20 -26 23 -26 50 -12 38 20
40 19 41 -7 1 -22 1 -22 8 2 4 15 1 38 -10 60 -9 19 -19 42 -23 50 -3 8 -3 0
0 -19 5 -29 4 -33 -11 -28 -9 4 -19 7 -21 7 -8 0 -4 26 9 53 19 42 39 31 60
-33 4 -12 6 -11 6 2 1 10 16 25 34 35 35 18 38 19 81 21 16 1 27 4 25 6 -8 8
-374 19 -366 11z m269 -24 c-12 -7 -62 -4 -62 5 0 2 17 4 38 4 23 0 32 -3 24
-9z m-68 -98 c6 -14 -48 -35 -69 -27 -15 6 -20 26 -9 37 10 10 74 2 78 -10z"/>
<path d="M2495 3313 c-4 -12 -19 -26 -33 -31 -14 -4 -21 -11 -16 -15 15 -9 68
37 61 54 -4 10 -7 8 -12 -8z"/>
<path d="M1971 3303 c3 -27 -12 -74 -22 -67 -5 3 -6 -1 -3 -9 3 -8 1 -17 -3
-20 -5 -3 -8 -21 -6 -39 1 -18 5 -72 7 -121 3 -48 9 -94 14 -103 9 -15 8 26
-2 118 -1 15 1 25 6 22 10 -7 10 -2 -3 52 -10 38 -9 51 10 93 23 54 27 91 10
91 -5 0 -9 -8 -8 -17z"/>
<path d="M2050 3310 c-8 -5 -10 -10 -5 -11 6 0 1 -4 -10 -9 -18 -8 -17 -9 8
-9 15 -1 27 1 27 3 0 2 3 11 6 20 7 18 -4 20 -26 6z"/>
<path d="M2325 3300 c-10 -11 -43 -32 -72 -46 -30 -14 -53 -28 -50 -30 3 -3
19 2 37 11 32 16 47 15 36 -3 -3 -5 -19 -12 -35 -15 -29 -6 -50 -34 -25 -34 7
0 11 4 8 9 -5 7 18 12 39 9 4 0 7 3 7 8 0 5 21 32 46 60 25 28 42 51 36 51 -5
0 -17 -9 -27 -20z"/>
<path d="M2529 3311 c12 -8 51 -4 51 5 0 2 -15 4 -32 4 -23 0 -29 -3 -19 -9z"/>
<path d="M2936 3229 c-15 -45 -25 -83 -23 -85 2 -2 16 32 32 76 15 45 25 83
22 86 -2 3 -17 -32 -31 -77z"/>
<path d="M1440 3276 c0 -8 -8 -17 -17 -19 -14 -4 -12 -5 5 -6 16 -1 22 5 22
19 0 11 -2 20 -5 20 -3 0 -5 -6 -5 -14z"/>
<path d="M2403 3265 c-9 -10 -13 -48 -12 -122 1 -83 3 -98 9 -63 4 25 5 62 2
82 -5 41 4 91 16 84 4 -2 8 4 8 15 0 22 -6 24 -23 4z"/>
<path d="M1377 3219 c-4 -14 -10 -18 -19 -13 -7 4 -4 -2 6 -14 11 -12 14 -22
8 -22 -6 0 -14 5 -17 10 -4 6 -10 8 -15 5 -5 -3 -17 6 -28 20 -16 20 -22 23
-29 12 -4 -8 -32 -16 -63 -20 -30 -3 -82 -17 -115 -33 -33 -15 -63 -26 -67
-26 -5 1 -8 -2 -8 -8 0 -5 -16 -16 -35 -24 -34 -15 -47 -29 -22 -25 6 1 24 -3
40 -9 21 -9 41 -8 90 4 34 9 72 18 84 21 12 3 24 11 27 19 6 15 -9 19 -18 5
-7 -11 -132 -40 -168 -39 -34 1 -36 13 -5 23 12 4 24 8 27 10 3 1 14 5 25 9
11 4 27 12 35 17 52 31 76 40 132 48 52 7 66 6 80 -7 20 -17 8 -42 -21 -42
-13 1 -13 3 4 17 18 14 18 15 2 9 -10 -3 -21 -6 -23 -6 -2 0 -4 -6 -4 -13 0
-7 -29 -32 -65 -56 -35 -24 -82 -63 -104 -87 -22 -25 -42 -44 -44 -42 -3 2
-14 -6 -26 -16 -18 -16 -21 -17 -21 -3 0 26 -17 28 -53 7 l-35 -21 -5 21 c-6
23 -49 28 -69 7 -7 -8 -19 -13 -28 -12 -8 1 -9 0 -3 -2 8 -3 -9 -25 -40 -55
-28 -28 -41 -42 -27 -32 14 11 36 29 49 42 13 12 36 25 50 28 14 3 34 9 44 15
13 7 17 5 17 -6 0 -21 17 -19 50 5 l29 20 3 -22 c2 -14 9 -22 18 -19 8 2 20 4
27 4 7 0 14 6 17 14 3 7 18 13 33 14 15 0 22 3 15 6 -20 8 108 125 173 159 30
16 55 32 55 37 0 4 11 7 25 7 27 0 51 -33 39 -53 -6 -9 -4 -9 8 1 13 10 17 10
22 -3 3 -9 11 -13 17 -9 8 4 -1 19 -25 41 -34 33 -40 47 -37 86 3 24 -6 21
-12 -4z m-482 -269 c-3 -5 -13 -10 -21 -10 -8 0 -12 5 -9 10 3 6 13 10 21 10
8 0 12 -4 9 -10z"/>
<path d="M1982 3210 c0 -14 3 -34 8 -45 9 -20 9 -20 8 0 0 11 -4 31 -8 45 l-8
25 0 -25z"/>
<path d="M2431 3220 c0 -8 4 -24 9 -35 5 -13 9 -14 9 -5 0 8 -4 24 -9 35 -5
13 -9 14 -9 5z"/>
<path d="M1605 3182 c-6 -4 -11 -14 -10 -22 0 -12 21 -15 125 -16 l125 0 -120
5 c-66 3 -111 9 -100 12 20 7 20 7 0 8 -17 1 -18 3 -5 11 8 5 11 10 5 10 -5 0
-15 -4 -20 -8z"/>
<path d="M1886 3155 c16 -25 16 -28 -2 -63 -27 -53 -28 -60 -10 -37 17 20 17
20 11 -5 -6 -24 -5 -24 10 3 9 15 13 32 9 38 -4 6 -1 15 6 19 16 10 5 42 -20
58 -21 13 -21 12 -4 -13z"/>
<path d="M3380 3166 c0 -7 -20 -30 -45 -50 -62 -51 -58 -76 7 -42 15 8 42 17
60 21 l33 7 -30 -26 c-16 -14 -35 -25 -41 -26 -15 0 -63 -39 -49 -39 6 0 21 6
35 14 14 8 38 14 54 15 24 0 27 -2 16 -15 -7 -8 -20 -15 -29 -16 -12 0 -11 -2
4 -8 11 -5 22 -4 23 1 2 4 18 15 36 22 45 19 119 66 113 73 -3 2 -30 -11 -61
-31 -31 -19 -58 -31 -61 -26 -3 6 -18 10 -33 10 l-27 0 33 20 c32 19 44 50 20
50 -7 0 -39 -11 -70 -24 -32 -13 -58 -21 -58 -19 0 3 20 23 45 45 44 39 55 58
35 58 -5 0 -10 -6 -10 -14z"/>
<path d="M3637 3144 c-16 -9 -27 -18 -24 -21 6 -5 67 24 67 32 0 8 -14 5 -43
-11z"/>
<path d="M2877 3105 c-24 -50 -20 -58 4 -12 11 22 19 41 17 43 -3 2 -12 -12
-21 -31z"/>
<path d="M1361 3112 c-5 -10 -22 -24 -38 -32 -15 -8 -36 -21 -45 -29 -10 -8
-18 -10 -18 -6 0 5 -15 -5 -32 -21 -68 -63 -118 -96 -138 -91 -11 3 -20 1 -20
-4 0 -20 45 -7 91 26 60 43 67 44 39 5 -12 -17 -20 -40 -17 -53 4 -19 4 -19 6
5 2 39 18 43 35 9 14 -25 14 -30 1 -41 -8 -7 -22 -10 -30 -6 -8 3 -15 3 -15 0
0 -2 10 -8 23 -13 16 -6 25 -4 34 9 7 10 24 18 38 18 15 0 39 11 55 27 32 31
96 152 86 162 -3 3 -6 0 -6 -7 0 -7 -11 -28 -25 -45 -13 -18 -22 -35 -18 -38
3 -3 -9 -24 -27 -47 -38 -48 -70 -52 -105 -14 -29 31 -30 37 -10 54 8 7 12 16
9 21 -3 5 2 9 11 9 10 0 13 5 9 12 -5 8 -2 9 9 5 9 -3 23 1 32 9 8 8 19 12 25
9 5 -3 10 -1 10 5 0 6 14 23 30 37 30 25 39 43 20 43 -5 0 -14 -8 -19 -18z"/>
<path d="M2775 3039 c-16 -27 -33 -49 -38 -49 -4 0 -5 5 -1 12 4 6 3 8 -3 5
-6 -4 -16 7 -23 23 -7 17 -17 30 -22 30 -6 0 2 -20 17 -45 14 -25 23 -50 20
-55 -3 -6 -4 -10 -1 -10 11 0 91 128 84 135 -1 2 -16 -19 -33 -46z"/>
<path d="M2836 3018 c-9 -17 -16 -36 -16 -42 0 -11 20 24 33 57 11 28 0 19
-17 -15z"/>
<path d="M3645 3041 c-6 -5 -39 -21 -75 -34 -36 -13 -83 -34 -105 -46 -41 -22
-81 -28 -70 -12 3 5 0 13 -6 17 -8 4 -9 3 -5 -4 4 -7 1 -12 -6 -12 -10 0 -10
-2 0 -9 10 -6 1 -14 -32 -27 -25 -11 -46 -22 -46 -26 0 -12 -57 -38 -82 -38
l-22 0 22 16 c12 8 27 12 34 8 7 -4 8 -3 4 5 -4 7 2 15 16 20 13 6 17 10 10
10 -7 1 -10 6 -7 11 5 8 11 7 21 -1 9 -7 14 -8 14 -1 0 6 10 14 21 17 17 6 19
9 8 16 -19 12 -32 11 -24 -1 3 -5 -2 -10 -12 -10 -10 0 -38 -18 -63 -40 -24
-22 -50 -40 -57 -40 -7 0 -13 -4 -13 -9 0 -17 -33 -21 -44 -5 -11 14 -13 14
-25 0 -20 -24 -31 -19 -31 13 0 29 18 41 63 41 23 0 107 68 107 86 0 7 -7 17
-16 22 -18 10 -54 5 -54 -8 0 -4 -11 -12 -25 -18 -13 -6 -31 -26 -38 -45 -11
-24 -24 -36 -47 -43 -19 -5 -35 -16 -38 -24 -4 -12 -2 -13 9 -2 17 16 30 16
23 -1 -2 -7 2 -21 10 -32 12 -17 16 -17 30 -6 11 10 20 11 27 4 7 -7 -6 -23
-38 -49 -72 -58 -152 -135 -176 -169 l-21 -29 26 19 c15 11 29 28 32 39 3 12
10 16 21 12 9 -3 13 -2 10 4 -9 15 156 155 169 143 3 -3 6 2 6 11 0 12 5 16
15 12 9 -3 15 0 15 9 0 17 6 17 35 5 14 -5 30 -2 53 12 17 11 32 15 32 9 0 -6
-9 -15 -20 -21 -11 -6 -17 -16 -14 -22 5 -8 1 -9 -10 -5 -9 4 -15 3 -12 -2 3
-5 -2 -11 -12 -14 -9 -2 -26 -8 -37 -12 -14 -5 -11 1 10 19 17 14 26 26 21 26
-14 0 -91 -73 -91 -87 0 -6 -4 -15 -9 -20 -5 -4 -6 -3 -2 5 17 29 -9 7 -89
-75 -83 -86 -95 -103 -75 -103 6 0 10 7 10 15 0 8 3 15 8 15 4 0 22 12 39 28
18 15 60 35 93 46 33 10 60 22 60 27 0 12 -6 11 -38 -5 -15 -7 -38 -17 -52
-21 -25 -8 -25 -8 -6 14 11 11 31 21 45 21 18 0 22 3 13 9 -9 5 7 15 50 31 72
26 92 40 60 40 -12 0 -22 -4 -22 -8 0 -12 -63 -33 -72 -24 -5 5 1 17 13 28 22
19 22 19 15 0 -6 -19 -6 -19 11 -3 10 9 57 29 103 44 47 15 77 29 68 31 -9 2
-26 -2 -37 -7 -11 -6 -28 -11 -38 -11 -17 1 -17 1 -1 11 10 5 20 10 23 9 3 0
14 9 24 19 13 13 41 21 88 26 85 9 96 15 53 30 l-34 11 70 17 c38 9 84 17 102
17 17 0 32 5 32 11 0 11 -32 9 -100 -7 -22 -5 -23 -4 -7 6 10 7 31 13 45 15
14 1 28 7 29 11 2 5 25 7 52 6 26 -2 59 -2 72 1 23 4 22 4 -8 16 -18 7 -30 17
-27 22 7 12 -39 12 -51 0z m55 -21 c11 -7 1 -10 -35 -9 -37 0 -45 3 -30 9 27
12 47 12 65 0z m-480 -34 c0 -7 -7 -19 -15 -26 -12 -10 -18 -10 -30 0 -13 10
-15 9 -15 -9 0 -22 -25 -39 -38 -26 -9 9 63 75 83 75 8 0 15 -6 15 -14z m190
-66 c-11 -7 -5 -10 25 -11 l40 -1 -44 -9 c-24 -5 -48 -6 -53 -3 -5 3 -14 1
-21 -4 -7 -5 -23 -13 -37 -16 -14 -4 -3 6 25 23 28 17 57 31 65 31 13 0 13 -1
0 -10z"/>
<path d="M2641 2985 c-29 -62 -26 -71 4 -11 14 27 23 51 21 53 -2 2 -13 -17
-25 -42z"/>
<path d="M3337 2993 c-14 -4 -16 -8 -6 -19 15 -19 43 -18 36 0 -4 11 -1 13 11
10 14 -5 15 -4 2 5 -8 6 -17 10 -20 10 -3 -1 -13 -3 -23 -6z"/>
<path d="M1300 2950 c-25 -21 -40 -39 -35 -40 6 0 29 18 50 40 50 51 43 51
-15 0z"/>
<path d="M1591 2930 c-1 -8 -6 -22 -11 -30 -9 -13 -11 -13 -20 0 -7 11 -10 12
-10 2 0 -7 6 -20 14 -27 12 -12 16 -10 26 15 7 16 10 35 7 42 -4 10 -6 9 -6
-2z"/>
<path d="M2550 2908 c-16 -27 -29 -63 -17 -47 15 19 47 79 43 79 -4 0 -15 -15
-26 -32z"/>
<path d="M1548 2848 c3 -14 2 -19 -6 -14 -14 8 -15 -3 -3 -22 6 -10 10 -8 14
10 9 33 8 48 -2 48 -5 0 -7 -10 -3 -22z"/>
<path d="M1238 2844 c-29 -15 -37 -34 -16 -34 6 0 8 3 5 7 -12 11 37 31 51 20
6 -5 12 -6 12 -3 0 4 9 2 21 -4 16 -9 18 -14 8 -26 -9 -11 -7 -14 14 -14 14 0
29 -5 32 -11 10 -16 3 -18 -35 -10 -25 5 -34 12 -32 24 2 13 -4 17 -25 16 -17
-1 -21 -3 -10 -6 9 -2 17 -11 17 -19 0 -7 12 -16 28 -20 70 -16 88 -22 65 -23
-13 -1 -23 -5 -23 -11 0 -13 6 -13 31 0 11 6 25 8 32 3 8 -5 4 -9 -13 -14 -25
-7 -24 -7 4 -8 32 -1 99 -38 91 -51 -3 -4 2 -10 10 -14 8 -3 15 -10 15 -15 0
-12 -29 -23 -43 -14 -7 4 -3 9 9 14 17 7 17 8 -4 8 -17 1 -23 -4 -20 -16 3
-13 13 -18 40 -18 25 0 42 -6 52 -20 9 -11 15 -15 15 -10 1 6 -8 21 -19 35
-22 29 -26 45 -7 34 8 -5 8 -3 -2 9 -7 9 -17 14 -22 11 -5 -2 -11 7 -15 21 -4
18 -1 33 12 48 l19 22 -22 -19 c-13 -11 -23 -26 -23 -35 0 -10 -3 -12 -8 -5
-4 6 -21 18 -37 27 -17 8 -41 29 -54 46 -22 28 -106 92 -120 91 -3 -1 -18 -8
-33 -16z"/>
<path d="M1670 2840 c6 -11 16 -20 22 -20 6 0 3 9 -7 20 -10 11 -20 20 -22 20
-2 0 1 -9 7 -20z"/>
<path d="M1648 2805 c81 -45 94 -45 19 0 -32 19 -63 35 -70 35 -7 0 16 -16 51
-35z"/>
<path d="M1910 2798 c20 -35 50 -68 50 -54 0 6 -5 12 -50 66 l-20 25 20 -37z"/>
<path d="M1105 2795 c-15 -15 -19 -32 -18 -65 2 -50 23 -73 59 -64 12 3 24 1
28 -4 5 -9 36 -5 111 12 23 6 26 5 15 -3 -12 -8 -12 -11 -2 -11 8 0 26 -9 41
-19 15 -11 33 -21 40 -23 13 -3 33 -20 115 -97 l39 -36 -24 35 c-13 19 -27 36
-31 38 -4 2 -29 24 -54 48 -26 26 -52 43 -60 40 -8 -3 -14 -1 -14 4 0 5 -13
17 -30 26 -18 11 -32 29 -36 48 -8 37 -41 70 -75 75 -13 1 -26 7 -29 11 -9 15
-55 6 -75 -15z m133 -32 c36 -27 43 -66 13 -82 -43 -24 -151 7 -151 42 0 12
104 1 131 -14 10 -5 19 -6 19 -1 0 18 -26 32 -64 33 -54 1 -80 11 -84 29 -2 8
-1 12 3 8 4 -4 14 0 22 8 20 20 67 10 111 -23z"/>
<path d="M1644 2749 c21 -11 45 -18 54 -16 13 4 12 5 -4 6 -11 0 -29 8 -40 16
-10 8 -26 15 -34 15 -8 0 3 -9 24 -21z"/>
<path d="M1548 2713 c12 -2 30 -2 40 0 9 3 -1 5 -23 4 -22 0 -30 -2 -17 -4z"/>
<path d="M1768 2680 c23 -12 42 -28 42 -34 0 -7 7 -21 15 -32 13 -17 14 -17
15 -2 0 26 -51 76 -85 84 -26 5 -24 3 13 -16z"/>
<path d="M1400 2680 c0 -11 68 -25 77 -16 4 3 -7 6 -23 7 -25 0 -26 2 -9 9 17
7 15 9 -12 9 -18 1 -33 -3 -33 -9z"/>
<path d="M1555 2672 c6 -4 15 -16 21 -27 6 -11 20 -22 32 -25 11 -3 30 -17 42
-32 23 -30 56 -36 91 -17 16 8 25 7 39 -6 10 -9 21 -12 24 -7 3 5 -6 14 -20
21 -18 8 -25 17 -21 30 7 28 -10 49 -51 61 -42 11 -172 14 -157 2z m134 -13
c27 -6 56 -18 63 -27 11 -13 11 -14 -1 -8 -10 7 -12 4 -7 -12 5 -15 1 -24 -13
-31 -31 -17 -50 -13 -77 16 -13 14 -34 31 -46 37 -12 6 -23 17 -26 24 -5 15
39 16 107 1z"/>
<path d="M1350 2590 c0 -11 -4 -20 -10 -20 -5 0 -9 -12 -9 -27 0 -16 0 -44 -1
-64 -3 -49 30 -84 68 -73 15 4 34 8 42 8 21 1 39 46 33 78 -5 27 -92 118 -113
118 -5 0 -10 -9 -10 -20z m72 -39 c31 -29 38 -43 38 -73 0 -20 -4 -39 -9 -42
-14 -9 -19 15 -11 50 7 28 4 33 -36 58 -24 15 -44 34 -44 43 0 18 14 10 62
-36z m-26 -13 c16 -12 30 -22 32 -23 1 -1 0 -9 -4 -18 -4 -13 -10 -14 -24 -7
-10 6 -28 10 -39 10 -12 0 -21 4 -21 9 0 9 38 6 70 -5 8 -3 11 -1 6 3 -4 4
-21 13 -39 19 -32 11 -49 34 -24 34 8 0 27 -10 43 -22z m9 -65 c20 -15 19 -15
-5 -9 -14 3 -33 6 -42 6 -10 0 -18 5 -18 10 0 16 43 11 65 -7z m25 -33 c0 -6
-44 -30 -55 -30 -3 0 -5 7 -5 15 0 8 5 15 11 15 5 0 8 4 5 9 -3 4 6 6 19 3 14
-2 25 -8 25 -12z"/>
<path d="M1609 2588 c-1 -2 -3 -13 -4 -26 -2 -17 6 -27 29 -39 l31 -15 -29 30
c-15 17 -25 35 -22 41 4 6 5 11 2 11 -3 0 -7 -1 -7 -2z"/>
<path d="M1660 2546 c0 -2 17 -15 38 -27 20 -13 39 -26 42 -30 3 -5 12 -4 20
2 12 7 11 10 -7 15 -14 4 -23 15 -24 28 -1 16 -2 17 -6 4 -4 -16 -7 -17 -34
-3 -16 9 -29 14 -29 11z"/>
<path d="M683 2513 c-18 -7 -16 -33 2 -33 8 0 15 9 15 20 0 11 -1 20 -2 19 -2
0 -9 -3 -15 -6z"/>
<path d="M2552 2245 c-27 -23 -31 -24 -35 -8 -4 16 -5 16 -6 1 -2 -28 13 -28
49 3 19 15 32 29 28 29 -3 0 -20 -11 -36 -25z"/>
<path d="M1158 2224 c-16 -8 -28 -21 -28 -29 0 -9 -18 -19 -45 -26 -52 -13
-61 -22 -41 -38 10 -8 16 -9 21 -1 3 5 0 10 -7 10 -9 0 -9 3 2 10 19 12 33 13
26 1 -3 -5 1 -11 9 -14 9 -4 12 -1 8 9 -3 7 -1 14 4 14 5 0 10 -15 11 -32 2
-25 0 -29 -8 -18 -8 12 -10 11 -10 -8 0 -40 24 -19 33 29 8 41 28 69 51 69 5
0 1 -7 -10 -16 -10 -8 -13 -13 -6 -9 10 5 11 0 6 -20 -5 -21 -3 -26 7 -23 7 2
17 19 21 36 5 18 14 32 21 33 7 0 3 4 -8 8 -11 5 -28 4 -38 -1 -10 -5 -21 -7
-24 -5 -8 9 38 29 53 23 9 -3 12 -1 9 4 -8 14 -25 12 -57 -6z"/>
<path d="M2432 2205 c-7 -14 -12 -36 -11 -48 0 -13 6 -4 14 23 16 50 14 63 -3
25z"/>
<path d="M1060 2110 c-20 -16 -21 -20 -8 -20 10 0 22 9 28 20 13 25 11 25 -20
0z"/>
<path d="M976 2086 c-20 -19 -36 -38 -36 -42 0 -5 5 -3 12 4 18 18 30 14 20
-5 -12 -23 3 -63 22 -63 10 0 13 6 10 15 -4 8 1 33 9 54 9 21 13 42 9 45 -3 4
0 11 8 16 13 8 13 10 -1 10 -9 0 -33 -15 -53 -34z m37 -8 c-4 -7 -8 -17 -9
-23 -1 -5 -7 -21 -12 -35 -9 -22 -11 -23 -11 -4 -1 11 4 25 11 32 9 9 9 12 -1
12 -11 0 -11 3 -1 15 15 18 34 20 23 3z"/>
<path d="M1043 2067 c3 -25 21 -26 25 -2 2 15 1 17 -6 6 -8 -11 -11 -11 -16 0
-3 9 -5 7 -3 -4z"/>
<path d="M2440 2024 c0 -17 -6 -36 -12 -43 -11 -11 -10 -12 1 -6 11 6 13 -1 9
-34 -4 -44 6 -56 15 -18 6 24 0 118 -8 126 -3 2 -5 -9 -5 -25z"/>
<path d="M920 2023 c0 -10 6 -13 17 -9 14 6 14 3 -3 -16 -10 -12 -26 -28 -34
-35 -13 -11 -13 -12 1 -13 18 0 53 45 55 70 1 9 -7 17 -17 17 -11 1 -19 -5
-19 -14z"/>
<path d="M2140 1989 c0 -17 -4 -28 -10 -24 -14 9 -13 4 11 -41 12 -23 17 -29
13 -14 -3 14 -6 44 -5 68 1 23 -1 42 -4 42 -3 0 -5 -14 -5 -31z"/>
<path d="M2192 1958 c-10 -30 -10 -31 3 -14 13 17 21 46 12 46 -1 0 -8 -15
-15 -32z"/>
<path d="M2320 1945 c0 -8 5 -15 10 -15 6 0 10 7 10 15 0 8 -4 15 -10 15 -5 0
-10 -7 -10 -15z"/>
<path d="M1846 1895 c8 -51 46 -110 84 -130 28 -14 30 -14 30 1 0 10 2 15 5
12 3 -3 -1 -47 -9 -98 -9 -51 -13 -98 -9 -104 3 -6 -4 0 -17 12 -18 19 -24 21
-31 10 -5 -8 -9 -9 -9 -2 0 7 -13 14 -29 16 -26 4 -36 -3 -88 -65 -58 -68
-158 -216 -169 -249 -4 -10 -10 -15 -15 -12 -5 3 -9 0 -9 -7 0 -7 -12 -26 -27
-42 -18 -20 -22 -28 -11 -24 13 4 18 -2 23 -26 9 -44 28 -97 35 -97 10 1 47
46 65 80 10 19 44 63 76 98 56 59 119 164 119 196 0 8 5 18 12 22 8 5 9 -2 5
-24 -5 -26 -1 -38 25 -68 18 -20 42 -40 56 -45 18 -7 22 -14 18 -32 l-6 -22
11 23 c17 31 31 28 24 -5 l-6 -28 16 28 c19 33 33 30 15 -2 -6 -12 -8 -27 -4
-33 4 -7 3 -8 -4 -4 -7 4 -12 1 -12 -6 0 -9 -3 -9 -10 2 -7 11 -10 0 -10 -40
0 -75 -5 -111 -17 -135 -6 -11 -14 -42 -17 -70 l-6 -50 15 55 c8 30 19 62 24
71 5 8 12 47 17 85 6 57 9 64 15 41 10 -37 4 -98 -16 -177 -11 -42 -15 -81
-10 -115 14 -115 5 -203 -26 -254 -26 -43 -36 -34 -12 11 19 36 26 71 11 62
-5 -3 -8 10 -6 28 1 19 -2 40 -7 48 -5 8 -9 42 -9 75 1 33 -1 43 -3 22 -2 -20
-8 -35 -12 -33 -10 6 -1 -56 10 -69 14 -18 13 -98 -1 -137 -10 -27 -11 -41 -3
-49 7 -7 8 -24 2 -47 -13 -61 -18 -152 -9 -152 11 0 20 46 24 125 1 34 12 80
23 105 35 76 48 161 33 229 -11 51 -10 68 6 132 10 44 18 116 19 176 1 84 4
106 20 122 23 26 50 28 40 4 -16 -41 -28 -124 -30 -213 l-2 -95 7 95 c4 52 11
106 14 120 4 14 12 44 18 67 7 27 17 45 30 49 38 12 10 15 -38 4 -63 -15 -106
-15 -133 -1 -17 10 -19 15 -11 31 7 14 7 20 0 20 -5 0 -10 -8 -10 -17 0 -16
-2 -15 -19 2 -25 26 -35 84 -17 91 8 3 17 15 20 27 3 12 8 18 11 15 4 -3 2
-15 -4 -27 -10 -18 -7 -21 23 -30 39 -10 44 -10 251 13 180 21 205 28 204 65
-1 20 -2 22 -6 6 -3 -11 -9 -24 -14 -29 -9 -10 -6 66 5 119 5 24 3 22 -9 -8
-8 -21 -14 -53 -13 -71 1 -18 -2 -37 -5 -43 -4 -6 -47 -14 -97 -17 -109 -9
-128 -1 -105 45 8 15 15 34 15 41 -1 7 -10 -5 -22 -26 -15 -30 -18 -44 -10
-57 9 -14 5 -17 -35 -23 -25 -3 -75 -6 -110 -6 -62 0 -64 1 -57 23 10 28 15
72 14 120 0 21 4 46 9 56 17 31 21 103 6 117 -19 19 -25 17 -25 -6 0 -11 -4
-20 -9 -20 -16 0 -71 70 -77 98 -10 50 -24 71 -18 27z m53 -317 c11 -10 13
-10 7 0 -4 6 -3 12 3 12 6 0 15 -9 21 -19 8 -16 5 -24 -20 -44 -16 -14 -26
-28 -22 -32 4 -4 1 -5 -7 -3 -10 2 -29 -25 -55 -77 -25 -49 -63 -103 -99 -140
-33 -33 -72 -79 -88 -102 -27 -39 -48 -54 -49 -35 -1 4 -5 26 -9 50 -8 41 -6
45 40 106 26 35 46 66 43 69 -3 3 0 15 6 27 9 16 14 19 20 11 5 -9 9 -8 13 4
4 9 3 13 -3 10 -6 -3 -10 -2 -10 4 0 9 42 59 122 143 28 30 65 36 87 16z"/>
<path d="M1811 1495 c-17 -20 -31 -39 -31 -43 0 -4 10 6 22 22 12 15 35 34 52
42 25 11 27 13 10 14 -13 0 -35 -15 -53 -35z"/>
<path d="M1655 1264 c-73 -80 -76 -84 -17 -29 44 41 82 87 70 84 -2 0 -25 -25
-53 -55z"/>
<path d="M2017 1868 c-4 -34 -3 -56 5 -63 8 -7 9 -7 5 1 -4 7 -3 33 2 58 5 26
5 48 1 51 -4 2 -10 -19 -13 -47z"/>
<path d="M2371 1886 c-12 -18 -21 -42 -20 -52 0 -14 3 -12 9 7 4 14 15 38 25
52 9 15 15 27 12 27 -3 0 -15 -15 -26 -34z"/>
<path d="M2200 1891 c0 -11 -9 -21 -21 -24 -20 -5 -21 -11 -16 -64 5 -67 24
-114 42 -107 9 4 11 -3 9 -23 -4 -24 -3 -25 5 -8 14 29 13 45 -3 45 -8 0 -17
7 -20 16 -5 12 0 15 22 12 22 -2 27 -8 25 -26 -2 -13 1 -21 7 -17 6 3 10 12
10 19 0 6 18 30 40 51 30 29 40 47 40 71 0 31 -21 51 -41 39 -5 -4 -6 2 -2 11
4 12 2 15 -8 12 -8 -3 -13 -11 -11 -18 3 -14 -27 -100 -40 -114 -13 -16 -9 12
7 43 18 36 2 101 -27 101 -11 0 -18 -7 -18 -19z m36 -26 c4 -21 1 -48 -6 -65
-6 -16 -9 -34 -5 -39 3 -6 2 -11 -4 -11 -5 0 -10 33 -10 75 0 78 13 100 25 40z
m94 -17 c0 -5 -9 -21 -20 -35 -11 -14 -17 -30 -13 -37 3 -6 3 -8 -2 -4 -4 4
-16 -3 -25 -15 -10 -12 -22 -19 -26 -15 -4 5 0 16 9 26 10 10 17 25 17 34 0
21 39 70 51 63 5 -4 9 -11 9 -17z m-136 -4 c9 -23 7 -82 -3 -88 -8 -5 -21 47
-21 87 0 21 16 22 24 1z"/>
<path d="M2126 1785 c-3 -30 -9 -81 -12 -112 -3 -32 -10 -63 -15 -70 -7 -7 -6
-14 2 -19 8 -4 9 -3 5 4 -4 7 -3 12 2 12 5 0 12 19 16 43 7 49 15 197 11 197
-2 0 -6 -25 -9 -55z"/>
<path d="M2038 1792 c-3 -21 -2 -62 3 -90 7 -48 0 -133 -17 -184 -4 -12 -2
-18 4 -15 16 11 32 148 27 236 -2 46 -6 86 -8 88 -3 2 -7 -14 -9 -35z"/>
<path d="M1997 1695 c-6 -100 -11 -129 -32 -190 -3 -11 1 -8 10 8 18 32 38
172 33 243 -2 32 -6 11 -11 -61z"/>
<path d="M2330 1724 c-6 -14 -10 -37 -9 -52 1 -19 4 -15 10 16 4 23 11 47 14
52 3 6 4 10 0 10 -3 0 -10 -12 -15 -26z"/>
<path d="M2291 1719 c-1 -9 -8 -22 -16 -29 -16 -14 -48 -114 -43 -138 2 -10
12 15 22 53 9 39 24 78 33 87 8 9 13 23 10 30 -4 9 -6 8 -6 -3z"/>
<path d="M2146 1654 c-10 -33 -25 -72 -33 -88 -11 -20 -11 -27 -2 -24 13 4 62
144 56 161 -1 5 -11 -17 -21 -49z"/>
<path d="M2184 1635 c-4 -9 -4 -19 0 -22 3 -4 7 2 7 13 1 10 5 3 9 -16 l7 -35
2 32 c1 35 -16 54 -25 28z"/>
<path d="M2308 1590 c-2 -22 0 -40 4 -40 5 0 8 18 8 40 0 22 -2 40 -4 40 -2 0
-6 -18 -8 -40z"/>
<path d="M2181 1552 c-6 -12 -11 -27 -11 -34 0 -7 7 0 15 16 9 16 13 31 11 33
-2 3 -9 -4 -15 -15z"/>
<path d="M1901 1474 c-1 -17 36 -47 51 -41 9 4 8 6 -3 6 -9 1 -24 11 -32 24
-9 12 -16 17 -16 11z"/>
<path d="M2255 1445 l-40 -14 40 6 c42 6 85 23 55 22 -8 0 -33 -7 -55 -14z"/>
<path d="M1887 1373 c-4 -3 -7 -15 -7 -26 0 -11 -9 -36 -19 -56 -30 -56 -52
-121 -61 -178 -9 -53 -91 -234 -153 -337 -27 -45 -32 -63 -30 -107 1 -36 -1
-48 -7 -39 -8 12 -10 11 -11 -5 -1 -25 -2 -28 -34 -143 -14 -52 -25 -101 -23
-110 2 -9 14 26 27 78 13 52 30 111 38 130 8 19 21 55 28 80 7 25 16 54 21 65
7 18 6 19 -11 5 -17 -14 -18 -14 -6 7 7 14 17 20 26 17 8 -4 15 -1 15 5 0 6
-4 11 -9 11 -5 0 19 57 55 128 35 70 71 158 80 197 9 39 35 116 57 172 36 92
44 126 24 106z"/>
<path d="M2183 1228 c4 -79 11 -179 16 -223 8 -79 9 -78 5 25 -3 58 -6 157 -9
220 -2 63 -8 116 -12 117 -4 2 -4 -61 0 -139z"/>
<path d="M2276 1305 c3 -27 13 -64 23 -80 12 -21 15 -38 10 -59 -20 -75 -1
-265 35 -336 9 -18 13 -55 13 -100 -1 -38 1 -70 6 -70 4 0 7 -19 7 -42 0 -25
4 -38 9 -32 5 5 5 37 -1 77 -7 48 -7 75 0 90 6 12 13 33 16 47 3 14 3 -1 0
-32 -2 -36 0 -58 6 -58 5 0 10 -21 10 -47 l0 -48 20 30 c21 32 25 86 9 120 -7
14 -8 6 -5 -30 6 -71 -8 -105 -17 -41 -4 27 -7 66 -7 87 0 21 -4 40 -9 44 -5
3 -19 37 -31 76 -19 61 -22 93 -19 182 1 32 -20 118 -34 140 -9 14 -23 49 -31
78 l-16 54 6 -50z m60 -250 c-5 -44 7 -119 30 -178 8 -20 14 -54 14 -75 l-1
-37 -21 55 c-38 100 -59 275 -41 340 6 22 8 20 15 -20 5 -25 7 -63 4 -85z"/>
<path d="M2383 1315 c0 -22 2 -30 4 -17 2 12 2 30 0 40 -3 9 -5 -1 -4 -23z"/>
<path d="M1905 1319 c-10 -30 -2 -32 12 -3 6 13 7 24 3 24 -5 0 -12 -9 -15
-21z"/>
<path d="M2117 1288 c-25 -79 -14 -211 25 -311 8 -20 8 -35 0 -52 -7 -16 -8
-25 -2 -25 6 0 0 -19 -12 -42 -14 -28 -22 -61 -22 -95 0 -29 -4 -53 -8 -53 -4
0 -8 -10 -8 -22 0 -14 -4 -18 -9 -12 -6 5 -5 40 1 89 12 86 11 221 0 242 -4 7
-7 -31 -7 -85 0 -53 -3 -129 -8 -169 -5 -49 -4 -74 4 -78 6 -4 8 -18 4 -32 -3
-14 -2 -22 3 -19 8 5 7 -64 -3 -119 -4 -19 -2 -26 5 -19 5 5 12 41 16 79 3 39
12 77 20 86 11 12 13 34 8 90 -6 63 -3 79 14 109 11 19 23 49 26 66 7 29 -10
100 -36 151 -6 12 -8 28 -5 35 2 8 1 38 -4 68 -7 42 -5 66 7 103 9 26 14 52
12 58 -2 6 -11 -13 -21 -43z m-6 -631 c-8 -8 -11 -4 -11 14 0 33 14 47 18 19
2 -12 -1 -27 -7 -33z"/>
<path d="M2216 1255 c2 -49 4 -198 5 -329 1 -210 -1 -240 -15 -248 -9 -5 -16
-18 -16 -28 0 -10 -4 -22 -10 -25 -13 -8 -13 21 1 47 12 23 9 30 -10 19 -17
-11 -28 -201 -11 -201 7 0 11 17 9 48 -2 33 3 56 14 72 9 14 17 30 17 37 0 6
7 16 16 21 15 8 17 37 15 258 -1 137 -5 287 -10 334 l-9 85 4 -90z"/>
<path d="M1971 1278 c-2 -36 -79 -207 -119 -266 -13 -19 -21 -37 -18 -40 3 -3
1 -11 -6 -19 -6 -7 -8 -17 -4 -20 9 -10 25 15 33 50 3 15 9 27 14 27 5 0 9 8
9 19 0 10 7 24 14 31 8 6 22 33 32 58 9 26 25 69 36 95 10 27 17 56 15 65 -4
16 -5 16 -6 0z"/>
<path d="M2260 1190 c-8 -257 -6 -277 18 -300 28 -26 28 -21 0 31 -21 40 -21
47 -11 148 6 58 8 129 4 156 -7 47 -8 45 -11 -35z"/>
<path d="M1875 1228 c-4 -18 -20 -66 -36 -107 -16 -41 -28 -76 -26 -78 3 -2
18 31 35 74 30 78 48 143 39 143 -3 0 -8 -15 -12 -32z"/>
<path d="M1936 1099 c-9 -23 -15 -44 -12 -47 5 -5 15 17 30 66 12 38 -1 24
-18 -19z"/>
<path d="M2401 1070 c0 -15 22 -173 35 -242 4 -21 13 -43 20 -49 12 -9 11 -4
-1 30 -8 23 -17 76 -21 118 -6 68 -32 181 -33 143z"/>
<path d="M2035 1040 c-7 -23 4 -109 17 -130 7 -11 8 -10 3 6 -3 12 -6 49 -8
82 -1 34 -3 62 -4 62 -1 0 -4 -9 -8 -20z"/>
<path d="M1923 950 c0 -25 2 -35 4 -22 2 12 2 32 0 45 -2 12 -4 2 -4 -23z"/>
<path d="M1851 914 c-12 -27 -11 -28 4 -12 10 9 16 21 13 28 -2 7 -10 -1 -17
-16z"/>
<path d="M1804 905 c-4 -8 -10 -13 -15 -10 -9 6 -44 -54 -36 -61 2 -3 10 9 17
25 8 20 18 28 30 26 13 -3 18 2 17 16 -2 23 -6 24 -13 4z"/>
<path d="M1870 858 c-6 -29 -16 -87 -21 -128 -6 -41 -13 -79 -16 -83 -3 -5 0
-13 7 -17 10 -6 10 -19 2 -56 -17 -73 -25 -174 -15 -174 5 0 14 48 21 106 11
87 17 110 34 124 18 14 21 29 23 106 1 49 5 103 9 119 l6 30 -14 -30 c-9 -19
-14 -60 -13 -113 0 -51 -4 -87 -11 -94 -9 -9 -12 -8 -13 7 0 19 -1 19 -9 0 -5
-11 -9 -15 -9 -9 -1 13 28 212 36 242 3 12 3 22 0 22 -3 0 -10 -24 -17 -52z"/>
<path d="M2190 904 c0 -5 -7 -52 -15 -104 -13 -88 -14 -125 -1 -83 10 34 27
185 22 191 -3 3 -6 1 -6 -4z"/>
<path d="M1787 850 c-3 -11 -1 -18 3 -15 5 3 11 -1 13 -7 3 -7 6 -1 6 15 1 31
-14 36 -22 7z"/>
<path d="M2307 795 c3 -22 5 -66 4 -97 -1 -45 1 -57 12 -52 14 5 8 83 -12 154
l-11 35 7 -40z"/>
<path d="M1809 766 c-3 -27 0 -41 5 -36 9 9 11 68 3 77 -3 2 -7 -16 -8 -41z"/>
<path d="M1720 765 c0 -8 -4 -15 -10 -15 -11 0 -32 -37 -36 -65 -2 -11 -6 -30
-10 -42 -3 -13 -2 -23 4 -23 13 0 24 44 15 66 -5 13 -3 15 7 9 9 -6 11 -4 5 4
-4 7 1 22 12 34 28 31 36 47 24 47 -6 0 -11 -7 -11 -15z"/>
<path d="M1777 695 c6 -97 5 -123 -4 -138 -4 -7 -10 -3 -15 9 -8 19 -8 19 -5
0 3 -26 24 -32 31 -9 3 10 7 50 9 88 2 39 1 59 -2 45 -4 -18 -7 -10 -12 30 -4
37 -5 28 -2 -25z"/>
<path d="M1741 739 c0 -15 -3 -42 -6 -60 l-5 -34 11 34 c5 18 8 45 6 60 l-4
26 -2 -26z"/>
<path d="M1712 680 c0 -19 2 -27 5 -17 2 9 2 25 0 35 -3 9 -5 1 -5 -18z"/>
<path d="M1729 602 l-2 -37 -8 35 c-8 35 -8 35 -6 -7 2 -24 -1 -43 -5 -43 -5
0 -8 -12 -8 -27 0 -16 -9 -57 -20 -91 -22 -70 -26 -107 -10 -97 6 3 10 18 10
33 0 35 67 244 81 253 6 3 2 9 -10 12 -18 4 -21 0 -22 -31z"/>
<path d="M2316 588 c12 -106 16 -128 26 -128 6 0 8 9 3 23 -4 12 -9 50 -12 85
-3 34 -9 62 -13 62 -5 0 -6 -19 -4 -42z"/>
<path d="M2062 570 c0 -19 2 -27 5 -17 2 9 2 25 0 35 -3 9 -5 1 -5 -18z"/>
<path d="M2460 485 c0 -11 5 -27 10 -35 8 -12 10 -12 10 5 0 11 -5 27 -10 35
-8 12 -10 12 -10 -5z"/>
</g>
</svg>
