<?xml version="1.0" standalone="no"?>
<!DOCTYPE svg PUBLIC "-//W3C//DTD SVG 20010904//EN"
 "http://www.w3.org/TR/2001/REC-SVG-20010904/DTD/svg10.dtd">
<svg version="1.0" xmlns="http://www.w3.org/2000/svg"
 width="900.000000pt" height="1296.000000pt" viewBox="0 0 900.000000 1296.000000"
 preserveAspectRatio="xMidYMid meet">
<metadata>
Created by potrace 1.10, written by Peter Selinger 2001-2011
</metadata>
<g transform="translate(0.000000,1296.000000) scale(0.100000,-0.100000)"
fill="#000000" stroke="none">
<path d="M8660 12730 c0 -11 7 -20 15 -20 8 0 15 9 15 20 0 11 -7 20 -15 20
-8 0 -15 -9 -15 -20z"/>
<path d="M5516 11843 c-12 -12 -6 -33 9 -33 8 0 15 6 15 14 0 17 -14 28 -24
19z"/>
<path d="M3230 10955 c0 -8 7 -15 15 -15 8 0 15 7 15 15 0 8 -7 15 -15 15 -8
0 -15 -7 -15 -15z"/>
<path d="M5090 10864 c0 -17 22 -14 28 4 2 7 -3 12 -12 12 -9 0 -16 -7 -16
-16z"/>
<path d="M1821 10066 c-12 -14 -5 -26 16 -26 15 0 18 26 4 34 -5 3 -14 0 -20
-8z"/>
<path d="M1737 10064 c-10 -11 -8 -44 2 -44 6 0 13 4 16 10 8 12 -9 43 -18 34z"/>
<path d="M1250 10003 c0 -38 15 -61 24 -38 11 30 7 65 -9 65 -10 0 -15 -10
-15 -27z"/>
<path d="M1706 9978 c-9 -34 -7 -78 3 -78 13 0 21 26 21 66 0 38 -15 46 -24
12z"/>
<path d="M4282 9928 c-16 -16 -15 -35 1 -40 32 -12 50 19 24 41 -10 8 -17 7
-25 -1z"/>
<path d="M1914 9909 c-3 -6 -1 -16 4 -21 13 -13 45 8 36 23 -7 12 -31 11 -40
-2z"/>
<path d="M1675 9863 c-4 -15 -10 -36 -16 -45 -5 -10 -9 -30 -8 -45 l1 -28 8
29 c5 16 13 32 18 35 13 9 23 69 12 76 -5 3 -12 -7 -15 -22z"/>
<path d="M1226 9858 c-3 -13 -6 -40 -6 -61 0 -57 24 -42 28 18 3 52 -11 82
-22 43z"/>
<path d="M1892 9810 c0 -19 2 -27 5 -17 2 9 2 25 0 35 -3 9 -5 1 -5 -18z"/>
<path d="M1732 9814 c4 -21 22 -23 26 -1 2 10 -3 17 -13 17 -10 0 -15 -6 -13
-16z"/>
<path d="M1857 9754 c-3 -3 -3 -13 0 -21 5 -12 7 -12 14 -1 15 23 4 40 -14 22z"/>
<path d="M1617 9733 c-4 -3 -7 -22 -7 -42 0 -20 -7 -45 -15 -55 -8 -11 -15
-36 -15 -57 0 -24 -5 -39 -15 -43 -9 -3 -15 -19 -15 -41 0 -20 -7 -47 -16 -60
-9 -14 -14 -36 -12 -50 3 -16 -1 -30 -13 -41 -19 -17 -27 -83 -12 -98 7 -7 53
134 53 163 0 8 6 22 13 30 7 9 22 52 31 96 10 44 22 85 26 90 4 6 11 26 15 45
3 19 9 43 11 53 5 17 -15 24 -29 10z"/>
<path d="M1196 9723 c-9 -10 -7 -81 3 -87 11 -7 21 18 21 54 0 29 -12 45 -24
33z"/>
<path d="M1166 9603 c-9 -10 -7 -93 3 -93 12 0 21 26 21 60 0 29 -12 45 -24
33z"/>
<path d="M1132 9458 c2 -24 8 -43 13 -43 6 0 11 19 13 43 3 33 0 42 -13 42
-13 0 -16 -9 -13 -42z"/>
<path d="M5248 9388 c9 -9 15 -9 24 0 9 9 7 12 -12 12 -19 0 -21 -3 -12 -12z"/>
<path d="M5098 9373 c-10 -2 -18 -11 -18 -18 0 -11 12 -13 53 -9 65 7 77 11
77 24 0 10 -78 12 -112 3z"/>
<path d="M4995 9360 c-9 -15 4 -30 26 -30 17 0 18 3 7 20 -14 22 -24 25 -33
10z"/>
<path d="M4273 9316 c-43 -47 -73 -104 -132 -251 -24 -59 -41 -140 -45 -217
-3 -48 -10 -96 -15 -107 -17 -30 -14 -217 3 -250 l15 -28 -50 -12 c-28 -7 -59
-22 -69 -33 -10 -11 -25 -18 -33 -15 -8 3 -30 -8 -48 -23 -19 -16 -39 -29 -45
-30 -6 0 -20 -11 -32 -25 -12 -14 -27 -25 -33 -25 -7 0 -8 -15 -4 -44 9 -55
-2 -91 -66 -221 -53 -110 -56 -149 -13 -165 13 -5 24 -16 24 -24 0 -8 6 -19
13 -23 7 -4 21 -19 30 -32 29 -43 -11 -65 -68 -39 -22 10 -32 9 -58 -5 -18 -9
-41 -17 -52 -19 -12 -2 -21 -12 -23 -26 -2 -14 -13 -24 -30 -29 -35 -8 -82
-43 -82 -60 0 -7 -16 -27 -35 -44 -19 -18 -35 -41 -35 -51 0 -23 -56 -58 -92
-58 -15 0 -31 -6 -35 -12 -10 -16 -70 -48 -88 -48 -8 0 -51 -35 -95 -77 -45
-43 -90 -82 -100 -86 -22 -11 -60 -86 -60 -120 0 -14 -4 -29 -10 -32 -16 -10
-6 -270 14 -360 31 -144 32 -132 -3 -140 -17 -3 -33 -11 -36 -16 -4 -5 -16 -9
-29 -9 -27 0 -46 -18 -46 -43 0 -17 5 -18 37 -12 21 4 47 18 60 31 25 28 23
27 58 14 25 -10 25 -11 19 -77 -9 -96 -18 -103 -94 -70 -50 21 -66 24 -85 15
-18 -8 -28 -8 -39 1 -10 8 -40 12 -83 10 -37 -2 -74 0 -82 5 -7 5 -47 10 -87
12 -41 2 -80 7 -87 11 -18 12 -115 33 -172 38 -145 12 -191 17 -205 25 -8 5
-62 10 -119 11 -56 2 -105 7 -107 11 -7 10 -34 10 -34 0 0 -4 15 -15 33 -25
22 -12 62 -19 132 -22 59 -2 101 -8 103 -14 2 -6 29 -11 60 -12 32 0 80 -4
107 -10 28 -5 82 -14 120 -20 39 -6 75 -14 80 -18 6 -5 30 -9 53 -10 24 0 74
-6 110 -12 37 -6 93 -13 125 -15 31 -2 85 -8 120 -14 34 -5 88 -10 120 -10 64
0 70 -6 59 -60 -7 -31 -12 -36 -45 -40 -44 -6 -50 -23 -10 -30 15 -3 43 -16
61 -29 25 -19 32 -32 32 -58 0 -35 8 -41 28 -20 7 6 33 12 58 12 27 0 48 6 54
14 4 8 25 15 46 15 132 6 127 5 114 21 -7 8 -21 15 -30 15 -52 0 -68 41 -29
76 20 18 22 18 34 1 9 -12 26 -17 62 -17 27 0 63 -7 79 -15 16 -8 57 -17 89
-21 33 -4 65 -11 71 -15 6 -5 45 -11 87 -13 42 -3 85 -9 96 -15 29 -16 144
-14 139 2 -3 6 -20 13 -39 15 -62 5 -79 12 -79 32 0 23 -18 27 -26 6 -6 -17
-139 -10 -169 9 -11 6 -54 14 -97 18 -42 3 -85 10 -96 16 -12 6 -42 11 -69 11
l-49 0 -17 60 c-15 50 -22 60 -40 60 -12 0 -32 11 -45 25 -23 24 -23 28 -18
157 7 201 19 284 43 311 22 23 56 77 73 115 5 12 14 22 20 22 5 0 10 7 10 15
0 8 28 42 62 75 59 59 64 61 107 59 26 -2 67 5 94 16 l47 18 25 -27 c22 -24
24 -29 10 -42 -8 -9 -15 -21 -15 -27 0 -6 -14 -26 -32 -44 -28 -29 -32 -40
-30 -79 2 -49 7 -64 23 -64 7 0 8 15 4 40 -5 31 -3 41 8 46 8 3 18 20 21 39 4
18 13 38 21 45 8 7 15 21 15 31 0 11 4 19 10 19 19 0 30 37 20 71 -12 41 4 64
24 37 16 -21 36 -23 36 -4 0 8 7 16 15 20 12 4 15 25 14 103 0 54 -4 106 -8
116 -6 17 -8 17 -20 3 -7 -9 -20 -16 -27 -16 -21 0 -34 -43 -34 -114 0 -63
-12 -89 -35 -79 -8 2 -18 -4 -24 -15 -14 -25 -111 -41 -171 -27 -20 4 -36 -4
-80 -45 -85 -77 -89 -80 -104 -80 -8 0 -17 -4 -21 -9 -3 -6 -49 -31 -101 -57
-101 -51 -120 -69 -88 -90 61 -41 60 -39 40 -69 -12 -19 -16 -37 -12 -59 25
-122 23 -145 -13 -173 -14 -11 -14 -16 6 -55 14 -27 20 -52 17 -66 -8 -30 15
-139 32 -153 8 -6 14 -20 14 -30 0 -11 7 -19 15 -19 8 0 15 7 15 16 0 9 6 14
13 12 19 -7 21 -72 3 -88 -9 -7 -16 -28 -16 -47 l0 -35 -40 7 c-37 6 -41 5
-50 -20 -10 -26 -12 -27 -29 -11 -9 9 -25 16 -33 16 -25 0 -29 43 -12 109 15
59 15 62 -6 91 -12 16 -23 51 -26 76 -2 26 -11 60 -19 77 -8 17 -15 42 -15 56
0 14 -6 46 -14 71 -39 120 -41 317 -5 442 16 54 81 129 139 158 22 11 44 29
50 41 11 20 13 20 31 3 16 -15 19 -15 25 -1 6 17 77 67 96 67 27 0 86 37 96
60 13 28 61 81 140 153 34 31 61 47 78 47 22 0 25 2 14 15 -10 12 -10 18 0 30
7 9 20 13 27 10 8 -2 23 0 33 5 15 8 21 6 30 -11 10 -17 14 -18 27 -7 9 7 28
11 43 10 15 -2 32 4 40 12 14 17 40 22 40 7 0 -5 3 -16 6 -24 3 -8 -2 -17 -13
-20 -10 -4 -26 -12 -35 -19 -15 -10 -22 -10 -39 0 -29 19 -49 0 -27 -25 9 -10
19 -30 23 -45 11 -44 34 -57 83 -48 23 4 52 16 63 26 17 15 34 18 93 16 62 -2
75 0 91 18 10 11 16 22 13 25 -3 3 -38 2 -78 -3 -67 -8 -75 -7 -94 12 -70 70
-56 126 33 126 54 0 126 22 158 49 31 25 76 112 64 124 -13 13 -53 4 -61 -13
-39 -87 -45 -93 -111 -111 -35 -10 -76 -18 -90 -19 -15 0 -30 -7 -33 -16 -9
-24 -100 -16 -104 10 -2 10 -16 29 -30 41 -25 22 -26 25 -14 57 16 46 16 52
-11 79 -27 28 -41 59 -26 59 5 0 12 8 16 18 3 9 21 40 41 69 30 45 35 61 36
114 1 42 6 64 15 67 7 2 43 24 78 49 36 25 73 47 82 50 9 3 44 18 79 34 34 16
68 29 75 29 7 0 23 7 35 16 17 12 35 14 72 9 42 -6 50 -10 59 -37 15 -42 27
-28 46 54 18 79 53 168 66 168 4 0 13 18 19 40 6 21 15 42 21 46 6 3 7 19 4
36 -5 21 -2 35 10 48 17 19 18 75 0 75 -15 0 -55 -77 -55 -106 0 -14 -11 -43
-25 -63 -14 -20 -25 -49 -25 -63 0 -15 -7 -35 -17 -45 -10 -12 -16 -37 -17
-73 -1 -51 -11 -67 -30 -47 -11 10 -155 11 -162 1 -13 -21 -43 -8 -53 24 -13
39 -13 185 0 193 5 3 9 16 9 29 0 13 5 35 11 48 8 17 8 39 1 71 -8 38 -6 52 8
78 9 18 23 58 30 88 8 30 18 61 23 68 6 7 22 36 36 65 33 64 81 137 91 137 4
0 11 -7 14 -16 4 -10 13 -13 25 -9 14 4 31 -9 70 -56 47 -56 51 -65 51 -112 0
-53 12 -88 24 -69 3 5 7 38 8 72 2 49 -1 64 -14 74 -10 7 -18 19 -18 25 0 7
-14 34 -32 61 -32 49 -82 80 -127 80 -10 0 -36 -20 -58 -44z m-528 -1385 c7
-12 -12 -24 -25 -16 -11 7 -4 25 10 25 5 0 11 -4 15 -9z m170 -316 c0 -11 -7
-21 -16 -23 -18 -3 -33 23 -23 39 10 17 39 5 39 -16z m-126 -262 c0 -29 -2
-33 -8 -18 -7 18 -4 55 5 55 2 0 4 -17 3 -37z m-474 -293 c3 -6 -1 -13 -9 -16
-9 -3 -16 -11 -16 -16 0 -6 -16 -28 -35 -49 -19 -22 -35 -44 -35 -51 0 -6 -11
-1 -25 12 -36 34 -31 52 20 80 24 13 47 30 49 37 6 15 42 17 51 3z"/>
<path d="M1107 9303 c-4 -29 -12 -53 -17 -53 -6 0 -9 -24 -9 -52 l2 -53 6 46
c4 26 12 54 19 62 8 9 12 34 10 59 l-3 43 -8 -52z"/>
<path d="M4675 9339 c-10 -15 1 -23 20 -15 9 3 13 10 10 16 -8 13 -22 13 -30
-1z"/>
<path d="M4726 9342 c-11 -17 9 -22 55 -13 27 6 35 9 19 10 -14 1 -35 4 -46 7
-12 3 -25 1 -28 -4z"/>
<path d="M4605 9310 c-8 -12 20 -24 35 -15 5 3 10 10 10 16 0 12 -37 12 -45
-1z"/>
<path d="M1467 9223 c-4 -3 -7 -21 -7 -38 0 -18 -7 -38 -15 -45 -8 -7 -15 -27
-15 -45 0 -18 -7 -46 -15 -61 -8 -16 -15 -45 -15 -65 0 -24 -5 -39 -15 -43
-11 -4 -15 -21 -15 -61 0 -37 -5 -62 -15 -71 -8 -9 -15 -31 -15 -50 0 -20 -5
-44 -11 -56 -16 -29 0 -37 22 -9 13 15 19 39 19 71 0 29 6 52 14 59 8 7 17 34
21 61 4 28 11 52 16 56 5 3 9 24 9 47 0 23 7 51 15 61 8 11 15 39 15 62 0 25
6 47 15 54 8 7 15 28 15 46 0 32 -9 42 -23 27z"/>
<path d="M4985 9189 c-33 -5 -82 -11 -110 -15 -27 -3 -54 -12 -58 -20 -5 -9
-25 -14 -53 -14 -31 0 -46 -5 -51 -15 -3 -9 -4 -17 -2 -19 9 -8 103 12 107 23
2 6 27 11 61 11 44 0 65 5 85 21 22 17 34 19 80 14 57 -7 100 0 91 16 -7 10
-63 10 -150 -2z"/>
<path d="M1044 9085 c-6 -14 4 -71 10 -64 2 2 6 21 9 42 6 36 -8 52 -19 22z"/>
<path d="M1254 9066 c-8 -22 3 -33 18 -18 9 9 9 15 0 24 -9 9 -13 7 -18 -6z"/>
<path d="M3926 9055 c-19 -29 -11 -31 32 -9 38 18 41 34 8 34 -14 0 -30 -10
-40 -25z"/>
<path d="M4823 9066 c-17 -6 -40 -19 -51 -29 -10 -9 -22 -17 -26 -17 -4 0 -14
-6 -21 -12 -18 -16 -68 -58 -112 -94 -18 -14 -33 -30 -33 -36 0 -5 -9 -21 -20
-35 -11 -14 -20 -31 -20 -38 0 -22 41 -4 51 21 4 13 16 24 24 24 9 0 18 8 22
18 12 34 117 122 158 132 22 6 54 17 70 25 39 20 92 10 101 -17 3 -11 26 -39
50 -62 29 -28 44 -51 44 -67 0 -14 7 -34 15 -45 20 -27 18 -74 -6 -145 -12
-33 -19 -71 -17 -84 3 -14 0 -26 -8 -29 -8 -3 -14 -15 -14 -26 0 -11 -20 -48
-45 -81 -25 -34 -43 -64 -40 -67 3 -3 22 8 42 24 39 32 113 164 113 202 0 13
9 36 19 51 13 18 17 32 11 41 -5 8 -4 22 2 33 5 10 7 21 4 24 -3 3 -1 14 5 24
6 13 6 40 -3 84 -10 56 -15 66 -35 71 -13 4 -30 19 -39 35 -8 17 -23 29 -34
29 -10 0 -23 6 -27 14 -24 40 -113 56 -180 32z"/>
<path d="M3266 9041 c-18 -7 -18 -8 5 -14 13 -4 36 -7 50 -7 14 0 34 -7 45
-15 26 -20 104 -20 104 0 0 11 -12 15 -44 15 -26 0 -48 6 -56 15 -13 16 -71
19 -104 6z"/>
<path d="M3572 9041 c-11 -6 -10 -9 3 -15 28 -10 57 -7 53 7 -6 15 -38 20 -56
8z"/>
<path d="M4500 8995 c-12 -32 -10 -61 5 -58 16 3 30 62 17 75 -8 8 -14 4 -22
-17z"/>
<path d="M1017 8954 c-4 -4 -7 -23 -7 -41 0 -42 23 -41 28 1 4 29 -9 52 -21
40z"/>
<path d="M987 8853 c-4 -3 -7 -35 -7 -70 0 -34 -4 -63 -9 -63 -15 0 -23 -39
-16 -78 5 -26 9 -32 16 -21 5 8 9 28 9 45 0 16 4 34 10 40 13 13 26 154 13
154 -5 0 -13 -3 -16 -7z"/>
<path d="M4953 8853 c-7 -2 -13 -15 -13 -28 0 -13 -5 -27 -10 -30 -13 -8 -3
-51 22 -92 20 -33 18 -86 -3 -98 -5 -4 -9 -16 -9 -28 0 -12 -7 -35 -15 -51 -8
-15 -15 -32 -15 -37 0 -14 -158 -169 -230 -227 -91 -72 -110 -92 -110 -118 0
-34 -20 -72 -47 -90 -33 -21 -40 -11 -24 32 8 21 9 40 4 47 -5 7 -15 37 -23
67 -7 30 -24 75 -37 100 -28 53 -25 88 11 128 62 69 76 85 76 91 0 4 20 19 43
34 24 16 68 51 98 78 72 67 125 109 137 109 6 0 14 9 17 20 7 23 21 26 28 8 4
-10 7 -10 14 -1 5 7 18 16 30 20 16 6 19 12 12 31 -13 34 -45 27 -95 -23 -24
-25 -52 -45 -62 -45 -10 0 -38 -18 -63 -40 -24 -22 -47 -40 -51 -40 -10 0
-169 -159 -211 -212 -20 -25 -37 -52 -37 -58 0 -7 -11 -25 -25 -42 -25 -30
-32 -48 -17 -48 4 0 13 5 19 11 15 15 36 1 28 -18 -3 -9 2 -24 11 -34 9 -10
20 -35 25 -56 4 -21 18 -85 30 -142 l22 -103 -20 -69 -20 -69 23 6 c15 4 24 2
24 -5 0 -17 50 -13 56 4 4 8 14 15 23 15 10 0 26 7 37 15 10 8 32 15 48 15 15
0 68 14 118 30 49 17 102 30 119 30 16 0 37 4 47 9 9 5 62 31 117 57 62 31
101 56 103 67 4 21 -21 23 -38 2 -7 -8 -21 -15 -30 -15 -10 0 -31 -6 -47 -14
-73 -37 -105 -48 -193 -67 -52 -12 -107 -24 -122 -26 -16 -3 -28 -12 -28 -20
0 -13 -9 -14 -50 -9 -40 5 -52 4 -56 -9 -3 -8 -17 -15 -31 -15 -20 0 -24 -4
-20 -20 4 -16 0 -20 -19 -20 -17 0 -24 6 -24 19 0 11 5 23 10 26 6 3 10 14 10
23 0 30 47 119 84 160 20 22 36 47 36 56 0 15 9 19 40 17 10 0 11 1 3 5 -24
11 -13 32 27 53 22 12 47 21 55 21 20 0 30 21 14 31 -7 4 -10 12 -5 16 5 4 11
2 13 -4 9 -26 44 -11 98 41 30 30 55 57 55 60 0 3 -9 6 -21 6 -11 0 -19 3 -17
8 2 4 25 51 51 105 47 96 48 100 42 165 -3 37 -7 95 -8 130 -2 59 -6 67 -34
55z m-63 -476 c0 -2 -9 -12 -19 -21 -19 -17 -19 -17 -14 3 3 12 12 21 19 21 8
0 14 -2 14 -3z"/>
<path d="M5185 8710 c-9 -15 21 -23 52 -15 21 5 24 8 12 16 -19 12 -56 11 -64
-1z"/>
<path d="M5620 8713 c-14 -2 -34 -8 -45 -13 -11 -5 -28 -10 -38 -12 -10 -2
-17 -7 -15 -13 4 -15 59 -7 79 11 10 9 22 13 28 10 14 -9 62 4 55 15 -5 9 -19
10 -64 2z"/>
<path d="M6016 8675 c-3 -8 -12 -15 -19 -15 -20 0 -81 -31 -90 -47 -4 -7 -15
-13 -23 -13 -8 0 -17 -7 -20 -15 -4 -8 -15 -15 -25 -15 -11 0 -22 -7 -25 -15
-4 -8 -19 -15 -35 -15 -16 0 -32 -7 -38 -17 -9 -15 -12 -15 -20 -4 -12 19 -73
-4 -109 -41 -15 -15 -33 -28 -40 -28 -7 0 -31 -13 -54 -30 -22 -16 -45 -30
-50 -30 -15 0 -127 -89 -138 -110 -6 -10 -24 -34 -40 -52 -18 -20 -30 -43 -30
-60 0 -45 27 -33 67 30 47 74 62 88 161 152 45 29 82 57 82 62 0 4 6 8 14 8 8
0 16 3 18 8 8 19 71 52 100 52 70 0 107 11 110 34 2 13 11 22 26 24 12 2 22 8
22 13 0 5 11 14 25 19 14 5 25 13 25 18 0 5 13 7 30 4 23 -3 36 3 60 27 27 26
34 29 50 18 31 -19 60 -140 65 -268 1 -30 5 -61 9 -68 11 -17 -28 -53 -42 -39
-13 13 -48 -5 -62 -32 -6 -11 -17 -20 -25 -20 -8 0 -30 -13 -48 -30 -19 -16
-39 -30 -43 -30 -5 0 -23 -14 -41 -30 -18 -17 -42 -30 -53 -30 -25 0 -81 -29
-93 -47 -4 -7 -14 -13 -22 -13 -8 0 -34 -13 -58 -30 -25 -16 -49 -30 -55 -30
-5 0 -15 -7 -22 -15 -7 -8 -21 -15 -31 -15 -11 0 -19 -4 -19 -9 0 -5 -10 -12
-22 -16 -45 -12 -98 -38 -98 -48 0 -5 -8 -16 -17 -23 -10 -7 -14 -16 -10 -21
5 -4 14 0 21 10 7 9 25 17 39 17 14 0 29 5 32 11 4 6 14 8 22 4 14 -5 83 38
91 57 2 4 17 8 33 8 32 0 76 24 97 52 7 9 19 15 27 12 7 -3 22 4 32 15 9 12
23 21 29 21 6 0 17 7 24 15 7 8 20 15 29 15 9 0 31 14 50 30 18 17 40 30 47
30 8 0 14 5 14 11 0 7 11 9 28 6 23 -5 35 2 69 34 23 21 52 40 65 41 22 3 23
0 20 -52 -3 -48 -8 -59 -38 -87 -19 -18 -41 -33 -48 -33 -15 0 -86 -72 -86
-87 0 -6 -12 -19 -27 -28 -16 -10 -39 -29 -52 -41 -19 -19 -21 -25 -8 -29 9
-4 30 8 53 29 22 20 64 55 95 78 31 24 65 55 75 70 23 34 38 35 58 6 22 -32
20 -106 -4 -143 -14 -22 -18 -39 -14 -65 4 -26 1 -40 -10 -49 -9 -7 -16 -23
-16 -35 0 -12 -7 -31 -15 -42 -8 -11 -14 -42 -15 -74 0 -48 4 -60 30 -89 29
-31 30 -35 18 -67 -6 -19 -21 -37 -31 -40 -11 -3 -30 -18 -42 -32 -12 -14 -38
-32 -56 -38 -25 -9 -29 -13 -13 -13 27 -1 34 -19 34 -81 0 -67 -13 -96 -49
-108 -17 -6 -36 -23 -43 -37 -14 -30 -34 -27 -30 5 2 21 0 22 -40 16 -24 -4
-52 -8 -63 -7 -11 0 -65 0 -119 0 -70 1 -104 -3 -115 -12 -9 -8 -24 -17 -33
-20 -10 -4 -18 -13 -18 -21 0 -12 20 -15 118 -15 98 1 175 -2 263 -10 8 0 25
-15 38 -31 22 -30 22 -32 7 -103 -8 -40 -22 -85 -30 -102 -9 -16 -16 -51 -16
-77 0 -26 -4 -50 -10 -53 -5 -3 -10 -19 -10 -35 0 -19 -7 -33 -20 -40 -11 -6
-20 -16 -20 -23 0 -7 -14 -27 -31 -45 -25 -26 -34 -30 -50 -21 -22 11 -39 4
-39 -17 0 -8 9 -14 21 -14 17 0 20 -4 14 -28 -4 -20 -1 -33 9 -41 17 -15 36
-7 36 15 0 13 26 61 40 74 51 47 100 148 100 208 0 19 6 48 14 65 25 56 56
156 56 182 0 13 -9 33 -21 43 -15 15 -20 29 -17 58 3 34 7 40 34 48 46 14 57
40 58 134 1 92 -2 86 95 162 29 23 32 29 26 65 -3 22 -14 49 -25 60 -34 37
-54 125 -31 139 15 9 51 90 51 114 0 11 4 23 9 26 12 8 29 113 35 214 4 76 3
82 -14 77 -15 -5 -19 1 -24 32 -5 31 4 149 15 188 4 16 -12 88 -27 115 -7 14
-16 46 -19 72 -3 26 -10 50 -16 53 -5 4 -9 15 -9 25 0 26 -57 90 -80 90 -10 0
-20 -7 -24 -15z"/>
<path d="M5440 8670 c0 -5 7 -10 15 -10 8 0 15 5 15 10 0 6 -7 10 -15 10 -8 0
-15 -4 -15 -10z"/>
<path d="M1317 8593 c-5 -23 -15 -44 -23 -47 -10 -4 -14 -22 -14 -61 0 -40 -4
-57 -15 -61 -11 -4 -15 -21 -15 -59 0 -34 -5 -57 -15 -65 -10 -8 -15 -31 -15
-64 -1 -28 -7 -62 -15 -76 -9 -15 -14 -54 -15 -101 0 -50 -5 -82 -15 -95 -9
-11 -14 -42 -15 -78 0 -38 -5 -65 -15 -76 -10 -11 -15 -42 -16 -102 -1 -64 -5
-88 -15 -92 -10 -4 -14 -27 -14 -89 0 -58 -4 -89 -15 -103 -9 -12 -14 -42 -15
-80 0 -34 -7 -81 -15 -104 -8 -23 -15 -76 -15 -117 0 -44 -6 -89 -15 -111 -10
-23 -15 -62 -14 -107 1 -43 -5 -88 -15 -118 -10 -31 -16 -84 -17 -150 0 -56
-5 -104 -10 -108 -5 -3 -13 -57 -18 -120 -5 -63 -14 -150 -20 -194 -15 -117
-31 -289 -42 -463 -5 -84 -13 -162 -19 -172 -5 -10 -10 -66 -10 -123 0 -67 -5
-120 -15 -147 -11 -31 -15 -86 -15 -199 0 -95 -6 -179 -14 -216 -9 -40 -13
-120 -12 -240 1 -233 19 -251 27 -28 4 90 10 171 14 180 3 10 10 110 15 221 5
125 12 208 19 215 7 7 11 54 12 117 0 58 5 128 10 155 6 28 14 119 19 203 4
84 13 165 18 180 6 15 13 83 15 152 3 69 10 137 16 153 6 15 11 87 12 159 1
83 7 147 15 172 8 21 14 69 14 106 0 37 6 85 14 106 7 22 14 85 15 142 1 67 6
111 15 125 8 12 16 61 20 109 3 48 11 99 16 113 6 14 10 57 10 94 0 39 5 72
12 79 7 7 14 52 16 107 3 64 9 98 18 106 8 7 14 31 14 58 0 25 7 77 15 116 8
38 15 92 15 120 0 28 7 59 15 69 9 12 15 43 15 80 1 34 7 72 15 86 8 14 14 41
15 61 0 20 7 53 15 72 8 20 15 56 15 80 0 27 6 49 15 57 10 8 15 31 15 69 0
31 5 62 11 68 6 6 9 26 7 44 l-3 34 -8 -42z"/>
<path d="M3505 8620 c-3 -5 0 -13 8 -16 23 -9 177 0 180 11 3 14 -179 19 -188
5z"/>
<path d="M3805 8610 c-3 -5 -19 -10 -35 -10 -38 0 -48 -18 -15 -26 36 -9 72 3
78 26 5 21 -16 29 -28 10z"/>
<path d="M928 8505 c-3 -38 -4 -72 -2 -74 11 -11 15 13 12 75 l-3 69 -7 -70z"/>
<path d="M897 8413 c-10 -9 -8 -85 2 -101 12 -19 21 8 21 64 0 41 -8 53 -23
37z"/>
<path d="M4160 8385 c-10 -12 -10 -15 4 -15 9 0 16 7 16 15 0 8 -2 15 -4 15
-2 0 -9 -7 -16 -15z"/>
<path d="M3261 8351 c-17 -11 -6 -31 18 -31 27 0 81 21 81 31 0 12 -81 12 -99
0z"/>
<path d="M3643 8313 c9 -2 25 -2 35 0 9 3 1 5 -18 5 -19 0 -27 -2 -17 -5z"/>
<path d="M3314 8289 c-2 -5 8 -15 24 -23 23 -12 36 -13 66 -4 20 6 35 16 33
21 -4 12 -116 17 -123 6z"/>
<path d="M4310 8230 c0 -5 7 -10 15 -10 8 0 15 5 15 10 0 6 -7 10 -15 10 -8 0
-15 -4 -15 -10z"/>
<path d="M870 8230 c-1 -3 -4 -35 -7 -72 -3 -45 -1 -68 6 -68 17 0 24 47 13
97 -5 27 -11 46 -12 43z"/>
<path d="M4230 8223 c0 -13 59 -45 70 -38 17 10 11 22 -12 28 -13 2 -31 8 -40
12 -10 4 -18 3 -18 -2z"/>
<path d="M3985 8152 c-31 -33 -35 -43 -35 -89 0 -48 3 -54 30 -68 16 -8 35
-15 43 -15 22 0 94 68 105 99 9 24 7 32 -14 52 -63 64 -84 68 -129 21z m85
-61 c0 -30 -34 -66 -52 -55 -12 8 -10 58 4 72 23 23 48 14 48 -17z"/>
<path d="M5200 8120 c-14 -10 -22 -21 -19 -25 4 -3 20 5 35 19 34 30 21 35
-16 6z"/>
<path d="M8120 8006 c0 -13 -7 -29 -15 -36 -10 -8 -15 -30 -15 -62 0 -27 -6
-59 -14 -71 -10 -16 -16 -68 -19 -182 -3 -88 -8 -176 -12 -195 -4 -19 -9 -92
-12 -162 -3 -94 -8 -130 -19 -138 -10 -9 -14 -35 -14 -94 -1 -44 -7 -99 -15
-121 -9 -24 -15 -78 -15 -136 0 -77 -3 -98 -15 -103 -12 -4 -15 -24 -15 -91 0
-47 4 -85 9 -85 11 0 21 60 21 126 0 34 5 54 14 57 9 4 15 36 18 112 3 59 11
112 17 118 7 7 11 52 11 113 0 79 3 103 14 107 11 4 15 35 19 129 3 68 10 148
16 178 6 30 11 119 12 198 0 113 3 144 15 149 16 6 35 68 28 88 -3 8 1 24 10
37 9 12 16 37 16 55 0 26 -4 33 -20 33 -14 0 -20 -7 -20 -24z"/>
<path d="M5780 7990 c0 -5 7 -10 15 -10 8 0 15 5 15 10 0 6 -7 10 -15 10 -8 0
-15 -4 -15 -10z"/>
<path d="M3390 7905 l-25 -14 33 -1 c22 0 32 5 32 15 0 18 -8 18 -40 0z"/>
<path d="M2801 7836 c-6 -7 -6 -18 -1 -25 7 -12 14 -11 44 3 21 10 45 14 61
10 33 -8 84 4 65 16 -21 13 -158 10 -169 -4z"/>
<path d="M6045 7841 c-6 -6 -39 -21 -75 -34 -35 -14 -66 -30 -68 -36 -6 -17
54 -13 68 4 7 8 25 15 40 15 15 0 33 6 40 14 6 8 21 16 33 18 12 2 21 8 20 13
-3 14 -46 18 -58 6z"/>
<path d="M4383 7745 c-44 -44 -85 -75 -97 -75 -24 0 -106 -36 -106 -45 0 -11
44 -44 58 -45 6 0 12 -11 12 -24 0 -14 11 -37 25 -51 18 -21 23 -34 18 -56 -4
-22 -2 -29 10 -29 8 0 24 -12 35 -27 16 -21 24 -25 32 -17 9 9 20 8 43 -4 17
-9 50 -15 72 -13 22 1 54 -5 70 -13 17 -9 41 -16 55 -16 15 0 32 -6 39 -12 8
-9 38 -12 88 -11 75 2 98 -6 148 -52 7 -5 28 -19 48 -30 20 -11 37 -23 37 -27
0 -5 8 -8 17 -8 9 0 24 -6 32 -13 27 -23 162 -55 209 -50 86 10 22 37 -142 60
-23 3 -66 23 -103 49 -35 24 -68 44 -72 44 -4 0 -16 9 -26 20 -10 11 -24 20
-30 20 -7 0 -17 6 -23 13 -7 8 -40 13 -89 15 -42 1 -82 7 -87 12 -6 6 -22 10
-36 10 -14 0 -35 7 -46 15 -10 8 -32 15 -49 15 -38 0 -112 26 -131 45 -8 8
-21 12 -29 9 -10 -4 -15 0 -15 15 0 12 -6 21 -15 21 -9 0 -19 8 -22 18 -4 9
-13 23 -20 30 -17 18 -17 52 1 52 8 0 12 8 9 23 -3 17 3 25 29 36 18 8 46 27
62 43 17 15 49 37 73 49 39 19 57 39 34 39 -5 0 -11 9 -14 20 -3 11 -10 20
-16 20 -6 0 -45 -34 -88 -75z"/>
<path d="M806 7781 c-4 -5 -3 -23 0 -38 l7 -28 8 30 c8 29 -3 56 -15 36z"/>
<path d="M4825 7750 c-8 -13 15 -24 27 -12 6 6 4 11 -6 15 -8 3 -18 2 -21 -3z"/>
<path d="M5172 7752 c-9 -7 -8 -13 8 -27 23 -21 47 -8 37 19 -7 17 -25 20 -45
8z"/>
<path d="M5791 7751 c-15 -10 -5 -14 52 -23 26 -4 22 -22 -5 -26 -35 -5 -42
-19 -14 -26 17 -4 35 -1 51 10 14 9 44 16 67 16 31 -1 48 5 65 23 17 16 21 25
12 31 -7 4 -17 0 -24 -9 -15 -21 -82 -22 -109 -2 -22 17 -73 20 -95 6z"/>
<path d="M4908 7743 c-25 -3 -38 -9 -38 -19 0 -21 22 -27 61 -16 32 8 56 44
27 40 -7 -1 -30 -3 -50 -5z"/>
<path d="M5000 7720 c0 -5 12 -10 26 -10 14 0 23 4 19 10 -3 6 -15 10 -26 10
-10 0 -19 -4 -19 -10z"/>
<path d="M5699 7711 c-21 -17 -22 -20 -7 -26 17 -7 68 20 68 36 0 16 -37 10
-61 -10z"/>
<path d="M5550 7640 c-19 -11 -43 -19 -52 -20 -18 0 -42 -34 -36 -51 2 -5 19
0 38 10 19 11 50 26 68 35 17 8 32 22 32 30 0 20 -7 20 -50 -4z"/>
<path d="M4672 7628 c-7 -7 -35 -15 -63 -18 -61 -6 -65 -22 -7 -33 70 -13 118
-29 129 -44 7 -8 34 -13 74 -13 59 0 63 -2 69 -26 6 -22 11 -25 35 -19 17 3
32 2 36 -4 3 -6 26 -11 50 -11 25 0 50 -6 59 -15 17 -17 46 -20 46 -4 0 26
-22 49 -48 49 -15 0 -43 3 -63 6 -30 5 -36 10 -32 25 4 12 -1 21 -13 24 -11 3
-32 13 -47 21 -16 7 -44 14 -62 14 -25 0 -40 8 -58 30 -19 22 -34 30 -59 30
-19 0 -40 -6 -46 -12z"/>
<path d="M1735 7599 c-10 -15 1 -23 20 -15 9 3 13 10 10 16 -8 13 -22 13 -30
-1z"/>
<path d="M5343 7533 c-14 -5 -18 -33 -5 -33 4 0 18 9 32 20 23 18 23 20 5 19
-11 0 -26 -3 -32 -6z"/>
<path d="M3673 7500 c-3 -11 -13 -20 -22 -21 -9 0 -11 -3 -4 -5 14 -6 73 23
73 36 0 19 -42 10 -47 -10z"/>
<path d="M776 7495 c-3 -10 -3 -34 1 -54 l7 -36 8 38 c9 43 -3 84 -16 52z"/>
<path d="M3590 7444 c0 -9 5 -14 12 -12 18 6 21 28 4 28 -9 0 -16 -7 -16 -16z"/>
<path d="M5993 7448 c2 -7 16 -13 32 -13 16 0 30 6 33 13 2 8 -8 12 -33 12
-25 0 -35 -4 -32 -12z"/>
<path d="M3530 7414 c0 -9 7 -14 17 -12 25 5 28 28 4 28 -12 0 -21 -6 -21 -16z"/>
<path d="M5721 7416 c-7 -8 -31 -16 -54 -18 -40 -3 -60 -21 -34 -31 7 -3 35
-1 61 4 49 9 121 -1 163 -23 24 -12 58 -4 48 12 -3 5 -18 10 -31 10 -33 0 -27
24 7 28 47 5 69 12 69 22 0 14 -107 13 -116 -1 -6 -11 -55 -8 -85 5 -9 4 -21
1 -28 -8z"/>
<path d="M5382 7359 c2 -27 8 -35 27 -37 13 -2 34 2 47 8 17 10 33 10 68 1 58
-14 66 -14 66 3 0 18 -43 34 -110 39 -30 3 -65 9 -78 13 -22 6 -23 4 -20 -27z"/>
<path d="M1310 7355 c0 -10 10 -15 30 -15 20 0 30 5 30 15 0 10 -10 15 -30 15
-20 0 -30 -5 -30 -15z"/>
<path d="M5233 7354 c-3 -8 -2 -19 3 -24 13 -12 79 -17 81 -5 1 6 -7 9 -17 8
-11 -2 -24 6 -30 17 -13 24 -28 26 -37 4z"/>
<path d="M3415 7329 c-10 -15 3 -25 16 -12 7 7 7 13 1 17 -6 3 -14 1 -17 -5z"/>
<path d="M4080 7309 c0 -10 12 -25 28 -33 23 -12 25 -15 10 -21 -35 -14 -15
-41 51 -70 52 -23 65 -20 45 10 -11 17 -25 25 -45 25 -35 0 -38 17 -5 26 29 7
46 -1 46 -22 0 -9 11 -14 30 -14 17 0 30 -4 30 -10 0 -5 12 -13 28 -16 15 -4
35 -13 44 -22 11 -9 29 -13 48 -10 34 5 47 -6 31 -26 -9 -11 -6 -12 13 -9 19
4 25 0 30 -22 4 -14 14 -29 24 -32 17 -7 28 -15 57 -40 7 -7 18 -13 23 -13 4
0 31 -16 58 -36 46 -33 52 -35 99 -28 28 4 66 8 85 8 19 1 37 6 40 11 6 12
-67 26 -127 25 -23 0 -44 4 -47 9 -4 5 -27 20 -52 33 -25 12 -69 49 -98 80
-28 32 -59 58 -68 58 -9 0 -20 5 -23 10 -3 6 -17 10 -30 10 -13 0 -30 7 -39
15 -8 8 -23 15 -33 15 -11 0 -28 7 -39 15 -10 8 -29 15 -40 15 -12 0 -27 7
-34 15 -7 8 -23 15 -36 15 -13 0 -31 8 -41 19 -27 27 -63 34 -63 10z"/>
<path d="M1467 7293 c-11 -10 -8 -43 3 -43 15 0 24 30 13 41 -5 5 -12 6 -16 2z"/>
<path d="M746 7274 c-4 -10 -2 -22 3 -27 7 -7 13 -5 17 7 4 10 2 22 -3 27 -7
7 -13 5 -17 -7z"/>
<path d="M3818 7259 c-22 -23 -23 -58 -3 -65 8 -3 17 -14 20 -24 4 -12 12 -16
27 -12 13 3 24 -1 30 -12 5 -9 15 -16 23 -16 26 0 72 -56 113 -139 23 -46 42
-91 42 -101 0 -19 -131 -223 -150 -235 -25 -15 -60 -87 -66 -134 -5 -40 -2
-64 17 -113 23 -64 43 -102 66 -126 7 -7 13 -20 13 -27 0 -8 9 -30 21 -49 12
-20 16 -36 10 -36 -6 0 -11 -4 -11 -9 0 -4 25 -11 56 -15 31 -3 69 -13 84 -21
16 -8 47 -15 69 -15 22 0 42 -4 45 -9 3 -5 15 -7 26 -4 11 3 26 1 33 -4 6 -5
40 -10 75 -12 34 -1 74 -9 90 -17 15 -7 47 -14 72 -14 25 0 54 -6 65 -14 12
-7 61 -15 119 -19 54 -3 103 -10 109 -16 6 -6 30 -11 53 -11 28 0 44 -5 48
-15 5 -15 88 -20 130 -8 28 8 0 23 -44 23 -20 0 -61 9 -93 20 -31 11 -65 20
-76 20 -11 0 -22 4 -25 9 -7 10 -53 20 -116 26 -119 9 -155 18 -173 39 -16 20
-18 20 -31 3 -11 -14 -18 -16 -41 -7 -15 6 -53 10 -84 9 -36 -1 -66 4 -82 13
-13 8 -49 16 -79 17 -30 2 -63 9 -74 17 -11 8 -35 14 -52 14 -26 0 -32 4 -37
28 -3 15 -14 36 -24 47 -10 11 -30 38 -43 60 -13 22 -28 43 -33 46 -5 4 -7 16
-5 28 3 21 3 21 30 -4 15 -14 36 -25 47 -25 11 0 24 -6 28 -14 4 -7 23 -17 41
-21 30 -6 33 -5 30 12 -2 12 -14 19 -33 21 -17 2 -34 10 -38 18 -4 8 -16 14
-26 14 -11 0 -21 7 -25 15 -3 8 -12 15 -21 15 -8 0 -15 4 -15 10 0 5 -12 13
-26 16 -22 6 -25 10 -19 33 3 14 8 35 9 46 1 11 17 40 34 64 18 24 32 50 32
57 0 15 67 107 81 112 5 2 9 12 9 22 0 23 26 44 45 36 8 -3 15 -13 15 -22 0
-21 58 -114 71 -114 23 0 18 33 -10 69 -17 21 -31 43 -31 49 0 5 -7 15 -15 22
-18 15 -20 71 -3 88 9 9 7 12 -10 12 -15 0 -24 8 -28 25 -3 14 -10 25 -14 25
-5 0 -12 10 -15 23 -13 41 -39 97 -46 97 -4 0 -10 8 -14 19 -3 10 -25 31 -48
47 -51 34 -96 81 -108 112 -10 26 -18 27 -41 1z"/>
<path d="M1307 7232 c-15 -15 -27 -31 -27 -35 0 -13 51 -7 66 7 7 8 19 16 26
18 18 6 1 38 -20 38 -10 0 -30 -13 -45 -28z"/>
<path d="M3257 7214 c-14 -14 -7 -25 13 -22 12 2 21 8 21 13 0 12 -24 18 -34
9z"/>
<path d="M3133 7141 c-39 -19 -47 -57 -10 -45 12 3 29 12 37 19 8 6 23 15 33
18 9 4 17 11 17 17 0 14 -39 10 -77 -9z"/>
<path d="M3566 7145 c-19 -49 12 -77 35 -32 7 12 17 25 23 29 7 5 5 8 -6 8 -9
0 -23 3 -31 6 -8 3 -17 -2 -21 -11z"/>
<path d="M3524 7047 c-32 -35 -58 -93 -51 -111 8 -21 27 -12 27 13 0 10 7 24
15 31 8 7 15 22 15 34 0 12 5 27 12 34 6 6 9 14 7 17 -3 3 -14 -5 -25 -18z"/>
<path d="M866 7025 c-4 -16 -3 -32 3 -38 15 -15 24 14 13 43 l-9 24 -7 -29z"/>
<path d="M5595 7000 l-30 -7 30 -8 c17 -4 39 -14 50 -21 21 -15 179 -18 225
-5 22 6 19 8 -20 14 -25 3 -76 6 -115 7 -45 0 -75 6 -85 15 -9 8 -18 14 -21
14 -2 -1 -17 -5 -34 -9z"/>
<path d="M3056 6983 c-12 -12 -6 -33 9 -33 8 0 15 6 15 14 0 17 -14 28 -24 19z"/>
<path d="M718 6922 c-1 -31 0 -73 3 -92 4 -22 7 -1 8 58 1 102 -5 124 -11 34z"/>
<path d="M5070 6940 c0 -5 9 -10 20 -10 11 0 20 5 20 10 0 6 -9 10 -20 10 -11
0 -20 -4 -20 -10z"/>
<path d="M844 6905 c-7 -19 -14 -43 -14 -54 0 -32 19 -34 25 -4 4 15 8 35 9
43 2 8 7 23 11 33 4 10 3 17 -4 17 -7 0 -19 -16 -27 -35z"/>
<path d="M5143 6928 c-43 -20 -21 -39 35 -30 32 4 32 5 16 23 -19 22 -21 22
-51 7z"/>
<path d="M3652 6918 c2 -6 10 -14 16 -16 7 -2 10 2 6 12 -7 18 -28 22 -22 4z"/>
<path d="M3735 6909 c-4 -6 2 -21 14 -33 15 -15 21 -35 21 -65 0 -35 3 -42 18
-39 24 5 23 96 -1 110 -9 5 -17 16 -17 23 0 17 -26 20 -35 4z"/>
<path d="M4700 6906 c0 -9 7 -16 16 -16 17 0 14 22 -4 28 -7 2 -12 -3 -12 -12z"/>
<path d="M3440 6871 c0 -17 4 -33 10 -36 11 -7 25 39 15 54 -12 21 -25 11 -25
-18z"/>
<path d="M4160 6885 c0 -8 8 -24 18 -34 95 -104 94 -103 126 -98 17 2 39 7 49
12 10 4 17 3 17 -3 0 -16 49 -62 65 -62 8 0 19 -9 25 -20 6 -11 19 -20 30 -20
11 0 24 -9 30 -20 7 -13 21 -20 40 -20 16 0 41 -5 55 -10 25 -9 26 -8 23 17
-2 20 -10 29 -33 35 -17 4 -46 23 -65 42 -22 22 -45 35 -61 36 -15 0 -32 7
-39 15 -7 8 -23 15 -37 15 -13 0 -26 7 -29 15 -4 8 -14 15 -23 15 -9 0 -27 7
-39 16 -19 13 -26 14 -39 3 -13 -11 -18 -10 -34 10 -11 13 -19 31 -19 41 0 10
-10 20 -22 24 -34 9 -38 8 -38 -9z"/>
<path d="M4985 6840 c-13 -15 -15 -24 -8 -31 8 -8 13 -8 17 0 4 6 36 11 72 11
60 0 65 -2 74 -25 11 -28 22 -31 40 -10 14 16 66 10 90 -11 10 -8 30 -11 58
-7 51 7 51 25 -2 34 -20 3 -47 11 -59 17 -54 27 -123 42 -191 42 -60 0 -76 -3
-91 -20z"/>
<path d="M5377 6764 c-11 -12 3 -24 28 -24 13 0 26 4 29 9 10 15 -43 29 -57
15z"/>
<path d="M5296 6745 c-19 -14 -14 -35 8 -35 8 0 19 -7 26 -15 7 -8 23 -15 36
-15 13 0 24 -4 24 -10 0 -5 7 -10 15 -10 24 0 18 38 -7 46 -13 4 -36 17 -53
30 -26 19 -32 21 -49 9z"/>
<path d="M3386 6743 c-3 -3 -6 -13 -6 -20 0 -8 -7 -21 -16 -30 -16 -17 -16
-78 1 -78 6 0 11 17 13 37 2 20 10 42 18 48 8 7 14 18 14 26 0 15 -15 26 -24
17z"/>
<path d="M811 6695 l1 -50 8 40 c5 22 4 44 -1 50 -5 5 -9 -11 -8 -40z"/>
<path d="M5452 6723 c2 -13 11 -17 29 -15 20 2 28 -2 32 -18 4 -17 10 -20 28
-15 20 7 21 5 15 -21 -6 -24 -5 -26 9 -14 20 17 39 0 31 -28 -9 -26 -47 -37
-62 -17 -14 19 -24 19 -24 0 0 -16 38 -35 71 -35 10 0 19 5 19 10 0 39 99 71
101 33 0 -10 3 -13 5 -6 8 19 -15 53 -37 53 -11 0 -22 7 -25 15 -4 8 -18 15
-33 15 -14 0 -35 7 -45 15 -11 8 -27 15 -37 15 -9 0 -19 7 -23 15 -8 22 -58
20 -54 -2z"/>
<path d="M687 6641 c-10 -88 -9 -151 2 -151 14 0 22 98 13 160 l-8 55 -7 -64z"/>
<path d="M5420 6630 c0 -24 45 -49 60 -34 5 5 7 19 4 32 -9 30 -64 32 -64 2z"/>
<path d="M5782 6628 c-31 -31 -2 -38 30 -8 21 19 21 20 2 20 -11 0 -25 -5 -32
-12z"/>
<path d="M805 6617 c-4 -10 -5 -21 -1 -24 10 -10 18 4 13 24 -4 17 -4 17 -12
0z"/>
<path d="M1070 6611 c-12 -9 -12 -11 2 -16 23 -9 83 -2 83 10 0 13 -66 18 -85
6z"/>
<path d="M3054 6606 c-8 -21 3 -49 16 -41 5 3 10 15 10 25 0 25 -18 36 -26 16z"/>
<path d="M4220 6595 c0 -14 7 -28 15 -31 8 -4 15 -11 15 -17 0 -6 19 -30 43
-53 58 -56 100 -106 109 -126 9 -22 28 -24 28 -3 0 19 -29 67 -47 78 -7 4 -13
13 -13 19 0 6 -29 39 -65 74 -36 35 -65 68 -65 74 0 5 -4 10 -10 10 -5 0 -10
-11 -10 -25z"/>
<path d="M1226 6603 c-3 -3 -6 -15 -6 -25 0 -19 25 -24 48 -9 11 6 11 10 0 18
-23 18 -35 23 -42 16z"/>
<path d="M1385 6580 c-17 -6 -14 -9 17 -15 37 -7 58 -2 58 16 0 11 -47 11 -75
-1z"/>
<path d="M7802 6550 c0 -19 2 -27 5 -17 2 9 2 25 0 35 -3 9 -5 1 -5 -18z"/>
<path d="M779 6568 c-7 -19 -6 -158 1 -158 12 0 11 -4 15 82 2 38 -1 70 -6 74
-5 3 -10 4 -10 2z"/>
<path d="M1585 6550 c3 -5 31 -10 62 -10 71 0 61 13 -13 17 -36 2 -53 0 -49
-7z"/>
<path d="M1725 6550 c-8 -12 20 -24 35 -15 6 3 8 11 5 16 -8 12 -32 12 -40 -1z"/>
<path d="M5615 6550 c-18 -8 -17 -9 8 -9 15 -1 27 4 27 9 0 12 -8 12 -35 0z"/>
<path d="M1315 6512 c-2 -2 -56 -4 -121 -3 -64 0 -128 -2 -141 -5 -27 -7 -31
-34 -5 -35 9 0 105 -1 212 -3 107 -1 204 -5 215 -7 12 -2 20 2 23 12 2 13 -15
19 -88 30 -50 8 -93 13 -95 11z"/>
<path d="M2760 6474 c0 -14 3 -14 15 -4 8 7 15 14 15 16 0 2 -7 4 -15 4 -8 0
-15 -7 -15 -16z"/>
<path d="M7915 6461 c-3 -11 -5 -58 -4 -105 2 -49 -2 -90 -8 -98 -6 -7 -14
-44 -18 -83 -4 -38 -12 -73 -18 -76 -5 -4 -12 -30 -15 -59 -4 -41 -2 -52 8
-48 16 5 41 102 44 170 2 26 8 53 14 60 15 19 28 243 14 252 -6 3 -13 -3 -17
-13z"/>
<path d="M1507 6464 c-12 -12 -8 -44 6 -44 50 -2 141 -11 148 -16 15 -9 10
-176 -7 -264 -9 -49 -13 -99 -9 -123 10 -54 25 -29 25 43 0 30 7 66 15 80 9
17 14 56 15 118 0 119 16 152 71 152 35 0 37 -2 42 -37 10 -73 6 -263 -7 -345
-12 -71 -12 -85 0 -98 32 -33 39 3 44 219 6 243 6 244 84 236 29 -2 67 -11 86
-19 30 -12 117 -21 173 -17 9 0 17 8 17 16 0 12 -15 15 -74 15 -52 0 -75 4
-79 13 -4 10 -26 13 -84 12 -50 -1 -99 4 -138 16 -33 10 -105 23 -160 30 -55
6 -114 14 -130 16 -17 3 -33 1 -38 -3z"/>
<path d="M5716 6395 c-14 -13 -26 -33 -26 -45 0 -18 -6 -20 -59 -20 -33 0 -62
-4 -65 -9 -7 -10 -93 -3 -121 10 -11 5 -40 13 -65 19 -64 13 -128 29 -181 46
-52 16 -129 19 -129 5 0 -5 -14 -12 -31 -16 -34 -8 -34 -28 1 -33 14 -2 27 3
32 12 12 22 93 22 102 1 3 -8 14 -15 25 -15 19 0 76 -21 111 -41 8 -5 33 -17
56 -27 53 -25 95 -67 81 -81 -17 -17 2 -27 24 -13 26 17 39 7 39 -29 0 -42 17
-36 41 16 18 37 19 50 10 76 -6 18 -11 33 -11 33 0 10 91 1 107 -9 32 -21 43
-19 43 9 0 13 7 29 15 36 8 7 15 18 15 25 0 7 7 18 15 25 16 13 21 50 6 50 -4
0 -20 -11 -35 -25z"/>
<path d="M755 6371 c-3 -6 -9 -43 -12 -81 -3 -39 -10 -73 -14 -76 -5 -3 -9
-33 -8 -67 0 -67 15 -54 20 19 1 21 8 46 15 54 7 8 14 45 15 82 2 67 -3 89
-16 69z"/>
<path d="M4484 6365 c-4 -8 -15 -15 -25 -15 -10 0 -19 -7 -19 -15 0 -11 10
-14 43 -11 62 6 140 -11 155 -33 10 -15 21 -17 56 -14 26 3 46 1 50 -6 4 -6
20 -11 36 -11 28 0 53 -20 34 -27 -29 -10 -39 -22 -27 -34 10 -10 18 -8 37 10
16 15 33 21 52 19 37 -4 41 -22 7 -35 -25 -9 -26 -11 -9 -18 13 -6 23 -3 31 8
14 20 46 22 62 6 7 -7 34 -20 62 -29 51 -19 65 -27 110 -70 14 -14 37 -31 51
-38 14 -7 36 -19 50 -27 36 -21 70 -19 70 3 0 12 -16 25 -50 40 -27 12 -50 26
-50 32 0 5 -10 10 -22 10 -12 0 -35 16 -54 39 -24 27 -47 42 -78 50 -25 6 -48
15 -51 21 -3 5 -19 10 -34 10 -15 0 -36 7 -47 15 -10 8 -30 15 -44 15 -14 0
-34 6 -45 13 -28 19 -107 47 -131 47 -11 0 -29 7 -40 15 -10 8 -30 15 -44 15
-14 0 -38 7 -54 15 -36 19 -75 19 -82 0z"/>
<path d="M2234 6355 c-26 -20 -5 -33 55 -34 59 0 81 7 81 25 0 11 -12 14 -48
13 -27 -1 -53 1 -59 4 -6 4 -19 0 -29 -8z"/>
<path d="M656 6335 c-9 -35 -5 -295 4 -295 7 0 18 119 22 243 2 63 -15 97 -26
52z"/>
<path d="M2390 6340 c0 -40 56 -56 90 -25 15 14 20 13 43 -5 29 -23 122 -29
115 -7 -3 6 -15 13 -29 15 -13 1 -40 7 -59 12 -49 13 -160 20 -160 10z"/>
<path d="M5097 6344 c-11 -12 3 -24 29 -24 15 0 24 6 24 15 0 15 -40 21 -53 9z"/>
<path d="M2765 6293 c-55 -7 -62 -13 -33 -29 25 -13 26 -16 21 -76 -3 -35 -12
-70 -19 -79 -19 -22 -17 -139 2 -139 8 0 14 9 14 19 0 11 5 23 10 26 6 4 7 23
4 44 -4 24 -2 41 5 45 21 13 41 76 31 96 -19 36 8 60 68 60 23 0 31 18 10 25
-26 7 -84 12 -113 8z"/>
<path d="M7736 6280 c-4 -14 -3 -45 2 -70 l8 -45 7 53 c8 58 -6 109 -17 62z"/>
<path d="M4478 6283 c-11 -3 -18 -14 -18 -29 0 -30 11 -31 28 -3 13 21 14 21
35 3 27 -23 63 -44 77 -44 5 0 10 9 10 20 0 13 -14 25 -46 40 -47 20 -55 21
-86 13z"/>
<path d="M5236 6265 c-3 -8 -16 -16 -28 -16 -17 -1 -19 -2 -5 -6 19 -5 77 17
77 29 0 15 -38 8 -44 -7z"/>
<path d="M5297 6223 c-12 -11 -8 -23 8 -23 8 0 19 -9 25 -19 5 -11 37 -40 70
-65 51 -39 64 -45 80 -36 28 15 25 28 -4 23 -17 -4 -27 1 -35 16 -7 12 -18 21
-26 21 -21 0 -19 26 2 34 14 6 15 9 4 16 -9 5 -22 4 -32 -3 -15 -9 -22 -6 -39
16 -21 26 -40 34 -53 20z"/>
<path d="M4465 6200 c-9 -14 4 -52 16 -45 12 8 12 42 0 50 -5 3 -12 1 -16 -5z"/>
<path d="M4644 6171 c21 -23 96 -33 96 -13 0 8 -12 12 -37 10 -22 -1 -38 3
-41 10 -2 7 -11 12 -19 12 -14 0 -14 -2 1 -19z"/>
<path d="M3382 6162 c-19 -13 44 -24 86 -16 28 6 32 4 32 -15 0 -17 -6 -21
-29 -21 -17 0 -33 -5 -36 -11 -4 -5 -18 -14 -32 -20 -29 -11 -22 -29 13 -29
18 0 24 -5 24 -21 0 -11 6 -33 14 -47 7 -15 18 -40 23 -57 4 -16 15 -30 23
-30 21 0 26 68 6 85 -23 18 -19 59 9 105 32 51 32 75 3 75 -13 0 -45 3 -73 6
-27 3 -56 1 -63 -4z"/>
<path d="M4545 6160 c-3 -6 1 -13 10 -16 19 -8 30 0 20 15 -8 14 -22 14 -30 1z"/>
<path d="M3596 6131 c-8 -13 19 -21 72 -21 56 0 132 -27 132 -47 0 -9 8 -13
23 -11 37 5 25 31 -28 60 -41 22 -63 27 -122 27 -39 1 -74 -3 -77 -8z"/>
<path d="M3327 6123 c-4 -3 -7 -13 -7 -21 0 -9 -6 -22 -14 -31 -61 -67 -104
-108 -118 -114 -23 -8 -26 -77 -3 -77 8 0 15 4 15 10 0 15 42 50 61 50 9 0 29
17 44 38 16 20 33 42 39 47 7 6 10 29 8 58 -4 45 -10 55 -25 40z"/>
<path d="M7713 6075 c0 -22 2 -30 4 -17 2 12 2 30 0 40 -3 9 -5 -1 -4 -23z"/>
<path d="M5040 6076 c0 -14 29 -31 38 -22 2 3 2 12 -1 21 -8 19 -37 20 -37 1z"/>
<path d="M716 6038 c-4 -26 -13 -49 -21 -52 -11 -4 -15 -23 -15 -70 0 -63 12
-92 24 -60 3 9 6 41 6 71 0 40 5 59 16 68 14 10 15 19 7 51 l-9 39 -8 -47z"/>
<path d="M4936 6071 c-3 -5 1 -11 9 -15 15 -6 29 7 18 18 -9 9 -21 8 -27 -3z"/>
<path d="M3922 6060 c-20 -9 -22 -14 -16 -47 4 -21 8 -99 8 -173 0 -106 -3
-141 -16 -165 -9 -16 -20 -65 -26 -108 -5 -43 -13 -81 -16 -85 -9 -9 -37 10
-50 34 -6 10 -15 22 -19 25 -10 7 -26 34 -58 97 -12 23 -30 47 -40 53 -11 5
-19 17 -19 25 0 11 -6 13 -19 9 -16 -5 -26 6 -55 55 -20 34 -36 66 -36 73 0
25 -17 39 -39 32 -25 -8 -30 -62 -6 -71 8 -4 15 -10 15 -16 0 -14 127 -174
156 -197 13 -10 24 -23 24 -27 0 -4 17 -25 37 -46 31 -32 35 -40 23 -48 -8 -5
-26 -10 -40 -10 -51 -1 5 -17 82 -24 65 -6 78 -4 86 10 6 11 11 13 16 5 9 -14
46 -14 46 0 0 6 -9 13 -20 16 -19 5 -20 11 -14 87 4 44 12 87 17 95 7 8 12 87
13 204 2 144 6 192 16 198 18 12 -20 11 -50 -1z"/>
<path d="M4046 6041 c-3 -5 1 -12 10 -15 13 -5 15 -32 13 -193 -1 -129 -6
-200 -15 -227 -19 -53 -18 -122 1 -130 21 -8 19 -24 -5 -31 -40 -13 -10 -21
86 -23 67 -2 101 -8 111 -18 16 -16 173 -21 173 -5 0 15 -28 21 -91 21 -33 0
-69 5 -80 10 -10 6 -48 13 -83 17 -62 6 -64 6 -74 41 -6 19 -8 40 -4 46 4 6 9
93 12 194 5 168 7 185 25 198 18 13 21 12 37 -8 15 -20 17 -21 23 -6 9 22 -28
71 -58 78 -13 4 -22 14 -22 25 0 11 -4 23 -10 27 -14 11 -43 10 -49 -1z"/>
<path d="M5410 6040 c-8 -5 -11 -12 -8 -16 10 -9 38 3 38 16 0 12 -10 13 -30
0z"/>
<path d="M3552 6017 c20 -38 87 -107 104 -107 19 0 5 28 -35 69 -16 16 -30 34
-32 39 -2 5 -14 13 -27 17 -23 7 -23 6 -10 -18z"/>
<path d="M626 5935 c-8 -93 0 -158 18 -152 6 2 10 17 9 33 -2 16 -4 68 -5 116
-2 49 -6 88 -9 88 -3 0 -9 -38 -13 -85z"/>
<path d="M4245 6011 c-6 -10 82 -27 91 -18 4 3 3 10 -1 16 -8 13 -82 15 -90 2z"/>
<path d="M5342 6004 c-12 -8 -22 -21 -22 -28 0 -21 -24 -26 -77 -18 -55 9
-143 4 -143 -8 0 -11 54 -20 129 -20 38 -1 76 -7 91 -15 14 -8 41 -14 61 -15
19 0 44 -7 55 -15 10 -8 27 -15 37 -15 10 0 31 -7 47 -15 26 -13 32 -13 59 3
35 20 35 37 0 38 -13 1 -43 2 -66 3 -23 0 -48 8 -57 16 -8 8 -32 15 -54 15
-21 0 -41 3 -45 6 -7 8 13 54 25 54 4 0 8 7 8 15 0 19 -20 19 -48 -1z"/>
<path d="M4423 5984 c-7 -18 12 -34 40 -34 10 0 27 -5 38 -10 11 -6 41 -12 67
-14 26 -2 53 -4 60 -5 6 0 12 -10 12 -21 0 -27 37 -63 57 -56 14 6 14 8 -1 24
-9 10 -16 21 -16 25 0 3 38 8 85 9 97 3 117 20 34 29 -31 3 -61 9 -67 13 -6 4
-22 0 -35 -8 -21 -14 -24 -14 -40 4 -11 14 -29 20 -57 20 -22 0 -57 6 -77 14
-68 26 -93 28 -100 10z"/>
<path d="M7712 5970 c0 -19 2 -27 5 -17 2 9 2 25 0 35 -3 9 -5 1 -5 -18z"/>
<path d="M2750 5928 c-1 -18 -7 -49 -14 -69 -12 -35 -11 -59 3 -59 24 0 46
149 24 157 -9 3 -13 -6 -13 -29z"/>
<path d="M7820 5916 c0 -26 -6 -48 -15 -56 -8 -7 -15 -29 -15 -49 0 -20 -7
-45 -15 -55 -15 -20 -20 -72 -9 -100 11 -29 24 -5 24 44 0 40 4 51 21 61 17 9
20 17 15 42 -4 21 -1 36 10 48 9 10 19 39 21 64 5 41 4 45 -16 45 -18 0 -21
-6 -21 -44z"/>
<path d="M1653 5910 c0 -25 2 -35 4 -22 2 12 2 32 0 45 -2 12 -4 2 -4 -23z"/>
<path d="M7676 5859 c-9 -87 -8 -147 3 -154 5 -3 12 3 15 13 8 23 3 202 -5
202 -3 0 -9 -28 -13 -61z"/>
<path d="M1785 5879 c-9 -41 7 -59 37 -40 18 11 24 10 47 -6 18 -14 50 -22
104 -26 43 -3 84 -10 90 -16 7 -5 48 -12 91 -15 43 -3 84 -10 89 -15 6 -6 38
-11 71 -11 34 -1 72 -7 86 -15 14 -8 51 -14 83 -15 32 0 66 -4 76 -10 21 -11
162 -30 174 -23 18 10 -16 31 -61 37 -94 14 -158 27 -222 46 -19 5 -70 10
-113 10 -49 0 -86 5 -100 14 -12 7 -53 16 -91 20 -38 3 -74 10 -80 16 -5 5
-24 10 -41 10 -17 0 -55 7 -84 16 -30 8 -64 13 -77 10 -19 -5 -27 -1 -36 19
-15 34 -35 31 -43 -6z"/>
<path d="M3227 5871 c-22 -45 -32 -101 -18 -101 6 0 11 15 11 33 0 18 7 43 16
55 8 12 14 28 12 34 -3 7 -12 -3 -21 -21z"/>
<path d="M4140 5881 c0 -12 5 -21 10 -21 6 0 10 6 10 14 0 8 -4 18 -10 21 -5
3 -10 -3 -10 -14z"/>
<path d="M4970 5893 c0 -17 26 -23 95 -23 43 0 66 -5 75 -15 7 -8 25 -15 41
-15 18 0 29 -5 29 -13 0 -13 -15 -22 -72 -46 -16 -6 -28 -18 -28 -27 0 -25
-31 -44 -53 -33 -9 6 -21 8 -26 5 -5 -3 -14 1 -21 9 -7 9 -29 15 -52 15 -24 0
-41 5 -44 14 -3 8 -17 17 -32 21 -15 4 -29 10 -32 13 -11 15 -73 42 -95 42
-50 0 -38 -53 13 -56 16 -1 58 -15 93 -32 35 -17 82 -33 104 -37 22 -4 48 -14
57 -22 10 -9 26 -13 38 -10 11 3 20 1 20 -4 0 -18 30 -8 41 14 7 12 21 29 32
37 12 8 37 31 57 51 l35 36 95 -4 c87 -4 93 -3 76 12 -18 14 -69 21 -122 16
-12 -1 -34 5 -50 14 -16 8 -47 15 -69 15 -23 0 -46 5 -51 10 -15 15 -154 26
-154 13z"/>
<path d="M5633 5893 c-23 -8 -14 -21 27 -37 44 -17 115 -21 124 -7 8 13 -19
21 -71 21 -27 0 -50 6 -57 14 -6 7 -17 12 -23 9z"/>
<path d="M3677 5884 c-14 -15 -6 -34 14 -34 14 0 19 5 17 17 -3 18 -20 27 -31
17z"/>
<path d="M4187 5867 c-31 -48 -17 -76 18 -37 14 15 16 25 9 41 -10 21 -10 21
-27 -4z"/>
<path d="M5060 5841 c-52 -21 -80 -61 -42 -61 24 1 73 43 64 56 -4 6 -14 9
-22 5z"/>
<path d="M5810 5836 c0 -17 25 -23 118 -25 60 -2 72 0 72 13 0 12 -10 16 -37
16 -21 1 -64 3 -95 5 -45 4 -58 2 -58 -9z"/>
<path d="M3714 5816 c-4 -10 -2 -22 4 -28 8 -8 13 -7 18 6 4 10 2 22 -4 28 -8
8 -13 7 -18 -6z"/>
<path d="M3144 5806 c-6 -17 2 -36 17 -36 12 0 12 37 -1 45 -6 3 -13 -1 -16
-9z"/>
<path d="M6014 5809 c-11 -19 8 -27 86 -38 75 -10 175 -29 260 -51 25 -6 59
-13 75 -15 17 -2 50 -9 74 -15 24 -6 51 -8 61 -5 10 3 35 -1 56 -9 22 -8 83
-17 138 -21 54 -3 106 -10 115 -15 21 -10 109 -29 186 -39 34 -4 70 -13 82
-19 12 -7 44 -12 70 -12 27 0 53 -4 59 -10 5 -5 39 -13 74 -16 36 -3 80 -13
99 -21 23 -11 47 -13 80 -8 37 6 42 9 26 16 -11 4 -36 8 -55 8 -20 1 -41 6
-47 12 -6 6 -39 13 -74 16 -35 3 -76 12 -91 19 -15 8 -44 14 -66 14 -21 0 -47
7 -58 15 -10 8 -41 15 -69 15 -28 0 -59 7 -69 15 -11 8 -35 15 -53 15 -19 0
-46 6 -61 14 -15 7 -63 16 -107 19 -44 3 -88 9 -98 12 -9 4 -24 2 -32 -5 -12
-10 -20 -9 -40 4 -15 10 -49 17 -90 18 -40 1 -70 7 -76 15 -7 7 -26 13 -43 13
-17 0 -44 7 -60 15 -16 9 -35 14 -41 11 -7 -2 -41 2 -76 11 -143 33 -223 40
-235 22z"/>
<path d="M5442 5798 c3 -8 26 -14 54 -16 29 -2 52 -9 57 -18 5 -9 25 -14 57
-14 27 0 67 -6 87 -14 21 -8 60 -17 87 -20 27 -3 55 -11 62 -17 7 -6 41 -9 76
-8 44 2 73 -2 95 -14 19 -10 55 -17 86 -17 36 0 59 -5 67 -15 14 -16 120 -22
120 -6 0 12 -26 21 -63 21 -18 1 -43 7 -57 15 -14 8 -50 14 -81 15 -38 0 -59
4 -62 14 -4 9 -23 13 -59 13 -30 0 -69 7 -88 16 -19 8 -64 18 -100 22 -36 4
-70 10 -75 15 -6 5 -44 11 -83 13 -40 2 -78 9 -84 15 -17 17 -101 16 -96 0z"/>
<path d="M4205 5771 c-3 -17 -2 -39 4 -50 6 -11 11 -28 11 -39 0 -11 7 -22 15
-26 8 -3 15 -14 15 -24 0 -11 7 -25 15 -32 25 -20 45 -71 45 -112 0 -30 4 -38
19 -38 14 0 20 10 25 46 6 50 -6 84 -30 84 -11 0 -13 6 -9 19 7 22 -25 61 -50
61 -10 0 -15 10 -15 34 0 19 -5 38 -11 42 -6 3 -9 19 -5 35 8 40 -20 39 -29 0z"/>
<path d="M4286 5783 c-6 -21 0 -102 8 -111 3 -3 6 8 6 24 0 16 3 46 6 67 7 38
-9 54 -20 20z"/>
<path d="M642 5728 c-12 -16 -22 -149 -23 -328 -1 -87 -7 -147 -15 -169 -16
-39 -19 -267 -4 -291 15 -25 33 3 31 49 -1 23 -1 51 -1 64 0 12 1 45 0 72 0
28 5 79 10 115 5 36 11 129 14 208 3 79 10 151 15 160 7 14 8 87 2 125 -2 11
-17 8 -29 -5z"/>
<path d="M2867 5681 c-36 -6 -37 -7 -23 -26 13 -17 18 -18 36 -7 13 8 33 11
52 7 25 -6 29 -4 26 12 -4 20 -30 24 -91 14z"/>
<path d="M7646 5646 c-7 -28 2 -58 15 -50 12 7 12 61 0 68 -5 3 -12 -5 -15
-18z"/>
<path d="M3010 5650 c-12 -8 -12 -10 3 -16 22 -8 70 4 62 16 -8 13 -45 13 -65
0z"/>
<path d="M6350 5568 c0 -28 -6 -50 -15 -58 -8 -7 -15 -28 -15 -47 0 -18 -7
-50 -15 -70 -8 -19 -15 -61 -15 -93 0 -42 -4 -59 -15 -64 -10 -4 -15 -20 -15
-52 0 -25 -6 -60 -14 -77 -8 -18 -16 -43 -18 -57 -2 -21 -8 -25 -33 -24 -39 1
-81 11 -128 31 -34 15 -39 15 -53 1 -14 -14 -13 -17 13 -36 16 -11 45 -23 66
-27 20 -4 40 -11 43 -16 8 -13 92 -11 117 3 12 6 37 14 56 17 46 8 41 25 -9
29 -52 4 -52 10 6 137 21 47 33 112 27 154 -3 23 -1 41 6 45 6 4 11 26 11 49
0 24 6 51 14 62 7 11 17 38 20 60 l7 40 52 -5 52 -5 3 -66 c2 -50 -1 -69 -13
-79 -10 -8 -15 -30 -15 -66 0 -29 -7 -71 -16 -93 -16 -41 -16 -97 1 -94 6 1
13 18 16 38 3 20 11 41 18 48 6 6 11 35 11 63 0 29 5 65 12 81 6 15 14 53 17
83 l6 55 61 3 c45 2 66 -1 77 -13 10 -10 34 -15 68 -15 29 0 59 -6 68 -13 20
-17 201 -48 275 -48 35 0 59 -6 67 -15 15 -18 92 -19 87 -1 -3 6 -15 13 -29
15 -13 2 -43 10 -67 18 -23 8 -62 14 -86 14 -24 0 -60 7 -79 15 -21 8 -67 15
-106 15 -52 0 -70 4 -75 15 -4 11 -20 15 -54 15 -32 0 -54 5 -62 15 -9 10 -31
15 -73 15 -38 0 -66 5 -76 14 -9 8 -51 17 -98 21 l-83 8 0 -45z"/>
<path d="M7737 5594 c-4 -4 -7 -28 -7 -52 0 -25 -6 -53 -14 -61 -8 -9 -16 -41
-18 -71 -2 -44 0 -55 12 -55 11 0 16 14 18 50 2 28 9 55 17 61 17 12 25 125 9
131 -5 2 -13 0 -17 -3z"/>
<path d="M7644 5567 c-8 -23 0 -92 11 -90 13 4 17 90 5 98 -6 4 -13 0 -16 -8z"/>
<path d="M3344 5555 c-14 -37 3 -46 75 -42 56 3 75 1 98 -14 20 -14 47 -19 96
-19 37 0 67 4 67 9 0 10 -58 21 -110 21 -20 0 -41 5 -46 10 -6 6 -36 12 -68
14 -33 3 -66 12 -75 20 -22 20 -30 20 -37 1z"/>
<path d="M7290 5411 c-22 -7 -19 -9 23 -16 50 -8 64 -4 52 14 -7 12 -37 13
-75 2z"/>
<path d="M4440 5381 c0 -13 74 -24 101 -16 17 6 19 9 8 16 -19 12 -109 12
-109 0z"/>
<path d="M4580 5350 c0 -18 83 -49 144 -54 32 -2 63 -9 69 -15 6 -6 29 -11 52
-11 22 0 56 -5 75 -11 36 -12 160 -34 267 -48 35 -5 68 -13 75 -19 7 -5 38
-12 68 -15 74 -8 262 -40 275 -48 20 -13 100 -19 115 -9 13 9 13 11 0 20 -8 5
-34 10 -56 10 -25 0 -47 6 -54 15 -7 8 -28 15 -47 15 -18 0 -50 7 -70 15 -19
8 -61 15 -92 15 -31 0 -62 5 -68 11 -6 6 -55 13 -109 16 -69 4 -104 10 -117
21 -10 9 -39 17 -66 18 -27 0 -54 4 -60 8 -6 4 -42 12 -78 17 -37 5 -72 14
-78 19 -6 5 -44 13 -84 16 -39 4 -74 11 -77 15 -7 12 -84 11 -84 -1z"/>
<path d="M7677 5313 c-3 -5 -8 -34 -11 -65 -7 -57 -26 -81 -26 -34 0 14 -4 28
-10 31 -6 4 -7 -23 -4 -72 4 -55 -1 -124 -17 -233 -13 -85 -25 -204 -27 -265
-2 -60 -8 -115 -13 -122 -6 -7 -14 -77 -19 -156 -4 -79 -12 -153 -18 -164 -6
-11 -12 -70 -13 -133 -2 -100 0 -114 16 -126 25 -18 32 -18 44 5 8 13 7 32 -2
63 -14 45 -15 93 -4 105 4 3 7 25 7 47 0 22 8 60 17 84 14 38 15 54 5 111 -10
59 -9 70 8 106 13 28 17 52 14 80 -15 109 -15 145 0 195 9 30 16 83 16 119 1
38 7 77 15 91 8 14 14 52 15 88 0 35 5 73 11 84 13 25 29 137 22 156 -6 13
-19 16 -26 5z"/>
<path d="M6416 5124 c-3 -9 -6 -31 -6 -51 0 -42 22 -41 30 3 10 50 -9 87 -24
48z"/>
<path d="M5752 5108 c3 -8 24 -14 52 -16 36 -2 47 0 44 10 -3 8 -24 14 -52 16
-36 2 -47 0 -44 -10z"/>
<path d="M6369 4989 c-14 -14 -35 -22 -60 -23 -22 0 -39 -4 -39 -7 0 -12 73
-19 86 -8 7 5 45 13 84 16 61 5 74 4 82 -10 6 -12 23 -17 54 -17 26 0 61 -7
79 -15 36 -18 182 -18 178 0 -2 6 -36 13 -77 16 -40 4 -80 10 -87 15 -8 4 -34
11 -59 15 -25 4 -81 15 -125 23 -100 19 -91 20 -116 -5z"/>
<path d="M7677 4768 c-4 -16 -12 -28 -17 -28 -6 0 -10 -7 -10 -15 0 -8 4 -15
10 -15 14 0 32 38 28 63 -3 20 -4 19 -11 -5z"/>
<path d="M566 4496 c-4 -15 -2 -34 3 -44 8 -14 10 -13 16 10 4 15 3 34 -3 44
-8 14 -10 13 -16 -10z"/>
<path d="M774 4416 c-9 -23 0 -121 11 -119 14 4 19 133 5 133 -6 0 -13 -6 -16
-14z"/>
<path d="M7496 3926 c-9 -47 3 -114 26 -154 18 -29 19 -39 9 -77 -20 -80 -10
-254 12 -218 7 12 19 155 21 248 0 39 4 75 7 80 3 6 5 32 5 59 -1 63 -24 75
-28 15 -2 -25 -9 -44 -17 -47 -11 -4 -13 7 -9 52 3 37 1 60 -8 66 -9 8 -13 2
-18 -24z"/>
<path d="M7405 3737 c-9 -22 -2 -62 10 -60 6 1 11 14 13 29 4 32 -14 56 -23
31z"/>
<path d="M7381 3500 c1 -55 1 -55 11 -18 7 25 6 43 -1 55 -8 14 -10 6 -10 -37z"/>
<path d="M3170 776 c0 -33 16 -42 30 -16 12 23 6 40 -16 40 -8 0 -14 -10 -14
-24z"/>
</g>
</svg>
