<?xml version="1.0" standalone="no"?>
<!DOCTYPE svg PUBLIC "-//W3C//DTD SVG 20010904//EN"
 "http://www.w3.org/TR/2001/REC-SVG-20010904/DTD/svg10.dtd">
<svg version="1.0" xmlns="http://www.w3.org/2000/svg"
 width="300.000000pt" height="534.000000pt" viewBox="0 0 300.000000 534.000000"
 preserveAspectRatio="xMidYMid meet">
<metadata>
Created by potrace 1.10, written by Peter Selinger 2001-2011
</metadata>
<g transform="translate(0.000000,534.000000) scale(0.100000,-0.100000)"
fill="#000000" stroke="none">
<path d="M1953 4268 c3 -77 9 -124 16 -126 14 -5 16 25 10 176 -2 53 -7 72
-17 72 -11 0 -13 -23 -9 -122z"/>
<path d="M2048 4165 c-6 -14 -8 -28 -5 -32 8 -8 36 26 37 45 0 21 -20 13 -32
-13z"/>
<path d="M1840 4136 c0 -14 29 -31 38 -21 6 6 -18 35 -29 35 -5 0 -9 -6 -9
-14z"/>
<path d="M1933 4079 c-23 -15 -36 -33 -44 -62 -13 -48 -6 -63 37 -88 42 -25
56 -23 92 14 40 41 49 84 28 126 -13 25 -23 31 -49 31 -17 0 -47 -10 -64 -21z
m79 -16 c24 -21 23 -54 -3 -87 -25 -32 -65 -35 -74 -6 -10 31 4 78 28 95 27
19 26 19 49 -2z"/>
<path d="M2148 4022 c-21 -2 -38 -7 -38 -12 0 -13 337 -12 345 0 4 6 -23 10
-72 11 -43 1 -105 2 -138 3 -33 0 -77 0 -97 -2z"/>
<path d="M1568 4002 c-10 -2 -18 -8 -18 -14 0 -12 211 0 225 13 9 9 -169 10
-207 1z"/>
<path d="M2094 3925 c25 -19 36 -19 36 0 0 10 -10 15 -27 15 -27 -1 -27 -1 -9
-15z"/>
<path d="M2066 3912 c-7 -12 29 -45 44 -40 6 2 1 13 -13 26 -14 13 -28 19 -31
14z"/>
<path d="M1776 3891 c-26 -28 -16 -43 13 -20 16 13 21 23 14 30 -6 6 -16 3
-27 -10z"/>
<path d="M1822 3873 c-15 -26 -15 -53 -2 -53 11 0 24 43 18 62 -3 8 -9 5 -16
-9z"/>
<path d="M1959 3870 c0 -3 -6 -52 -14 -110 -21 -161 -26 -216 -19 -200 4 8 11
18 16 21 5 3 11 30 13 60 2 30 8 90 14 133 7 54 8 83 1 90 -5 5 -10 8 -11 6z"/>
<path d="M2935 1808 c-27 -11 -104 -43 -170 -70 -146 -59 -140 -58 -139 -30 0
18 -5 22 -28 22 -17 0 -28 -5 -28 -14 0 -7 -8 -20 -17 -27 -14 -12 -16 -12 -9
0 6 9 5 12 -5 9 -15 -6 -15 -10 -4 -43 6 -16 5 -17 -4 -5 -10 14 -12 13 -15
-10 0 -6 -37 -27 -81 -48 -44 -21 -132 -64 -197 -97 l-116 -59 -35 31 c-20 17
-45 34 -56 38 -12 3 -21 10 -21 15 0 5 -24 16 -52 26 -29 9 -57 20 -63 24 -19
13 -75 29 -75 21 0 -5 14 -11 32 -15 17 -3 29 -9 25 -12 -3 -3 -34 2 -69 11
-34 10 -70 17 -78 17 -8 0 -42 6 -75 13 -33 7 -67 13 -75 13 -8 0 -33 3 -55 6
-30 4 -33 4 -10 -2 17 -4 -103 -9 -265 -10 -162 0 -308 -3 -325 -5 -16 -2 -45
-5 -63 -5 -18 -1 -31 -6 -27 -11 3 -6 15 -7 28 -5 31 8 652 8 712 0 28 -3 75
-8 105 -11 165 -17 256 -38 322 -73 37 -20 65 -39 62 -43 -2 -4 3 -9 11 -13 8
-3 15 -10 15 -15 0 -9 -145 -90 -395 -221 -109 -57 -222 -124 -235 -140 -3 -3
-28 -22 -56 -43 -28 -20 -67 -56 -86 -79 -56 -69 -54 -77 3 -17 86 89 127 116
189 124 30 4 62 11 70 16 9 6 -5 7 -37 3 -29 -4 -53 -4 -53 -1 0 4 39 25 88
49 48 23 101 52 117 64 17 11 44 28 60 36 17 8 109 58 205 110 184 99 206 110
230 114 8 2 47 15 85 29 55 20 61 24 30 19 -22 -3 -38 -4 -35 -1 3 2 51 27
108 55 l102 51 -2 -32 c-1 -18 -7 -35 -12 -39 -6 -4 -11 -17 -12 -30 -2 -38
-15 -62 -25 -47 -6 10 -10 9 -15 -4 -4 -10 -2 -23 4 -29 8 -8 18 -2 36 19 30
36 70 51 62 25 -3 -9 -1 -24 4 -32 8 -12 10 -9 10 13 0 15 4 27 9 27 10 0 24
38 21 59 -1 7 3 10 9 6 7 -4 11 4 11 19 0 13 4 26 8 28 5 2 15 21 24 43 17 43
22 45 298 156 41 17 79 35 85 40 14 14 -4 10 -60 -13z m-335 -118 c9 -16 6
-22 -20 -35 -34 -18 -39 -6 -12 30 21 30 19 29 32 5z m-26 -113 c-6 -28 -18
-34 -29 -17 -4 7 -12 7 -25 0 -25 -13 -30 -13 -30 3 0 17 34 49 43 41 4 -4 10
1 13 10 11 29 37 -5 28 -37z m-31 -47 c6 -22 -25 -50 -55 -50 -25 0 -22 16 7
45 29 30 41 31 48 5z"/>
<path d="M655 1582 c-84 -11 -304 -46 -432 -69 -18 -3 -33 -10 -33 -15 0 -6
15 -8 38 -4 20 3 45 6 55 7 9 0 15 4 13 8 -3 4 0 8 7 8 7 0 62 8 122 17 61 9
130 18 155 21 25 3 79 10 120 16 41 6 80 10 85 9 18 -4 35 0 35 8 0 11 -52 9
-165 -6z"/>
<path d="M177 1550 c-62 -11 -56 -21 9 -14 32 4 60 8 62 9 9 7 -38 10 -71 5z"/>
<path d="M670 1501 c0 -6 6 -11 13 -12 6 0 2 -5 -10 -11 -13 -6 -23 -15 -23
-20 0 -5 -45 -54 -100 -109 -102 -102 -139 -151 -52 -68 75 71 88 78 51 26
l-33 -47 27 -28 c19 -18 26 -21 21 -9 -4 12 -1 17 11 17 9 0 14 -3 11 -8 -2
-4 13 -8 34 -8 20 -1 56 -12 79 -26 33 -20 38 -27 28 -39 -6 -7 0 -3 16 10 30
27 34 36 12 27 -8 -3 -15 -1 -15 4 0 5 -10 12 -22 16 -13 4 -34 15 -48 26 -16
13 -32 17 -49 13 -13 -3 -37 -1 -52 6 l-29 11 23 29 c12 15 38 51 57 79 19 27
43 53 53 56 9 3 15 10 12 15 -4 5 -1 9 4 9 6 0 11 7 11 16 0 12 4 14 13 6 6
-5 50 -13 97 -16 119 -10 174 -24 159 -42 -8 -9 -8 -14 -1 -14 6 0 14 5 17 10
3 6 13 10 21 10 8 0 12 -4 9 -10 -3 -5 -2 -10 3 -10 5 0 21 -11 37 -26 15 -14
29 -23 32 -21 5 5 83 -76 83 -86 0 -4 -7 -4 -15 -1 -13 5 -14 -2 -9 -52 7 -65
23 -107 24 -64 0 20 2 22 11 10 7 -11 8 3 3 45 -7 57 -6 59 11 45 27 -21 -37
69 -71 102 -64 61 -113 99 -126 97 -7 -2 -29 2 -48 8 -19 7 -75 17 -125 23
-49 6 -105 13 -122 16 -21 4 -33 2 -33 -5z"/>
<path d="M2480 1402 c0 -12 28 -48 33 -42 8 8 -11 50 -23 50 -5 0 -10 -4 -10
-8z"/>
<path d="M945 1394 c-5 -2 -53 -45 -105 -95 -74 -72 -89 -90 -70 -88 19 3 25
0 24 -13 0 -10 -1 -36 -2 -59 -2 -36 -4 -40 -23 -34 -12 4 -27 8 -33 10 -6 1
-18 5 -26 8 -8 4 -33 11 -55 16 -22 5 -51 13 -64 17 -18 5 -22 4 -16 -6 5 -8
3 -11 -6 -8 -8 3 -13 11 -11 17 1 6 -2 11 -8 11 -5 0 -10 5 -10 11 0 6 9 8 23
4 20 -5 20 -5 4 5 -11 7 -33 9 -54 5 -34 -6 -38 -20 -5 -20 9 0 17 -7 17 -15
0 -14 19 -32 40 -37 6 -1 21 -5 34 -9 21 -6 23 -4 17 11 -5 15 -4 16 9 5 9 -7
18 -10 22 -7 3 3 20 -1 37 -10 17 -9 43 -16 58 -14 17 1 33 -5 44 -18 16 -19
18 -19 30 -3 8 10 13 46 14 88 0 68 2 75 40 125 22 29 46 57 55 61 12 7 42 50
33 47 -2 0 -7 -3 -13 -5z"/>
<path d="M2427 1370 c-32 -37 -45 -39 -22 -4 12 19 13 25 3 22 -7 -3 -18 -15
-24 -27 -6 -12 -22 -29 -34 -38 -19 -13 -22 -23 -18 -58 5 -37 2 -44 -21 -59
-50 -31 -78 -63 -83 -94 -2 -17 0 -33 6 -35 18 -6 46 32 46 62 0 22 6 32 22
37 13 4 28 13 33 21 10 13 13 13 24 -1 8 -9 17 -16 22 -16 16 0 10 28 -7 34
-9 4 -14 9 -11 13 4 3 2 12 -4 19 -8 10 -5 16 15 25 14 7 26 17 26 22 0 5 -12
2 -26 -8 -28 -18 -38 -16 -29 7 8 20 78 47 107 42 22 -4 22 -4 -1 6 l-24 10
23 25 c13 14 19 25 13 25 -6 0 -23 -13 -36 -30z"/>
<path d="M1141 1373 c1 -12 69 -67 69 -56 0 10 -35 44 -57 57 -7 4 -13 4 -12
-1z"/>
<path d="M1024 1352 c-6 -4 -17 -18 -24 -31 -9 -19 -14 -21 -21 -10 -7 11 -9
10 -9 -3 0 -25 31 -23 37 2 3 11 9 20 13 20 4 0 10 7 14 15 6 17 5 18 -10 7z"/>
<path d="M2480 1338 c0 -6 -7 -19 -16 -29 -18 -20 -26 -81 -10 -76 6 2 10 12
9 23 -1 10 7 30 18 45 21 30 25 49 9 49 -5 0 -10 -5 -10 -12z"/>
<path d="M375 1163 c-56 -32 -79 -52 -70 -61 8 -8 45 10 40 19 -9 14 39 29 98
31 36 1 42 2 20 5 -38 5 -43 20 -10 33 20 8 20 9 2 8 -11 0 -47 -15 -80 -35z"/>
<path d="M1101 1121 c-7 -5 -21 -6 -31 -4 -23 6 -141 -30 -228 -68 -37 -17
-86 -49 -109 -72 -24 -22 -43 -38 -43 -35 0 18 43 76 70 96 17 13 28 27 25 32
-10 16 -34 -1 -56 -38 -12 -21 -31 -47 -42 -59 -14 -15 -16 -26 -10 -38 9 -15
16 -12 57 24 27 23 69 52 94 65 50 25 251 80 260 72 6 -6 -43 -26 -63 -26 -8
0 -17 -5 -21 -11 -4 -7 0 -9 12 -6 57 17 106 26 164 31 43 3 55 2 35 -3 -20
-6 9 -9 90 -9 96 0 113 2 85 10 -19 5 -44 13 -56 18 -18 7 -156 4 -196 -4 -12
-3 -15 2 -13 15 4 21 -3 23 -24 10z"/>
<path d="M2172 1084 c-26 -18 -29 -42 -7 -51 14 -5 14 -8 -1 -24 -9 -11 -23
-19 -30 -19 -15 0 -39 -39 -29 -48 3 -4 14 3 23 14 9 12 29 29 45 39 30 19 35
40 11 49 -15 6 -15 8 1 26 23 26 15 34 -13 14z"/>
<path d="M195 1050 c-3 -5 -11 -7 -19 -4 -7 3 -32 -14 -57 -36 -44 -41 -44
-41 -5 -13 23 16 49 26 63 25 14 -2 25 3 29 12 3 8 12 12 20 9 8 -3 14 0 14 6
0 13 -37 15 -45 1z"/>
<path d="M2027 913 c-4 -3 -7 -19 -7 -35 0 -22 4 -28 23 -28 18 1 19 2 6 10
-11 6 -15 18 -11 35 4 25 1 31 -11 18z"/>
<path d="M652 880 c-11 -19 -26 -40 -31 -47 -6 -7 -11 -19 -11 -26 0 -16 -53
-81 -117 -144 -24 -22 -43 -46 -43 -52 0 -6 -6 -11 -13 -11 -17 0 -83 -68 -74
-76 11 -12 217 205 278 292 19 27 40 53 47 57 6 4 12 13 12 18 0 6 -4 8 -9 5
-5 -4 -11 0 -14 6 -2 8 -13 -2 -25 -22z"/>
<path d="M1249 824 c-21 -23 -26 -33 -14 -26 25 12 60 50 53 57 -2 3 -20 -12
-39 -31z"/>
<path d="M2012 738 c-26 -26 0 -63 40 -56 23 4 23 5 -4 16 -20 8 -25 16 -21
31 6 24 2 26 -15 9z"/>
</g>
</svg>
