<?xml version="1.0" standalone="no"?>
<!DOCTYPE svg PUBLIC "-//W3C//DTD SVG 20010904//EN"
 "http://www.w3.org/TR/2001/REC-SVG-20010904/DTD/svg10.dtd">
<svg version="1.0" xmlns="http://www.w3.org/2000/svg"
 width="300.000000pt" height="408.000000pt" viewBox="0 0 300.000000 408.000000"
 preserveAspectRatio="xMidYMid meet">
<metadata>
Created by potrace 1.10, written by Peter Selinger 2001-2011
</metadata>
<g transform="translate(0.000000,408.000000) scale(0.100000,-0.100000)"
fill="#000000" stroke="none">
<path d="M1983 3000 c-27 -11 -29 -23 -6 -41 14 -12 16 -12 8 0 -5 9 -4 12 3
7 6 -4 9 -13 6 -20 -6 -15 82 -127 98 -123 6 1 13 -4 16 -12 3 -9 0 -11 -8 -6
-7 4 -4 -4 5 -19 19 -29 27 -34 19 -11 -11 27 3 16 30 -26 l27 -40 -22 -37
c-12 -20 -37 -60 -56 -89 -18 -28 -33 -56 -33 -61 0 -5 -7 -15 -15 -22 -8 -7
-12 -16 -9 -21 3 -5 -1 -12 -10 -15 -9 -3 -12 -12 -9 -21 5 -12 3 -14 -7 -8
-8 5 -11 4 -7 -2 4 -6 1 -18 -6 -27 -11 -15 -19 -15 -97 -2 -47 8 -106 18
-132 21 -46 6 -63 24 -38 40 6 3 10 15 10 26 0 11 4 18 9 15 5 -4 17 14 26 39
10 24 22 43 27 42 6 -1 12 5 14 13 1 8 7 29 12 47 9 28 8 34 -14 48 -13 8 -27
28 -30 43 -3 15 -20 39 -36 54 l-29 27 40 26 c23 14 66 36 96 50 30 13 55 27
55 30 0 3 -5 3 -12 -1 -7 -5 -8 -3 -4 5 5 7 14 10 20 8 7 -3 19 -1 27 5 11 8
10 9 -3 4 -12 -3 -18 0 -18 10 0 11 -3 12 -12 4 -7 -6 -49 -33 -92 -61 -80
-52 -90 -54 -163 -36 -13 3 -23 1 -23 -4 0 -6 -10 -20 -22 -31 -23 -20 -23
-20 12 0 42 25 90 20 85 -8 -2 -10 3 -21 11 -24 9 -3 12 -11 8 -18 -4 -7 -4
-10 1 -6 11 11 45 -47 61 -102 9 -35 13 -39 14 -20 1 14 2 28 1 32 0 4 7 4 16
1 11 -4 13 -8 5 -11 -7 -2 -10 -8 -6 -13 3 -5 -3 -23 -13 -40 -18 -30 -18 -30
-25 -7 -5 16 -6 12 -3 -11 3 -19 2 -31 -2 -28 -3 4 -18 -19 -32 -51 -14 -32
-39 -78 -56 -103 -65 -96 -66 -101 -41 -145 15 -28 29 -40 49 -42 32 -4 35 13
12 58 -9 17 -11 30 -5 30 5 0 10 22 10 50 0 28 4 50 9 50 4 0 33 -5 62 -11 30
-6 70 -13 89 -14 19 -1 51 -6 70 -10 19 -4 41 -8 48 -8 6 0 12 -5 12 -11 1 -6
9 12 18 40 10 28 38 84 63 125 26 41 59 98 74 126 l28 53 -28 42 c-16 24 -48
67 -73 96 -24 28 -41 52 -36 52 5 0 4 4 -1 8 -27 18 -55 67 -50 84 4 10 5 18
3 17 -2 0 -13 -4 -25 -9z m-276 -625 c-4 -42 -14 -54 -23 -31 -6 17 10 66 21
66 3 0 4 -16 2 -35z m3 -112 c0 -28 -4 -29 -30 -1 -11 12 -20 35 -20 52 l1 31
24 -30 c14 -16 25 -40 25 -52z"/>
<path d="M1535 2863 c-112 -49 -140 -60 -187 -77 -27 -10 -48 -22 -48 -27 0
-4 -7 -6 -15 -3 -8 4 -17 -1 -21 -9 -7 -18 -40 -25 -159 -32 -49 -3 -105 -8
-123 -11 -26 -4 -32 -2 -26 7 15 25 -54 -31 -71 -58 -10 -15 -33 -63 -51 -107
-17 -44 -38 -82 -45 -85 -12 -5 -12 -14 -2 -51 6 -25 12 -40 12 -35 1 6 21
-28 46 -74 24 -46 49 -88 56 -92 10 -6 10 -11 -2 -25 -13 -17 -13 -17 11 -1
13 9 34 18 45 18 18 1 18 2 2 6 -15 4 -11 9 18 25 21 10 44 17 52 14 8 -3 12
-2 9 2 -3 5 14 13 37 19 23 7 56 17 72 24 17 7 34 11 39 10 5 -1 22 2 37 8 25
9 31 6 48 -17 19 -26 20 -26 39 -9 11 10 36 21 57 24 35 6 37 5 26 -15 -16
-31 -14 -91 4 -98 23 -9 45 15 45 48 l0 30 38 -33 c52 -45 61 -66 60 -129 0
-49 -1 -51 -7 -20 -9 44 -18 60 -36 60 -19 0 -25 -23 -25 -103 0 -99 23 -139
79 -135 22 1 38 5 35 9 -2 4 1 11 6 14 25 16 35 65 35 175 0 63 4 129 8 145
l9 30 -20 -31 c-18 -28 -19 -41 -13 -111 3 -44 3 -91 0 -104 -4 -13 -7 -39 -8
-57 -1 -22 -5 -31 -13 -26 -7 4 -8 3 -4 -4 4 -8 0 -12 -11 -12 -11 0 -24 -5
-29 -10 -7 -7 -16 -6 -28 3 -21 15 -33 78 -28 150 3 41 5 47 18 37 8 -8 14
-30 14 -57 0 -31 4 -43 12 -41 26 9 32 127 9 183 -5 11 -21 59 -36 108 -25 77
-31 87 -51 87 -13 0 -24 5 -24 10 0 6 -5 10 -10 10 -12 0 -2 -22 25 -55 16
-19 16 -19 5 4 -10 18 -9 22 1 19 7 -2 16 -11 19 -19 4 -8 12 -24 19 -37 6
-13 9 -27 6 -32 -3 -6 1 -20 9 -32 40 -56 -11 -35 -76 32 -20 21 -39 36 -42
32 -3 -3 -6 0 -6 6 0 7 -8 12 -18 12 -46 0 -102 117 -117 243 -3 26 -2 47 2
47 4 0 9 16 10 36 2 38 24 63 58 64 15 0 16 3 7 9 -17 11 83 48 233 86 l60 15
-50 -5 c-50 -6 -50 -6 -21 10 15 8 42 19 60 24 20 6 24 9 11 10 -11 0 -47 -11
-80 -26z m-289 -159 c-3 -9 -9 -33 -12 -55 -4 -22 -11 -42 -15 -45 -5 -3 -9
-17 -8 -32 l1 -27 8 25 c6 23 8 22 14 -15 22 -128 46 -177 104 -212 l32 -20
-39 -15 c-32 -13 -42 -13 -50 -4 -6 7 -8 16 -4 19 3 4 1 7 -6 7 -6 0 -15 10
-20 22 -6 18 -9 19 -14 5 -4 -10 -2 -17 4 -17 6 0 7 -4 4 -10 -3 -5 -19 -10
-34 -10 -15 0 -64 -13 -109 -30 -46 -16 -86 -30 -90 -30 -4 1 11 17 33 36 22
20 31 31 20 26 -11 -6 -44 -31 -73 -56 -30 -25 -58 -46 -63 -46 -6 0 -7 -6 -4
-12 4 -7 -3 -2 -15 12 -29 33 -100 174 -100 199 0 11 -6 22 -12 24 -8 3 -6 6
5 6 9 1 17 8 17 16 0 8 18 48 39 89 22 41 36 78 33 82 -4 4 -1 3 7 -1 11 -6
13 -4 7 11 -4 10 -4 15 0 11 4 -4 13 1 20 11 12 18 45 22 225 25 57 2 75 5 72
15 -3 6 2 12 12 12 12 0 15 -5 11 -16z m174 -454 c0 -38 -13 -60 -25 -41 -8
14 6 92 16 85 5 -3 9 -23 9 -44z"/>
<path d="M1185 2551 c-8 -14 6 -90 17 -98 21 -12 26 21 8 44 -10 13 -16 32
-13 43 6 21 -1 27 -12 11z"/>
<path d="M1456 2775 c-15 -23 -15 -25 0 -25 12 0 15 -5 9 -22 -4 -13 -7 -38
-6 -55 1 -26 -3 -33 -18 -33 -11 0 -23 -5 -27 -12 -5 -8 0 -9 17 -3 13 4 36 8
51 9 26 1 29 16 4 16 -20 0 -25 47 -8 71 14 20 14 23 -3 35 -16 12 -17 14 -2
20 10 3 17 10 17 15 0 17 -18 9 -34 -16z"/>
<path d="M1565 2663 c-33 -7 -48 -13 -44 -18 3 -2 27 2 54 10 46 12 37 19 -10
8z"/>
<path d="M1620 2565 c-7 -8 -19 -15 -26 -15 -19 0 -18 -46 1 -54 20 -7 64 10
71 29 4 8 1 21 -5 29 -6 7 -8 16 -4 19 3 4 -1 7 -9 7 -9 0 -21 -7 -28 -15z
m38 -32 c-4 -19 -30 -28 -55 -19 -23 9 3 36 34 36 18 0 24 -5 21 -17z"/>
<path d="M1389 2509 c-19 -19 -20 -23 -6 -36 16 -17 69 -12 97 8 12 9 13 12 1
16 -11 5 -11 7 0 15 11 8 10 9 -3 4 -10 -3 -20 -1 -23 4 -10 17 -44 11 -66
-11z m78 -15 c5 -14 -58 -27 -70 -15 -5 5 -6 14 -2 21 9 14 67 9 72 -6z"/>
<path d="M1654 2462 c-21 -14 -43 -68 -33 -83 7 -12 9 -11 9 3 0 10 9 33 20
53 21 37 21 39 4 27z"/>
<path d="M1751 2303 c13 -16 56 -62 94 -103 39 -41 80 -94 91 -117 12 -23 25
-39 29 -35 4 4 5 -14 3 -40 -6 -51 -64 -152 -82 -141 -6 3 -8 3 -4 -1 4 -5 -6
-20 -21 -35 -16 -15 -30 -34 -33 -41 -3 -9 -13 -11 -31 -6 -20 5 -27 13 -27
32 0 13 7 27 15 30 8 4 13 10 10 14 -10 16 27 20 42 4 8 -8 18 -12 21 -9 3 3
-4 12 -16 21 -28 19 -28 26 3 62 27 32 34 52 11 33 -10 -9 -17 -6 -30 13 -9
14 -16 28 -16 31 0 13 22 -8 30 -29 7 -16 9 -17 9 -4 1 29 -101 171 -113 157
-2 -2 -7 -15 -10 -29 -5 -18 -5 -21 3 -10 8 12 13 12 30 -4 21 -19 29 -42 11
-31 -16 10 -11 -1 7 -16 14 -12 16 -12 8 0 -6 10 -4 12 4 7 7 -5 10 -14 8 -21
-3 -6 3 -25 14 -41 26 -40 24 -49 -18 -106 -36 -49 -59 -128 -42 -145 9 -9 -5
-167 -24 -270 -14 -71 -13 -73 7 -79 24 -8 36 -22 36 -44 -1 -12 -3 -11 -11 3
-12 21 -29 22 -29 1 0 -8 4 -13 9 -9 13 7 24 -12 15 -26 -4 -8 -9 -7 -15 2 -7
11 -9 9 -9 -6 -1 -15 -5 -11 -15 13 -19 44 -42 41 -55 -8 -11 -42 -40 -56 -40
-19 0 11 5 17 10 14 6 -3 10 -1 10 4 0 19 -22 12 -27 -9 -3 -11 -9 -20 -14
-20 -15 0 -31 41 -25 64 3 11 1 27 -3 34 -6 10 -10 4 -15 -18 -3 -18 -3 -36 0
-41 3 -5 1 -9 -5 -9 -5 0 -32 25 -59 56 l-49 57 33 68 c19 38 34 73 34 79 0
30 62 -26 67 -62 8 -54 13 -23 11 73 -2 102 2 155 16 214 6 25 5 27 -4 12 -6
-10 -14 -44 -18 -75 -5 -50 -7 -53 -13 -27 -4 17 -5 -9 -2 -57 5 -91 0 -103
-31 -69 -14 15 -15 26 -7 67 17 88 23 129 17 123 -6 -6 -28 -112 -29 -137 0
-7 -7 -10 -14 -7 -11 3 -13 -1 -8 -16 4 -12 3 -19 -2 -16 -5 3 -9 -3 -10 -12
-3 -35 -24 -101 -32 -101 -5 0 -11 -8 -13 -17 -7 -25 -52 -47 -80 -40 -30 8
-68 40 -68 58 -2 31 -46 144 -58 147 -10 2 -10 -2 0 -20 7 -13 13 -27 14 -33
0 -5 4 -19 8 -30 5 -11 13 -33 19 -50 6 -16 19 -42 29 -57 16 -23 24 -26 73
-25 47 2 56 -1 66 -20 7 -13 17 -23 23 -23 13 0 95 -81 161 -160 26 -30 55
-62 66 -71 18 -16 18 -17 -2 -43 -23 -30 -20 -49 10 -66 17 -8 25 -6 42 11 18
18 25 20 40 11 10 -7 42 -15 72 -18 51 -6 55 -5 76 22 18 23 22 38 18 71 -3
26 0 44 7 47 6 3 5 5 -3 5 -18 1 -171 155 -171 173 -1 17 -26 50 -36 48 -5 -1
-10 4 -13 11 -2 7 1 9 8 5 7 -5 11 8 12 41 1 26 3 59 4 73 1 14 4 75 6 136 l4
112 26 -14 c24 -12 30 -11 53 7 14 11 26 25 26 30 0 6 11 22 25 37 14 15 36
43 47 62 12 19 25 37 29 40 3 3 9 21 12 40 4 27 -2 46 -24 83 -16 26 -28 51
-27 55 1 4 -37 46 -86 94 -48 48 -85 91 -81 97 4 7 -3 11 -16 11 l-22 0 24
-27z m-43 -1003 c-2 -8 -11 -16 -21 -18 -18 -4 -23 21 -10 54 6 16 7 15 20 -2
7 -10 12 -25 11 -34z m226 -142 c3 -15 1 -30 -4 -33 -6 -4 -8 -16 -4 -27 4
-13 2 -18 -4 -14 -6 3 -13 2 -17 -4 -3 -5 -26 -10 -50 -10 -35 0 -51 7 -85 35
-23 19 -45 35 -49 35 -4 0 -35 31 -68 68 l-62 69 49 -5 c38 -3 57 1 89 19 23
12 41 29 41 37 0 23 156 -140 164 -170z m-190 -44 c19 -19 21 -34 4 -34 -20 1
-45 24 -41 38 6 16 18 15 37 -4z"/>
<path d="M1250 2270 c-8 -5 -15 -15 -15 -22 0 -7 -10 -14 -23 -14 -26 -1 -98
-57 -94 -73 1 -6 -4 -11 -11 -11 -8 0 -22 -9 -32 -20 -10 -11 -23 -20 -30 -20
-12 0 -45 -33 -60 -59 -5 -9 -4 -12 3 -7 7 4 12 1 12 -9 0 -9 5 -13 10 -10 6
3 10 16 10 29 0 17 23 38 101 92 123 84 165 119 152 127 -5 3 -15 2 -23 -3z"/>
<path d="M1297 2148 c-10 -5 -48 -32 -84 -59 -36 -27 -71 -49 -78 -49 -7 0
-18 -7 -25 -15 -28 -34 18 -13 94 44 82 60 124 70 110 29 -4 -15 -3 -18 6 -13
9 5 11 4 6 -3 -4 -6 -2 -21 4 -32 23 -43 29 -139 11 -182 -10 -26 -43 -39 -54
-20 -2 4 -2 1 -1 -5 2 -7 -5 -18 -15 -25 -31 -22 -42 -56 -36 -105 3 -25 8
-49 11 -52 4 -3 3 19 0 49 -6 52 -5 57 21 80 48 43 66 49 94 34 33 -19 53 -17
106 7 26 12 62 21 82 21 42 0 119 37 178 85 29 24 43 30 47 21 3 -7 3 7 0 32
-6 50 -14 66 -14 29 0 -45 -116 -139 -170 -139 -12 0 -18 -4 -15 -10 3 -5 0
-7 -8 -4 -8 3 -49 -4 -93 -15 -72 -19 -113 -22 -116 -10 0 2 3 27 6 55 6 37 2
76 -14 145 -28 116 -30 121 -53 107z"/>
<path d="M1393 2138 c-18 -18 -24 -19 -37 -8 -21 16 -21 3 -1 -17 14 -14 18
-13 38 3 14 12 17 13 9 3 -6 -9 -9 -19 -5 -22 6 -6 -11 -11 -29 -8 -14 2 -8
-17 6 -22 19 -7 31 9 44 56 12 42 6 46 -25 15z"/>
<path d="M1183 2143 c-24 -9 -14 -33 13 -33 29 0 64 16 64 30 0 10 -55 12 -77
3z"/>
<path d="M975 1963 c4 -64 21 -127 59 -215 15 -36 32 -55 20 -23 -4 9 -1 15 7
15 7 0 20 7 30 16 23 21 39 10 39 -26 0 -32 -25 -46 -60 -35 -15 5 -18 3 -14
-9 6 -16 83 -24 85 -8 4 48 3 99 -2 96 -4 -2 -7 6 -7 19 0 12 -7 40 -15 62 -9
22 -16 64 -17 93 0 43 -3 52 -17 52 -10 0 -14 -4 -8 -8 6 -4 11 -29 13 -57 1
-27 10 -69 18 -93 18 -49 11 -64 -36 -81 -28 -9 -30 -8 -36 25 -3 19 -9 34
-13 34 -12 0 -31 91 -33 148 0 29 -4 55 -9 58 -5 3 -7 -26 -4 -63z"/>
<path d="M1418 2016 c-19 -14 -25 -32 -8 -21 5 3 7 0 4 -8 -3 -8 -1 -18 4 -21
6 -3 12 10 14 29 2 19 4 35 3 35 0 0 -8 -7 -17 -14z"/>
<path d="M1331 1805 c-1 -17 -3 -18 -12 -5 -8 12 -9 10 -5 -10 3 -14 6 -36 7
-50 1 -15 5 -7 10 20 5 25 7 50 5 55 -3 6 -5 1 -5 -10z"/>
</g>
</svg>
