<?xml version="1.0" standalone="no"?>
<!DOCTYPE svg PUBLIC "-//W3C//DTD SVG 20010904//EN"
 "http://www.w3.org/TR/2001/REC-SVG-20010904/DTD/svg10.dtd">
<svg version="1.0" xmlns="http://www.w3.org/2000/svg"
 width="1374.000000pt" height="1004.000000pt" viewBox="0 0 1374.000000 1004.000000"
 preserveAspectRatio="xMidYMid meet">

<g transform="translate(0.000000,1004.000000) scale(0.100000,-0.100000)"
fill="#000000" stroke="none">
<path d="M5480 9999 c0 -5 5 -7 10 -4 6 3 10 8 10 11 0 2 -4 4 -10 4 -5 0 -10
-5 -10 -11z"/>
<path d="M6175 8949 c-10 -15 1 -23 20 -15 9 3 13 10 10 16 -8 13 -22 13 -30
-1z"/>
<path d="M2510 8310 c0 -5 4 -10 9 -10 6 0 13 5 16 10 3 6 -1 10 -9 10 -9 0
-16 -4 -16 -10z"/>
<path d="M9298 7824 c-11 -10 3 -34 19 -34 8 0 13 7 11 17 -3 18 -20 27 -30
17z"/>
<path d="M7060 7630 c0 -5 7 -10 15 -10 8 0 15 5 15 10 0 6 -7 10 -15 10 -8 0
-15 -4 -15 -10z"/>
<path d="M5501 7417 c-13 -13 4 -37 28 -37 11 0 12 -3 4 -8 -16 -10 -5 -52 13
-52 8 0 11 -6 8 -15 -4 -8 -1 -15 6 -15 7 0 10 -6 7 -14 -3 -7 -1 -18 5 -24 6
-6 12 -21 14 -34 2 -13 5 -31 7 -41 4 -20 49 -47 78 -47 11 0 19 -4 19 -10 0
-5 -9 -10 -20 -10 -12 0 -20 -7 -20 -16 0 -12 6 -15 25 -10 30 8 33 -9 5 -26
-25 -16 -26 -48 -2 -49 10 0 12 -3 5 -6 -15 -5 -18 -33 -4 -33 6 0 13 5 16 10
3 6 13 10 21 10 8 0 14 -4 14 -10 0 -5 -9 -10 -19 -10 -27 0 -33 -13 -18 -44
14 -30 42 -36 34 -7 -2 11 3 25 14 35 11 9 16 22 12 33 -5 17 -4 17 13 -1 14
-13 15 -20 7 -23 -7 -3 -13 -13 -13 -22 0 -10 -8 -26 -19 -35 -36 -33 -32
-136 6 -136 20 0 15 -17 -9 -35 -16 -12 -19 -19 -11 -22 9 -3 11 -14 6 -30 -5
-22 -3 -25 11 -20 10 4 26 7 37 7 11 0 23 9 27 21 11 28 27 7 35 -46 4 -22 11
-41 17 -43 21 -7 9 -21 -17 -19 -20 1 -28 -3 -31 -17 -3 -13 0 -17 10 -14 16
7 42 -18 28 -27 -5 -3 -7 -22 -6 -43 3 -29 10 -40 36 -55 17 -9 36 -14 42 -11
7 4 8 2 4 -4 -4 -7 -13 -12 -19 -12 -7 0 -25 -7 -40 -15 -21 -10 -34 -12 -47
-5 -25 13 -30 13 -30 -4 0 -8 6 -17 13 -19 6 -3 3 -6 -8 -6 -18 -1 -18 -2 -3
-17 13 -13 22 -15 46 -6 35 12 72 5 72 -13 0 -14 -28 -29 -46 -26 -18 2 -22
-21 -10 -59 8 -24 18 -36 34 -38 23 -3 29 -21 13 -37 -12 -13 -16 -93 -6 -122
4 -13 14 -23 22 -23 8 0 13 -6 10 -12 -2 -7 -10 -12 -16 -11 -17 4 -18 -63 0
-82 5 -5 9 -23 9 -41 0 -20 6 -34 16 -38 13 -5 12 -9 -5 -28 -25 -26 -26 -41
-6 -58 9 -8 13 -25 11 -51 -4 -37 -3 -39 25 -39 16 0 29 -4 29 -10 0 -5 -9
-10 -20 -10 -14 0 -20 -7 -20 -22 1 -38 -7 -82 -19 -111 -14 -36 -14 -37 4
-37 8 0 15 5 15 10 0 6 5 10 10 10 6 0 10 -7 10 -15 0 -8 -9 -15 -20 -15 -13
0 -20 -7 -20 -20 0 -14 12 -23 48 -34 48 -15 48 -20 0 -16 -30 2 -36 -8 -16
-28 9 -9 8 -12 -6 -12 -9 0 -14 5 -11 10 3 6 -1 10 -9 10 -22 0 -31 -22 -14
-34 9 -6 18 -20 21 -31 3 -14 5 -15 6 -4 1 15 58 36 69 25 9 -10 -10 -26 -31
-26 -26 0 -54 -37 -39 -52 6 -6 12 -6 16 1 4 5 13 8 21 5 11 -5 12 -10 2 -25
-6 -10 -17 -19 -24 -19 -8 0 -13 -13 -13 -30 0 -16 5 -30 10 -30 6 0 10 -8 10
-18 0 -10 10 -30 22 -45 16 -20 21 -38 19 -67 -2 -32 1 -40 14 -40 12 0 15 -5
10 -21 -6 -16 -4 -20 6 -14 11 6 12 5 2 -6 -10 -10 -16 -10 -25 -1 -18 18 -28
15 -28 -8 0 -10 16 -34 35 -53 19 -19 35 -39 35 -46 0 -6 7 -11 15 -11 8 0 15
6 15 14 0 8 9 18 20 21 22 7 24 13 10 35 -8 12 -13 13 -30 3 -26 -17 -30 -16
-30 2 0 14 6 16 50 19 11 1 17 18 22 60 7 56 1 89 -10 57 -2 -7 -14 -23 -26
-35 l-21 -21 -3 25 c-2 14 -8 30 -14 35 -7 7 -9 3 -5 -12 3 -16 1 -23 -9 -23
-25 0 -16 40 12 50 14 6 30 8 35 5 14 -9 49 14 49 33 0 14 -2 15 -9 3 -10 -16
-75 -21 -88 -7 -4 4 -1 12 7 17 11 8 12 12 3 16 -15 6 -17 39 -3 48 5 3 15 15
20 25 8 16 8 18 -5 14 -10 -4 -15 0 -15 10 0 9 7 16 15 16 8 0 15 7 15 16 0
10 6 14 15 10 9 -3 15 0 15 10 0 11 -6 15 -20 11 -23 -6 -45 16 -36 38 7 18
62 20 69 3 2 -8 8 -9 13 -4 5 5 4 11 -3 13 -21 7 -15 33 7 33 23 0 25 11 8 42
-22 37 -32 44 -67 43 -19 0 -36 6 -38 13 -3 6 2 12 11 12 19 0 21 14 3 28 -8
7 -18 7 -27 2 -18 -11 -31 -3 -24 14 3 9 14 12 27 8 21 -5 21 -5 5 12 -24 24
-23 29 7 24 14 -3 30 1 36 8 9 11 8 14 -4 14 -18 0 -27 21 -27 61 0 38 19 37
27 -2 4 -19 9 -27 15 -21 7 7 6 24 -3 49 -7 21 -12 44 -11 51 4 15 -10 16 -26
0 -9 -9 -12 -8 -12 4 0 9 4 18 9 20 5 2 6 26 4 55 -4 40 -10 54 -25 59 -18 6
-19 6 -1 19 15 11 16 16 4 38 -7 13 -18 24 -25 24 -49 -1 -61 19 -30 51 15 15
16 14 10 -6 -8 -23 7 -30 30 -14 12 7 12 78 0 89 -3 3 -6 14 -6 22 0 18 -34
51 -52 51 -6 0 -1 8 10 19 26 21 27 34 8 50 -10 8 -16 9 -21 1 -9 -14 -38 -13
-33 2 3 7 19 16 37 20 27 8 31 12 25 30 -3 12 -7 33 -8 47 -1 14 -5 32 -9 39
-5 7 -2 14 7 18 19 7 21 24 3 24 -8 0 -12 11 -11 31 1 17 -4 42 -12 57 -8 15
-17 42 -20 60 -3 18 -10 35 -15 38 -5 3 -9 25 -9 49 0 31 -5 47 -17 54 -13 7
-17 24 -18 76 0 52 -4 69 -18 76 -14 8 -15 13 -5 29 15 24 4 37 -40 46 -21 4
-32 3 -32 -5 0 -6 -7 -11 -15 -11 -26 0 -17 15 17 28 22 8 35 8 44 1 15 -12
34 -4 34 15 0 7 -9 23 -20 36 -11 13 -20 27 -20 32 0 12 18 10 22 -4 3 -7 7
-5 11 5 5 13 -1 21 -21 29 -21 9 -23 12 -9 15 9 3 17 9 17 14 0 5 -8 9 -17 9
-17 1 -17 1 0 11 21 12 22 38 2 45 -10 4 -13 13 -10 25 4 11 2 19 -6 19 -8 0
-9 3 0 14 7 9 9 31 4 67 -8 53 -9 54 -44 57 -26 2 -38 -1 -43 -13 -4 -11 -2
-14 6 -9 8 5 9 2 5 -9 -3 -9 -2 -19 4 -23 6 -3 8 -12 5 -20 -3 -8 0 -24 7 -35
10 -16 9 -21 -2 -28 -9 -6 -10 -11 -2 -15 6 -4 16 -4 21 -1 6 3 10 -1 10 -10
0 -9 -4 -14 -10 -10 -5 3 -8 -7 -5 -24 3 -25 -1 -33 -24 -44 l-28 -14 11 30
c8 21 8 31 1 34 -6 2 -9 19 -7 40 4 28 2 34 -9 27 -18 -11 -49 -13 -49 -3 0 4
9 11 20 14 15 5 20 16 22 46 1 21 2 47 2 56 1 13 -8 18 -33 20 -26 2 -32 0
-27 -12 7 -20 -4 -19 -34 5 -21 17 -23 21 -10 30 13 9 12 13 -7 29 -13 11 -23
26 -23 34 0 21 -55 48 -69 34z m189 -156 c0 -6 -4 -13 -10 -16 -5 -3 -10 1
-10 9 0 9 5 16 10 16 6 0 10 -4 10 -9z m-58 -61 c2 -22 0 -40 -4 -40 -5 0 -8
4 -8 9 0 5 -3 23 -6 40 -4 18 -2 31 4 31 5 0 12 -18 14 -40z m192 -364 c-3 -7
-16 -13 -30 -13 -28 0 -32 13 -6 20 32 9 41 7 36 -7z m-7 -63 c6 -21 9 -40 6
-43 -8 -9 -33 33 -33 57 0 35 14 28 27 -14z m-40 -55 c-3 -7 -5 -2 -5 12 0 14
2 19 5 13 2 -7 2 -19 0 -25z m103 -89 c0 -6 -4 -7 -10 -4 -5 3 -10 11 -10 16
0 6 5 7 10 4 6 -3 10 -11 10 -16z m10 -123 c0 -14 -4 -28 -10 -31 -6 -4 -10 7
-10 24 0 17 5 31 10 31 6 0 10 -11 10 -24z m45 -145 c3 -5 1 -12 -5 -16 -5 -3
-10 1 -10 9 0 18 6 21 15 7z m-45 -126 c0 -5 -5 -3 -10 5 -5 8 -10 20 -10 25
0 6 5 3 10 -5 5 -8 10 -19 10 -25z m110 -206 c0 -5 -4 -9 -10 -9 -5 0 -10 7
-10 16 0 8 5 12 10 9 6 -3 10 -10 10 -16z m-30 -139 c0 -5 -7 -10 -15 -10 -8
0 -15 5 -15 10 0 6 7 10 15 10 8 0 15 -4 15 -10z m39 -53 c12 -15 5 -27 -16
-27 -7 0 -13 7 -13 16 0 9 -5 12 -12 8 -7 -4 -8 -3 -4 4 10 16 31 15 45 -1z
m16 -57 c-3 -5 -10 -10 -16 -10 -5 0 -9 5 -9 10 0 6 7 10 16 10 8 0 12 -4 9
-10z m5 -180 c0 -5 -5 -10 -11 -10 -5 0 -7 5 -4 10 3 6 8 10 11 10 2 0 4 -4 4
-10z m-43 -46 c-3 -3 -12 -4 -19 -1 -8 3 -5 6 6 6 11 1 17 -2 13 -5z m43 -134
c0 -5 -4 -10 -10 -10 -5 0 -10 5 -10 10 0 6 5 10 10 10 6 0 10 -4 10 -10z m67
-36 c-3 -3 -12 -4 -19 -1 -8 3 -5 6 6 6 11 1 17 -2 13 -5z m-37 -138 c0 -3 -4
-8 -10 -11 -5 -3 -10 -1 -10 4 0 6 5 11 10 11 6 0 10 -2 10 -4z m-65 -76 c3
-5 1 -10 -4 -10 -6 0 -11 5 -11 10 0 6 2 10 4 10 3 0 8 -4 11 -10z m35 -50 c0
-5 -4 -10 -10 -10 -5 0 -10 5 -10 10 0 6 5 10 10 10 6 0 10 -4 10 -10z m60
-176 c0 -8 -4 -12 -10 -9 -5 3 -10 10 -10 16 0 5 5 9 10 9 6 0 10 -7 10 -16z"/>
<path d="M5364 7383 c-4 -16 -11 -34 -17 -41 -15 -19 -2 -25 21 -11 26 16 47
54 38 68 -13 20 -36 11 -42 -16z"/>
<path d="M5286 7361 c-9 -9 -13 -21 -9 -26 5 -4 0 -5 -10 -2 -10 4 -33 -2 -54
-14 -20 -11 -63 -25 -95 -31 -48 -8 -58 -14 -58 -30 0 -25 -18 -43 -52 -51
-15 -4 -33 -14 -42 -22 -8 -8 -18 -15 -23 -15 -5 0 -23 -13 -40 -29 -17 -16
-48 -32 -68 -35 -20 -4 -33 -11 -29 -17 3 -6 13 -8 22 -4 8 3 18 1 22 -4 4 -7
16 -5 34 4 16 8 34 15 41 15 6 0 20 9 30 20 10 11 26 20 36 20 10 0 21 5 24
10 3 6 1 10 -4 10 -6 0 -11 4 -11 9 0 13 39 21 46 10 3 -6 11 -5 20 2 7 6 20
9 28 6 9 -4 34 12 61 37 25 24 48 40 50 35 3 -4 14 -5 25 -2 19 5 20 6 3 19
-16 12 -13 13 25 12 48 -1 77 16 52 32 -10 7 -11 10 -2 10 14 0 17 36 3 44 -4
3 -16 -3 -25 -13z m-143 -94 c-2 -4 -3 -11 -3 -17 0 -5 -6 -10 -14 -10 -8 0
-16 -6 -19 -12 -8 -23 -18 -1 -11 26 4 19 11 25 28 22 11 -2 20 -6 19 -9z"/>
<path d="M5630 7335 c0 -10 10 -15 26 -15 22 0 25 2 14 15 -7 8 -19 15 -26 15
-8 0 -14 -7 -14 -15z"/>
<path d="M4950 7270 c-11 -11 -33 -20 -49 -20 -18 0 -35 -8 -43 -18 -7 -10
-31 -22 -53 -25 -21 -4 -52 -16 -67 -27 -16 -12 -33 -18 -38 -15 -5 3 -11 1
-15 -4 -3 -6 -12 -8 -21 -4 -14 5 -84 -35 -84 -49 0 -5 -9 -8 -19 -8 -10 0
-22 -8 -26 -17 -5 -15 -4 -16 6 -5 16 15 29 16 29 2 0 -6 -3 -9 -7 -9 -5 1
-10 1 -13 -1 -3 -1 -16 -4 -30 -6 -13 -2 -27 -8 -30 -13 -3 -4 -23 -11 -45
-15 -22 -4 -49 -16 -60 -26 -19 -16 -31 -19 -78 -21 -9 0 -27 -13 -39 -30 -12
-16 -30 -29 -40 -29 -21 0 -24 -16 -5 -23 9 -4 8 -8 -3 -16 -10 -7 -18 -6 -27
1 -10 8 -18 6 -31 -6 -10 -9 -24 -16 -30 -16 -7 0 -12 -4 -12 -10 0 -5 -3 -9
-7 -9 -23 4 -35 -3 -29 -16 3 -8 1 -15 -5 -15 -6 0 -17 -7 -25 -15 -9 -8 -25
-15 -38 -15 -12 0 -28 -9 -36 -20 -8 -11 -19 -20 -25 -20 -6 0 -27 -13 -45
-30 -18 -16 -40 -30 -47 -30 -7 0 -13 -8 -13 -18 0 -15 -8 -19 -35 -20 -49 -2
-63 -12 -40 -29 17 -12 17 -13 -9 -13 -22 0 -27 4 -22 16 5 14 4 15 -9 4 -13
-11 -12 -15 7 -33 l23 -20 -33 6 c-23 5 -38 2 -49 -8 -16 -17 -39 -20 -47 -6
-8 12 -82 -24 -89 -44 -4 -8 -11 -15 -18 -15 -6 0 -9 7 -5 15 4 10 -1 15 -14
15 -15 0 -20 -7 -20 -26 0 -19 -4 -25 -15 -21 -8 4 -17 1 -21 -5 -4 -7 -9 -6
-15 3 -8 12 -12 11 -23 -3 -7 -10 -16 -15 -20 -11 -4 4 -9 -3 -13 -15 -6 -25
-18 -29 -27 -7 -7 20 -26 19 -26 -1 0 -8 5 -12 10 -9 6 3 10 2 10 -3 0 -12
-25 -22 -56 -22 -17 0 -22 -4 -18 -15 6 -16 -2 -18 -48 -15 -16 1 -28 -3 -28
-9 0 -6 -7 -11 -15 -11 -9 0 -20 -11 -25 -25 -9 -24 -40 -26 -40 -2 0 6 -13
-1 -28 -16 -19 -18 -35 -25 -45 -21 -11 4 -17 1 -17 -7 0 -10 -17 -14 -60 -15
-33 -1 -60 2 -60 7 0 5 8 9 18 9 10 0 23 5 30 12 9 9 15 9 24 0 16 -16 28 -15
28 2 0 8 10 16 22 18 13 2 24 11 26 22 3 15 -1 18 -21 14 -16 -3 -24 -1 -21 6
2 6 -5 17 -16 24 -17 10 -20 10 -20 -3 0 -8 -5 -15 -10 -15 -16 0 -80 -68 -80
-85 0 -18 -5 -19 -31 -5 -15 9 -19 7 -19 -6 0 -13 -6 -15 -29 -11 -30 6 -71
-15 -71 -36 -1 -15 -50 -52 -50 -38 0 6 6 14 13 18 19 11 39 93 23 93 -7 0
-19 -12 -27 -27 -8 -16 -20 -32 -26 -36 -7 -4 -13 -15 -13 -22 0 -8 -7 -15
-15 -15 -13 0 -18 -16 -14 -46 1 -11 -36 -33 -55 -34 -10 0 -45 -10 -77 -21
-43 -16 -59 -27 -59 -40 0 -11 6 -19 14 -19 8 0 17 -8 21 -19 3 -10 14 -26 25
-36 19 -17 20 -17 20 3 0 12 10 26 22 33 18 10 20 9 15 -5 -5 -12 -1 -16 15
-16 24 0 104 36 114 51 9 16 26 10 20 -7 -9 -22 21 -43 62 -44 24 0 41 9 66
35 19 19 38 35 43 35 4 0 15 5 23 10 13 8 12 11 -5 24 -17 13 -18 15 -3 16 9
0 20 5 24 12 5 8 0 9 -14 6 -23 -6 -39 6 -23 17 15 9 61 -5 58 -19 -4 -20 27
-12 38 11 7 12 16 19 21 14 5 -4 33 -6 62 -3 37 3 52 8 52 19 0 14 -11 13 -57
-4 -7 -3 -13 2 -13 11 0 13 -6 15 -26 10 -20 -5 -25 -3 -22 7 6 17 106 30 154
19 27 -6 34 -5 34 7 0 8 -4 12 -10 8 -12 -7 -60 5 -60 15 0 8 68 22 108 22 27
0 27 3 1 40 -20 28 -21 30 -3 26 12 -2 18 -10 16 -23 -3 -16 -1 -18 9 -7 18
17 30 15 23 -3 -4 -8 -1 -15 5 -15 6 0 11 11 11 25 0 24 12 30 48 26 8 -1 20
3 29 10 17 15 53 20 53 7 0 -4 9 1 20 12 11 11 26 20 33 20 7 0 27 14 45 30
18 17 37 30 42 30 5 0 7 8 4 18 -5 15 -4 15 10 -2 15 -18 16 -18 22 -1 7 17 8
17 21 -1 14 -19 15 -19 29 0 18 26 18 34 -3 39 -14 4 -13 5 3 6 12 0 25 -7 29
-16 6 -16 8 -15 21 7 14 24 15 24 11 3 -3 -13 -1 -23 4 -23 5 0 9 6 9 14 0 8
5 18 12 22 8 5 9 1 5 -12 -6 -16 -5 -17 5 -4 7 8 28 28 47 44 33 27 35 27 49
9 13 -17 14 -17 7 5 -6 21 10 33 17 12 4 -14 78 21 78 37 0 7 3 12 8 12 24 -4
23 4 -3 16 l-30 15 30 -5 c19 -4 38 0 50 9 15 12 16 15 5 16 -13 0 -13 2 -1 9
9 6 19 4 28 -5 8 -8 22 -13 31 -13 16 1 16 2 0 6 -9 2 -18 10 -21 16 -3 9 7
11 34 9 43 -5 54 13 17 28 l-23 9 22 0 c12 1 26 -6 31 -15 6 -11 11 -13 16 -5
4 6 17 11 29 11 18 0 19 2 7 10 -12 8 -11 10 6 10 12 0 25 7 28 16 5 13 9 14
21 4 12 -10 16 -9 21 3 4 10 25 18 59 22 42 6 55 12 66 31 7 13 18 25 26 25 7
1 19 2 26 3 6 0 13 11 15 24 3 17 -2 22 -20 22 -17 0 -19 3 -9 9 10 6 10 10 1
16 -14 9 18 35 35 28 7 -2 24 1 38 6 32 13 37 36 6 28 -14 -4 -18 -2 -12 4 5
5 26 10 46 11 24 1 37 6 37 15 0 7 3 12 8 11 4 -1 23 4 42 11 34 12 34 13 13
23 -13 6 -23 15 -23 20 0 11 17 10 25 -2 3 -5 13 -10 20 -10 20 0 54 31 49 44
-2 7 11 12 35 12 21 1 50 10 65 19 15 10 29 15 32 12 3 -3 17 4 30 16 16 14
22 27 18 40 -5 17 -3 17 16 7 25 -14 79 7 119 46 l24 24 -27 0 c-14 0 -35 -9
-46 -20z m-130 -90 c0 -5 -7 -10 -15 -10 -8 0 -15 5 -15 10 0 6 7 10 15 10 8
0 15 -4 15 -10z m-450 -260 c0 -5 -4 -10 -10 -10 -5 0 -10 5 -10 10 0 6 5 10
10 10 6 0 10 -4 10 -10z m-20 -40 c0 -5 -4 -10 -10 -10 -5 0 -7 -8 -4 -17 4
-13 3 -14 -3 -5 -10 13 -46 6 -38 -8 3 -4 -4 -10 -15 -13 -11 -3 -22 -1 -25 3
-7 11 35 40 57 40 10 0 18 5 18 10 0 6 5 10 10 10 6 0 10 -4 10 -10z m-140
-75 c0 -8 -4 -15 -10 -15 -5 0 -7 7 -4 15 4 8 8 15 10 15 2 0 4 -7 4 -15z
m-270 -95 c-6 -11 -15 -20 -20 -20 -6 0 -2 9 7 20 10 11 19 20 21 20 1 0 -2
-9 -8 -20z m-420 -245 c-7 -9 -15 -13 -18 -10 -3 2 1 11 8 20 7 9 15 13 18 10
3 -2 -1 -11 -8 -20z m-335 -165 c-3 -5 -11 -10 -16 -10 -6 0 -7 5 -4 10 3 6
11 10 16 10 6 0 7 -4 4 -10z m-155 -50 c0 -5 -2 -10 -4 -10 -3 0 -8 5 -11 10
-3 6 -1 10 4 10 6 0 11 -4 11 -10z m-180 -17 c0 -17 -33 -40 -51 -36 -25 7
-25 23 0 23 11 0 23 5 26 10 7 11 25 14 25 3z m94 -32 c3 -4 -15 -6 -40 -6
-44 0 -60 10 -26 17 21 5 61 -2 66 -11z m-74 -103 c0 -13 -23 -5 -28 10 -2 7
2 10 12 6 9 -3 16 -11 16 -16z m-305 2 c3 -5 -1 -10 -10 -10 -9 0 -13 5 -10
10 3 6 8 10 10 10 2 0 7 -4 10 -10z m-31 -25 c4 -10 -1 -15 -16 -15 -17 0 -18
2 -8 15 7 8 14 15 15 15 2 0 5 -7 9 -15z"/>
<path d="M6125 7100 c3 -5 8 -10 11 -10 2 0 4 5 4 10 0 6 -5 10 -11 10 -5 0
-7 -4 -4 -10z"/>
<path d="M4783 7055 c-18 -8 -33 -18 -33 -23 0 -6 -13 -12 -30 -14 -22 -3 -30
-1 -30 11 -1 13 -4 12 -16 -4 -15 -20 -18 -21 -54 -24 -14 -1 -19 -8 -18 -23
1 -13 -2 -34 -6 -48 -7 -20 -6 -23 5 -12 7 6 19 12 27 12 20 0 45 27 32 35 -6
4 -8 11 -4 16 3 5 9 7 14 4 5 -3 11 -1 15 5 10 16 28 12 21 -5 -8 -21 8 -19
29 5 10 11 22 17 26 14 5 -3 12 1 15 9 3 9 16 18 29 21 24 6 43 36 22 36 -7
-1 -27 -7 -44 -15z m-143 -84 c0 -6 -4 -13 -10 -16 -5 -3 -10 1 -10 9 0 9 5
16 10 16 6 0 10 -4 10 -9z"/>
<path d="M4520 6944 c-30 -8 -59 -19 -63 -23 -15 -15 -3 -66 16 -69 21 -4 87
37 87 54 0 6 7 17 15 24 16 13 20 30 8 29 -5 0 -33 -7 -63 -15z m0 -33 c0 -9
-23 -21 -41 -21 -4 0 -6 7 -3 15 7 16 44 21 44 6z"/>
<path d="M3244 6934 c3 -9 6 -18 6 -20 0 -2 7 -4 15 -4 9 0 20 -12 26 -26 5
-15 12 -24 16 -21 3 4 14 -5 25 -18 11 -14 25 -22 33 -18 9 3 21 0 29 -6 7 -6
28 -10 47 -8 30 2 34 6 31 27 -5 34 -30 49 -79 50 -33 0 -43 4 -48 21 -7 22
-42 39 -82 39 -19 0 -24 -4 -19 -16z m196 -94 c9 -6 10 -10 3 -10 -6 0 -19 -3
-27 -6 -12 -5 -15 -2 -10 10 7 18 13 20 34 6z"/>
<path d="M4968 6864 c-6 -6 0 -125 6 -131 13 -13 23 12 25 65 1 44 -2 61 -13
65 -8 3 -16 4 -18 1z"/>
<path d="M3475 6801 c-6 -11 9 -23 19 -14 9 9 7 23 -3 23 -6 0 -12 -4 -16 -9z"/>
<path d="M3612 6759 c2 -6 8 -10 13 -10 5 0 11 4 13 10 2 6 -4 11 -13 11 -9 0
-15 -5 -13 -11z"/>
<path d="M3825 6760 c-3 -5 -1 -10 4 -10 6 0 11 5 11 10 0 6 -2 10 -4 10 -3 0
-8 -4 -11 -10z"/>
<path d="M5190 6760 c0 -5 14 -24 31 -41 25 -25 33 -29 40 -18 13 21 11 26
-17 48 -28 22 -54 28 -54 11z"/>
<path d="M5500 6746 c0 -18 16 -29 30 -21 13 8 1 35 -16 35 -8 0 -14 -6 -14
-14z"/>
<path d="M3705 6740 c3 -5 10 -10 16 -10 5 0 9 5 9 10 0 6 -7 10 -16 10 -8 0
-12 -4 -9 -10z"/>
<path d="M3443 6701 c-13 -20 -8 -31 14 -31 7 0 13 11 13 25 0 30 -11 32 -27
6z"/>
<path d="M3580 6711 c0 -6 5 -13 10 -16 6 -3 10 1 10 9 0 9 -4 16 -10 16 -5 0
-10 -4 -10 -9z"/>
<path d="M5885 6701 c-3 -5 -1 -12 5 -16 5 -3 10 1 10 9 0 18 -6 21 -15 7z"/>
<path d="M3625 6659 c-4 -11 -4 -23 -1 -27 10 -9 39 25 32 37 -11 17 -24 13
-31 -10z"/>
<path d="M5716 6653 c-2 -2 -1 -15 2 -28 5 -27 17 -33 26 -12 3 6 3 1 0 -13
-4 -14 -13 -29 -21 -33 -12 -7 -11 -12 8 -25 l22 -15 -21 -8 c-17 -7 -22 -17
-22 -46 0 -37 0 -37 16 -14 10 14 20 19 25 14 13 -13 1 -41 -22 -53 -19 -11
-19 -7 -5 -143 2 -10 9 -23 17 -28 12 -8 12 -10 0 -18 -12 -8 -13 -12 -1 -26
9 -11 10 -19 2 -27 -6 -6 -8 -17 -5 -24 3 -8 1 -20 -5 -27 -16 -19 -2 -79 19
-84 11 -3 19 -12 19 -19 0 -16 26 -19 35 -4 3 6 2 10 -4 10 -5 0 -9 15 -9 33
0 17 -3 66 -6 107 -4 41 -7 114 -8 163 -1 48 -5 87 -10 87 -4 0 -8 5 -8 10 0
6 7 10 15 10 8 0 15 -8 15 -19 0 -13 6 -18 23 -16 12 1 31 3 41 4 19 1 19 2
-2 21 -12 11 -28 20 -36 20 -16 0 -31 34 -21 50 3 5 12 10 20 10 8 0 17 5 21
11 5 8 -1 10 -20 7 -25 -5 -27 -3 -23 18 2 13 0 24 -5 24 -14 0 2 43 21 57 9
6 13 14 10 17 -6 7 -98 14 -103 9z m34 -253 c0 -5 -5 -10 -11 -10 -5 0 -7 5
-4 10 3 6 8 10 11 10 2 0 4 -4 4 -10z"/>
<path d="M3459 6627 c-7 -30 6 -46 24 -28 8 8 8 11 0 11 -7 0 -13 10 -15 23
-3 20 -4 19 -9 -6z"/>
<path d="M3497 6644 c-9 -10 4 -34 19 -34 8 0 14 -6 15 -12 0 -7 5 -3 11 9 6
12 18 24 27 27 9 3 4 4 -12 2 -15 -2 -30 1 -33 5 -6 10 -18 12 -27 3z"/>
<path d="M3348 6626 c-15 -8 -37 -21 -49 -29 -11 -8 -28 -13 -39 -10 -10 3
-21 0 -24 -6 -4 -6 0 -11 10 -11 28 0 7 -13 -28 -17 -17 -2 -36 -8 -43 -13 -7
-5 -15 -6 -19 -2 -9 9 -36 -26 -36 -46 0 -12 3 -12 19 2 15 13 20 14 24 4 4
-10 6 -10 6 0 1 6 10 12 21 12 11 0 29 9 39 19 10 10 37 22 60 26 29 5 41 12
41 23 0 22 36 46 46 31 4 -6 3 -14 -2 -18 -14 -9 -35 -51 -27 -51 5 1 20 17
35 37 21 28 25 39 17 50 -14 16 -18 16 -51 -1z"/>
<path d="M5580 6604 c0 -8 5 -12 10 -9 6 4 8 11 5 16 -9 14 -15 11 -15 -7z"/>
<path d="M3405 6555 c-16 -14 -36 -25 -43 -25 -7 0 -11 -4 -7 -10 3 -5 19 -1
38 10 18 11 43 20 55 20 15 0 22 5 20 13 -8 21 -32 18 -63 -8z"/>
<path d="M8990 6570 c0 -5 5 -10 10 -10 6 0 10 5 10 10 0 6 -4 10 -10 10 -5 0
-10 -4 -10 -10z"/>
<path d="M3790 6550 c0 -5 5 -10 11 -10 5 0 7 5 4 10 -3 6 -8 10 -11 10 -2 0
-4 -4 -4 -10z"/>
<path d="M3240 6515 c0 -8 -4 -15 -10 -15 -5 0 -10 -4 -10 -10 0 -5 7 -10 16
-10 8 0 13 4 9 9 -3 5 -1 12 5 16 13 8 13 25 0 25 -5 0 -10 -7 -10 -15z"/>
<path d="M3293 6510 c1 -23 8 -25 25 -8 17 17 15 28 -7 28 -14 0 -19 -6 -18
-20z"/>
<path d="M2841 6499 c-11 -19 -11 -21 4 -15 9 3 19 6 21 6 2 0 4 7 4 15 0 21
-13 19 -29 -6z"/>
<path d="M3063 6483 c-7 -2 -13 -11 -13 -18 0 -8 -10 -21 -22 -29 -20 -14 -20
-18 -8 -30 19 -18 70 -30 70 -16 0 5 -9 10 -20 10 -23 0 -25 17 -6 43 17 22
26 22 26 -3 0 -11 7 -20 15 -20 19 0 20 37 1 56 -15 15 -22 16 -43 7z"/>
<path d="M4185 6480 c3 -5 8 -10 11 -10 2 0 4 5 4 10 0 6 -5 10 -11 10 -5 0
-7 -4 -4 -10z"/>
<path d="M3144 6442 c-11 -14 -25 -31 -31 -38 -13 -13 -18 -34 -8 -34 3 0 17
12 31 28 23 25 25 25 19 5 -4 -14 -2 -23 4 -23 6 0 11 6 11 13 0 8 3 8 9 -2 6
-10 9 0 9 31 -1 51 -16 58 -44 20z"/>
<path d="M3215 6449 c-4 -11 -4 -23 -1 -26 10 -10 35 18 29 33 -8 20 -21 17
-28 -7z"/>
<path d="M6050 6460 c0 -5 5 -10 10 -10 6 0 10 5 10 10 0 6 -4 10 -10 10 -5 0
-10 -4 -10 -10z"/>
<path d="M2810 6448 c0 -7 5 -20 10 -28 8 -13 10 -12 10 3 0 9 0 20 1 24 0 4
-4 9 -10 11 -6 2 -11 -2 -11 -10z"/>
<path d="M2777 6403 c-17 -4 -47 -51 -47 -73 0 -22 28 -9 34 16 4 15 10 24 13
20 9 -8 33 14 33 30 0 14 -3 15 -33 7z"/>
<path d="M4364 6392 c-4 -15 -12 -21 -21 -18 -20 8 -76 -23 -70 -38 8 -20 -14
-38 -30 -25 -17 15 -44 4 -37 -16 3 -8 10 -13 14 -10 5 3 11 1 15 -5 3 -5 -3
-10 -14 -10 -12 0 -21 -4 -21 -10 0 -5 7 -10 15 -10 8 0 12 -6 9 -14 -7 -17
25 -56 46 -56 12 -1 11 -4 -4 -15 -19 -15 -19 -16 18 -54 22 -23 33 -41 27
-45 -10 -7 16 -62 47 -98 16 -19 48 -25 37 -8 -3 6 -2 10 4 10 5 0 11 -4 13
-10 2 -5 18 -14 36 -19 28 -9 32 -7 32 11 0 11 5 18 13 15 6 -2 11 -10 9 -16
-3 -16 5 -14 46 14 20 14 42 25 49 25 17 0 17 27 1 33 -8 4 -7 6 3 6 23 1 32
28 12 35 -10 4 -12 10 -6 19 8 11 9 18 5 55 -1 6 -13 12 -27 12 -14 0 -25 5
-25 10 0 6 9 10 20 10 11 0 20 5 20 10 0 6 -6 10 -14 10 -9 0 -12 7 -9 20 4
14 0 20 -11 20 -10 0 -16 9 -16 25 0 13 -7 28 -15 33 -9 4 -26 28 -39 53 -16
30 -31 45 -47 48 -13 1 -27 8 -31 14 -4 8 -11 7 -21 -2 -12 -9 -16 -9 -20 1
-4 8 -8 4 -13 -10z m-34 -52 c0 -5 -9 -10 -20 -10 -11 0 -20 5 -20 10 0 6 9
10 20 10 11 0 20 -4 20 -10z m37 -32 c-3 -7 -5 -2 -5 12 0 14 2 19 5 13 2 -7
2 -19 0 -25z m94 -23 c7 -19 19 -35 26 -35 7 0 13 -3 14 -7 4 -35 12 -69 18
-78 4 -5 6 -28 4 -50 -2 -22 -4 -47 -4 -56 0 -12 -15 -21 -43 -28 -24 -6 -51
-13 -59 -17 -12 -4 -20 5 -32 32 -9 21 -21 42 -28 46 -9 6 -9 8 1 8 6 0 12 5
12 11 0 16 -26 39 -45 39 -9 0 -14 4 -10 10 3 5 12 7 20 3 8 -3 15 0 15 7 0
19 -27 40 -44 34 -9 -3 -16 -1 -16 5 0 6 4 11 10 11 5 0 27 15 47 33 41 35 84
66 95 66 4 1 12 -15 19 -34z m-128 -2 c3 -5 -1 -14 -9 -21 -12 -11 -14 -9 -14
8 0 20 14 27 23 13z m257 -199 c0 -8 -5 -12 -10 -9 -6 4 -8 11 -5 16 9 14 15
11 15 -7z m-160 -84 c0 -5 -10 -10 -22 -9 -22 0 -22 1 -3 9 11 5 21 9 23 9 1
1 2 -3 2 -9z m95 0 c-3 -5 -13 -10 -21 -10 -8 0 -12 5 -9 10 3 6 13 10 21 10
8 0 12 -4 9 -10z"/>
<path d="M3905 6331 c-6 -11 63 -33 76 -26 4 3 9 0 11 -7 4 -12 28 -3 28 11 0
6 -78 31 -100 31 -5 0 -11 -4 -15 -9z"/>
<path d="M3766 6315 c-23 -17 -21 -21 15 -30 19 -5 28 -2 33 10 13 34 -14 45
-48 20z"/>
<path d="M3839 6291 c-19 -15 -21 -22 -12 -32 10 -10 14 -9 19 4 3 9 12 17 20
17 8 0 14 7 14 15 0 20 -13 19 -41 -4z"/>
<path d="M3908 6292 c-10 -2 -18 -9 -18 -15 0 -21 -48 -36 -83 -26 -17 5 -35
9 -39 9 -16 0 -8 -30 11 -41 11 -7 16 -19 13 -31 -6 -24 -16 -23 -34 4 -14 20
-48 21 -48 1 1 -16 80 -94 90 -88 5 3 10 1 10 -5 0 -7 6 -10 13 -7 9 3 12 -7
12 -35 0 -31 -2 -36 -11 -23 -19 26 -34 17 -34 -20 0 -19 5 -35 11 -35 8 0 8
-4 -1 -15 -18 -22 -4 -36 25 -23 19 8 27 7 39 -4 8 -9 12 -18 9 -22 -4 -3 -2
-6 4 -6 15 0 23 -24 13 -40 -6 -9 -13 -7 -29 9 -17 17 -26 20 -35 12 -28 -23
10 -101 49 -101 8 0 15 -4 15 -9 0 -5 9 -11 20 -14 11 -3 20 -2 20 3 0 4 7 7
16 6 25 -2 28 21 5 34 -12 6 -21 7 -21 1 0 -13 -53 -6 -58 8 -2 6 -8 9 -13 5
-5 -3 -9 0 -9 6 0 7 8 9 19 5 12 -4 21 0 25 12 4 10 10 13 14 8 4 -6 21 -18
37 -27 22 -13 30 -24 28 -42 -1 -16 5 -27 15 -30 35 -12 98 13 73 28 -17 11
-13 26 7 26 10 0 29 11 42 25 18 19 21 27 11 39 -9 11 -9 15 0 18 16 5 14 158
-2 169 -6 4 -8 12 -5 18 4 6 0 11 -11 12 -10 0 -13 3 -5 6 25 10 4 46 -34 56
-16 4 -16 5 4 6 26 1 20 21 -7 21 -23 0 -58 26 -48 37 5 4 16 -1 24 -12 11
-14 17 -16 20 -7 3 6 12 12 21 12 11 0 6 6 -12 15 -15 8 -40 15 -54 15 -14 0
-22 3 -19 6 7 7 -29 38 -53 45 -8 3 -23 4 -32 1z m83 -100 c3 -4 11 -26 17
-48 8 -26 23 -49 39 -59 27 -18 27 -18 5 -26 -15 -6 -22 -17 -22 -33 0 -18 4
-24 14 -20 8 3 22 1 32 -4 14 -8 13 -10 -9 -16 -33 -8 -41 -33 -17 -53 19 -16
19 -17 -1 -34 -12 -10 -21 -31 -21 -48 -1 -34 -26 -43 -48 -16 -10 13 -9 15 9
15 11 0 21 5 21 10 0 6 -8 10 -18 10 -9 0 -23 9 -30 20 -7 11 -21 20 -32 20
-11 0 -20 5 -20 10 0 6 8 10 19 10 30 0 13 62 -19 70 l-25 6 25 7 c15 4 21 10
14 14 -15 11 -42 85 -37 101 3 7 0 19 -7 27 -15 18 -5 35 21 35 10 0 19 5 19
10 0 11 61 4 71 -8z m-181 -52 c0 -5 -4 -10 -10 -10 -5 0 -10 5 -10 10 0 6 5
10 10 10 6 0 10 -4 10 -10z m250 -30 c0 -5 -2 -10 -4 -10 -3 0 -8 5 -11 10 -3
6 -1 10 4 10 6 0 11 -4 11 -10z m-186 -129 c3 -5 -6 -11 -19 -14 -27 -5 -44 8
-23 16 21 8 36 8 42 -2z m206 -21 c0 -5 -5 -10 -11 -10 -5 0 -7 5 -4 10 3 6 8
10 11 10 2 0 4 -4 4 -10z m-130 -90 c0 -5 -2 -10 -4 -10 -3 0 -8 5 -11 10 -3
6 -1 10 4 10 6 0 11 -4 11 -10z m70 -74 c0 -3 -4 -8 -10 -11 -5 -3 -10 -1 -10
4 0 6 5 11 10 11 6 0 10 -2 10 -4z"/>
<path d="M3190 6259 c0 -5 5 -7 10 -4 6 3 10 8 10 11 0 2 -4 4 -10 4 -5 0 -10
-5 -10 -11z"/>
<path d="M5017 6254 c-5 -5 -27 -9 -79 -13 -14 -2 -8 -21 16 -59 13 -20 27
-54 30 -74 4 -21 12 -38 17 -38 6 0 8 -8 4 -19 -4 -12 0 -21 11 -25 13 -5 14
-9 5 -20 -14 -17 -22 -134 -10 -142 5 -3 7 -9 4 -15 -3 -5 6 -26 20 -46 14
-21 25 -50 25 -64 0 -30 21 -43 40 -26 10 9 11 9 6 0 -8 -15 14 -29 23 -14 5
7 18 -1 37 -24 16 -19 35 -35 41 -35 16 0 17 46 3 55 -8 5 -7 12 1 22 9 10 9
17 2 21 -6 4 -13 17 -17 30 -4 12 -12 22 -17 22 -5 0 -9 4 -9 10 0 5 7 7 15 4
30 -12 15 33 -19 57 -19 13 -32 27 -29 32 2 4 11 3 19 -4 17 -14 19 1 5 29
-15 28 -24 56 -22 69 1 6 -12 14 -29 18 -28 6 -43 25 -20 25 14 0 12 20 -5 54
-9 16 -14 35 -11 43 3 7 2 15 -3 17 -4 3 -6 19 -3 36 3 19 0 30 -8 30 -6 0
-10 6 -8 12 3 7 -1 18 -8 25 -14 15 -18 16 -27 7z m23 -154 c0 -5 -7 -10 -15
-10 -8 0 -15 5 -15 10 0 6 7 10 15 10 8 0 15 -4 15 -10z m75 -120 c3 -5 2 -10
-4 -10 -5 0 -13 5 -16 10 -3 6 -2 10 4 10 5 0 13 -4 16 -10z m15 -60 c0 -5 -4
-10 -10 -10 -5 0 -10 5 -10 10 0 6 5 10 10 10 6 0 10 -4 10 -10z m-70 -14 c0
-3 -4 -8 -10 -11 -5 -3 -10 -1 -10 4 0 6 5 11 10 11 6 0 10 -2 10 -4z m50 -31
c0 -8 5 -15 10 -15 6 0 10 -7 10 -15 0 -25 -15 -17 -27 15 -6 17 -7 30 -2 30
5 0 9 -7 9 -15z m-20 -25 c0 -5 -5 -10 -11 -10 -5 0 -7 5 -4 10 3 6 8 10 11
10 2 0 4 -4 4 -10z m50 -48 c0 -5 9 -18 20 -30 20 -21 16 -30 -5 -14 -17 12
-36 52 -25 52 5 0 10 -4 10 -8z m-55 -52 c3 -5 1 -10 -4 -10 -6 0 -11 5 -11
10 0 6 2 10 4 10 3 0 8 -4 11 -10z"/>
<path d="M4235 5970 c-3 -5 -2 -10 4 -10 5 0 13 5 16 10 3 6 2 10 -4 10 -5 0
-13 -4 -16 -10z"/>
<path d="M4225 5940 c-9 -15 -1 -23 21 -18 15 3 16 4 1 16 -11 9 -17 10 -22 2z"/>
<path d="M3840 5910 c0 -5 5 -10 10 -10 6 0 10 5 10 10 0 6 -4 10 -10 10 -5 0
-10 -4 -10 -10z"/>
<path d="M2500 5864 c0 -17 22 -14 28 4 2 7 -3 12 -12 12 -9 0 -16 -7 -16 -16z"/>
<path d="M4260 5870 c0 -5 5 -10 10 -10 6 0 10 5 10 10 0 6 -4 10 -10 10 -5 0
-10 -4 -10 -10z"/>
<path d="M2495 5831 c-3 -5 0 -13 6 -17 8 -4 7 -9 -2 -15 -11 -6 -11 -11 -2
-20 9 -9 9 -16 0 -31 -10 -15 -9 -20 3 -28 12 -8 13 -13 3 -29 -13 -20 -11
-23 18 -34 14 -5 16 1 14 36 -1 23 2 53 7 66 5 15 4 28 -3 37 -6 7 -8 17 -5
23 3 5 -1 12 -10 15 -20 8 -22 8 -29 -3z"/>
<path d="M2436 5686 c-9 -14 -14 -31 -11 -38 3 -7 -5 -29 -17 -48 -29 -47 -30
-60 -5 -60 23 0 62 20 40 20 -8 0 -10 11 -6 33 3 17 6 44 6 59 0 15 6 29 13
32 8 3 14 10 14 16 0 18 -17 11 -34 -14z"/>
<path d="M3367 5703 c-13 -13 -7 -53 8 -53 8 0 15 -5 15 -10 0 -6 -6 -10 -13
-8 -7 2 -14 1 -16 -2 -7 -9 10 -50 20 -50 6 0 8 -12 4 -29 -4 -19 -1 -34 10
-44 8 -9 11 -18 6 -22 -13 -8 -6 -78 8 -83 6 -2 8 -8 5 -13 -3 -6 -7 -25 -8
-44 -3 -31 0 -35 20 -35 19 0 22 -5 20 -27 -4 -36 3 -53 20 -53 17 0 36 -44
28 -64 -3 -8 3 -19 13 -25 11 -5 25 -28 32 -51 8 -27 16 -38 24 -33 7 4 19 8
27 8 11 0 14 10 13 39 -3 49 -27 78 -59 70 -18 -5 -24 -2 -24 10 0 10 6 13 16
9 13 -5 15 2 13 40 -2 33 2 52 14 65 16 17 16 21 2 32 -12 10 -18 10 -30 0 -8
-6 -20 -10 -27 -7 -8 3 -3 9 12 16 19 9 25 19 24 44 -1 47 -20 76 -44 70 -25
-7 -26 12 -2 26 14 8 14 11 2 12 -8 1 -23 0 -34 -1 -11 -1 -15 3 -12 9 4 6 14
11 22 11 8 0 14 6 14 14 0 17 -24 38 -33 29 -7 -6 -11 36 -8 65 1 6 -7 12 -19
12 -11 0 -20 5 -20 10 0 6 7 10 15 10 17 0 19 9 6 29 -5 8 -11 9 -15 3 -7 -12
-46 -12 -46 0 0 4 9 8 20 8 11 0 20 5 20 10 0 11 -33 14 -43 3z m73 -147 c0
-11 -19 -15 -25 -6 -3 5 1 10 9 10 9 0 16 -2 16 -4z m59 -161 c-2 -2 -17 -5
-33 -7 -24 -2 -30 1 -32 20 -4 20 -2 21 16 12 11 -6 20 -7 19 -3 -4 23 3 25
17 5 9 -13 14 -25 13 -27z m-59 -41 c0 -8 -5 -12 -10 -9 -6 4 -8 11 -5 16 9
14 15 11 15 -7z m50 -69 c0 -8 -4 -15 -10 -15 -5 0 -7 7 -4 15 4 8 8 15 10 15
2 0 4 -7 4 -15z m40 -25 c0 -5 -7 -10 -16 -10 -8 0 -12 5 -9 10 3 6 10 10 16
10 5 0 9 -4 9 -10z"/>
<path d="M2515 5620 c-3 -5 -1 -10 4 -10 6 0 11 5 11 10 0 6 -2 10 -4 10 -3 0
-8 -4 -11 -10z"/>
<path d="M2515 5570 c-9 -17 -13 -35 -10 -40 3 -5 0 -19 -7 -30 -11 -17 -11
-22 1 -30 12 -7 12 -12 3 -23 -10 -11 -8 -20 9 -41 l21 -27 -26 7 c-27 7 -37
-10 -11 -19 18 -7 16 -67 -2 -67 -7 0 -12 4 -10 9 3 12 -60 71 -77 71 -20 0
-31 -21 -16 -30 8 -5 7 -9 -4 -13 -24 -9 -19 -26 10 -37 22 -9 24 -13 14 -25
-15 -18 2 -45 28 -45 12 0 13 3 4 12 -20 20 -15 58 7 58 30 0 51 -11 51 -26 0
-7 8 -19 18 -26 20 -15 28 -59 9 -55 -6 1 -13 -5 -13 -13 -1 -8 -3 -19 -4 -25
-1 -5 -2 -14 -1 -19 1 -5 -12 -6 -29 -3 -34 7 -38 2 -44 -51 -3 -26 0 -32 11
-28 11 5 13 -7 9 -64 -5 -68 -5 -71 20 -82 20 -10 27 -9 34 2 7 11 11 11 24 1
13 -11 16 -11 16 -1 0 7 7 18 16 24 11 9 15 29 15 76 -1 60 -7 145 -11 145 -1
0 -3 34 -5 76 -1 42 -6 82 -10 89 -4 7 -2 16 6 21 11 6 10 9 -3 14 -13 5 -15
12 -7 32 6 15 6 38 0 58 -5 18 -7 44 -4 58 3 13 0 34 -6 46 -8 14 -8 21 -1 21
5 0 10 7 10 15 0 25 -19 17 -35 -15z m-77 -245 c-3 -3 -9 2 -12 12 -6 14 -5
15 5 6 7 -7 10 -15 7 -18z m105 -254 c-10 -2 -24 -8 -31 -14 -7 -5 -15 -7 -19
-3 -3 3 -1 6 7 6 10 0 10 3 1 14 -10 11 -8 15 6 18 10 2 26 -1 36 -6 17 -11
17 -11 0 -15z m-73 9 c0 -5 -4 -10 -10 -10 -5 0 -10 5 -10 10 0 6 5 10 10 10
6 0 10 -4 10 -10z m84 -67 c-22 -16 -46 -14 -52 6 -3 10 0 12 12 8 9 -4 16 -2
16 2 0 5 10 7 21 4 21 -6 21 -7 3 -20z m-44 -33 c0 -5 -6 -10 -14 -10 -8 0
-18 5 -21 10 -3 6 3 10 14 10 12 0 21 -4 21 -10z"/>
<path d="M9411 5553 c-6 -10 -11 -13 -11 -6 0 8 -29 10 -102 8 -132 -4 -190
-14 -205 -33 -10 -12 -15 -12 -27 -3 -17 14 -87 5 -113 -15 -17 -12 -16 -13 7
-14 14 -1 19 -4 13 -7 -7 -2 -13 -11 -13 -19 0 -16 -16 -19 -25 -4 -4 6 -12
10 -18 9 -7 -1 -20 1 -30 6 -10 4 -24 2 -34 -6 -9 -8 -23 -13 -32 -12 -9 2
-34 -3 -56 -11 -30 -11 -39 -19 -37 -34 4 -24 -32 -36 -49 -16 -13 16 -49 9
-61 -11 -5 -7 -16 -11 -27 -8 -13 3 -20 -2 -25 -19 -6 -20 -8 -21 -14 -6 -7
16 -9 15 -26 -7 -16 -22 -20 -23 -30 -10 -13 18 -76 10 -76 -10 0 -18 -53 -24
-139 -14 -62 7 -78 6 -92 -7 -13 -12 -18 -13 -22 -2 -4 10 -9 9 -17 -4 -6 -10
-22 -18 -35 -18 -18 0 -25 -5 -25 -19 0 -11 -4 -23 -10 -26 -5 -3 -10 -1 -10
4 0 6 -4 11 -10 11 -5 0 -10 -7 -10 -16 0 -11 -6 -14 -20 -9 -14 5 -20 2 -20
-9 0 -9 -7 -16 -15 -16 -8 0 -15 -7 -15 -15 0 -13 -4 -14 -21 -4 -14 7 -19 7
-15 0 6 -10 -69 -51 -94 -51 -20 0 -100 -40 -100 -50 0 -6 -7 -10 -16 -10 -8
0 -12 -5 -9 -10 12 -19 -20 -38 -57 -34 -30 4 -38 1 -43 -16 -6 -18 -26 -25
-61 -21 -6 1 -17 -10 -24 -24 -10 -19 -19 -24 -39 -20 -14 2 -28 0 -31 -6 -4
-5 -26 -12 -50 -15 -24 -3 -48 -7 -52 -10 -13 -9 -9 -24 7 -24 8 0 15 5 15 10
0 6 6 10 13 10 6 0 -1 -13 -18 -27 -16 -15 -29 -30 -27 -35 1 -4 -3 -8 -9 -8
-7 0 -9 11 -5 30 5 26 -7 43 -16 23 -1 -5 -16 -15 -33 -23 -16 -9 -34 -25 -40
-37 -10 -23 -40 -27 -65 -8 -23 17 -80 18 -80 1 0 -15 -21 -26 -51 -26 -11 0
-22 -7 -25 -15 -4 -9 -19 -15 -36 -15 -17 0 -27 4 -23 10 3 6 1 10 -4 10 -6 0
-11 -5 -11 -11 0 -7 -12 -9 -30 -7 -23 3 -30 1 -26 -9 3 -7 1 -13 -4 -13 -6 0
-10 7 -10 15 0 8 -5 15 -10 15 -7 0 -7 -6 0 -19 13 -25 13 -41 0 -41 -5 0 -10
9 -10 20 0 11 -7 20 -15 20 -17 0 -20 -16 -5 -25 16 -10 12 -25 -5 -19 -8 4
-15 15 -15 25 0 10 -4 19 -10 19 -5 0 -10 -7 -10 -15 0 -16 -26 -21 -32 -7 -5
13 -98 24 -98 12 0 -6 0 -13 0 -17 1 -5 10 -6 22 -5 16 3 19 0 14 -13 -3 -9
-6 -19 -6 -21 0 -2 -13 -4 -29 -4 -17 0 -40 -11 -57 -26 -17 -17 -30 -22 -32
-15 -6 17 17 41 39 41 22 0 24 11 7 28 -17 17 -48 15 -48 -4 0 -14 -3 -14 -15
-4 -12 10 -15 9 -15 -5 0 -17 -1 -17 -22 1 -19 17 -21 17 -15 2 3 -10 2 -20
-4 -24 -6 -3 -13 3 -16 15 -4 16 -11 19 -34 14 -18 -3 -29 -1 -29 6 0 6 -7 11
-15 11 -8 0 -15 -4 -15 -10 0 -5 -5 -10 -10 -10 -7 0 -7 7 0 21 10 18 9 20 -7
17 -30 -5 -29 -53 3 -91 15 -17 32 -32 38 -32 15 0 35 -26 36 -47 0 -14 -6
-16 -30 -11 -26 5 -30 3 -30 -16 0 -11 -4 -21 -10 -21 -5 0 -10 -9 -10 -20 0
-12 6 -20 13 -19 6 1 24 -1 40 -5 34 -10 57 7 57 42 l0 25 20 -23 c15 -17 24
-20 31 -13 19 19 6 48 -24 51 -37 4 -55 37 -28 52 13 7 22 7 26 0 3 -5 -1 -10
-9 -10 -9 0 -16 -4 -16 -10 0 -5 8 -10 18 -10 10 0 26 -6 37 -13 29 -19 72
-11 103 20 16 15 42 17 42 3 0 -5 5 -10 11 -10 5 0 8 4 5 9 -6 10 24 25 32 16
3 -2 -1 -11 -8 -20 -17 -20 -7 -29 18 -16 11 6 22 8 25 5 3 -3 46 -7 95 -9 77
-3 92 -1 97 13 6 15 8 14 16 -6 4 -12 6 -29 2 -38 -3 -8 4 -25 17 -39 12 -13
19 -28 15 -34 -3 -6 -1 -11 4 -11 6 0 11 -7 11 -15 0 -19 24 -20 39 -1 7 8 21
12 32 9 11 -3 19 -2 18 3 -5 28 3 33 51 29 27 -2 52 0 54 4 3 4 26 8 52 9 25
0 51 5 57 11 5 5 23 7 38 4 16 -3 40 -2 54 1 l26 7 -23 19 c-13 11 -17 19 -10
20 6 0 21 -9 32 -20 11 -11 28 -20 38 -20 13 0 14 2 3 9 -10 7 -11 10 -1 16 8
5 18 2 24 -6 6 -8 22 -15 36 -15 14 -1 40 -5 58 -9 37 -9 46 9 10 20 -15 4
-18 8 -10 12 7 3 24 -3 38 -12 20 -13 39 -15 92 -10 37 4 90 9 117 11 28 2 55
6 61 8 11 4 98 -23 121 -37 6 -4 14 -3 17 2 3 5 -1 11 -9 15 -8 3 -15 11 -14
18 0 9 2 10 5 1 3 -7 12 -9 20 -6 8 3 14 -1 14 -8 0 -8 3 -25 7 -39 6 -22 5
-24 -10 -11 -15 11 -18 10 -27 -13 -5 -14 -16 -26 -25 -26 -8 0 -15 -4 -15
-10 0 -5 -5 -10 -10 -10 -7 0 -7 6 0 20 6 11 9 20 8 20 -2 0 -19 -5 -38 -10
-63 -19 -179 -23 -197 -8 -15 11 -16 11 -10 -4 3 -10 2 -20 -4 -24 -6 -3 -8
-12 -5 -20 6 -16 -3 -44 -14 -44 -4 0 -5 11 -3 24 4 17 -1 27 -15 35 -11 6
-22 7 -26 3 -4 -3 -10 -1 -15 6 -5 9 -12 9 -27 -2 -18 -14 -18 -15 6 -25 15
-6 19 -10 9 -10 -9 -1 -22 6 -29 14 -18 21 -30 19 -31 -7 l0 -23 -11 23 c-6
12 -18 22 -25 22 -8 0 -24 -10 -35 -22 -11 -13 -17 -17 -13 -10 4 8 -5 12 -34
12 -21 0 -41 4 -43 8 -1 5 -16 12 -32 16 -25 6 -28 5 -18 -7 7 -8 9 -17 5 -20
-12 -12 -21 -7 -26 14 -4 15 -11 20 -22 15 -9 -3 -22 -3 -28 1 -6 4 -26 8 -44
10 -24 3 -33 0 -33 -12 0 -17 -25 -21 -35 -5 -12 20 -35 10 -35 -15 0 -28 -17
-34 -27 -9 -6 16 -7 16 -18 0 -8 -10 -23 -15 -44 -12 -17 2 -34 0 -37 -5 -2
-4 -11 -6 -19 -2 -8 3 -15 0 -15 -6 0 -6 -7 -8 -17 -4 -13 5 -15 2 -10 -18 6
-23 5 -23 -8 -5 -8 10 -12 22 -10 27 3 4 1 10 -4 13 -5 4 -21 -8 -36 -26 -15
-18 -24 -27 -20 -19 5 9 3 12 -4 10 -7 -3 -13 -9 -14 -14 -2 -19 -26 -35 -52
-35 -18 0 -29 -6 -32 -20 -6 -22 -23 -27 -23 -7 0 19 37 47 63 48 18 1 17 2
-8 10 -19 5 -31 5 -36 -2 -4 -8 -8 -7 -12 2 -4 10 -9 8 -22 -8 -16 -23 -45
-31 -45 -13 0 6 -7 10 -15 10 -8 0 -15 -5 -15 -11 0 -5 -6 -7 -12 -3 -18 11
-49 12 -80 3 -18 -5 -29 -3 -32 4 -3 8 -8 7 -15 -3 -7 -10 -11 -11 -11 -2 0 8
-8 10 -27 6 -21 -6 -25 -4 -20 9 4 10 -1 18 -14 22 -23 8 -24 18 -4 39 35 35
4 88 -57 100 -42 8 -46 3 -22 -22 11 -10 13 -17 5 -20 -6 -2 -11 -19 -11 -38
0 -25 4 -32 14 -28 20 8 38 -56 20 -73 -13 -13 -71 -3 -66 12 2 5 -1 11 -7 13
-6 2 -11 -1 -11 -7 0 -6 -7 -8 -16 -4 -10 4 -17 -1 -21 -16 -6 -23 -19 -28
-25 -10 -3 8 -13 7 -35 -4 -17 -9 -33 -13 -36 -10 -4 3 -13 0 -22 -7 -8 -7
-24 -10 -34 -7 -15 3 -21 -1 -23 -17 -2 -13 -10 -21 -23 -22 -63 -2 -139 -89
-116 -133 6 -10 7 -27 4 -39 -3 -15 0 -24 11 -28 9 -3 16 -17 16 -29 0 -13 5
-27 11 -31 8 -4 7 -9 -2 -15 -12 -8 -11 -11 1 -19 10 -6 11 -10 3 -10 -8 0
-13 -15 -13 -40 0 -23 5 -40 11 -40 8 0 8 -4 1 -13 -12 -14 -11 -35 2 -56 6
-10 4 -12 -12 -7 -21 7 -92 -21 -92 -36 0 -5 -11 -1 -24 7 -24 16 -44 6 -31
-15 3 -5 2 -10 -3 -10 -6 0 -12 7 -16 15 -5 15 -50 15 -64 1 -3 -3 -11 -1 -19
5 -10 9 -13 7 -13 -11 0 -15 -4 -20 -15 -16 -8 3 -20 -1 -28 -8 -9 -9 -19 -11
-30 -5 -28 16 -80 18 -95 3 -7 -8 -24 -14 -38 -14 -16 0 -30 -10 -43 -31 -17
-27 -20 -29 -29 -14 -6 12 -11 14 -16 6 -4 -6 -16 -11 -27 -11 -10 0 -19 -6
-19 -14 0 -19 -28 -28 -50 -16 -31 17 -50 12 -50 -12 -1 -22 -1 -22 -15 -4
-11 14 -18 16 -28 8 -18 -15 -33 -3 -41 34 -5 24 -3 33 10 38 11 4 15 15 12
35 -4 27 -1 30 29 36 18 3 33 10 33 14 0 5 10 12 23 15 l22 7 -22 16 c-31 21
-29 34 2 20 14 -7 25 -16 25 -22 0 -5 24 -10 52 -11 29 0 79 -3 110 -7 31 -4
59 -3 62 2 7 11 -49 35 -63 26 -7 -3 -8 0 -5 9 7 18 20 21 29 6 3 -5 24 -10
46 -10 33 0 40 3 37 18 -2 9 5 21 17 27 28 15 40 107 20 151 -19 41 -74 94
-98 94 -11 0 -17 5 -14 13 2 6 11 11 21 9 9 -2 16 4 16 13 0 8 -9 15 -20 15
-11 0 -20 4 -20 10 0 12 -69 8 -89 -4 -10 -6 -12 -5 -7 2 4 7 -3 14 -19 18
-30 7 -46 -3 -25 -16 11 -7 7 -10 -15 -10 -17 0 -36 5 -42 11 -14 14 -36 2
-27 -13 5 -8 1 -9 -10 -5 -25 10 -40 -2 -25 -19 8 -10 8 -14 0 -14 -6 0 -11 5
-11 10 0 6 -12 9 -27 8 -39 -4 -35 13 11 62 28 30 41 38 47 29 12 -21 169 -21
192 -1 13 12 20 13 29 4 14 -14 42 -16 33 -2 -3 5 0 7 8 4 20 -7 27 26 21 105
-2 38 -10 71 -19 81 -8 9 -15 22 -15 28 0 7 -11 12 -25 12 -14 0 -25 5 -25 10
0 6 -7 10 -15 10 -8 0 -15 4 -15 10 0 5 -7 7 -16 3 -11 -4 -12 -9 -5 -16 18
-18 12 -28 -9 -17 -11 6 -20 17 -20 25 0 19 -37 19 -74 0 -36 -19 -60 -19 -53
-1 4 10 1 13 -8 9 -8 -3 -12 -10 -8 -16 6 -9 -54 -6 -121 6 -28 5 -31 24 -5
32 12 4 32 16 43 26 12 12 22 15 26 9 4 -7 11 -5 20 5 8 9 20 13 32 9 22 -7
68 30 68 53 0 9 5 11 12 6 24 -14 89 -10 99 6 9 14 10 14 6 0 -4 -12 1 -15 21
-11 15 3 32 9 38 14 6 4 19 6 28 2 38 -15 52 140 16 176 -11 11 -20 29 -20 40
0 11 -6 20 -14 20 -20 0 -29 -17 -14 -24 7 -3 2 -3 -12 0 -33 8 -35 11 -21 28
9 11 8 15 -5 20 -22 9 -23 8 -17 -14 6 -23 -15 -28 -35 -8 -10 10 -17 10 -32
0 -24 -15 -50 -16 -50 -2 0 6 6 10 13 10 9 0 8 3 -2 9 -15 10 -51 3 -51 -9 0
-4 -16 -8 -36 -7 -24 1 -39 -5 -46 -16 -8 -15 -11 -15 -23 -3 -17 16 -64 9
-72 -10 -7 -20 -37 -17 -56 4 -20 21 -22 52 -5 52 6 0 19 7 28 15 14 12 40 21
73 24 5 1 5 11 2 22 -5 15 -4 19 4 15 6 -4 11 0 11 9 0 12 7 16 28 13 23 -3
27 1 30 25 4 31 9 33 39 12 17 -12 22 -12 26 -1 6 15 64 10 86 -8 11 -9 13 -6
6 14 -9 32 -39 63 -62 66 -10 1 -26 5 -35 8 -14 6 -16 2 -12 -26 5 -32 4 -32
-8 -9 -18 34 -42 41 -34 10 3 -13 3 -19 0 -12 -4 9 -13 9 -31 2 -14 -5 -35 -7
-46 -3 -14 4 -26 -2 -43 -22 -13 -16 -23 -23 -24 -16 0 22 -20 12 -20 -11 0
-27 -17 -47 -35 -41 -7 3 -15 -4 -18 -16 -3 -11 -11 -19 -19 -18 -10 2 -12
-12 -9 -62 5 -95 11 -105 74 -125 44 -14 59 -15 77 -5 14 7 39 9 66 5 43 -6
44 -6 44 22 0 16 -5 34 -12 41 -9 9 -7 12 10 12 19 0 21 -4 16 -24 -3 -13 -1
-27 5 -30 6 -4 11 -3 11 2 0 15 31 23 45 12 7 -6 25 -8 39 -4 20 5 26 2 26
-10 0 -9 6 -16 14 -16 7 0 16 -9 19 -20 7 -27 -32 -50 -87 -50 -34 0 -48 -5
-59 -20 -9 -13 -20 -18 -31 -14 -11 4 -27 -5 -49 -30 -35 -37 -67 -47 -67 -20
0 8 -5 12 -10 9 -6 -4 -8 -11 -4 -16 3 -6 -2 -9 -12 -7 -16 3 -19 -4 -21 -46
-1 -27 -8 -53 -14 -57 -9 -5 -8 -16 4 -42 10 -19 17 -42 17 -51 0 -9 5 -16 10
-16 6 0 10 -7 10 -15 0 -18 12 -19 28 -3 8 8 15 8 27 -2 10 -8 15 -9 15 -1 0
6 10 11 23 11 13 0 28 5 35 12 8 8 15 8 26 -1 13 -11 19 -9 38 11 41 42 128
23 128 -29 0 -7 -11 -13 -27 -13 -32 0 -93 -21 -93 -32 0 -4 5 -8 10 -8 6 0
10 -4 10 -10 0 -5 -16 -8 -36 -6 -29 2 -38 -2 -46 -20 -6 -13 -16 -20 -24 -17
-8 3 -14 0 -14 -6 0 -6 6 -11 13 -11 6 0 0 -10 -15 -21 -16 -11 -28 -27 -28
-35 0 -8 -9 -14 -20 -14 -18 0 -19 3 -10 20 6 11 15 18 19 15 5 -2 14 2 21 11
10 11 10 18 2 26 -8 8 -12 9 -12 1 0 -6 -11 -14 -25 -17 -14 -4 -26 -14 -27
-24 -2 -27 -4 -35 -12 -60 -8 -25 16 -70 59 -111 20 -19 23 -26 14 -38 -9 -11
-9 -17 1 -26 8 -8 14 -8 16 -2 3 6 20 9 40 7 34 -4 35 -3 24 18 -13 25 -7 35
23 36 12 1 30 5 40 9 10 4 17 3 17 -4 0 -6 -11 -13 -25 -17 -22 -6 -23 -7 -8
-22 10 -11 12 -17 4 -20 -17 -6 -13 -32 4 -32 9 0 28 12 42 26 22 22 32 25 62
20 54 -8 86 -69 44 -82 -10 -3 -29 -11 -43 -17 -14 -5 -43 -10 -64 -9 -27 1
-44 -4 -52 -16 -11 -13 -15 -14 -22 -4 -5 7 -16 10 -25 6 -19 -7 -23 -29 -7
-39 14 -9 2 -25 -14 -19 -7 3 -16 -2 -19 -10 -4 -9 -14 -16 -24 -16 -15 0 -16
2 -3 10 8 5 10 10 4 10 -14 0 -44 -33 -44 -48 0 -6 8 -15 17 -21 26 -14 9 -25
-18 -11 -19 11 -21 10 -16 -5 4 -9 2 -26 -4 -37 -8 -16 -8 -19 1 -13 8 5 10 2
7 -11 -16 -52 -18 -72 -8 -78 6 -4 11 0 11 8 0 19 20 22 21 4 1 -7 2 -22 3
-33 1 -14 8 -20 24 -19 14 0 21 -4 18 -11 -6 -17 5 -31 30 -39 15 -5 24 -2 28
9 4 12 16 16 38 14 46 -4 47 15 1 22 -44 7 -42 11 10 14 20 1 37 -2 37 -6 0
-5 9 -9 20 -9 14 0 18 5 13 16 -5 14 -2 16 21 10 20 -5 37 -1 62 15 19 12 38
19 41 15 3 -3 13 0 21 6 12 11 85 17 195 18 15 1 25 4 23 9 -3 4 6 6 21 3 15
-3 24 -1 20 5 -4 6 11 8 40 6 30 -3 49 0 54 8 6 10 11 10 23 0 11 -9 20 -10
29 -3 6 5 30 9 52 7 22 -1 34 0 28 2 -23 8 -14 21 20 28 17 4 35 13 39 19 11
16 10 48 -1 41 -5 -3 -12 -1 -16 5 -3 5 1 10 9 10 21 0 21 49 1 56 -11 5 -12
11 -4 25 5 11 7 24 4 29 -3 6 -3 16 2 23 13 20 13 41 0 50 -9 7 -9 10 1 14 17
7 15 23 -3 23 -9 0 -12 6 -9 15 4 8 1 15 -5 15 -6 0 -8 7 -5 15 4 10 0 15 -10
15 -16 0 -16 2 -2 22 23 32 20 38 -16 39 -31 0 -32 1 -10 11 12 6 22 15 22 20
0 4 11 8 25 8 14 0 25 5 25 10 0 6 -7 10 -15 10 -8 0 -15 5 -15 10 0 13 41 13
75 0 20 -8 30 -7 41 5 20 19 25 19 17 -1 -5 -14 2 -15 53 -10 32 3 75 6 95 6
44 0 89 15 89 30 0 6 -15 17 -32 25 -27 12 -29 14 -11 15 12 0 28 -6 36 -14 9
-10 32 -14 70 -12 62 2 68 -3 56 -49 -11 -37 6 -59 20 -24 8 21 10 22 16 7 4
-10 11 -18 16 -18 5 0 13 8 16 18 4 9 13 23 20 30 11 11 13 10 13 -7 0 -12 5
-21 11 -21 7 0 9 10 7 25 -4 17 -1 25 8 25 8 0 14 7 14 15 0 8 5 15 10 15 6 0
10 -6 10 -14 0 -8 6 -17 13 -19 10 -4 10 -6 0 -6 -21 -2 -14 -21 7 -21 11 0
20 4 20 8 0 5 12 14 26 20 26 13 74 6 74 -9 0 -5 14 -9 31 -9 20 0 29 4 27 12
-3 7 -12 13 -22 13 -16 0 -36 21 -36 38 0 16 21 5 47 -23 29 -33 83 -43 83
-15 0 18 46 21 53 3 4 -10 8 -10 15 0 7 11 10 11 15 -2 8 -20 31 -21 47 -1 10
12 10 15 -4 15 -12 0 -15 9 -13 39 2 42 30 73 41 46 3 -8 1 -15 -5 -15 -5 0
-13 -10 -18 -22 -13 -35 21 -54 89 -51 30 2 88 4 128 5 68 1 86 8 61 23 -6 4
1 13 16 21 27 14 45 11 45 -7 0 -5 -10 -9 -22 -9 -15 0 -19 -3 -12 -10 12 -12
64 3 64 18 0 5 11 7 25 4 15 -2 25 0 25 7 0 6 16 11 36 11 24 0 33 -4 28 -12
-5 -8 -2 -9 12 -4 10 5 44 10 74 12 42 2 58 8 72 26 15 19 18 20 18 6 0 -10 5
-19 10 -19 6 -1 16 -2 23 -3 6 -2 19 1 27 5 9 4 22 1 32 -8 21 -19 66 0 49 21
-14 17 -2 29 15 15 8 -7 14 -7 19 1 3 5 17 7 31 4 17 -4 31 -1 44 11 16 14 23
15 34 6 8 -7 21 -9 27 -5 7 4 38 7 70 6 55 -1 57 0 63 29 5 25 8 28 20 17 11
-11 11 -14 -2 -24 -14 -10 -13 -13 6 -23 23 -12 46 -6 37 10 -4 5 -3 14 1 21
5 8 11 5 20 -7 13 -17 15 -17 32 -1 11 9 26 14 36 10 11 -4 16 -1 16 10 0 9
-5 16 -11 16 -5 0 -7 5 -3 11 5 8 12 5 23 -10 14 -18 21 -20 47 -12 24 7 35 5
47 -7 12 -12 19 -13 30 -4 8 7 17 9 20 5 4 -3 7 -1 7 6 0 7 5 9 10 6 13 -8 40
13 40 31 0 8 -10 14 -22 14 -21 0 -21 0 -2 14 16 12 16 16 4 20 -8 3 -28 5
-45 3 -21 -1 -30 2 -30 13 0 10 8 14 25 13 14 -2 35 -3 48 -4 16 -1 22 -8 22
-26 0 -15 5 -23 13 -20 6 2 12 18 12 35 0 32 8 41 20 22 4 -6 14 -10 23 -8 10
1 27 -3 39 -10 23 -13 53 -7 53 11 0 5 9 2 20 -8 24 -22 59 -13 40 10 -10 12
-9 15 5 15 11 0 15 5 11 15 -3 8 -1 15 4 15 5 0 10 -12 12 -27 3 -27 5 -28 49
-25 32 3 49 -1 58 -12 9 -11 31 -16 67 -16 50 0 55 2 65 27 l10 27 12 -24 c18
-35 42 -40 33 -6 -8 31 8 35 24 6 11 -21 40 -28 40 -8 0 7 6 5 18 -4 16 -14
47 -16 59 -4 3 3 19 -2 35 -10 16 -8 33 -12 38 -9 6 3 20 -5 33 -19 16 -17 30
-23 44 -20 16 4 20 1 19 -18 -1 -19 5 -24 32 -26 17 -2 32 1 32 7 0 6 7 8 15
5 10 -4 15 0 15 15 0 19 2 20 20 9 17 -11 22 -10 30 2 8 13 10 13 10 -1 0 -11
11 -18 30 -21 35 -5 47 6 30 27 -10 12 -10 18 0 30 10 13 9 15 -9 15 -11 0
-21 -4 -21 -10 0 -5 -7 -10 -15 -10 -8 0 -15 6 -15 14 0 17 -54 40 -76 32 -27
-10 -105 16 -137 47 -26 25 -35 28 -68 23 -22 -3 -40 -2 -44 4 -4 6 -25 20
-47 31 -30 16 -43 18 -48 9 -4 -7 -27 -12 -51 -12 -23 1 -47 -2 -52 -5 -24
-15 -82 -11 -120 7 -39 19 -44 19 -94 5 -29 -8 -59 -18 -68 -21 -9 -4 -15 0
-15 9 0 12 -9 15 -37 13 -21 -1 -37 -6 -35 -11 2 -6 10 -9 18 -9 8 1 14 -3 14
-8 0 -6 6 -8 14 -5 8 3 17 -1 20 -10 9 -23 -1 -28 -21 -11 -21 17 -63 22 -63
7 0 -6 -4 -7 -10 -4 -5 3 -10 14 -10 25 0 14 -9 19 -41 22 -22 2 -43 0 -45 -4
-3 -4 -10 -8 -16 -8 -7 0 -7 4 1 13 8 11 6 18 -9 32 -11 10 -20 23 -20 28 0
12 -59 67 -71 67 -5 0 -6 7 -3 15 4 9 19 15 35 15 18 0 29 5 29 14 0 8 6 17
13 19 6 3 3 6 -8 7 -22 1 -61 27 -53 35 3 3 22 2 44 -3 31 -6 42 -4 57 11 15
15 17 24 9 41 -5 12 -7 35 -4 51 4 23 2 27 -11 22 -9 -3 -17 1 -20 13 -3 10
-18 21 -36 25 -17 4 -36 16 -42 28 -11 19 -12 20 -24 3 -11 -14 -15 -15 -22
-3 -10 17 -49 28 -70 20 -12 -5 -12 -7 -1 -14 9 -6 3 -9 -18 -9 -37 0 -60 23
-56 56 3 19 -3 24 -40 32 -24 6 -33 10 -21 11 12 1 25 6 28 11 6 9 -20 14 -56
11 -9 -1 -19 6 -23 15 -4 12 -2 15 9 10 8 -3 15 -1 15 4 0 5 15 12 34 16 22 4
33 11 30 19 -6 14 53 30 94 26 23 -3 31 14 10 22 -7 3 -4 6 7 6 12 1 26 -4 32
-10 8 -8 21 -8 45 -1 29 9 70 20 141 37 41 10 57 17 57 26 0 5 7 9 16 9 9 0
12 -5 8 -12 -4 -8 0 -7 12 2 38 30 69 43 107 45 22 1 42 7 46 12 6 10 68 19
191 29 83 6 90 9 83 33 -5 18 -1 20 31 16 20 -3 36 -1 36 4 0 5 8 11 18 15 9
3 23 9 30 12 7 3 12 -1 12 -10 0 -11 11 -14 53 -13 28 2 67 -3 86 -11 24 -9
37 -10 44 -3 18 18 25 13 29 -16 2 -17 9 -28 18 -28 8 0 19 -6 23 -12 4 -7 15
-13 22 -13 8 0 15 -7 15 -15 0 -8 4 -15 10 -15 5 0 7 7 4 15 -5 11 0 15 17 14
13 0 18 -3 12 -6 -22 -8 -14 -20 16 -26 22 -5 28 -11 25 -25 -4 -13 3 -22 22
-30 22 -11 26 -10 21 2 -8 20 11 32 26 17 9 -9 9 -16 0 -29 -16 -27 2 -52 38
-52 24 0 29 -3 25 -18 -7 -22 31 -49 47 -33 14 14 57 14 57 1 0 -5 -11 -10
-25 -10 -27 0 -33 -14 -12 -27 8 -4 17 -16 20 -26 4 -11 12 -15 18 -11 7 4 9
3 5 -4 -3 -6 -2 -13 4 -17 5 -3 10 -15 10 -26 0 -11 8 -31 17 -45 13 -21 14
-27 3 -34 -11 -7 -11 -14 0 -39 7 -18 13 -50 13 -71 0 -27 4 -40 13 -40 8 0
14 -5 14 -11 0 -5 -4 -7 -10 -4 -6 3 -11 -6 -11 -22 -2 -34 -5 -56 -9 -63 -1
-3 -4 -26 -5 -51 -4 -68 -16 -142 -22 -135 -9 9 -43 -14 -43 -29 0 -10 -11
-15 -35 -15 -22 0 -35 -5 -35 -13 0 -14 -49 -65 -55 -57 -2 3 -6 2 -9 -1 -3
-3 6 -12 22 -20 15 -8 33 -20 41 -27 8 -8 22 -11 33 -9 15 4 18 1 12 -15 -5
-18 -3 -20 17 -15 13 3 30 1 38 -6 12 -10 14 -9 8 5 -3 10 -2 20 3 23 6 4 10
15 10 26 0 18 3 17 25 -8 21 -24 26 -26 35 -13 8 11 9 8 4 -12 -4 -17 -2 -28
5 -28 14 0 34 38 26 50 -4 6 -1 9 7 8 21 -5 22 44 1 60 -16 12 -16 13 11 10
25 -3 30 1 37 26 12 44 0 188 -17 207 -12 14 -13 18 -2 21 11 4 11 9 -1 30 -7
15 -11 30 -8 35 4 6 2 26 -4 47 -5 20 -11 76 -12 124 -2 76 -5 87 -20 86 -9
-1 -17 2 -17 7 0 5 4 9 9 9 7 0 8 54 1 70 -1 3 -2 9 -1 14 1 5 -4 13 -11 17
-13 9 -18 61 -5 70 10 7 -9 59 -21 59 -5 0 -10 27 -11 61 -1 34 -3 64 -6 68
-2 4 -6 21 -9 37 -8 45 -72 95 -162 126 -64 22 -104 28 -216 32 -124 6 -138 5
-147 -11z m-24 -19 c-3 -3 -12 -4 -19 -1 -8 3 -5 6 6 6 11 1 17 -2 13 -5z m48
-14 c4 -6 -6 -10 -22 -10 -22 0 -25 2 -13 10 19 12 27 12 35 0z m-141 -15 c-4
-8 -8 -15 -10 -15 -2 0 -4 7 -4 15 0 8 4 15 10 15 5 0 7 -7 4 -15z m283 9 c-3
-3 -12 -4 -19 -1 -8 3 -5 6 6 6 11 1 17 -2 13 -5z m93 -14 c0 -5 -2 -10 -4
-10 -3 0 -8 5 -11 10 -3 6 -1 10 4 10 6 0 11 -4 11 -10z m-495 -10 c3 -5 -3
-10 -15 -10 -12 0 -18 5 -15 10 3 6 10 10 15 10 5 0 12 -4 15 -10z m481 -20
c24 0 31 -2 91 -34 17 -9 42 -16 55 -16 42 0 68 -12 68 -31 0 -10 4 -20 9 -23
5 -4 5 -18 -2 -35 -14 -37 -3 -65 23 -58 11 3 20 2 20 -3 0 -4 -9 -10 -20 -13
-25 -6 -26 -35 -2 -53 14 -10 15 -15 5 -25 -8 -8 -13 -9 -13 -2 0 6 -8 10 -17
9 -12 0 -19 7 -21 22 -2 12 -9 22 -16 22 -7 0 -23 12 -37 26 -13 14 -34 30
-46 35 -13 5 -23 14 -23 22 0 17 -52 47 -80 47 -19 0 -20 2 -10 15 10 13 9 15
-9 15 -11 0 -21 5 -21 10 0 6 -9 10 -21 10 -26 0 -51 25 -47 48 3 13 12 16 41
14 30 -3 37 0 38 15 1 16 2 17 6 1 3 -11 14 -18 29 -18z m67 23 c-7 -2 -19 -2
-25 0 -7 3 -2 5 12 5 14 0 19 -2 13 -5z m-633 -24 c0 -5 -4 -9 -10 -9 -5 0
-10 7 -10 16 0 8 5 12 10 9 6 -3 10 -10 10 -16z m-80 1 c0 -5 -4 -10 -10 -10
-5 0 -10 5 -10 10 0 6 5 10 10 10 6 0 10 -4 10 -10z m835 0 c3 -6 -1 -7 -9 -4
-18 7 -21 14 -7 14 6 0 13 -4 16 -10z m-925 -30 c0 -5 -4 -10 -10 -10 -5 0
-10 5 -10 10 0 6 5 10 10 10 6 0 10 -4 10 -10z m87 4 c-3 -3 -12 -4 -19 -1 -8
3 -5 6 6 6 11 1 17 -2 13 -5z m43 2 c0 -3 -4 -8 -10 -11 -5 -3 -10 -1 -10 4 0
6 5 11 10 11 6 0 10 -2 10 -4z m496 -44 c-9 -9 -37 8 -31 18 5 8 11 7 21 -1 8
-6 12 -14 10 -17z m-736 -2 c0 -5 -13 -10 -30 -10 -16 0 -30 5 -30 10 0 6 14
10 30 10 17 0 30 -4 30 -10z m99 -37 c1 -1 -10 -1 -27 -1 -23 1 -27 4 -18 13
8 10 15 10 26 2 8 -6 17 -12 19 -14z m71 17 c-20 -13 -43 -13 -35 0 3 6 16 10
28 10 18 0 19 -2 7 -10z m-274 -19 c-6 -9 -56 -22 -56 -14 0 4 40 21 53 22 5
1 6 -3 3 -8z m-74 -29 c-19 -6 -44 6 -37 18 4 7 14 6 28 -2 14 -7 17 -13 9
-16z m-102 -36 c0 -3 -4 -8 -10 -11 -5 -3 -10 -1 -10 4 0 6 5 11 10 11 6 0 10
-2 10 -4z m-266 -12 c16 -6 23 -34 8 -34 -4 0 -15 9 -25 20 -17 20 -11 25 17
14z m-114 -18 c0 -2 -7 -6 -15 -10 -8 -3 -15 -1 -15 4 0 6 7 10 15 10 8 0 15
-2 15 -4z m290 -6 c0 -5 -4 -10 -9 -10 -6 0 -13 5 -16 10 -3 6 1 10 9 10 9 0
16 -4 16 -10z m-52 -26 c-9 -10 -21 -13 -29 -8 -9 5 -8 9 7 15 31 12 39 10 22
-7z m92 6 c0 -5 -7 -7 -15 -4 -8 4 -15 8 -15 10 0 2 7 4 15 4 8 0 15 -4 15
-10z m-236 -32 c-9 -14 -23 2 -17 18 4 12 8 13 14 3 4 -7 5 -17 3 -21z m-34
12 c0 -5 -7 -7 -15 -4 -8 4 -15 8 -15 10 0 2 7 4 15 4 8 0 15 -4 15 -10z m-10
-88 c0 -5 -13 -7 -30 -4 -16 2 -30 6 -30 8 0 2 14 4 30 4 17 0 30 -4 30 -8z
m-85 -22 c0 -7 -6 -15 -12 -17 -8 -3 -13 4 -13 17 0 13 5 20 13 18 6 -3 12
-11 12 -18z m1839 5 c-4 -8 -11 -12 -16 -9 -6 4 -5 10 3 15 19 12 19 11 13 -6z
m-2074 -9 c0 -3 -4 -8 -10 -11 -5 -3 -10 -1 -10 4 0 6 5 11 10 11 6 0 10 -2
10 -4z m44 -31 c3 -9 0 -15 -9 -15 -8 0 -15 7 -15 15 0 8 4 15 9 15 5 0 11 -7
15 -15z m106 5 c0 -5 -5 -10 -11 -10 -5 0 -7 5 -4 10 3 6 8 10 11 10 2 0 4 -4
4 -10z m117 -10 c9 0 22 -8 29 -17 8 -11 13 -13 14 -5 0 13 30 16 79 6 36 -7
42 -24 9 -24 -22 -1 -22 -1 -4 -15 22 -17 22 -18 -19 -33 -25 -9 -42 -10 -85
-3 -3 1 -7 10 -8 21 -4 45 -6 50 -19 50 -7 0 -13 -9 -13 -20 0 -22 -23 -26
-110 -21 -56 4 -59 6 -53 32 3 12 9 17 15 11 13 -13 68 -2 68 14 0 10 8 12 29
8 18 -4 32 -1 37 7 6 10 9 10 12 1 2 -7 11 -12 19 -12z m-317 -30 c0 -5 -7
-10 -16 -10 -8 0 -12 5 -9 10 3 6 10 10 16 10 5 0 9 -4 9 -10z m-2640 -25 c-7
-8 -10 -22 -6 -30 3 -9 2 -13 -4 -10 -14 9 -12 42 3 48 20 8 20 8 7 -8z m50 0
c14 -16 10 -18 -14 -9 -9 3 -16 10 -16 15 0 14 16 11 30 -6z m2733 -17 c28
-20 36 -34 14 -25 -7 3 -13 -3 -13 -14 0 -23 37 -21 51 3 8 13 14 14 25 7 11
-8 12 -12 3 -16 -21 -8 -15 -26 7 -20 11 3 20 1 20 -4 0 -11 49 -43 56 -36 3
3 -5 15 -18 27 -13 13 -17 20 -10 16 14 -8 17 10 2 19 -15 9 -12 25 4 25 8 0
17 -12 20 -26 6 -22 11 -25 34 -19 26 6 26 6 8 -14 -11 -12 -16 -29 -13 -41 5
-20 -5 -25 -45 -22 -10 1 -18 -3 -18 -8 0 -6 5 -10 12 -10 9 0 9 -3 0 -12 -10
-10 -15 -10 -23 2 -8 13 -11 13 -22 0 -6 -8 -23 -16 -37 -17 -14 0 -41 -4 -60
-6 -19 -3 -42 -6 -51 -6 -12 -1 -15 -8 -11 -26 3 -20 0 -25 -17 -25 -15 0 -21
5 -19 16 2 10 -3 19 -11 22 -10 3 -12 -1 -9 -16 3 -12 1 -23 -4 -24 -5 -2 -11
-16 -11 -31 -3 -47 -27 -23 -27 28 0 25 -29 39 -45 21 -17 -19 -11 -40 15 -53
18 -9 20 -13 7 -13 -9 0 -34 9 -54 20 -37 20 -71 18 -85 -4 -6 -8 -10 -8 -16
1 -5 8 -17 10 -37 5 -35 -10 -46 -32 -15 -32 13 0 19 4 14 11 -4 7 1 10 12 7
36 -7 22 -33 -18 -34 -21 0 -41 -3 -44 -7 -3 -3 -17 -2 -30 3 -22 9 -28 6 -25
-12 0 -5 -16 -8 -36 -9 -21 -1 -60 -3 -88 -5 -27 -3 -69 0 -93 7 -34 10 -48 9
-68 -1 -14 -8 -22 -20 -20 -27 7 -17 1 -16 -28 2 -31 20 -59 10 -50 -19 5 -16
4 -18 -6 -9 -7 6 -19 9 -26 6 -22 -8 -16 13 9 30 21 15 18 16 -49 13 -40 -1
-82 2 -95 7 -23 9 -23 9 -4 17 11 4 26 3 33 -3 9 -7 11 -6 6 6 -8 22 40 45 64
30 9 -5 26 -7 36 -3 17 6 18 7 3 13 -30 11 -18 23 25 24 29 2 38 -1 28 -7 -10
-6 1 -7 30 -4 74 9 78 10 92 22 10 8 24 9 46 3 27 -8 34 -6 50 14 17 21 19 21
30 7 10 -16 11 -16 11 1 1 11 9 17 24 16 12 0 16 -3 9 -6 -6 -2 -10 -9 -7 -13
7 -12 67 10 81 28 6 9 18 13 28 9 9 -4 16 -2 16 3 0 6 7 10 15 10 8 0 15 5 15
11 0 6 7 9 15 6 8 -4 17 -2 20 3 4 6 -9 10 -29 10 -20 0 -36 -5 -36 -10 0 -7
-6 -8 -17 -2 -9 6 -44 8 -77 6 l-61 -3 45 10 c25 6 62 10 83 9 21 0 43 3 50 7
18 11 77 13 77 2 0 -5 -5 -9 -12 -9 -9 0 -8 -3 1 -12 11 -11 14 -10 18 0 4 9
8 10 18 2 16 -13 65 7 65 27 0 7 7 13 16 13 11 0 14 -6 9 -20 -4 -11 -2 -20 4
-20 6 0 11 11 11 25 0 18 7 26 25 31 25 6 35 24 14 24 -6 0 -9 7 -7 16 2 8 8
15 13 14 10 0 11 -5 14 -50 l2 -25 22 27 c16 20 26 24 38 18 13 -8 18 -4 23
20 3 17 11 30 17 30 8 0 8 -4 1 -13 -6 -7 -9 -23 -5 -35 10 -39 23 -23 23 28
0 28 -3 49 -7 49 -22 -4 -43 2 -43 12 0 14 37 2 73 -23z m-79 -14 c5 -14 4
-15 -9 -4 -17 14 -19 20 -6 20 5 0 12 -7 15 -16z m-168 -31 c-11 -11 -19 6
-11 24 8 17 8 17 12 0 3 -10 2 -21 -1 -24z m-2566 -4 c0 -5 -4 -9 -10 -9 -5 0
-10 7 -10 16 0 8 5 12 10 9 6 -3 10 -10 10 -16z m2522 12 c-10 -6 -9 -10 7
-14 12 -3 21 -11 21 -17 0 -9 -3 -10 -13 -1 -8 6 -17 8 -20 4 -4 -3 -14 0 -23
8 -15 12 -14 14 3 20 25 10 41 10 25 0z m768 -42 c0 -23 27 -36 43 -20 8 8 8
11 -1 11 -7 0 -12 5 -12 12 0 6 8 4 19 -6 26 -24 23 -53 -6 -61 -13 -3 -21
-10 -18 -15 3 -6 0 -10 -7 -10 -8 0 -26 -14 -41 -32 -16 -17 -40 -33 -54 -34
-36 -4 -55 -24 -23 -24 23 0 23 -1 8 -17 -14 -13 -20 -14 -32 -4 -21 17 -48 7
-39 -15 5 -13 2 -15 -17 -9 -15 5 -20 3 -16 -3 8 -13 -14 -28 -23 -15 -3 5
-15 10 -26 11 -44 2 -82 9 -93 16 -7 4 -16 4 -22 1 -5 -3 -10 1 -10 9 0 9 7
16 16 16 14 0 14 3 4 15 -18 22 -5 31 15 11 20 -20 17 -20 45 4 12 11 44 23
71 26 40 5 47 10 46 27 -1 11 -15 29 -32 39 l-30 20 30 -7 c16 -4 33 -11 36
-17 9 -14 39 -3 39 15 0 7 16 19 35 26 19 7 35 17 35 23 0 6 10 8 26 4 23 -6
25 -4 19 15 -5 14 -4 19 4 15 6 -4 11 -16 11 -27z m-156 6 c-6 -16 -34 -21
-34 -7 0 13 11 22 26 22 8 0 11 -6 8 -15z m86 7 c0 -13 -12 -22 -22 -16 -10 6
-1 24 13 24 5 0 9 -4 9 -8z m-1050 -81 c0 -6 -4 -13 -10 -16 -5 -3 -10 1 -10
9 0 9 5 16 10 16 6 0 10 -4 10 -9z m1200 -10 c0 -5 -9 -11 -21 -14 -16 -4 -18
-3 -8 9 13 16 29 19 29 5z m-1232 -21 c10 -17 10 -20 -3 -20 -8 0 -15 2 -15 4
0 2 -3 11 -6 20 -9 23 9 20 24 -4z m172 -5 c0 -9 -6 -12 -15 -9 -8 4 -12 10
-9 15 8 14 24 10 24 -6z m-1960 -40 c0 -8 7 -15 15 -15 8 0 15 -8 15 -17 0
-10 3 -29 7 -42 5 -19 3 -22 -13 -19 -10 2 -18 10 -16 17 1 7 -6 29 -18 48
-24 41 -24 43 -5 43 8 0 15 -7 15 -15z m1730 1 c0 -15 -18 -31 -26 -23 -7 7 7
37 17 37 5 0 9 -6 9 -14z m1290 -20 c0 -9 -13 -7 -29 3 -7 5 -10 14 -7 20 5 8
11 7 22 -3 8 -8 14 -17 14 -20z m-1340 14 c0 -13 -20 -13 -40 0 -12 8 -9 10
13 10 15 0 27 -4 27 -10z m888 -20 c3 -9 -1 -11 -11 -7 -10 4 -17 -2 -21 -16
-9 -33 -7 -37 9 -37 8 0 15 -4 15 -10 0 -5 9 -10 20 -10 11 0 20 -4 20 -10 0
-5 -9 -10 -19 -10 -10 0 -21 -7 -25 -15 -7 -19 -30 -19 -45 -1 -8 10 -9 16 -1
21 5 3 10 1 10 -4 0 -16 17 -13 24 4 4 10 -3 19 -19 27 -35 16 -37 33 -9 63
25 27 44 29 52 5z m402 11 c0 -12 -8 -16 -42 -25 -17 -4 -28 -2 -28 4 0 5 14
10 31 10 17 0 28 4 24 10 -3 6 -1 10 4 10 6 0 11 -4 11 -9z m-1520 -41 c0 -14
-38 -32 -51 -24 -6 4 -1 11 13 19 29 16 38 18 38 5z m727 -36 c-9 -9 -28 6
-21 18 4 6 10 6 17 -1 6 -6 8 -13 4 -17z m215 18 c19 -8 12 -25 -13 -34 -18
-7 -39 9 -39 29 0 14 24 16 52 5z m-1072 -12 c0 -5 -4 -10 -10 -10 -5 0 -10 5
-10 10 0 6 5 10 10 10 6 0 10 -4 10 -10z m924 -6 c9 -3 16 -10 16 -14 0 -10
-38 -1 -46 11 -6 10 7 12 30 3z m384 -18 c-7 -8 -15 -12 -17 -11 -5 6 10 25
20 25 5 0 4 -6 -3 -14z m52 3 c0 -7 8 -18 18 -26 16 -13 15 -14 -8 -9 -14 3
-33 6 -42 6 -17 0 -17 1 -1 20 19 22 33 26 33 9z m1806 -16 c-8 -8 -36 5 -36
17 0 7 6 7 21 0 11 -7 18 -14 15 -17z m-3086 3 c0 -8 -11 -26 -24 -40 l-23
-26 2 25 c3 20 -1 25 -18 25 -38 0 5 25 51 29 6 0 12 -6 12 -13z m-1540 0 c0
-3 -4 -8 -10 -11 -5 -3 -10 -1 -10 4 0 6 5 11 10 11 6 0 10 -2 10 -4z m2371
-11 l34 -14 -30 0 c-16 0 -41 6 -55 14 -24 14 -24 14 -4 15 12 0 37 -7 55 -15z
m604 5 c-3 -5 -10 -10 -16 -10 -5 0 -9 5 -9 10 0 6 7 10 16 10 8 0 12 -4 9
-10z m-755 -20 c0 -5 -2 -10 -4 -10 -3 0 -8 5 -11 10 -3 6 -1 10 4 10 6 0 11
-4 11 -10z m408 -1 c-2 -6 -8 -10 -13 -10 -5 0 -11 4 -13 10 -2 6 4 11 13 11
9 0 15 -5 13 -11z m-608 -15 c0 -8 -5 -12 -10 -9 -6 4 -8 11 -5 16 9 14 15 11
15 -7z m-2080 -36 c0 -5 -4 -8 -10 -8 -5 0 -10 6 -10 14 0 9 -7 12 -20 9 -11
-3 -20 -1 -20 5 0 29 58 9 60 -20z m1662 26 c-20 -15 -62 -19 -62 -5 0 12 12
16 50 17 27 1 28 0 12 -12z m953 6 c3 -5 -1 -10 -9 -10 -9 0 -16 5 -16 10 0 6
4 10 9 10 6 0 13 -4 16 -10z m226 -16 c7 -8 21 -11 35 -8 24 6 34 -9 14 -21
-5 -3 -10 -15 -10 -26 0 -29 -14 -23 -27 12 -8 21 -17 30 -26 26 -16 -6 -37
10 -37 29 0 15 35 7 51 -12z m169 16 c0 -5 -9 -10 -20 -10 -11 0 -20 5 -20 10
0 6 9 10 20 10 11 0 20 -4 20 -10z m-1060 -10 c0 -5 -2 -10 -4 -10 -3 0 -8 5
-11 10 -3 6 -1 10 4 10 6 0 11 -4 11 -10z m805 1 c3 -5 1 -12 -5 -16 -5 -3
-10 1 -10 9 0 18 6 21 15 7z m355 0 c0 -5 -6 -12 -12 -15 -21 -8 19 -34 45
-29 12 2 31 -3 42 -11 19 -15 19 -15 -9 -16 -22 0 -27 -4 -22 -16 5 -13 2 -15
-14 -11 -11 3 -22 1 -25 -3 -3 -5 5 -11 17 -13 16 -3 12 -5 -11 -6 -27 -1 -32
2 -23 11 23 23 13 36 -28 36 -22 0 -42 -3 -45 -9 -4 -5 3 -9 14 -9 12 0 21 -4
21 -10 0 -11 -20 -13 -44 -4 -9 3 -13 10 -10 15 3 5 -8 12 -25 15 -17 4 -31
11 -31 16 0 6 11 8 25 6 14 -3 33 1 42 8 10 7 26 14 36 14 9 0 17 6 17 14 0
13 13 23 33 25 4 1 7 -3 7 -8z m50 -12 c0 -5 -9 -9 -20 -9 -22 0 -27 16 -7 23
15 5 27 -1 27 -14z m-1870 7 c0 -3 -4 -8 -10 -11 -5 -3 -10 -1 -10 4 0 6 5 11
10 11 6 0 10 -2 10 -4z m1056 -25 c-3 -5 -17 -6 -31 -3 -20 3 -23 7 -14 18 8
10 16 11 30 3 11 -5 17 -14 15 -18z m339 20 c7 -13 -16 -26 -24 -14 -3 6 -13
13 -21 16 -9 3 -4 6 12 6 15 1 29 -3 33 -8z m-432 -21 c3 -11 1 -20 -4 -20 -5
0 -9 9 -9 20 0 11 2 20 4 20 2 0 6 -9 9 -20z m182 -10 c-3 -4 -16 -3 -29 3
-15 7 -20 14 -13 19 14 8 50 -10 42 -22z m511 11 c-4 -6 -14 -7 -23 -4 -15 6
-14 7 3 13 22 9 29 6 20 -9z m-2926 -11 c0 -5 -5 -10 -11 -10 -5 0 -7 5 -4 10
3 6 8 10 11 10 2 0 4 -4 4 -10z m2804 -16 c4 -9 4 -19 2 -21 -8 -8 -26 8 -26
23 0 19 16 18 24 -2z m1071 -32 c-6 -6 -35 18 -35 29 0 5 9 1 20 -8 11 -9 17
-19 15 -21z m-625 8 c0 -5 -7 -10 -15 -10 -8 0 -15 5 -15 10 0 6 7 10 15 10 8
0 15 -4 15 -10z m105 1 c3 -5 -8 -9 -24 -9 -17 1 -28 5 -25 10 7 11 41 10 49
-1z m345 -1 c0 -5 -4 -10 -10 -10 -5 0 -10 5 -10 10 0 6 5 10 10 10 6 0 10 -4
10 -10z m-790 -20 c-12 -23 -50 -27 -50 -6 0 8 12 17 28 19 15 2 28 5 30 6 1
0 -2 -8 -8 -19z m1056 8 c5 -7 3 -8 -6 -3 -7 4 -16 2 -21 -6 -7 -11 -9 -10 -9
4 0 19 25 23 36 5z m-1134 -28 c10 0 32 -9 50 -20 29 -17 30 -20 11 -20 -12 0
-24 4 -27 9 -8 12 -66 20 -72 9 -3 -4 3 -11 13 -14 10 -3 31 -12 46 -19 27
-11 26 -12 -22 -11 -55 1 -83 24 -56 46 8 7 15 20 15 28 0 12 3 13 12 4 7 -7
20 -12 30 -12z m1231 6 c4 -10 1 -13 -9 -9 -7 3 -14 9 -14 14 0 14 17 10 23
-5z m594 8 c-3 -3 -12 -4 -19 -1 -8 3 -5 6 6 6 11 1 17 -2 13 -5z m-2909 -16
c-6 -18 -28 -21 -28 -4 0 9 7 16 16 16 9 0 14 -5 12 -12z m1262 -7 c0 -10 -42
-23 -49 -15 -7 6 20 24 37 24 6 0 12 -4 12 -9z m85 -49 c-6 -7 -35 18 -35 31
0 5 9 2 20 -8 11 -10 18 -20 15 -23z m50 28 c3 -5 1 -10 -4 -10 -6 0 -11 5
-11 10 0 6 2 10 4 10 3 0 8 -4 11 -10z m1550 0 c3 -5 2 -10 -4 -10 -5 0 -13 5
-16 10 -3 6 -2 10 4 10 5 0 13 -4 16 -10z m-1757 -27 c-2 -12 3 -18 16 -18 11
0 21 -6 24 -13 4 -14 -8 -15 -42 -3 -18 8 -23 15 -19 30 6 25 25 28 21 4z
m-1794 -2 c3 -5 -1 -12 -10 -15 -20 -8 -29 -1 -19 13 8 13 22 14 29 2z m-951
-34 c4 3 7 -1 7 -10 0 -9 6 -17 13 -17 21 0 19 -82 -2 -114 -15 -22 -20 -24
-29 -13 -9 11 -6 17 13 27 31 16 32 30 3 30 -12 0 -19 3 -16 6 3 3 0 29 -8 57
-17 63 -17 67 0 45 7 -10 16 -15 19 -11z m2282 13 c3 -5 2 -10 -4 -10 -5 0
-13 5 -16 10 -3 6 -2 10 4 10 5 0 13 -4 16 -10z m144 -12 c21 0 47 3 58 6 14
4 23 1 26 -9 4 -8 13 -12 20 -9 8 3 17 -1 20 -10 4 -11 -3 -14 -36 -12 -27 1
-46 -4 -54 -14 -8 -9 -15 -11 -20 -5 -11 14 -43 18 -43 5 0 -5 -7 -10 -15 -10
-8 0 -15 5 -15 10 0 6 5 10 11 10 6 0 9 6 6 13 -2 6 -11 10 -18 9 -8 -2 -28
-4 -46 -4 -27 0 -32 -4 -35 -26 -2 -19 -10 -28 -25 -30 -13 -2 -23 -1 -23 2 0
13 69 78 78 72 5 -3 15 1 22 9 9 11 17 12 32 4 10 -6 36 -11 57 -11z m141 18
c0 -3 -4 -8 -10 -11 -5 -3 -10 -1 -10 4 0 6 5 11 10 11 6 0 10 -2 10 -4z
m-800 -10 c0 -3 -4 -8 -10 -11 -5 -3 -10 -1 -10 4 0 6 5 11 10 11 6 0 10 -2
10 -4z m870 -16 c11 -8 9 -9 -12 -8 -16 1 -28 6 -28 10 0 11 22 10 40 -2z
m230 0 c0 -5 -2 -10 -4 -10 -3 0 -8 5 -11 10 -3 6 -1 10 4 10 6 0 11 -4 11
-10z m1435 -1 c11 -17 -1 -21 -15 -4 -8 9 -8 15 -2 15 6 0 14 -5 17 -11z m155
-4 c7 -8 8 -15 2 -15 -5 0 -15 7 -22 15 -7 8 -8 15 -2 15 5 0 15 -7 22 -15z
m-2647 -56 c12 -1 26 -1 31 0 15 3 36 -21 36 -40 0 -11 -5 -19 -11 -19 -5 0
-8 4 -5 9 10 16 -42 19 -57 3 -19 -19 -40 -6 -32 19 5 16 2 15 -20 -7 -25 -25
-25 -27 -8 -39 10 -7 14 -17 10 -21 -4 -4 -16 1 -26 12 -13 14 -16 27 -11 49
5 20 8 23 9 10 2 -19 2 -19 13 -1 8 15 7 21 -6 28 -23 13 -21 31 3 19 14 -8
22 -7 32 6 13 15 14 14 17 -5 2 -14 11 -22 25 -23z m365 32 c6 0 12 -5 12 -10
0 -5 -9 -7 -20 -4 -22 6 -28 -12 -7 -20 7 -3 5 -6 -5 -6 -10 -1 -18 4 -18 9 0
6 -11 10 -25 10 -14 0 -25 6 -25 13 0 11 28 13 88 8z m445 3 c3 -3 3 -12 0
-20 -4 -11 -9 -12 -19 -3 -8 6 -14 15 -14 20 0 10 24 12 33 3z m77 -10 c0 -2
-7 -4 -15 -4 -8 0 -15 4 -15 10 0 5 7 7 15 4 8 -4 15 -8 15 -10z m-1250 -19
c0 -8 -4 -15 -10 -15 -5 0 -10 7 -10 15 0 8 5 15 10 15 6 0 10 -7 10 -15z
m467 0 c13 -9 24 -11 28 -6 3 6 19 8 35 6 17 -2 30 1 30 6 0 6 5 7 10 4 6 -3
10 -19 10 -35 0 -27 -2 -28 -47 -27 -27 0 -59 -3 -72 -8 -16 -5 -21 -4 -17 4
4 6 4 17 -1 24 -11 17 -14 47 -5 47 4 0 17 -7 29 -15z m204 -25 c12 0 19 -5
16 -12 -5 -17 -78 -17 -84 0 -8 19 7 29 18 12 7 -11 8 -6 3 15 l-6 30 16 -22
c10 -13 26 -23 37 -23z m194 20 c3 -5 1 -10 -4 -10 -6 0 -11 5 -11 10 0 6 2
10 4 10 3 0 8 -4 11 -10z m44 -29 c-14 -4 -30 19 -22 33 3 5 12 1 20 -10 10
-13 10 -20 2 -23z m-129 25 c0 -3 -4 -8 -10 -11 -5 -3 -10 -1 -10 4 0 6 5 11
10 11 6 0 10 -2 10 -4z m-2340 -15 c0 -6 -4 -13 -10 -16 -5 -3 -10 1 -10 9 0
9 5 16 10 16 6 0 10 -4 10 -9z m2514 -6 c3 -8 1 -15 -4 -15 -6 0 -10 7 -10 15
0 8 2 15 4 15 2 0 6 -7 10 -15z m-721 -10 c4 -8 2 -17 -2 -20 -5 -2 -11 4 -14
15 -6 23 8 27 16 5z m-283 -5 c0 -5 -7 -10 -15 -10 -8 0 -15 5 -15 10 0 6 7
10 15 10 8 0 15 -4 15 -10z m190 -15 c7 -14 11 -28 7 -31 -3 -4 -12 5 -18 20
-13 29 -29 35 -29 11 0 -8 5 -15 10 -15 6 0 10 -7 10 -15 0 -8 -3 -15 -6 -15
-11 0 -34 29 -34 43 0 35 41 37 60 2z m600 15 c0 -5 -5 -10 -11 -10 -5 0 -7 5
-4 10 3 6 8 10 11 10 2 0 4 -4 4 -10z m-2120 -20 c0 -11 -4 -20 -9 -20 -6 0
-9 9 -8 20 1 11 5 20 9 20 4 0 8 -9 8 -20z m1085 0 c21 -23 20 -25 -19 -34
-24 -6 -27 -4 -22 9 3 9 6 23 6 31 0 20 14 17 35 -6z m-395 -9 c15 -30 12 -33
-10 -11 -22 22 -25 30 -10 30 5 0 14 -9 20 -19z m-960 -10 c0 -5 -7 -11 -14
-14 -10 -4 -13 -1 -9 9 6 15 23 19 23 5z m1650 -1 c0 -5 -2 -10 -4 -10 -3 0
-8 5 -11 10 -3 6 -1 10 4 10 6 0 11 -4 11 -10z m360 -6 c0 -8 -4 -12 -10 -9
-5 3 -10 10 -10 16 0 5 5 9 10 9 6 0 10 -7 10 -16z m-1920 -14 c0 -5 -4 -10
-10 -10 -5 0 -10 5 -10 10 0 6 5 10 10 10 6 0 10 -4 10 -10z m1187 4 c-3 -3
-12 -4 -19 -1 -8 3 -5 6 6 6 11 1 17 -2 13 -5z m798 -4 c3 -6 -4 -9 -19 -8
-13 1 -22 6 -20 10 7 11 32 10 39 -2z m-1945 -4 c0 -2 -7 -9 -15 -16 -13 -11
-14 -10 -9 4 5 14 24 23 24 12z m40 0 c0 -3 -4 -8 -10 -11 -5 -3 -10 -1 -10 4
0 6 5 11 10 11 6 0 10 -2 10 -4z m1310 -5 c0 -6 -4 -13 -10 -16 -5 -3 -10 1
-10 9 0 9 5 16 10 16 6 0 10 -4 10 -9z m-420 -11 c0 -5 -5 -10 -11 -10 -5 0
-7 5 -4 10 3 6 8 10 11 10 2 0 4 -4 4 -10z m-180 -21 c0 -5 -9 -9 -20 -9 -11
0 -20 6 -20 14 0 9 7 12 20 9 11 -3 20 -9 20 -14z m455 -9 c-9 -35 -12 -36
-35 -10 -24 27 -19 38 15 36 22 -1 25 -4 20 -26z m-320 -10 c3 -5 1 -10 -4
-10 -6 0 -11 5 -11 10 0 6 2 10 4 10 3 0 8 -4 11 -10z m-895 -50 c0 -5 -4 -10
-10 -10 -5 0 -10 5 -10 10 0 6 5 10 10 10 6 0 10 -4 10 -10z m-73 -16 c-3 -3
-12 -4 -19 -1 -8 3 -5 6 6 6 11 1 17 -2 13 -5z m151 -45 c3 -18 -40 -30 -87
-25 -34 4 -40 26 -7 26 14 0 26 4 26 8 0 4 15 8 32 7 22 0 34 -5 36 -16z
m-230 -40 c-2 -6 -7 -10 -11 -10 -4 1 -14 1 -23 1 -23 0 -9 15 16 17 12 1 20
-3 18 -8z m242 -24 c0 -8 -6 -12 -14 -9 -8 3 -12 12 -9 20 6 17 23 9 23 -11z
m89 -22 c9 -24 9 -50 1 -73 -2 -5 -6 -19 -8 -33 -1 -4 -11 -3 -23 3 -12 7 -18
18 -15 26 3 8 2 14 -3 14 -4 0 -4 20 2 45 12 51 29 58 46 18z m-129 -113 c0
-5 -4 -10 -10 -10 -5 0 -10 5 -10 10 0 6 5 10 10 10 6 0 10 -4 10 -10z m-100
-40 c0 -5 -2 -10 -4 -10 -3 0 -8 5 -11 10 -3 6 -1 10 4 10 6 0 11 -4 11 -10z
m50 0 c0 -5 -7 -10 -16 -10 -8 0 -12 5 -9 10 3 6 10 10 16 10 5 0 9 -4 9 -10z
m610 -90 c12 -8 11 -10 -7 -10 -13 0 -23 5 -23 10 0 13 11 13 30 0z m-206 -46
c7 -19 2 -18 -19 6 -16 17 -16 20 -3 15 9 -4 19 -13 22 -21z m126 12 c0 -10
-7 -12 -22 -8 -21 5 -21 6 -2 13 10 4 20 8 22 8 1 1 2 -5 2 -13z m91 -5 c-8
-5 -20 -7 -28 -4 -21 8 -15 13 15 13 20 0 23 -3 13 -9z m-847 -26 c-4 -8 -10
-12 -15 -9 -11 6 -2 24 11 24 5 0 7 -7 4 -15z m566 -5 c0 -5 -4 -10 -9 -10 -6
0 -13 5 -16 10 -3 6 1 10 9 10 9 0 16 -4 16 -10z m-200 -18 c0 -5 -13 -9 -30
-9 -16 0 -27 4 -24 9 3 4 16 8 30 8 13 0 24 -4 24 -8z m70 -12 c0 -5 -4 -10
-10 -10 -5 0 -10 5 -10 10 0 6 5 10 10 10 6 0 10 -4 10 -10z m70 -21 c0 -6 -4
-7 -10 -4 -5 3 -10 11 -10 16 0 6 5 7 10 4 6 -3 10 -11 10 -16z m-245 -19 c3
-5 -1 -10 -9 -10 -9 0 -16 5 -16 10 0 6 4 10 9 10 6 0 13 -4 16 -10z m35 -4
c0 -3 -4 -8 -10 -11 -5 -3 -10 -1 -10 4 0 6 5 11 10 11 6 0 10 -2 10 -4z m-90
-22 c0 -13 -3 -14 -13 -5 -8 6 -17 8 -20 4 -4 -3 -7 -1 -7 5 0 7 9 12 20 12
12 0 20 -7 20 -16z m-130 -28 c0 -3 -4 -8 -10 -11 -5 -3 -10 -1 -10 4 0 6 5
11 10 11 6 0 10 -2 10 -4z"/>
<path d="M7990 4908 c0 -6 3 -9 6 -5 3 3 17 2 30 -3 13 -5 26 -5 29 -1 2 5 -5
11 -18 15 -33 9 -47 7 -47 -6z"/>
<path d="M7865 4900 c-8 -13 5 -13 25 0 13 8 13 10 -2 10 -9 0 -20 -4 -23 -10z"/>
<path d="M7785 4880 c-3 -5 -1 -10 4 -10 6 0 11 5 11 10 0 6 -2 10 -4 10 -3 0
-8 -4 -11 -10z"/>
<path d="M7490 4299 c0 -5 5 -7 10 -4 6 3 10 8 10 11 0 2 -4 4 -10 4 -5 0 -10
-5 -10 -11z"/>
<path d="M6650 4250 c0 -5 5 -10 11 -10 5 0 7 5 4 10 -3 6 -8 10 -11 10 -2 0
-4 -4 -4 -10z"/>
<path d="M2417 5524 c-30 -16 -32 -37 -3 -42 11 -2 19 4 23 17 3 12 9 21 14
21 5 0 9 5 9 10 0 13 -10 12 -43 -6z"/>
<path d="M6070 5521 c0 -11 5 -23 10 -26 6 -3 10 -15 10 -26 0 -23 13 -25 30
-4 7 8 8 15 3 15 -5 0 -14 14 -20 30 -13 34 -33 40 -33 11z"/>
<path d="M2400 5456 c0 -8 -2 -20 -5 -28 -3 -8 6 -18 26 -25 29 -11 31 -11 26
7 -3 13 0 20 10 20 8 0 13 6 10 13 -2 6 -12 12 -23 12 -10 0 -25 4 -31 8 -9 5
-13 3 -13 -7z"/>
<path d="M5634 5265 c-43 -20 -66 -37 -70 -52 -3 -12 -9 -22 -13 -21 -19 2
-20 -4 -1 -24 11 -12 20 -27 20 -34 0 -19 -20 -28 -33 -15 -16 16 -27 13 -27
-7 0 -10 10 -24 23 -31 31 -16 92 -11 92 8 0 23 22 24 28 1 4 -17 13 -20 69
-20 35 0 75 -6 91 -15 23 -12 33 -12 64 -1 42 14 56 36 23 36 -13 0 -18 4 -15
11 8 12 -28 41 -64 51 -16 5 -28 3 -33 -5 -6 -9 -12 -9 -27 0 -16 10 -22 9
-31 -3 -9 -9 -25 -13 -49 -10 -20 3 -42 5 -48 5 -25 2 -13 21 13 21 20 0 24 4
19 19 -5 17 1 20 47 28 38 6 54 13 56 26 3 14 -2 17 -22 13 -37 -7 -33 10 4
18 43 8 37 23 -11 28 -30 3 -57 -4 -105 -27z m-4 -40 c0 -8 -4 -15 -10 -15 -5
0 -7 7 -4 15 4 8 8 15 10 15 2 0 4 -7 4 -15z m-27 -95 c-3 -11 -7 -20 -9 -20
-2 0 -4 9 -4 20 0 11 4 20 9 20 5 0 7 -9 4 -20z m137 -19 c0 -12 -20 -25 -27
-18 -7 7 6 27 18 27 5 0 9 -4 9 -9z m30 -1 c0 -5 -5 -10 -11 -10 -5 0 -7 5 -4
10 3 6 8 10 11 10 2 0 4 -4 4 -10z"/>
<path d="M2446 5283 c-11 -11 -6 -23 9 -23 8 0 15 4 15 9 0 13 -16 22 -24 14z"/>
<path d="M3560 5245 c0 -8 7 -15 15 -15 8 0 15 4 15 9 0 5 -7 11 -15 15 -9 3
-15 0 -15 -9z"/>
<path d="M6140 5239 c0 -5 5 -7 10 -4 6 3 10 8 10 11 0 2 -4 4 -10 4 -5 0 -10
-5 -10 -11z"/>
<path d="M2484 5219 c-3 -6 0 -15 7 -20 13 -7 28 5 29 24 0 11 -28 8 -36 -4z"/>
<path d="M2417 5199 c-5 -17 -2 -20 15 -16 16 5 19 2 15 -14 -6 -22 1 -24 25
-5 16 12 15 14 -9 34 -34 27 -39 27 -46 1z"/>
<path d="M6115 5130 c-3 -5 1 -10 9 -10 9 0 16 5 16 10 0 6 -4 10 -9 10 -6 0
-13 -4 -16 -10z"/>
<path d="M5450 5090 c0 -5 5 -10 10 -10 6 0 10 5 10 10 0 6 -4 10 -10 10 -5 0
-10 -4 -10 -10z"/>
<path d="M7680 5050 c0 -5 7 -10 15 -10 8 0 15 5 15 10 0 6 -7 10 -15 10 -8 0
-15 -4 -15 -10z"/>
<path d="M5874 5042 c-12 -8 -7 -72 6 -72 5 0 6 -9 3 -20 -3 -11 -1 -20 5 -20
11 0 22 -51 24 -113 1 -21 5 -40 10 -43 4 -3 8 -14 8 -24 0 -11 9 -24 20 -30
11 -6 20 -17 20 -25 0 -8 6 -15 13 -15 7 0 21 -9 30 -21 13 -15 28 -20 52 -18
19 2 37 0 41 -4 4 -4 13 -2 20 4 7 6 15 6 18 1 3 -6 31 -4 68 3 39 9 67 10 74
4 7 -6 17 -2 29 11 18 20 18 21 -3 36 -12 8 -22 21 -22 29 0 8 -5 17 -10 20
-14 8 -76 -13 -96 -32 -12 -12 -20 -13 -39 -5 -27 12 -55 6 -55 -11 0 -7 -4
-7 -12 1 -7 7 -23 12 -35 12 -17 0 -23 5 -21 17 2 10 -5 19 -17 22 -15 4 -20
14 -19 36 1 43 -30 117 -52 126 -18 7 -18 8 -1 8 12 1 17 7 15 19 -2 10 -11
16 -21 14 -9 -2 -17 2 -17 8 0 5 10 10 22 10 28 0 12 17 -22 23 -24 4 -24 4 3
6 32 1 37 25 8 41 -23 12 -32 12 -47 2z m401 -322 c-3 -5 -11 -10 -16 -10 -6
0 -7 5 -4 10 3 6 11 10 16 10 6 0 7 -4 4 -10z m-5 -30 c0 -5 -5 -10 -11 -10
-5 0 -7 5 -4 10 3 6 8 10 11 10 2 0 4 -4 4 -10z m-240 -10 c0 -5 -2 -10 -4
-10 -3 0 -8 5 -11 10 -3 6 -1 10 4 10 6 0 11 -4 11 -10z"/>
<path d="M5528 4968 c9 -9 15 -9 24 0 9 9 7 12 -12 12 -19 0 -21 -3 -12 -12z"/>
<path d="M2554 4894 c-28 -22 -35 -23 -58 -13 -32 15 -44 6 -22 -17 12 -12 14
-20 7 -27 -13 -13 -15 -40 -2 -32 5 3 13 0 17 -6 4 -6 -1 -16 -10 -21 -14 -8
-15 -11 -2 -24 11 -10 13 -21 6 -38 -13 -35 27 -78 67 -70 56 11 63 73 11 90
-10 3 -18 12 -18 21 0 13 3 13 16 2 13 -10 17 -10 25 2 11 17 7 91 -5 101 -6
4 -4 13 4 23 23 28 -3 35 -36 9z m12 -77 c10 -10 -23 -20 -42 -13 -8 3 -13 10
-10 14 6 10 42 9 52 -1z m8 -132 c3 -8 1 -15 -4 -15 -6 0 -10 7 -10 15 0 8 2
15 4 15 2 0 6 -7 10 -15z"/>
<path d="M7180 4850 c0 -5 4 -10 9 -10 6 0 13 5 16 10 3 6 -1 10 -9 10 -9 0
-16 -4 -16 -10z"/>
<path d="M4618 4798 c10 -18 25 -28 40 -28 15 0 22 4 18 13 -3 6 -9 19 -12 28
-3 9 -17 16 -34 16 l-29 0 17 -29z"/>
<path d="M4821 4806 c-13 -14 -29 -22 -36 -20 -7 3 -24 -1 -37 -9 -13 -8 -38
-18 -57 -22 -28 -6 -31 -9 -17 -17 9 -5 25 -7 35 -3 15 5 18 2 14 -14 -4 -17
-9 -18 -40 -9 -37 10 -68 4 -58 -11 3 -6 12 -8 20 -4 11 4 13 1 9 -11 -3 -9
-1 -16 5 -16 6 0 11 -7 11 -15 0 -8 5 -15 10 -15 6 0 10 5 10 10 0 6 9 10 21
10 15 0 19 5 15 15 -7 19 17 20 32 2 15 -17 82 -10 82 9 0 8 8 14 18 14 24 0
60 31 55 46 -2 7 4 11 14 10 23 -1 27 24 9 49 -15 20 -15 20 -30 0 -8 -11 -18
-17 -22 -12 -4 4 -2 7 4 7 7 0 12 7 12 15 0 25 -53 18 -79 -9z m29 -12 c0 -8
-4 -12 -10 -9 -5 3 -10 10 -10 16 0 5 5 9 10 9 6 0 10 -7 10 -16z m41 -51
c-12 -20 -14 -14 -5 12 4 9 9 14 11 11 3 -2 0 -13 -6 -23z m-104 -30 c3 -7 -3
-9 -16 -6 -12 3 -21 10 -21 15 0 13 32 6 37 -9z m73 7 c0 -5 -7 -10 -16 -10
-8 0 -12 5 -9 10 3 6 10 10 16 10 5 0 9 -4 9 -10z"/>
<path d="M12560 4790 c0 -5 7 -10 16 -10 8 0 12 5 9 10 -3 6 -10 10 -16 10 -5
0 -9 -4 -9 -10z"/>
<path d="M5340 4760 c0 -5 5 -10 10 -10 6 0 10 5 10 10 0 6 -4 10 -10 10 -5 0
-10 -4 -10 -10z"/>
<path d="M2494 4623 c3 -18 1 -33 -4 -33 -6 0 -10 -9 -10 -20 0 -26 7 -25 31
3 l19 22 -3 -25 c-2 -22 2 -25 25 -22 14 2 29 -2 33 -7 4 -7 -10 -11 -41 -11
-40 0 -46 -3 -41 -17 15 -49 18 -68 9 -54 -7 10 -11 1 -13 -33 -4 -46 4 -63
14 -27 4 15 10 17 33 13 l29 -7 -27 -3 c-31 -4 -42 -25 -27 -54 8 -14 8 -23 0
-31 -8 -8 -11 -6 -12 9 0 10 -3 14 -5 7 -3 -6 2 -23 11 -36 11 -17 13 -27 5
-32 -6 -3 -8 -11 -4 -16 3 -6 -2 -20 -13 -31 -10 -12 -13 -18 -7 -15 7 4 15 0
18 -9 5 -12 16 -15 49 -10 23 3 33 2 22 -1 -11 -3 -22 -8 -25 -12 -3 -3 -14
-11 -25 -17 -13 -8 -19 -21 -18 -39 1 -15 -2 -36 -8 -46 -7 -15 -6 -19 5 -19
16 0 15 -25 -2 -42 -14 -14 -16 -38 -2 -38 6 0 6 -9 0 -26 -6 -14 -7 -30 -4
-36 6 -9 11 -64 13 -157 1 -16 5 -21 16 -17 8 3 23 2 33 -2 13 -5 8 -8 -18
-12 -25 -4 -35 -10 -34 -23 1 -9 -2 -17 -7 -17 -13 0 -5 -53 8 -57 6 -2 18 8
27 22 9 14 14 25 10 25 -4 0 -1 7 6 15 11 13 15 13 21 3 13 -20 11 -56 -3 -61
-8 -3 -6 -6 5 -6 9 -1 17 -8 17 -16 0 -20 12 -19 30 3 11 12 14 28 9 55 -3 21
-5 51 -4 67 2 17 -1 30 -6 30 -4 0 -19 11 -33 25 -15 15 -31 22 -40 19 -9 -3
-16 -2 -16 4 0 14 22 21 53 15 22 -4 26 -9 21 -25 -5 -16 -2 -19 13 -16 11 2
17 11 16 23 -2 11 -5 40 -7 65 -4 44 -5 45 -35 42 -32 -4 -35 1 -31 47 1 13
-4 27 -11 32 -8 4 -10 12 -5 16 5 4 11 2 13 -4 3 -7 18 -13 34 -13 24 0 29 4
29 25 0 27 -26 35 -48 13 -13 -13 -17 -11 -26 17 -7 25 10 56 22 38 4 -7 15
-11 24 -9 19 2 37 16 22 16 -5 0 -9 11 -9 25 0 14 6 25 13 25 16 0 15 16 -4
53 -35 66 -35 67 -20 67 20 0 26 12 20 37 -4 15 -11 19 -27 15 l-21 -5 21 22
c23 25 20 51 -6 51 -15 1 -15 1 1 10 23 14 20 70 -4 91 -17 16 -17 18 -3 33 9
9 21 16 27 16 6 0 7 7 3 18 -4 9 -8 23 -8 30 -1 17 -14 15 -21 -3 -3 -8 -10
-15 -16 -15 -6 0 -8 5 -5 10 3 6 1 10 -4 10 -27 0 -7 28 32 42 40 16 41 17 12
17 -16 1 -43 -6 -59 -14 -36 -19 -35 -19 -47 8 -8 19 -9 17 -5 -10z m86 -172
c0 -12 -20 -25 -27 -18 -7 7 6 27 18 27 5 0 9 -4 9 -9z m-27 -94 c3 -8 -1 -14
-9 -14 -8 0 -14 6 -14 14 0 7 4 13 9 13 5 0 11 -6 14 -13z m26 -72 c0 -5 -4
-3 -9 5 -5 8 -9 22 -9 30 0 16 17 -16 18 -35z m-2 -45 c3 -11 4 -23 2 -27 -5
-10 -39 -12 -39 -2 0 4 8 13 18 18 9 6 11 11 5 11 -16 0 -17 20 -2 20 6 0 13
-9 16 -20z m-32 -300 c3 -5 2 -10 -4 -10 -5 0 -13 5 -16 10 -3 6 -2 10 4 10 5
0 13 -4 16 -10z m68 -84 c3 -8 3 -16 0 -19 -9 -10 -33 5 -33 19 0 18 26 18 33
0z m-28 -96 c-3 -5 -11 -10 -16 -10 -6 0 -7 5 -4 10 3 6 11 10 16 10 6 0 7 -4
4 -10z m22 -52 c-3 -8 -6 -5 -6 6 -1 11 2 17 5 13 3 -3 4 -12 1 -19z"/>
<path d="M4025 4608 c-16 -6 -32 -14 -35 -18 -3 -4 -32 -15 -65 -25 -33 -9
-75 -26 -92 -37 -28 -17 -33 -25 -33 -59 0 -26 -5 -42 -15 -45 -19 -8 -20 -38
-2 -53 11 -8 16 -5 26 15 6 14 9 29 6 34 -3 5 5 8 17 8 57 -4 80 2 85 22 7 25
71 40 84 19 5 -8 9 -11 10 -6 1 4 3 12 4 17 1 6 3 16 4 23 1 8 4 7 11 -3 9
-13 12 -13 21 3 5 9 18 17 28 17 31 0 74 28 78 50 2 16 -3 20 -22 20 -16 0
-25 6 -25 15 0 18 -40 19 -85 3z m0 -28 c-3 -5 -11 -10 -16 -10 -6 0 -7 5 -4
10 3 6 11 10 16 10 6 0 7 -4 4 -10z m65 0 c0 -5 -9 -10 -20 -10 -11 0 -20 5
-20 10 0 6 9 10 20 10 11 0 20 -4 20 -10z m-120 -50 c0 -5 -4 -10 -10 -10 -5
0 -10 5 -10 10 0 6 5 10 10 10 6 0 10 -4 10 -10z"/>
<path d="M5180 4600 c0 -5 7 -10 15 -10 8 0 15 5 15 10 0 6 -7 10 -15 10 -8 0
-15 -4 -15 -10z"/>
<path d="M6668 4583 c7 -3 16 -2 19 1 4 3 -2 6 -13 5 -11 0 -14 -3 -6 -6z"/>
<path d="M5440 4566 c0 -9 30 -14 35 -6 4 6 -3 10 -14 10 -12 0 -21 -2 -21 -4z"/>
<path d="M5345 4469 c-11 -17 -2 -18 19 -3 17 12 17 14 4 14 -9 0 -20 -5 -23
-11z"/>
<path d="M7827 4463 c-10 -9 -9 -23 1 -23 5 0 17 7 28 15 19 14 19 14 -2 15
-11 0 -24 -3 -27 -7z"/>
<path d="M3940 4450 c0 -6 7 -13 15 -17 24 -9 27 1 5 15 -13 8 -20 8 -20 2z"/>
<path d="M5101 4418 c-1 -10 -6 -18 -12 -18 -5 0 -7 -5 -3 -11 9 -15 28 16 20
34 -2 7 -5 4 -5 -5z"/>
<path d="M3840 4385 c-7 -9 -10 -18 -7 -22 4 -3 9 2 13 11 3 9 10 14 14 11 5
-3 11 -1 15 5 10 16 -21 12 -35 -5z"/>
<path d="M5370 4360 c0 -5 5 -10 10 -10 6 0 10 5 10 10 0 6 -4 10 -10 10 -5 0
-10 -4 -10 -10z"/>
<path d="M6410 4325 c0 -14 5 -25 10 -25 6 0 10 11 10 25 0 14 -4 25 -10 25
-5 0 -10 -11 -10 -25z"/>
<path d="M3408 4324 c-4 -3 -4 -12 -1 -20 3 -8 1 -14 -5 -14 -6 0 -12 5 -14
11 -5 14 -58 -6 -58 -22 0 -8 4 -8 15 1 22 19 27 7 8 -19 -14 -21 -17 -22 -25
-6 -9 15 -11 15 -24 -4 -8 -11 -28 -21 -47 -23 -21 -2 -31 -8 -29 -17 2 -8 -3
-11 -12 -8 -9 4 -21 -2 -30 -15 -8 -11 -19 -17 -25 -13 -6 3 -17 3 -23 -2 -7
-4 -22 -9 -32 -10 -30 -5 -49 -24 -36 -37 5 -5 10 -18 10 -29 0 -15 6 -18 34
-16 19 2 38 0 42 -4 4 -4 17 -7 29 -7 13 0 28 -7 35 -15 17 -20 36 -19 60 5
29 29 25 39 -20 46 -51 8 -59 20 -20 28 33 6 46 5 43 -6 -5 -13 34 -19 59 -9
15 6 27 20 30 35 6 32 2 36 -39 36 -18 0 -33 4 -33 9 0 14 23 19 45 10 11 -4
39 -8 63 -8 l43 -1 -16 30 c-14 26 -14 30 -1 30 9 0 13 -6 10 -13 -3 -8 2 -19
10 -26 12 -10 21 -9 45 4 32 16 43 32 16 21 -8 -3 -15 0 -15 6 0 19 -31 47
-46 41 -14 -5 -20 12 -6 20 4 2 2 3 -4 1 -6 -1 -16 2 -21 7 -5 5 -12 7 -15 3z
m-84 -161 c3 -8 -3 -9 -23 -3 -15 4 -35 3 -44 -2 -11 -6 -17 -5 -17 2 0 5 5
10 11 10 6 0 9 8 7 18 -5 17 -3 17 28 3 18 -9 35 -21 38 -28z m-134 -57 c0 -3
-4 -8 -10 -11 -5 -3 -10 -1 -10 4 0 6 5 11 10 11 6 0 10 -2 10 -4z m80 -26 c0
-5 -4 -10 -10 -10 -5 0 -10 5 -10 10 0 6 5 10 10 10 6 0 10 -4 10 -10z"/>
<path d="M6745 4320 c-3 -5 -1 -10 4 -10 6 0 11 5 11 10 0 6 -2 10 -4 10 -3 0
-8 -4 -11 -10z"/>
<path d="M9940 4290 c0 -5 5 -10 10 -10 6 0 10 5 10 10 0 6 -4 10 -10 10 -5 0
-10 -4 -10 -10z"/>
<path d="M6160 4270 c0 -5 4 -10 9 -10 6 0 13 5 16 10 3 6 -1 10 -9 10 -9 0
-16 -4 -16 -10z"/>
<path d="M6830 4155 c0 -8 7 -15 15 -15 8 0 15 4 15 9 0 5 -7 11 -15 15 -9 3
-15 0 -15 -9z"/>
<path d="M5168 4024 c-3 -2 -3 -15 -1 -27 3 -15 12 -23 29 -25 14 -1 24 4 24
11 -1 13 -45 49 -52 41z"/>
<path d="M2594 3968 c-5 -7 -9 -20 -9 -29 -2 -20 31 -14 39 8 11 28 -15 46
-30 21z"/>
<path d="M4940 3934 c-25 -9 -34 -17 -33 -30 1 -11 0 -13 -3 -6 -9 20 -24 14
-80 -33 -28 -25 -59 -45 -67 -45 -8 0 -20 -7 -27 -15 -7 -8 -17 -15 -22 -15
-21 0 -69 -43 -64 -56 3 -8 1 -14 -4 -14 -6 0 -10 6 -10 14 0 22 -17 28 -40
16 -16 -9 -25 -8 -36 1 -10 8 -14 8 -14 0 0 -6 -18 -14 -39 -17 -28 -4 -38
-10 -34 -20 3 -9 -2 -14 -14 -14 -34 0 -85 -30 -74 -44 6 -8 3 -19 -10 -36
-20 -24 -20 -24 -14 -2 4 12 3 22 -1 22 -6 0 -42 -25 -83 -56 -2 -2 2 -11 10
-20 11 -13 11 -15 -2 -14 -38 6 -61 0 -56 -15 6 -13 -8 -29 -25 -30 -14 0 -10
-20 5 -29 11 -7 22 -2 42 22 14 17 35 34 46 37 13 4 18 12 15 22 -8 21 4 39
15 22 6 -10 9 -7 9 10 0 23 1 23 19 7 22 -20 43 -14 34 10 -4 12 0 14 21 8 25
-6 39 10 15 18 -5 2 -7 11 -4 21 8 18 25 23 25 7 0 -5 11 -10 24 -10 14 0 28
5 31 10 3 6 17 10 30 10 12 0 25 7 29 15 5 15 39 16 52 2 4 -4 13 -2 20 4 15
12 60 15 91 5 18 -6 22 -3 25 21 2 19 9 28 21 28 10 0 21 6 26 13 4 7 12 12
17 11 12 -3 46 12 62 27 20 21 14 34 -15 30 -16 -2 -21 -1 -13 1 8 3 20 9 27
15 7 5 13 5 17 -1 3 -5 29 -12 57 -16 44 -6 53 -4 70 14 11 12 17 26 14 31 -3
6 1 20 9 32 9 12 16 27 16 33 0 14 -66 13 -110 -1z m14 -48 c-5 -13 -9 -14
-21 -4 -13 10 -13 13 4 19 23 8 25 6 17 -15z m50 5 c3 -5 -1 -14 -9 -21 -13
-10 -15 -9 -15 9 0 21 14 28 24 12z m-268 -126 c-9 -9 -16 -13 -16 -8 0 12 22
34 28 28 2 -2 -3 -11 -12 -20z"/>
<path d="M5313 3925 c-16 -18 -16 -25 0 -25 7 0 13 9 14 20 2 23 2 24 -14 5z"/>
<path d="M4663 3653 c-27 -10 -11 -18 27 -15 22 2 40 8 40 13 0 9 -46 11 -67
2z"/>
<path d="M2516 3602 c-3 -6 -8 -54 -11 -107 -4 -76 -3 -96 7 -92 7 2 12 17 11
32 -1 16 1 34 6 39 9 13 9 122 -1 131 -3 4 -9 2 -12 -3z"/>
<path d="M2620 3499 c0 -16 -5 -20 -20 -16 -12 3 -20 0 -20 -7 0 -8 10 -11 28
-8 21 3 28 10 30 28 1 13 -3 24 -8 24 -6 0 -10 -10 -10 -21z"/>
<path d="M4157 3471 c4 -16 -1 -20 -28 -23 -26 -2 -35 -9 -39 -28 -4 -14 -12
-24 -18 -22 -7 1 -12 -5 -12 -14 0 -10 6 -14 14 -11 7 3 19 0 26 -6 10 -10 11
-5 7 19 -5 26 -2 33 14 37 10 3 26 -1 33 -9 33 -32 52 1 28 49 -15 31 -33 37
-25 8z"/>
<path d="M2586 3404 c1 -15 7 -31 12 -36 15 -15 26 10 12 27 -9 10 -7 16 7 24
16 9 15 10 -8 11 -22 0 -26 -4 -23 -26z"/>
<path d="M3995 3360 c-11 -18 6 -32 23 -18 13 11 15 10 9 -4 -4 -12 -2 -18 8
-18 20 0 19 36 -1 44 -22 8 -32 8 -39 -4z"/>
<path d="M2490 3345 c-7 -9 -11 -17 -9 -19 7 -7 49 13 49 24 0 15 -26 12 -40
-5z"/>
<path d="M2599 3331 c9 -6 10 -11 2 -15 -16 -10 -13 -36 4 -36 9 0 18 7 21 15
7 17 -12 45 -30 45 -6 0 -5 -4 3 -9z"/>
<path d="M4120 3329 c0 -5 5 -7 10 -4 6 3 10 8 10 11 0 2 -4 4 -10 4 -5 0 -10
-5 -10 -11z"/>
<path d="M4070 3320 c0 -5 5 -10 10 -10 6 0 10 5 10 10 0 6 -4 10 -10 10 -5 0
-10 -4 -10 -10z"/>
<path d="M3920 3305 c-7 -8 -24 -15 -39 -15 -20 0 -23 -2 -11 -10 11 -7 5 -10
-23 -10 -55 0 -76 -14 -72 -47 2 -16 4 -34 4 -40 1 -7 6 -13 12 -13 5 0 7 5 3
11 -3 6 -1 22 7 35 9 18 21 24 45 24 18 0 34 6 37 13 4 10 7 10 18 0 19 -19
31 -16 24 6 -6 20 -3 22 59 36 35 7 28 16 -17 21 -22 3 -39 -1 -47 -11z"/>
<path d="M2484 3274 c3 -9 6 -18 6 -20 0 -3 5 -2 10 1 16 10 12 35 -6 35 -11
0 -14 -5 -10 -16z"/>
<path d="M2587 3258 c-2 -7 0 -22 6 -33 14 -26 9 -86 -9 -100 -7 -5 -15 -20
-17 -32 -2 -12 -6 -26 -10 -29 -11 -11 -8 -44 3 -44 19 0 23 -30 7 -48 -19
-21 -36 -138 -18 -128 6 4 9 11 6 16 -9 14 6 39 21 33 7 -3 16 2 19 11 3 9 8
24 12 34 4 9 8 60 10 112 2 52 3 106 4 120 0 14 5 30 11 37 12 15 2 33 -18 33
-8 0 -13 4 -9 9 3 5 1 12 -4 15 -5 4 -11 0 -14 -6z"/>
<path d="M2467 3223 c-11 -10 -8 -51 3 -58 6 -3 10 -15 10 -26 0 -10 -4 -19
-10 -19 -5 0 -10 -7 -10 -15 0 -8 7 -15 16 -15 9 0 14 6 11 13 -3 7 1 21 9 32
10 13 11 22 3 31 -7 9 -7 19 0 33 6 11 11 22 11 25 0 8 -35 7 -43 -1z"/>
<path d="M3710 3206 c-24 -13 -46 -30 -49 -37 -2 -8 -11 -19 -19 -25 -12 -9
-13 -12 -2 -19 9 -5 21 1 36 19 13 14 27 26 31 25 29 -5 45 2 39 18 -4 9 -1
20 6 24 7 4 10 10 7 13 -3 3 -25 -5 -49 -18z"/>
<path d="M3785 3140 c-3 -5 -1 -10 4 -10 6 0 11 5 11 10 0 6 -2 10 -4 10 -3 0
-8 -4 -11 -10z"/>
<path d="M3563 3123 c-15 -5 -18 -33 -4 -33 6 0 13 5 16 10 5 8 11 8 20 0 9
-8 14 -6 19 6 3 8 6 18 6 20 0 5 -42 4 -57 -3z"/>
<path d="M3735 3110 c-3 -5 1 -10 9 -10 8 0 18 5 21 10 3 6 -1 10 -9 10 -8 0
-18 -4 -21 -10z"/>
<path d="M3440 3010 c-28 -21 -23 -35 9 -25 12 3 21 15 21 26 0 23 1 23 -30
-1z"/>
<path d="M3380 2989 c0 -17 -6 -20 -32 -18 -62 4 -68 1 -68 -31 0 -30 14 -41
23 -17 4 8 8 9 14 1 11 -15 38 -3 38 16 0 8 8 15 17 15 24 0 40 19 32 38 -9
24 -24 21 -24 -4z"/>
<path d="M2448 2961 c-6 -42 2 -121 12 -121 4 0 6 30 3 68 -6 86 -9 95 -15 53z"/>
<path d="M3520 2949 c0 -5 5 -7 10 -4 6 3 10 8 10 11 0 2 -4 4 -10 4 -5 0 -10
-5 -10 -11z"/>
<path d="M3227 2916 c-10 -15 -25 -23 -42 -23 -42 0 -94 -33 -97 -63 -2 -19
-9 -25 -27 -25 -13 0 -31 -10 -40 -21 -9 -11 -22 -19 -28 -17 -6 2 -14 0 -17
-6 -4 -6 -13 -8 -21 -4 -11 4 -15 -2 -15 -20 0 -45 -76 -98 -95 -67 -11 18
-25 11 -37 -17 -7 -16 -20 -36 -30 -46 -10 -10 -18 -22 -18 -26 0 -13 43 -22
54 -11 7 7 6 10 -2 10 -7 0 -12 5 -12 10 0 6 9 10 19 10 11 0 23 9 26 21 4 12
13 18 20 15 19 -7 63 16 69 36 2 10 13 18 24 18 11 0 36 7 57 15 29 13 34 19
25 29 -8 11 -3 19 24 35 18 12 41 33 50 46 9 14 23 25 30 25 8 0 16 5 18 10 2
6 23 14 48 18 36 6 45 12 46 28 1 12 4 26 8 33 14 22 -22 10 -37 -13z"/>
<path d="M2589 2881 c-20 -22 -21 -54 -2 -46 8 3 18 5 21 5 4 0 8 14 9 30 2
34 -5 36 -28 11z"/>
<path d="M3300 2889 c0 -5 5 -7 10 -4 6 3 10 8 10 11 0 2 -4 4 -10 4 -5 0 -10
-5 -10 -11z"/>
<path d="M2584 2805 c-13 -14 -20 -33 -18 -53 1 -17 -1 -31 -5 -30 -22 3 -41
-4 -36 -12 4 -6 11 -8 16 -5 5 4 9 -1 9 -9 0 -9 -5 -16 -11 -16 -6 0 -8 -15
-4 -44 5 -28 3 -46 -4 -50 -19 -12 -12 -26 12 -26 21 0 21 -1 -7 -23 -20 -17
-27 -29 -23 -41 4 -10 12 -14 18 -10 8 5 8 1 0 -14 -6 -11 -11 -30 -11 -42 0
-17 5 -21 27 -18 20 2 29 10 34 32 5 18 4 35 -3 43 -7 9 -7 13 1 13 6 0 11 11
11 25 0 14 5 25 10 25 13 0 13 87 1 94 -5 4 -6 20 -1 39 13 50 21 147 13 146
-5 -1 -17 -11 -29 -24z"/>
<path d="M2470 2770 c-13 -8 -12 -10 3 -10 9 0 17 5 17 10 0 12 -1 12 -20 0z"/>
<path d="M2885 2730 c-3 -5 -15 -10 -26 -10 -10 0 -19 -4 -19 -10 0 -5 11 -10
24 -10 26 0 53 24 37 34 -5 4 -12 2 -16 -4z"/>
<path d="M2769 2680 c-13 -10 -18 -19 -11 -20 6 0 12 5 12 10 0 6 9 10 20 10
11 0 20 5 20 10 0 16 -16 12 -41 -10z"/>
<path d="M2927 2643 c-13 -12 -7 -33 8 -33 8 0 15 9 15 20 0 20 -11 26 -23 13z"/>
<path d="M8030 2601 c-8 -5 -35 -15 -60 -23 -25 -7 -44 -18 -43 -24 1 -5 -16
-8 -37 -6 -23 2 -47 -2 -59 -10 -21 -15 -21 -15 -1 -33 11 -10 20 -26 20 -35
0 -10 7 -20 15 -24 18 -7 47 3 40 14 -3 5 4 6 15 3 13 -3 22 1 26 11 6 15 8
15 25 -2 14 -16 18 -37 18 -104 0 -47 5 -97 11 -112 8 -23 15 -27 42 -24 37 3
48 28 26 55 -14 17 -21 123 -8 123 5 0 6 9 3 20 -3 11 -10 20 -15 20 -5 0 -8
6 -5 13 2 6 -2 19 -9 28 -13 14 -9 18 28 35 23 10 46 19 52 20 6 0 17 2 24 2
22 3 12 27 -19 45 -33 18 -64 21 -89 8z"/>
<path d="M2630 2580 c0 -19 3 -21 12 -12 9 9 9 15 0 24 -9 9 -12 7 -12 -12z"/>
<path d="M2400 2517 c-35 -25 -40 -33 -26 -35 17 -4 83 55 73 64 -2 2 -23 -11
-47 -29z"/>
<path d="M7596 2478 c-3 -7 -11 -34 -19 -59 -18 -57 -12 -176 11 -201 27 -32
58 -22 53 18 0 5 16 10 36 10 20 0 38 5 41 12 5 16 22 15 22 0 0 -7 12 -24 25
-37 14 -13 25 -27 25 -32 0 -5 6 -9 14 -9 17 0 46 43 46 69 0 20 -25 41 -45
38 -5 -1 -11 6 -13 16 -4 21 -29 52 -84 109 -21 20 -38 42 -38 48 0 5 -11 10
-25 10 -14 0 -25 5 -25 10 0 14 -20 12 -24 -2z m74 -144 c0 -8 -6 -11 -15 -8
-8 4 -15 12 -15 20 0 8 6 11 15 8 8 -4 15 -12 15 -20z"/>
<path d="M6847 2435 c-27 -13 -74 -29 -105 -36 -66 -14 -93 -32 -74 -51 7 -7
12 -20 12 -29 0 -18 52 -34 58 -18 2 5 12 9 23 9 10 0 19 4 19 8 0 5 22 14 50
21 27 7 52 17 56 22 3 5 14 9 25 9 10 0 19 5 19 10 0 6 9 10 20 10 28 0 36 27
15 50 -24 26 -59 24 -118 -5z"/>
<path d="M7297 2433 c-11 -10 -8 -63 3 -63 6 0 8 -10 4 -24 -3 -12 0 -52 6
-87 7 -35 14 -76 16 -92 6 -52 23 -59 74 -32 18 9 30 24 30 35 0 11 5 20 11
20 5 0 7 5 4 10 -3 6 -18 7 -32 4 -19 -5 -24 -4 -19 5 4 7 3 18 -3 25 -6 7
-13 39 -17 72 -7 62 -15 83 -42 115 -18 20 -25 23 -35 12z"/>
<path d="M7074 2361 c3 -33 8 -70 11 -84 4 -14 2 -28 -4 -31 -6 -4 -11 -27
-11 -50 0 -70 56 -122 88 -83 13 15 4 60 -9 51 -5 -3 -9 -3 -9 0 0 9 39 46 48
46 16 1 53 40 47 50 -3 5 -2 10 4 10 5 0 11 -6 14 -12 3 -10 7 -10 20 1 23 18
21 37 -5 55 -24 17 -68 22 -68 7 0 -21 -39 3 -49 29 -12 35 -46 70 -67 70 -13
0 -14 -10 -10 -59z"/>
<path d="M4734 2289 c-4 -7 -2 -15 4 -17 7 -2 12 -16 12 -32 0 -26 40 -79 52
-69 3 2 13 -3 23 -11 17 -14 18 -13 12 3 -4 10 -7 25 -7 32 0 8 -6 20 -13 27
-8 7 -20 27 -28 43 -15 32 -42 44 -55 24z"/>
<path d="M5788 2289 c-10 -5 -18 -15 -18 -21 0 -5 -11 -23 -25 -40 -25 -30
-34 -55 -15 -43 12 7 2 -24 -14 -44 -6 -8 -11 -47 -11 -86 1 -82 15 -111 46
-94 13 6 19 6 19 -1 0 -24 38 -8 50 20 7 17 15 28 18 26 2 -3 18 4 34 15 21
15 27 26 23 40 -4 13 -2 19 6 17 7 -2 18 7 24 20 5 12 13 22 17 22 14 0 8 68
-7 83 -8 8 -12 17 -9 20 6 6 -50 47 -64 47 -5 0 -15 7 -22 15 -14 17 -28 18
-52 4z m72 -79 c4 0 10 -9 13 -20 7 -28 6 -35 -4 -32 -5 1 -13 -8 -18 -21 -5
-12 -16 -29 -25 -36 -9 -7 -13 -17 -10 -22 3 -5 -2 -9 -10 -9 -9 0 -17 -8 -18
-17 0 -10 -4 2 -7 27 -6 46 6 113 19 105 4 -3 10 5 13 16 4 15 11 20 22 15 9
-3 20 -6 25 -6z m10 -150 c0 -5 -7 -10 -16 -10 -8 0 -12 5 -9 10 3 6 10 10 16
10 5 0 9 -4 9 -10z"/>
<path d="M6079 2274 c-10 -12 -10 -20 -1 -35 11 -16 9 -18 -10 -16 -22 2 -23
0 -22 -87 1 -48 6 -91 11 -95 6 -3 14 -16 17 -29 7 -21 12 -22 59 -17 29 3 56
10 61 15 6 6 15 5 24 -2 11 -10 17 -9 26 3 6 8 19 18 29 22 21 8 28 83 8 97
-4 3 -15 22 -24 43 -10 20 -25 37 -33 37 -8 0 -19 10 -25 23 -6 13 -28 31 -50
40 -48 21 -53 21 -70 1z m111 -103 c0 -6 6 -11 14 -11 8 0 13 -8 11 -17 -1
-10 2 -25 8 -33 6 -8 8 -12 3 -8 -12 10 -48 -11 -43 -25 7 -18 -82 -14 -94 4
-13 20 -11 29 5 23 9 -3 16 6 20 28 6 28 8 30 17 16 13 -24 25 -23 32 3 3 12
0 22 -8 26 -11 4 -11 8 -2 17 9 11 14 10 24 0 7 -7 13 -17 13 -23z m45 -111
c-3 -5 -12 -7 -20 -3 -21 7 -19 13 6 13 11 0 18 -4 14 -10z"/>
<path d="M6748 2208 c-5 -107 0 -148 18 -148 8 0 13 -4 10 -9 -7 -11 22 -36
31 -28 11 11 11 111 0 125 -7 9 -5 17 9 27 15 11 17 16 7 26 -7 7 -13 23 -13
36 0 21 -25 43 -49 43 -5 0 -11 -33 -13 -72z"/>
<path d="M5030 2212 c-43 -5 -100 -34 -100 -51 0 -34 13 -39 80 -31 123 16
180 35 180 60 0 19 -91 31 -160 22z"/>
<path d="M5093 2132 c-6 -4 -11 -31 -11 -62 0 -30 -3 -74 -6 -97 -8 -45 15
-108 37 -100 20 6 37 107 30 177 -7 80 -20 101 -50 82z"/>
<path d="M4754 2092 c4 -10 0 -37 -8 -60 -8 -23 -11 -42 -6 -42 14 0 12 -54
-1 -67 -8 -8 -28 6 -75 54 -42 43 -69 63 -79 60 -18 -7 -20 -34 -3 -39 8 -3 5
-12 -9 -27 -30 -32 -35 -119 -9 -145 19 -19 19 -19 28 5 5 13 7 32 4 41 -2 10
0 18 5 18 5 0 9 14 9 31 0 34 18 36 35 2 14 -27 41 -53 56 -53 7 0 9 -3 6 -7
-4 -3 3 -17 15 -30 l22 -23 23 22 c13 12 23 33 23 47 0 14 4 33 10 41 5 9 5
19 -1 26 -11 14 -2 81 12 90 5 3 6 10 3 16 -4 6 -7 20 -8 32 -1 15 -9 22 -29
24 -24 3 -28 1 -23 -16z"/>
<path d="M4005 2066 c-22 -7 -46 -11 -53 -8 -6 2 -12 -1 -12 -7 0 -6 -6 -8
-14 -5 -20 8 -66 -24 -59 -42 3 -8 -1 -14 -11 -14 -25 0 -38 -47 -34 -117 4
-57 7 -65 47 -106 25 -25 50 -43 57 -40 8 3 14 0 14 -7 0 -6 11 -10 28 -8 22
2 28 8 30 36 3 26 0 32 -17 33 -12 1 -27 2 -33 3 -8 0 -14 18 -16 41 -2 22 -8
44 -13 50 -15 15 -10 53 9 67 10 7 21 21 25 31 4 10 11 16 17 12 5 -3 19 4 30
15 11 11 32 25 45 30 54 21 17 53 -40 36z m-145 -136 c0 -5 -5 -10 -11 -10 -5
0 -7 5 -4 10 3 6 8 10 11 10 2 0 4 -4 4 -10z"/>
<path d="M4302 2058 c-7 -7 -12 -18 -12 -26 0 -8 -14 -28 -32 -45 -28 -27 -31
-36 -30 -84 1 -30 -2 -52 -6 -49 -4 2 -9 -6 -10 -19 -1 -13 -2 -28 -3 -32 -4
-21 3 -33 17 -33 20 0 56 40 50 55 -2 7 11 11 38 11 39 -1 41 -3 46 -35 6 -41
35 -64 51 -41 5 8 7 35 4 60 -3 25 -7 63 -9 85 -5 69 -18 105 -46 135 -31 33
-40 36 -58 18z m42 -100 c9 -36 7 -76 -3 -59 -5 8 -16 11 -25 8 -20 -8 -22 24
-4 53 16 26 24 25 32 -2z"/>
<path d="M11975 1290 c-3 -5 -1 -10 4 -10 6 0 11 5 11 10 0 6 -2 10 -4 10 -3
0 -8 -4 -11 -10z"/>
<path d="M3797 756 c-6 -15 1 -26 15 -26 4 0 8 9 8 20 0 23 -15 27 -23 6z"/>
<path d="M3790 665 c-6 -8 -9 -19 -5 -25 10 -16 33 -12 44 9 8 15 7 20 -5 25
-21 8 -20 8 -34 -9z"/>
<path d="M2706 343 c-9 -9 -7 -33 3 -33 12 0 22 28 12 34 -5 3 -11 3 -15 -1z"/>
</g>
</svg>
