<?xml version="1.0" encoding="UTF-8" standalone="no"?>
<svg
   version="1.0"
   width="1930.000000pt"
   height="1665.000000pt"
   viewBox="0 0 1930.000000 1665.000000"
   preserveAspectRatio="xMidYMid meet"
   id="svg41"
   sodipodi:docname="GHOST.svg"
   inkscape:version="1.3 (0e150ed6c4, 2023-07-21)"
   xmlns:inkscape="http://www.inkscape.org/namespaces/inkscape"
   xmlns:sodipodi="http://sodipodi.sourceforge.net/DTD/sodipodi-0.dtd"
   xmlns="http://www.w3.org/2000/svg"
   xmlns:svg="http://www.w3.org/2000/svg">
  <defs
     id="defs41" />
  <sodipodi:namedview
     id="namedview41"
     pagecolor="#ffffff"
     bordercolor="#000000"
     borderopacity="0.25"
     inkscape:showpageshadow="2"
     inkscape:pageopacity="0.0"
     inkscape:pagecheckerboard="0"
     inkscape:deskcolor="#d1d1d1"
     inkscape:document-units="pt"
     inkscape:zoom="0.34391192"
     inkscape:cx="1285.2128"
     inkscape:cy="1110.7495"
     inkscape:window-width="1920"
     inkscape:window-height="1048"
     inkscape:window-x="0"
     inkscape:window-y="16"
     inkscape:window-maximized="1"
     inkscape:current-layer="svg41" />
  <metadata
     id="metadata1">&#10;Created by potrace 1.16, written by Peter Selinger 2001-2019&#10;</metadata>
  <g
     transform="translate(0.000000,1665.000000) scale(0.100000,-0.100000)"
     fill="#000000"
     stroke="none"
     id="g41">
    <path
       d="M3963 16643 c13 -3 17 -11 14 -25 -5 -17 -2 -19 18 -14 22 6 55 -6 120 -43 71 -40 95 -56 95 -65 0 -11 26 -32 68 -52 17 -9 32 -20 32 -25 0 -5 8 -9 18 -9 24 0 80 -27 115 -57 16 -12 35 -23 43 -23 8 0 14 -4 14 -9 0 -5 9 -13 20 -16 11 -4 46 -29 77 -55 30 -27 64 -52 74 -55 11 -4 29 -25 40 -47 11 -22 33 -52 47 -67 37 -36 82 -118 188 -346 52 -112 51 -111 61 -101 4 4 1 12 -7 17 -13 9 -13 10 0 6 8 -2 14 -12 14 -21 -1 -9 3 -16 10 -16 7 0 7 -3 1 -8 -12 -8 -33 -52 -47 -97 -5 -16 -11 -77 -14 -135 -4 -101 -9 -155 -21 -247 -4 -35 -10 -43 -34 -52 -16 -6 -29 -17 -29 -27 0 -9 -11 -29 -25 -46 -24 -28 -23 -49 1 -77 2 -3 19 13 38 34 30 33 37 37 62 30 16 -5 36 -7 44 -6 14 3 73 -12 119 -30 15 -7 28 -6 37 2 20 16 17 37 -6 44 -25 8 -90 68 -90 83 0 7 -11 19 -24 27 -15 10 -22 22 -19 34 3 10 0 22 -7 26 -8 5 -7 11 2 22 15 19 18 45 22 208 5 163 5 163 15 146 5 -7 6 -22 3 -33 -3 -12 0 -18 9 -16 7 2 15 -9 19 -27 4 -23 11 -30 30 -32 24 -1 25 1 22 37 l-4 39 43 0 c24 0 125 2 225 5 l181 5 42 -51 c22 -28 41 -58 41 -67 1 -9 17 -24 38 -33 33 -16 38 -16 52 -2 13 14 13 17 -5 32 -11 10 -31 40 -45 67 -13 28 -27 52 -30 55 -3 3 -11 17 -17 32 -10 23 -10 30 3 43 9 8 19 15 23 15 4 0 27 18 50 40 32 30 41 45 36 60 -4 11 -12 20 -19 20 -17 0 -96 -61 -96 -75 0 -5 -14 -17 -31 -25 -17 -8 -30 -19 -30 -25 0 -20 -49 -26 -259 -31 -129 -2 -216 -8 -218 -14 -6 -16 -22 -12 -22 5 0 8 -4 15 -10 15 -5 0 -10 5 -10 11 0 5 5 7 10 4 19 -12 10 25 -12 45 -12 11 -16 20 -10 20 9 0 8 8 -3 30 -19 37 -27 38 -19 3 l6 -28 -20 29 c-12 16 -28 34 -37 39 -15 8 -15 10 2 22 13 10 20 10 25 2 5 -8 8 -4 8 9 0 13 -8 24 -19 27 -14 3 -17 11 -14 30 7 36 -17 88 -38 82 -12 -4 -18 2 -22 22 -3 15 -2 32 3 37 5 5 4 20 -2 35 -29 72 -41 93 -54 98 -8 3 -14 18 -14 35 0 30 44 80 144 163 31 26 47 55 30 55 -6 0 -74 -50 -89 -66 -5 -6 -23 -19 -40 -29 -16 -10 -36 -27 -43 -37 -10 -13 -20 -16 -39 -12 -19 5 -30 2 -39 -11 -12 -17 -15 -17 -38 -2 -14 9 -31 28 -38 43 -13 26 -23 33 -111 75 -26 12 -52 28 -58 36 -6 7 -18 13 -25 13 -8 0 -14 4 -14 8 0 4 -16 14 -35 21 -19 7 -35 17 -35 22 0 5 -8 13 -17 16 -18 7 -94 53 -103 63 -3 3 -27 17 -55 30 -27 14 -57 30 -65 36 -8 6 -45 28 -83 48 -52 28 -78 36 -115 35 -26 -1 -39 -3 -29 -6z"
       id="path1" />
    <path
       d="M171 16308 c6 -12 22 -33 35 -46 29 -32 21 -61 -10 -35 -11 10 -26 24 -32 32 -7 9 -13 10 -17 4 -4 -6 0 -16 8 -23 8 -7 15 -17 15 -23 0 -5 20 -34 45 -63 25 -28 45 -55 45 -58 0 -3 11 -17 25 -32 28 -30 33 -49 10 -40 -8 3 -15 1 -15 -4 0 -6 5 -10 12 -10 9 0 9 -3 0 -12 -9 -9 -15 -9 -24 0 -17 17 -28 15 -28 -4 0 -15 59 -82 133 -151 17 -17 27 -37 27 -55 0 -23 4 -28 25 -28 26 0 95 -56 95 -77 0 -5 18 -24 40 -42 29 -23 40 -39 40 -60 0 -15 9 -39 21 -52 11 -13 31 -36 45 -51 13 -15 24 -32 24 -37 0 -6 6 -14 13 -18 19 -13 98 -111 157 -195 30 -43 57 -78 62 -78 4 0 8 -5 8 -10 0 -18 43 -70 57 -70 7 0 13 -7 13 -15 0 -8 7 -15 15 -15 7 0 18 -8 24 -17 5 -10 13 -15 17 -11 9 10 -15 38 -33 38 -10 0 -12 6 -8 19 4 13 -5 31 -30 58 -19 21 -35 42 -35 47 0 5 -37 59 -82 119 -83 110 -99 134 -117 172 -5 11 -28 37 -50 58 -23 21 -41 43 -41 49 0 5 9 21 20 35 23 30 25 43 7 43 -16 0 -48 34 -67 72 -7 15 -21 36 -30 46 -10 10 -21 28 -24 40 -7 22 -123 190 -159 230 -16 17 -23 19 -29 10 -6 -8 -7 -5 -3 9 4 15 -1 29 -14 42 -12 12 -21 23 -21 26 0 6 -14 24 -42 56 -10 10 -18 22 -18 27 0 9 -106 122 -115 122 -3 0 0 -10 6 -22z"
       id="path3" />
    <path
       d="M3305 16230 c-3 -5 -8 -27 -9 -47 -2 -21 -5 -42 -6 -48 -4 -14 37 -100 55 -115 8 -7 15 -28 15 -46 0 -19 4 -34 8 -34 5 0 9 -6 9 -12 0 -7 3 -23 7 -35 5 -14 3 -23 -3 -23 -23 0 -9 -36 19 -52 25 -14 29 -22 24 -42 -5 -21 -1 -26 30 -37 26 -9 33 -16 25 -25 -13 -16 2 -25 38 -23 15 1 53 -3 83 -9 30 -6 100 -10 155 -9 89 2 103 5 123 25 34 34 28 43 -35 41 -36 -2 -58 2 -61 9 -2 7 -13 12 -23 12 -11 0 -17 -4 -14 -10 7 -12 -18 -14 -29 -2 -4 4 -20 8 -34 9 -39 2 -121 19 -128 25 -2 3 -7 18 -10 33 -6 35 -27 55 -56 55 -19 0 -24 6 -26 31 -1 17 -7 39 -12 49 -6 11 -5 21 3 29 14 14 -6 31 -35 31 -14 0 -18 8 -18 34 0 19 -5 36 -11 38 -9 3 -15 22 -18 51 -1 5 -5 5 -11 2 -5 -3 -9 2 -8 12 0 10 0 35 0 56 -2 29 -6 37 -21 37 -11 0 -23 -4 -26 -10z"
       id="path4" />
    <path
       d="M3378 15726 c-9 -9 -19 -16 -23 -16 -3 0 -32 -17 -63 -38 -32 -21 -65 -41 -75 -45 -9 -3 -17 -11 -17 -16 0 -5 -11 -11 -23 -15 -23 -5 -47 -27 -208 -182 -37 -35 -72 -64 -78 -64 -6 0 -14 -7 -17 -15 -4 -8 -13 -15 -21 -15 -8 0 -12 4 -9 9 9 14 -39 22 -66 12 -25 -10 -20 -12 37 -15 11 -1 21 -8 23 -16 2 -12 -6 -15 -37 -12 -44 4 -64 -14 -38 -33 10 -7 17 -18 17 -25 0 -18 39 -50 61 -50 10 0 32 -13 49 -30 17 -16 37 -30 45 -30 8 0 15 -6 15 -14 0 -17 43 -46 69 -46 14 0 19 -5 16 -20 -2 -11 1 -20 7 -20 5 0 8 7 4 15 -3 8 -1 15 3 15 19 0 -2 39 -24 44 -13 3 -39 22 -59 41 -20 19 -43 35 -51 35 -8 0 -15 5 -15 10 0 6 -7 10 -15 10 -8 0 -15 5 -15 10 0 15 26 12 40 -5 7 -8 23 -15 35 -15 12 0 28 -7 35 -15 7 -8 16 -15 21 -15 4 0 31 -13 59 -30 28 -16 56 -30 62 -30 6 0 27 -10 47 -22 38 -24 40 -25 71 -27 11 0 20 -7 20 -15 0 -13 27 -31 42 -28 4 1 5 -5 2 -12 -4 -9 5 -16 25 -21 16 -3 40 -14 53 -24 13 -10 40 -24 61 -30 20 -7 37 -17 37 -22 0 -5 6 -9 13 -9 7 0 33 -13 58 -29 43 -27 99 -38 99 -20 0 5 -15 15 -32 24 -34 15 -69 36 -78 46 -3 3 -51 29 -108 57 -57 28 -115 60 -128 71 -14 11 -38 22 -54 26 -15 3 -31 13 -34 21 -3 8 -15 14 -26 14 -12 0 -18 4 -15 10 7 11 -43 59 -61 60 -6 0 -17 7 -24 15 -7 8 -18 15 -24 15 -6 0 3 -11 19 -25 17 -13 25 -24 18 -25 -19 0 -66 23 -85 42 -16 15 -16 18 -2 26 14 8 10 13 -19 31 -59 36 -63 47 -23 66 19 9 53 34 77 56 23 21 44 39 47 39 2 0 25 15 51 33 52 36 73 50 116 73 45 25 76 65 70 91 -4 17 1 23 26 32 32 11 58 37 59 57 0 5 -6 18 -13 28 -12 17 -15 17 -29 2z"
       id="path6" />
    <path
       d="M1080 15593 c0 -13 49 -31 120 -45 36 -7 68 -17 72 -23 4 -5 58 -15 120 -21 62 -7 133 -17 158 -24 25 -7 72 -13 105 -15 70 -3 95 -12 95 -31 0 -17 12 -18 27 -3 8 8 17 8 31 0 11 -6 42 -11 69 -11 56 0 78 -11 70 -34 -5 -12 0 -16 18 -16 14 0 25 5 25 10 0 7 7 7 21 -1 14 -7 25 -7 31 -1 15 15 48 3 41 -16 -5 -14 -3 -15 8 -4 7 6 22 12 32 12 14 0 17 -3 9 -12 -5 -7 -9 -26 -8 -43 1 -22 7 -30 25 -35 16 -4 28 -17 36 -39 11 -32 91 -131 107 -131 4 0 5 11 2 25 -3 18 1 27 13 32 15 6 14 8 -7 13 -14 3 -26 14 -28 24 -3 13 1 17 15 12 10 -3 32 -8 48 -11 l30 -7 -25 21 -25 21 23 0 c12 0 22 -4 22 -10 0 -5 9 -10 20 -10 11 0 20 5 20 10 0 6 -9 18 -20 27 -24 21 -28 68 -6 60 9 -4 17 2 21 14 4 11 15 19 28 18 12 0 16 -3 10 -6 -7 -2 -13 -10 -13 -17 0 -14 69 -26 146 -26 23 0 63 -9 88 -21 51 -22 87 -20 67 5 -6 7 -9 21 -5 30 4 10 1 16 -7 16 -8 1 -3 7 10 14 l25 14 -30 6 c-42 9 -157 5 -171 -7 -13 -9 -18 1 -14 31 1 6 -7 12 -18 12 -11 0 -29 9 -40 21 -21 23 -41 18 -41 -9 0 -15 -10 -18 -57 -18 -32 0 -61 4 -64 9 -4 5 -27 10 -52 11 -25 0 -48 4 -51 7 -4 3 -24 3 -46 -1 -27 -5 -46 -3 -58 6 -11 8 -36 11 -62 9 -24 -2 -52 1 -62 6 -14 7 -24 7 -34 -2 -11 -9 -14 -8 -14 10 0 12 -6 21 -15 21 -8 0 -15 -4 -15 -10 0 -5 -11 -10 -25 -10 -15 0 -25 6 -25 15 0 11 -5 12 -25 5 -17 -7 -32 -5 -52 5 -32 17 -73 20 -73 5 0 -5 -4 -10 -10 -10 -5 0 -10 9 -10 20 0 16 -7 20 -37 22 -62 3 -77 2 -100 -6 -17 -5 -23 -3 -23 7 0 19 -124 34 -144 18 -17 -14 -46 -4 -46 16 0 11 -7 13 -24 9 -14 -3 -26 -1 -28 5 -2 7 -19 14 -38 16 -19 2 -44 5 -55 7 -12 1 -25 5 -30 7 -16 9 -75 10 -75 2z"
       id="path7" />
    <path
       d="M5210 15420 c-8 -5 -27 -10 -41 -10 -30 0 -48 -37 -23 -47 16 -6 19 -59 4 -68 -5 -3 -10 -19 -10 -36 0 -39 33 -40 48 -1 6 15 14 36 18 47 4 11 7 23 6 27 -4 19 28 28 69 19 69 -16 107 -14 118 8 9 16 4 23 -29 45 -30 20 -52 26 -92 26 -29 0 -60 -5 -68 -10z"
       id="path8" />
    <path
       d="M1154 14912 c-18 -12 -5 -79 17 -85 22 -6 26 -37 4 -37 -8 0 -15 -7 -15 -16 0 -16 40 -116 50 -124 11 -9 50 -77 50 -88 0 -6 10 -32 22 -59 26 -59 24 -82 -9 -109 -34 -29 -22 -48 23 -39 19 3 38 4 43 1 5 -3 4 -27 -1 -53 -11 -55 -14 -69 -23 -140 -4 -31 -4 -53 1 -53 16 0 39 34 52 77 11 37 16 42 50 47 72 13 109 9 149 -13 50 -28 79 -25 75 9 -1 13 3 27 10 32 23 15 -22 38 -74 38 -26 0 -71 9 -100 20 -29 11 -65 20 -81 20 -21 0 -30 7 -38 28 -5 15 -12 34 -15 42 -4 8 -8 27 -9 41 -1 15 -10 41 -18 58 -9 18 -13 39 -10 47 3 9 -2 14 -16 14 -25 0 -26 7 -4 32 13 15 14 18 1 18 -16 0 -54 141 -43 160 11 17 40 11 125 -25 45 -19 86 -35 91 -35 6 0 20 -9 32 -20 12 -11 44 -31 72 -44 27 -13 60 -33 72 -45 12 -11 27 -21 33 -21 6 0 10 -6 9 -12 -3 -27 2 -38 16 -38 8 0 24 -8 34 -17 11 -10 32 -27 46 -38 15 -11 41 -36 58 -55 101 -111 127 -126 119 -69 -3 20 -19 44 -44 67 -21 19 -48 48 -59 64 l-20 28 21 30 c22 30 74 64 88 57 14 -8 67 30 70 51 3 21 -11 28 -42 23 -5 -1 -17 6 -27 15 -18 16 -24 16 -111 -1 -51 -9 -104 -24 -116 -32 -21 -13 -26 -13 -40 0 -23 20 -76 50 -217 122 -66 34 -147 76 -179 94 -62 35 -103 46 -122 33z"
       id="path9" />
    <path
       d="M2827 14732 c-25 -28 -21 -35 18 -29 21 4 35 2 35 -5 0 -6 11 -8 26 -5 16 3 28 0 31 -9 3 -8 14 -14 25 -14 11 0 26 -7 34 -15 9 -8 24 -15 33 -15 27 0 91 -29 91 -40 0 -17 67 -12 74 6 10 27 -11 41 -69 48 -30 3 -69 15 -87 26 -18 11 -43 20 -55 20 -12 0 -24 4 -27 9 -4 5 -24 12 -46 16 -22 4 -42 11 -46 16 -8 14 -19 11 -37 -9z"
       id="path10" />
    <path
       d="M3570 14712 c0 -2 18 -21 39 -42 24 -24 53 -41 75 -46 20 -3 52 -17 72 -30 19 -13 40 -24 47 -24 7 0 23 -9 37 -20 14 -11 30 -20 35 -20 6 0 44 -20 85 -45 74 -44 97 -54 85 -36 -11 18 31 17 69 -2 34 -16 38 -22 33 -47 -5 -23 0 -34 28 -62 19 -18 35 -38 35 -45 0 -7 10 -17 21 -24 16 -8 18 -13 9 -19 -9 -6 -9 -13 -1 -28 6 -11 11 -33 11 -47 0 -14 5 -36 11 -47 6 -11 13 -38 15 -58 2 -21 8 -59 14 -85 6 -27 13 -69 16 -94 3 -25 12 -66 21 -91 9 -25 15 -55 14 -68 0 -13 3 -31 9 -41 12 -24 2 -61 -16 -54 -10 4 -14 -3 -14 -21 0 -16 -13 -39 -35 -62 -19 -19 -35 -42 -35 -49 0 -7 -16 -22 -35 -34 -39 -22 -42 -32 -20 -51 12 -10 23 -6 62 26 27 21 59 50 73 65 19 20 35 27 66 27 22 0 44 2 50 3 5 1 33 1 62 0 49 -1 52 -2 52 -28 0 -25 1 -26 20 -8 21 19 24 80 5 101 -5 5 -46 18 -90 29 -93 22 -115 41 -113 100 0 22 -7 78 -16 124 -10 46 -15 89 -12 97 3 7 -2 17 -11 22 -11 6 -12 11 -4 16 7 5 8 13 2 25 -5 9 -18 62 -27 116 -12 66 -24 104 -36 114 -22 19 -23 31 -3 31 8 0 15 -6 15 -14 0 -7 9 -16 20 -19 15 -4 20 -1 18 11 -2 12 13 25 50 42 47 21 52 27 47 48 -6 23 4 37 59 92 22 23 76 43 76 29 0 -14 26 -11 39 5 7 8 35 17 63 21 28 4 71 16 95 27 42 19 107 32 216 45 36 4 47 2 47 -8 0 -13 64 -48 97 -55 7 -1 24 -16 39 -33 14 -17 32 -31 40 -31 8 0 47 -27 88 -60 41 -33 78 -60 83 -60 4 0 30 -11 57 -25 27 -14 57 -25 65 -25 34 -1 76 -60 52 -74 -16 -10 -7 -132 11 -153 8 -10 18 -36 21 -58 5 -43 54 -138 66 -131 4 3 1 45 -6 93 -7 48 -14 123 -16 165 l-2 76 25 -4 c14 -3 34 1 45 10 18 14 18 15 3 16 -10 0 -18 5 -18 11 0 6 8 9 19 6 25 -6 51 10 51 33 0 10 4 21 9 25 25 15 44 76 49 154 3 63 1 85 -9 92 -17 10 -39 -8 -39 -32 0 -12 -7 -19 -20 -19 -24 0 -53 -41 -44 -64 5 -12 -3 -20 -28 -30 -19 -8 -40 -22 -47 -30 -8 -9 -30 -20 -51 -26 -45 -12 -92 1 -135 39 -37 32 -70 51 -89 51 -7 0 -16 10 -19 21 -4 16 -11 20 -26 16 -12 -3 -21 -1 -21 4 0 10 -161 105 -172 101 -5 -1 -8 3 -8 9 0 6 9 13 20 16 35 9 22 21 -32 28 -29 4 -62 12 -72 17 -11 6 -41 13 -68 15 -43 4 -48 3 -48 -15 0 -27 -51 -52 -104 -52 -23 0 -57 -5 -76 -11 -34 -11 -73 -17 -157 -23 -22 -1 -49 -10 -58 -19 -25 -26 -77 -22 -105 8 -28 30 -41 31 -65 5 -10 -11 -30 -20 -45 -20 -31 0 -90 27 -90 41 0 5 -10 9 -22 8 l-23 0 22 -9 c13 -5 20 -15 17 -23 -6 -17 -59 -11 -75 9 -17 20 -26 17 -33 -11 -8 -30 -30 -32 -74 -5 -18 11 -41 20 -51 20 -10 0 -32 7 -50 16 -17 9 -39 13 -47 10 -10 -4 -23 3 -36 19 -11 14 -25 25 -33 25 -7 0 -15 9 -18 20 -3 12 -14 20 -26 20 -11 0 -24 6 -28 13 -13 21 -66 42 -105 42 -21 0 -38 -1 -38 -3z"
       id="path11" />
    <path
       id="path13"
       d="m 14791.45,14082.759 c -2.699,-1.898 -1.898,-1.262 -4.409,-2.988 1.716,-5.04 2.959,-10.17 2.959,-14.766 0,-3.244 0.506,-6.775 1.304,-10.327 0.04,9.36 0.01,18.717 0.146,28.081 z" />
    <path
       d="M11675 14239 c-4 -6 -16 -9 -26 -6 -10 3 -22 1 -25 -5 -3 -5 -12 -7 -18 -5 -11 5 -96 -20 -121 -34 -5 -4 -23 -9 -39 -13 -15 -4 -35 -14 -43 -21 -8 -8 -23 -15 -33 -15 -10 0 -22 -4 -25 -10 -3 -5 -15 -10 -25 -10 -11 0 -33 -13 -49 -29 -33 -32 -62 -50 -133 -81 -27 -11 -48 -24 -48 -29 0 -4 -19 -14 -42 -21 -24 -8 -51 -20 -60 -28 -10 -8 -18 -11 -18 -6 0 5 -20 -13 -45 -39 -25 -26 -50 -47 -56 -47 -6 0 -8 -8 -5 -18 7 -20 -31 -72 -52 -72 -7 0 -12 -5 -12 -11 0 -5 -4 -7 -10 -4 -5 3 -10 1 -10 -4 0 -6 -5 -10 -12 -8 -6 1 -18 -10 -25 -25 -8 -16 -18 -28 -24 -28 -5 0 -9 -7 -9 -15 0 -8 -4 -15 -10 -15 -5 0 -10 -7 -10 -15 0 -8 -4 -23 -10 -33 -18 -33 -42 -117 -47 -169 -4 -37 -10 -53 -20 -53 -9 0 -11 -5 -6 -12 8 -13 17 -255 14 -373 -2 -72 25 -239 45 -278 8 -16 17 -46 20 -68 4 -22 11 -42 15 -45 5 -3 9 -14 9 -25 0 -11 11 -37 25 -59 14 -22 25 -48 25 -57 0 -19 41 -85 77 -123 12 -13 21 -26 19 -29 -2 -3 14 -19 35 -36 21 -16 41 -40 45 -52 3 -11 15 -24 27 -27 12 -3 18 -8 14 -12 -4 -4 -1 -14 6 -22 6 -8 19 -33 28 -56 15 -37 22 -43 70 -57 64 -18 75 -23 154 -59 33 -15 86 -33 118 -40 33 -6 73 -20 90 -30 18 -10 57 -20 87 -22 38 -2 71 -12 104 -32 47 -28 77 -29 40 -1 -17 13 -12 14 54 13 50 -1 75 -5 79 -14 3 -7 23 -13 51 -13 185 -4 222 -3 267 10 28 8 56 18 64 23 35 23 128 66 141 66 9 0 21 5 27 11 6 6 17 8 23 4 9 -6 9 -10 -1 -16 -11 -7 -10 -9 4 -9 10 0 17 8 17 20 0 26 14 25 32 -2 l14 -21 13 29 c14 34 48 61 84 68 31 5 61 24 76 47 8 15 8 19 0 19 -7 0 -4 8 6 20 10 11 22 20 28 20 5 0 28 19 50 43 43 44 130 101 140 91 9 -10 -4 -34 -19 -34 -16 0 -19 -36 -4 -45 6 -3 20 -3 31 0 16 5 19 12 15 30 -3 13 -2 27 4 30 7 4 6 13 -1 26 -8 16 -7 25 4 37 14 16 49 88 51 105 1 4 6 11 12 15 16 10 44 72 33 72 -5 0 -14 -11 -18 -24 -12 -29 -40 -41 -48 -20 -3 9 -2 19 4 23 5 3 24 33 43 66 40 72 38 70 46 62 3 -3 -1 -20 -10 -38 -10 -20 -13 -36 -7 -42 6 -6 17 8 30 36 12 25 21 49 21 53 0 3 15 27 34 53 36 49 56 101 38 101 -24 0 -42 -13 -42 -31 0 -10 -4 -19 -10 -19 -5 0 -10 -6 -10 -14 0 -8 -7 -16 -15 -20 -13 -4 -14 3 -10 42 3 26 7 135 10 242 5 172 13 226 30 209 2 -3 6 -44 7 -92 3 -72 6 -87 19 -87 13 0 16 10 14 54 -1 30 -7 62 -14 70 -11 13 -10 18 3 32 28 28 38 55 30 82 -4 15 -6 31 -5 36 1 4 -7 35 -19 67 -11 33 -20 72 -20 88 0 16 -7 34 -15 41 -8 7 -15 20 -15 30 0 22 -27 87 -39 94 -4 3 -11 19 -14 36 -5 21 -41 64 -116 140 -60 61 -112 110 -116 110 -12 0 -58 52 -77 88 -36 64 -99 112 -195 145 -39 13 -83 22 -97 20 -24 -5 -33 0 -103 57 -7 6 -16 10 -20 10 -5 0 -20 8 -33 17 -16 12 -46 18 -85 20 -33 1 -151 4 -262 7 -142 5 -204 3 -208 -5z m20 -229 c23 -9 135 -41 210 -60 60 -15 98 -36 111 -59 5 -10 30 -49 55 -87 25 -38 52 -86 58 -106 7 -21 17 -41 23 -44 5 -3 18 -26 28 -50 11 -24 24 -44 30 -44 15 0 12 26 -5 44 -8 8 -15 22 -15 30 0 9 -4 16 -8 16 -4 0 -13 12 -19 28 -6 15 -19 41 -29 57 -28 50 -34 64 -34 86 0 22 -24 52 -34 42 -3 -4 -6 1 -6 9 0 9 -22 39 -49 67 -40 42 -56 52 -85 53 -44 2 -47 14 -5 23 21 5 36 2 48 -9 10 -9 29 -16 44 -16 14 0 29 -4 32 -10 3 -5 18 -10 33 -10 33 -1 74 -33 67 -53 -4 -9 5 -19 24 -27 17 -7 31 -16 31 -21 0 -4 14 -16 30 -26 17 -9 30 -23 30 -31 0 -15 48 -62 63 -62 5 0 7 13 4 30 -5 23 -3 28 9 23 8 -3 13 -10 12 -17 -1 -6 3 -21 10 -34 7 -12 10 -31 7 -42 -6 -20 27 -93 42 -89 4 2 10 -6 12 -17 1 -10 9 -26 17 -35 8 -9 11 -18 8 -22 -9 -8 27 -97 39 -97 5 0 7 13 4 29 -5 23 -2 30 13 34 13 3 18 1 13 -5 -3 -6 0 -16 8 -22 28 -21 66 -81 62 -98 -3 -12 1 -18 12 -18 11 0 15 -5 12 -14 -3 -8 1 -20 9 -26 8 -7 14 -19 14 -27 0 -24 31 -83 44 -83 6 0 16 11 22 23 11 24 4 45 -23 75 -7 7 -14 16 -14 20 -7 38 -10 53 -13 89 -3 28 0 46 10 54 12 10 13 9 9 -4 -4 -8 -2 -18 4 -22 6 -3 8 -17 5 -30 -3 -12 -1 -26 5 -29 6 -4 11 0 11 8 0 9 6 13 15 10 11 -5 14 2 12 28 -3 45 -27 71 -60 63 -14 -4 -28 -2 -32 5 -4 7 1 14 14 17 21 5 30 23 11 23 -5 0 -7 7 -4 15 4 9 0 15 -9 15 -9 0 -18 -10 -21 -22 -3 -13 -3 -1 -2 26 3 36 -2 58 -17 85 -12 20 -25 38 -29 39 -4 2 -8 8 -8 14 0 5 -16 26 -35 46 -19 20 -35 40 -35 45 0 4 -5 7 -10 7 -6 0 -24 13 -41 29 -17 17 -40 31 -51 33 -13 2 -22 12 -24 26 -2 12 -1 22 2 22 16 0 65 -33 74 -50 6 -11 19 -20 30 -20 17 0 71 -44 137 -112 18 -17 25 -20 35 -10 13 13 32 16 24 4 -3 -5 8 -16 24 -25 54 -32 94 -137 58 -150 -21 -6 9 -35 40 -39 23 -3 28 -11 48 -84 12 -44 26 -89 32 -100 20 -38 35 -79 38 -105 2 -15 8 -39 14 -53 14 -37 33 -23 26 18 -5 24 -1 36 15 49 27 23 36 14 19 -18 -12 -22 -11 -27 4 -44 10 -11 15 -27 12 -38 -3 -10 -7 -38 -8 -61 -1 -23 -4 -42 -7 -42 -3 0 -7 -87 -9 -193 -2 -147 -6 -197 -18 -214 -7 -12 -14 -28 -14 -35 0 -21 -54 -127 -65 -127 -5 -1 -16 3 -24 8 -12 8 -12 12 -2 24 7 9 10 31 7 55 -3 30 -1 42 10 46 14 5 14 8 0 22 -22 22 -20 44 5 44 11 0 18 4 15 9 -8 13 -56 20 -62 9 -3 -5 -12 -7 -18 -5 -7 3 -13 -1 -13 -8 0 -10 7 -11 26 -4 l26 9 -24 -19 c-15 -12 -22 -24 -18 -35 4 -9 2 -16 -3 -16 -6 0 -7 -7 -1 -17 18 -37 30 -89 29 -130 0 -35 -7 -47 -43 -83 -28 -27 -45 -38 -50 -30 -4 6 -4 17 -1 25 3 10 -1 15 -12 15 -13 0 -14 2 -4 9 8 4 13 17 11 27 -1 11 1 26 4 34 3 8 8 29 11 45 11 56 17 79 22 87 3 4 -2 11 -11 15 -16 5 -16 7 -1 15 21 12 20 28 -1 29 -17 0 -17 1 0 8 17 6 17 8 -2 25 -12 11 -21 29 -21 41 0 11 -7 30 -15 41 -17 21 -17 26 0 -66 15 -81 16 -100 6 -100 -6 0 -11 -8 -11 -17 -1 -20 -49 -95 -65 -100 -6 -2 -11 38 -13 104 -1 58 -7 111 -12 118 -5 6 -7 21 -3 33 3 13 1 22 -6 22 -11 0 -9 -171 5 -267 5 -42 3 -59 -16 -98 -12 -25 -28 -52 -36 -59 -17 -17 -29 -66 -17 -66 6 0 21 16 35 36 15 21 29 31 32 25 9 -14 -11 -51 -28 -51 -8 0 -16 -7 -20 -15 -3 -8 -13 -15 -22 -15 -10 0 -14 -3 -11 -7 4 -3 -10 -18 -31 -32 -20 -14 -46 -33 -56 -43 -27 -25 -54 -32 -71 -18 -13 10 -9 18 20 47 19 19 35 42 35 50 0 8 4 12 9 9 4 -3 15 11 24 32 52 123 77 173 101 204 27 36 33 58 17 58 -14 0 -47 -46 -71 -98 -12 -26 -28 -58 -36 -72 -8 -14 -22 -40 -30 -57 -8 -18 -18 -33 -24 -33 -5 0 -25 -17 -45 -37 -38 -39 -39 -38 -19 27 10 31 -22 25 -43 -7 -18 -30 -100 -113 -110 -113 -4 0 -36 -13 -72 -29 -36 -17 -91 -37 -121 -45 -30 -8 -64 -22 -75 -30 -17 -13 -18 -18 -7 -36 15 -25 14 -26 -88 -39 -75 -10 -160 -1 -184 18 -16 13 -59 17 -74 7 -9 -5 -19 -1 -29 13 -10 15 -21 20 -34 16 -11 -4 -26 -1 -34 5 -8 7 -22 10 -30 6 -8 -3 -15 -1 -15 5 0 5 -11 14 -24 20 -13 6 -29 22 -35 35 -6 14 -22 29 -36 34 -14 5 -25 14 -25 20 0 6 -12 16 -27 22 -16 7 -36 18 -46 27 -28 23 -32 3 -4 -23 14 -13 28 -21 31 -18 3 3 6 1 6 -4 0 -6 18 -21 41 -33 30 -17 38 -26 29 -35 -7 -7 -13 -7 -18 -1 -4 6 -34 23 -67 40 -70 34 -137 84 -129 97 3 4 -3 11 -12 15 -10 3 -26 15 -37 26 -10 10 -32 23 -48 29 -16 5 -29 14 -29 18 0 5 -13 23 -29 40 -17 19 -27 39 -24 50 4 14 -27 60 -67 100 -9 9 -30 44 -39 67 -6 11 -15 24 -20 28 -6 3 -11 17 -11 31 0 14 -4 22 -10 19 -10 -6 -15 13 -12 47 1 10 -14 33 -33 52 -19 19 -37 47 -40 63 -4 15 -9 34 -11 42 -2 8 3 22 12 33 10 10 14 21 9 26 -4 4 -10 1 -12 -5 -3 -7 -13 -13 -23 -13 -17 0 -19 11 -22 113 -2 61 0 116 3 120 4 5 12 -14 19 -42 7 -28 16 -51 21 -51 12 0 11 10 -6 109 -13 74 -13 89 0 135 9 28 24 62 35 76 l20 25 6 -22 c12 -44 22 -22 17 36 -4 38 -2 61 6 65 16 10 13 26 -5 26 -19 0 -15 31 5 38 9 3 11 0 5 -9 -7 -12 -5 -12 9 0 9 7 17 22 17 32 0 11 5 19 10 19 6 0 10 6 10 13 0 7 21 41 48 75 65 87 222 209 355 277 93 48 122 57 191 65 149 18 210 18 251 0z"
       id="path15" />
    <path
       d="M7555 12503 c-11 -3 -37 -19 -58 -35 -29 -23 -45 -29 -65 -25 -21 4 -31 1 -40 -14 -7 -10 -21 -19 -32 -19 -11 0 -20 -5 -20 -11 0 -7 -9 -9 -24 -5 -14 3 -26 1 -28 -5 -4 -13 -60 -21 -68 -11 -3 4 -21 13 -40 20 -32 11 -37 11 -55 -10 -16 -19 -32 -24 -85 -26 -73 -3 -127 -17 -152 -40 -13 -11 -18 -12 -18 -2 0 18 -51 4 -72 -20 -9 -11 -23 -20 -32 -20 -9 0 -16 -6 -16 -14 0 -7 -9 -16 -21 -19 -15 -4 -19 -2 -15 9 8 20 -40 -8 -88 -52 -19 -18 -50 -35 -68 -39 -44 -10 -53 -16 -37 -26 10 -6 6 -9 -13 -9 -29 0 -62 -40 -39 -48 19 -6 12 -29 -13 -46 -17 -11 -32 -13 -48 -7 -18 6 -26 3 -41 -16 -11 -13 -26 -22 -33 -19 -8 3 -14 0 -14 -7 0 -7 -25 -39 -55 -72 -57 -63 -62 -74 -43 -93 9 -9 9 -12 -3 -12 -9 0 -16 -11 -17 -26 -2 -29 -31 -85 -49 -97 -7 -4 -10 -14 -7 -21 3 -7 -2 -16 -11 -20 -9 -3 -13 -10 -10 -16 4 -6 11 -8 16 -5 15 10 10 -22 -6 -35 -8 -7 -14 -18 -13 -24 2 -7 -14 -27 -34 -45 -25 -21 -38 -42 -38 -58 0 -13 -10 -45 -22 -71 -23 -48 -25 -54 -27 -84 0 -10 -17 -36 -36 -57 -24 -26 -31 -41 -23 -44 23 -8 -24 -38 -51 -31 -18 4 -22 2 -18 -10 4 -10 1 -16 -8 -16 -9 0 -15 -10 -15 -25 0 -14 -8 -29 -20 -35 -11 -6 -20 -21 -21 -33 0 -21 -1 -21 -10 -2 -8 18 -9 17 -6 -5 3 -14 6 -31 8 -39 2 -7 -2 -16 -9 -18 -8 -3 -10 1 -5 13 4 12 2 15 -8 12 -8 -2 -15 -14 -17 -26 -2 -11 -10 -26 -18 -32 -8 -7 -14 -20 -14 -30 0 -9 -9 -25 -20 -35 -21 -19 -27 -45 -10 -45 6 0 10 -5 10 -12 0 -6 -3 -8 -6 -5 -4 3 -15 2 -26 -4 -14 -8 -19 -18 -15 -35 3 -17 0 -24 -11 -24 -12 0 -13 -3 -5 -11 8 -8 9 -20 2 -38 -15 -41 -33 -75 -44 -83 -6 -5 -6 -11 2 -19 9 -9 5 -17 -18 -36 -34 -29 -41 -68 -9 -58 14 4 20 2 20 -9 0 -8 -9 -18 -20 -21 -20 -6 -28 -35 -10 -35 16 0 11 -43 -10 -85 -11 -21 -19 -44 -19 -50 3 -22 -3 -49 -8 -37 -9 22 -23 13 -14 -10 6 -16 4 -26 -6 -33 -8 -6 -15 -17 -17 -25 -2 -8 -6 -23 -10 -32 -4 -9 -5 -22 -1 -27 3 -6 -1 -24 -10 -40 -8 -17 -15 -43 -15 -58 -1 -31 -33 -107 -42 -98 -3 3 -5 -13 -5 -35 0 -25 -7 -48 -18 -60 -10 -11 -14 -20 -9 -20 5 0 1 -5 -8 -11 -10 -5 -18 -17 -18 -25 0 -8 4 -13 9 -9 5 3 12 1 16 -5 3 -5 -4 -14 -17 -19 -35 -13 -55 -42 -61 -86 -7 -56 -26 -123 -49 -173 -11 -24 -22 -71 -26 -105 -3 -44 -12 -71 -29 -93 -13 -17 -21 -38 -17 -47 3 -8 -3 -30 -13 -49 -10 -18 -18 -37 -19 -43 -1 -5 -3 -12 -4 -15 -1 -3 -3 -19 -5 -36 -1 -17 -5 -42 -8 -55 -3 -13 -2 -33 2 -44 5 -12 1 -31 -12 -52 -10 -18 -14 -33 -8 -33 12 0 4 -53 -12 -85 -6 -11 -10 -30 -8 -42 1 -12 -5 -33 -14 -47 -9 -13 -15 -30 -13 -38 1 -7 -6 -25 -16 -41 -11 -16 -20 -54 -24 -94 -3 -38 -11 -74 -19 -82 -9 -8 -12 -24 -8 -42 4 -18 1 -37 -10 -52 -9 -14 -17 -49 -19 -79 -2 -29 -14 -76 -26 -103 -13 -28 -24 -68 -26 -89 -1 -21 -6 -42 -11 -45 -5 -3 -21 -55 -36 -116 -16 -63 -37 -119 -48 -131 -10 -11 -19 -30 -19 -42 0 -12 -4 -22 -8 -22 -12 0 -33 -49 -27 -61 4 -5 0 -23 -8 -41 -33 -76 -57 -198 -39 -198 6 0 13 8 16 18 2 9 3 -5 1 -33 -2 -27 -9 -51 -15 -53 -5 -2 -10 -10 -10 -18 0 -9 -4 -13 -8 -10 -11 7 -48 -79 -55 -127 -6 -36 7 -85 25 -98 5 -3 -3 -15 -17 -27 -24 -21 -36 -60 -15 -47 6 3 10 13 10 20 0 8 9 19 20 25 19 10 20 7 21 -67 0 -43 2 -91 3 -107 1 -20 -3 -30 -15 -33 -9 -3 -22 -16 -28 -29 -13 -29 -15 -68 -3 -60 4 2 16 -17 25 -44 19 -54 18 -58 -42 -145 -25 -35 -35 -59 -34 -84 1 -20 -5 -44 -13 -55 -8 -11 -14 -37 -14 -58 0 -20 -6 -57 -14 -80 -8 -24 -16 -63 -19 -88 -11 -89 -29 -185 -39 -204 -7 -14 -7 -17 2 -11 11 7 9 -7 -7 -51 -2 -7 1 -15 7 -19 8 -5 7 -12 -5 -25 -17 -19 -42 -159 -48 -270 -1 -36 -5 -70 -9 -75 -3 -6 -2 -19 2 -30 4 -11 3 -33 -3 -48 -6 -19 -5 -42 3 -73 13 -47 30 -59 30 -21 1 22 1 22 15 2 14 -17 13 -20 -10 -34 -24 -15 -33 -31 -17 -31 4 0 8 -30 9 -68 3 -86 12 -134 23 -127 17 10 40 -8 57 -44 9 -20 19 -40 21 -45 3 -5 -7 -6 -22 -2 -24 6 -27 4 -24 -16 2 -18 10 -23 33 -24 51 -1 55 -3 55 -30 0 -14 9 -39 20 -54 15 -21 17 -29 8 -33 -10 -3 -8 -9 5 -24 9 -11 15 -22 12 -25 -3 -3 -7 -44 -9 -92 -4 -75 -2 -88 14 -98 17 -11 17 -12 -3 -28 -22 -18 -16 -43 8 -33 9 3 15 -1 15 -11 0 -10 -6 -14 -18 -10 -15 5 -15 4 -1 -8 8 -7 16 -23 17 -35 1 -13 2 -29 2 -35 1 -7 -2 -23 -5 -36 -6 -16 -3 -22 8 -22 9 0 19 5 22 10 8 13 35 -6 35 -24 0 -11 45 -36 65 -36 5 0 15 10 20 22 6 13 36 40 68 61 41 27 57 44 57 60 0 12 9 58 21 102 11 44 20 101 21 128 1 26 5 47 9 47 4 0 14 3 23 6 11 4 19 -2 26 -20 5 -15 17 -26 28 -26 20 0 52 29 52 48 0 7 4 12 9 12 5 0 12 8 15 17 4 10 20 43 36 73 16 30 29 66 29 81 1 14 6 30 13 37 6 6 12 35 13 65 3 66 31 177 49 196 17 17 34 7 47 -27 8 -21 12 -23 19 -12 7 10 10 11 10 3 0 -7 8 -13 18 -14 9 0 2 -5 -17 -10 -31 -10 -32 -11 -15 -24 11 -8 27 -15 36 -15 9 0 23 -6 30 -14 8 -7 24 -17 36 -20 12 -4 20 -11 17 -16 -5 -9 89 -84 108 -86 29 -2 35 -5 53 -21 11 -11 18 -28 16 -41 -4 -23 25 -43 37 -25 6 10 46 10 71 0 8 -3 24 -7 35 -9 26 -4 31 -38 15 -108 -7 -30 -14 -81 -15 -113 -1 -31 -5 -60 -8 -64 -4 -3 -7 -21 -7 -39 0 -23 -7 -36 -25 -48 -13 -9 -32 -31 -41 -49 -24 -48 -83 -117 -100 -117 -8 0 -14 -4 -14 -10 0 -5 -10 -10 -23 -10 -12 0 -35 -12 -50 -26 -26 -24 -32 -25 -102 -19 -49 4 -75 2 -75 -5 0 -5 -18 -10 -39 -10 -22 0 -42 -5 -44 -12 -4 -10 -6 -10 -6 0 -1 6 -5 12 -10 12 -5 0 -7 -15 -6 -32 4 -44 5 -46 15 -23 6 14 9 15 9 5 1 -12 14 -16 57 -17 90 -2 105 -27 68 -117 -6 -16 -4 -18 13 -14 11 3 28 1 37 -4 15 -9 12 -14 -24 -48 -23 -21 -37 -41 -32 -44 17 -10 21 -56 5 -56 -8 0 -27 -7 -43 -15 -27 -14 -29 -14 -23 1 5 14 3 15 -15 5 -22 -12 -20 -41 3 -41 21 0 26 -28 8 -46 -15 -15 -15 -19 1 -49 10 -18 15 -38 11 -45 -4 -6 -2 -17 4 -24 6 -8 9 -29 6 -49 -5 -28 -1 -44 17 -69 13 -18 26 -35 29 -38 27 -23 8 -77 -29 -85 -24 -4 -62 -27 -62 -37 0 -5 -7 -8 -15 -8 -9 0 -15 -9 -15 -23 0 -22 3 -23 70 -23 38 1 70 4 70 9 0 10 51 31 68 28 6 -1 12 5 12 14 0 8 -4 15 -10 15 -5 0 -10 4 -10 10 0 6 25 9 59 7 48 -2 61 -6 65 -20 7 -28 48 -18 64 16 11 23 18 27 35 21 22 -7 64 -11 169 -15 40 -1 61 2 72 14 11 11 27 14 56 10 38 -5 87 4 151 30 34 14 55 45 40 60 -14 14 -14 37 -1 37 6 0 9 -3 9 -7 -3 -21 4 -22 38 -8 21 9 48 13 60 10 22 -5 28 2 24 33 -1 6 4 13 11 14 7 0 18 2 24 2 6 1 18 9 27 17 12 13 13 19 4 28 -9 9 -8 11 6 6 11 -5 17 -2 17 8 0 17 3 18 93 21 55 2 58 3 78 40 17 31 18 40 7 54 -11 13 -10 14 15 8 20 -5 27 -3 27 9 0 8 5 15 10 15 6 0 10 11 10 25 0 20 -5 25 -25 25 -14 0 -28 -7 -31 -15 -7 -18 -40 -20 -50 -3 -5 8 -11 6 -20 -7 -11 -15 -15 -16 -28 -3 -8 9 -11 19 -6 24 5 5 6 30 3 56 -4 37 -9 45 -22 41 -10 -3 -12 -2 -4 4 6 4 15 23 20 42 6 25 15 35 33 38 28 4 40 13 18 13 -25 0 -29 26 -7 46 10 9 19 27 19 39 0 38 49 65 51 28 0 -14 2 -15 6 -3 3 8 14 24 23 35 10 11 20 29 22 40 2 14 10 19 27 17 13 -2 28 4 36 15 7 10 17 15 21 10 4 -4 2 -7 -4 -7 -7 0 -12 -5 -12 -10 0 -6 10 -8 23 -5 50 12 159 11 184 -2 14 -7 43 -15 65 -17 21 -2 41 -6 45 -10 10 -10 72 -7 94 4 15 8 19 7 19 -5 0 -8 6 -15 14 -15 25 0 27 18 4 39 -12 12 -19 23 -17 26 3 2 61 6 130 8 69 3 135 9 146 15 11 6 43 8 76 5 l56 -6 -5 -126 c-5 -131 -6 -146 -17 -196 -16 -72 -16 -86 -1 -92 13 -5 13 -9 -2 -30 -8 -14 -14 -34 -11 -44 3 -10 1 -19 -5 -19 -6 0 -7 -11 -4 -25 4 -15 -4 -64 -19 -121 -43 -155 -61 -290 -41 -297 6 -2 26 7 44 19 28 19 44 23 88 19 36 -3 73 2 112 15 67 22 166 39 202 35 14 -2 45 -6 70 -9 42 -6 47 -5 79 28 20 22 31 41 27 51 -7 18 -20 19 -38 2 -17 -17 -268 -22 -268 -5 0 6 -9 8 -22 3 -39 -12 -148 -16 -148 -5 0 13 -37 13 -45 0 -3 -5 -12 -7 -21 -3 -13 5 -13 7 0 22 8 9 22 32 31 51 22 48 41 80 54 93 6 6 11 19 11 29 0 21 1 21 34 6 14 -6 28 -19 31 -30 4 -10 14 -18 23 -18 9 -1 47 -3 84 -6 55 -5 80 -1 145 21 43 14 95 37 115 51 20 14 41 23 47 20 5 -4 31 -2 58 4 61 14 76 -2 70 -75 -5 -55 14 -105 38 -105 8 0 15 1 15 3 1 1 3 40 6 87 5 79 19 150 30 150 3 0 17 -11 32 -25 15 -14 30 -25 34 -25 21 0 10 28 -53 141 -38 68 -73 138 -78 154 -20 64 -51 138 -64 154 -23 25 -77 138 -77 159 0 10 -3 22 -7 25 -3 4 -8 24 -10 44 -2 21 -12 47 -22 58 -25 27 -37 111 -43 285 -1 55 9 186 21 259 5 30 6 72 3 93 -3 23 0 38 6 38 5 0 13 -38 16 -87 14 -189 18 -223 25 -223 4 0 7 -19 7 -43 l-1 -42 105 -1 c91 -1 113 3 170 26 36 14 85 32 110 40 25 7 49 17 55 22 5 4 15 8 23 8 15 0 147 -84 157 -100 3 -5 16 -10 29 -10 12 0 26 -3 30 -7 11 -11 51 -11 58 1 4 6 8 27 8 47 0 20 3 39 8 43 8 8 9 14 11 49 1 27 42 46 111 54 25 3 50 9 55 13 19 15 98 13 155 -5 30 -9 62 -16 70 -16 8 1 49 3 90 4 41 2 86 7 99 11 16 6 26 4 32 -5 6 -11 31 -13 98 -11 52 1 92 -2 96 -8 10 -16 32 -12 62 13 15 13 42 27 58 31 38 9 95 44 95 58 0 6 11 19 25 30 30 23 32 48 5 55 -16 4 -19 11 -15 35 4 21 1 34 -10 42 -9 6 -17 33 -20 67 -3 31 -10 72 -15 90 -6 19 -10 52 -10 74 0 22 -4 55 -9 73 -12 39 0 43 15 5 19 -45 33 -127 37 -213 1 -19 8 -41 15 -49 7 -7 10 -21 7 -29 -3 -9 -3 -13 1 -9 11 11 34 -13 34 -35 0 -18 2 -18 15 -4 14 14 14 20 0 61 -8 25 -15 57 -15 71 0 13 -7 27 -15 30 -10 4 -15 20 -15 45 0 32 4 39 19 39 17 0 18 3 8 30 -6 17 -16 29 -22 26 -6 -2 -18 24 -28 58 -10 33 -22 71 -27 82 -5 12 -5 25 1 31 5 5 5 22 -1 41 -7 27 -6 34 8 39 9 3 20 8 24 10 4 2 5 -8 2 -21 -3 -17 1 -26 13 -29 17 -4 17 -5 1 -6 -25 -1 -23 -38 2 -51 18 -10 20 -7 21 22 1 18 3 25 6 16 6 -24 33 -11 33 17 0 12 -7 28 -15 35 -13 11 -14 10 -9 -5 5 -13 3 -16 -7 -13 -9 3 -13 16 -11 36 2 18 -1 32 -7 32 -6 0 -11 7 -11 15 0 8 5 15 10 15 17 0 11 26 -11 46 l-22 19 6 -45 c6 -45 6 -45 -12 -21 l-18 23 4 -33 c6 -53 -13 -13 -21 43 -4 26 -11 50 -16 53 -12 7 -11 49 2 93 7 22 6 37 -1 46 -7 9 -7 16 0 23 12 12 3 37 -10 28 -5 -2 -11 13 -15 35 -3 22 -11 40 -17 40 -5 0 -8 -4 -4 -10 3 -5 2 -22 -2 -37 l-7 -28 -6 25 c-7 30 -32 37 -54 15 -14 -15 -16 -15 -16 -1 0 9 -5 16 -11 16 -8 0 -8 5 1 15 7 8 10 24 7 35 -3 11 -1 22 3 25 5 3 10 -9 12 -27 5 -51 28 -48 28 4 0 47 -17 81 -39 76 -7 -2 -16 3 -18 10 -3 6 2 12 11 12 9 0 16 8 16 20 0 15 -7 20 -27 21 -16 0 -22 3 -15 6 17 7 15 21 -5 26 -17 4 -17 5 0 6 10 0 15 6 12 11 -3 6 -1 10 5 10 7 0 5 7 -4 16 -10 10 -14 24 -10 39 4 17 0 26 -15 35 -12 6 -19 15 -15 21 3 5 0 16 -6 24 -10 12 -9 15 6 16 16 0 16 2 -3 9 -26 11 -29 25 -9 46 17 16 10 54 -13 71 -14 10 -14 13 1 30 12 13 14 23 8 33 -13 20 -13 43 -1 35 12 -7 5 36 -7 44 -4 3 -9 15 -9 26 0 11 -4 43 -8 70 -4 28 -8 67 -9 88 0 21 -7 42 -15 46 -8 5 -11 16 -8 24 3 9 -1 21 -9 28 -14 12 -14 14 0 24 14 11 14 14 -3 32 -12 13 -21 42 -25 79 -3 33 -9 74 -12 92 -5 24 -3 32 9 32 8 0 17 9 20 20 3 11 1 20 -4 20 -5 0 -9 -7 -9 -15 0 -8 -5 -15 -11 -15 -6 0 -8 7 -5 16 3 9 6 33 6 55 0 38 1 39 22 28 19 -10 20 -12 4 -21 -14 -8 -15 -12 -4 -25 11 -13 13 -11 20 13 5 19 3 31 -5 36 -9 6 -8 10 3 18 12 8 13 13 3 30 -7 11 -13 29 -13 40 0 11 -7 20 -15 20 -21 0 -19 13 5 35 16 14 20 15 20 3 0 -19 27 -55 35 -47 8 8 -16 62 -32 72 -7 4 -13 16 -13 25 0 10 -5 23 -12 30 -8 8 -8 15 0 25 6 7 9 22 6 34 -3 11 -1 24 4 27 17 10 1 46 -22 47 -17 1 -17 2 -4 6 24 6 5 43 -22 43 -11 0 -20 7 -20 15 0 8 9 15 19 15 28 0 35 17 12 31 -16 11 -17 16 -8 37 9 20 8 26 -7 37 -10 8 -15 18 -12 24 4 5 2 12 -4 16 -5 3 -10 20 -10 36 0 26 3 29 25 23 18 -4 25 -2 25 9 0 8 7 20 15 27 23 19 18 32 -12 28 -25 -3 -28 1 -31 27 -2 17 -6 37 -9 45 -3 8 -7 22 -8 31 -1 8 -11 25 -24 38 -12 12 -19 26 -16 30 2 5 -2 14 -10 21 -20 17 -19 38 3 36 12 -1 16 5 14 19 -1 11 -5 47 -7 79 -3 33 -10 63 -17 67 -10 7 -10 11 0 21 13 13 16 54 4 62 -4 2 -9 31 -10 62 -1 32 -7 63 -12 68 -6 6 -10 18 -10 28 0 10 -6 18 -12 18 -10 0 -10 2 0 9 11 6 9 17 -8 53 -11 25 -20 52 -18 59 2 8 -4 13 -14 13 -22 -2 -22 -4 -2 34 11 24 14 46 9 87 -4 30 -11 58 -17 61 -5 3 -6 13 -3 23 3 9 -3 26 -14 37 -13 14 -18 33 -16 61 1 23 -4 58 -11 80 -8 21 -14 50 -14 64 0 17 -8 30 -25 39 -14 7 -25 17 -25 22 0 4 -10 8 -22 8 -22 1 -22 1 -5 14 10 8 14 17 9 20 -6 3 -12 20 -15 38 -3 18 -10 53 -16 76 -8 30 -8 55 -1 80 5 22 6 40 1 45 -6 6 1 19 17 32 23 20 25 25 13 39 -14 16 -35 16 -95 -1 -11 -3 -16 -1 -12 5 3 6 1 12 -5 14 -9 3 -9 9 -1 25 9 17 9 22 -3 27 -8 3 -15 16 -14 28 0 13 3 17 6 11 8 -22 21 -14 28 17 4 17 12 30 19 30 15 0 37 58 25 66 -5 3 -9 16 -9 30 0 13 -4 24 -10 24 -5 0 -10 -6 -10 -14 0 -8 -5 -18 -10 -21 -7 -4 -9 25 -8 84 2 62 -1 94 -9 102 -7 7 -13 37 -13 67 0 45 3 55 20 59 26 7 26 19 0 26 -11 3 -23 13 -26 24 -3 10 -10 26 -15 35 -15 29 -11 75 8 82 12 5 14 9 5 18 -15 15 -15 53 -2 78 7 13 6 19 -6 24 -8 3 -12 10 -9 16 3 5 3 16 -2 23 -16 24 -31 80 -26 93 3 8 -5 18 -21 24 -14 5 -26 15 -26 22 0 9 3 9 10 -2 12 -20 21 -9 13 18 -3 13 -13 22 -24 22 -22 0 -26 28 -5 36 10 4 14 22 14 59 -1 47 -3 54 -22 57 -18 3 -22 12 -28 61 -12 94 -27 137 -51 147 -12 5 -16 9 -9 9 9 1 8 8 -4 26 -12 19 -16 48 -16 110 0 47 -4 88 -9 91 -5 3 -9 14 -9 25 0 29 -27 77 -47 83 -17 5 -32 31 -58 101 -7 17 -18 45 -24 63 -7 17 -16 32 -20 32 -5 0 -16 18 -26 40 -10 22 -22 40 -27 40 -4 0 -8 9 -8 20 0 11 -7 23 -15 26 -8 4 -15 13 -15 20 0 8 -7 17 -15 20 -8 4 -15 10 -15 15 0 15 -43 59 -57 59 -7 0 -13 5 -13 11 0 6 -8 8 -19 4 -24 -7 -37 10 -15 19 13 5 14 9 4 21 -7 8 -15 13 -19 10 -4 -2 -20 3 -35 11 -16 7 -35 14 -42 14 -8 0 -14 5 -14 11 0 6 -7 9 -14 6 -9 -4 -17 1 -21 12 -10 32 -124 63 -150 41 -9 -8 -20 -8 -32 -2 -10 5 -24 7 -30 5 -7 -3 -13 2 -13 11 0 9 -8 16 -17 16 -9 0 -24 6 -32 14 -9 7 -52 21 -96 31 -89 19 -118 31 -110 46 6 8 -25 14 -65 11 -8 0 -18 5 -22 11 -6 9 -8 9 -8 0 0 -7 -10 -18 -22 -24 -13 -6 -20 -8 -16 -4 4 4 -9 17 -30 28 -37 20 -108 29 -147 20z m-289 -173 c11 0 13 -6 8 -22 -4 -13 -12 -26 -18 -30 -8 -6 -8 -8 0 -8 6 0 17 7 24 15 14 17 40 20 40 5 0 -5 -5 -10 -11 -10 -5 0 -8 -4 -4 -10 8 -14 35 0 36 19 0 11 3 9 9 -6 5 -13 15 -20 22 -18 7 3 37 7 66 8 38 3 52 0 52 -10 0 -20 18 -15 25 7 5 15 12 19 27 14 11 -3 48 -6 82 -6 33 0 68 -4 76 -8 8 -4 64 -10 125 -13 64 -3 111 -10 113 -16 2 -6 12 -11 22 -11 10 0 26 -7 34 -16 9 -8 16 -13 16 -9 0 3 6 3 13 -2 6 -4 17 -8 24 -9 7 -1 25 -11 41 -23 18 -13 32 -17 38 -11 7 7 17 5 30 -5 10 -8 14 -15 7 -15 -18 0 -16 -20 1 -20 8 0 16 6 19 13 3 9 10 9 33 -3 16 -8 33 -21 37 -27 4 -7 14 -13 22 -13 8 0 23 -10 35 -22 11 -12 22 -19 26 -16 9 10 -15 48 -31 48 -7 0 -16 9 -20 19 -3 10 -15 21 -25 24 -13 3 -20 13 -19 29 0 12 3 17 6 11 2 -7 9 -13 14 -13 13 0 93 -61 98 -75 4 -10 23 -29 124 -124 35 -33 56 -60 53 -68 -3 -8 -2 -11 3 -8 5 3 12 -4 16 -15 3 -11 13 -20 21 -20 8 0 14 -10 14 -22 0 -20 -1 -21 -20 -3 -11 10 -20 24 -20 32 0 7 -4 13 -10 13 -10 0 -5 -18 17 -60 7 -14 13 -33 13 -42 0 -10 9 -23 20 -30 11 -7 20 -22 20 -33 1 -11 7 -31 14 -44 8 -14 11 -32 8 -40 -3 -9 -1 -12 6 -7 7 4 12 3 12 -3 0 -5 -5 -13 -11 -17 -6 -3 -8 -15 -6 -26 4 -14 2 -18 -9 -14 -8 3 -14 1 -14 -4 0 -6 5 -10 10 -10 6 0 10 -7 10 -15 0 -8 6 -15 14 -15 9 0 15 -21 19 -71 3 -39 10 -76 16 -82 5 -7 8 -47 7 -90 -1 -43 1 -80 4 -82 4 -3 13 -49 20 -102 7 -54 16 -103 21 -108 4 -6 4 -17 -1 -25 -17 -26 -10 -44 25 -70 19 -14 35 -29 35 -34 0 -5 -3 -6 -7 -3 -10 11 -34 -45 -27 -62 18 -44 41 -158 34 -171 -4 -8 -7 -27 -6 -42 1 -16 -1 -28 -5 -28 -7 0 -2 -77 6 -90 3 -4 0 -10 -7 -12 -17 -6 8 -156 30 -182 13 -14 14 -20 5 -23 -18 -7 -16 -26 6 -49 33 -36 45 -65 30 -75 -11 -8 -10 -12 5 -24 10 -8 16 -20 14 -27 -3 -7 -1 -24 5 -38 5 -14 11 -41 13 -60 2 -19 6 -53 10 -75 7 -44 15 -124 17 -169 1 -16 -2 -31 -8 -33 -5 -1 -11 15 -11 38 -2 46 -11 60 -24 39 -15 -23 -12 -50 5 -50 8 0 15 -4 15 -10 0 -5 -4 -10 -10 -10 -19 0 -10 -28 10 -33 11 -3 20 -1 20 4 0 5 5 9 10 9 6 0 10 -11 10 -25 0 -16 -6 -25 -15 -25 -17 0 -21 -25 -5 -35 5 -3 7 -12 3 -20 -3 -10 2 -15 16 -15 30 0 30 -55 0 -63 -13 -3 -18 -10 -14 -17 4 -7 16 -10 26 -7 19 5 20 4 23 -67 1 -11 7 -21 14 -24 7 -2 9 -8 6 -14 -4 -5 -2 -20 4 -31 18 -38 24 -61 27 -100 4 -47 8 -52 33 -38 17 9 22 8 27 -9 10 -31 -4 -44 -26 -24 -10 9 -19 15 -20 13 -4 -25 -2 -69 4 -69 4 0 7 -7 7 -15 0 -13 4 -14 21 -4 19 10 20 9 14 -11 -8 -25 14 -47 27 -27 5 8 8 6 8 -6 0 -10 -7 -28 -15 -41 -14 -21 -14 -24 0 -36 9 -8 13 -20 9 -33 -4 -12 -2 -17 4 -13 5 3 13 -2 16 -11 4 -10 4 -14 0 -10 -8 8 -34 -25 -28 -35 9 -14 24 -9 24 7 0 18 21 20 37 4 6 -6 16 -8 22 -5 14 9 1 38 -14 32 -9 -3 -13 6 -12 29 1 25 7 36 24 44 21 9 23 7 28 -27 4 -20 13 -59 20 -85 7 -27 11 -64 9 -83 -3 -26 0 -34 11 -34 8 0 15 -8 15 -18 0 -11 7 -33 15 -49 20 -40 56 -237 52 -285 -2 -20 0 -35 3 -33 4 2 7 -30 7 -71 0 -41 3 -78 6 -81 6 -5 -17 -33 -27 -33 -3 0 -6 9 -6 19 0 11 -4 22 -8 25 -4 2 -7 37 -7 76 1 51 -2 73 -12 77 -7 3 -18 24 -25 47 -6 22 -16 47 -22 55 -5 7 -11 56 -11 110 -1 64 -6 104 -15 121 -8 14 -15 49 -16 78 -2 58 -8 68 -39 74 -17 3 -19 -2 -17 -29 3 -27 0 -32 -12 -27 -9 3 -16 2 -16 -2 0 -5 -3 -20 -7 -33 -5 -21 -3 -23 14 -19 17 5 22 0 27 -23 7 -38 7 -39 -1 -39 -4 0 -8 6 -9 13 -2 28 -6 31 -14 12 -12 -28 -12 -55 1 -55 12 0 79 -52 79 -62 0 -4 -7 -5 -15 -2 -10 4 -14 2 -10 -7 6 -18 -31 -63 -45 -54 -6 4 -10 -6 -10 -25 0 -26 4 -31 30 -36 17 -4 30 -7 31 -8 3 -5 29 -299 29 -327 0 -34 12 -49 42 -53 11 -2 22 -16 11 -16 -5 0 -10 -14 -10 -30 0 -25 4 -30 21 -28 21 3 27 -15 40 -117 2 -17 11 -48 20 -69 9 -21 16 -48 16 -60 0 -15 3 -17 9 -7 6 9 11 10 15 2 4 -6 5 -15 2 -20 -4 -5 -1 -11 5 -13 8 -3 8 -10 -2 -26 -12 -20 -12 -24 1 -32 12 -8 16 -1 20 38 3 27 1 49 -5 51 -13 4 -35 32 -35 44 0 4 5 5 10 2 6 -3 10 1 10 9 0 9 4 16 9 16 16 0 65 -213 63 -273 -1 -26 2 -36 10 -31 7 5 9 2 5 -8 -3 -9 -1 -20 4 -25 6 -6 6 -19 0 -36 -6 -15 -8 -34 -5 -42 5 -11 2 -13 -10 -9 -11 4 -15 16 -13 39 1 18 5 31 10 28 4 -2 7 -2 7 1 0 3 -9 10 -20 16 -20 11 -21 9 -17 -57 2 -38 7 -75 11 -82 5 -7 10 -51 11 -96 3 -93 7 -105 36 -105 20 0 26 -15 10 -24 -5 -4 -12 0 -15 6 -8 18 1 -160 10 -202 4 -19 11 -37 15 -40 4 -3 11 -30 14 -60 3 -30 9 -84 15 -120 5 -36 10 -69 10 -73 0 -5 8 -6 19 -2 16 5 20 -4 31 -70 7 -41 10 -78 7 -81 -7 -7 -13 18 -22 79 -5 39 -11 50 -31 57 -14 6 -22 14 -19 20 3 5 1 10 -5 10 -7 0 -9 -7 -6 -16 3 -9 6 -29 6 -45 0 -18 4 -28 10 -24 6 3 10 -1 10 -10 0 -24 -26 -29 -61 -11 -18 9 -34 15 -36 13 -2 -2 4 -20 12 -40 8 -20 15 -50 15 -67 0 -16 3 -30 8 -30 4 0 12 -11 19 -25 6 -14 7 -25 3 -25 -15 0 -16 -33 -4 -110 6 -41 10 -78 8 -81 -2 -4 2 -22 10 -40 7 -19 12 -51 11 -71 -1 -24 3 -38 11 -38 6 0 15 -7 18 -16 8 -20 -2 -54 -15 -54 -10 0 -5 -93 6 -110 13 -21 24 -9 15 16 -13 33 -13 34 5 28 8 -4 15 -16 15 -28 0 -12 6 -28 12 -34 10 -10 10 -15 -2 -22 -11 -7 -16 -5 -18 5 -2 8 -8 15 -12 15 -6 0 -6 -10 -1 -22 5 -13 5 -48 1 -78 -4 -30 -3 -63 2 -73 5 -9 9 -36 10 -60 0 -41 1 -42 34 -42 35 0 43 12 22 33 -8 8 -15 9 -25 1 -10 -9 -13 -6 -13 15 0 22 4 26 19 21 18 -5 39 21 26 33 -3 3 -5 0 -5 -6 0 -7 -4 -12 -10 -12 -19 0 -10 25 14 36 21 10 24 8 35 -23 7 -18 10 -37 6 -42 -3 -6 3 -14 12 -20 10 -6 14 -11 9 -11 -5 0 -3 -7 4 -15 7 -8 10 -21 7 -29 -3 -7 0 -24 7 -37 20 -40 19 -86 -2 -91 -19 -5 -69 28 -59 39 4 3 2 12 -4 20 -8 8 -8 13 -1 13 15 0 -15 57 -35 64 -9 4 -24 4 -34 1 -14 -5 -19 -1 -19 14 0 11 -7 24 -15 29 -18 9 -50 145 -36 150 4 1 2 20 -5 41 -16 47 -34 187 -33 259 0 30 -4 59 -10 65 -5 7 -12 32 -15 57 -3 25 -12 64 -20 86 -8 23 -18 64 -21 90 -6 55 -18 128 -41 259 -8 50 -18 108 -21 130 -3 22 -9 45 -13 50 -4 6 -11 38 -15 71 -4 34 -13 73 -20 87 -7 14 -16 38 -19 54 -4 15 -9 39 -12 53 -37 178 -45 219 -48 245 -2 17 -4 37 -5 45 -2 8 -8 -1 -16 -20 -15 -42 -18 -36 -39 80 -28 155 -38 200 -46 200 -7 0 -18 52 -24 115 -4 45 -17 85 -27 85 -5 0 -9 9 -9 20 0 11 -4 20 -8 20 -5 0 -9 18 -10 40 -2 38 11 54 21 28 3 -7 6 -4 6 6 1 11 9 28 18 38 16 18 16 18 0 12 -19 -7 -23 16 -8 45 6 11 4 33 -6 64 -17 52 -11 100 12 91 12 -5 12 -1 2 25 -6 17 -15 31 -20 31 -5 0 -5 9 -2 20 5 14 2 20 -9 20 -9 0 -16 7 -16 16 0 14 3 14 15 4 16 -14 20 -3 6 19 -6 9 -18 11 -35 7 -18 -4 -26 -2 -27 6 -1 40 -10 101 -15 109 -3 5 -10 6 -16 3 -6 -4 -8 -2 -4 4 3 6 0 14 -8 19 -8 4 -16 19 -18 33 -4 30 -38 41 -38 12 0 -10 3 -22 6 -25 4 -4 8 -19 10 -34 1 -16 10 -59 18 -98 14 -62 22 -182 9 -130 -3 11 -10 31 -16 45 -5 14 -11 31 -13 39 -5 24 -23 36 -35 24 -8 -8 -6 -16 6 -31 10 -11 19 -35 21 -54 1 -19 12 -61 23 -94 12 -32 21 -67 21 -79 0 -11 7 -40 15 -64 9 -24 27 -107 40 -185 14 -77 27 -152 30 -166 11 -48 29 -105 35 -115 13 -20 30 -92 51 -217 13 -71 27 -128 32 -128 5 0 6 16 3 38 -6 32 -5 34 6 17 7 -11 13 -24 14 -30 2 -5 7 -34 13 -64 6 -30 15 -59 19 -65 5 -6 9 -42 11 -80 1 -38 6 -77 11 -87 6 -10 10 -30 10 -46 1 -15 7 -39 15 -53 8 -14 14 -44 15 -67 0 -23 4 -44 9 -47 5 -3 12 -29 16 -58 4 -29 9 -62 11 -73 2 -11 4 -51 5 -90 2 -80 21 -146 54 -191 32 -42 72 -283 81 -484 6 -128 10 -153 25 -163 10 -7 20 -24 24 -38 6 -25 4 -26 -67 -37 -42 -6 -98 -24 -133 -41 -33 -17 -64 -31 -68 -31 -4 0 -24 -11 -44 -25 -20 -13 -39 -22 -43 -20 -4 2 -26 7 -49 10 -55 7 -79 23 -92 65 -7 19 -16 40 -20 46 -5 6 -7 19 -3 28 5 12 2 15 -10 10 -20 -8 -20 -6 3 -48 12 -20 17 -43 14 -56 -5 -18 -11 -21 -36 -16 -17 4 -40 15 -52 26 -11 11 -39 26 -61 33 -37 14 -41 13 -66 -8 -19 -16 -40 -22 -83 -24 -32 -1 -79 -6 -104 -12 -43 -10 -232 -5 -291 7 -23 4 -25 9 -27 71 -3 72 13 105 45 96 15 -3 17 4 18 52 0 33 5 60 12 64 10 6 9 14 -3 37 -19 36 -19 45 -1 38 11 -4 13 0 9 15 -8 33 44 29 59 -4 6 -14 15 -25 20 -25 5 0 7 3 5 8 -3 4 -1 16 3 27 9 24 -8 65 -27 65 -11 0 -11 4 0 28 15 30 13 123 -4 153 -6 13 -6 25 0 38 6 10 9 51 6 90 -4 59 -2 71 11 71 12 0 14 8 8 38 -4 20 -11 45 -16 55 -7 14 -5 22 7 31 14 10 15 17 7 32 -14 26 -9 169 6 187 25 29 -15 64 -44 38 -5 -4 -22 -11 -39 -14 -16 -4 -24 -4 -17 -1 23 10 12 21 -18 16 -25 -4 -30 -1 -30 17 0 11 4 21 9 21 15 0 20 26 11 66 -5 22 -5 59 1 90 10 52 14 110 25 377 6 129 8 138 25 134 22 -6 26 8 4 16 -12 5 -14 26 -10 114 2 59 9 124 14 142 8 26 8 37 -2 43 -24 15 -22 386 2 460 5 15 7 35 4 46 -2 11 0 23 6 26 14 9 15 36 1 36 -13 0 -38 -52 -33 -68 4 -10 -3 -13 -23 -10 -28 3 -28 2 -40 -67 -6 -38 -14 -77 -18 -86 -4 -10 -1 -23 10 -33 14 -15 17 -43 18 -209 1 -233 -13 -637 -22 -651 -4 -6 -7 -43 -8 -82 -1 -39 -5 -104 -9 -145 -4 -41 -9 -112 -11 -159 -2 -47 -7 -102 -12 -122 -7 -24 -6 -40 1 -47 8 -8 8 -11 0 -11 -19 0 -37 -184 -19 -200 17 -13 8 -70 -11 -70 -8 0 -11 -5 -7 -11 3 -6 0 -15 -7 -20 -14 -8 -15 -54 -10 -244 4 -127 1 -164 -19 -210 -12 -27 -18 -55 -15 -63 10 -26 -7 -34 -29 -14 -26 23 -152 57 -160 43 -3 -4 -19 -8 -38 -9 -49 -4 -129 -30 -150 -49 -10 -9 -21 -14 -24 -10 -6 6 -68 -32 -95 -58 -9 -8 -28 -15 -43 -15 -27 0 -28 1 -23 43 6 41 11 144 24 517 9 261 3 400 -17 400 -14 0 -18 -38 -13 -122 6 -113 4 -142 -8 -147 -7 -2 -6 -7 2 -12 8 -5 9 -9 3 -9 -6 0 -9 -10 -7 -23 5 -25 -14 -83 -24 -73 -13 13 -14 59 -1 67 10 7 10 9 0 9 -10 0 -10 5 -2 20 6 11 8 31 4 45 -5 21 -3 24 12 18 12 -4 15 -3 10 5 -4 7 -14 12 -22 12 -8 0 -14 6 -15 13 0 6 -7 -3 -15 -21 -17 -38 -34 -34 -34 9 0 19 -4 28 -11 23 -6 -3 -9 -15 -6 -25 3 -11 2 -19 -1 -19 -13 0 -28 -47 -22 -65 4 -10 15 -22 26 -27 16 -7 16 -7 -5 -5 -19 2 -26 -5 -37 -35 -8 -23 -9 -40 -3 -43 5 -4 1 -18 -10 -34 -19 -26 -19 -31 -5 -86 10 -35 12 -60 6 -64 -5 -3 -11 -27 -13 -53 -2 -25 0 -44 4 -41 7 4 47 -33 47 -45 0 -3 -12 -16 -26 -29 -19 -18 -24 -30 -20 -48 5 -21 11 -24 39 -20 17 3 26 3 19 -1 -13 -6 -7 -24 9 -24 12 0 12 61 0 94 -11 28 6 50 27 37 18 -11 13 -161 -5 -154 -7 3 -10 -3 -6 -16 3 -12 9 -21 14 -21 5 0 9 -9 9 -20 0 -11 7 -23 15 -26 31 -12 3 -21 -57 -18 -148 8 -213 28 -343 104 -26 15 -105 26 -235 32 -45 2 -130 -7 -130 -14 0 -4 -15 -8 -33 -8 -18 0 -59 -7 -90 -15 -32 -8 -60 -15 -62 -15 -10 0 -4 49 6 55 6 4 8 14 5 22 -4 9 0 43 8 77 26 115 36 167 36 196 0 16 6 35 13 42 13 13 29 66 43 138 4 19 10 37 14 40 7 4 29 174 34 260 1 14 4 30 8 35 6 10 11 49 9 72 -1 7 -8 10 -18 6 -12 -5 -14 -3 -8 7 5 8 3 11 -6 8 -8 -2 -21 -25 -29 -51 -14 -44 -38 -69 -27 -28 3 14 0 17 -14 14 -16 -4 -18 0 -14 28 2 19 7 46 11 62 4 16 2 27 -4 27 -11 0 -26 -55 -24 -84 3 -24 -16 -46 -38 -46 -10 0 -20 -10 -24 -22 -10 -38 -7 -88 6 -88 6 0 4 -7 -5 -18 -10 -10 -17 -32 -17 -48 0 -22 -3 -25 -10 -14 -5 8 -13 11 -17 6 -4 -4 2 -16 15 -26 21 -18 22 -21 9 -47 -14 -28 -38 -135 -41 -183 0 -14 -6 -28 -13 -33 -8 -5 -6 -17 7 -45 10 -20 17 -38 16 -40 -2 -1 -16 2 -31 8 -15 6 -29 9 -30 8 -10 -10 -28 -238 -19 -238 4 0 13 8 21 18 12 15 13 11 12 -33 -2 -55 9 -105 22 -105 5 0 6 -7 3 -15 -4 -8 -13 -15 -21 -15 -8 0 -11 -5 -7 -11 11 -19 -38 11 -78 47 -21 19 -49 36 -64 40 -23 6 -152 69 -163 80 -2 2 2 10 8 18 21 26 4 36 -34 20 -39 -16 -105 -19 -105 -4 0 15 -37 12 -54 -5 -23 -23 -46 -8 -46 31 0 19 4 42 9 52 31 56 51 112 51 138 0 17 4 34 9 39 5 6 12 48 16 94 3 46 12 99 20 118 8 19 15 62 16 96 2 34 6 67 10 72 12 16 21 215 10 215 -9 0 -25 -29 -23 -42 1 -6 -21 -75 -35 -108 -3 -8 -7 -37 -8 -63 -1 -27 -7 -52 -14 -57 -9 -5 -10 -10 -2 -14 16 -10 14 -46 -3 -46 -10 0 -12 -7 -8 -22 4 -17 2 -20 -11 -15 -17 7 -41 -16 -35 -34 3 -8 9 -6 20 5 9 9 25 16 34 16 13 0 15 -3 7 -11 -8 -8 -8 -18 -1 -35 8 -18 8 -31 0 -49 -7 -14 -12 -39 -12 -55 0 -17 -3 -30 -8 -30 -4 0 -12 -26 -18 -57 -7 -32 -19 -74 -27 -93 l-15 -35 -1 47 c-1 26 -5 50 -11 53 -6 3 -11 3 -11 -2 -1 -4 -3 -19 -6 -33 -2 -14 -4 -34 -4 -44 0 -22 -25 -82 -44 -106 -7 -8 -15 -26 -18 -38 -5 -23 -5 -23 14 -6 18 16 19 16 19 -2 0 -27 -16 -48 -30 -39 -6 4 -17 -1 -24 -11 -11 -14 -21 -16 -57 -10 -24 5 -70 8 -102 8 -49 1 -62 -3 -85 -26 -16 -14 -37 -26 -48 -26 -19 0 -20 6 -18 78 3 102 14 172 31 199 8 12 17 47 20 78 3 30 10 58 14 61 5 3 9 12 9 20 0 10 -7 13 -23 9 -22 -6 -23 -4 -19 24 4 30 -10 42 -23 21 -12 -19 -22 -10 -17 15 3 19 0 25 -13 25 -14 0 -16 -6 -12 -27 3 -17 0 -34 -9 -44 -8 -9 -18 -34 -21 -55 -4 -21 -13 -45 -21 -53 -7 -8 -12 -25 -9 -38 3 -15 -2 -27 -12 -34 -12 -7 -13 -12 -3 -15 13 -6 17 -25 5 -23 -20 3 -24 -2 -13 -16 10 -12 10 -15 -4 -15 -9 0 -16 -7 -16 -15 0 -8 -5 -23 -11 -33 -8 -12 -8 -31 -1 -62 9 -43 10 -44 20 -20 6 15 11 19 11 9 1 -8 -7 -24 -17 -35 -15 -15 -17 -25 -10 -53 6 -21 6 -36 0 -40 -5 -3 -17 -29 -25 -58 -21 -72 -37 -99 -47 -83 -5 7 -5 20 -2 29 5 13 2 13 -12 -2 -26 -25 -52 -18 -48 13 2 14 9 31 14 38 6 6 7 12 3 12 -4 0 -2 7 5 15 12 15 11 16 -12 19 -18 2 -22 26 -4 26 9 0 16 7 16 15 0 8 -4 15 -10 15 -5 0 -10 12 -10 26 0 19 4 25 15 20 8 -3 15 -1 15 4 0 6 -7 10 -15 10 -8 0 -15 5 -15 10 0 6 6 10 13 9 28 -3 45 2 51 17 4 12 1 14 -14 9 -16 -5 -20 -2 -19 17 0 13 3 17 6 11 5 -15 33 -18 33 -4 0 5 -7 11 -15 15 -8 3 -12 12 -9 21 3 8 1 15 -5 15 -6 0 -11 5 -11 10 0 6 7 10 16 10 8 0 13 4 10 9 -4 5 -3 17 0 26 5 13 9 14 15 4 10 -17 62 40 54 59 -3 8 -5 18 -5 23 0 5 -7 9 -15 9 -13 0 -20 -19 -16 -43 1 -4 -8 -3 -19 3 -15 8 -20 19 -17 43 2 18 7 32 13 32 5 0 8 -2 7 -5 -1 -3 10 -6 23 -6 20 -2 24 3 23 25 0 14 -3 20 -6 14 -7 -18 -32 -16 -39 2 -9 22 -34 18 -34 -5 0 -11 -4 -20 -10 -20 -5 0 -10 -9 -10 -20 0 -12 -9 -31 -20 -43 -12 -12 -18 -28 -14 -37 3 -8 8 -21 11 -27 3 -7 -11 -22 -31 -34 -39 -23 -42 -30 -24 -58 9 -15 7 -24 -14 -52 -17 -23 -25 -47 -25 -76 -1 -26 3 -40 9 -37 6 4 5 -3 -1 -14 -14 -27 -14 -43 0 -40 6 2 14 -3 16 -10 4 -11 1 -12 -16 -3 -18 10 -23 8 -33 -16 -7 -15 -19 -36 -27 -46 -13 -16 -12 -20 8 -40 16 -15 25 -18 28 -9 6 17 33 15 33 -2 0 -31 -20 -68 -35 -63 -9 4 -12 1 -8 -9 3 -8 -1 -14 -10 -14 -19 0 -30 -27 -14 -34 9 -5 9 -7 0 -12 -7 -3 -13 -12 -13 -20 0 -8 -4 -22 -10 -32 -33 -60 -60 -134 -60 -165 0 -20 -7 -67 -14 -105 -8 -37 -16 -88 -17 -113 -1 -24 -7 -50 -12 -57 -15 -19 -10 -182 7 -201 24 -29 26 -52 9 -88 -17 -37 -69 -76 -90 -68 -7 2 -15 0 -18 -6 -4 -5 -11 -7 -16 -3 -6 3 -2 12 8 19 15 12 16 16 4 27 -10 9 -12 9 -7 0 4 -6 2 -12 -4 -12 -7 0 -9 8 -4 23 5 12 7 33 6 47 -2 14 -4 45 -5 70 -1 25 -5 50 -9 56 -4 6 -4 24 1 40 4 16 5 38 0 49 -4 11 -8 34 -8 51 -1 16 -5 34 -10 40 -5 5 -12 45 -16 89 -14 188 -16 275 -5 350 19 138 20 148 26 245 2 52 7 107 10 123 4 15 2 27 -3 27 -6 0 -1 27 10 61 15 48 17 66 8 85 -7 16 -7 32 -1 50 13 33 13 87 0 79 -12 -8 -13 -3 0 30 5 14 12 60 15 102 2 42 9 81 15 87 13 13 13 69 1 61 -15 -9 -25 62 -14 98 5 18 14 31 20 30 6 -1 18 6 27 16 15 16 15 18 -6 17 -23 -1 -23 1 -22 109 0 61 4 120 8 130 5 11 10 27 11 35 2 8 8 49 14 90 15 99 32 173 41 185 5 6 8 37 8 70 -1 34 2 70 6 82 4 13 2 23 -8 26 -20 8 -26 -1 -26 -39 0 -18 -7 -40 -16 -48 -8 -9 -12 -21 -9 -27 8 -13 -23 -38 -47 -39 -20 0 -23 17 -8 40 6 9 5 17 -3 22 -9 6 -8 11 3 18 10 6 11 13 5 18 -15 10 -16 99 -3 147 6 22 12 60 14 85 4 73 9 88 42 124 27 30 29 35 14 40 -9 3 -4 4 11 2 17 -2 26 1 24 8 -2 6 -11 10 -20 10 -9 -1 -18 5 -21 13 -4 8 -1 11 5 7 6 -3 18 4 26 16 l16 23 19 -22 c11 -15 16 -31 12 -47 -5 -18 -2 -24 10 -24 9 0 16 5 16 11 0 5 4 8 8 5 5 -3 9 15 10 40 0 25 5 51 11 58 6 7 8 16 5 19 -11 10 6 98 17 91 6 -3 8 -13 4 -23 -5 -12 -3 -13 5 -5 8 8 9 18 3 30 -17 33 -16 94 1 94 10 0 13 6 9 17 -5 12 -2 15 10 10 13 -5 16 1 14 41 -1 26 -5 50 -10 53 -4 3 4 19 18 35 27 31 32 48 13 41 -7 -2 -12 -10 -11 -16 2 -6 -4 -11 -12 -11 -18 0 -20 41 -3 58 7 7 20 12 31 12 12 0 17 6 16 18 -2 9 2 26 8 38 8 13 9 33 3 58 -6 29 -5 39 6 43 18 7 18 33 0 33 -17 0 -26 22 -26 63 0 29 12 61 21 57 2 -1 12 2 22 5 11 5 17 18 17 41 0 19 4 34 8 34 11 0 32 68 32 100 0 13 7 47 17 76 15 50 15 53 -2 71 -18 17 -17 18 28 21 46 3 59 16 38 37 -14 15 -15 47 -3 78 7 16 12 33 12 38 0 5 7 9 15 9 8 0 15 -6 15 -12 0 -9 3 -8 10 2 11 17 -6 31 -28 22 -12 -4 -14 -1 -8 14 4 10 10 33 13 49 11 55 46 78 42 28 -1 -16 2 -36 6 -46 7 -17 4 -42 -11 -94 -4 -14 -2 -23 4 -23 14 0 33 60 30 91 -2 17 4 27 20 34 24 11 31 31 7 21 -8 -3 -15 -1 -15 4 0 6 7 10 16 10 14 0 16 9 12 50 -3 31 -1 51 6 54 8 3 7 7 -1 13 -9 7 -10 18 -3 42 11 38 6 51 -18 51 -14 0 -15 2 -2 9 8 6 18 7 22 5 4 -3 8 2 8 11 0 11 -5 15 -15 11 -21 -8 -19 20 3 42 19 19 18 52 -1 52 -8 0 -8 3 -2 8 20 14 52 99 60 157 10 69 12 78 39 158 14 43 26 87 26 98 0 11 6 30 14 42 7 12 16 34 20 50 5 23 3 27 -15 27 -17 0 -20 5 -17 25 3 14 1 25 -3 25 -5 0 -9 -7 -9 -15 0 -8 -4 -15 -9 -15 -17 0 1 38 20 43 14 4 19 0 19 -14 0 -28 49 -27 52 1 0 11 1 26 2 33 1 6 9 20 19 30 18 18 25 83 7 72 -5 -3 -10 1 -10 10 0 9 5 13 10 10 6 -3 10 1 10 10 0 10 5 13 12 9 6 -4 8 -3 5 2 -8 14 13 108 26 116 6 4 8 10 4 14 -4 4 -15 -3 -26 -15 -23 -26 -37 -12 -20 21 25 48 29 58 29 76 0 9 10 26 21 36 18 15 19 20 8 27 -11 7 -9 9 6 10 11 0 15 3 9 5 -7 3 -9 18 -7 37 3 18 6 40 6 49 1 9 5 14 9 12 4 -3 8 2 8 10 0 9 -4 16 -10 16 -5 0 -10 7 -10 15 0 9 -6 18 -14 21 -24 9 -28 54 -9 108 10 28 21 53 26 54 4 2 5 8 1 13 -3 5 1 9 9 9 8 0 14 -8 13 -17 0 -11 5 -17 14 -14 8 2 20 4 25 5 23 4 32 17 45 65 7 28 17 51 20 51 10 0 31 50 25 60 -3 4 2 10 10 14 8 3 15 14 15 24 0 11 7 25 15 32 8 7 15 19 15 26 0 8 6 14 13 14 7 0 21 23 32 52 10 29 29 67 41 86 12 18 26 46 29 63 4 17 13 33 19 35 8 3 11 15 8 31 -5 25 -3 26 27 20 30 -6 31 -5 31 28 0 18 -5 37 -11 41 -8 5 -6 10 5 16 13 7 14 13 6 23 -8 9 -8 15 0 20 17 10 11 25 -10 25 -19 0 -19 1 -2 18 16 17 17 17 20 0 2 -10 12 -18 23 -18 10 0 19 -4 19 -10 0 -5 -7 -10 -16 -10 -8 0 -13 -4 -10 -9 8 -12 47 -1 66 17 12 13 11 14 -7 8 -14 -4 -23 -2 -27 9 -4 11 1 15 19 15 15 0 26 7 30 20 4 11 10 18 15 15 19 -12 39 9 45 46 4 22 13 43 21 46 24 9 107 132 100 148 -3 10 6 21 26 31 31 16 31 17 12 31 -18 14 -17 15 14 11 17 -3 32 -2 33 1 6 47 26 70 87 97 17 8 32 21 32 29 0 8 7 15 15 15 8 0 15 5 15 10 0 6 7 10 15 10 8 0 15 5 15 11 0 8 6 7 17 -2 13 -11 17 -11 20 -1 3 6 13 12 24 12 10 0 19 4 19 10 0 5 -13 7 -30 4 -18 -4 -30 -2 -30 4 0 5 20 13 45 16 25 4 58 18 74 32 18 15 42 24 62 24 36 1 74 22 61 35 -4 4 3 2 15 -4 20 -10 27 -8 52 18 29 30 71 49 71 33 0 -5 -10 -14 -22 -20 l-23 -11 23 0 c12 -1 22 4 22 9 0 6 12 15 27 21 20 7 24 12 14 18 -14 9 17 21 57 21 12 0 22 5 22 11 0 6 -9 8 -21 4 -15 -5 -19 -4 -15 4 4 6 14 11 21 11 8 0 12 6 9 14 -3 8 3 19 15 26 12 6 22 18 22 28 1 11 3 9 6 -5 2 -13 11 -23 19 -23z m1523 -930 c11 -42 16 -49 27 -39 16 13 16 13 19 -18 1 -13 -2 -23 -6 -23 -5 0 -8 -12 -8 -27 1 -16 3 -21 6 -11 2 9 10 15 18 12 19 -8 7 -34 -16 -34 -19 0 -19 -1 1 -22 11 -12 20 -35 20 -50 0 -16 9 -47 20 -70 11 -22 17 -45 14 -49 -11 -19 -24 -7 -34 34 -7 26 -23 52 -43 69 -23 19 -32 36 -34 60 -1 18 -7 53 -13 78 -15 63 -15 64 -21 75 -3 6 -4 16 -3 23 1 6 2 26 3 44 1 29 2 30 19 15 10 -9 24 -39 31 -67z m307 -1692 c3 -18 7 -39 10 -47 2 -7 -1 -20 -7 -27 -9 -11 -8 -14 5 -14 24 0 29 -22 13 -54 -11 -21 -12 -36 -5 -66 6 -22 15 -40 20 -40 5 0 7 9 3 19 -3 11 -1 22 5 26 7 4 10 -6 8 -29 -1 -27 -6 -35 -16 -31 -11 4 -13 0 -8 -17 3 -13 6 -29 6 -36 0 -7 4 -11 9 -8 5 3 15 -1 22 -10 11 -13 10 -21 -5 -48 -15 -28 -16 -40 -6 -82 6 -27 15 -56 19 -64 4 -8 7 -35 6 -60 -1 -25 3 -48 8 -51 6 -4 6 -23 2 -45 -7 -38 -8 -38 -17 -14 -5 14 -11 43 -13 65 -2 22 -11 59 -20 83 -8 24 -13 48 -10 53 4 5 -1 12 -10 15 -12 5 -13 9 -5 14 10 6 10 16 0 44 -6 21 -13 43 -14 51 -1 7 -8 20 -14 28 -9 10 -10 17 -2 22 14 9 13 21 -6 39 -8 9 -12 21 -8 27 10 17 12 90 2 124 -4 16 -4 31 0 33 11 3 2 65 -10 73 -6 4 -3 19 7 39 19 37 25 35 31 -12z m-4429 -3183 c-1 -36 -5 -65 -9 -65 -3 0 -4 -8 -2 -17 3 -10 -4 -35 -14 -55 -17 -32 -18 -40 -6 -55 17 -22 18 -37 3 -27 -8 5 -10 -1 -7 -19 3 -16 0 -28 -8 -31 -8 -3 -14 -10 -14 -16 0 -6 4 -9 9 -5 5 3 12 1 16 -5 3 -5 -1 -10 -9 -10 -22 0 -20 -20 2 -21 14 0 14 -2 -3 -9 -14 -6 -15 -9 -5 -10 12 0 12 -3 -2 -14 -10 -7 -18 -24 -18 -37 0 -37 -11 -69 -22 -63 -5 3 -6 14 -3 24 3 10 1 21 -5 25 -6 3 -8 10 -6 14 3 4 7 25 10 47 11 89 35 208 43 213 5 3 9 17 10 31 0 14 2 50 3 80 2 69 8 90 25 90 10 0 13 -17 12 -65z m1506 -768 c40 -19 87 -39 105 -47 17 -7 32 -16 32 -21 0 -5 12 -15 26 -21 20 -9 24 -17 19 -35 -3 -13 -1 -23 5 -23 5 0 10 -7 10 -16 0 -9 8 -23 18 -31 12 -10 14 -16 5 -19 -7 -3 -13 -10 -13 -16 0 -7 5 -6 14 1 10 8 12 24 9 51 -5 37 -4 40 18 40 19 0 21 2 9 10 -8 5 -10 10 -5 10 21 0 78 -58 72 -74 -8 -20 -21 -20 -41 -1 -16 17 -30 20 -21 5 3 -5 -3 -19 -13 -31 -12 -12 -18 -29 -15 -40 3 -10 0 -19 -6 -19 -6 0 -11 8 -11 18 -1 9 -8 -3 -16 -28 -8 -25 -20 -55 -26 -66 -5 -12 -11 -36 -13 -53 -1 -17 -6 -35 -10 -39 -5 -4 -5 -1 0 7 6 10 4 12 -4 7 -7 -5 -11 -20 -9 -36 1 -15 -2 -34 -9 -41 -6 -8 -14 -24 -17 -36 -6 -19 -4 -23 15 -23 18 0 19 -2 9 -15 -7 -8 -9 -15 -4 -15 4 0 3 -5 -3 -11 -9 -9 -9 -16 0 -30 9 -14 7 -22 -6 -37 -10 -11 -15 -26 -11 -35 3 -8 -2 -26 -10 -39 -9 -14 -14 -38 -12 -54 2 -16 7 -55 11 -86 7 -54 6 -58 -13 -58 -11 0 -22 -7 -26 -15 -3 -8 -15 -15 -26 -15 -12 0 -19 4 -16 9 6 9 -15 61 -26 61 -3 0 -4 -8 -1 -19 6 -23 -26 -33 -51 -16 -15 11 -16 27 -9 151 8 151 8 168 0 294 -8 124 -9 202 -3 317 3 64 2 105 -5 108 -9 6 -9 105 -1 105 2 0 36 -15 75 -33z m1470 -254 c9 -31 85 -82 105 -69 6 3 12 1 14 -4 2 -6 16 -12 31 -13 15 -1 32 -9 38 -17 7 -10 12 -11 15 -3 3 6 37 17 77 24 40 7 81 18 92 26 30 20 51 16 25 -5 -21 -17 -22 -25 -21 -142 1 -68 4 -126 6 -128 2 -3 -2 -10 -9 -17 -18 -19 -29 -121 -15 -146 6 -13 8 -41 3 -77 -10 -83 -9 -111 11 -186 7 -25 6 -28 -9 -23 -10 4 -22 7 -28 7 -7 0 -7 4 0 13 8 9 7 20 -3 40 -8 15 -10 27 -5 27 5 0 4 15 -1 33 -10 37 -7 376 4 394 4 7 0 16 -8 21 -16 9 -23 28 -24 70 -1 27 -15 28 -42 3 -13 -12 -17 -21 -10 -26 18 -10 13 -27 -6 -21 -27 8 -39 -5 -47 -47 -6 -34 -5 -39 14 -44 17 -5 20 -10 14 -40 -4 -19 -3 -38 2 -42 5 -3 7 -46 4 -94 -3 -48 -2 -91 3 -96 4 -4 3 -35 -1 -70 -6 -38 -5 -79 1 -106 14 -59 2 -71 -76 -78 -34 -4 -76 -9 -94 -13 l-32 -6 4 61 c2 33 0 63 -5 66 -4 3 -1 19 7 36 11 21 14 47 10 82 -4 39 -1 57 11 70 12 13 13 20 4 29 -6 6 -8 16 -3 22 10 13 -9 156 -21 156 -4 0 -8 -15 -8 -34 0 -39 -29 -61 -31 -23 0 12 -3 43 -5 70 -3 28 0 47 6 47 5 0 10 -4 10 -10 0 -5 7 -10 16 -10 23 0 11 24 -14 28 -24 4 -26 10 -13 31 6 9 11 10 15 2 15 -23 26 -9 20 26 -8 51 -20 79 -43 102 -21 21 -38 100 -27 127 9 23 29 12 39 -23z m-2008 -93 c16 -16 35 -30 43 -30 8 0 12 -6 8 -15 -3 -8 -1 -15 5 -15 6 0 7 -4 4 -10 -3 -5 -3 -10 2 -10 10 0 33 -48 33 -68 0 -10 -8 -12 -29 -7 -17 3 -32 2 -36 -4 -12 -20 -38 -13 -32 9 3 13 -1 24 -13 30 -10 5 -21 21 -24 35 -4 14 -14 25 -22 25 -12 0 -15 7 -11 26 3 17 0 28 -10 31 -11 4 -8 9 9 18 34 19 42 18 73 -15z m912 -362 c14 -13 35 -32 47 -43 32 -29 112 -51 216 -59 69 -5 189 16 204 36 7 10 16 15 19 12 3 -3 20 1 37 9 24 12 67 16 193 16 152 0 165 -1 181 -20 18 -22 61 -22 119 0 40 15 39 16 35 -39 -1 -28 1 -51 5 -53 7 -2 8 -46 3 -250 -1 -41 -4 -56 -13 -52 -7 2 -23 -9 -35 -25 -20 -27 -23 -28 -39 -14 -14 13 -103 29 -134 25 -5 -1 -61 -3 -122 -4 -62 -1 -113 -5 -113 -8 0 -4 -9 -9 -20 -12 -11 -3 -20 -10 -20 -16 0 -14 52 -3 62 13 4 6 8 8 9 4 1 -5 2 -11 3 -15 1 -5 5 -14 9 -20 6 -9 1 -13 -15 -15 -37 -2 -83 3 -86 10 -13 33 -21 35 -46 11 -22 -21 -34 -24 -110 -24 -72 0 -86 2 -89 17 -4 14 -15 16 -70 13 -36 -1 -89 -11 -118 -20 -48 -16 -54 -16 -80 -1 -30 18 -53 21 -44 6 3 -5 -2 -10 -12 -10 -12 0 -19 8 -20 22 -1 11 -7 24 -13 28 -15 9 -30 69 -19 75 17 11 9 43 -12 48 -17 5 -20 10 -14 29 4 13 11 56 15 96 13 110 21 152 30 152 5 0 7 16 6 35 -2 20 1 38 6 41 4 3 6 10 3 15 -12 18 17 9 42 -13z m1538 -855 c9 -33 37 -45 50 -23 13 22 25 8 25 -29 0 -21 6 -44 14 -51 8 -6 12 -18 9 -26 -3 -8 0 -14 6 -14 6 0 11 -9 11 -20 0 -11 -4 -20 -10 -20 -5 0 -10 6 -10 14 0 7 -9 16 -20 19 -13 3 -20 0 -20 -9 0 -13 -13 -19 -33 -15 -5 1 -17 -9 -27 -21 -16 -20 -28 -23 -98 -24 -44 0 -86 -5 -94 -11 -7 -6 -35 -14 -62 -18 -45 -6 -49 -5 -37 9 8 9 19 16 25 16 16 0 59 58 52 69 -8 12 41 23 65 16 13 -5 19 -2 19 10 0 8 7 18 16 22 13 5 15 16 10 59 -8 65 9 87 63 82 31 -3 37 -8 46 -35z m-2155 -317 c0 -4 6 -6 14 -3 8 3 17 -1 20 -9 3 -9 10 -13 15 -9 6 3 21 3 35 -1 23 -5 24 -9 14 -28 -11 -21 -11 -21 10 -2 12 10 19 23 16 27 -3 5 4 9 15 9 28 0 26 -8 -6 -36 -27 -23 -27 -24 -5 -24 30 0 28 -18 -3 -30 -30 -11 -33 -30 -4 -30 11 0 18 4 15 8 -8 13 30 9 43 -5 9 -10 9 -13 -2 -13 -8 0 -20 -7 -27 -15 -7 -9 -29 -15 -51 -15 -20 0 -44 7 -53 15 -8 8 -21 15 -28 15 -10 0 -9 -3 2 -11 11 -7 6 -8 -19 -4 -19 4 -63 8 -98 10 -35 1 -70 8 -76 14 -9 10 -9 12 3 9 10 -2 14 3 12 14 -2 12 2 16 13 12 8 -3 15 -1 15 5 0 6 -7 11 -16 11 -14 0 -15 2 -3 17 8 9 13 26 12 37 -1 15 0 16 3 4 7 -22 18 -23 34 -4 6 8 19 12 27 9 12 -5 15 -2 10 9 -3 9 -4 18 -1 21 8 8 64 2 64 -7z"
       id="path16" />
    <path
       d="M7835 11671 c-22 -24 -59 -48 -93 -62 -70 -28 -87 -44 -102 -100 -7 -24 -16 -52 -21 -61 -14 -28 -11 -85 7 -102 25 -26 33 -19 32 32 -2 94 23 162 59 162 17 0 17 -33 -1 -68 -7 -15 -16 -65 -20 -111 -4 -47 -12 -91 -17 -98 -7 -8 -11 -97 -11 -250 0 -131 -3 -225 -6 -209 -4 16 -13 31 -19 34 -26 8 -8 -147 18 -168 4 -3 16 -34 27 -70 24 -80 42 -94 74 -58 l23 27 39 -39 c50 -50 84 -53 123 -10 14 17 31 30 36 30 6 0 30 9 53 21 45 21 84 81 84 128 0 14 5 21 13 18 6 -2 11 -16 10 -31 -1 -14 2 -26 7 -26 5 0 6 -12 2 -27 -11 -49 -7 -162 6 -175 9 -9 12 -2 12 35 0 48 13 63 23 27 3 -11 10 -20 17 -20 6 0 9 8 6 18 -2 9 -8 33 -12 52 -3 19 -10 37 -15 40 -11 7 -15 83 -5 99 5 8 3 17 -5 22 -11 7 -10 11 5 22 16 12 20 27 20 83 -1 78 -12 250 -20 306 -3 20 1 55 10 80 19 57 29 128 18 128 -11 0 -48 92 -61 149 -5 24 -14 47 -19 50 -5 3 -19 24 -30 46 -16 31 -31 44 -69 59 -26 11 -50 22 -53 25 -14 16 -53 31 -79 31 -22 0 -40 -11 -66 -39z"
       id="path17" />
    <path
       d="M7103 11640 c-46 -21 -73 -61 -73 -109 0 -17 -4 -40 -9 -53 -5 -13 -12 -34 -15 -48 -3 -14 -19 -46 -35 -70 -17 -26 -30 -60 -30 -80 -3 -77 -18 -157 -32 -166 -5 -3 -9 -14 -9 -25 0 -10 -4 -19 -9 -19 -15 0 -20 -24 -27 -130 -4 -68 -3 -105 5 -114 6 -7 13 -35 16 -62 15 -133 19 -149 43 -159 14 -6 26 -22 29 -39 8 -40 77 -71 139 -61 24 3 46 10 49 16 12 18 33 10 28 -11 -13 -50 43 -1 73 65 10 22 19 44 19 50 1 18 28 65 37 65 4 0 17 -6 28 -12 16 -10 22 -10 33 2 12 13 11 28 -3 100 -17 82 -17 88 1 155 16 59 23 103 33 195 1 8 6 16 11 17 13 3 14 -28 2 -44 -9 -13 -2 -33 12 -33 32 0 51 234 27 328 -13 49 -34 92 -50 104 -10 7 -40 59 -51 88 -22 56 -162 85 -242 50z"
       id="path18" />
    <path
       d="M6161 10577 c-1 -14 -6 -17 -21 -12 -11 3 -20 2 -20 -3 0 -5 -9 -12 -20 -15 -22 -6 -26 -28 -10 -57 7 -13 6 -19 -5 -24 -9 -3 -15 -18 -15 -35 0 -16 -4 -33 -10 -36 -6 -4 -4 -17 6 -36 8 -17 12 -39 8 -52 -6 -21 -6 -21 9 -2 8 10 14 24 13 30 -2 5 -1 7 1 3 9 -15 25 -8 19 7 -3 9 4 36 16 62 12 25 21 65 21 89 0 30 5 44 14 44 15 0 15 6 3 35 -8 18 -9 18 -9 2z"
       id="path19" />
    <path
       d="M6018 10206 c-2 -63 -3 -70 -10 -82 -4 -5 -12 -50 -18 -100 -6 -49 -16 -102 -21 -119 -21 -63 -27 -141 -14 -203 13 -62 30 -29 30 59 1 76 28 260 43 284 3 5 5 37 5 72 -1 35 3 63 8 63 5 0 9 7 9 15 0 8 7 15 15 15 28 0 15 28 -15 32 -29 4 -30 3 -32 -36z"
       id="path20" />
    <path
       d="M6282 9762 c-7 -16 -13 -47 -15 -70 -1 -23 -5 -42 -8 -42 -4 0 -9 -12 -12 -27 -13 -66 -30 -121 -53 -168 -13 -28 -24 -56 -24 -63 0 -6 -4 -12 -10 -12 -5 0 -10 -6 -10 -13 0 -7 -5 -18 -12 -25 -7 -7 -13 -29 -15 -50 -3 -49 -23 -114 -40 -128 -10 -9 -11 -18 -4 -37 8 -19 6 -28 -5 -37 -16 -14 -20 -35 -4 -25 12 7 26 -22 16 -33 -4 -3 -11 0 -16 8 -7 12 -10 11 -16 -4 -4 -10 -2 -21 3 -25 14 -9 8 -92 -8 -102 -7 -4 -15 -22 -17 -38 -2 -25 1 -31 16 -31 29 0 59 41 66 89 3 24 10 49 15 55 5 6 13 36 17 66 4 30 12 66 20 80 7 14 15 44 19 65 4 22 14 47 22 56 7 9 15 45 18 80 4 65 18 118 42 155 8 12 11 33 7 51 -3 18 -1 33 5 37 6 4 11 22 11 40 0 18 3 35 6 39 9 9 16 137 7 137 -5 0 -14 -13 -21 -28z"
       id="path21" />
    <path
       d="M6836 7683 c-2 -10 -8 -38 -11 -63 -4 -25 -12 -51 -17 -57 -6 -7 -8 -23 -4 -36 3 -14 -1 -32 -9 -43 -9 -12 -14 -44 -15 -89 0 -39 -4 -75 -9 -80 -14 -14 -23 -167 -11 -185 13 -20 31 -1 36 37 2 15 10 51 18 78 10 30 12 51 6 53 -14 5 -12 65 5 142 7 35 11 68 8 73 -3 5 -1 12 5 16 13 8 23 171 11 171 -4 0 -10 -8 -13 -17z"
       id="path22" />
    <path
       d="M7513 7345 c-14 -27 -24 -135 -12 -135 5 0 9 -5 9 -10 0 -7 -7 -7 -21 0 -18 10 -20 9 -17 -7 3 -12 11 -17 26 -16 12 2 22 -1 22 -6 0 -12 -29 -23 -41 -15 -5 3 -9 0 -9 -5 0 -6 5 -11 10 -11 14 0 13 -77 -1 -86 -8 -5 -6 -10 6 -16 13 -8 15 -18 10 -44 -5 -29 -2 -38 17 -54 19 -15 21 -22 12 -37 -7 -10 -18 -18 -26 -17 -19 2 -16 -32 5 -54 16 -16 17 -15 11 16 -6 28 -4 32 14 32 13 0 19 6 18 18 0 9 5 16 12 15 16 -4 15 0 -8 40 -27 46 -26 167 2 167 14 0 16 6 11 33 -3 17 -9 39 -14 47 -4 9 -2 24 3 35 15 25 18 75 6 75 -6 0 -7 7 -4 16 4 11 2 15 -8 11 -9 -4 -16 1 -18 11 -3 15 -5 15 -15 -3z"
       id="path23" />
    <path
       d="M6221 7318 c-1 -10 -8 -18 -16 -18 -8 0 -15 -9 -15 -20 0 -11 -4 -20 -10 -20 -5 0 -10 -7 -10 -15 0 -24 -24 -95 -32 -95 -5 0 -8 -18 -8 -40 0 -23 -6 -54 -14 -69 -13 -24 -13 -31 0 -56 8 -15 14 -34 14 -42 0 -12 3 -13 14 -4 13 11 32 116 28 154 -1 10 5 28 13 40 8 12 15 36 15 54 0 18 7 53 16 78 8 26 13 52 10 58 -2 7 -5 4 -5 -5z"
       id="path24" />
    <path
       d="M6750 7090 c0 -7 -10 -21 -22 -32 -12 -10 -23 -26 -24 -36 -2 -9 -8 -18 -13 -20 -6 -2 -11 -15 -11 -28 0 -13 -4 -24 -10 -24 -5 0 -10 -18 -10 -40 0 -38 1 -39 25 -30 21 8 25 7 25 -9 0 -14 -6 -17 -32 -14 -27 4 -30 2 -18 -7 11 -9 12 -13 3 -17 -22 -8 -15 -32 7 -26 17 4 20 1 18 -21 -2 -17 -8 -26 -20 -26 -12 0 -18 -8 -18 -22 0 -15 3 -19 8 -11 4 7 13 9 21 4 10 -7 9 -9 -3 -14 -9 -4 -16 -11 -16 -17 0 -7 6 -8 19 0 11 5 28 10 39 10 25 0 43 41 47 114 3 33 7 74 10 90 5 28 4 29 -8 14 -12 -16 -14 -14 -14 12 0 18 6 30 13 30 7 0 14 15 16 33 2 19 8 31 16 30 6 -2 12 2 12 8 0 6 -8 8 -19 4 -17 -5 -20 -2 -18 21 1 15 -4 29 -10 31 -7 3 -13 -1 -13 -7z"
       id="path25" />
    <path
       d="M8794 7062 c-16 -24 -9 -241 9 -306 12 -43 19 -51 47 -61 25 -8 30 -13 18 -18 -11 -4 -15 -13 -11 -26 8 -32 -5 -25 -22 12 -12 26 -14 27 -11 7 3 -14 8 -59 12 -102 5 -64 10 -78 28 -86 19 -10 19 -11 2 -11 -15 -1 -16 -4 -6 -16 6 -8 9 -19 5 -26 -7 -10 10 -28 28 -29 4 0 7 15 7 34 0 29 3 34 25 34 14 0 25 -4 25 -8 0 -3 7 -7 16 -7 13 0 14 7 8 36 -7 37 -12 67 -13 87 -1 7 -10 14 -22 17 -11 3 -19 11 -18 19 1 7 1 32 0 56 -1 40 -3 42 -30 42 -35 0 -46 13 -26 30 9 7 15 8 15 2 0 -5 8 -8 19 -5 22 6 26 49 5 57 -8 3 -14 19 -14 35 0 34 -15 48 -34 32 -11 -9 -15 -6 -19 11 -4 12 -3 25 1 28 10 7 9 81 0 96 -5 7 -1 14 7 18 18 7 20 37 3 54 -17 17 -41 15 -54 -6z"
       id="path26" />
    <path
       d="M8353 7002 c-19 -13 -30 -116 -21 -207 1 -11 -1 -30 -6 -42 -6 -19 -4 -23 13 -23 14 0 19 5 15 15 -4 8 -1 15 5 15 6 0 20 15 31 33 11 17 20 29 20 25 0 -5 12 2 26 14 14 13 20 24 15 26 -6 2 -11 10 -11 18 0 8 -7 14 -15 14 -10 0 -15 10 -15 31 0 17 -4 28 -10 24 -6 -3 -7 1 -4 10 8 19 -28 56 -43 47z"
       id="path27" />
    <path
       d="M5530 6721 c0 -11 -6 -26 -12 -33 -7 -7 -14 -24 -15 -38 -1 -14 -3 -49 -5 -77 -2 -29 -6 -53 -9 -53 -12 0 -28 -49 -19 -55 6 -4 3 -16 -6 -31 -13 -19 -19 -22 -31 -13 -17 15 -24 8 -27 -25 -2 -17 2 -26 10 -26 8 0 14 -4 14 -9 0 -14 42 -56 63 -64 17 -7 18 -1 14 82 -3 58 -1 93 6 100 6 6 8 11 4 11 -3 0 -2 12 4 28 6 15 13 36 15 47 2 11 8 43 13 70 15 75 13 105 -4 105 -8 0 -15 -9 -15 -19z"
       id="path28" />
    <path
       d="M5298 6563 c-10 -2 -21 -17 -24 -31 -3 -15 -10 -39 -16 -55 -8 -20 -7 -31 3 -43 11 -13 10 -17 -4 -26 -11 -6 -16 -16 -12 -28 3 -10 1 -21 -5 -25 -5 -3 -10 -14 -10 -25 0 -13 5 -17 20 -13 12 3 20 0 20 -6 0 -7 5 -9 12 -5 8 5 7 10 -3 18 -12 9 -9 16 15 41 25 27 28 27 22 8 -11 -34 2 -48 25 -27 10 9 19 13 19 8 0 -14 20 20 20 35 0 8 -7 11 -20 8 -11 -3 -20 -1 -20 4 0 5 4 9 9 9 15 0 22 30 11 48 -6 11 -9 12 -10 4 0 -7 -4 -11 -10 -7 -5 3 -6 13 -3 22 5 13 2 15 -15 11 -12 -4 -22 -3 -22 2 0 4 11 11 25 14 20 5 25 13 25 36 0 31 -9 34 -52 23z"
       id="path29" />
    <path
       d="M6880 6526 c0 -14 -4 -27 -9 -31 -9 -5 -28 -119 -20 -121 2 -1 -3 -10 -12 -20 -9 -11 -20 -33 -23 -50 -11 -51 -52 -144 -61 -136 -4 4 -4 -3 0 -16 4 -15 2 -29 -8 -40 -8 -9 -17 -27 -19 -40 -4 -31 -24 -23 -20 8 6 44 -14 8 -26 -48 -13 -60 -7 -83 14 -55 8 11 13 13 14 6 0 -26 20 -12 21 15 0 15 4 36 8 47 12 29 23 -92 15 -155 -6 -43 -4 -49 9 -45 8 4 18 23 21 43 17 95 18 112 7 112 -15 0 -14 52 2 72 6 9 19 18 27 21 9 3 6 6 -9 6 -27 1 -20 16 7 16 14 0 17 11 16 72 0 57 3 73 16 76 21 5 49 175 30 187 -10 6 -8 15 9 38 25 35 27 62 6 62 -9 0 -15 -9 -15 -24z"
       id="path30" />
    <path
       d="M9073 4817 c-9 -15 -83 -39 -83 -27 0 4 -34 8 -75 8 -42 1 -81 4 -86 8 -6 4 -15 0 -20 -7 -5 -8 -9 -9 -9 -3 0 7 -15 8 -47 3 -27 -4 -53 -3 -58 1 -13 10 -91 3 -117 -11 -10 -6 -23 -7 -29 -4 -16 11 -82 -5 -109 -25 l-25 -19 70 5 c39 3 93 6 122 7 28 1 54 5 58 9 4 4 15 3 24 -2 9 -5 42 -12 75 -15 57 -7 58 -7 35 -23 -17 -12 -51 -16 -139 -18 -63 -1 -123 -5 -132 -9 -10 -4 -41 -4 -70 -1 -89 10 -176 8 -183 -4 -2 -4 -33 -5 -68 -3 -49 4 -65 2 -69 -9 -12 -31 64 -83 107 -72 14 3 33 3 42 -1 17 -6 17 -7 -1 -21 -12 -9 -15 -14 -7 -14 8 0 19 -7 26 -17 14 -19 35 -9 35 17 0 14 -5 18 -16 13 -12 -4 -15 -2 -12 8 7 21 57 12 80 -14 l19 -22 -4 27 c-6 39 26 49 182 54 75 3 188 9 251 14 63 5 145 7 182 4 58 -4 67 -3 70 13 3 16 5 16 23 -4 23 -27 35 -29 35 -7 0 11 6 14 20 9 32 -10 124 -10 140 0 8 6 26 10 39 10 13 0 26 5 28 11 2 6 -12 10 -33 10 -23 -1 -39 4 -42 13 -3 8 1 12 9 9 8 -3 34 1 58 8 25 7 48 11 53 8 5 -3 15 -1 23 6 7 6 15 7 18 3 3 -4 28 -7 56 -7 30 1 51 -3 51 -9 0 -6 6 -3 13 7 7 10 20 17 28 15 7 -1 27 1 42 6 18 5 33 3 40 -4 15 -15 27 -14 27 4 0 18 16 20 26 4 9 -16 104 -5 115 12 6 9 12 10 17 4 11 -16 144 -13 150 3 3 10 8 8 18 -5 9 -13 13 -14 14 -4 0 8 8 20 17 26 16 12 15 13 -7 13 -14 0 -63 0 -110 0 -143 1 -473 -6 -502 -9 -15 -2 -33 -10 -39 -16 -10 -10 -17 -9 -31 4 -15 13 -23 15 -36 6 -13 -7 -23 -6 -39 5 -13 8 -23 10 -23 5 0 -5 -34 -9 -75 -9 -41 1 -75 5 -75 10 0 4 -6 6 -14 3 -8 -3 -17 1 -20 9 -7 17 -22 18 -33 1z"
       id="path35" />
    <path
       d="M10053 4728 c1 -8 -15 -12 -50 -12 -29 0 -53 -3 -53 -7 0 -4 -18 -6 -40 -4 -24 2 -40 -1 -40 -7 0 -6 -9 -8 -20 -5 -15 4 -22 -1 -26 -19 -4 -14 -4 -28 0 -31 3 -3 38 0 78 6 40 7 116 14 168 15 94 3 130 11 130 26 0 11 -30 21 -41 15 -5 -3 -19 0 -31 7 -13 7 -28 11 -35 10 -6 -1 -14 2 -18 8 -9 14 -26 13 -22 -2z"
       id="path36" />
  </g>
</svg>
