<?xml version="1.0" standalone="no"?>
<!DOCTYPE svg PUBLIC "-//W3C//DTD SVG 20010904//EN"
 "http://www.w3.org/TR/2001/REC-SVG-20010904/DTD/svg10.dtd">
<svg version="1.0" xmlns="http://www.w3.org/2000/svg"
 width="2080.000000pt" height="431.000000pt" viewBox="0 0 2080.000000 431.000000"
 preserveAspectRatio="xMidYMid meet">

<g transform="translate(0.000000,431.000000) scale(0.100000,-0.100000)"
fill="#000000" stroke="none">
<path d="M560 4301 c0 -5 -25 -12 -56 -16 -31 -4 -54 -9 -51 -11 7 -7 125 -11
134 -5 5 3 1 14 -9 24 -10 9 -18 13 -18 8z"/>
<path d="M1830 4300 c0 -5 5 -10 10 -10 6 0 10 5 10 10 0 6 -4 10 -10 10 -5 0
-10 -4 -10 -10z"/>
<path d="M19930 4266 c0 -55 15 -96 34 -96 8 0 19 -6 23 -13 4 -8 24 -24 43
-38 19 -13 47 -37 62 -54 16 -16 33 -31 38 -31 6 -1 14 -2 18 -3 4 0 27 -18
50 -38 24 -21 56 -49 72 -63 17 -13 30 -29 30 -36 0 -6 10 -14 23 -18 12 -3
37 -29 57 -60 19 -31 42 -55 50 -56 9 0 34 -18 55 -41 40 -40 82 -65 120 -71
30 -5 24 53 -9 93 -14 17 -26 37 -26 45 0 8 -9 14 -20 14 -11 0 -20 4 -20 9 0
4 -27 35 -60 69 -33 33 -60 68 -60 77 0 10 -5 15 -13 12 -8 -3 -48 28 -93 73
-111 110 -131 134 -166 204 l-31 62 -88 3 -89 2 0 -45z m185 -135 c10 -17 -12
-21 -25 -6 -10 12 -10 15 3 15 9 0 18 -4 22 -9z"/>
<path d="M12842 4275 c0 -16 2 -22 5 -12 2 9 2 23 0 30 -3 6 -5 -1 -5 -18z"/>
<path d="M333 4273 c9 -2 23 -2 30 0 6 3 -1 5 -18 5 -16 0 -22 -2 -12 -5z"/>
<path d="M10591 4264 c0 -11 3 -14 6 -6 3 7 2 16 -1 19 -3 4 -6 -2 -5 -13z"/>
<path d="M14921 4264 c0 -11 3 -14 6 -6 3 7 2 16 -1 19 -3 4 -6 -2 -5 -13z"/>
<path d="M15441 4264 c0 -11 3 -14 6 -6 3 7 2 16 -1 19 -3 4 -6 -2 -5 -13z"/>
<path d="M17430 4257 c0 -14 5 -29 10 -32 7 -4 8 3 4 22 -9 38 -14 42 -14 10z"/>
<path d="M16041 4239 c-2 -73 -12 -99 -37 -99 -13 0 -24 6 -24 13 -1 7 -6 5
-14 -5 -9 -12 -30 -19 -62 -20 l-49 -3 -6 45 -6 45 -1 -44 c-2 -35 -8 -49 -33
-70 -19 -17 -32 -39 -34 -57 -1 -16 -8 -42 -14 -57 -20 -51 -14 -93 20 -132
19 -21 40 -35 55 -35 40 0 69 -20 87 -61 9 -21 20 -39 24 -39 17 0 123 -109
123 -126 1 -11 7 -30 14 -43 8 -15 11 -35 6 -56 -4 -17 -5 -45 -3 -62 6 -38
-22 -97 -43 -89 -10 4 -14 -2 -14 -20 0 -14 -4 -22 -10 -19 -5 3 -10 -1 -10
-9 0 -9 -4 -16 -10 -16 -34 0 -74 -82 -46 -93 9 -4 21 -18 26 -33 12 -30 4
-68 -11 -58 -6 3 -13 -3 -16 -15 -8 -31 -20 -25 -15 7 3 20 -4 37 -22 59 -14
17 -27 37 -27 44 -1 8 -5 -2 -9 -21 -5 -19 -16 -60 -25 -90 -28 -91 -29 -109
-10 -117 11 -4 22 0 30 10 10 14 12 14 23 -4 7 -10 12 -33 13 -51 0 -18 7 -49
14 -68 l14 -35 -5 50 c-5 49 -4 49 12 27 15 -21 18 -21 29 -5 11 15 15 13 33
-23 l21 -39 1 33 c0 40 17 41 59 6 17 -14 35 -23 41 -19 12 8 29 -35 32 -78 1
-19 4 -10 7 23 5 48 9 55 29 58 21 3 22 1 13 -17 -6 -11 -11 -36 -11 -56 0
-29 5 -37 25 -45 14 -5 25 -17 25 -25 0 -9 -5 -13 -11 -9 -6 4 -26 10 -44 14
-26 6 -34 3 -44 -12 -6 -10 -16 -16 -20 -13 -13 7 -20 -48 -20 -144 0 -83 25
-171 49 -171 5 0 25 -13 43 -30 19 -16 40 -30 46 -30 6 0 20 -9 31 -20 22 -22
46 -17 56 12 6 21 -23 98 -38 98 -4 0 -8 11 -8 24 0 14 -4 28 -10 31 -5 3 -7
32 -4 67 5 60 14 93 14 50 0 -11 4 -23 9 -26 5 -4 7 2 5 11 -2 10 0 25 6 33 9
13 13 11 29 -9 18 -24 19 -24 25 -4 4 11 4 27 1 35 -10 25 23 29 45 6 14 -15
20 -36 21 -67 0 -25 5 -55 10 -66 6 -14 8 -4 6 38 -2 31 -1 57 3 57 13 0 31
-128 29 -212 -2 -82 -3 -88 -23 -88 -35 0 -43 13 -51 78 -11 99 -24 72 -18
-40 6 -125 20 -173 50 -174 27 -1 53 -21 53 -41 0 -8 14 -27 31 -43 27 -24 36
-27 61 -19 17 4 36 13 44 20 8 6 23 9 33 6 15 -4 20 2 26 30 4 21 2 40 -4 46
-6 6 -12 20 -12 31 -1 17 -2 18 -6 4 -7 -27 -27 -21 -59 17 -30 36 -77 48 -87
23 -2 -7 -5 -2 -5 12 0 14 -5 48 -11 75 -5 28 -10 87 -10 133 -1 64 2 82 13
82 30 0 96 -104 96 -151 0 -11 5 -19 10 -19 6 0 10 4 10 8 0 5 27 4 60 -1 45
-7 64 -15 73 -31 7 -12 19 -21 27 -21 17 0 27 -89 12 -108 -5 -7 -12 -25 -16
-40 -4 -17 -12 -27 -19 -24 -7 2 -18 -2 -25 -9 -10 -11 -10 -14 0 -14 9 0 9
-3 -2 -10 -12 -8 -12 -14 3 -45 17 -36 17 -37 -5 -55 -13 -11 -28 -19 -35 -20
-24 0 -28 -120 -4 -120 16 0 10 -125 -7 -159 -22 -44 -39 -50 -45 -14 -2 18
-5 11 -6 -19 -1 -47 -25 -88 -51 -88 -5 0 -10 -10 -10 -22 0 -20 -1 -21 -13
-4 -12 16 -14 16 -38 -3 -15 -11 -29 -17 -33 -14 -3 3 -6 2 -6 -3 0 -6 -20
-34 -45 -63 -25 -29 -45 -59 -45 -68 0 -8 -14 -28 -31 -44 -43 -40 -32 -45 26
-14 26 14 61 25 77 25 17 0 43 9 59 21 38 27 59 19 60 -23 1 -18 7 2 14 46 10
60 19 85 37 101 35 32 62 45 84 39 11 -3 29 3 43 15 26 22 40 20 42 -7 1 -10
4 -7 8 8 l7 24 26 -34 c22 -31 26 -49 32 -140 4 -58 11 -122 17 -143 8 -30 6
-49 -6 -88 -9 -27 -21 -49 -26 -49 -5 0 -8 3 -7 8 2 4 -1 8 -7 10 -10 2 -11
-1 -14 -45 -1 -20 -13 -36 -41 -55 -35 -25 -40 -33 -40 -67 0 -34 -6 -44 -39
-71 -34 -28 -56 -64 -75 -123 -3 -10 -10 -15 -16 -12 -6 4 -10 -9 -10 -32 l0
-38 -42 1 c-36 1 -44 -2 -49 -20 -3 -12 -12 -20 -21 -18 -14 2 -15 -7 -11 -60
3 -35 11 -67 18 -73 6 -5 16 -28 20 -50 8 -36 9 -37 13 -13 3 28 16 36 27 18
3 -5 15 -10 25 -10 10 0 21 -6 23 -12 4 -10 8 -10 15 1 5 7 15 10 21 7 6 -4
15 2 20 16 8 21 10 18 24 -27 13 -40 16 -44 16 -22 1 18 6 27 14 24 6 -2 11
-12 9 -21 -3 -15 0 -15 17 -4 26 16 49 -4 61 -53 l8 -34 2 35 c2 54 11 67 45
66 19 -1 38 6 53 21 13 13 27 23 31 23 5 0 14 14 21 30 12 29 14 30 31 14 17
-16 18 -13 16 65 -1 44 -5 81 -10 81 -5 0 -7 -7 -4 -15 4 -8 2 -17 -3 -20 -6
-4 -10 2 -11 12 -1 19 -3 32 -14 82 -4 20 -3 31 4 31 7 0 17 12 23 28 l12 27
5 -25 c3 -19 7 -10 16 35 10 59 11 59 58 75 43 14 47 18 47 48 0 18 6 45 14
60 8 15 17 49 21 75 7 42 10 48 28 43 11 -2 30 2 43 11 23 15 24 14 31 -18 5
-28 7 -30 14 -14 4 11 8 32 8 47 1 15 10 43 22 62 19 32 20 41 10 129 -14 124
-31 197 -47 197 -7 0 -19 3 -28 6 -14 5 -16 -6 -16 -80 0 -72 -4 -94 -25 -133
-13 -27 -30 -62 -37 -80 -10 -25 -17 -31 -33 -27 -26 6 -47 -17 -65 -75 -8
-23 -26 -56 -41 -72 -15 -16 -30 -42 -34 -58 -6 -27 -50 -79 -59 -70 -12 12
-8 98 6 124 9 17 21 44 28 60 12 28 13 29 21 10 6 -13 8 17 5 80 -7 128 -16
196 -27 189 -5 -3 -9 0 -9 5 0 6 5 11 11 11 18 0 2 46 -26 76 -20 21 -24 36
-23 78 2 75 -13 216 -22 216 -5 0 -10 -5 -12 -12 -3 -8 -12 -4 -26 10 -12 12
-26 22 -31 22 -5 0 -12 26 -16 57 -5 45 -13 62 -36 82 -27 23 -39 60 -21 62 4
1 18 2 32 3 14 2 33 6 43 10 9 5 24 6 32 2 9 -3 15 0 15 9 0 8 1 15 3 15 27 0
128 25 145 36 20 13 22 13 22 -5 0 -10 5 -64 10 -120 9 -88 9 -104 -5 -117
-23 -23 -29 -63 -16 -99 6 -17 11 -46 11 -65 0 -36 41 -100 64 -100 8 0 21
-10 29 -23 l16 -22 0 22 c1 12 5 24 10 27 18 12 18 61 0 115 -23 64 -30 182
-13 188 17 6 28 -36 32 -125 1 -30 7 -44 20 -49 21 -8 58 -35 60 -45 1 -5 2
-14 2 -22 0 -10 7 -12 22 -8 13 3 19 1 15 -6 -4 -5 -3 -12 3 -14 5 -1 17 -34
27 -72 11 -47 22 -70 34 -73 28 -8 42 -46 34 -93 -5 -29 -10 -38 -16 -29 -5 8
-8 -3 -7 -29 0 -37 -12 -93 -56 -247 -7 -27 -17 -41 -31 -43 -33 -6 -74 -53
-80 -91 -3 -20 -15 -64 -26 -99 -22 -68 -28 -151 -15 -192 11 -31 86 -107 86
-86 0 34 45 29 56 -6 3 -11 9 -17 13 -12 3 5 33 15 66 22 33 6 72 21 88 32 30
23 34 20 40 -40 3 -30 4 -29 5 11 1 25 9 60 18 77 8 18 13 36 10 40 -3 5 3 31
14 58 26 69 12 137 -32 160 -30 15 -30 16 -24 80 6 66 43 144 69 144 7 0 18 9
25 20 7 12 17 18 22 15 6 -3 10 2 10 11 0 10 10 38 22 63 12 25 27 86 34 135
7 50 17 92 23 94 14 5 14 89 1 97 -6 4 -8 15 -5 25 4 14 -2 24 -22 36 -15 10
-30 19 -32 21 -2 1 -9 31 -16 65 -11 52 -13 57 -15 28 l-2 -35 -13 30 c-8 17
-19 55 -25 85 -7 30 -21 69 -31 87 -11 17 -26 62 -33 100 l-14 68 5 -69 c6
-63 5 -69 -11 -63 -10 4 -20 7 -22 7 -2 0 -4 10 -4 23 0 28 -8 39 -43 56 -28
15 -38 37 -40 93 -2 29 1 33 25 36 15 2 34 14 43 28 10 15 22 23 31 20 10 -4
14 2 14 18 0 27 28 43 36 21 8 -21 24 -19 22 3 -3 37 3 48 35 61 17 8 35 14
39 15 4 0 15 11 24 24 12 18 19 20 29 12 11 -9 14 -5 17 22 3 35 33 52 49 26
6 -9 9 -8 9 8 0 30 11 36 26 16 12 -15 13 -14 14 11 0 31 42 57 48 31 6 -24
22 -5 22 25 0 30 36 71 63 71 9 0 17 6 17 13 0 21 30 42 77 56 31 8 54 25 84
61 46 54 72 68 94 50 13 -11 15 -7 15 20 0 17 9 43 19 56 17 22 20 22 26 6 6
-14 9 -13 17 9 5 15 25 35 45 45 20 11 46 28 59 39 49 44 51 45 65 29 12 -14
14 -14 20 3 4 10 8 41 8 69 1 35 7 59 21 77 22 28 27 82 8 93 -6 4 -19 -3 -30
-16 -14 -17 -18 -19 -18 -6 0 9 -4 16 -9 16 -5 0 -12 12 -14 28 l-4 27 -2 -29
c0 -15 -12 -41 -25 -56 -22 -27 -25 -28 -47 -12 -19 13 -24 13 -27 2 -8 -22
-112 -110 -131 -110 -5 0 -15 -9 -21 -20 -6 -11 -17 -20 -25 -20 -8 0 -15 -9
-15 -20 0 -26 -142 -175 -168 -177 -22 -2 -112 -84 -112 -102 0 -6 -3 -10 -7
-9 -13 3 -66 -25 -104 -53 -19 -15 -47 -33 -62 -40 -15 -7 -30 -21 -33 -33 -7
-23 -26 -43 -66 -69 -16 -10 -28 -24 -28 -32 0 -33 -19 -12 -28 33 l-10 47 0
-68 c1 -62 -5 -88 -17 -75 -3 3 -7 31 -9 63 -3 47 -9 62 -28 77 -12 9 -27 18
-32 18 -5 0 -24 11 -42 25 -18 14 -42 25 -53 25 -12 0 -21 5 -21 11 0 8 -4 8
-13 0 -11 -8 -17 -5 -28 17 -7 15 -24 41 -36 58 -13 17 -23 36 -23 41 0 6 -6
11 -12 10 -93 -3 -124 19 -134 93 -6 48 -24 80 -24 44 0 -13 -3 -14 -14 -5
-11 9 -15 9 -18 0 -5 -16 -37 -20 -60 -8 -15 8 -20 5 -28 -17 -7 -17 -15 -24
-25 -20 -9 3 -20 -5 -29 -22 -15 -26 -15 -25 -16 35 0 86 -17 88 -26 3 -7 -70
-17 -88 -29 -50 -11 34 -15 110 -6 110 5 0 9 24 10 53 0 36 6 56 18 65 14 10
14 12 1 12 -12 0 -14 11 -12 60 2 33 -1 60 -6 60 -5 0 -14 26 -20 58 -6 31
-15 65 -20 74 -6 10 -11 35 -12 55 l-1 38 -6 -45 -7 -45 -13 27 c-7 14 -22 29
-33 31 -15 4 -18 13 -16 46 2 46 5 49 24 24 13 -17 13 -17 14 0 0 26 30 21 31
-5 l0 -23 9 23 c6 14 18 22 33 22 26 0 52 -22 40 -33 -3 -4 -1 -7 5 -7 7 0 12
4 12 9 0 5 15 9 33 9 22 -1 46 -13 78 -40 45 -38 47 -42 54 -106 6 -59 11 -72
42 -104 36 -37 36 -37 54 -17 10 11 21 34 24 50 4 16 13 29 20 29 8 0 17 16
21 38 l7 37 18 -40 18 -40 -4 97 c-4 98 -8 118 -26 118 -23 0 -79 54 -89 85
-8 24 -16 32 -26 28 -20 -8 -54 25 -54 53 0 13 -5 26 -12 30 -8 5 -9 2 -5 -11
10 -23 -19 -44 -60 -45 -17 0 -33 -5 -35 -11 -2 -6 -20 -13 -41 -15 -29 -4
-37 -1 -37 12 0 9 6 14 13 11 7 -3 21 1 31 8 16 13 15 15 -23 33 -37 18 -44
19 -70 6 -50 -25 -166 -18 -187 10 -7 10 -16 17 -21 16 -4 -1 -9 6 -11 14 -2
9 1 16 7 16 6 0 11 -6 11 -12 0 -10 3 -9 9 1 7 11 9 11 14 0 4 -11 6 -11 6 -1
1 17 -26 45 -37 39 -16 -11 -40 21 -56 76 -10 34 -21 55 -27 51 -6 -3 -18 1
-27 9 -9 7 -25 17 -35 20 -10 4 -26 25 -35 47 -9 22 -22 40 -28 40 -16 0 -42
41 -47 76 l-4 29 -2 -27 c-1 -33 -16 -36 -32 -7 l-11 21 -14 -21 c-20 -28 -35
-26 -65 5 -31 34 -76 57 -84 44 -3 -6 -14 -10 -25 -10 -20 0 -39 44 -41 94 -1
17 -5 42 -9 56 -7 23 -8 22 -9 -11z m25 -271 c8 -13 85 -48 106 -48 10 0 18
-5 18 -11 0 -6 7 -8 16 -5 16 6 52 -13 92 -48 14 -13 22 -32 23 -55 l2 -36 6
40 6 40 13 -36 c16 -46 63 -92 85 -83 10 3 17 11 17 17 0 7 6 5 13 -3 18 -20
50 -174 37 -178 -5 -2 -15 -22 -20 -44 -10 -34 -9 -42 6 -52 34 -25 -4 -96
-52 -96 -9 0 -4 69 6 75 17 10 12 72 -6 79 -26 10 -58 6 -78 -9 -28 -21 -32
-19 -42 18 l-8 32 -3 -32 c-7 -55 -62 -68 -63 -15 0 7 -4 10 -10 7 -5 -3 -11
4 -11 17 -1 13 -2 39 -3 58 -1 19 -3 54 -4 78 -1 23 -7 42 -13 42 -7 0 -9 -23
-4 -75 6 -63 5 -75 -7 -75 -9 0 -23 20 -32 45 -10 25 -23 48 -29 52 -14 9 -37
48 -37 62 0 6 -9 35 -20 64 -21 57 -70 117 -94 117 -18 0 -25 30 -12 52 10 17
92 23 102 6z m684 -356 c0 -5 -6 -9 -12 -9 -7 0 -23 -3 -35 -7 -14 -4 -23 -3
-23 3 0 9 20 16 58 20 6 0 12 -3 12 -7z m-583 -104 c-3 -8 -6 -5 -6 6 -1 11 2
17 5 13 3 -3 4 -12 1 -19z m-47 -18 c0 -5 -4 -10 -10 -10 -5 0 -10 5 -10 10 0
6 5 10 10 10 6 0 10 -4 10 -10z m558 -30 c1 0 2 -14 2 -30 0 -46 -52 -58 -127
-29 -27 10 -29 26 -6 52 17 18 47 19 131 7z m539 -102 c-3 -8 -6 -5 -6 6 -1
11 2 17 5 13 3 -3 4 -12 1 -19z m-849 -24 c-5 -28 -28 -29 -28 -1 0 13 3 27 7
31 10 10 25 -10 21 -30z m-91 -71 c-3 -10 -5 -4 -5 12 0 17 2 24 5 18 2 -7 2
-21 0 -30z m-37 10 c3 -110 10 -185 19 -201 8 -14 8 -29 1 -47 -6 -15 -8 -30
-5 -35 6 -10 -21 -21 -29 -12 -4 3 -23 11 -44 18 -31 11 -38 11 -45 -2 -12
-22 -31 -3 -47 47 -12 36 -15 39 -22 20 -20 -56 -76 37 -64 105 8 39 20 44 31
12 6 -19 9 -14 14 26 7 54 26 71 39 35 7 -17 11 -19 17 -9 6 10 12 5 21 -21
12 -32 13 -32 13 -7 2 55 13 62 32 21 l17 -38 1 38 c1 43 21 42 22 -1 0 -15 5
-36 10 -47 6 -14 8 1 5 48 -3 39 -1 67 4 67 6 0 10 -8 10 -17z m336 -90 c14
-32 17 -35 26 -19 9 16 11 16 28 1 13 -12 20 -13 25 -4 6 8 12 4 21 -12 16
-28 18 -125 4 -134 -5 -3 -10 -22 -10 -41 0 -22 -4 -33 -11 -29 -6 4 -13 -3
-16 -14 -4 -16 -11 -20 -25 -15 -16 5 -18 2 -14 -18 20 -87 11 -157 -16 -130
-6 6 -20 12 -30 12 -11 0 -24 13 -32 33 -14 30 -14 31 -15 7 -2 -49 -41 -68
-41 -20 0 10 -4 21 -8 24 -4 2 -8 -5 -7 -17 0 -12 -4 -24 -10 -25 -5 -2 -17
-8 -26 -13 -13 -7 -18 -3 -23 17 -4 14 -4 29 0 35 11 19 12 64 3 104 -6 22
-12 58 -14 80 -2 22 -7 56 -10 76 -8 42 10 63 30 36 7 -10 17 -17 23 -17 6 0
13 -6 15 -12 3 -7 6 5 7 27 1 71 49 102 72 48 10 -25 12 -26 15 -8 15 78 18
80 39 28z m1745 -76 c-10 -9 -11 -8 -5 6 3 10 9 15 12 12 3 -3 0 -11 -7 -18z
m-1581 -117 c0 -5 -2 -10 -4 -10 -3 0 -8 5 -11 10 -3 6 -1 10 4 10 6 0 11 -4
11 -10z m-471 -36 c9 -8 -7 -14 -52 -19 -48 -6 -69 7 -40 24 16 10 81 6 92 -5z
m528 -74 c-3 -39 -17 -39 -17 0 0 17 4 30 10 30 5 0 8 -13 7 -30z m1317 -45
c-4 -8 -11 -15 -16 -15 -6 0 -5 6 2 15 7 8 14 15 16 15 2 0 1 -7 -2 -15z
m-1739 -38 c-5 -25 -11 -34 -21 -30 -18 7 -18 18 2 49 21 31 27 25 19 -19z
m359 -172 c10 -19 15 -44 11 -54 -3 -11 0 -21 9 -24 15 -6 26 19 26 59 0 17 6
22 28 22 32 0 41 -12 43 -53 0 -16 5 -39 10 -50 7 -15 8 -7 5 30 -2 28 -1 56
1 63 9 23 33 -24 35 -65 0 -21 5 -43 9 -49 11 -13 29 -104 21 -104 -13 0 -52
53 -52 71 0 12 -5 19 -12 16 -7 -2 -12 -12 -10 -22 2 -9 -3 -24 -11 -33 -9
-10 -17 -28 -19 -42 l-4 -25 -12 28 c-6 15 -17 27 -23 27 -9 0 -9 3 0 14 8 10
8 21 -2 42 -14 32 -44 48 -32 17 3 -10 7 -20 8 -23 3 -12 -23 -70 -32 -70 -12
0 -71 89 -71 107 0 7 5 13 10 13 6 0 10 33 10 80 0 76 1 80 19 71 10 -6 26
-26 35 -46z m-82 -103 c-3 -13 -6 -21 -9 -19 -8 9 -22 120 -16 131 9 14 30
-82 25 -112z m564 32 c8 -18 14 -50 15 -71 1 -21 4 -49 9 -63 4 -14 5 14 2 63
-3 48 -2 87 1 87 20 0 57 -22 57 -34 0 -8 16 -32 35 -53 35 -38 42 -66 35
-142 -1 -18 2 -22 14 -18 14 6 14 4 2 -16 -16 -24 -19 -94 -5 -103 5 -3 9 -12
9 -20 0 -17 -27 -19 -32 -2 -3 8 -18 12 -40 10 -42 -4 -57 12 -34 37 23 25 20
59 -9 93 -14 16 -25 36 -25 44 0 8 -9 14 -20 14 -11 0 -20 4 -20 10 0 6 -10 6
-27 -1 -14 -5 -32 -8 -38 -5 -11 4 -31 114 -26 144 1 6 -3 12 -9 12 -5 0 -10
-9 -10 -20 0 -33 -16 -23 -33 20 -22 56 2 69 27 15 3 -5 10 -2 16 8 13 20 36
23 43 5 2 -9 9 -5 17 9 17 26 28 21 46 -23z m154 31 c0 -8 -4 -15 -10 -15 -5
0 -10 7 -10 15 0 8 5 15 10 15 6 0 10 -7 10 -15z m60 -25 c0 -5 -4 -10 -10
-10 -5 0 -10 5 -10 10 0 6 5 10 10 10 6 0 10 -4 10 -10z m-1183 -52 c-3 -8 -6
-5 -6 6 -1 11 2 17 5 13 3 -3 4 -12 1 -19z m601 -190 c6 -6 24 -11 39 -11 21
1 33 -7 51 -34 30 -46 23 -64 -20 -57 -53 9 -58 12 -59 36 l-2 23 -4 -23 c-8
-39 -28 -18 -31 31 -3 47 4 57 26 35z m287 -14 c14 -6 13 -8 -5 -21 -24 -17
-35 -12 -27 12 7 17 9 17 32 9z m-665 -69 c0 -20 -26 -19 -34 1 -11 28 -7 35
14 24 11 -6 20 -17 20 -25z m610 3 c0 -5 -4 -8 -10 -8 -5 0 -10 10 -10 23 0
18 2 19 10 7 5 -8 10 -18 10 -22z m-26 -3 c10 -28 -4 -45 -33 -39 -40 10 -49
23 -27 40 26 18 52 18 60 -1z m-46 -51 c12 -2 22 -9 22 -15 0 -6 -9 -8 -22 -3
-13 4 -40 6 -60 6 -21 -1 -38 2 -38 7 0 18 28 19 98 5z m186 -38 c-3 -8 -12
-17 -20 -20 -8 -3 -14 -16 -14 -28 0 -14 -14 -37 -34 -56 l-35 -33 -10 38
c-14 48 -14 63 -1 63 6 0 10 -4 10 -10 0 -18 19 -10 25 11 4 11 21 27 38 34
41 18 48 18 41 1z m186 -361 c0 -9 -6 -12 -15 -9 -8 4 -15 10 -15 15 0 5 7 9
15 9 8 0 15 -7 15 -15z m-632 -13 c2 -7 -3 -12 -12 -12 -9 0 -16 7 -16 16 0
17 22 14 28 -4z m729 -39 c-3 -3 -11 -2 -17 2 -8 5 -7 11 2 22 12 15 13 14 16
-1 2 -10 1 -20 -1 -23z m89 -33 c9 -37 11 -41 17 -21 7 29 16 23 46 -33 l25
-45 -27 -53 c-21 -41 -27 -68 -27 -115 0 -34 -3 -63 -8 -65 -11 -4 -60 -136
-68 -180 -3 -20 -22 -60 -41 -90 -61 -92 -83 -139 -90 -185 -7 -54 9 -71 45
-47 32 21 38 12 22 -38 -18 -59 -23 -62 -60 -43 -17 9 -44 16 -58 15 -44 -3
-50 -1 -57 21 -4 13 -1 27 10 39 10 11 21 36 26 57 4 21 13 56 18 78 6 22 13
52 16 66 3 17 20 36 50 54 45 29 50 37 59 85 2 14 16 49 30 77 24 47 27 67 32
195 4 79 9 145 13 148 10 8 13 40 2 40 -10 0 -31 53 -31 77 0 9 8 13 23 11 17
-2 24 -13 33 -48z m-285 -343 c-10 -9 -11 -8 -5 6 3 10 9 15 12 12 3 -3 0 -11
-7 -18z m-138 -156 l-6 -25 -9 23 c-9 25 -1 48 13 34 5 -5 6 -19 2 -32z m-53
-106 c0 -8 -4 -15 -10 -15 -5 0 -10 7 -10 15 0 8 5 15 10 15 6 0 10 -7 10 -15z
m-167 -77 c2 -18 -2 -50 -9 -72 -8 -21 -14 -56 -14 -78 0 -32 -3 -39 -17 -36
-15 3 -17 13 -14 63 2 33 7 65 11 70 5 6 11 27 15 48 9 46 21 48 28 5z m97
-49 c0 -5 -7 -9 -15 -9 -15 0 -20 12 -9 23 8 8 24 -1 24 -14z m-59 -62 c-10
-9 -11 -8 -5 6 3 10 9 15 12 12 3 -3 0 -11 -7 -18z m-127 -14 c3 -16 8 -65 12
-111 5 -68 3 -89 -12 -120 -15 -30 -19 -33 -22 -17 -2 11 -8 24 -12 28 -4 5
-7 25 -5 45 1 21 0 26 -2 13 -4 -20 -7 -22 -15 -10 -7 10 -8 3 -4 -24 4 -34 3
-38 -12 -32 -9 4 -26 10 -37 13 -11 2 -26 10 -34 16 -9 6 -12 7 -9 1 4 -6 3
-26 -1 -45 l-7 -34 -21 37 c-12 20 -19 37 -15 37 4 0 8 11 8 25 1 14 10 34 21
43 10 9 29 34 43 54 25 38 63 51 73 26 3 -7 6 0 6 15 1 32 17 67 31 67 4 0 11
-12 14 -27z m696 -72 c-10 -20 -30 -29 -30 -14 0 10 33 44 37 39 3 -2 0 -14
-7 -25z m-245 -91 c-3 -5 -10 -10 -16 -10 -5 0 -9 5 -9 10 0 6 7 10 16 10 8 0
12 -4 9 -10z m175 -24 c0 -6 -17 -11 -40 -12 -30 0 -40 4 -40 16 0 12 9 15 40
12 22 -2 40 -9 40 -16z"/>
<path d="M16191 3804 c0 -11 3 -14 6 -6 3 7 2 16 -1 19 -3 4 -6 -2 -5 -13z"/>
<path d="M16140 3155 c-8 -37 -4 -110 7 -123 11 -15 12 -13 12 13 -1 36 -16
124 -19 110z"/>
<path d="M16591 3088 c-1 -21 4 -38 9 -38 11 0 11 14 0 50 -7 22 -8 21 -9 -12z"/>
<path d="M16512 2890 c0 -14 2 -19 5 -12 2 6 2 18 0 25 -3 6 -5 1 -5 -13z"/>
<path d="M17582 1625 c0 -16 2 -22 5 -12 2 9 2 23 0 30 -3 6 -5 -1 -5 -18z"/>
<path d="M16760 815 c0 -8 4 -15 10 -15 5 0 7 7 4 15 -4 8 -8 15 -10 15 -2 0
-4 -7 -4 -15z"/>
<path d="M20201 4244 c0 -11 3 -14 6 -6 3 7 2 16 -1 19 -3 4 -6 -2 -5 -13z"/>
<path d="M559 4193 c-30 -27 -55 -51 -57 -55 -2 -5 -12 -8 -23 -8 -10 0 -19
-4 -19 -10 0 -5 -5 -10 -10 -10 -6 0 -20 -9 -32 -20 -12 -11 -30 -20 -39 -20
-10 0 -20 -8 -23 -18 -4 -10 -20 -28 -36 -40 -17 -13 -30 -29 -30 -37 0 -8 -6
-15 -14 -15 -8 0 -20 -13 -27 -29 -13 -29 -49 -60 -49 -41 0 5 -5 10 -10 10
-6 0 -9 -3 -9 -7 3 -21 -5 -35 -46 -78 -67 -71 -72 -155 -11 -171 30 -7 82 21
89 48 3 10 16 22 29 27 14 5 47 32 75 60 28 28 58 51 67 51 9 0 16 5 16 10 0
6 9 19 19 29 11 11 27 31 36 45 9 14 22 23 29 20 15 -6 96 74 96 94 0 5 17 24
38 43 21 19 46 54 56 78 15 39 15 45 1 67 -24 37 -56 30 -116 -23z m-127 -175
c-6 -6 -15 -8 -19 -4 -4 4 -1 11 7 16 19 12 27 3 12 -12z"/>
<path d="M20370 4209 c0 -13 5 -31 10 -39 7 -11 8 -5 4 20 -8 43 -14 51 -14
19z"/>
<path d="M16732 4190 c0 -19 2 -27 5 -17 2 9 2 25 0 35 -3 9 -5 1 -5 -18z"/>
<path d="M16326 4183 c9 -38 14 -42 14 -10 0 14 -5 29 -10 32 -7 4 -8 -3 -4
-22z"/>
<path d="M6723 4120 c0 -36 2 -50 4 -32 2 17 2 47 0 65 -2 17 -4 3 -4 -33z"/>
<path d="M14533 4140 c0 -25 2 -35 4 -22 2 12 2 32 0 45 -2 12 -4 2 -4 -23z"/>
<path d="M17443 4130 c0 -25 2 -35 4 -22 2 12 2 32 0 45 -2 12 -4 2 -4 -23z"/>
<path d="M17322 4135 c0 -16 2 -22 5 -12 2 9 2 23 0 30 -3 6 -5 -1 -5 -18z"/>
<path d="M17618 4130 c2 -16 6 -30 8 -30 2 0 4 14 4 30 0 17 -4 30 -8 30 -5 0
-7 -13 -4 -30z"/>
<path d="M11141 4134 c0 -11 3 -14 6 -6 3 7 2 16 -1 19 -3 4 -6 -2 -5 -13z"/>
<path d="M14763 4115 c0 -22 2 -30 4 -17 2 12 2 30 0 40 -3 9 -5 -1 -4 -23z"/>
<path d="M20741 4124 c0 -11 3 -14 6 -6 3 7 2 16 -1 19 -3 4 -6 -2 -5 -13z"/>
<path d="M14591 4104 c0 -11 3 -14 6 -6 3 7 2 16 -1 19 -3 4 -6 -2 -5 -13z"/>
<path d="M11832 4080 c0 -14 2 -19 5 -12 2 6 2 18 0 25 -3 6 -5 1 -5 -13z"/>
<path d="M12742 4035 c0 -16 2 -22 5 -12 2 9 2 23 0 30 -3 6 -5 -1 -5 -18z"/>
<path d="M17510 4030 c0 -16 4 -30 8 -30 5 0 7 14 4 30 -2 17 -6 30 -8 30 -2
0 -4 -13 -4 -30z"/>
<path d="M15161 4034 c0 -11 3 -14 6 -6 3 7 2 16 -1 19 -3 4 -6 -2 -5 -13z"/>
<path d="M14762 4005 c0 -16 2 -22 5 -12 2 9 2 23 0 30 -3 6 -5 -1 -5 -18z"/>
<path d="M15293 4013 c4 -3 2 -12 -5 -20 -9 -11 -8 -18 5 -31 16 -15 17 -14
17 21 0 21 -5 37 -12 37 -6 0 -8 -3 -5 -7z"/>
<path d="M2591 3974 c-21 -15 -23 -22 -18 -75 5 -55 30 -108 52 -109 6 0 21
-9 35 -20 37 -29 69 -25 102 12 40 45 36 70 -26 134 -17 18 -39 42 -48 53 -22
25 -65 27 -97 5z"/>
<path d="M6731 3964 c0 -11 3 -14 6 -6 3 7 2 16 -1 19 -3 4 -6 -2 -5 -13z"/>
<path d="M17522 3950 c0 -19 2 -27 5 -17 2 9 2 25 0 35 -3 9 -5 1 -5 -18z"/>
<path d="M5375 3928 c-11 -6 -22 -14 -25 -18 -3 -3 -13 -9 -22 -13 -12 -4 -18
-17 -18 -37 0 -16 -3 -29 -7 -29 -21 3 -22 -3 -8 -31 8 -16 23 -34 33 -39 22
-11 58 2 72 28 6 12 17 21 25 21 19 0 45 52 39 77 -3 11 -18 27 -32 34 -15 7
-29 14 -32 16 -3 1 -14 -3 -25 -9z m-13 -85 c-6 -2 -9 -10 -6 -15 4 -7 2 -8
-5 -4 -13 9 -5 26 12 25 9 0 8 -2 -1 -6z"/>
<path d="M17091 3904 c0 -11 3 -14 6 -6 3 7 2 16 -1 19 -3 4 -6 -2 -5 -13z"/>
<path d="M17261 3904 c0 -11 3 -14 6 -6 3 7 2 16 -1 19 -3 4 -6 -2 -5 -13z"/>
<path d="M11966 3884 c-3 -9 -2 -23 4 -32 7 -14 9 -10 10 16 0 35 -5 41 -14
16z"/>
<path d="M20552 3880 c0 -14 2 -19 5 -12 2 6 2 18 0 25 -3 6 -5 1 -5 -13z"/>
<path d="M15463 3855 c0 -22 2 -30 4 -17 2 12 2 30 0 40 -3 9 -5 -1 -4 -23z"/>
<path d="M14452 3850 c0 -19 2 -27 5 -17 2 9 2 25 0 35 -3 9 -5 1 -5 -18z"/>
<path d="M5043 3850 c-32 -29 -29 -51 15 -90 34 -30 42 -33 103 -33 65 0 118
21 119 48 0 21 -72 70 -113 76 -23 4 -55 10 -72 13 -23 6 -35 3 -52 -14z m67
-44 c0 -2 -7 -6 -15 -10 -8 -3 -15 -1 -15 4 0 6 7 10 15 10 8 0 15 -2 15 -4z"/>
<path d="M2400 3843 c-135 -25 -200 -55 -200 -94 0 -11 -7 -19 -17 -20 -197
-12 -279 -50 -277 -129 1 -33 -2 -40 -25 -48 -16 -6 -34 -26 -47 -53 -62 -128
-72 -148 -77 -143 -15 16 -24 -61 -16 -145 8 -90 8 -95 -15 -121 -21 -25 -23
-37 -21 -121 1 -90 3 -97 43 -170 40 -72 91 -140 93 -122 0 4 5 -3 10 -16 7
-17 13 -21 20 -14 17 17 -7 220 -29 252 -25 38 -24 204 2 244 14 21 15 27 5
27 -9 0 -10 3 -3 8 6 4 20 27 32 52 19 39 27 86 31 178 1 18 7 22 30 22 17 0
33 -5 36 -10 4 -6 15 -8 25 -5 10 3 21 1 25 -5 8 -13 72 -13 80 1 8 11 51 5
105 -15 19 -8 54 -19 77 -25 31 -9 50 -22 70 -51 20 -28 33 -38 46 -34 10 3
24 0 32 -6 8 -6 19 -9 24 -6 5 4 12 2 16 -4 9 -15 75 -13 76 3 0 6 6 -2 12
-19 7 -18 26 -45 42 -61 41 -41 75 -83 75 -93 0 -13 35 -21 54 -14 11 4 22 0
30 -11 10 -14 22 -17 57 -12 24 3 45 11 47 17 2 6 21 33 43 60 21 27 39 54 39
59 0 6 9 18 20 29 11 10 21 33 22 52 3 33 1 35 -30 38 -22 2 -34 -2 -38 -12
-3 -9 -12 -16 -19 -16 -7 0 -37 -20 -66 -45 -51 -44 -79 -88 -79 -126 0 -18
-1 -18 -20 1 -11 11 -20 22 -20 24 0 3 -13 18 -30 34 -16 17 -30 40 -30 51 0
14 -16 31 -47 51 -27 16 -53 30 -58 30 -6 0 -15 10 -20 22 -10 22 -29 35 -122
84 -29 15 -53 31 -53 35 0 4 -21 11 -47 15 -27 3 -59 12 -73 19 -46 23 -108
38 -138 32 -29 -6 -72 14 -72 34 0 6 24 21 53 34 29 13 70 43 92 65 38 39 42
41 85 35 25 -3 53 -8 63 -11 9 -3 17 0 17 6 0 6 12 15 28 22 82 33 95 43 123
86 49 78 45 80 -91 55z"/>
<path d="M10360 3851 c0 -5 5 -13 10 -16 6 -3 10 -2 10 4 0 5 -4 13 -10 16 -5
3 -10 2 -10 -4z"/>
<path d="M17531 3844 c0 -11 3 -14 6 -6 3 7 2 16 -1 19 -3 4 -6 -2 -5 -13z"/>
<path d="M15122 3815 c0 -16 4 -43 8 -60 11 -42 11 -1 1 50 -7 34 -9 35 -9 10z"/>
<path d="M17813 3800 c0 -25 2 -35 4 -22 2 12 2 32 0 45 -2 12 -4 2 -4 -23z"/>
<path d="M15401 3814 c0 -11 3 -14 6 -6 3 7 2 16 -1 19 -3 4 -6 -2 -5 -13z"/>
<path d="M2855 3797 c-14 -11 -17 -22 -12 -56 7 -54 67 -131 102 -131 17 0 29
-9 40 -30 9 -16 19 -30 23 -30 4 0 18 -22 31 -48 l23 -48 -26 -39 c-35 -51
-42 -83 -23 -102 19 -19 66 -10 96 18 12 12 35 24 50 29 26 7 31 5 47 -28 25
-49 39 -62 107 -102 33 -20 57 -41 57 -51 0 -9 7 -19 15 -23 8 -3 15 -16 15
-30 0 -14 10 -33 25 -44 30 -24 30 -27 5 -59 -11 -14 -20 -38 -20 -53 0 -15
-3 -30 -7 -34 -9 -9 -11 -76 -2 -76 3 0 6 -39 8 -87 2 -86 25 -167 52 -184 17
-10 47 1 54 19 4 10 8 73 11 140 4 139 8 164 30 155 9 -3 14 2 14 16 0 12 -6
21 -14 21 -8 0 -17 11 -20 25 -3 13 -21 41 -38 61 -26 29 -30 39 -21 53 14 22
-4 95 -39 167 -14 27 -33 67 -44 89 -26 55 -65 104 -160 202 -78 79 -116 101
-126 71 -3 -7 -20 17 -39 52 -26 49 -40 66 -58 68 -14 2 -45 21 -71 43 -51 43
-58 45 -85 26z m366 -334 c13 -16 12 -17 -3 -4 -17 13 -22 21 -14 21 2 0 10
-8 17 -17z"/>
<path d="M20601 3774 c0 -11 3 -14 6 -6 3 7 2 16 -1 19 -3 4 -6 -2 -5 -13z"/>
<path d="M15347 3753 c-4 -3 -7 -13 -7 -22 1 -13 3 -13 11 2 11 19 8 33 -4 20z"/>
<path d="M17520 3739 c0 -11 5 -17 10 -14 6 3 10 13 10 21 0 8 -4 14 -10 14
-5 0 -10 -9 -10 -21z"/>
<path d="M17951 3704 c0 -11 3 -14 6 -6 3 7 2 16 -1 19 -3 4 -6 -2 -5 -13z"/>
<path d="M8196 3689 c4 -20 0 -28 -21 -37 -14 -7 -32 -12 -40 -12 -8 0 -15 -5
-15 -11 0 -6 -9 -9 -20 -6 -11 3 -23 1 -26 -4 -3 -5 -16 -9 -30 -9 -14 0 -39
-13 -57 -30 -20 -20 -40 -29 -53 -27 -13 2 -26 -4 -34 -16 -10 -16 -14 -17
-20 -6 -10 16 -13 14 -26 -26 -8 -24 -15 -30 -37 -30 -17 1 -27 -5 -27 -13 0
-8 -6 -12 -14 -9 -10 4 -17 -3 -21 -21 -6 -28 -42 -78 -50 -70 -2 2 -11 19
-19 38 l-15 35 -1 -56 c0 -42 -5 -60 -19 -73 -24 -22 -41 -13 -41 21 0 48 -13
14 -15 -39 -3 -64 -10 -97 -37 -165 -22 -57 -33 -60 -46 -10 -7 26 -9 18 -12
-48 -3 -94 -6 -150 -8 -187 -1 -16 -7 -27 -14 -25 -7 1 -14 -8 -16 -20 -2 -13
2 -23 9 -23 9 0 10 -19 6 -72 -4 -48 -3 -68 3 -58 11 18 13 9 10 -50 0 -20 4
-49 10 -64 6 -18 11 -103 11 -210 0 -100 6 -222 13 -272 14 -99 12 -202 -4
-218 -6 -6 -10 -21 -10 -34 0 -13 -4 -21 -9 -18 -4 3 -11 -32 -15 -77 -11
-138 -17 -191 -23 -207 -3 -8 -8 -33 -9 -55 -5 -58 -11 -86 -23 -119 -7 -16
-13 -41 -15 -55 -6 -47 -28 -121 -36 -121 -13 0 -4 -174 10 -200 7 -14 12 -48
11 -77 -1 -31 5 -66 15 -90 9 -21 16 -42 15 -46 -1 -5 8 -11 19 -14 11 -3 20
-9 20 -14 0 -4 8 -13 19 -18 14 -8 24 -4 48 20 25 24 32 26 37 13 9 -24 23 -8
29 33 3 21 11 52 18 68 l12 30 9 -40 c5 -22 9 -45 10 -52 2 -17 18 -5 18 13 0
9 6 14 13 12 8 -3 13 -31 14 -87 2 -118 13 -114 13 5 l1 99 34 16 35 16 1 -51
c1 -75 17 -106 18 -34 1 77 6 88 34 75 20 -9 22 -18 22 -84 0 -43 5 -77 11
-81 6 -4 19 -21 28 -39 13 -26 23 -32 53 -35 38 -3 38 -3 41 -50 2 -27 8 -48
14 -48 6 0 8 13 5 33 -8 42 13 102 35 102 24 0 36 15 40 50 3 26 8 30 36 33
19 2 32 9 32 17 0 19 33 84 43 85 4 0 7 -6 8 -12 1 -24 9 -62 14 -67 3 -2 5
14 5 37 0 23 4 42 9 42 5 0 16 3 25 6 11 4 16 0 16 -12 0 -11 19 -41 41 -67
37 -43 46 -48 78 -46 20 2 46 9 59 17 12 8 22 11 22 7 0 -4 9 4 20 18 20 25
29 27 64 12 12 -5 44 -2 83 8 35 9 69 14 75 12 19 -8 38 -54 38 -92 0 -18 5
-33 10 -33 6 0 10 10 9 23 -4 43 1 87 10 87 5 0 7 -9 4 -19 -3 -12 8 -33 32
-59 20 -23 35 -47 34 -54 -1 -7 0 -31 1 -53 3 -34 4 -32 9 20 l6 60 72 3 c48
2 75 8 84 18 10 13 13 11 24 -8 6 -13 19 -22 28 -22 9 1 15 -3 14 -10 -1 -6 8
-10 21 -8 19 3 22 -1 22 -31 0 -40 33 -87 61 -87 11 0 22 -7 25 -15 8 -19 24
-20 24 -1 0 7 11 16 25 18 14 3 22 1 18 -5 -8 -14 17 -27 54 -27 35 0 59 28
55 65 -1 11 6 3 16 -19 l19 -38 1 126 c1 116 0 126 -14 111 -23 -22 -39 -13
-37 21 3 32 22 74 34 74 4 0 10 -12 12 -28 2 -15 4 20 4 78 1 58 -1 97 -4 87
-4 -15 -8 -14 -32 10 -33 33 -44 68 -47 143 -4 125 -26 265 -45 283 -10 9 -22
17 -26 16 -4 0 -9 4 -11 10 -2 6 4 11 14 11 15 0 16 2 2 18 -21 23 -37 130
-43 284 -2 70 -9 136 -14 147 -6 10 -8 21 -5 24 3 3 1 31 -5 63 -7 36 -7 61
-1 69 5 6 8 29 6 51 -6 75 -5 71 -17 54 -7 -11 -8 -4 -4 27 5 31 1 58 -14 99
-30 79 -50 116 -61 109 -6 -4 -9 28 -9 80 1 47 5 85 9 85 8 0 5 234 -4 275 -8
35 -16 45 -16 22 0 -9 -4 -17 -10 -17 -6 0 -10 26 -10 59 0 37 -5 63 -13 70
-8 6 -19 36 -26 67 -16 72 -61 174 -77 174 -6 0 -15 16 -18 35 -5 24 -11 33
-21 28 -8 -3 -15 0 -15 6 0 6 -7 11 -16 11 -10 0 -14 7 -12 23 2 16 -2 22 -17
22 -12 0 -26 11 -34 28 -16 31 -78 94 -88 89 -4 -2 -11 6 -15 18 -5 13 -14 20
-21 17 -8 -3 -19 4 -26 14 -6 11 -15 17 -20 15 -5 -3 -20 3 -34 14 -16 12 -28
16 -32 10 -13 -21 -55 21 -61 61 -4 21 -10 36 -14 34 -5 -3 -11 1 -13 7 -3 7
-6 2 -6 -12 -2 -32 -20 -61 -28 -42 -2 6 -11 12 -18 12 -19 0 -35 32 -35 69 0
16 -5 33 -11 37 -6 3 -10 -1 -9 -12 4 -37 0 -45 -19 -39 -10 3 -23 -1 -30 -9
-7 -8 -22 -13 -34 -11 -42 5 -105 36 -115 58 -11 21 -11 21 -6 -4z m8 -284 l6
-25 22 20 c27 25 29 25 61 0 17 -14 23 -26 20 -40 -3 -11 -1 -20 5 -20 6 0 12
19 14 43 2 23 8 41 13 39 6 -2 9 -10 7 -18 -2 -8 2 -14 8 -14 14 0 40 -25 40
-39 0 -6 7 -11 15 -11 11 0 15 11 15 40 0 39 1 40 28 34 31 -7 46 -19 48 -37
0 -7 2 -20 2 -29 3 -25 32 -22 32 3 0 11 5 17 10 14 6 -3 10 0 10 7 1 32 40
-41 41 -77 1 -22 3 -31 6 -20 10 39 22 36 78 -22 41 -41 59 -67 60 -88 4 -40
3 -39 18 -27 21 18 52 -13 48 -49 -1 -18 1 -29 7 -25 5 3 20 -6 32 -19 22 -23
24 -34 24 -132 1 -72 5 -108 13 -110 6 -2 13 4 16 14 3 13 6 10 11 -12 4 -16
19 -67 32 -111 13 -45 25 -116 27 -158 3 -61 8 -80 23 -91 16 -13 17 -16 4
-25 -13 -8 -13 -10 3 -10 20 0 23 -26 3 -33 -15 -6 -11 -47 5 -47 9 0 5 -72
-6 -89 -3 -6 -1 -11 4 -11 6 0 11 -5 11 -11 0 -5 -5 -7 -11 -3 -9 5 -10 -14
-5 -72 5 -71 24 -282 26 -294 0 -3 5 2 10 10 7 12 12 12 22 2 8 -8 13 -49 14
-118 1 -81 5 -109 16 -115 10 -5 13 -19 10 -45 -4 -29 -7 -33 -14 -20 -5 9 -6
21 -2 28 4 7 3 8 -5 4 -7 -5 -11 -32 -10 -71 1 -39 5 -62 11 -59 6 4 7 19 4
35 -9 45 10 42 24 -4 6 -23 17 -48 22 -54 6 -7 7 -20 4 -29 -3 -9 -3 -45 0
-79 5 -48 10 -62 20 -58 9 3 14 -2 14 -14 0 -10 6 -28 14 -39 8 -11 17 -37 21
-57 4 -20 11 -37 16 -37 5 0 9 -9 9 -19 0 -11 5 -23 11 -27 8 -5 10 -29 6 -75
-5 -63 -3 -73 25 -126 38 -71 41 -124 10 -173 l-21 -34 -15 34 c-14 32 -15 33
-16 10 l-1 -25 -24 30 c-20 23 -25 40 -23 77 1 57 -11 74 -58 81 -30 5 -41 1
-68 -23 -17 -17 -35 -30 -40 -30 -4 0 -23 -16 -41 -36 l-33 -36 -37 34 c-34
31 -39 41 -45 99 -7 61 -10 55 -14 -25 -1 -11 -7 -21 -13 -23 -12 -4 -16 8
-28 80 -4 28 -11 37 -25 37 -22 0 -24 9 -20 84 1 29 -2 46 -8 42 -10 -6 -22
38 -22 80 0 16 4 22 14 18 8 -3 17 0 21 7 6 8 12 4 22 -12 l14 -24 -7 25 c-3
14 -11 31 -16 37 -7 8 -7 13 -1 13 13 0 14 93 1 101 -5 4 -16 57 -24 118 -7
61 -18 120 -24 131 -12 23 -50 27 -50 5 0 -8 -6 -15 -12 -15 -10 0 -13 -36
-11 -151 1 -83 4 -154 7 -157 3 -3 6 6 6 21 0 43 18 40 30 -5 6 -24 13 -48 15
-55 5 -15 -17 -73 -27 -73 -4 0 -8 5 -8 11 0 5 -4 8 -8 5 -4 -2 -9 -44 -11
-93 -2 -90 -15 -127 -26 -80 -6 21 -10 24 -20 14 -7 -7 -11 -15 -9 -19 3 -4
-6 -10 -19 -13 -14 -4 -29 -16 -35 -28 -9 -19 -11 -14 -11 31 -1 28 -5 52 -11
52 -5 0 -10 -13 -10 -30 0 -20 -5 -30 -15 -30 -8 0 -15 8 -15 18 0 26 -20 42
-52 42 -22 0 -28 -5 -28 -21 0 -12 -10 -31 -22 -44 -18 -19 -26 -21 -50 -13
-18 6 -28 17 -28 30 0 11 -7 26 -15 34 -13 14 -15 13 -15 -10 0 -42 -45 -30
-66 18 -11 27 -13 28 -14 9 0 -19 -6 -23 -30 -23 l-30 0 6 57 c4 32 7 60 7 63
1 11 -16 86 -23 100 -4 8 -10 29 -14 45 -5 22 -4 26 4 15 8 -13 10 -13 10 3 0
9 -6 17 -14 17 -24 0 -26 29 -6 68 21 39 27 102 9 102 -7 0 -8 11 -4 30 9 42
-4 127 -22 146 -18 18 -37 14 -41 -9 -2 -12 1 -15 12 -11 11 4 16 1 16 -10 0
-19 -36 -22 -43 -3 -3 6 -6 -3 -6 -20 -1 -18 -6 -33 -12 -33 -6 0 -17 -7 -25
-15 -9 -8 -11 -15 -5 -15 6 0 11 -20 11 -45 0 -27 5 -45 11 -45 15 0 5 -93
-10 -98 -18 -6 -14 -119 5 -130 13 -7 17 -29 19 -98 1 -49 3 -90 4 -91 8 -18
-43 -27 -71 -12 -13 7 -18 22 -19 52 -1 24 -3 31 -6 17 -13 -90 -12 -88 -46
-93 -18 -2 -40 1 -52 9 -19 14 -18 15 7 18 14 1 27 58 27 124 1 30 -5 48 -20
63 -15 15 -19 29 -16 47 7 36 -11 109 -30 116 -8 3 -25 -2 -39 -10 -13 -9 -28
-14 -32 -10 -7 8 -8 13 -10 59 -1 16 -7 27 -13 25 -9 -3 -16 -144 -9 -183 1
-5 3 -47 4 -92 0 -49 6 -87 13 -94 10 -10 12 4 12 62 -1 128 -3 123 24 103 12
-10 23 -25 23 -33 0 -9 4 -32 8 -51 5 -26 4 -31 -3 -20 -18 26 -32 -8 -28 -67
3 -49 2 -53 -18 -53 -13 0 -27 -10 -35 -25 -17 -32 -30 -32 -30 0 0 22 -2 24
-27 14 -40 -15 -40 -15 -53 136 0 6 -7 1 -15 -9 -8 -11 -16 -17 -16 -13 -1 4
-3 19 -4 35 -2 15 -6 44 -10 65 -9 44 7 83 37 90 13 4 18 13 17 29 -1 13 -1
47 -1 76 2 39 6 52 17 52 8 0 15 3 16 8 0 4 2 111 4 237 3 153 9 253 19 298 8
38 12 75 9 83 -3 8 -1 14 5 14 6 0 13 -6 15 -12 3 -7 6 -3 6 9 1 12 -3 25 -9
28 -5 3 -10 14 -9 23 0 14 2 14 8 -2 5 -14 10 -16 15 -8 10 17 -2 52 -18 52
-9 0 -13 17 -14 53 -5 278 -4 330 4 335 12 9 15 65 3 73 -9 5 -14 111 -10 218
0 24 7 65 15 91 8 27 12 51 9 54 -4 3 1 6 9 6 11 0 14 6 11 20 -3 11 0 20 6
20 6 0 11 9 11 19 0 11 3 27 6 35 6 15 8 15 19 -1 12 -16 14 -14 28 19 20 48
67 99 88 96 9 -2 26 8 37 22 l21 25 7 -43 c7 -46 31 -53 26 -8 -7 63 34 116
89 116 9 0 19 9 22 20 3 11 12 20 21 20 9 0 16 5 16 10 0 6 9 10 19 10 11 0
22 6 24 13 3 6 6 1 7 -13 l1 -25 15 28 c18 34 30 34 38 2z m716 -524 c0 -11
-4 -23 -10 -26 -6 -4 -10 5 -10 19 0 14 5 26 10 26 6 0 10 -9 10 -19z m275
-1361 c7 -12 -12 -12 -40 0 -18 8 -17 9 7 9 15 1 30 -3 33 -9z m25 -120 c0 -5
-7 -10 -15 -10 -8 0 -15 5 -15 10 0 6 7 10 15 10 8 0 15 -4 15 -10z m27 -106
c-3 -3 -12 -4 -19 -1 -8 3 -5 6 6 6 11 1 17 -2 13 -5z m-1807 -119 c0 -8 -4
-15 -10 -15 -5 0 -10 7 -10 15 0 8 5 15 10 15 6 0 10 -7 10 -15z m390 -15 c0
-5 -2 -10 -4 -10 -3 0 -8 5 -11 10 -3 6 -1 10 4 10 6 0 11 -4 11 -10z m270
-102 c0 -13 -23 -5 -28 10 -2 7 2 10 12 6 9 -3 16 -11 16 -16z m-520 -62 c0
-2 -7 -7 -16 -10 -8 -3 -12 -2 -9 4 6 10 25 14 25 6z m1015 -75 c-8 -16 -11
-31 -8 -35 4 -3 -1 -6 -10 -6 -10 0 -17 8 -17 20 0 11 7 20 15 20 8 0 15 9 15
21 0 11 4 17 10 14 6 -4 5 -16 -5 -34z m-1148 7 c-3 -8 -6 -5 -6 6 -1 11 2 17
5 13 3 -3 4 -12 1 -19z m593 -35 c0 -5 -5 -15 -10 -23 -8 -12 -10 -11 -10 8 0
12 5 22 10 22 6 0 10 -3 10 -7z m382 -85 c-7 -7 -12 -8 -12 -2 0 14 12 26 19
19 2 -3 -1 -11 -7 -17z m668 18 c0 -2 -7 -7 -16 -10 -8 -3 -12 -2 -9 4 6 10
25 14 25 6z m-1090 -42 c0 -8 -4 -12 -10 -9 -5 3 -10 10 -10 16 0 5 5 9 10 9
6 0 10 -7 10 -16z m832 -16 c-2 -10 -8 -18 -13 -18 -5 0 -9 8 -9 18 0 10 6 19
14 19 8 0 11 -8 8 -19z m155 -20 c-3 -8 -6 -5 -6 6 -1 11 2 17 5 13 3 -3 4
-12 1 -19z m-37 -8 c0 -5 -6 -10 -14 -10 -8 0 -18 5 -21 10 -3 6 3 10 14 10
12 0 21 -4 21 -10z m380 -20 c0 -5 -5 -10 -11 -10 -5 0 -7 5 -4 10 3 6 8 10
11 10 2 0 4 -4 4 -10z m30 0 c0 -5 -5 -10 -11 -10 -5 0 -7 5 -4 10 3 6 8 10
11 10 2 0 4 -4 4 -10z m-150 -86 c0 -8 -4 -13 -9 -10 -5 4 -11 0 -14 -6 -2 -7
-7 -10 -11 -7 -10 10 5 39 20 39 8 0 14 -7 14 -16z"/>
<path d="M8360 3350 c0 -5 5 -10 11 -10 5 0 7 5 4 10 -3 6 -8 10 -11 10 -2 0
-4 -4 -4 -10z"/>
<path d="M8520 3296 c0 -14 5 -26 10 -26 6 0 10 9 10 19 0 11 -4 23 -10 26 -6
4 -10 -5 -10 -19z"/>
<path d="M8415 3268 c-4 -15 -2 -34 3 -44 9 -16 10 -16 16 3 4 11 2 31 -3 44
l-9 24 -7 -27z"/>
<path d="M8227 3274 c-4 -4 -7 -14 -7 -23 0 -11 3 -12 11 -4 6 6 10 16 7 23
-2 6 -7 8 -11 4z"/>
<path d="M8322 3255 c0 -16 2 -22 5 -12 2 9 2 23 0 30 -3 6 -5 -1 -5 -18z"/>
<path d="M8041 3211 c-1 -24 2 -32 9 -25 7 7 7 19 1 35 -9 23 -10 22 -10 -10z"/>
<path d="M8510 3224 c0 -8 5 -12 10 -9 6 3 10 10 10 16 0 5 -4 9 -10 9 -5 0
-10 -7 -10 -16z"/>
<path d="M8310 3161 c0 -17 5 -33 10 -36 6 -4 10 8 10 29 0 20 -4 36 -10 36
-5 0 -10 -13 -10 -29z"/>
<path d="M7930 3171 c0 -6 5 -13 10 -16 6 -3 10 1 10 9 0 9 -4 16 -10 16 -5 0
-10 -4 -10 -9z"/>
<path d="M8231 3164 c0 -11 3 -14 6 -6 3 7 2 16 -1 19 -3 4 -6 -2 -5 -13z"/>
<path d="M8461 3104 c0 -11 3 -14 6 -6 3 7 2 16 -1 19 -3 4 -6 -2 -5 -13z"/>
<path d="M8745 3100 c3 -5 8 -10 11 -10 2 0 4 5 4 10 0 6 -5 10 -11 10 -5 0
-7 -4 -4 -10z"/>
<path d="M8500 3065 c-7 -8 -21 -15 -31 -15 -12 0 -19 -7 -19 -20 0 -11 -4
-20 -9 -20 -4 0 -9 -26 -10 -57 -4 -134 -6 -152 -14 -138 -18 33 -24 11 -20
-77 2 -50 5 -94 8 -96 3 -3 9 6 14 19 8 20 10 16 10 -27 1 -28 6 -66 12 -83
10 -28 16 -32 37 -28 18 3 31 -2 47 -19 23 -25 55 -24 55 2 0 19 34 18 50 -1
14 -17 43 -19 70 -5 23 12 62 78 54 92 -4 6 -2 13 3 17 6 3 7 32 3 69 -3 34
-2 68 2 74 4 7 2 18 -4 25 -7 9 -8 34 -4 71 4 31 7 64 7 72 -1 8 -1 28 -2 43
0 20 -7 31 -25 37 -13 5 -29 21 -34 35 -13 33 -36 42 -59 21 -18 -17 -61 -22
-61 -8 0 9 -44 32 -59 32 -5 0 -14 -7 -21 -15z m40 -56 c0 -6 -4 -7 -10 -4 -5
3 -10 11 -10 16 0 6 5 7 10 4 6 -3 10 -11 10 -16z m127 -101 c-3 -8 -6 -5 -6
6 -1 11 2 17 5 13 3 -3 4 -12 1 -19z m-47 -116 c0 -12 9 -30 19 -39 22 -18 19
-35 -4 -26 -8 3 -15 0 -15 -6 0 -6 -6 -11 -14 -11 -17 0 -29 99 -13 118 13 16
27 -2 27 -36z m40 -8 c0 -8 -4 -12 -10 -9 -5 3 -10 10 -10 16 0 5 5 9 10 9 6
0 10 -7 10 -16z m-230 -26 c0 -18 -2 -20 -9 -8 -6 8 -7 18 -5 22 9 14 14 9 14
-14z m57 -120 c-3 -7 -5 -2 -5 12 0 14 2 19 5 13 2 -7 2 -19 0 -25z"/>
<path d="M8041 3039 c0 -15 -11 -38 -22 -53 -31 -40 -49 -111 -50 -196 -1 -90
7 -111 60 -170 23 -25 53 -67 66 -94 14 -28 25 -45 25 -38 0 16 32 16 48 0 9
-9 12 -9 12 1 0 9 9 11 30 6 26 -6 30 -4 30 15 0 11 12 33 27 48 21 21 26 35
25 72 -3 68 -8 102 -19 109 -5 3 -10 31 -10 61 -1 30 -7 76 -13 102 -14 58
-50 131 -50 103 -1 -17 -3 -16 -15 6 -11 20 -21 25 -49 24 -20 -1 -39 -5 -43
-8 -15 -15 -42 -6 -46 16 -4 20 -4 19 -6 -4z m-14 -111 c-3 -8 -6 -5 -6 6 -1
11 2 17 5 13 3 -3 4 -12 1 -19z m92 -66 c-3 -31 1 -43 11 -37 6 4 10 -5 10
-19 0 -27 -15 -35 -23 -13 -3 6 -4 -1 -4 -18 2 -20 -3 -30 -13 -30 -21 0 -30
81 -12 118 13 29 34 28 31 -1z"/>
<path d="M8820 2740 c0 -5 5 -10 11 -10 5 0 7 5 4 10 -3 6 -8 10 -11 10 -2 0
-4 -4 -4 -10z"/>
<path d="M8328 2713 c-2 -5 -1 -24 3 -43 l6 -35 2 43 c1 39 -3 52 -11 35z"/>
<path d="M8833 2625 c0 -33 2 -45 4 -27 2 18 2 45 0 60 -2 15 -4 0 -4 -33z"/>
<path d="M8332 2610 c0 -14 2 -19 5 -12 2 6 2 18 0 25 -3 6 -5 1 -5 -13z"/>
<path d="M7891 2534 c0 -11 3 -14 6 -6 3 7 2 16 -1 19 -3 4 -6 -2 -5 -13z"/>
<path d="M8434 2485 c4 -38 16 -43 16 -7 0 18 -4 32 -9 32 -5 0 -8 -11 -7 -25z"/>
<path d="M7741 2454 c0 -11 3 -14 6 -6 3 7 2 16 -1 19 -3 4 -6 -2 -5 -13z"/>
<path d="M8641 2434 c0 -11 3 -14 6 -6 3 7 2 16 -1 19 -3 4 -6 -2 -5 -13z"/>
<path d="M7671 2373 c0 -5 4 -17 9 -28 8 -18 9 -17 9 8 1 15 -3 27 -9 27 -5 0
-10 -3 -9 -7z"/>
<path d="M7732 2320 c0 -17 4 -30 9 -30 11 0 12 47 1 54 -5 3 -9 -8 -10 -24z"/>
<path d="M7682 2260 c0 -14 2 -19 5 -12 2 6 2 18 0 25 -3 6 -5 1 -5 -13z"/>
<path d="M7731 2254 c0 -11 3 -14 6 -6 3 7 2 16 -1 19 -3 4 -6 -2 -5 -13z"/>
<path d="M7940 2061 c0 -12 6 -21 16 -21 9 0 14 7 12 17 -5 25 -28 28 -28 4z"/>
<path d="M7681 1993 c-1 -17 4 -35 9 -38 12 -7 12 22 0 50 -7 17 -9 15 -9 -12z"/>
<path d="M7944 2005 c-8 -21 6 -41 17 -24 12 19 11 39 -1 39 -6 0 -13 -7 -16
-15z"/>
<path d="M8020 1960 c0 -5 5 -10 11 -10 5 0 7 5 4 10 -3 6 -8 10 -11 10 -2 0
-4 -4 -4 -10z"/>
<path d="M7953 1868 c-1 -58 1 -74 7 -53 10 40 12 135 2 135 -4 0 -8 -37 -9
-82z"/>
<path d="M9032 1810 c0 -14 2 -19 5 -12 2 6 2 18 0 25 -3 6 -5 1 -5 -13z"/>
<path d="M7842 1800 c0 -14 2 -19 5 -12 2 6 2 18 0 25 -3 6 -5 1 -5 -13z"/>
<path d="M8492 1780 c0 -19 2 -27 5 -17 2 9 2 25 0 35 -3 9 -5 1 -5 -18z"/>
<path d="M8862 1755 c0 -16 2 -22 5 -12 2 9 2 23 0 30 -3 6 -5 -1 -5 -18z"/>
<path d="M8861 1634 c0 -11 3 -14 6 -6 3 7 2 16 -1 19 -3 4 -6 -2 -5 -13z"/>
<path d="M7786 1617 c3 -10 9 -15 12 -12 3 3 0 11 -7 18 -10 9 -11 8 -5 -6z"/>
<path d="M7861 1598 c-1 -16 4 -28 9 -28 12 0 12 8 0 35 -8 18 -9 17 -9 -7z"/>
<path d="M7997 1603 c-10 -9 -9 -23 1 -23 5 0 9 7 9 15 0 17 -1 18 -10 8z"/>
<path d="M8171 1584 c0 -11 3 -14 6 -6 3 7 2 16 -1 19 -3 4 -6 -2 -5 -13z"/>
<path d="M7791 1574 c0 -11 3 -14 6 -6 3 7 2 16 -1 19 -3 4 -6 -2 -5 -13z"/>
<path d="M8441 1564 c0 -11 3 -14 6 -6 3 7 2 16 -1 19 -3 4 -6 -2 -5 -13z"/>
<path d="M7794 1535 c-4 -8 -2 -36 4 -63 l10 -47 1 63 c1 61 -4 77 -15 47z"/>
<path d="M8991 1534 c0 -11 3 -14 6 -6 3 7 2 16 -1 19 -3 4 -6 -2 -5 -13z"/>
<path d="M7860 1506 c0 -9 5 -16 10 -16 6 0 10 4 10 9 0 6 -4 13 -10 16 -5 3
-10 -1 -10 -9z"/>
<path d="M7621 1434 c0 -11 3 -14 6 -6 3 7 2 16 -1 19 -3 4 -6 -2 -5 -13z"/>
<path d="M7922 1375 c0 -16 2 -22 5 -12 2 9 2 23 0 30 -3 6 -5 -1 -5 -18z"/>
<path d="M8834 1369 c-3 -6 -1 -16 5 -22 8 -8 11 -5 11 11 0 24 -5 28 -16 11z"/>
<path d="M7922 1310 c0 -14 2 -19 5 -12 2 6 2 18 0 25 -3 6 -5 1 -5 -13z"/>
<path d="M8842 1290 c0 -14 2 -19 5 -12 2 6 2 18 0 25 -3 6 -5 1 -5 -13z"/>
<path d="M7920 1231 c0 -6 4 -13 10 -16 6 -3 7 1 4 9 -7 18 -14 21 -14 7z"/>
<path d="M8846 1225 c4 -8 8 -15 10 -15 2 0 4 7 4 15 0 8 -4 15 -10 15 -5 0
-7 -7 -4 -15z"/>
<path d="M7577 1214 c-10 -10 -9 -44 2 -44 13 0 23 32 13 42 -5 5 -11 5 -15 2z"/>
<path d="M7641 1204 c0 -11 3 -14 6 -6 3 7 2 16 -1 19 -3 4 -6 -2 -5 -13z"/>
<path d="M8665 1200 c3 -5 8 -10 11 -10 2 0 4 5 4 10 0 6 -5 10 -11 10 -5 0
-7 -4 -4 -10z"/>
<path d="M9066 1184 c-10 -25 -7 -46 6 -42 14 5 23 58 9 58 -5 0 -12 -7 -15
-16z"/>
<path d="M8527 1170 c3 -11 7 -20 9 -20 2 0 4 9 4 20 0 11 -4 20 -9 20 -5 0
-7 -9 -4 -20z"/>
<path d="M8847 1123 c-3 -16 -1 -32 4 -37 5 -6 9 4 9 27 0 44 -6 48 -13 10z"/>
<path d="M7646 1121 c-4 -7 -5 -15 -2 -18 9 -9 19 4 14 18 -4 11 -6 11 -12 0z"/>
<path d="M8202 1080 c0 -14 2 -19 5 -12 2 6 2 18 0 25 -3 6 -5 1 -5 -13z"/>
<path d="M9130 1035 c0 -14 -4 -25 -9 -25 -28 0 -16 -82 13 -93 27 -11 37 25
24 87 -12 58 -28 75 -28 31z"/>
<path d="M12572 3680 c0 -14 2 -19 5 -12 2 6 2 18 0 25 -3 6 -5 1 -5 -13z"/>
<path d="M15831 3674 c0 -11 3 -14 6 -6 3 7 2 16 -1 19 -3 4 -6 -2 -5 -13z"/>
<path d="M17532 3660 c0 -19 2 -27 5 -17 2 9 2 25 0 35 -3 9 -5 1 -5 -18z"/>
<path d="M6422 3660 c-59 -36 -75 -115 -28 -133 38 -15 136 61 136 104 0 17
-40 49 -62 49 -7 0 -28 -9 -46 -20z m33 -60 c-3 -5 -13 -10 -21 -10 -8 0 -12
5 -9 10 3 6 13 10 21 10 8 0 12 -4 9 -10z"/>
<path d="M10422 3650 c0 -14 2 -19 5 -12 2 6 2 18 0 25 -3 6 -5 1 -5 -13z"/>
<path d="M12581 3624 c0 -11 3 -14 6 -6 3 7 2 16 -1 19 -3 4 -6 -2 -5 -13z"/>
<path d="M6183 3616 c-57 -10 -67 -21 -57 -71 5 -28 11 -33 57 -44 29 -7 60
-15 69 -18 10 -2 21 -16 25 -31 l7 -27 8 33 c5 17 14 32 22 32 17 0 46 33 46
52 0 22 -48 52 -92 57 -4 1 -13 7 -20 14 -10 9 -26 10 -65 3z m17 -66 c0 -5
-4 -10 -9 -10 -6 0 -13 5 -16 10 -3 6 1 10 9 10 9 0 16 -4 16 -10z"/>
<path d="M7862 3605 c0 -16 2 -22 5 -12 2 9 2 23 0 30 -3 6 -5 -1 -5 -18z"/>
<path d="M15840 3592 c0 -22 4 -43 9 -46 5 -4 7 12 4 36 -8 57 -13 61 -13 10z"/>
<path d="M15142 3600 c0 -14 2 -19 5 -12 2 6 2 18 0 25 -3 6 -5 1 -5 -13z"/>
<path d="M12183 3555 c0 -27 2 -38 4 -22 2 15 2 37 0 50 -2 12 -4 0 -4 -28z"/>
<path d="M12581 3554 c0 -11 3 -14 6 -6 3 7 2 16 -1 19 -3 4 -6 -2 -5 -13z"/>
<path d="M11071 3514 c0 -11 3 -14 6 -6 3 7 2 16 -1 19 -3 4 -6 -2 -5 -13z"/>
<path d="M12232 3510 c0 -14 2 -19 5 -12 2 6 2 18 0 25 -3 6 -5 1 -5 -13z"/>
<path d="M14070 3493 c0 -13 5 -23 10 -23 13 0 13 11 0 30 -8 12 -10 11 -10
-7z"/>
<path d="M12170 3486 c0 -17 -62 -28 -72 -12 -5 7 -17 3 -38 -13 -28 -20 -44
-23 -131 -24 -69 -1 -99 -4 -99 -13 0 -12 -44 -24 -91 -24 -15 0 -31 -4 -34
-10 -3 -5 -17 -10 -30 -10 -13 0 -30 -9 -38 -20 -13 -19 -16 -19 -30 -5 -22
21 -25 19 -29 -17 -2 -25 -8 -34 -25 -36 -16 -2 -23 3 -26 20 -4 22 -4 21 -6
-3 -1 -29 -29 -59 -54 -59 -9 0 -17 -4 -17 -8 0 -4 -24 -32 -52 -63 -71 -74
-91 -99 -106 -133 -19 -44 -104 -176 -114 -176 -4 0 -8 -8 -8 -17 0 -9 -14
-45 -31 -80 -30 -61 -49 -73 -49 -31 0 42 -12 8 -16 -44 -7 -95 -13 -161 -24
-248 -12 -98 -14 -133 -6 -175 3 -16 6 -54 7 -82 2 -52 15 -72 21 -33 2 16 15
5 57 -50 52 -66 55 -68 68 -50 10 14 21 18 37 14 12 -3 29 -6 38 -8 27 -3 48
-27 48 -54 0 -25 0 -25 20 -7 20 18 21 18 34 0 8 -11 11 -26 9 -35 -3 -8 2 -5
11 7 10 13 23 19 35 16 25 -6 91 -80 91 -101 1 -15 2 -15 11 1 15 25 39 4 39
-34 0 -30 15 -47 23 -27 4 10 8 10 15 -1 8 -11 11 -9 14 10 4 21 7 18 26 -23
15 -35 27 -48 42 -48 24 0 25 -13 9 -109 -10 -59 -14 -68 -30 -64 -12 4 -19 0
-19 -10 0 -8 -7 -17 -15 -21 -8 -3 -15 -12 -15 -20 0 -9 -9 -20 -20 -26 -13
-7 -20 -21 -20 -39 0 -16 -11 -40 -25 -55 -14 -15 -25 -33 -25 -41 0 -8 -4
-17 -10 -20 -13 -8 -13 -85 -1 -85 5 0 8 -18 6 -41 -2 -31 0 -39 10 -35 19 7
38 -20 32 -46 -4 -14 2 -31 19 -50 13 -16 24 -25 24 -19 0 6 5 11 10 11 6 0
10 -7 10 -15 0 -8 5 -15 10 -15 6 0 10 7 10 15 0 21 30 19 32 -2 0 -10 0 -30
-1 -45 -1 -16 3 -28 9 -28 6 0 9 4 5 9 -22 36 67 -3 93 -40 7 -11 25 -19 41
-19 32 0 51 -16 44 -39 -4 -13 -2 -13 10 2 15 18 17 18 59 -2 40 -18 57 -38
71 -81 5 -12 6 -12 6 1 1 19 27 33 43 23 5 -3 7 -12 4 -20 -8 -21 11 -27 23
-7 9 16 12 16 21 3 8 -13 10 -12 10 4 0 12 5 16 15 12 8 -3 15 -1 15 4 0 10
51 -9 61 -23 4 -5 25 -11 47 -12 33 -3 42 1 52 21 17 30 28 31 35 1 7 -28 35
-32 35 -5 0 12 7 18 23 18 13 0 33 9 45 20 12 12 22 16 22 11 0 -5 14 -12 30
-16 17 -4 28 -11 24 -16 -3 -5 0 -9 5 -9 6 0 11 5 11 11 0 6 7 9 15 5 9 -3 26
9 46 33 22 28 36 37 50 34 10 -3 19 -1 19 5 0 31 101 16 133 -20 17 -20 17
-20 17 0 0 11 7 25 15 32 8 7 15 18 15 25 0 18 45 38 69 30 14 -4 21 -2 21 6
0 21 18 -3 23 -31 2 -14 5 0 6 31 1 58 22 96 35 64 3 -8 9 -14 13 -13 4 1 22
-5 38 -14 17 -9 39 -17 50 -19 25 -4 65 29 65 53 0 11 7 18 19 18 11 0 29 18
46 44 15 25 36 47 45 49 10 3 21 19 25 38 l7 33 24 -27 c25 -29 24 -29 89 6
29 16 30 18 27 78 -3 70 12 121 34 112 8 -3 14 -17 15 -32 1 -20 3 -18 11 14
7 28 6 59 -2 103 -10 50 -10 72 -1 100 10 31 10 43 -3 72 -18 40 -50 80 -64
80 -5 0 -22 12 -37 26 -32 30 -91 57 -105 49 -5 -3 -13 2 -18 10 -5 9 -15 17
-23 19 -27 4 -108 57 -113 74 -15 51 -16 93 -3 148 10 44 12 76 6 115 -5 30
-10 73 -10 96 -2 39 -3 41 -26 32 -18 -7 -25 -5 -29 6 -5 12 -9 11 -23 -7 -18
-21 -18 -21 -16 13 2 19 7 64 13 102 7 42 7 79 1 99 -6 24 -3 55 11 116 22 92
25 115 11 93 -6 -9 -13 7 -22 50 -14 61 -16 64 -43 63 -25 0 -32 6 -48 43 -11
24 -23 41 -27 39 -4 -3 -23 24 -42 59 -19 36 -42 68 -51 71 -10 3 -18 10 -18
16 0 14 -42 47 -62 48 -26 0 -48 29 -48 63 0 29 -1 30 -14 12 -13 -18 -15 -18
-52 15 -21 18 -51 51 -66 71 -34 46 -59 64 -118 79 -25 7 -52 15 -60 18 -8 3
-28 7 -45 8 -34 1 -58 9 -97 30 -14 8 -38 14 -52 14 -16 0 -26 6 -26 15 0 8
-4 15 -10 15 -5 0 -10 -6 -10 -14z m135 -126 c3 -11 11 -20 16 -20 5 0 9 -11
9 -24 0 -14 5 -28 10 -31 6 -3 10 3 10 15 0 14 5 20 13 16 6 -3 19 -8 27 -12
8 -3 23 -25 34 -50 16 -39 36 -59 36 -35 0 17 59 -13 64 -32 3 -13 10 -17 24
-13 11 4 26 1 34 -7 7 -7 19 -12 27 -9 7 2 33 -16 56 -42 24 -25 48 -46 53
-46 12 0 42 -45 52 -79 5 -16 9 -19 9 -8 1 23 5 22 59 -18 70 -54 98 -103 106
-187 3 -39 11 -90 17 -114 7 -28 8 -49 2 -57 -10 -13 -9 -149 2 -213 10 -57
-9 -65 -35 -15 -17 35 -23 39 -43 33 -12 -4 -40 -7 -62 -7 -22 0 -43 -4 -47
-9 -7 -10 -21 -14 -83 -21 -22 -2 -41 -9 -43 -15 -2 -5 -9 -10 -16 -10 -7 0
-19 -15 -28 -32 -19 -41 -19 -229 0 -236 7 -2 12 -9 12 -16 0 -17 58 -58 65
-46 3 6 17 10 31 10 18 0 24 -6 25 -22 1 -17 2 -19 6 -5 2 9 10 17 17 17 7 0
21 9 31 20 12 14 22 17 30 10 8 -6 18 -5 31 5 10 8 31 15 46 15 18 0 29 7 33
20 3 11 12 20 18 20 9 0 12 -33 12 -115 0 -89 3 -118 14 -124 8 -5 16 -26 18
-46 2 -21 4 -40 5 -44 3 -25 -33 -76 -45 -64 -4 3 -19 -7 -33 -22 -21 -23 -28
-25 -35 -14 -7 11 -9 9 -9 -8 0 -13 -4 -23 -10 -23 -5 0 -10 -7 -10 -15 0 -8
-5 -24 -12 -34 -9 -15 -17 -17 -36 -10 -16 6 -29 6 -38 -2 -7 -6 -18 -8 -24
-4 -5 3 -10 -1 -10 -10 0 -12 -7 -15 -31 -11 -21 3 -32 0 -36 -11 -8 -20 -54
-37 -63 -23 -11 19 -2 134 14 172 9 20 15 47 13 59 -4 35 21 33 37 -3 8 -18
15 -28 15 -21 1 8 13 10 36 6 30 -5 35 -3 40 18 11 47 12 88 2 92 -5 1 -12 26
-14 54 -5 47 -7 51 -24 40 -14 -9 -22 -8 -36 5 -13 12 -23 14 -35 7 -11 -6
-19 -6 -23 1 -12 19 -22 1 -19 -35 2 -36 -18 -50 -30 -20 -11 28 -84 9 -87
-23 0 -4 -2 -20 -3 -37 -10 -89 -10 -110 -1 -110 6 0 29 -16 53 -34 l43 -35
-3 -80 c-3 -79 -3 -80 -36 -99 -32 -19 -33 -19 -47 -1 -13 18 -14 18 -15 2 0
-18 -14 -23 -63 -19 -20 2 -29 -3 -36 -21 -5 -13 -16 -30 -25 -37 -14 -12 -16
-10 -16 18 0 23 -5 31 -17 32 -11 0 -13 3 -5 6 14 6 16 43 2 43 -5 0 -10 -7
-10 -15 0 -8 -6 -15 -14 -15 -14 0 -36 66 -39 118 -2 27 -27 29 -34 2 -6 -24
-22 -25 -49 -6 -10 8 -29 13 -40 10 -14 -4 -23 0 -27 10 -7 16 -37 23 -37 8 0
-5 -6 -9 -12 -9 -7 0 -20 -4 -28 -7 -12 -5 -19 4 -28 38 -8 32 -17 45 -34 49
-13 4 -32 13 -43 21 -16 11 -17 17 -8 27 8 8 9 18 2 31 -7 13 -6 18 2 18 9 0
10 27 6 101 -3 56 -9 104 -12 108 -4 3 -5 -31 -3 -76 2 -62 0 -83 -9 -83 -7 0
-13 7 -13 15 0 8 -4 15 -9 15 -13 0 -21 30 -31 108 l-7 67 -2 -67 c-1 -65 -2
-67 -28 -70 -20 -2 -29 -9 -31 -26 l-3 -23 -18 23 c-16 22 -36 81 -44 138 -4
21 -4 20 -6 -6 -1 -35 -23 -59 -45 -51 -8 3 -14 22 -14 53 -2 58 -12 73 -12
16 0 -43 -15 -56 -27 -24 -4 9 -11 21 -17 25 -8 6 -7 10 2 14 6 2 12 9 12 14
0 5 -11 2 -24 -6 -33 -22 -68 -11 -114 34 -20 20 -48 41 -62 47 -63 28 -80 38
-80 46 0 4 -7 8 -15 8 -8 0 -15 -5 -15 -11 0 -7 -10 -5 -25 5 -14 9 -29 15
-33 12 -10 -6 -37 15 -51 41 -6 13 -17 22 -24 20 -8 -1 -13 14 -15 43 -1 25
-5 65 -8 89 -4 26 -2 46 4 50 6 3 12 30 14 58 2 28 7 51 13 50 5 -1 10 8 10
21 0 13 5 26 11 30 11 7 27 70 39 150 8 49 37 74 54 45 12 -23 20 -15 25 28 3
19 14 56 25 82 12 27 21 55 21 62 0 17 41 27 57 13 10 -8 13 -6 13 8 0 17 1
17 14 -1 12 -17 14 -14 20 29 4 26 15 56 24 66 35 38 41 49 52 88 12 47 25 59
44 42 9 -7 15 -7 18 -1 1 5 16 12 31 15 16 3 35 10 42 16 8 7 18 9 24 6 5 -3
11 1 15 9 12 33 105 8 107 -29 0 -12 4 -30 8 -41 6 -15 8 -9 9 22 0 24 3 46 6
51 8 13 91 51 117 54 13 2 29 8 34 15 16 18 72 4 80 -21 l8 -21 4 23 c4 21 21
27 66 22 10 -1 25 4 32 10 8 7 21 10 28 7 8 -3 21 3 30 14 22 25 44 24 52 -1z
m525 -326 c0 -8 -4 -12 -10 -9 -5 3 -10 10 -10 16 0 5 5 9 10 9 6 0 10 -7 10
-16z m-1598 -136 c-9 -9 -12 -7 -12 12 0 19 3 21 12 12 9 -9 9 -15 0 -24z
m1788 -594 c0 -8 -4 -12 -10 -9 -5 3 -10 10 -10 16 0 5 5 9 10 9 6 0 10 -7 10
-16z m-23 -146 c-3 -7 -5 -2 -5 12 0 14 2 19 5 13 2 -7 2 -19 0 -25z m396
-487 c48 -45 57 -59 57 -88 0 -35 -6 -36 -41 -6 -14 12 -17 12 -22 -1 -3 -8
-2 -30 4 -48 14 -49 12 -57 -18 -64 -16 -4 -35 -14 -44 -23 -10 -9 -31 -29
-48 -45 -21 -19 -30 -34 -26 -46 4 -13 -3 -22 -26 -34 -40 -20 -38 -20 -48 7
-7 19 -9 17 -15 -18 -6 -36 -12 -43 -54 -62 -39 -19 -49 -20 -61 -9 -11 12 -8
17 18 37 17 12 31 30 31 38 1 9 10 27 21 40 17 21 24 23 39 13 21 -13 33 -3
45 36 8 27 49 74 58 66 3 -3 10 4 17 15 12 23 16 233 4 252 -12 19 17 28 36
10 9 -9 42 -40 73 -70z m-224 21 c15 -6 34 -25 44 -41 17 -29 17 -31 -4 -55
-12 -14 -26 -23 -31 -20 -4 3 -8 1 -8 -4 0 -6 -8 -8 -17 -6 -36 8 -58 -23 -58
-81 0 -50 -1 -53 -15 -36 -8 10 -22 21 -30 23 -24 8 -69 -23 -72 -51 -4 -35
-20 -36 -58 -4 -35 29 -60 38 -60 22 0 -6 -6 -7 -12 -3 -10 6 -10 4 0 -8 10
-13 10 -17 -2 -21 -9 -4 -18 -27 -23 -59 -4 -29 -9 -45 -11 -36 -2 9 -14 24
-28 32 -33 22 -35 81 -3 73 27 -7 49 1 49 19 0 20 31 34 52 23 15 -8 29 0 74
46 31 30 59 53 64 50 5 -3 13 3 19 12 9 17 10 17 16 1 10 -24 25 -12 25 19 0
14 10 57 23 94 19 60 23 66 31 46 5 -13 20 -29 35 -35z m-115 6 c-9 -14 -24 2
-24 25 1 21 1 21 15 3 8 -10 12 -23 9 -28z m-103 -91 c-8 -8 -11 -4 -11 14 0
33 14 47 18 19 2 -12 -1 -27 -7 -33z m-1261 -46 c0 -13 -28 -33 -41 -29 -8 3
-6 9 5 21 19 18 36 22 36 8z m1210 -13 c0 -16 -3 -19 -11 -11 -6 6 -8 16 -5
22 11 17 16 13 16 -11z m-1037 -23 c4 -8 2 -17 -3 -20 -6 -4 -10 3 -10 14 0
25 6 27 13 6z m107 -47 c0 -42 21 -78 47 -78 17 0 17 -7 -4 -29 -17 -18 -35
-25 -58 -22 -6 0 -12 20 -12 43 -1 25 -8 45 -17 50 -8 4 -18 22 -21 40 -6 24
-3 35 10 44 30 22 55 0 55 -48z m1430 -43 c0 -8 6 -15 13 -15 8 0 9 -2 1 -8
-6 -4 -14 -17 -18 -29 -4 -13 -15 -23 -26 -23 -22 0 -35 16 -20 25 5 3 10 14
10 24 0 18 18 41 32 41 4 0 8 -7 8 -15z m-757 -36 c-3 -12 -1 -24 5 -28 14 -9
3 -53 -12 -48 -11 4 -18 70 -10 95 7 22 23 4 17 -19z m-873 12 c0 -6 -4 -13
-10 -16 -5 -3 -10 1 -10 9 0 9 5 16 10 16 6 0 10 -4 10 -9z m296 -44 c3 -33
-7 -40 -38 -28 -17 7 -18 10 -5 10 11 1 17 9 17 27 0 34 22 26 26 -9z m664 -4
c-1 -5 -12 -21 -25 -38 -21 -25 -27 -28 -35 -15 -14 21 -12 30 5 30 8 0 15 7
15 15 0 8 9 15 20 15 11 0 20 -3 20 -7z m-1150 -18 c0 -8 -4 -15 -9 -15 -13 0
-22 16 -14 24 11 11 23 6 23 -9z m980 -47 c0 -32 -3 -39 -17 -36 -19 3 -30 56
-19 85 11 28 36 -6 36 -49z m27 10 c-3 -8 -6 -5 -6 6 -1 11 2 17 5 13 3 -3 4
-12 1 -19z m-200 -26 c7 -7 13 -21 13 -30 0 -12 3 -13 11 -5 29 29 51 -16 28
-58 -8 -16 -13 -18 -25 -8 -8 6 -14 9 -14 5 0 -4 -11 1 -25 10 -19 13 -25 25
-25 54 0 46 11 82 18 60 3 -8 11 -21 19 -28z m886 31 c11 -10 -13 -32 -29 -26
-11 4 -12 9 -3 19 13 15 22 18 32 7z m-949 -100 c-15 -44 -34 -40 -34 6 0 23
6 50 13 62 11 19 12 18 21 -11 6 -19 6 -42 0 -57z m-574 56 c0 -5 -4 -9 -10
-9 -5 0 -10 7 -10 16 0 8 5 12 10 9 6 -3 10 -10 10 -16z m175 11 c3 -5 1 -10
-4 -10 -6 0 -11 5 -11 10 0 6 2 10 4 10 3 0 8 -4 11 -10z m50 0 c8 -13 -5 -13
-25 0 -13 8 -13 10 2 10 9 0 20 -4 23 -10z m195 -10 c0 -5 -4 -10 -10 -10 -5
0 -10 5 -10 10 0 6 5 10 10 10 6 0 10 -4 10 -10z m670 -10 c0 -5 -9 -10 -21
-10 -11 0 -17 5 -14 10 3 6 13 10 21 10 8 0 14 -4 14 -10z m-1055 -24 c13 -20
14 -29 5 -47 -9 -16 -14 -18 -20 -9 -4 7 -14 10 -22 7 -11 -4 -14 1 -11 21 10
60 22 67 48 28z m70 10 c8 -7 18 -28 22 -46 10 -38 33 -53 33 -21 0 14 5 19
15 15 8 -4 15 -16 15 -28 0 -12 7 -32 16 -44 14 -21 14 -22 -8 -22 -13 0 -29
9 -36 20 -7 11 -22 20 -35 20 -35 0 -45 12 -47 55 -3 71 0 77 25 51z m1175 -6
c0 -6 -8 -14 -17 -17 -10 -4 -21 -11 -25 -17 -4 -6 -10 -7 -14 -3 -9 9 26 46
44 46 6 1 12 -4 12 -9z m130 -18 c0 -13 -12 -22 -22 -16 -10 6 -1 24 13 24 5
0 9 -4 9 -8z m-212 -44 c2 -38 1 -40 -12 -23 -13 18 -14 18 -27 -3 -14 -22
-39 -30 -39 -13 0 5 3 23 6 40 6 28 10 32 30 27 12 -3 26 -2 29 4 10 16 12 12
13 -32z m-92 -14 c8 -32 -19 -65 -37 -47 -9 9 -9 19 1 42 15 38 28 39 36 5z
m-736 -34 c0 -5 -4 -10 -10 -10 -5 0 -10 5 -10 10 0 6 5 10 10 10 6 0 10 -4
10 -10z m670 -19 c0 -5 -9 -7 -20 -4 -11 3 -20 7 -20 9 0 2 9 4 20 4 11 0 20
-4 20 -9z m-170 -37 c0 -8 -4 -12 -10 -9 -5 3 -10 10 -10 16 0 5 5 9 10 9 6 0
10 -7 10 -16z m-630 -25 c0 -5 -4 -9 -10 -9 -5 0 -10 7 -10 16 0 8 5 12 10 9
6 -3 10 -10 10 -16z m311 -11 c3 -6 10 -9 15 -9 5 1 9 -9 9 -21 0 -14 -6 -23
-15 -23 -9 0 -15 9 -15 22 0 29 -19 31 -23 3 -4 -26 -35 -23 -40 3 -7 34 5 48
35 41 16 -4 31 -11 34 -16z m269 -3 c0 -16 -27 -32 -37 -22 -3 4 -3 13 0 22 8
20 37 20 37 0z m-370 -35 c0 -24 -3 -27 -21 -23 -29 8 -36 33 -14 49 24 18 35
9 35 -26z m290 30 c0 -5 -2 -10 -4 -10 -3 0 -8 5 -11 10 -3 6 -1 10 4 10 6 0
11 -4 11 -10z m-64 -19 c9 8 11 5 7 -9 -6 -23 -63 -29 -63 -7 0 17 22 26 34
14 5 -5 15 -4 22 2z m-146 -91 c0 -5 -4 -10 -10 -10 -5 0 -10 5 -10 10 0 6 5
10 10 10 6 0 10 -4 10 -10z"/>
<path d="M11991 3274 c0 -11 3 -14 6 -6 3 7 2 16 -1 19 -3 4 -6 -2 -5 -13z"/>
<path d="M12130 2777 c4 -41 5 -41 8 -8 2 18 0 37 -5 42 -5 5 -6 -11 -3 -34z"/>
<path d="M12440 2781 c0 -6 5 -13 10 -16 6 -3 10 1 10 9 0 9 -4 16 -10 16 -5
0 -10 -4 -10 -9z"/>
<path d="M12002 2710 c0 -19 2 -27 5 -17 2 9 2 25 0 35 -3 9 -5 1 -5 -18z"/>
<path d="M12503 2660 c0 -30 2 -43 4 -27 2 15 2 39 0 55 -2 15 -4 2 -4 -28z"/>
<path d="M12202 2680 c0 -14 2 -19 5 -12 2 6 2 18 0 25 -3 6 -5 1 -5 -13z"/>
<path d="M12397 2672 c-7 -10 -2 -90 5 -97 3 -3 5 19 5 50 -1 55 -2 61 -10 47z"/>
<path d="M12818 2625 c2 -14 6 -25 8 -25 2 0 4 11 4 25 0 14 -4 25 -9 25 -4 0
-6 -11 -3 -25z"/>
<path d="M12870 2590 c0 -11 2 -20 4 -20 2 0 6 9 9 20 3 11 1 20 -4 20 -5 0
-9 -9 -9 -20z"/>
<path d="M12212 2550 c0 -19 2 -27 5 -17 2 9 2 25 0 35 -3 9 -5 1 -5 -18z"/>
<path d="M11793 2315 c0 -22 2 -30 4 -17 2 12 2 30 0 40 -3 9 -5 -1 -4 -23z"/>
<path d="M11841 2264 c0 -11 3 -14 6 -6 3 7 2 16 -1 19 -3 4 -6 -2 -5 -13z"/>
<path d="M12440 2242 c0 -23 5 -42 10 -42 7 0 8 14 4 38 -9 51 -14 53 -14 4z"/>
<path d="M12282 2223 c-6 -10 -27 -27 -47 -38 -55 -29 -101 -75 -130 -128 -20
-38 -25 -62 -25 -119 0 -97 15 -142 51 -155 24 -9 29 -18 30 -45 l2 -33 6 35
c5 32 11 36 41 32 5 -1 16 -14 23 -28 9 -17 17 -23 21 -15 4 6 2 11 -3 11 -6
0 -11 5 -11 11 0 5 4 7 10 4 5 -3 15 3 22 15 13 21 68 29 68 10 0 -5 7 -10 16
-10 11 0 14 4 8 13 -18 24 -10 51 16 57 14 3 25 11 25 17 0 7 6 18 13 24 6 7
12 19 12 26 0 7 5 13 10 13 6 0 10 -6 10 -14 0 -8 4 -17 9 -20 8 -5 8 205 0
240 -1 6 -11 9 -21 6 -13 -3 -18 1 -18 16 0 17 -10 49 -25 79 -1 2 -17 -2 -35
-7 -27 -8 -37 -6 -51 6 -16 14 -18 14 -27 -3z"/>
<path d="M11840 2216 c0 -9 5 -16 10 -16 6 0 10 4 10 9 0 6 -4 13 -10 16 -5 3
-10 -1 -10 -9z"/>
<path d="M12517 2088 c-3 -24 -2 -47 4 -52 5 -6 9 9 9 42 0 63 -5 67 -13 10z"/>
<path d="M11920 2055 c0 -14 4 -25 9 -25 4 0 6 11 3 25 -2 14 -6 25 -8 25 -2
0 -4 -11 -4 -25z"/>
<path d="M12822 2010 c0 -14 2 -19 5 -12 2 6 2 18 0 25 -3 6 -5 1 -5 -13z"/>
<path d="M12933 1850 c0 -41 2 -58 4 -37 2 20 2 54 0 75 -2 20 -4 3 -4 -38z"/>
<path d="M12457 1833 c-4 -3 -7 -34 -7 -67 1 -71 14 -59 25 22 6 48 0 64 -18
45z"/>
<path d="M12833 1790 c0 -25 2 -35 4 -22 2 12 2 32 0 45 -2 12 -4 2 -4 -23z"/>
<path d="M12831 1714 c0 -11 3 -14 6 -6 3 7 2 16 -1 19 -3 4 -6 -2 -5 -13z"/>
<path d="M12741 1704 c0 -11 3 -14 6 -6 3 7 2 16 -1 19 -3 4 -6 -2 -5 -13z"/>
<path d="M12233 1668 l0 -43 10 33 c7 23 7 36 0 43 -7 7 -11 -3 -10 -33z"/>
<path d="M12450 1685 c0 -8 4 -15 10 -15 5 0 7 7 4 15 -4 8 -8 15 -10 15 -2 0
-4 -7 -4 -15z"/>
<path d="M12332 1660 c0 -14 2 -19 5 -12 2 6 2 18 0 25 -3 6 -5 1 -5 -13z"/>
<path d="M13406 1621 c-4 -7 -5 -15 -2 -18 9 -9 19 4 14 18 -4 11 -6 11 -12 0z"/>
<path d="M13266 1437 c3 -10 9 -15 12 -12 3 3 0 11 -7 18 -10 9 -11 8 -5 -6z"/>
<path d="M11372 3465 c0 -16 2 -22 5 -12 2 9 2 23 0 30 -3 6 -5 -1 -5 -18z"/>
<path d="M11521 3444 c0 -11 3 -14 6 -6 3 7 2 16 -1 19 -3 4 -6 -2 -5 -13z"/>
<path d="M13091 3394 c0 -11 3 -14 6 -6 3 7 2 16 -1 19 -3 4 -6 -2 -5 -13z"/>
<path d="M17782 3390 c0 -14 2 -19 5 -12 2 6 2 18 0 25 -3 6 -5 1 -5 -13z"/>
<path d="M11522 3375 c0 -16 2 -22 5 -12 2 9 2 23 0 30 -3 6 -5 -1 -5 -18z"/>
<path d="M5112 3335 c0 -16 2 -22 5 -12 2 9 2 23 0 30 -3 6 -5 -1 -5 -18z"/>
<path d="M11445 3340 c-3 -5 -1 -18 4 -27 9 -16 10 -14 11 10 0 28 -5 34 -15
17z"/>
<path d="M15512 3320 c0 -14 2 -19 5 -12 2 6 2 18 0 25 -3 6 -5 1 -5 -13z"/>
<path d="M5275 3300 c-4 -13 -18 -23 -36 -27 -16 -3 -32 -10 -35 -14 -9 -15
-40 -10 -66 11 -17 12 -28 16 -35 9 -6 -6 -14 -5 -23 6 -16 19 -30 19 -30 0 0
-8 -8 -15 -18 -15 -36 0 -72 -24 -72 -48 0 -58 37 -75 161 -77 43 0 74 -6 90
-17 18 -11 30 -13 42 -6 10 5 21 7 26 3 5 -3 12 4 16 14 8 26 76 79 93 74 7
-3 12 4 12 16 0 23 -16 37 -23 19 -4 -9 -6 -7 -6 3 -1 9 -16 22 -33 29 -18 7
-38 19 -45 27 -9 12 -12 11 -18 -7z"/>
<path d="M16897 3300 c3 -11 7 -20 9 -20 2 0 4 9 4 20 0 11 -4 20 -9 20 -5 0
-7 -9 -4 -20z"/>
<path d="M17296 3278 c6 -58 14 -61 14 -5 0 26 -4 47 -9 47 -5 0 -7 -19 -5
-42z"/>
<path d="M17792 3290 c0 -14 2 -19 5 -12 2 6 2 18 0 25 -3 6 -5 1 -5 -13z"/>
<path d="M15871 3264 c0 -11 3 -14 6 -6 3 7 2 16 -1 19 -3 4 -6 -2 -5 -13z"/>
<path d="M7102 3230 c0 -19 2 -27 5 -17 2 9 2 25 0 35 -3 9 -5 1 -5 -18z"/>
<path d="M15810 3241 c0 -11 5 -23 10 -26 6 -4 10 5 10 19 0 14 -4 26 -10 26
-5 0 -10 -9 -10 -19z"/>
<path d="M6132 3230 c0 -14 2 -19 5 -12 2 6 2 18 0 25 -3 6 -5 1 -5 -13z"/>
<path d="M18952 3225 c0 -16 2 -22 5 -12 2 9 2 23 0 30 -3 6 -5 -1 -5 -18z"/>
<path d="M14691 3204 c0 -11 3 -14 6 -6 3 7 2 16 -1 19 -3 4 -6 -2 -5 -13z"/>
<path d="M15501 3184 c0 -11 3 -14 6 -6 3 7 2 16 -1 19 -3 4 -6 -2 -5 -13z"/>
<path d="M6207 3175 c-4 -10 -16 -13 -42 -10 -38 5 -40 3 -25 -26 8 -15 7 -19
-4 -19 -8 0 -19 -7 -23 -15 -8 -13 -14 -11 -43 10 -40 29 -60 31 -123 9 -43
-15 -47 -18 -47 -49 0 -65 78 -125 162 -125 24 0 49 -5 56 -12 9 -9 12 -9 12
0 0 7 5 12 10 12 6 0 10 -7 10 -15 0 -16 12 -20 23 -8 4 3 21 8 38 10 20 2 45
17 70 43 45 46 58 49 60 18 1 -13 5 2 10 32 5 30 7 64 4 75 -4 20 -35 38 -88
51 -16 3 -31 13 -34 20 -7 18 -19 18 -26 -1z"/>
<path d="M9103 3135 c0 -27 2 -38 4 -22 2 15 2 37 0 50 -2 12 -4 0 -4 -28z"/>
<path d="M14862 3135 c0 -16 3 -39 8 -50 8 -18 9 -18 8 5 0 14 -4 36 -8 50 -8
24 -8 24 -8 -5z"/>
<path d="M14921 3144 c0 -11 3 -14 6 -6 3 7 2 16 -1 19 -3 4 -6 -2 -5 -13z"/>
<path d="M15086 3135 c8 -37 14 -45 14 -19 0 10 -5 26 -10 34 -8 11 -9 7 -4
-15z"/>
<path d="M16941 3113 c0 -4 4 -17 9 -28 8 -19 9 -19 9 2 1 12 -3 25 -9 28 -5
3 -10 3 -9 -2z"/>
<path d="M16897 3025 c3 -44 7 -82 9 -84 7 -8 3 84 -6 124 -6 29 -7 19 -3 -40z"/>
<path d="M17622 3060 c0 -19 2 -27 5 -17 2 9 2 25 0 35 -3 9 -5 1 -5 -18z"/>
<path d="M11171 3000 c1 -42 1 -43 9 -16 6 17 5 36 0 45 -7 11 -9 3 -9 -29z"/>
<path d="M7460 2947 c0 -42 4 -77 8 -77 9 0 7 138 -2 147 -3 4 -6 -28 -6 -70z"/>
<path d="M15803 2970 c0 -25 2 -35 4 -22 2 12 2 32 0 45 -2 12 -4 2 -4 -23z"/>
<path d="M2373 2990 c-47 -10 -83 -26 -83 -39 0 -5 -13 -23 -29 -40 -37 -39
-64 -97 -64 -135 0 -76 4 -87 47 -135 24 -27 49 -66 56 -86 9 -27 15 -34 21
-24 6 11 11 11 21 1 14 -14 78 -16 78 -2 0 6 7 10 16 10 14 0 15 7 10 39 -8
52 -43 105 -83 124 -30 15 -31 19 -35 84 -2 39 1 73 7 80 5 6 33 14 60 16 28
3 57 8 65 11 22 10 52 54 45 66 -6 10 -72 41 -84 39 -3 -1 -25 -5 -48 -9z"/>
<path d="M17212 2970 c0 -14 3 -45 7 -70 l8 -45 1 45 c0 25 -4 56 -8 70 l-8
25 0 -25z"/>
<path d="M17343 2945 c0 -27 2 -38 4 -22 2 15 2 37 0 50 -2 12 -4 0 -4 -28z"/>
<path d="M17961 2974 c0 -11 3 -14 6 -6 3 7 2 16 -1 19 -3 4 -6 -2 -5 -13z"/>
<path d="M3284 2929 c-3 -5 -16 -9 -29 -9 -13 0 -37 -14 -54 -31 -40 -39 -43
-89 -7 -112 22 -15 28 -14 91 18 77 40 105 69 98 105 -2 13 -6 26 -7 27 -8 8
-87 9 -92 2z"/>
<path d="M14941 2891 c-1 -27 2 -32 11 -23 8 8 8 17 0 34 -10 22 -11 21 -11
-11z"/>
<path d="M14882 2890 c0 -14 2 -19 5 -12 2 6 2 18 0 25 -3 6 -5 1 -5 -13z"/>
<path d="M3558 2865 c-3 -16 -1 -25 7 -25 8 0 10 9 7 25 -2 14 -6 25 -7 25 -1
0 -5 -11 -7 -25z"/>
<path d="M15177 2866 c-3 -8 -2 -27 3 -43 8 -26 8 -25 9 15 1 43 -3 52 -12 28z"/>
<path d="M14242 2850 c0 -14 2 -19 5 -12 2 6 2 18 0 25 -3 6 -5 1 -5 -13z"/>
<path d="M2995 2829 c-78 -40 -101 -85 -69 -134 12 -18 20 -22 32 -16 10 5 44
22 76 39 32 16 66 42 75 57 15 25 15 27 -12 51 -34 29 -51 30 -102 3z m65 -48
c0 -4 -11 -6 -25 -3 -14 2 -25 6 -25 8 0 2 11 4 25 4 14 0 25 -4 25 -9z m-52
-26 c-2 -1 -13 -8 -25 -14 -19 -10 -23 -9 -23 3 0 8 8 16 18 19 16 3 37 -2 30
-8z"/>
<path d="M6235 2830 c3 -5 8 -10 11 -10 2 0 4 5 4 10 0 6 -5 10 -11 10 -5 0
-7 -4 -4 -10z"/>
<path d="M11003 2795 c0 -22 2 -30 4 -17 2 12 2 30 0 40 -3 9 -5 -1 -4 -23z"/>
<path d="M17311 2814 c0 -11 3 -14 6 -6 3 7 2 16 -1 19 -3 4 -6 -2 -5 -13z"/>
<path d="M18290 2811 c0 -12 5 -21 10 -21 6 0 10 6 10 14 0 8 -4 18 -10 21 -5
3 -10 -3 -10 -14z"/>
<path d="M13642 2800 c0 -14 2 -19 5 -12 2 6 2 18 0 25 -3 6 -5 1 -5 -13z"/>
<path d="M3129 2774 c-1 -16 -2 -36 -3 -44 -1 -8 -9 -32 -20 -54 -20 -42 -17
-83 9 -123 20 -29 70 -32 85 -4 23 45 3 137 -35 159 -9 4 -17 25 -19 45 -4 47
-15 60 -17 21z m40 -141 c0 -11 -3 -13 -6 -5 -2 6 -9 10 -14 6 -5 -3 -9 0 -9
5 0 6 7 11 15 11 8 0 15 -8 14 -17z"/>
<path d="M2611 2734 c-13 -46 -4 -89 27 -136 24 -37 80 -78 107 -78 8 0 19 -8
24 -17 10 -17 10 -16 11 2 1 11 4 38 6 61 3 25 -1 51 -11 70 -8 16 -15 34 -15
39 0 6 -10 21 -23 35 -13 14 -26 33 -30 43 -5 12 -17 17 -46 17 -37 0 -41 -2
-50 -36z"/>
<path d="M4799 2720 c-18 -32 -25 -37 -39 -30 -51 27 -130 5 -130 -36 0 -32
58 -51 111 -35 21 6 49 9 63 5 62 -15 145 83 104 124 -7 7 -29 12 -49 12 -33
0 -40 -5 -60 -40z"/>
<path d="M14251 2744 c0 -11 3 -14 6 -6 3 7 2 16 -1 19 -3 4 -6 -2 -5 -13z"/>
<path d="M17321 2724 c0 -11 3 -14 6 -6 3 7 2 16 -1 19 -3 4 -6 -2 -5 -13z"/>
<path d="M5515 2713 c-11 -3 -24 -11 -28 -19 -6 -10 -25 -12 -80 -8 -69 5 -73
4 -103 -24 -31 -29 -43 -75 -23 -88 5 -3 9 2 9 10 0 20 10 20 36 2 26 -18 184
-27 201 -12 6 6 30 26 52 45 23 19 41 44 41 54 0 37 -45 54 -105 40z m12 -76
c-6 -20 -27 -19 -27 2 0 14 5 19 15 14 9 -3 14 -10 12 -16z"/>
<path d="M14670 2696 c0 -9 5 -16 10 -16 6 0 10 4 10 9 0 6 -4 13 -10 16 -5 3
-10 -1 -10 -9z"/>
<path d="M15121 2684 c0 -11 3 -14 6 -6 3 7 2 16 -1 19 -3 4 -6 -2 -5 -13z"/>
<path d="M6571 2654 c0 -11 3 -14 6 -6 3 7 2 16 -1 19 -3 4 -6 -2 -5 -13z"/>
<path d="M13070 2636 c0 -8 5 -18 10 -21 6 -3 10 3 10 14 0 12 -4 21 -10 21
-5 0 -10 -6 -10 -14z"/>
<path d="M1882 2627 c-21 -25 23 -137 104 -263 37 -58 58 -74 98 -74 23 0 26
4 26 38 0 21 -8 56 -19 78 -10 21 -27 57 -37 79 -21 46 -124 155 -147 155 -8
0 -19 -6 -25 -13z"/>
<path d="M9182 2600 c0 -14 2 -19 5 -12 2 6 2 18 0 25 -3 6 -5 1 -5 -13z"/>
<path d="M15992 2600 c0 -14 2 -19 5 -12 2 6 2 18 0 25 -3 6 -5 1 -5 -13z"/>
<path d="M126 2603 c-4 -5 -24 -13 -44 -20 -35 -11 -33 -12 28 -6 72 6 75 7
65 22 -7 13 -38 15 -49 4z"/>
<path d="M14441 2594 c0 -11 3 -14 6 -6 3 7 2 16 -1 19 -3 4 -6 -2 -5 -13z"/>
<path d="M14831 2594 c0 -11 3 -14 6 -6 3 7 2 16 -1 19 -3 4 -6 -2 -5 -13z"/>
<path d="M13073 2584 c-3 -8 -1 -20 6 -27 8 -8 11 -4 11 16 0 30 -7 35 -17 11z"/>
<path d="M6570 2559 c0 -11 4 -18 10 -14 5 3 7 12 3 20 -7 21 -13 19 -13 -6z"/>
<path d="M15292 2550 c0 -19 2 -27 5 -17 2 9 2 25 0 35 -3 9 -5 1 -5 -18z"/>
<path d="M16371 2540 c-1 -14 -3 -34 -5 -45 -2 -11 -1 -14 1 -7 3 7 9 10 14 7
11 -7 11 23 -1 50 -8 18 -9 18 -9 -5z"/>
<path d="M2810 2524 c-15 -38 -12 -101 6 -136 8 -16 16 -44 16 -62 2 -39 -4
-146 -8 -146 -1 0 -25 16 -54 35 -56 38 -90 44 -114 20 -33 -33 -30 -54 15
-103 24 -26 47 -48 51 -50 12 -5 9 -30 -4 -34 -6 -2 -13 -31 -16 -64 -3 -49 0
-64 17 -85 11 -15 34 -29 50 -32 28 -6 81 11 81 26 0 4 7 7 15 7 8 0 15 -3 15
-7 0 -13 -36 -64 -41 -59 -3 3 -6 -9 -7 -27 -2 -17 -8 -35 -15 -39 -9 -6 -9
-10 0 -16 8 -5 10 -29 7 -77 -3 -39 -6 -126 -7 -195 -2 -112 -5 -130 -29 -175
-52 -101 -59 -115 -69 -120 -13 -9 -11 -45 3 -45 6 0 4 -6 -6 -13 -16 -12 -14
-47 4 -47 4 0 30 20 57 44 56 51 90 113 99 182 4 27 12 55 18 63 6 8 11 44 12
80 1 36 4 87 8 112 5 30 4 54 -4 68 -9 18 -6 30 18 74 31 53 48 109 43 140 -3
20 32 36 72 32 15 -2 27 1 27 7 0 5 9 6 20 3 15 -5 20 -2 20 10 0 13 6 16 25
11 18 -5 28 -1 36 12 13 21 57 18 65 -3 4 -9 16 -10 45 -4 47 11 74 -3 89 -44
5 -16 23 -46 40 -67 17 -21 37 -53 44 -72 8 -18 26 -44 40 -57 14 -14 26 -29
26 -36 0 -6 20 -28 45 -49 118 -98 120 27 2 154 -8 8 -17 31 -21 51 -4 20 -19
54 -34 76 -41 59 -64 103 -53 103 5 0 12 -6 14 -12 3 -8 6 -6 6 5 1 12 9 17
31 17 18 0 30 5 30 13 0 8 9 22 20 32 11 10 20 22 20 28 0 5 9 22 21 38 26 37
19 57 -29 75 -46 19 -61 58 -57 148 2 34 -1 67 -7 74 -8 9 -8 16 0 24 15 15
16 62 2 53 -5 -3 -8 0 -5 7 9 24 -28 57 -72 64 -30 5 -43 3 -43 -5 0 -7 -4 -9
-10 -6 -30 18 -24 -126 8 -195 11 -25 25 -62 32 -82 6 -21 16 -40 21 -43 17
-11 10 -45 -10 -45 -11 0 -27 -7 -35 -16 -9 -8 -16 -11 -16 -5 0 6 -4 11 -10
11 -5 0 -10 -9 -10 -20 0 -11 -4 -20 -9 -20 -5 0 -16 -6 -24 -14 -8 -9 -39
-16 -76 -18 -35 -1 -61 -7 -61 -13 0 -7 -21 -12 -49 -12 -38 0 -51 3 -54 16
-4 13 -6 12 -12 -6 -5 -17 -16 -22 -52 -25 -24 -2 -48 1 -52 7 -17 20 -24 83
-25 215 -1 74 -5 151 -10 170 -11 48 -49 96 -86 109 -28 9 -32 8 -40 -15z
m650 -185 c0 -6 -4 -7 -10 -4 -5 3 -10 11 -10 16 0 6 5 7 10 4 6 -3 10 -11 10
-16z m-560 -249 c0 -5 -7 -10 -15 -10 -8 0 -15 5 -15 10 0 6 7 10 15 10 8 0
15 -4 15 -10z m-119 -118 c-7 -2 -18 1 -23 6 -8 8 -4 9 13 5 13 -4 18 -8 10
-11z m82 -402 c-3 -11 -7 -20 -9 -20 -2 0 -4 9 -4 20 0 11 4 20 9 20 5 0 7 -9
4 -20z m-40 -301 c-3 -11 -15 -31 -27 -43 -12 -12 -31 -35 -43 -51 -13 -16
-23 -24 -23 -18 0 15 47 85 63 95 7 4 8 8 3 8 -10 0 13 30 24 30 5 0 6 -9 3
-21z"/>
<path d="M7350 2536 c0 -9 5 -16 10 -16 6 0 10 4 10 9 0 6 -4 13 -10 16 -5 3
-10 -1 -10 -9z"/>
<path d="M16032 2470 c0 -19 2 -27 5 -17 2 9 2 25 0 35 -3 9 -5 1 -5 -18z"/>
<path d="M14830 2465 c0 -15 4 -24 10 -20 6 3 10 12 10 20 0 8 -4 17 -10 20
-6 4 -10 -5 -10 -20z"/>
<path d="M2427 2462 c-33 -36 -13 -108 45 -165 33 -32 43 -37 74 -33 42 5 41
5 45 31 7 49 -56 148 -108 170 -43 18 -37 19 -56 -3z"/>
<path d="M9121 2464 c0 -11 3 -14 6 -6 3 7 2 16 -1 19 -3 4 -6 -2 -5 -13z"/>
<path d="M3164 2431 c-37 -26 -74 -71 -74 -88 0 -4 10 -21 23 -37 21 -26 25
-28 48 -16 13 7 26 16 29 19 3 4 21 19 40 35 43 35 56 73 33 98 -23 26 -54 22
-99 -11z"/>
<path d="M17810 2430 c0 -5 5 -10 11 -10 5 0 7 5 4 10 -3 6 -8 10 -11 10 -2 0
-4 -4 -4 -10z"/>
<path d="M17821 2394 c0 -11 3 -14 6 -6 3 7 2 16 -1 19 -3 4 -6 -2 -5 -13z"/>
<path d="M14780 2376 c0 -31 6 -34 13 -6 3 11 1 23 -4 26 -5 3 -9 -6 -9 -20z"/>
<path d="M14142 2365 c0 -16 2 -22 5 -12 2 9 2 23 0 30 -3 6 -5 -1 -5 -18z"/>
<path d="M14997 2370 c-3 -11 -1 -20 4 -20 5 0 9 9 9 20 0 11 -2 20 -4 20 -2
0 -6 -9 -9 -20z"/>
<path d="M16091 2374 c0 -11 3 -14 6 -6 3 7 2 16 -1 19 -3 4 -6 -2 -5 -13z"/>
<path d="M5215 2359 c-21 -11 -45 -27 -52 -35 -18 -18 -32 -18 -69 0 -16 8
-50 16 -75 18 -42 5 -46 3 -56 -22 -6 -17 -7 -34 -1 -44 14 -26 75 -46 139
-46 57 0 59 -1 60 -27 l1 -28 11 28 c8 20 17 27 32 25 11 -1 50 13 88 31 75
37 85 57 40 89 -45 31 -75 34 -118 11z m-140 -79 c8 -13 -25 -13 -45 0 -12 8
-9 10 12 10 15 0 30 -4 33 -10z"/>
<path d="M9262 2355 c0 -16 2 -22 5 -12 2 9 2 23 0 30 -3 6 -5 -1 -5 -18z"/>
<path d="M7361 2344 c0 -11 3 -14 6 -6 3 7 2 16 -1 19 -3 4 -6 -2 -5 -13z"/>
<path d="M15533 2315 c0 -22 2 -30 4 -17 2 12 2 30 0 40 -3 9 -5 -1 -4 -23z"/>
<path d="M15641 2334 c0 -11 3 -14 6 -6 3 7 2 16 -1 19 -3 4 -6 -2 -5 -13z"/>
<path d="M2185 2305 c-14 -13 -25 -33 -25 -45 l0 -20 -20 20 c-29 29 -45 25
-66 -17 -16 -35 -16 -47 -5 -143 14 -117 14 -132 4 -245 -4 -44 -8 -155 -9
-247 -1 -127 -4 -172 -15 -185 -13 -16 -12 -17 4 -4 33 26 27 5 -21 -74 -31
-53 -55 -81 -70 -85 -45 -10 -172 -156 -157 -180 7 -11 95 0 125 16 14 7 41
26 60 42 32 28 35 34 36 89 0 61 4 69 93 184 11 14 27 45 37 68 14 35 15 46 4
66 -14 27 -7 87 15 122 8 11 12 32 9 45 -3 12 -7 43 -11 68 -3 25 -9 53 -14
62 -13 23 -11 65 3 91 6 12 12 63 13 112 3 130 2 125 29 125 14 0 32 7 40 16
30 29 14 144 -19 144 -9 0 -27 -11 -40 -25z m-61 -585 c4 -25 3 -31 -4 -20 -5
8 -10 26 -10 39 0 32 6 24 14 -19z m-218 -598 c-4 -3 -12 0 -18 6 -9 9 -16 8
-31 -6 -18 -16 -19 -16 -16 3 5 24 62 39 67 17 2 -7 1 -16 -2 -20z"/>
<path d="M15181 2314 c0 -11 3 -14 6 -6 3 7 2 16 -1 19 -3 4 -6 -2 -5 -13z"/>
<path d="M14140 2281 c0 -22 5 -43 10 -46 6 -4 10 10 10 34 0 22 -4 43 -10 46
-6 4 -10 -10 -10 -34z"/>
<path d="M16151 2294 c0 -11 3 -14 6 -6 3 7 2 16 -1 19 -3 4 -6 -2 -5 -13z"/>
<path d="M6512 2265 c0 -16 2 -22 5 -12 2 9 2 23 0 30 -3 6 -5 -1 -5 -18z"/>
<path d="M14701 2274 c0 -11 3 -14 6 -6 3 7 2 16 -1 19 -3 4 -6 -2 -5 -13z"/>
<path d="M14782 2265 c0 -16 2 -22 5 -12 2 9 2 23 0 30 -3 6 -5 -1 -5 -18z"/>
<path d="M15191 2274 c0 -11 3 -14 6 -6 3 7 2 16 -1 19 -3 4 -6 -2 -5 -13z"/>
<path d="M2323 2237 c-13 -5 -24 -17 -25 -26 -6 -62 -4 -73 16 -86 56 -40 109
5 81 70 -17 42 -42 56 -72 42z"/>
<path d="M9261 2224 c0 -11 3 -14 6 -6 3 7 2 16 -1 19 -3 4 -6 -2 -5 -13z"/>
<path d="M10957 2223 c-3 -5 -1 -26 3 -48 l8 -40 1 48 c1 45 -2 56 -12 40z"/>
<path d="M15073 2195 c0 -22 2 -30 4 -17 2 12 2 30 0 40 -3 9 -5 -1 -4 -23z"/>
<path d="M14271 2194 c0 -11 3 -14 6 -6 3 7 2 16 -1 19 -3 4 -6 -2 -5 -13z"/>
<path d="M14851 2194 c0 -11 3 -14 6 -6 3 7 2 16 -1 19 -3 4 -6 -2 -5 -13z"/>
<path d="M5041 2184 c0 -11 3 -14 6 -6 3 7 2 16 -1 19 -3 4 -6 -2 -5 -13z"/>
<path d="M6822 2180 c0 -14 2 -19 5 -12 2 6 2 18 0 25 -3 6 -5 1 -5 -13z"/>
<path d="M17510 2177 c0 -15 4 -27 9 -27 6 0 8 10 6 21 -6 33 -15 36 -15 6z"/>
<path d="M15691 2183 c0 -5 4 -17 9 -28 8 -18 9 -17 9 8 1 15 -3 27 -9 27 -5
0 -10 -3 -9 -7z"/>
<path d="M2455 2140 c-19 -37 -12 -68 25 -108 47 -52 111 -52 143 -1 16 25 -1
69 -33 87 -17 9 -30 22 -30 28 0 13 -32 24 -67 24 -15 0 -28 -10 -38 -30z m27
-22 c-9 -9 -12 -7 -12 12 0 19 3 21 12 12 9 -9 9 -15 0 -24z"/>
<path d="M14271 2154 c0 -11 3 -14 6 -6 3 7 2 16 -1 19 -3 4 -6 -2 -5 -13z"/>
<path d="M19131 2154 c0 -11 3 -14 6 -6 3 7 2 16 -1 19 -3 4 -6 -2 -5 -13z"/>
<path d="M3949 2144 c-6 -8 -21 -14 -33 -14 -36 0 -87 -71 -79 -110 6 -31 77
-90 108 -90 13 0 26 -4 29 -9 8 -13 68 2 79 20 15 24 -28 151 -64 188 -23 25
-30 27 -40 15z"/>
<path d="M6821 2134 c0 -11 3 -14 6 -6 3 7 2 16 -1 19 -3 4 -6 -2 -5 -13z"/>
<path d="M13611 2134 c0 -11 3 -14 6 -6 3 7 2 16 -1 19 -3 4 -6 -2 -5 -13z"/>
<path d="M9302 2105 c0 -16 2 -22 5 -12 2 9 2 23 0 30 -3 6 -5 -1 -5 -18z"/>
<path d="M16421 2104 c0 -11 3 -14 6 -6 3 7 2 16 -1 19 -3 4 -6 -2 -5 -13z"/>
<path d="M14851 2094 c0 -11 3 -14 6 -6 3 7 2 16 -1 19 -3 4 -6 -2 -5 -13z"/>
<path d="M11051 2084 c0 -11 3 -14 6 -6 3 7 2 16 -1 19 -3 4 -6 -2 -5 -13z"/>
<path d="M13611 2084 c0 -11 3 -14 6 -6 3 7 2 16 -1 19 -3 4 -6 -2 -5 -13z"/>
<path d="M14332 2070 c0 -14 2 -19 5 -12 2 6 2 18 0 25 -3 6 -5 1 -5 -13z"/>
<path d="M15561 2063 c-1 -17 4 -35 9 -38 12 -7 12 22 0 50 -7 17 -9 15 -9
-12z"/>
<path d="M19801 2064 c0 -11 3 -14 6 -6 3 7 2 16 -1 19 -3 4 -6 -2 -5 -13z"/>
<path d="M2980 2060 c0 -5 5 -10 11 -10 5 0 7 5 4 10 -3 6 -8 10 -11 10 -2 0
-4 -4 -4 -10z"/>
<path d="M16431 2054 c0 -11 3 -14 6 -6 3 7 2 16 -1 19 -3 4 -6 -2 -5 -13z"/>
<path d="M5160 2045 c0 -8 4 -15 10 -15 5 0 7 7 4 15 -4 8 -8 15 -10 15 -2 0
-4 -7 -4 -15z"/>
<path d="M13622 2030 c0 -14 2 -19 5 -12 2 6 2 18 0 25 -3 6 -5 1 -5 -13z"/>
<path d="M11051 2024 c0 -11 3 -14 6 -6 3 7 2 16 -1 19 -3 4 -6 -2 -5 -13z"/>
<path d="M13193 1995 c0 -27 2 -38 4 -22 2 15 2 37 0 50 -2 12 -4 0 -4 -28z"/>
<path d="M14771 2004 c0 -11 3 -14 6 -6 3 7 2 16 -1 19 -3 4 -6 -2 -5 -13z"/>
<path d="M15703 1985 c0 -22 2 -30 4 -17 2 12 2 30 0 40 -3 9 -5 -1 -4 -23z"/>
<path d="M13430 1986 c0 -14 5 -26 10 -26 6 0 10 9 10 19 0 11 -4 23 -10 26
-6 4 -10 -5 -10 -19z"/>
<path d="M14332 1990 c0 -14 2 -19 5 -12 2 6 2 18 0 25 -3 6 -5 1 -5 -13z"/>
<path d="M16341 1994 c0 -11 3 -14 6 -6 3 7 2 16 -1 19 -3 4 -6 -2 -5 -13z"/>
<path d="M3650 1977 c-49 -23 -80 -68 -80 -118 0 -22 29 -25 76 -9 33 12 77
70 72 96 -5 28 -39 44 -68 31z"/>
<path d="M15872 1960 c0 -19 2 -27 5 -17 2 9 2 25 0 35 -3 9 -5 1 -5 -18z"/>
<path d="M14772 1940 c0 -19 2 -27 5 -17 2 9 2 25 0 35 -3 9 -5 1 -5 -18z"/>
<path d="M13261 1944 c0 -11 3 -14 6 -6 3 7 2 16 -1 19 -3 4 -6 -2 -5 -13z"/>
<path d="M17631 1944 c0 -11 3 -14 6 -6 3 7 2 16 -1 19 -3 4 -6 -2 -5 -13z"/>
<path d="M11458 1923 c-2 -10 -1 -36 3 -58 6 -37 6 -36 8 18 1 57 -3 73 -11
40z"/>
<path d="M15440 1867 l5 -52 3 44 c2 24 0 47 -5 52 -4 4 -6 -15 -3 -44z"/>
<path d="M6762 1830 c-1 -47 2 -80 8 -80 12 0 13 8 10 85 -3 90 -16 87 -18 -5z"/>
<path d="M7490 1869 c0 -5 5 -7 10 -4 6 3 10 8 10 11 0 2 -4 4 -10 4 -5 0 -10
-5 -10 -11z"/>
<path d="M13542 1855 c0 -16 2 -22 5 -12 2 9 2 23 0 30 -3 6 -5 -1 -5 -18z"/>
<path d="M16902 1860 c0 -14 2 -19 5 -12 2 6 2 18 0 25 -3 6 -5 1 -5 -13z"/>
<path d="M17632 1850 c0 -19 2 -27 5 -17 2 9 2 25 0 35 -3 9 -5 1 -5 -18z"/>
<path d="M13442 1840 c0 -14 2 -19 5 -12 2 6 2 18 0 25 -3 6 -5 1 -5 -13z"/>
<path d="M15711 1844 c0 -11 3 -14 6 -6 3 7 2 16 -1 19 -3 4 -6 -2 -5 -13z"/>
<path d="M11176 1835 c4 -8 8 -15 10 -15 2 0 4 7 4 15 0 8 -4 15 -10 15 -5 0
-7 -7 -4 -15z"/>
<path d="M17761 1824 c0 -11 3 -14 6 -6 3 7 2 16 -1 19 -3 4 -6 -2 -5 -13z"/>
<path d="M15243 1770 c0 -30 2 -43 4 -27 2 15 2 39 0 55 -2 15 -4 2 -4 -28z"/>
<path d="M16622 1790 c0 -19 2 -27 5 -17 2 9 2 25 0 35 -3 9 -5 1 -5 -18z"/>
<path d="M2801 1794 c0 -11 3 -14 6 -6 3 7 2 16 -1 19 -3 4 -6 -2 -5 -13z"/>
<path d="M11511 1794 c0 -11 3 -14 6 -6 3 7 2 16 -1 19 -3 4 -6 -2 -5 -13z"/>
<path d="M15011 1769 c0 -24 4 -53 9 -64 5 -13 7 0 5 38 -2 67 -15 91 -14 26z"/>
<path d="M4085 1780 c-4 -6 -13 -9 -21 -6 -18 7 -64 -32 -64 -54 0 -32 47 -63
94 -63 115 0 135 101 25 128 -16 4 -30 2 -34 -5z"/>
<path d="M11182 1745 c0 -16 2 -22 5 -12 2 9 2 23 0 30 -3 6 -5 -1 -5 -18z"/>
<path d="M17010 1734 c0 -21 5 -46 10 -54 7 -10 8 1 4 35 -8 62 -14 70 -14 19z"/>
<path d="M17843 1735 c0 -22 2 -30 4 -17 2 12 2 30 0 40 -3 9 -5 -1 -4 -23z"/>
<path d="M14383 1725 c0 -22 2 -30 4 -17 2 12 2 30 0 40 -3 9 -5 -1 -4 -23z"/>
<path d="M15961 1744 c0 -11 3 -14 6 -6 3 7 2 16 -1 19 -3 4 -6 -2 -5 -13z"/>
<path d="M11273 1705 c0 -22 2 -30 4 -17 2 12 2 30 0 40 -3 9 -5 -1 -4 -23z"/>
<path d="M19311 1724 c0 -11 3 -14 6 -6 3 7 2 16 -1 19 -3 4 -6 -2 -5 -13z"/>
<path d="M13555 1710 c3 -5 8 -10 11 -10 2 0 4 5 4 10 0 6 -5 10 -11 10 -5 0
-7 -4 -4 -10z"/>
<path d="M16451 1704 c0 -11 3 -14 6 -6 3 7 2 16 -1 19 -3 4 -6 -2 -5 -13z"/>
<path d="M18892 1700 c0 -14 2 -19 5 -12 2 6 2 18 0 25 -3 6 -5 1 -5 -13z"/>
<path d="M11580 1631 c0 -39 5 -73 10 -76 6 -4 9 21 8 69 -2 95 -18 101 -18 7z"/>
<path d="M3830 1655 c0 -8 -7 -15 -15 -15 -21 0 -38 -36 -26 -58 28 -52 105
-73 162 -45 64 32 75 69 33 108 -23 21 -37 25 -90 25 -50 0 -64 -3 -64 -15z"/>
<path d="M11170 1650 c0 -5 5 -10 10 -10 6 0 10 5 10 10 0 6 -4 10 -10 10 -5
0 -10 -4 -10 -10z"/>
<path d="M15015 1640 c-3 -5 -1 -10 4 -10 6 0 11 5 11 10 0 6 -2 10 -4 10 -3
0 -8 -4 -11 -10z"/>
<path d="M15242 1630 c0 -14 2 -19 5 -12 2 6 2 18 0 25 -3 6 -5 1 -5 -13z"/>
<path d="M17022 1625 c0 -16 2 -22 5 -12 2 9 2 23 0 30 -3 6 -5 -1 -5 -18z"/>
<path d="M18901 1634 c0 -11 3 -14 6 -6 3 7 2 16 -1 19 -3 4 -6 -2 -5 -13z"/>
<path d="M15343 1590 c0 -30 2 -43 4 -27 2 15 2 39 0 55 -2 15 -4 2 -4 -28z"/>
<path d="M6441 1614 c0 -11 3 -14 6 -6 3 7 2 16 -1 19 -3 4 -6 -2 -5 -13z"/>
<path d="M11513 1590 c0 -25 2 -35 4 -22 2 12 2 32 0 45 -2 12 -4 2 -4 -23z"/>
<path d="M16461 1608 c-1 -16 4 -28 9 -28 12 0 12 8 0 35 -8 18 -9 17 -9 -7z"/>
<path d="M17852 1610 c0 -14 4 -36 8 -50 6 -20 8 -21 8 -5 0 11 -4 34 -8 50
-7 27 -8 27 -8 5z"/>
<path d="M10770 1570 c0 -16 4 -30 8 -30 5 0 7 14 4 30 -2 17 -6 30 -8 30 -2
0 -4 -13 -4 -30z"/>
<path d="M2303 1565 c-30 -21 -48 -101 -33 -154 9 -34 15 -41 35 -41 14 0 29
8 35 20 13 25 9 182 -5 187 -6 2 -20 -4 -32 -12z"/>
<path d="M11172 1555 c0 -16 2 -22 5 -12 2 9 2 23 0 30 -3 6 -5 -1 -5 -18z"/>
<path d="M15701 1564 c0 -11 3 -14 6 -6 3 7 2 16 -1 19 -3 4 -6 -2 -5 -13z"/>
<path d="M15024 1497 c3 -44 7 -82 10 -85 10 -10 6 132 -4 148 -7 10 -9 -10
-6 -63z"/>
<path d="M14381 1534 c0 -11 3 -14 6 -6 3 7 2 16 -1 19 -3 4 -6 -2 -5 -13z"/>
<path d="M14591 1534 c0 -11 3 -14 6 -6 3 7 2 16 -1 19 -3 4 -6 -2 -5 -13z"/>
<path d="M18351 1534 c0 -11 3 -14 6 -6 3 7 2 16 -1 19 -3 4 -6 -2 -5 -13z"/>
<path d="M11371 1520 c0 -8 4 -22 9 -30 12 -18 12 -2 0 25 -6 13 -9 15 -9 5z"/>
<path d="M15242 1485 c0 -16 2 -22 5 -12 2 9 2 23 0 30 -3 6 -5 -1 -5 -18z"/>
<path d="M18141 1494 c0 -11 3 -14 6 -6 3 7 2 16 -1 19 -3 4 -6 -2 -5 -13z"/>
<path d="M15552 1470 c0 -19 2 -27 5 -17 2 9 2 25 0 35 -3 9 -5 1 -5 -18z"/>
<path d="M11276 1461 c-4 -5 -2 -20 3 -33 9 -21 10 -21 10 10 1 32 -3 39 -13
23z"/>
<path d="M16000 1414 c0 -12 -5 -14 -17 -9 -40 17 -81 -4 -95 -47 -6 -16 -28
0 -28 20 0 9 -5 24 -10 32 -8 11 -9 9 -5 -11 4 -17 1 -32 -9 -42 -9 -8 -16
-22 -16 -31 0 -29 -18 -26 -25 4 -8 35 -25 31 -25 -6 0 -30 -16 -31 -24 -1 -3
12 -9 18 -13 12 -8 -10 -23 -15 -60 -20 -29 -3 -53 -23 -54 -44 0 -11 -3 -9
-9 7 -9 22 -30 31 -30 12 0 -5 -4 -10 -10 -10 -5 0 -10 11 -10 24 0 14 -4 28
-10 31 -5 3 -10 -1 -10 -9 0 -22 -34 -37 -74 -32 -19 2 -37 1 -41 -2 -3 -4
-20 -7 -36 -8 -24 -1 -30 3 -35 25 -10 45 -12 47 -13 11 -1 -28 -7 -38 -28
-47 -50 -24 -60 -14 -54 55 1 12 -3 22 -9 22 -5 0 -10 -22 -10 -48 0 -51 -14
-72 -62 -96 -43 -22 -44 -119 -1 -139 19 -8 30 -7 54 7 23 13 33 15 44 6 9 -7
15 -8 20 0 9 14 21 13 41 -7 11 -11 29 -16 50 -14 19 1 34 -2 34 -7 0 -5 8
-19 19 -31 19 -21 19 -21 23 39 4 49 9 65 34 91 17 18 36 28 46 26 9 -3 19 1
22 9 3 8 11 14 19 14 26 0 66 25 70 45 4 17 4 16 6 -4 1 -23 2 -23 27 -7 14
10 31 15 37 13 7 -2 22 5 34 16 16 14 40 21 81 23 54 3 61 1 86 -25 l28 -29
-27 -18 c-25 -16 -28 -16 -56 0 -35 20 -47 15 -109 -48 -24 -25 -49 -46 -55
-46 -7 0 -17 -11 -23 -25 -12 -27 -59 -36 -67 -12 -6 14 -102 17 -122 4 -18
-11 -16 -42 2 -57 8 -7 15 -20 15 -30 0 -10 6 -30 14 -44 12 -25 14 -25 19 -7
4 18 9 19 36 10 17 -6 38 -8 46 -5 11 4 15 -2 15 -19 0 -13 -4 -27 -10 -30 -5
-3 -10 -16 -11 -28 0 -22 0 -22 -10 1 -9 24 -29 22 -29 -3 0 -25 -23 -65 -37
-65 -8 0 -13 -11 -13 -29 0 -25 3 -28 21 -24 12 4 25 0 30 -8 5 -8 9 -9 9 -3
0 6 23 35 50 64 50 53 62 80 35 80 -16 0 -30 58 -21 88 7 20 40 32 101 35 17
1 37 10 45 19 9 10 35 19 65 22 77 8 97 16 138 57 41 41 44 53 22 95 -14 27
-13 30 9 53 38 37 49 20 42 -60 -8 -77 -30 -129 -57 -136 -11 -3 -19 -11 -19
-19 0 -8 -6 -11 -16 -7 -12 4 -14 0 -9 -20 7 -26 -13 -74 -39 -96 -14 -12 -16
-9 -17 20 -1 19 -2 39 -4 44 -1 6 -3 19 -3 30 -2 17 -9 21 -38 20 -55 -2 -93
-48 -100 -123 -4 -39 -3 -62 5 -66 6 -4 11 -1 11 7 0 16 21 27 51 27 10 0 28
9 39 20 23 23 39 7 17 -18 -8 -9 -26 -40 -41 -69 -14 -28 -30 -54 -36 -58 -5
-3 -10 -11 -10 -16 0 -6 5 -7 10 -4 6 4 10 -13 10 -44 0 -27 3 -57 7 -66 5
-14 2 -16 -14 -11 -18 6 -23 -1 -37 -44 -9 -28 -14 -55 -11 -60 3 -5 0 -12 -5
-15 -7 -5 -5 -12 7 -20 23 -17 33 -10 33 21 0 13 4 24 10 24 5 0 17 25 26 56
9 30 22 58 29 60 7 3 16 16 19 30 4 13 13 24 21 24 10 0 15 10 15 27 0 26 57
123 72 123 10 0 8 -109 -3 -155 -5 -22 -12 -62 -16 -89 -5 -44 -4 -48 12 -43
9 4 21 7 25 7 5 0 14 19 21 42 11 43 72 122 84 110 3 -4 9 -2 13 4 4 6 22 19
39 28 21 11 36 27 42 49 6 21 10 25 10 12 1 -12 4 -16 9 -9 4 7 16 13 27 16
21 4 20 1 24 126 1 30 5 42 16 42 8 0 15 -7 15 -15 0 -8 5 -15 10 -15 6 0 10
-10 11 -22 0 -13 3 -17 6 -10 3 8 -1 34 -7 59 -11 38 -11 46 1 54 9 6 10 12 4
17 -5 4 -11 49 -12 100 -1 77 -5 96 -20 108 -13 11 -14 17 -5 20 13 6 17 36 5
47 -3 4 -12 2 -19 -4 -23 -19 -47 -2 -42 30 3 20 0 27 -8 24 -7 -2 -15 1 -19
7 -4 6 -16 8 -26 5 -11 -4 -26 -1 -34 5 -8 7 -15 8 -15 3 0 -5 -16 -15 -36
-22 -28 -10 -38 -10 -44 -1 -5 8 -9 5 -13 -9 -6 -25 -30 -28 -24 -3 3 16 -18
72 -28 72 -3 0 -5 -7 -5 -16z m-2 -77 c2 -10 -3 -17 -12 -17 -18 0 -29 16 -21
31 9 14 29 6 33 -14z m134 -94 c-2 -7 -13 -13 -23 -13 -16 0 -19 7 -19 42 0
25 7 49 18 61 16 19 17 18 23 -29 3 -27 4 -55 1 -61z m78 81 c0 -8 -5 -12 -10
-9 -6 4 -8 11 -5 16 9 14 15 11 15 -7z m-695 -54 c-3 -5 -15 -10 -26 -10 -10
0 -19 5 -19 10 0 6 12 10 26 10 14 0 23 -4 19 -10z m15 -35 c0 -8 -2 -15 -4
-15 -2 0 -6 7 -10 15 -3 8 -1 15 4 15 6 0 10 -7 10 -15z m-210 -15 c0 -5 -5
-10 -11 -10 -5 0 -7 5 -4 10 3 6 8 10 11 10 2 0 4 -4 4 -10z m814 -15 c-6 -16
-24 -21 -24 -7 0 11 11 22 21 22 5 0 6 -7 3 -15z m-704 -16 c0 -11 -27 -12
-34 0 -3 4 -3 11 0 14 8 8 34 -3 34 -14z m560 1 c0 -6 -12 -15 -27 -21 -16 -6
-36 -15 -46 -21 -11 -5 -22 -7 -25 -4 -9 10 15 29 50 42 44 15 48 16 48 4z
m-780 -25 c0 -8 -4 -15 -10 -15 -5 0 -10 7 -10 15 0 8 5 15 10 15 6 0 10 -7
10 -15z m632 -7 c-9 -9 -15 -9 -24 0 -9 9 -7 12 12 12 19 0 21 -3 12 -12z
m408 -28 c0 -5 -4 -10 -10 -10 -5 0 -10 5 -10 10 0 6 5 10 10 10 6 0 10 -4 10
-10z m-730 -50 c0 -5 8 -10 19 -10 10 0 23 -6 29 -12 8 -10 4 -13 -14 -13 -13
0 -24 3 -24 8 0 4 -7 7 -15 7 -8 0 -15 7 -15 15 0 8 5 15 10 15 6 0 10 -4 10
-10z m140 -30 c0 -5 -4 -10 -10 -10 -5 0 -10 5 -10 10 0 6 5 10 10 10 6 0 10
-4 10 -10z m490 -30 c-6 -11 -15 -20 -20 -20 -13 0 -12 8 3 25 18 21 29 18 17
-5z m-114 -47 c-11 -11 -19 6 -11 24 8 17 8 17 12 0 3 -10 2 -21 -1 -24z m180
-20 c-5 -13 -9 -14 -15 -5 -4 7 -16 10 -27 7 -16 -6 -15 -3 5 15 27 23 48 14
37 -17z m-126 -88 c0 -8 -4 -15 -10 -15 -5 0 -7 7 -4 15 4 8 8 15 10 15 2 0 4
-7 4 -15z m73 -5 c-3 -10 -11 -25 -19 -31 -11 -9 -14 -8 -14 8 0 19 17 43 31
43 4 0 5 -9 2 -20z m-241 -22 c-7 -7 -12 -8 -12 -2 0 14 12 26 19 19 2 -3 -1
-11 -7 -17z m143 -58 c-3 -5 -10 -10 -16 -10 -5 0 -9 5 -9 10 0 6 7 10 16 10
8 0 12 -4 9 -10z m-178 -22 c-3 -8 -6 -5 -6 6 -1 11 2 17 5 13 3 -3 4 -12 1
-19z m-70 -190 c-3 -8 -6 -5 -6 6 -1 11 2 17 5 13 3 -3 4 -12 1 -19z"/>
<path d="M15240 1391 c0 -25 6 -27 13 -6 4 8 2 17 -3 20 -6 4 -10 -3 -10 -14z"/>
<path d="M15342 1390 c0 -14 2 -19 5 -12 2 6 2 18 0 25 -3 6 -5 1 -5 -13z"/>
<path d="M9732 1375 c0 -16 2 -22 5 -12 2 9 2 23 0 30 -3 6 -5 -1 -5 -18z"/>
<path d="M16820 1379 c0 -5 5 -7 10 -4 6 3 10 8 10 11 0 2 -4 4 -10 4 -5 0
-10 -5 -10 -11z"/>
<path d="M17758 1340 c-3 -19 -2 -39 3 -44 16 -17 21 2 12 41 l-9 38 -6 -35z"/>
<path d="M10860 1310 c0 -11 4 -20 9 -20 6 0 9 9 8 20 -1 11 -5 20 -9 20 -4 0
-8 -9 -8 -20z"/>
<path d="M16832 1300 c0 -19 2 -27 5 -17 2 9 2 25 0 35 -3 9 -5 1 -5 -18z"/>
<path d="M11322 1265 c0 -16 2 -22 5 -12 2 9 2 23 0 30 -3 6 -5 -1 -5 -18z"/>
<path d="M18382 1255 c0 -16 2 -22 5 -12 2 9 2 23 0 30 -3 6 -5 -1 -5 -18z"/>
<path d="M15043 1225 c0 -22 2 -30 4 -17 2 12 2 30 0 40 -3 9 -5 -1 -4 -23z"/>
<path d="M16840 1223 c-3 -23 -2 -39 3 -34 5 5 7 24 5 42 -3 33 -4 33 -8 -8z"/>
<path d="M10792 1205 c0 -16 2 -22 5 -12 2 9 2 23 0 30 -3 6 -5 -1 -5 -18z"/>
<path d="M17767 1223 c-3 -5 -1 -26 3 -48 l8 -40 1 48 c1 45 -2 56 -12 40z"/>
<path d="M6521 1204 c0 -11 3 -14 6 -6 3 7 2 16 -1 19 -3 4 -6 -2 -5 -13z"/>
<path d="M14031 1184 c0 -11 3 -14 6 -6 3 7 2 16 -1 19 -3 4 -6 -2 -5 -13z"/>
<path d="M16542 1170 c0 -14 2 -19 5 -12 2 6 2 18 0 25 -3 6 -5 1 -5 -13z"/>
<path d="M14851 1164 c0 -11 3 -14 6 -6 3 7 2 16 -1 19 -3 4 -6 -2 -5 -13z"/>
<path d="M2570 1087 c-42 -48 -63 -97 -61 -149 0 -16 -5 -28 -11 -28 -9 0 -9
-3 -1 -11 21 -21 72 12 118 77 11 15 32 40 48 55 17 17 27 37 27 55 0 39 -9
49 -46 49 -24 0 -40 -10 -74 -48z m4 -82 c-13 -9 -20 -10 -23 -3 -2 6 5 17 15
25 13 9 20 10 22 3 2 -6 -4 -17 -14 -25z"/>
<path d="M14452 1110 c0 -19 2 -27 5 -17 2 9 2 25 0 35 -3 9 -5 1 -5 -18z"/>
<path d="M10792 1060 c0 -14 2 -19 5 -12 2 6 2 18 0 25 -3 6 -5 1 -5 -13z"/>
<path d="M16501 1064 c0 -11 3 -14 6 -6 3 7 2 16 -1 19 -3 4 -6 -2 -5 -13z"/>
<path d="M17961 1064 c0 -11 3 -14 6 -6 3 7 2 16 -1 19 -3 4 -6 -2 -5 -13z"/>
<path d="M11531 958 c0 -42 4 -80 9 -83 12 -7 12 50 1 115 -8 42 -9 39 -10
-32z"/>
<path d="M11642 1010 c0 -14 2 -19 5 -12 2 6 2 18 0 25 -3 6 -5 1 -5 -13z"/>
<path d="M17972 995 c0 -16 2 -22 5 -12 2 9 2 23 0 30 -3 6 -5 -1 -5 -18z"/>
<path d="M13632 990 c0 -14 2 -19 5 -12 2 6 2 18 0 25 -3 6 -5 1 -5 -13z"/>
<path d="M10790 980 c0 -19 3 -21 12 -12 9 9 9 15 0 24 -9 9 -12 7 -12 -12z"/>
<path d="M11687 994 c-8 -8 4 -77 15 -89 6 -6 7 8 3 40 -8 55 -9 58 -18 49z"/>
<path d="M15430 970 c0 -10 -8 -24 -17 -29 -17 -10 -17 -12 1 -26 28 -21 41
-19 54 9 9 19 7 28 -9 45 -24 26 -29 26 -29 1z"/>
<path d="M17622 960 c0 -19 2 -27 5 -17 2 9 2 25 0 35 -3 9 -5 1 -5 -18z"/>
<path d="M20612 958 c-2 -48 -19 -91 -32 -83 -6 4 -9 3 -8 -2 5 -15 -47 -133
-58 -133 -7 0 -10 -8 -7 -18 5 -20 -29 -75 -80 -132 -18 -19 -37 -46 -43 -60
-6 -14 -17 -40 -25 -58 -10 -23 -24 -35 -46 -41 -18 -5 -47 -26 -65 -47 -34
-38 -70 -113 -61 -127 6 -10 -14 -53 -36 -80 -21 -25 -5 -34 22 -10 12 11 30
23 40 26 9 4 20 15 24 24 12 34 25 45 36 31 6 -9 7 -8 3 5 -4 13 5 30 29 55
19 20 35 43 35 50 0 7 4 11 9 7 6 -3 14 2 19 11 5 9 12 15 15 15 4 -1 11 -1
16 -1 13 0 111 136 111 155 0 11 5 15 14 12 10 -4 17 4 21 24 4 16 17 37 30
45 13 8 26 27 30 41 3 14 9 23 12 19 3 -3 21 15 39 41 18 26 40 51 49 55 8 5
15 16 15 25 0 9 6 32 12 51 11 30 11 35 -7 48 -10 8 -38 14 -61 14 -42 0 -43
1 -47 38 l-4 37 -1 -37z"/>
<path d="M11641 954 c0 -11 3 -14 6 -6 3 7 2 16 -1 19 -3 4 -6 -2 -5 -13z"/>
<path d="M2345 949 c-16 -5 -58 -38 -92 -75 -35 -36 -69 -67 -76 -68 -27 -4
-56 -27 -51 -40 3 -8 -3 -16 -15 -19 -12 -3 -21 0 -21 6 0 8 -3 8 -9 -1 -4 -7
-14 -12 -21 -10 -27 6 -20 -21 9 -35 17 -9 31 -11 31 -6 0 5 6 9 14 9 19 0
136 51 136 59 0 4 17 15 37 26 46 24 68 41 105 79 31 31 35 51 14 72 -16 16
-19 16 -61 3z m-41 -93 c-21 -15 -30 -14 -19 3 3 6 14 11 23 11 13 0 13 -2 -4
-14z"/>
<path d="M6582 935 c0 -16 2 -22 5 -12 2 9 2 23 0 30 -3 6 -5 -1 -5 -18z"/>
<path d="M16531 944 c0 -11 3 -14 6 -6 3 7 2 16 -1 19 -3 4 -6 -2 -5 -13z"/>
<path d="M17972 935 c0 -16 2 -22 5 -12 2 9 2 23 0 30 -3 6 -5 -1 -5 -18z"/>
<path d="M7291 904 c0 -11 3 -14 6 -6 3 7 2 16 -1 19 -3 4 -6 -2 -5 -13z"/>
<path d="M17633 880 c0 -25 2 -35 4 -22 2 12 2 32 0 45 -2 12 -4 2 -4 -23z"/>
<path d="M13811 894 c0 -11 3 -14 6 -6 3 7 2 16 -1 19 -3 4 -6 -2 -5 -13z"/>
<path d="M16421 894 c0 -11 3 -14 6 -6 3 7 2 16 -1 19 -3 4 -6 -2 -5 -13z"/>
<path d="M11332 880 c0 -14 2 -19 5 -12 2 6 2 18 0 25 -3 6 -5 1 -5 -13z"/>
<path d="M17673 880 c-1 -11 2 -22 8 -25 5 -4 9 3 9 14 0 26 -15 35 -17 11z"/>
<path d="M14462 870 c0 -14 2 -19 5 -12 2 6 2 18 0 25 -3 6 -5 1 -5 -13z"/>
<path d="M11382 860 c0 -14 2 -19 5 -12 2 6 2 18 0 25 -3 6 -5 1 -5 -13z"/>
<path d="M15133 840 c0 -25 2 -35 4 -22 2 12 2 32 0 45 -2 12 -4 2 -4 -23z"/>
<path d="M7292 830 c0 -19 2 -27 5 -17 2 9 2 25 0 35 -3 9 -5 1 -5 -18z"/>
<path d="M11539 838 c-3 -13 -1 -41 2 -63 5 -35 6 -33 8 23 1 63 -4 81 -10 40z"/>
<path d="M13822 830 c0 -14 2 -19 5 -12 2 6 2 18 0 25 -3 6 -5 1 -5 -13z"/>
<path d="M16347 816 c-4 -10 -5 -21 -2 -24 9 -9 17 6 13 25 -3 17 -4 17 -11
-1z"/>
<path d="M11703 785 c0 -22 2 -30 4 -17 2 12 2 30 0 40 -3 9 -5 -1 -4 -23z"/>
<path d="M12340 809 c0 -5 5 -7 10 -4 6 3 10 8 10 11 0 2 -4 4 -10 4 -5 0 -10
-5 -10 -11z"/>
<path d="M12521 804 c0 -11 3 -14 6 -6 3 7 2 16 -1 19 -3 4 -6 -2 -5 -13z"/>
<path d="M17681 804 c0 -11 3 -14 6 -6 3 7 2 16 -1 19 -3 4 -6 -2 -5 -13z"/>
<path d="M18641 794 c0 -11 3 -14 6 -6 3 7 2 16 -1 19 -3 4 -6 -2 -5 -13z"/>
<path d="M16231 764 c0 -11 3 -14 6 -6 3 7 2 16 -1 19 -3 4 -6 -2 -5 -13z"/>
<path d="M16433 745 c0 -22 2 -30 4 -17 2 12 2 30 0 40 -3 9 -5 -1 -4 -23z"/>
<path d="M11051 728 c0 -18 4 -42 9 -53 6 -15 9 -7 8 28 -1 26 -5 50 -10 53
-4 3 -8 -10 -7 -28z"/>
<path d="M6581 724 c0 -11 3 -14 6 -6 3 7 2 16 -1 19 -3 4 -6 -2 -5 -13z"/>
<path d="M14911 698 c0 -27 4 -48 9 -48 11 0 11 21 0 65 -7 27 -8 25 -9 -17z"/>
<path d="M15442 715 c0 -16 2 -22 5 -12 2 9 2 23 0 30 -3 6 -5 -1 -5 -18z"/>
<path d="M11382 670 c0 -30 4 -68 8 -85 7 -27 8 -26 8 15 1 25 -3 63 -7 85 -9
40 -9 40 -9 -15z"/>
<path d="M15522 700 c0 -14 2 -19 5 -12 2 6 2 18 0 25 -3 6 -5 1 -5 -13z"/>
<path d="M8130 685 c0 -14 2 -25 4 -25 2 0 6 11 8 25 3 14 1 25 -3 25 -5 0 -9
-11 -9 -25z"/>
<path d="M14586 675 c11 -65 25 -87 19 -30 -3 27 -10 54 -16 60 -7 7 -8 -2 -3
-30z"/>
<path d="M15770 706 c0 -2 7 -6 15 -10 8 -3 15 -1 15 4 0 6 -7 10 -15 10 -8 0
-15 -2 -15 -4z"/>
<path d="M16237 698 c-2 -7 -1 -33 3 -58 l7 -45 2 58 c1 56 -2 69 -12 45z"/>
<path d="M10671 684 c0 -11 3 -14 6 -6 3 7 2 16 -1 19 -3 4 -6 -2 -5 -13z"/>
<path d="M11161 684 c0 -11 3 -14 6 -6 3 7 2 16 -1 19 -3 4 -6 -2 -5 -13z"/>
<path d="M10562 670 c0 -14 2 -19 5 -12 2 6 2 18 0 25 -3 6 -5 1 -5 -13z"/>
<path d="M6273 595 c0 -33 2 -45 4 -27 2 18 2 45 0 60 -2 15 -4 0 -4 -33z"/>
<path d="M10561 613 c-1 -18 4 -33 9 -33 12 0 12 17 0 45 -7 17 -9 15 -9 -12z"/>
<path d="M201 614 c-14 -7 -34 -14 -43 -18 -10 -3 -20 -18 -23 -33 -4 -15 -10
-36 -16 -45 -13 -25 -11 -38 5 -32 14 5 46 -69 46 -108 0 -24 17 -23 25 2 9
27 16 25 50 -10 16 -16 33 -30 38 -30 5 0 27 -14 48 -31 21 -17 39 -26 39 -20
0 6 5 11 11 11 6 0 9 -7 6 -14 -4 -9 2 -17 13 -21 13 -4 21 -19 26 -51 7 -52
24 -69 24 -25 0 23 4 29 19 28 11 -1 22 -9 24 -18 3 -9 19 -20 36 -24 18 -4
31 -13 31 -22 0 -9 6 -13 14 -10 8 3 16 -2 19 -14 3 -12 14 -19 29 -19 14 0
35 -11 48 -24 20 -22 24 -23 37 -10 8 7 21 14 28 14 8 0 16 4 20 10 9 14 -6
60 -19 60 -7 0 -23 26 -36 58 -13 31 -28 60 -34 64 -6 4 -11 11 -11 15 0 11
-54 63 -65 63 -6 0 -10 9 -10 21 0 11 -4 17 -10 14 -6 -3 -7 1 -4 9 4 10 -6
26 -26 44 -30 28 -37 44 -39 85 -1 9 -5 17 -10 17 -4 0 -6 -11 -3 -25 3 -18 0
-25 -12 -25 -9 0 -16 7 -16 15 0 9 -11 20 -24 25 -13 5 -27 18 -31 29 -3 12
-18 24 -33 27 -15 4 -33 12 -41 18 -19 15 -96 15 -130 0z"/>
<path d="M9081 588 c-1 -26 4 -50 9 -53 12 -8 12 52 0 80 -6 15 -9 8 -9 -27z"/>
<path d="M8061 594 c0 -11 3 -14 6 -6 3 7 2 16 -1 19 -3 4 -6 -2 -5 -13z"/>
<path d="M16360 578 c0 -7 5 -20 10 -28 8 -12 10 -9 10 13 0 15 -4 27 -10 27
-5 0 -10 -6 -10 -12z"/>
<path d="M7452 560 c0 -14 2 -19 5 -12 2 6 2 18 0 25 -3 6 -5 1 -5 -13z"/>
<path d="M11713 525 c0 -33 2 -45 4 -27 2 18 2 45 0 60 -2 15 -4 0 -4 -33z"/>
<path d="M12391 544 c0 -11 3 -14 6 -6 3 7 2 16 -1 19 -3 4 -6 -2 -5 -13z"/>
<path d="M8621 534 c0 -11 3 -14 6 -6 3 7 2 16 -1 19 -3 4 -6 -2 -5 -13z"/>
<path d="M7222 515 c0 -16 2 -22 5 -12 2 9 2 23 0 30 -3 6 -5 -1 -5 -18z"/>
<path d="M15132 490 c0 -14 2 -19 5 -12 2 6 2 18 0 25 -3 6 -5 1 -5 -13z"/>
<path d="M7450 480 c0 -11 5 -20 10 -20 6 0 10 9 10 20 0 11 -4 20 -10 20 -5
0 -10 -9 -10 -20z"/>
<path d="M13192 475 c0 -16 2 -22 5 -12 2 9 2 23 0 30 -3 6 -5 -1 -5 -18z"/>
<path d="M13621 474 c0 -11 3 -14 6 -6 3 7 2 16 -1 19 -3 4 -6 -2 -5 -13z"/>
<path d="M10851 464 c0 -11 3 -14 6 -6 3 7 2 16 -1 19 -3 4 -6 -2 -5 -13z"/>
<path d="M11341 464 c0 -11 3 -14 6 -6 3 7 2 16 -1 19 -3 4 -6 -2 -5 -13z"/>
<path d="M11920 455 c0 -14 4 -25 9 -25 4 0 6 11 3 25 -2 14 -6 25 -8 25 -2 0
-4 -11 -4 -25z"/>
<path d="M44 457 c-13 -15 -3 -49 12 -39 10 7 14 52 4 52 -3 -1 -10 -6 -16
-13z"/>
<path d="M5854 456 c-3 -8 -1 -23 5 -33 9 -15 10 -13 11 15 0 34 -7 42 -16 18z"/>
<path d="M11505 460 c3 -5 8 -10 11 -10 2 0 4 5 4 10 0 6 -5 10 -11 10 -5 0
-7 -4 -4 -10z"/>
<path d="M17541 454 c0 -11 3 -14 6 -6 3 7 2 16 -1 19 -3 4 -6 -2 -5 -13z"/>
<path d="M7221 444 c0 -11 3 -14 6 -6 3 7 2 16 -1 19 -3 4 -6 -2 -5 -13z"/>
<path d="M9417 441 c-4 -17 -3 -21 5 -13 5 5 8 16 6 23 -3 8 -7 3 -11 -10z"/>
<path d="M11394 425 c1 -19 4 -35 9 -35 9 0 9 42 -1 58 -5 8 -8 -1 -8 -23z"/>
<path d="M6572 430 c0 -14 2 -19 5 -12 2 6 2 18 0 25 -3 6 -5 1 -5 -13z"/>
<path d="M7991 434 c0 -11 3 -14 6 -6 3 7 2 16 -1 19 -3 4 -6 -2 -5 -13z"/>
<path d="M9232 420 c0 -19 2 -27 5 -17 2 9 2 25 0 35 -3 9 -5 1 -5 -18z"/>
<path d="M10941 397 c1 -31 6 -57 10 -57 10 0 6 96 -4 107 -5 4 -7 -18 -6 -50z"/>
<path d="M11710 418 c0 -23 3 -29 9 -19 8 12 4 51 -5 51 -2 0 -4 -15 -4 -32z"/>
<path d="M8622 420 c0 -14 2 -19 5 -12 2 6 2 18 0 25 -3 6 -5 1 -5 -13z"/>
<path d="M11652 410 c0 -19 2 -27 5 -17 2 9 2 25 0 35 -3 9 -5 1 -5 -18z"/>
<path d="M14743 390 c0 -30 2 -43 4 -27 2 15 2 39 0 55 -2 15 -4 2 -4 -28z"/>
<path d="M15131 424 c0 -11 3 -14 6 -6 3 7 2 16 -1 19 -3 4 -6 -2 -5 -13z"/>
<path d="M7862 400 c0 -19 2 -27 5 -17 2 9 2 25 0 35 -3 9 -5 1 -5 -18z"/>
<path d="M13623 390 c0 -25 2 -35 4 -22 2 12 2 32 0 45 -2 12 -4 2 -4 -23z"/>
<path d="M7381 404 c0 -11 3 -14 6 -6 3 7 2 16 -1 19 -3 4 -6 -2 -5 -13z"/>
<path d="M11922 395 c0 -16 2 -22 5 -12 2 9 2 23 0 30 -3 6 -5 -1 -5 -18z"/>
<path d="M14050 411 c0 -6 5 -13 10 -16 6 -3 10 1 10 9 0 9 -4 16 -10 16 -5 0
-10 -4 -10 -9z"/>
<path d="M16381 404 c0 -11 3 -14 6 -6 3 7 2 16 -1 19 -3 4 -6 -2 -5 -13z"/>
<path d="M10852 385 c0 -16 2 -22 5 -12 2 9 2 23 0 30 -3 6 -5 -1 -5 -18z"/>
<path d="M11173 370 c0 -25 2 -35 4 -22 2 12 2 32 0 45 -2 12 -4 2 -4 -23z"/>
<path d="M9417 379 c4 -13 8 -18 11 -10 2 7 -1 18 -6 23 -8 8 -9 4 -5 -13z"/>
<path d="M11345 390 c3 -5 8 -10 11 -10 2 0 4 5 4 10 0 6 -5 10 -11 10 -5 0
-7 -4 -4 -10z"/>
<path d="M33 377 c-19 -25 -34 -94 -31 -142 l3 -50 15 63 c8 34 17 62 22 62 4
0 4 7 1 17 -4 10 -2 14 4 10 6 -4 11 4 11 18 0 30 -12 40 -25 22z"/>
<path d="M9302 370 c0 -14 2 -19 5 -12 2 6 2 18 0 25 -3 6 -5 1 -5 -13z"/>
<path d="M11108 384 c-5 -4 -8 -16 -8 -28 0 -14 3 -17 11 -9 6 6 9 19 7 28 -1
9 -6 13 -10 9z"/>
<path d="M11981 374 c0 -11 3 -14 6 -6 3 7 2 16 -1 19 -3 4 -6 -2 -5 -13z"/>
<path d="M13733 355 c0 -22 2 -30 4 -17 2 12 2 30 0 40 -3 9 -5 -1 -4 -23z"/>
<path d="M15053 350 c0 -25 2 -35 4 -22 2 12 2 32 0 45 -2 12 -4 2 -4 -23z"/>
<path d="M16703 355 c0 -22 2 -30 4 -17 2 12 2 30 0 40 -3 9 -5 -1 -4 -23z"/>
<path d="M11403 300 c0 -30 2 -43 4 -27 2 15 2 39 0 55 -2 15 -4 2 -4 -28z"/>
<path d="M16342 320 c0 -14 2 -19 5 -12 2 6 2 18 0 25 -3 6 -5 1 -5 -13z"/>
<path d="M14401 314 c0 -11 3 -14 6 -6 3 7 2 16 -1 19 -3 4 -6 -2 -5 -13z"/>
<path d="M9431 294 c0 -11 3 -14 6 -6 3 7 2 16 -1 19 -3 4 -6 -2 -5 -13z"/>
<path d="M11351 294 c0 -11 3 -14 6 -6 3 7 2 16 -1 19 -3 4 -6 -2 -5 -13z"/>
<path d="M14481 284 c0 -11 3 -14 6 -6 3 7 2 16 -1 19 -3 4 -6 -2 -5 -13z"/>
<path d="M11268 265 c2 -14 6 -25 8 -25 2 0 4 11 4 25 0 14 -4 25 -9 25 -4 0
-6 -11 -3 -25z"/>
<path d="M9561 264 c0 -11 3 -14 6 -6 3 7 2 16 -1 19 -3 4 -6 -2 -5 -13z"/>
<path d="M12563 245 c0 -22 2 -30 4 -17 2 12 2 30 0 40 -3 9 -5 -1 -4 -23z"/>
<path d="M17553 240 c0 -25 2 -35 4 -22 2 12 2 32 0 45 -2 12 -4 2 -4 -23z"/>
<path d="M16821 254 c0 -11 3 -14 6 -6 3 7 2 16 -1 19 -3 4 -6 -2 -5 -13z"/>
<path d="M11170 237 c0 -14 5 -29 10 -32 7 -4 8 3 4 22 -9 38 -14 42 -14 10z"/>
<path d="M7041 220 c0 -33 1 -34 10 -11 6 16 6 28 -1 35 -7 7 -10 -1 -9 -24z"/>
<path d="M11850 214 c0 -19 4 -33 8 -30 8 5 4 66 -4 66 -2 0 -4 -16 -4 -36z"/>
<path d="M58 215 c-12 -25 -18 -95 -9 -115 2 -3 2 -26 1 -52 -1 -42 1 -48 19
-48 19 0 21 6 22 63 1 34 0 69 -1 77 -1 8 -5 35 -9 60 l-7 45 -16 -30z"/>
<path d="M11723 195 c0 -27 2 -38 4 -22 2 15 2 37 0 50 -2 12 -4 0 -4 -28z"/>
<path d="M10832 210 c0 -14 2 -19 5 -12 2 6 2 18 0 25 -3 6 -5 1 -5 -13z"/>
<path d="M11401 189 c0 -19 4 -52 9 -74 7 -31 7 -24 3 30 -6 74 -13 101 -12
44z"/>
<path d="M14400 178 c0 -21 5 -38 10 -38 13 0 13 40 0 60 -7 11 -10 5 -10 -22z"/>
<path d="M5870 165 c0 -19 4 -35 8 -35 4 0 6 16 4 35 -2 19 -6 35 -8 35 -2 0
-4 -16 -4 -35z"/>
<path d="M8612 175 c0 -16 2 -22 5 -12 2 9 2 23 0 30 -3 6 -5 -1 -5 -18z"/>
<path d="M11272 160 c0 -19 2 -27 5 -17 2 9 2 25 0 35 -3 9 -5 1 -5 -18z"/>
<path d="M11931 174 c0 -11 3 -14 6 -6 3 7 2 16 -1 19 -3 4 -6 -2 -5 -13z"/>
<path d="M20087 164 c-10 -11 -9 -94 2 -94 14 0 23 53 13 79 -4 12 -11 19 -15
15z"/>
<path d="M14771 144 c0 -11 3 -14 6 -6 3 7 2 16 -1 19 -3 4 -6 -2 -5 -13z"/>
<path d="M17730 141 c0 -6 5 -13 10 -16 6 -3 10 1 10 9 0 9 -4 16 -10 16 -5 0
-10 -4 -10 -9z"/>
<path d="M11361 100 c1 -42 1 -43 10 -18 7 18 7 33 0 45 -8 14 -10 9 -10 -27z"/>
<path d="M12082 110 c0 -14 2 -19 5 -12 2 6 2 18 0 25 -3 6 -5 1 -5 -13z"/>
<path d="M11721 104 c0 -11 3 -14 6 -6 3 7 2 16 -1 19 -3 4 -6 -2 -5 -13z"/>
<path d="M14742 100 c0 -14 2 -19 5 -12 2 6 2 18 0 25 -3 6 -5 1 -5 -13z"/>
<path d="M17741 84 c0 -11 3 -14 6 -6 3 7 2 16 -1 19 -3 4 -6 -2 -5 -13z"/>
<path d="M8621 74 c0 -11 3 -14 6 -6 3 7 2 16 -1 19 -3 4 -6 -2 -5 -13z"/>
<path d="M19797 75 c-4 -8 -2 -17 3 -20 6 -4 10 3 10 14 0 25 -6 27 -13 6z"/>
<path d="M20518 3 c7 -3 16 -2 19 1 4 3 -2 6 -13 5 -11 0 -14 -3 -6 -6z"/>
</g>
</svg>
