<?xml version="1.0" standalone="no"?>
<!DOCTYPE svg PUBLIC "-//W3C//DTD SVG 20010904//EN"
 "http://www.w3.org/TR/2001/REC-SVG-20010904/DTD/svg10.dtd">
<svg version="1.0" xmlns="http://www.w3.org/2000/svg"
 width="300.000000pt" height="400.000000pt" viewBox="0 0 300.000000 400.000000"
 preserveAspectRatio="xMidYMid meet">
<metadata>
Created by potrace 1.10, written by Peter Selinger 2001-2011
</metadata>
<g transform="translate(0.000000,400.000000) scale(0.100000,-0.100000)"
fill="#000000" stroke="none">
<path d="M5 2000 c0 -1103 1 -1554 2 -1002 2 551 2 1453 0 2005 -1 551 -2 100
-2 -1003z"/>
<path d="M2995 2000 c0 -1103 1 -1554 2 -1002 2 551 2 1453 0 2005 -1 551 -2
100 -2 -1003z"/>
<path d="M1690 3350 c-21 -23 -30 -42 -30 -66 0 -40 -9 -42 -38 -11 -17 18
-19 26 -10 35 9 9 3 11 -28 9 -26 -1 -45 -9 -56 -24 -21 -25 -22 -43 -6 -78
14 -32 45 -49 121 -66 31 -8 57 -16 57 -20 0 -3 -9 -18 -20 -32 l-20 -26 23
-17 c22 -17 23 -20 11 -70 -6 -28 -17 -60 -24 -70 -9 -15 -11 -16 -6 -2 5 17
-18 145 -27 155 -12 12 -188 2 -229 -12 -23 -9 -58 -21 -76 -27 -18 -7 -55
-35 -82 -64 -33 -35 -73 -64 -123 -87 -56 -27 -79 -44 -95 -72 -25 -41 -28
-65 -10 -83 9 -9 6 -18 -15 -40 -42 -43 -37 -125 13 -222 4 -8 19 -14 32 -13
21 1 24 -3 21 -25 -2 -15 5 -41 16 -59 17 -26 33 -36 81 -50 33 -9 56 -19 50
-23 -6 -4 15 -18 47 -33 32 -14 65 -31 73 -37 8 -5 27 -14 43 -20 17 -6 27
-17 27 -29 0 -11 14 -43 32 -70 33 -54 32 -79 -2 -43 -24 26 -52 28 -84 7 -22
-15 -24 -14 -29 5 -3 11 -5 22 -4 24 1 1 -4 10 -12 20 -19 23 -48 74 -69 119
-17 39 -17 39 -62 31 -25 -4 -67 -8 -95 -8 -27 1 -39 -1 -25 -4 25 -4 -174
-61 -215 -61 -19 0 -19 0 -1 11 10 6 51 19 90 28 46 12 61 19 42 19 -36 1
-206 -51 -206 -63 0 -4 12 -5 27 -1 16 4 24 3 20 -1 -8 -8 -53 -15 -95 -16
-13 0 -30 -10 -39 -24 -10 -16 -25 -24 -44 -24 -41 0 -132 -36 -163 -65 -35
-32 -61 -102 -45 -121 6 -8 17 -14 23 -14 12 0 36 -45 36 -67 0 -7 7 -13 16
-13 11 0 15 -6 11 -19 -4 -16 3 -20 41 -26 45 -7 61 2 62 33 0 6 5 12 11 12 8
0 9 -14 5 -44 -6 -36 -4 -46 9 -54 50 -27 86 24 74 108 -7 52 -3 70 17 70 8 0
33 9 57 19 29 13 77 21 152 26 93 5 114 3 142 -12 26 -14 31 -22 26 -38 -16
-41 -6 -96 22 -125 21 -22 25 -32 17 -47 -6 -10 -10 -61 -10 -113 1 -92 -1
-98 -45 -194 -36 -79 -55 -107 -96 -143 -29 -25 -49 -48 -46 -51 3 -3 23 12
45 33 22 22 40 35 40 30 -1 -21 -98 -170 -109 -167 -6 1 -14 -5 -17 -13 -4 -8
-12 -15 -19 -15 -7 0 -26 -7 -42 -14 -15 -8 -36 -17 -45 -20 -14 -4 -18 -17
-18 -61 0 -30 4 -55 9 -55 5 0 11 -13 13 -29 2 -17 1 -28 -4 -25 -4 3 -8 13
-9 22 0 11 -2 12 -6 4 -6 -15 22 -61 49 -80 11 -8 18 -26 18 -47 0 -46 37 -86
100 -109 51 -18 52 -18 71 1 24 23 49 111 42 146 -3 15 4 39 20 65 14 22 32
55 40 75 23 53 34 52 30 -4 -3 -52 10 -59 22 -12 8 35 49 138 86 220 16 34 31
74 35 89 5 18 9 22 15 13 6 -10 11 -6 18 14 6 16 11 34 11 40 0 7 9 31 20 55
15 33 24 42 45 42 39 0 205 42 205 52 0 8 -19 5 -57 -9 -7 -3 -13 -2 -13 1 0
11 73 36 91 31 9 -3 31 -7 49 -10 60 -7 94 -18 120 -35 33 -24 70 -34 70 -21
0 6 -7 11 -15 11 -9 0 -18 7 -21 15 -4 8 -12 15 -20 15 -8 0 -14 4 -14 8 0 5
-12 14 -27 21 -20 9 -28 9 -34 0 -5 -9 -21 -5 -59 15 -45 23 -54 25 -63 13
-11 -14 -161 -54 -181 -48 -5 1 -12 -3 -16 -9 -9 -14 -96 -15 -130 -2 -28 11
-100 76 -100 90 0 5 -7 15 -16 23 -9 7 -14 22 -11 36 2 12 0 24 -6 26 -15 5 2
67 19 67 17 0 20 55 4 65 -8 5 -8 11 0 20 8 9 8 15 0 20 -5 3 -10 16 -10 27 0
20 1 20 24 -5 13 -14 39 -28 57 -31 96 -14 110 -15 106 -3 -2 7 -19 13 -37 14
-61 3 -97 13 -115 33 -16 18 -16 19 18 34 20 8 43 26 52 40 10 14 23 26 30 26
8 0 12 9 9 23 -3 16 -1 15 8 -7 12 -26 16 -28 53 -22 72 9 95 22 95 53 0 20 3
24 9 14 6 -9 19 -12 43 -7 32 6 35 4 51 -29 15 -32 37 -47 37 -26 0 5 17 13
38 18 32 8 38 13 42 43 4 27 7 31 13 17 9 -23 30 -11 24 14 -3 10 -1 22 4 25
12 7 11 -79 -1 -131 -7 -31 -6 -41 6 -48 7 -4 14 -16 13 -25 0 -14 -2 -13 -9
3 -6 13 -9 15 -9 5 -1 -12 -3 -13 -10 -1 -12 19 -25 -23 -14 -44 16 -29 163
-95 224 -102 37 -4 60 -11 63 -20 7 -17 -12 -98 -30 -133 -7 -14 -18 -44 -24
-67 -6 -24 -22 -53 -35 -66 l-25 -22 31 -33 c16 -17 37 -32 45 -32 7 0 23 -9
35 -21 20 -20 21 -20 57 -1 20 10 39 28 40 38 4 20 82 185 92 194 11 9 70 139
70 154 0 8 6 16 13 19 8 3 6 9 -7 19 -13 10 -17 22 -14 36 4 12 1 20 -4 19 -6
-1 -15 14 -20 32 -18 67 -86 85 -116 30 -28 -50 -53 -80 -63 -73 -17 10 -36
-15 -32 -41 5 -23 4 -24 -48 -20 -67 6 -149 34 -143 50 3 6 -10 18 -28 26 -21
9 -31 20 -29 29 12 44 13 143 1 150 -7 4 -10 14 -8 21 7 21 41 -50 35 -72 -3
-11 -1 -19 4 -19 17 0 9 55 -15 97 -14 23 -22 51 -19 62 3 14 -10 35 -49 74
l-53 55 17 64 c10 35 16 68 14 73 -2 6 -12 -18 -21 -52 -11 -36 -28 -72 -43
-85 l-24 -23 7 25 c7 21 6 23 -7 13 -11 -9 -17 -10 -26 -1 -17 17 10 60 51 82
60 33 72 76 20 76 -20 0 -24 3 -18 18 5 9 9 35 11 57 1 22 6 69 9 104 6 46 5
62 -4 57 -6 -4 -11 -25 -11 -47 0 -22 -7 -50 -16 -63 -10 -16 -12 -26 -5 -31
6 -3 11 -18 10 -33 l-1 -27 -8 29 c-12 39 -37 64 -71 71 -29 7 -95 -10 -115
-29 -16 -15 -28 -86 -14 -86 5 0 10 -5 10 -11 0 -6 -16 -2 -36 10 -39 23 -66
26 -95 11 -27 -15 -24 -35 9 -55 15 -10 31 -25 35 -32 6 -10 17 -13 33 -9 26
7 34 -8 9 -18 -43 -16 4 -72 51 -60 16 4 29 2 34 -5 10 -18 57 -3 63 20 3 10
13 19 22 19 12 0 15 -5 10 -22 -12 -37 -20 -41 -107 -44 -78 -3 -87 -1 -153
33 -58 29 -64 35 -35 30 19 -3 44 -9 55 -13 18 -7 18 -6 6 9 -7 9 -23 17 -35
17 -11 0 -38 5 -58 11 -30 8 -38 15 -38 32 0 13 5 28 12 35 9 9 9 12 -4 12 -9
0 -21 18 -31 48 -14 41 -16 43 -16 17 0 -16 6 -39 14 -49 8 -11 15 -32 15 -47
0 -27 -1 -27 -30 -18 -16 6 -41 24 -54 40 -23 28 -24 32 -12 72 13 42 11 67
-4 67 -4 0 -13 -13 -19 -30 -10 -31 -41 -42 -41 -15 0 9 -7 26 -15 39 -22 34
-22 132 0 156 22 24 75 27 75 5 0 -17 16 -20 25 -6 3 5 -4 16 -16 24 -23 17
-16 24 21 21 14 -1 32 4 40 11 31 25 37 24 35 -6 -2 -37 -25 -65 -25 -31 0 12
-5 22 -11 22 -7 0 -8 -14 -3 -42 4 -24 8 -52 9 -63 3 -27 24 -20 63 21 33 36
40 58 22 69 -5 3 -10 17 -10 31 0 14 4 22 10 19 6 -3 10 1 10 9 0 9 5 16 11
16 5 0 7 -4 4 -10 -3 -5 0 -10 7 -10 7 0 18 8 25 19 7 11 29 21 57 25 46 7
198 -9 226 -24 9 -4 31 -6 50 -5 19 2 42 -1 50 -7 11 -7 9 -8 -10 -5 -14 3
-34 1 -45 -3 -18 -8 -18 -9 6 -9 14 -1 44 -15 67 -32 l42 -31 12 26 c6 15 22
29 34 32 13 3 25 13 27 22 4 15 5 15 6 -1 0 -10 -6 -20 -14 -23 -8 -4 -15 -17
-15 -29 0 -13 -4 -26 -8 -29 -5 -3 -14 -31 -22 -63 -7 -32 -23 -89 -37 -128
-13 -38 -26 -95 -28 -125 -1 -30 -6 -73 -10 -95 -5 -25 -4 -36 2 -30 5 6 15
44 21 85 13 77 55 232 72 262 5 9 12 31 15 47 3 17 24 88 46 158 27 83 42 148
43 185 1 58 1 58 32 58 38 0 58 21 52 55 -4 16 1 30 15 42 26 24 57 91 57 126
0 35 -27 77 -50 77 -10 0 -25 6 -33 14 -10 10 -49 17 -123 21 -59 4 -112 9
-116 11 -5 3 -22 -9 -38 -26z m65 -46 c-18 -39 -24 -44 -52 -44 -38 0 -41 12
-14 55 14 24 26 31 52 32 l35 1 -21 -44z m115 27 c-5 -11 -14 -22 -19 -26 -5
-3 -12 -18 -16 -34 -5 -23 -11 -28 -35 -29 -38 -1 -48 15 -18 27 17 7 19 10 6
10 -49 2 9 71 59 71 30 0 33 -2 23 -19z m63 -8 c-17 -11 -23 -25 -23 -54 0
-29 -4 -39 -16 -39 -10 0 -14 6 -10 15 3 8 1 15 -4 15 -6 0 -10 -4 -10 -10 0
-5 -4 -10 -10 -10 -18 0 -10 31 16 66 19 24 34 34 53 33 l26 0 -22 -16z m19
-25 c-7 -7 -12 -22 -12 -35 0 -13 -4 -23 -10 -23 -5 0 -10 7 -10 16 0 22 19
54 32 54 9 0 9 -3 0 -12z m48 1 c0 21 16 11 26 -18 14 -34 -1 -84 -37 -129
-25 -31 -75 -47 -96 -30 -8 6 -41 8 -86 4 -66 -7 -75 -5 -91 13 -11 12 -31 21
-48 21 -15 0 -28 5 -28 10 0 6 -11 10 -25 10 -28 0 -69 38 -78 70 -3 14 2 24
15 31 17 9 26 5 56 -23 20 -18 39 -36 42 -39 8 -9 44 -1 48 10 5 14 38 14 65
-1 12 -6 39 -10 61 -10 21 1 45 -3 52 -9 7 -5 21 -9 31 -7 13 2 18 -3 17 -19
-1 -28 22 -30 31 -4 3 11 12 22 20 25 8 3 15 13 15 23 0 15 2 16 10 3 8 -12
10 -12 10 5 0 11 -5 27 -10 35 -9 13 -11 13 -20 0 -5 -8 -10 -24 -10 -35 -1
-18 -2 -18 -10 3 -13 31 7 77 27 61 9 -9 13 -8 13 0z m-75 -198 c21 -4 31 -13
33 -28 3 -22 2 -22 -127 -20 -126 2 -172 13 -140 32 34 22 166 31 234 16z
m-400 -51 c-4 -7 2 -9 19 -4 46 11 72 -3 90 -46 9 -22 16 -53 16 -69 0 -34
-10 -38 -125 -47 -71 -6 -112 -14 -205 -40 -35 -10 -70 -34 -70 -48 0 -20
-150 -66 -206 -63 -19 1 -21 5 -12 27 18 48 50 73 161 122 9 4 17 4 17 -1 0
-5 -9 -11 -20 -14 -25 -7 -26 -27 -1 -27 11 0 21 9 25 24 7 28 94 142 106 139
5 -2 30 7 57 19 26 12 68 25 93 29 25 3 49 7 53 8 5 0 5 -4 2 -9z m351 -37
c-3 -16 -11 -50 -18 -78 -6 -27 -12 -66 -12 -86 0 -37 -1 -37 -39 -3 -11 10
-63 29 -104 40 -8 2 -4 23 12 71 l22 68 44 6 c96 13 102 12 95 -18z m-308
-152 c44 15 64 6 27 -13 -20 -11 -49 -15 -88 -13 -32 2 -79 -2 -104 -10 -57
-17 -70 -11 -20 10 46 19 140 34 148 23 3 -5 20 -3 37 3z m175 -26 c19 -13 18
-14 -9 -13 -16 0 -41 -5 -56 -10 -15 -6 -28 -7 -30 -3 -2 5 -13 11 -25 15 -18
6 -22 4 -17 -8 4 -10 1 -16 -9 -16 -26 0 -12 33 19 47 33 15 97 9 127 -12z
m-27 -42 c-15 -8 -35 -12 -44 -10 -11 3 -6 7 16 12 17 4 32 12 32 17 0 5 5 6
11 2 8 -4 2 -12 -15 -21z m69 9 c-6 -4 -16 -19 -24 -34 -12 -23 -17 -26 -34
-16 -20 10 -20 11 9 34 16 13 36 24 44 24 9 0 11 -3 5 -8z m-545 -129 c0 -7
-11 -13 -25 -13 -18 0 -23 -4 -19 -15 4 -8 2 -15 -4 -15 -21 0 -21 30 1 45 12
8 17 15 12 15 -6 0 -3 4 5 10 15 9 30 -4 30 -27z m358 -220 c6 -57 -69 -84
-120 -43 -26 20 -36 74 -16 86 55 34 131 10 136 -43z m-210 -53 c47 -23 62
-25 62 -8 0 6 6 3 14 -7 15 -21 63 -24 137 -10 25 5 39 3 44 -6 6 -9 1 -10
-21 -5 -16 4 -24 3 -17 -1 8 -6 9 -14 3 -23 -5 -8 -12 -11 -16 -7 -4 4 -13 2
-21 -4 -16 -14 -136 -4 -141 11 -2 6 -19 10 -38 10 -24 0 -34 5 -34 15 0 8 -7
15 -15 15 -8 0 -15 5 -15 10 0 6 -7 10 -16 10 -8 0 -12 5 -9 10 9 15 37 12 83
-10z m116 -111 c-3 -5 -29 -9 -57 -9 -47 1 -50 2 -29 13 24 14 95 10 86 -4z
m-251 -111 c38 -75 45 -98 27 -98 -5 0 -10 -4 -10 -10 0 -5 7 -10 16 -10 12 0
15 -6 10 -22 -3 -13 -6 -28 -6 -35 0 -18 -87 -66 -107 -59 -9 4 -13 9 -10 13
4 3 2 12 -4 20 -13 15 -5 17 21 3 13 -7 19 -6 23 5 5 12 -19 13 -156 8 -89 -3
-179 -9 -199 -13 -37 -8 -38 -7 -38 24 -1 39 -23 102 -45 126 -19 21 -12 27
42 36 28 4 50 1 72 -10 30 -16 34 -16 69 3 20 11 62 29 92 40 30 10 73 26 95
35 63 24 68 22 108 -56z m-148 52 c-3 -5 -13 -10 -21 -10 -9 0 -48 -14 -89
-30 -51 -22 -81 -29 -99 -24 -33 8 -28 14 21 25 21 4 72 17 113 28 41 11 76
20 78 20 2 1 0 -3 -3 -9z m484 -17 c10 -10 37 -45 60 -78 l42 -60 -36 -3 c-20
-2 -39 -10 -42 -18 -3 -7 -9 -11 -14 -8 -11 7 -11 1 1 -31 5 -14 6 -24 1 -21
-5 3 -14 20 -20 36 -6 18 -6 28 -1 25 16 -10 11 8 -9 39 -11 17 -17 34 -15 38
3 5 1 15 -5 22 -8 9 -8 22 0 45 13 36 14 37 38 14z m90 -28 c36 -31 45 -54 33
-86 -9 -23 -9 -23 -28 11 -10 19 -17 40 -16 45 1 6 -8 15 -20 20 -12 6 -23 16
-26 23 -6 21 25 13 57 -13z m-164 -12 c3 -16 10 -41 16 -58 22 -63 22 -65 0
-65 -28 0 -61 17 -61 31 0 6 -9 23 -20 38 -10 15 -21 40 -24 54 -4 26 -3 27
39 27 41 0 45 -2 50 -27z m-772 -43 c14 -11 28 -34 32 -50 4 -17 11 -30 16
-30 15 0 10 -70 -5 -86 -16 -16 -44 -18 -65 -5 -10 6 -11 21 -6 58 5 41 3 53
-13 73 -15 18 -18 30 -11 42 12 23 21 23 52 -2z m-71 -42 c29 -20 30 -24 24
-73 -5 -43 -3 -54 10 -59 14 -5 13 -10 -10 -31 -26 -24 -35 -42 -16 -30 6 4
10 -11 10 -39 0 -25 -5 -48 -11 -51 -6 -4 -8 -12 -6 -19 3 -6 -1 -16 -7 -22
-9 -8 -12 -3 -12 22 0 18 3 31 7 28 4 -2 10 0 14 6 3 5 1 10 -4 10 -6 0 -11 7
-11 16 0 8 -15 21 -32 29 -40 17 -62 47 -45 64 8 8 7 11 -3 11 -13 1 -90 89
-90 103 0 9 74 37 148 56 2 1 18 -9 34 -21z m759 -49 c14 -27 0 -42 -37 -37
-31 3 -49 38 -20 38 9 0 16 5 16 10 0 18 29 10 41 -11z m239 -9 c0 -23 -37
-37 -54 -20 -8 9 -5 16 13 31 26 21 41 17 41 -11z m-1174 -65 c-12 -16 -22
-32 -24 -34 -8 -14 -23 21 -20 45 l4 29 12 -25 12 -25 -5 28 c-8 39 3 52 24
30 17 -17 17 -19 -3 -48z m651 0 c0 -19 -27 -19 -53 0 -18 13 -17 14 17 15 25
0 36 -4 36 -15z m-599 -18 c3 -16 -32 -56 -50 -57 -12 0 -10 26 4 55 13 29 41
30 46 2z m617 -37 c3 -5 0 -10 -7 -10 -10 0 -10 -2 1 -9 7 -5 11 -14 7 -20 -4
-6 -2 -20 4 -31 15 -27 -2 -25 -29 3 -18 20 -20 28 -12 50 11 28 25 34 36 17z
m-611 -44 c-11 -14 -22 -26 -26 -26 -14 0 -8 33 9 52 25 28 40 6 17 -26z
m1670 -95 c-16 -74 -52 -156 -87 -198 -44 -53 -87 -141 -87 -178 0 -29 -14
-39 -37 -26 -11 6 -13 11 -5 11 23 0 2 20 -21 20 -38 0 -48 13 -37 46 52 155
70 214 76 244 8 43 33 82 88 136 l41 41 37 -35 c30 -28 36 -41 32 -61z m-1616
67 c-15 -23 -68 -38 -68 -19 0 18 31 41 57 41 24 0 25 -1 11 -22z m1535 -305
c-39 -95 -83 -166 -83 -134 0 29 79 171 96 171 1 0 -4 -17 -13 -37z m-856 -57
c18 -9 44 -16 59 -16 26 0 26 -1 11 -18 -10 -10 -17 -25 -17 -32 0 -7 -17 -53
-37 -102 -30 -69 -45 -94 -70 -109 -31 -19 -35 -20 -65 -4 -18 9 -28 11 -21 4
6 -6 9 -18 6 -27 -5 -13 1 -14 40 -9 l47 7 -19 -38 c-11 -20 -34 -53 -51 -72
-18 -19 -43 -56 -56 -82 -13 -27 -28 -48 -32 -48 -20 0 -50 47 -50 79 0 18 -7
40 -16 50 -8 9 -17 32 -21 52 -6 30 0 49 33 114 24 48 42 72 46 64 3 -8 4 -2
1 13 -3 18 3 38 19 63 14 20 32 58 41 85 l17 50 29 -17 c16 -10 29 -22 29 -29
0 -26 101 -47 115 -24 3 6 -1 10 -10 10 -17 0 -74 36 -87 55 -5 7 -8 6 -8 -2
0 -6 14 -21 31 -33 36 -26 31 -40 -6 -16 -30 20 -47 58 -38 82 5 15 9 14 27
-8 12 -14 35 -33 53 -42z m-337 -393 c0 -9 -5 -11 -12 -7 -9 5 -8 2 1 -9 8
-10 25 -41 38 -69 13 -29 33 -58 43 -65 11 -8 20 -26 20 -40 0 -14 5 -42 11
-62 9 -32 8 -44 -11 -85 -19 -39 -27 -47 -44 -42 -12 3 -24 6 -27 6 -3 0 -6
37 -6 83 0 90 -16 134 -86 241 -22 33 -21 39 6 52 33 15 67 14 67 -3z m44 -19
c3 -9 4 -20 1 -24 -3 -5 -1 -11 5 -15 5 -3 10 -14 10 -23 -1 -15 -3 -14 -16 3
-8 11 -12 25 -10 32 3 7 1 15 -4 18 -13 8 -13 25 -1 25 5 0 12 -7 15 -16z
m-128 -56 c10 -24 25 -54 33 -66 8 -13 16 -38 18 -55 2 -17 8 -36 13 -41 15
-15 13 -106 -3 -106 -20 0 -37 22 -37 48 0 27 -15 58 -42 88 -34 37 -41 174
-10 174 5 0 17 -19 28 -42z"/>
<path d="M1536 2985 c-50 -46 -25 -96 39 -75 47 15 62 43 40 76 -20 31 -45 31
-79 -1z m16 -17 c-19 -19 -14 -29 13 -22 15 4 25 2 25 -5 0 -6 -4 -11 -9 -11
-5 0 -16 -3 -25 -6 -21 -8 -32 22 -16 41 7 8 15 15 18 15 3 0 1 -5 -6 -12z"/>
<path d="M1373 2758 c-22 -11 -33 -34 -26 -55 8 -22 23 -14 23 11 0 27 16 36
66 36 19 0 34 5 34 10 0 13 -69 12 -97 -2z"/>
<path d="M1513 2733 c-25 -10 -12 -20 27 -21 22 -1 49 -7 60 -14 29 -18 39 1
11 23 -22 18 -70 24 -98 12z"/>
<path d="M1413 2679 c-63 -23 -54 -129 11 -129 26 0 66 38 66 64 0 45 -40 79
-77 65z m39 -26 c35 -31 17 -83 -29 -83 -24 0 -32 23 -12 35 5 4 9 17 8 28 -3
43 4 47 33 20z"/>
<path d="M1534 2636 c-34 -52 3 -104 54 -76 30 17 41 62 21 86 -18 22 -57 17
-75 -10z m64 -20 c5 -22 -16 -46 -39 -46 -23 0 -25 16 -4 24 8 3 15 15 15 27
0 24 23 21 28 -5z"/>
<path d="M1061 2606 c-9 -10 -8 -16 4 -26 21 -17 31 -5 14 17 -9 11 -10 14 -1
9 6 -4 12 -2 12 3 0 15 -15 14 -29 -3z"/>
<path d="M1171 2524 c-6 -15 -9 -29 -6 -32 3 -4 8 4 12 17 4 16 11 21 25 18
12 -4 18 -1 15 6 -7 23 -34 18 -46 -9z"/>
</g>
</svg>
