<svg xmlns="http://www.w3.org/2000/svg" width="875" height="693" viewBox="0 0 875 693" version="1.1">
	<path d="M 668.110 95.113 C 666.930 96.378, 665.493 99.170, 664.915 101.317 L 663.864 105.220 661.372 102.880 C 660.002 101.593, 659.358 100.381, 659.941 100.186 C 662.370 99.377, 660.732 98.280, 657.250 98.386 C 651.172 98.571, 648.706 102.114, 650.334 108.321 C 650.903 110.492, 652.304 111.687, 656.409 113.502 C 659.343 114.800, 663.420 116.176, 665.470 116.560 C 667.521 116.945, 668.815 117.539, 668.347 117.880 C 667.880 118.221, 666.839 119.775, 666.034 121.334 C 664.675 123.969, 664.725 124.286, 666.753 125.834 C 668.759 127.365, 668.846 127.863, 667.829 132 C 666.313 138.172, 665.374 138.840, 664.564 134.325 C 664.187 132.221, 663.438 128.813, 662.900 126.750 L 661.923 123 650.897 123 C 642.326 123, 638.828 123.427, 635.185 124.917 C 632.608 125.972, 629.375 127.087, 628 127.396 C 626.625 127.705, 623.025 130.302, 620 133.167 C 616.975 136.032, 614.275 138.417, 614 138.468 C 613.725 138.518, 610.282 139.837, 606.350 141.398 C 600.504 143.720, 598.710 144.985, 596.518 148.334 C 594.618 151.235, 593.968 153.315, 594.287 155.465 C 594.612 157.652, 594.076 159.290, 592.369 161.327 C 589.343 164.937, 589.146 173.263, 591.915 180.500 C 593.528 184.717, 594.228 185.494, 596.379 185.463 C 598.508 185.433, 598.840 185.788, 598.384 187.606 C 597.885 189.596, 600.326 196, 601.585 196 C 601.878 196, 601.797 195.480, 601.405 194.845 C 600.972 194.146, 601.129 193.962, 601.802 194.378 C 602.413 194.755, 602.678 195.676, 602.391 196.423 C 602.028 197.369, 603.367 198.166, 606.801 199.046 C 610.750 200.058, 611.639 200.666, 611.264 202.098 C 610.700 204.255, 606.450 205.357, 599 205.276 C 595.487 205.237, 594.222 205.488, 595.500 205.969 C 597.090 206.568, 596.680 206.829, 593.500 207.242 C 591.300 207.527, 585.759 208.715, 581.187 209.880 C 571.615 212.321, 572 212.268, 572 211.130 C 572 210.651, 574.138 209.726, 576.750 209.074 C 579.362 208.422, 583.037 207.483, 584.915 206.987 C 586.793 206.492, 588.775 206.361, 589.320 206.697 C 589.883 207.046, 589.994 206.799, 589.577 206.124 C 588.347 204.134, 571.191 208.082, 563.851 212.045 C 561.844 213.128, 559.515 213.751, 558.675 213.429 C 557.727 213.065, 556.542 213.769, 555.548 215.287 C 554.301 217.190, 552.767 217.870, 548.619 218.357 C 538.575 219.537, 529.801 224.837, 528.431 230.551 C 528.042 232.173, 527.340 233.992, 526.871 234.592 C 526.341 235.269, 527.059 236.671, 528.758 238.280 C 532.843 242.146, 533.593 243.322, 533.205 245.250 C 532.984 246.349, 533.464 247, 534.494 247 C 535.644 247, 535.957 247.562, 535.539 248.876 C 534.873 250.975, 537.157 251.963, 542.731 251.986 C 545.349 251.997, 546.081 251.526, 546.589 249.500 C 547.709 245.038, 549.160 246.749, 548.423 251.663 C 547.865 255.387, 548.054 256.566, 549.363 257.524 C 552.107 259.530, 555.803 258.173, 556.523 254.894 C 556.873 253.302, 557.600 252, 558.138 252 C 558.677 252, 558.819 251.515, 558.453 250.923 C 558.087 250.331, 557.607 247.914, 557.386 245.552 C 556.921 240.571, 557.796 239.568, 563.500 238.541 C 565.700 238.145, 568.104 237.322, 568.842 236.712 C 569.587 236.096, 575.558 235.411, 582.273 235.172 C 592.601 234.803, 594.855 235.006, 597.742 236.560 C 600.682 238.144, 601.021 238.713, 600.350 240.940 C 598.822 246.009, 599.499 250.654, 602.299 254.325 C 603.789 256.279, 604.622 258.116, 604.149 258.408 C 603.677 258.700, 603.050 263.655, 602.755 269.420 C 602.236 279.593, 602.067 280.211, 596.988 290.430 C 592.101 300.264, 588.552 304.594, 581.608 309.196 C 581.030 309.578, 580.887 310.220, 581.289 310.623 C 581.692 311.025, 583.361 310.070, 585 308.500 C 586.639 306.930, 588.171 305.838, 588.405 306.073 C 588.639 306.308, 586.770 309.926, 584.253 314.114 C 580.830 319.807, 579.236 321.613, 577.934 321.273 C 576.802 320.976, 575.961 321.549, 575.529 322.909 C 575.164 324.059, 574.022 325, 572.992 325 C 571.961 325, 570.840 325.450, 570.500 326 C 570.160 326.550, 568.870 327, 567.632 327 C 563.030 327, 561.790 329.079, 561.391 337.470 C 560.991 345.873, 562.506 350.043, 566.943 352.758 C 568.478 353.697, 569 355.054, 569 358.101 C 569 360.692, 569.743 363.129, 571.032 364.768 C 572.968 367.230, 581.498 371, 585.130 371 C 588.388 371, 591.563 363.754, 592.520 354.131 C 592.865 350.663, 599.926 336.782, 601.996 335.503 C 602.331 335.295, 602.538 337.123, 602.456 339.563 C 602.373 342.003, 602.604 344, 602.969 344 C 603.334 344, 604.688 341.412, 605.979 338.250 C 607.270 335.087, 610.635 327.550, 613.457 321.500 C 616.279 315.450, 619.100 309.375, 619.726 308 C 620.352 306.625, 620.895 306.063, 620.932 306.750 C 621.070 309.288, 622.798 307.897, 623.417 304.750 C 623.768 302.962, 625.090 299.475, 626.353 297 C 628.432 292.928, 629.071 292.440, 633.075 291.866 C 635.509 291.517, 641.325 290.505, 646 289.617 C 650.675 288.729, 654.612 288.002, 654.750 288.001 C 654.888 288.001, 655 287.514, 655 286.921 C 655 286.253, 653.760 286.058, 651.750 286.409 C 648.550 286.968, 648.562 286.947, 652.482 285.054 C 655.128 283.776, 656.683 283.487, 657.119 284.192 C 657.479 284.775, 659.512 285.361, 661.637 285.494 C 666.604 285.806, 673.740 287.770, 674.526 289.042 C 675.396 290.450, 682.190 293.154, 682.904 292.376 C 683.232 292.019, 682.912 291.517, 682.194 291.261 C 681.476 291.005, 680.126 290.021, 679.194 289.073 C 678.262 288.125, 675.767 286.306, 673.648 285.031 C 670.763 283.293, 669.606 283.020, 669.036 283.942 C 668.466 284.864, 666.960 284.507, 663.039 282.520 C 658.084 280.009, 657.630 279.948, 654.592 281.389 C 652.827 282.227, 648.934 283.339, 645.941 283.861 C 642.949 284.382, 637.230 285.535, 633.234 286.421 C 623.606 288.557, 618.704 287.581, 614.076 282.606 C 610.858 279.147, 609.273 279.257, 612.008 282.750 C 614.852 286.384, 619.694 288.906, 623.924 288.958 L 627.349 289 625.174 291.314 C 623.978 292.587, 623 294.357, 623 295.246 C 623 296.136, 620.971 301.031, 618.492 306.125 C 614.826 313.657, 613.390 315.637, 610.802 316.725 C 608.448 317.715, 606.850 317.795, 604.661 317.032 C 600.959 315.741, 601.135 315.715, 601.399 317.510 C 601.846 320.561, 603.669 321.327, 607.912 320.250 C 611.848 319.251, 611.921 319.279, 610.812 321.363 C 609.138 324.508, 605.970 328.681, 601.900 333.099 C 599.920 335.249, 597.497 338.789, 596.515 340.967 C 595.035 344.249, 594.428 344.764, 592.963 343.980 C 591.992 343.461, 590.405 340.440, 589.437 337.268 C 588.470 334.095, 587.136 330.825, 586.474 330 C 584.690 327.776, 584.115 321.853, 585.407 319 C 586.030 317.625, 588.075 313.843, 589.952 310.595 C 592.801 305.666, 593.489 305.006, 594.112 306.595 C 594.657 307.983, 594.879 308.079, 594.930 306.950 C 594.968 306.097, 594.498 304.898, 593.885 304.285 C 593.064 303.464, 593.575 302.155, 595.817 299.335 C 597.493 297.226, 599.615 293.596, 600.533 291.269 C 601.959 287.655, 602.469 287.181, 604.035 288.019 C 607.127 289.674, 607.635 289.068, 605 286.869 L 602.500 284.783 605.840 286.750 C 607.677 287.831, 609.163 289.118, 609.143 289.608 C 609.091 290.873, 613.864 293.227, 618.050 294.002 C 622.976 294.913, 623.293 291.869, 618.454 290.120 C 616.587 289.444, 614.112 287.561, 612.953 285.934 C 611.795 284.307, 610.463 283.214, 609.994 283.503 C 609.525 283.793, 609.305 282.743, 609.504 281.170 C 609.721 279.455, 609.019 276.944, 607.752 274.904 C 604.381 269.475, 604.731 259.558, 608.269 260.260 C 609.714 260.547, 609.338 255.149, 607.780 253.250 C 607.062 252.375, 607.115 252, 607.957 252 C 608.791 252, 608.943 251.005, 608.455 248.750 C 607.779 245.634, 607.827 245.568, 609.625 247.150 C 612.671 249.832, 618.929 252, 623.622 252 C 626.030 252, 628 251.550, 628 251 C 628 250.450, 626.267 250, 624.149 250 C 622.031 250, 618.769 249.486, 616.899 248.858 C 610.758 246.796, 608.248 243, 613.026 243 C 614.075 243, 616.508 241.425, 618.433 239.500 C 620.358 237.575, 622.447 236, 623.075 236 C 623.809 236, 623.989 235.017, 623.578 233.250 C 623.104 231.210, 623.201 230.887, 623.954 232 C 624.513 232.825, 624.976 234.287, 624.985 235.250 C 624.996 236.532, 625.818 237, 628.057 237 C 633.583 237, 640.233 234.824, 640.750 232.848 C 641.064 231.646, 642.154 230.995, 643.867 230.986 C 645.315 230.979, 647.451 230.718, 648.612 230.406 C 650.593 229.874, 651.236 230.655, 651.805 234.286 C 651.873 234.718, 652.642 235.785, 653.515 236.658 C 654.926 238.069, 655.234 238.077, 656.301 236.733 C 656.960 235.903, 659.188 234.927, 661.250 234.566 C 664.080 234.070, 665 233.430, 665 231.955 C 665 230.689, 665.682 230, 666.934 230 C 668.275 230, 668.995 229.158, 669.284 227.250 C 669.513 225.738, 669.748 227.200, 669.806 230.500 C 669.865 233.800, 669.220 238.300, 668.375 240.500 C 665.808 247.178, 665.643 248.948, 667.408 250.898 C 670.174 253.954, 683.084 259.685, 690.369 261.089 L 697.237 262.414 696.700 267.618 C 696.405 270.480, 695.450 273.910, 694.578 275.240 C 693.707 276.571, 692.305 279.977, 691.464 282.809 C 690.592 285.747, 688.679 289.150, 687.013 290.730 L 684.092 293.500 687.032 296.750 C 688.649 298.538, 690.592 300, 691.351 300 C 692.110 300, 693.874 300.900, 695.273 302 C 698.270 304.358, 702.821 304.630, 703.638 302.500 C 703.955 301.675, 704.841 301, 705.607 301 C 706.373 301, 707 300.146, 707 299.102 C 707 296.452, 716.904 277.822, 717.964 278.478 C 718.314 278.694, 719.185 276.894, 719.899 274.477 C 720.613 272.059, 721.827 269.558, 722.598 268.918 C 723.369 268.279, 724.003 267.248, 724.006 266.628 C 724.010 266.007, 724.678 264.224, 725.492 262.664 C 726.808 260.139, 726.799 259.656, 725.408 258.265 C 724.548 257.405, 724.063 255.869, 724.329 254.851 C 724.595 253.833, 724.477 253, 724.067 253 C 723.041 253, 720.860 248.035, 721.460 247.065 C 721.727 246.633, 720.153 245.471, 717.963 244.483 C 714.760 243.039, 713.494 242.910, 711.490 243.822 C 710.121 244.446, 708.986 245.529, 708.968 246.229 C 708.917 248.314, 704.708 252.426, 701.497 253.529 C 699.026 254.378, 698.556 255.030, 698.817 257.246 L 699.134 259.934 692.585 259.502 C 688.983 259.265, 684.566 258.287, 682.768 257.329 C 680.971 256.372, 679.162 255.681, 678.750 255.794 C 678.337 255.907, 678.112 255.482, 678.250 254.850 C 678.387 254.217, 676.798 252.780, 674.717 251.657 C 672 250.189, 671.125 249.175, 671.611 248.057 C 671.982 247.201, 672.627 243.883, 673.042 240.685 C 673.809 234.781, 674.903 232.093, 675.118 235.583 C 675.184 236.638, 675.164 238.063, 675.075 238.750 C 674.985 239.438, 675.382 240, 675.956 240 C 677.707 240, 677.131 236.345, 674.458 230.502 C 673.060 227.446, 672.178 224.520, 672.499 224.002 C 673.378 222.579, 670.609 217.922, 666.585 214.054 C 662.536 210.162, 662.357 209.018, 664.593 201.330 C 666.460 194.907, 667.527 194.753, 666.059 201.118 C 664.953 205.916, 664.697 209.636, 665.530 208.803 C 665.822 208.512, 667.140 203.824, 668.461 198.387 C 669.781 192.949, 672.264 184.675, 673.979 180 C 677.420 170.618, 682.482 156.453, 686.432 145.154 C 687.844 141.114, 689 135.664, 689 133.043 C 689 128.559, 689.141 128.304, 691.388 128.734 C 695.352 129.492, 698.271 127.297, 697.776 123.930 C 697.451 121.712, 698.030 120.391, 700.258 118.269 C 703.603 115.081, 706 109.971, 706 106.024 C 706 103.074, 701.997 98, 699.670 98 C 698.886 98, 697.736 97.387, 697.114 96.637 C 696.409 95.787, 692.688 95.024, 687.241 94.612 C 682.433 94.248, 676.645 93.694, 674.377 93.381 C 670.932 92.905, 669.901 93.190, 668.110 95.113 M 668.557 98.223 C 666.207 101.578, 666.613 103.865, 669.697 104.639 C 671.369 105.058, 672.537 104.888, 672.770 104.191 C 672.976 103.572, 674.224 101.476, 675.542 99.533 L 677.940 96 674.027 96 C 671.116 96, 669.714 96.570, 668.557 98.223 M 678.687 98.805 C 675.419 102.215, 675.368 102.739, 678.250 103.294 L 680.500 103.728 678.250 103.864 C 676.221 103.987, 674.937 105.885, 676.750 106.081 C 681.994 106.649, 683 106.453, 683 104.860 C 683 103.921, 684.125 101.817, 685.499 100.183 C 687.626 97.656, 687.763 97.123, 686.417 96.607 C 683.384 95.443, 681.355 96.020, 678.687 98.805 M 690.797 97.680 C 689.860 97.927, 688.831 98.958, 688.509 99.972 C 688.187 100.986, 687.266 102.068, 686.462 102.376 C 685.658 102.685, 685 103.867, 685 105.004 C 685 106.789, 685.284 106.918, 687.086 105.954 C 688.233 105.340, 689.433 105.099, 689.752 105.419 C 690.072 105.739, 689.808 106, 689.167 106 C 688.525 106, 688 106.450, 688 107 C 688 107.550, 688.675 108, 689.500 108 C 690.547 108, 691 106.945, 691 104.508 C 691 102.100, 691.620 100.630, 693 99.768 C 696.498 97.583, 695.339 96.485, 690.797 97.680 M 653.001 102.499 C 652.008 103.695, 652.011 104.613, 653.015 107.037 C 654.444 110.486, 656.707 112, 660.434 112 C 661.845 112, 663 112.394, 663 112.875 C 663 113.356, 664.422 114.034, 666.161 114.382 C 667.899 114.730, 669.979 115.953, 670.783 117.100 C 672.129 119.023, 672.853 119.133, 680.005 118.500 C 685.242 118.036, 687.986 118.168, 688.442 118.906 C 688.814 119.508, 690.614 120, 692.443 120 C 695.037 120, 696.539 119.145, 699.281 116.111 C 701.214 113.971, 703.109 111.232, 703.493 110.024 C 704.327 107.393, 703.280 101, 702.014 101 C 700.458 101, 699.728 103.128, 700.887 104.287 C 701.499 104.899, 702 106.510, 702 107.867 C 702 109.223, 701.727 110.060, 701.393 109.727 C 700.722 109.055, 698.976 110.309, 695.685 113.826 L 693.508 116.151 692.981 113.918 C 692.443 111.642, 691.900 111.410, 684 110.085 C 681.525 109.670, 677.573 108.730, 675.218 107.997 C 671.953 106.981, 670.658 106.942, 669.768 107.832 C 668.464 109.136, 664.350 109.418, 663.833 108.239 C 663.384 107.212, 655.713 101, 654.895 101 C 654.537 101, 653.685 101.675, 653.001 102.499 M 696.865 103.398 C 696.030 105.229, 695.976 106.376, 696.690 107.090 C 697.403 107.803, 697.925 107.124, 698.369 104.903 C 699.197 100.764, 698.419 99.986, 696.865 103.398 M 670.582 120.868 C 668.978 121.216, 667.509 121.970, 667.318 122.544 C 666.612 124.667, 673.761 126.020, 684.850 125.863 C 694.981 125.720, 696 125.536, 696 123.853 C 696 122.469, 695.255 122, 693.059 122 C 691.441 122, 689.840 121.550, 689.500 121 C 688.835 119.924, 675.378 119.830, 670.582 120.868 M 637.828 125.995 C 636.359 126.430, 634.559 127.158, 633.828 127.614 C 632.222 128.617, 630.101 129.148, 627.750 129.134 C 626.788 129.129, 626 129.490, 626 129.937 C 626 130.384, 623.975 132.863, 621.500 135.446 C 619.025 138.029, 617 140.587, 617 141.130 C 617 141.674, 616.601 141.871, 616.113 141.570 C 615.625 141.268, 615.288 141.804, 615.363 142.760 C 615.449 143.856, 614.668 144.617, 613.250 144.819 C 610.742 145.176, 610.365 144.112, 612.250 141.998 C 613.281 140.842, 613.237 140.777, 612 141.631 C 611.175 142.199, 608.925 143.275, 607 144.021 C 601.797 146.037, 597.280 149.757, 596.171 152.938 L 595.189 155.756 600.345 155.378 C 609.927 154.676, 620 151.718, 620 149.605 C 620 148.036, 625.960 145.174, 631.910 143.886 C 634.434 143.339, 641.900 142.447, 648.500 141.903 C 655.100 141.359, 661.063 140.723, 661.750 140.489 C 664.373 139.595, 662.147 128.892, 658.808 126.342 C 657.234 125.141, 641.592 124.882, 637.828 125.995 M 670.448 133.750 C 667.695 142.010, 667.696 142, 669.467 142 C 671.485 142, 678.279 145.422, 680.327 147.470 C 682.087 149.230, 681.656 150.110, 684.957 138.020 C 686.081 133.906, 687 129.969, 687 129.270 C 687 128.359, 684.932 128, 679.683 128 L 672.365 128 670.448 133.750 M 653.500 130.013 C 647.364 132.316, 646.188 140, 651.972 140 C 656.278 140, 659.762 138.083, 660.453 135.333 C 661.390 131.599, 657.403 128.549, 653.500 130.013 M 631 150.849 C 627.587 151.484, 622.239 154.424, 620.765 156.477 C 620.319 157.098, 620.025 156.931, 620.015 156.050 C 620.005 155.049, 619.679 154.921, 618.963 155.637 C 618.247 156.353, 618.255 157.539, 618.988 159.469 C 620.366 163.093, 619.591 165.325, 615.870 168.456 C 611.221 172.367, 609.550 171.849, 609.234 166.399 C 608.858 159.923, 607.585 157.994, 603.715 158.030 C 601.047 158.056, 600.798 158.234, 602.250 159.080 C 603.212 159.641, 604 160.752, 604 161.550 C 604 163.451, 602.374 163.417, 601.638 161.500 C 600.781 159.265, 596.636 159.687, 594.279 162.250 C 591.434 165.342, 590.451 173.571, 592.473 177.364 C 593.313 178.940, 594 180.826, 594 181.555 C 594 182.285, 594.409 183.135, 594.910 183.444 C 596.195 184.239, 598.997 183.009, 599.015 181.643 C 599.024 181.014, 599.474 179.825, 600.015 179 C 600.870 177.698, 601.123 177.691, 601.931 178.947 C 602.538 179.892, 602.365 181.585, 601.431 183.819 C 600.644 185.703, 600 187.783, 600 188.442 C 600 190.348, 605.323 195.792, 608.290 196.920 C 610.732 197.849, 611.002 197.730, 611.015 195.725 C 611.034 192.992, 612.626 190.293, 613.629 191.296 C 614.035 191.701, 613.834 192.566, 613.183 193.217 C 612.533 193.867, 612 195.414, 612 196.653 C 612 198.405, 612.834 199.138, 615.750 199.947 C 617.813 200.520, 620.443 200.991, 621.595 200.994 C 622.747 200.997, 624.547 202.005, 625.595 203.233 C 626.648 204.467, 626.807 204.934, 625.950 204.277 C 625.098 203.623, 622.398 202.803, 619.950 202.455 L 615.500 201.822 622.500 205.462 C 630.007 209.366, 634.013 210.091, 643.576 209.277 C 649.152 208.802, 649.742 208.522, 650.739 205.880 C 651.638 203.500, 651.565 203, 650.320 203 C 649.491 203, 648.584 203.874, 648.305 204.943 C 647.725 207.161, 641.825 208.976, 641.208 207.125 C 641.002 206.506, 638.936 206, 636.617 206 C 630.256 206, 627.397 201.561, 632.250 199.220 C 634.380 198.193, 634.329 198.132, 631.300 198.068 C 629.540 198.030, 627.740 197.396, 627.300 196.657 C 626.860 195.919, 625.263 194.517, 623.750 193.542 C 616.195 188.673, 625.308 184.399, 633.470 188.983 C 635.411 190.074, 637 190.561, 637 190.066 C 637 189.571, 636.479 188.993, 635.843 188.781 C 634.990 188.497, 635.056 187.228, 636.093 183.948 C 637.204 180.437, 638.027 179.429, 640 179.165 C 641.375 178.981, 642.928 178.419, 643.450 177.915 C 643.972 177.412, 646.154 177, 648.299 177 C 651.379 177, 652.813 177.658, 655.128 180.137 C 656.740 181.863, 658.346 182.988, 658.696 182.637 C 659.047 182.287, 658.808 182, 658.167 182 C 656.412 182, 656.761 180.300, 658.931 178.279 C 660.112 177.179, 661.015 174.738, 661.256 171.990 C 661.594 168.148, 661.676 168.402, 661.825 173.750 C 661.921 177.188, 661.623 180, 661.162 180 C 660.700 180, 660.347 181.912, 660.375 184.250 C 660.404 186.588, 660.219 189.164, 659.964 189.976 C 659.656 190.955, 660.343 191.579, 662 191.827 C 663.375 192.033, 664.766 192.630, 665.091 193.153 C 665.819 194.324, 672.298 178.691, 674.479 170.500 C 675.358 167.200, 676.562 163.532, 677.155 162.349 C 679.081 158.503, 677.595 157.447, 674.670 160.584 C 672.387 163.032, 671.796 163.259, 670.990 162 C 670.463 161.175, 670.024 160.916, 670.015 161.424 C 670.007 161.933, 668.987 161.426, 667.750 160.297 C 666.513 159.169, 663.808 157.705, 661.741 157.043 C 659.360 156.280, 658.227 155.410, 658.651 154.669 C 659.019 154.026, 658.952 153.834, 658.502 154.241 C 658.052 154.649, 657.158 154.546, 656.515 154.012 C 655.473 153.147, 648.065 151.785, 638 150.607 C 636.075 150.382, 632.925 150.491, 631 150.849 M 632.223 154.557 C 630 156.114, 629.072 161, 631 161 C 631.550 161, 632 159.927, 632 158.617 C 632 156.017, 634.107 155.037, 639.750 155.014 C 641.538 155.006, 643 154.550, 643 154 C 643 152.411, 634.672 152.841, 632.223 154.557 M 670.667 153.667 C 669.516 154.817, 669.938 156, 671.500 156 C 672.325 156, 673 155.325, 673 154.500 C 673 152.938, 671.817 152.516, 670.667 153.667 M 610.717 156.750 C 610.496 157.162, 610.649 158.625, 611.058 160 C 611.539 161.620, 611.836 161.884, 611.900 160.750 C 611.955 159.787, 612.436 159, 612.969 159 C 613.501 159, 613.678 158.325, 613.362 157.500 C 612.748 155.901, 611.379 155.512, 610.717 156.750 M 646 158.338 C 646 159.233, 647.499 159.732, 650.528 159.847 C 653.019 159.941, 655.923 160.560, 656.983 161.221 C 659.884 163.033, 660.848 161.110, 658.139 158.914 C 655.279 156.595, 646 156.155, 646 158.338 M 661.741 161.175 C 661.461 163.004, 661.563 165.112, 661.968 165.860 C 662.435 166.725, 662.929 165.825, 663.325 163.384 C 663.668 161.274, 663.565 159.165, 663.098 158.698 C 662.631 158.231, 662.020 159.346, 661.741 161.175 M 614.805 160.915 C 613.292 162.681, 613.312 162.848, 615.089 163.313 C 617.384 163.913, 618.424 162.579, 617.269 160.516 C 616.548 159.227, 616.202 159.283, 614.805 160.915 M 636 162.694 C 631.758 164.210, 630.277 173.008, 633.934 174.965 C 636.980 176.595, 639.472 176.191, 641.826 173.686 C 646.831 168.358, 642.582 160.341, 636 162.694 M 637 166.878 C 637 168.460, 636.306 170.331, 635.458 171.035 C 633.330 172.801, 635.179 174.423, 638.398 173.615 C 642.141 172.675, 643.544 169.479, 641.548 166.433 C 639.331 163.050, 637 163.278, 637 166.878 M 649.773 166.750 C 647.248 169.625, 646.764 172.621, 648.537 174.395 C 650.444 176.301, 652.022 176.403, 655.453 174.839 C 657.520 173.898, 658 172.976, 658 169.946 C 658 167.465, 657.470 166.010, 656.418 165.607 C 653.661 164.549, 651.358 164.945, 649.773 166.750 M 599.167 168.652 C 598.125 169.779, 598.095 170.409, 599.030 171.536 C 599.688 172.329, 600.674 172.702, 601.220 172.364 C 601.824 171.991, 601.682 171.407, 600.857 170.875 C 599.714 170.138, 599.714 169.862, 600.857 169.125 C 601.603 168.644, 601.828 168.016, 601.357 167.730 C 600.886 167.444, 599.900 167.859, 599.167 168.652 M 653 169.031 C 653 170.149, 652.325 171.322, 651.500 171.638 C 648.052 172.961, 650.658 174.029, 655.133 173.128 C 656.352 172.882, 656.759 169.159, 655.684 168.084 C 654.025 166.425, 653 166.786, 653 169.031 M 159.594 172 C 160.796 179.114, 161.579 197.876, 161.200 210.500 C 160.986 217.650, 160.753 229.245, 160.683 236.266 L 160.556 249.032 165.804 254.266 C 169.363 257.815, 171.294 259.115, 171.803 258.303 C 172.264 257.566, 173.085 257.435, 173.936 257.961 C 175.088 258.673, 175.191 262.975, 174.550 283.658 C 174.127 297.321, 173.862 311.538, 173.961 315.250 C 174.107 320.737, 173.853 322, 172.602 322 C 171.583 322, 171.277 321.443, 171.696 320.350 C 172.229 318.961, 171.869 318.816, 169.414 319.428 C 165.328 320.448, 163 322.845, 163 326.033 C 163 327.530, 162.315 329.324, 161.478 330.019 C 160.289 331.005, 160.040 332.950, 160.343 338.891 C 160.804 347.941, 159.352 417.109, 158.535 425 C 158.028 429.898, 158.238 430.792, 160.450 433.171 C 162.704 435.595, 163.496 435.811, 168.968 435.502 L 175 435.161 174.986 462.330 C 174.979 477.274, 174.701 490.513, 174.369 491.751 C 173.858 493.660, 173.138 493.979, 169.633 493.853 C 167.360 493.771, 164.600 493.956, 163.500 494.263 C 159.189 495.468, 155.506 497.180, 154.786 498.313 C 154.370 498.966, 154.024 506.363, 154.015 514.750 C 154.003 527.233, 153.743 530, 152.583 530 C 151.804 530, 151.017 530.406, 150.833 530.903 C 150.374 532.146, 141.316 542.572, 136.745 547.118 C 134.680 549.172, 129.835 552.950, 125.979 555.514 C 117.988 560.826, 115.765 562.810, 116.490 563.983 C 116.769 564.435, 118.420 563.476, 120.158 561.852 C 124.040 558.226, 127.623 556.127, 126.476 558.150 C 126.056 558.893, 124.882 560.400, 123.868 561.500 C 117.782 568.104, 111 576.665, 111 577.743 C 111 578.669, 108.348 579, 100.917 579 C 93.284 579, 90.940 579.304, 91.270 580.250 C 91.564 581.090, 93.557 581.423, 97.354 581.266 C 100.459 581.138, 103 581.261, 103 581.541 C 103 582.332, 98.735 583.762, 94.417 584.420 C 92.263 584.748, 88.250 585.452, 85.500 585.985 C 82.750 586.518, 76 587.170, 70.500 587.433 C 65 587.696, 60.615 588.263, 60.754 588.692 C 60.894 589.121, 62.807 589.438, 65.004 589.396 C 68.245 589.335, 69 589.668, 69 591.160 C 69 592.172, 69.357 593, 69.793 593 C 70.229 593, 70.566 595.342, 70.543 598.205 C 70.506 602.689, 70.826 603.574, 72.855 604.599 C 74.151 605.254, 75.745 606.849, 76.398 608.145 C 77.300 609.935, 78.413 610.500, 81.042 610.500 C 82.944 610.500, 85.010 610.831, 85.632 611.236 C 86.255 611.641, 88.024 610.966, 89.563 609.736 C 91.102 608.506, 95.992 606.334, 100.430 604.909 L 108.500 602.318 108.171 595.158 C 107.912 589.524, 108.159 587.876, 109.331 587.427 C 110.879 586.833, 117.001 589.507, 116.999 590.776 C 116.998 591.174, 123.235 591.355, 130.859 591.177 L 144.720 590.854 144.272 595.677 C 144.019 598.407, 144.380 601.802, 145.105 603.500 C 147.021 607.988, 146.956 608.084, 140.685 610.025 C 135.778 611.543, 134.785 611.603, 134.328 610.412 C 133.724 608.838, 132 608.480, 132 609.929 C 132 610.439, 132.708 611.565, 133.572 612.429 C 135.355 614.212, 137.864 613.851, 145.248 610.750 C 149.316 609.041, 150.426 608.934, 152.998 609.999 C 154.649 610.683, 156 611.669, 156 612.191 C 156 613.494, 160.255 612.768, 160.709 611.387 C 160.911 610.775, 159.708 609.708, 158.038 609.016 C 154.778 607.665, 153.984 606, 156.600 606 C 159.041 606, 164.998 599.523, 165.015 596.850 C 165.047 592.031, 166.019 591.658, 176.648 592.384 C 196.263 593.725, 197.995 594.035, 196.775 595.989 C 195.119 598.640, 196.436 600.658, 201.191 602.752 C 203.561 603.796, 207.412 605.491, 209.750 606.518 C 212.088 607.545, 214 608.690, 214 609.063 C 214 609.436, 211.188 610.082, 207.750 610.497 C 202.298 611.157, 201.862 611.357, 204.335 612.063 C 205.894 612.508, 207.694 612.698, 208.335 612.484 C 208.976 612.271, 211.075 611.856, 213 611.562 C 223.145 610.012, 225.874 607.544, 218.290 606.779 C 213.615 606.308, 198 599.472, 198 597.896 C 198 595.860, 202.536 594.062, 206.195 594.647 C 209.559 595.185, 210 595.019, 210 593.211 C 210 592.087, 209.516 591.005, 208.924 590.808 C 207.685 590.395, 219.291 579, 220.951 579 C 221.646 579, 221.467 580.131, 220.466 582.066 C 216.780 589.194, 221.017 593.782, 231.871 594.419 L 237.951 594.776 238.600 591.316 C 238.957 589.414, 240.351 586.548, 241.696 584.949 C 243.042 583.350, 243.860 581.582, 243.513 581.020 C 243.096 580.346, 247.509 580, 256.548 580 C 267.983 580, 270.124 580.233, 269.666 581.429 C 269.364 582.215, 268.815 584.467, 268.446 586.435 C 268.044 588.581, 266.621 590.983, 264.888 592.441 C 261.695 595.127, 261.176 596.253, 263.551 595.342 C 264.819 594.855, 264.971 595.267, 264.384 597.606 C 263.990 599.178, 263.667 601.710, 263.667 603.232 C 263.667 604.988, 263.135 606, 262.211 606 C 261.057 606, 261.003 606.299, 261.951 607.441 C 263.999 609.909, 266.279 608.143, 265.576 604.632 C 264.516 599.329, 267.699 592.480, 272.692 589.324 C 275.066 587.824, 278.219 584.848, 279.699 582.712 C 282.012 579.375, 282.786 578.907, 285.196 579.389 C 286.820 579.714, 288 579.515, 288 578.918 C 288 578.321, 289.796 578.015, 292.250 578.193 C 294.587 578.362, 296.387 578.950, 296.250 579.500 C 296.113 580.050, 295.663 580.518, 295.250 580.539 C 292.075 580.706, 279.936 584.513, 281.708 584.787 C 282.922 584.975, 287.384 584.155, 291.624 582.965 C 297.686 581.264, 300.684 580.947, 305.666 581.481 C 309.150 581.854, 312 582.536, 312 582.997 C 312 583.848, 304.786 586.915, 301.730 587.363 C 300.811 587.498, 299.745 587.922, 299.362 588.304 C 298.980 588.687, 297.135 589, 295.262 589 C 291.977 589, 288.110 591.443, 289.382 592.716 C 289.723 593.057, 295.165 591.623, 301.476 589.530 L 312.949 585.723 316.224 588.197 C 318.026 589.558, 321.420 591.510, 323.767 592.536 C 327.711 594.259, 328.926 596.329, 326.167 596.625 C 325.525 596.694, 324.887 596.841, 324.750 596.952 C 323.066 598.309, 304.252 600.604, 291.750 600.978 C 290.586 601.012, 290.867 603.800, 292.112 604.569 C 292.723 604.947, 293.550 604.729, 293.948 604.084 C 294.347 603.439, 298.009 602.686, 302.087 602.412 C 309.989 601.880, 318.836 600.532, 325.721 598.811 C 329.840 597.782, 331.907 595.276, 330.506 593.009 C 329.505 591.391, 333.174 591.848, 335.088 593.580 C 336.458 594.819, 337.280 594.921, 338.906 594.050 C 341.313 592.762, 344 588.014, 344 585.050 C 344 583.910, 344.655 583, 345.475 583 C 346.570 583, 346.800 582.251, 346.368 580.092 C 345.915 577.826, 346.237 576.943, 347.828 576.092 C 350.472 574.677, 360.278 574.678, 361.693 576.093 C 362.483 576.883, 363.350 576.883, 364.827 576.093 C 365.950 575.492, 367.686 575.014, 368.684 575.030 C 370.396 575.059, 370.400 575.119, 368.750 576.080 C 366.627 577.317, 366.530 578.673, 368.429 580.571 C 370.675 582.818, 372.300 582.330, 371.618 579.614 C 370.882 576.683, 372.726 576.033, 381.844 576.014 C 387.352 576.002, 388.256 576.263, 388.710 578 C 389.033 579.234, 390.074 580, 391.428 580 C 394.774 580, 397.706 583.392, 399.628 589.488 C 401.196 594.463, 403 596.799, 403 593.854 C 403 593.223, 405.025 590.543, 407.500 587.897 C 412.103 582.976, 412.759 581.587, 410.998 580.499 C 410.447 580.158, 409.585 580.919, 409.081 582.190 C 408.578 583.460, 406.839 585.925, 405.215 587.667 L 402.264 590.834 399.898 585.782 C 397.734 581.162, 393.610 577.362, 388 574.820 C 387.175 574.446, 390.325 574.105, 395 574.062 C 399.675 574.018, 405.828 573.703, 408.673 573.361 L 413.846 572.740 413.673 577.498 L 413.500 582.256 419.424 584.202 C 425.138 586.078, 425.487 586.084, 429.273 584.377 C 432.989 582.701, 437.025 578.442, 438.270 574.882 C 438.581 573.993, 439.974 573.047, 441.364 572.781 C 444.346 572.211, 475.034 572.701, 475.662 573.328 C 475.898 573.565, 474.051 575.049, 471.558 576.627 C 469.064 578.204, 466.824 580.016, 466.579 580.654 C 465.856 582.540, 469.090 584.544, 475.735 586.327 C 483.701 588.465, 485.164 588.431, 490.528 585.987 C 494.385 584.230, 495.122 583.372, 496.323 579.237 C 497.350 575.702, 498.245 574.419, 499.849 574.180 C 501.039 574.004, 502 574.400, 502 575.068 C 502 575.964, 504.125 576.112, 510.250 575.644 C 519.765 574.916, 536.677 574.808, 542.476 575.438 C 544.663 575.675, 547.011 575.406, 547.695 574.838 C 548.464 574.200, 552.097 574.035, 557.219 574.405 C 569.059 575.260, 652.865 576.066, 656.750 575.362 C 661.369 574.525, 660.771 572.634, 655.500 571.411 C 650.860 570.334, 650.088 570.679, 652.250 572.863 C 653.257 573.881, 644.261 573.985, 606 573.400 C 579.875 573, 548.896 572.714, 537.157 572.763 C 516.067 572.851, 511.920 572.532, 521.554 571.561 C 547.778 568.917, 546.447 569.025, 572 567.452 C 615.236 564.792, 689.141 565.961, 733.500 570.008 C 751.986 571.695, 762.705 572.143, 760.457 571.134 C 759.334 570.630, 754.834 569.936, 750.457 569.592 C 742.911 568.998, 738.316 568.578, 728 567.540 C 725.525 567.291, 717.200 566.803, 709.500 566.454 C 701.800 566.106, 694.146 565.477, 692.491 565.057 C 688.934 564.155, 590.217 564.441, 575 565.397 C 569.225 565.760, 558.295 566.522, 550.711 567.091 C 537.596 568.074, 536.838 568.030, 535.211 566.177 C 531.510 561.965, 504.966 557.748, 483.500 557.962 C 475.250 558.045, 467.150 558.280, 465.500 558.484 C 456.317 559.621, 451.034 560.038, 437 560.733 C 413.267 561.908, 402.346 561.520, 396.500 559.294 L 391.500 557.391 391.665 552.654 C 391.822 548.170, 391.675 547.885, 388.915 547.333 C 387.312 547.012, 386 546.398, 386 545.967 C 386 545.536, 388.072 542.640, 390.605 539.530 C 394.221 535.091, 395.101 533.308, 394.702 531.223 C 394.423 529.763, 394.876 525.628, 395.708 522.034 C 396.540 518.440, 397.169 514.600, 397.106 513.500 C 396.713 506.625, 395.684 499.355, 394.984 498.497 C 394.534 497.945, 394.787 496.370, 395.547 494.997 C 396.307 493.624, 396.945 491.713, 396.965 490.750 C 396.984 489.788, 397.337 489.089, 397.750 489.198 C 398.163 489.307, 399.556 489.038, 400.846 488.600 C 402.907 487.901, 403.140 487.302, 402.767 483.652 C 402.515 481.190, 403.084 477.309, 404.162 474.119 C 407.585 463.999, 406.906 443.739, 402.877 435.764 C 401.566 433.168, 401.815 431.008, 403.500 430.362 C 404.325 430.045, 405 429.229, 405 428.547 C 405 426.633, 394.571 426.572, 392.668 428.475 C 390.372 430.771, 388.227 429.301, 387.487 424.926 C 387.077 422.497, 385.884 420.267, 384.348 419.059 C 382.414 417.538, 382.082 416.714, 382.835 415.305 C 383.689 413.706, 384.398 408.907, 384.106 406.699 C 384.010 405.977, 378.271 409.837, 375.323 412.605 C 372.824 414.953, 370.007 420.627, 370.004 423.321 C 369.999 426.764, 367.491 429.635, 365.722 428.223 C 365.034 427.673, 363.627 427.599, 362.500 428.053 C 359.406 429.300, 350.021 429.137, 346.242 427.770 C 342.908 426.565, 342.854 426.453, 343.459 422.020 C 343.798 419.534, 344.283 416.375, 344.536 415 C 344.789 413.625, 344.660 412.028, 344.248 411.452 C 342.706 409.291, 337.434 406.284, 335.672 406.560 C 331.971 407.139, 331.174 407.961, 329.541 412.877 C 328.246 416.777, 328.126 418.366, 329.004 420.007 C 329.633 421.184, 329.840 423.453, 329.470 425.136 C 328.802 428.178, 320.322 438, 318.364 438 C 316.465 438, 314.207 441.400, 312.265 447.183 C 311.214 450.309, 309.895 453.459, 309.333 454.183 C 308.771 454.908, 308.010 456.338, 307.643 457.363 C 307.135 458.781, 306.659 458.962, 305.646 458.121 C 303.317 456.188, 302.895 458.259, 305.133 460.641 C 306.383 461.972, 307.229 464.097, 307.153 465.715 C 306.726 474.808, 307.016 478.325, 308.423 481.147 C 309.291 482.885, 309.982 484.801, 309.960 485.404 C 309.938 486.007, 306.336 488.975, 301.955 492 C 292.379 498.613, 290.260 500.435, 286.844 505 C 284.116 508.646, 278.115 520.115, 275.975 525.776 C 275.293 527.578, 273.526 529.914, 272.046 530.967 C 269.159 533.023, 265.219 540.552, 266.408 541.741 C 266.805 542.138, 268.502 541.675, 270.179 540.712 C 272.486 539.388, 273.098 539.302, 272.693 540.356 C 272.399 541.124, 272.798 542.984, 273.579 544.490 C 274.361 545.996, 275 548.332, 275 549.680 C 275 551.028, 275.464 552.999, 276.032 554.060 C 276.971 555.815, 276.725 555.975, 273.282 555.843 C 268.535 555.662, 264.773 556.819, 265.269 558.307 C 265.911 560.233, 270.343 560.760, 273.343 559.267 C 276.472 557.710, 277.560 558.098, 276.657 560.451 C 275.952 562.289, 269.970 566.099, 268.863 565.415 C 268.435 565.151, 267.379 566.299, 266.517 567.967 C 264.971 570.958, 264.984 571, 267.474 571 C 268.863 571, 270 571.494, 270 572.098 C 270 572.845, 268.161 572.985, 264.250 572.534 C 261.087 572.170, 256.622 571.848, 254.326 571.819 C 250.130 571.766, 249.730 571.516, 239.389 562.500 C 238.127 561.400, 235.927 559.600, 234.499 558.500 C 229.629 554.749, 217.261 542.506, 216.129 540.316 C 215.508 539.114, 215 537.202, 215 536.066 C 215 534.930, 214.550 534, 214 534 C 213.450 534, 212.997 534.563, 212.993 535.250 C 212.990 535.938, 212.130 535.201, 211.084 533.613 C 209.418 531.086, 209.225 529.217, 209.538 518.613 C 209.735 511.951, 210.181 503.977, 210.530 500.892 L 211.163 495.285 207.332 494.330 C 205.224 493.805, 202.381 493.647, 201.013 493.979 C 197.901 494.736, 193 494.067, 193 492.887 C 193 492.399, 193.450 492, 194 492 C 195.572 492, 195.167 489.278, 193.500 488.638 C 192.524 488.264, 192 486.710, 192 484.190 C 192 482.061, 191.565 476.759, 191.034 472.409 C 190.503 468.059, 189.918 457.670, 189.734 449.322 C 189.422 435.171, 189.517 434.206, 191.134 435.072 C 193.484 436.329, 197.470 436.239, 202.204 434.821 C 205.222 433.916, 206.031 433.226, 205.673 431.858 C 205.416 430.876, 205.814 429.569, 206.557 428.952 C 207.568 428.114, 207.740 426.278, 207.241 421.666 C 206.377 413.688, 206.401 413.116, 208.305 396 C 209.253 387.480, 209.840 374.901, 209.730 365.500 C 209.626 356.700, 209.911 346.410, 210.363 342.634 C 210.880 338.312, 210.830 335.987, 210.229 336.358 C 209.690 336.691, 209.034 334.618, 208.722 331.597 C 207.810 322.760, 206.006 321.007, 197.650 320.840 L 193.091 320.748 193.418 295.124 C 193.598 281.031, 194.087 266.732, 194.505 263.349 C 195.193 257.773, 195.509 257.148, 197.882 256.669 C 201.025 256.035, 205.833 251.701, 208.276 247.301 C 209.820 244.522, 209.979 242.360, 209.489 230.809 C 209.179 223.498, 208.258 214.362, 207.442 210.508 C 206.625 206.654, 205.674 199.338, 205.328 194.250 C 204.855 187.307, 204.351 185, 203.304 185 C 202.290 185, 202.052 185.886, 202.434 188.250 C 202.722 190.037, 203.426 195.655, 203.998 200.733 C 204.569 205.812, 205.451 211.055, 205.956 212.385 C 206.462 213.716, 207.114 221.232, 207.404 229.089 C 207.890 242.241, 207.770 243.636, 205.894 246.671 C 203.267 250.922, 199.323 254, 196.503 254 C 194.547 254, 194.196 253.327, 193.626 248.473 C 193.161 244.523, 193.390 242.146, 194.428 240.139 C 195.325 238.404, 195.683 235.834, 195.364 233.415 C 195.080 231.262, 194.770 218.175, 194.674 204.333 C 194.578 190.492, 194.162 178.829, 193.750 178.417 C 193.032 177.699, 192.366 215.689, 192.934 224.958 C 193.175 228.898, 193.025 229.266, 191.647 228.122 C 190.789 227.410, 189.682 227.079, 189.186 227.385 C 188.690 227.691, 186.840 227.528, 185.075 227.021 C 183.207 226.486, 180.902 226.467, 179.562 226.977 C 177.329 227.825, 177.241 227.647, 176.697 221.176 C 176.388 217.504, 175.627 210.450, 175.005 205.500 C 174.353 200.312, 174.162 192.742, 174.553 187.628 C 175.074 180.820, 174.946 178.851, 174.004 179.165 C 172.248 179.751, 171.854 192.381, 173.199 205 C 173.814 210.775, 174.213 221.688, 174.085 229.250 C 173.923 238.878, 174.189 243, 174.974 243 C 175.715 243, 175.994 245.123, 175.798 249.250 C 175.561 254.222, 175.193 255.420, 174 255.109 C 173.175 254.893, 171.727 254.752, 170.783 254.794 C 169.838 254.836, 167.701 253.148, 166.033 251.041 C 162.668 246.793, 162.395 246, 164.293 246 C 166.692 246, 167.512 238.774, 166.846 223.500 C 165.259 187.072, 164.700 179, 163.766 179 C 163.217 179, 163.060 177.896, 163.411 176.500 C 163.862 174.703, 163.634 174, 162.602 174 C 161.813 174, 160.680 172.762, 160.085 171.250 C 159.057 168.636, 159.032 168.673, 159.594 172 M 642.250 181.031 C 640.590 181.698, 640 182.755, 640 185.057 C 640 189.247, 643.312 191.924, 648.550 191.967 C 653.440 192.007, 655 190.650, 655 186.357 C 655 180.999, 648.787 178.404, 642.250 181.031 M 623.500 190 C 623.160 190.550, 623.536 191, 624.336 191 C 625.136 191, 626.850 192.117, 628.145 193.483 C 629.554 194.969, 631.633 195.972, 633.321 195.983 C 634.873 195.992, 636.763 196.621, 637.522 197.379 C 639.444 199.301, 646.832 200.220, 650.892 199.042 C 652.758 198.501, 654.671 198.296, 655.142 198.588 C 656.124 199.195, 656.262 197.845, 655.436 195.695 C 654.980 194.505, 654.225 194.425, 651.459 195.274 C 648.779 196.097, 647.156 195.972, 643.898 194.692 C 640.706 193.438, 639.261 193.317, 637.625 194.167 C 636.456 194.774, 635.838 194.909, 636.252 194.467 C 637.262 193.387, 629.403 189, 626.457 189 C 625.171 189, 623.840 189.450, 623.500 190 M 664 195.776 C 664 196.386, 661.777 198.134, 659.061 199.661 C 653.496 202.789, 651.577 205.700, 653.418 208.219 C 654.514 209.718, 654.703 209.714, 655.824 208.173 C 656.866 206.739, 656.945 206.856, 656.376 208.992 C 655.755 211.322, 655.835 211.387, 657.606 209.992 C 658.648 209.171, 659.935 207.825, 660.466 207 C 661.859 204.836, 664.933 195.599, 664.427 195.094 C 664.192 194.859, 664 195.166, 664 195.776 M 636.021 202.474 C 634.863 203.869, 635.252 203.976, 639.593 203.455 C 644.999 202.806, 646.747 202, 642.748 202 C 641.327 202, 639.524 201.755, 638.742 201.454 C 637.960 201.154, 636.736 201.613, 636.021 202.474 M 614.946 205.811 C 615.638 208.220, 619.558 216.046, 622.054 220 C 622.575 220.825, 623.445 222.752, 623.988 224.282 C 624.953 227.004, 625.040 227.031, 627.940 225.531 C 631.457 223.712, 634.815 224.027, 636.502 226.333 C 637.172 227.250, 638.222 228, 638.835 228 C 640.240 228, 638.784 223.909, 635.975 219.965 C 634.889 218.439, 634 216.225, 634 215.045 C 634 213.523, 632.946 212.457, 630.378 211.385 C 628.386 210.552, 625.124 208.872, 623.128 207.650 C 621.133 206.429, 618.302 204.910, 616.837 204.276 C 614.257 203.158, 614.199 203.206, 614.946 205.811 M 607 207.510 C 600.330 209.037, 589.473 212.673, 585.846 214.594 C 582.364 216.438, 578.979 216.374, 576.177 214.411 C 574.243 213.057, 573.177 212.998, 568.954 214.011 C 563.540 215.310, 563.305 215.575, 565.455 217.951 C 567.349 220.044, 570.090 230.601, 569.285 232.700 C 568.886 233.739, 569.058 234.082, 569.758 233.649 C 571.769 232.407, 612.116 232.154, 611.695 233.386 C 611.485 233.999, 610.309 234.353, 609.081 234.174 C 607.150 233.893, 606.989 234.111, 607.889 235.793 C 608.461 236.862, 608.645 238.021, 608.298 238.369 C 607.022 239.645, 609.015 238.936, 613.697 236.448 C 619.576 233.324, 619.627 233.269, 620.474 229.250 C 621.049 226.524, 620.864 225.995, 619.329 225.968 C 617.587 225.938, 617.591 225.868, 619.398 224.500 C 621.234 223.110, 621.239 222.914, 619.537 218.458 C 618.570 215.925, 617.181 213.623, 616.452 213.343 C 615.723 213.063, 615.315 212.309, 615.545 211.667 C 615.776 211.025, 615.185 209.544, 614.232 208.376 C 612.597 206.370, 612.192 206.322, 607 207.510 M 592.615 208.729 C 586.477 209.643, 575.574 212.844, 577 213.314 C 577.825 213.586, 579.232 214.041, 580.126 214.325 C 581.020 214.609, 582.820 214.312, 584.126 213.665 C 585.432 213.017, 588.975 211.723, 592 210.789 C 595.025 209.854, 598.175 208.880, 599 208.624 C 600.810 208.062, 596.635 208.131, 592.615 208.729 M 649.625 212.040 C 648.614 214.444, 648.483 215.877, 649.197 216.737 C 649.762 217.418, 649.986 218.593, 649.696 219.349 C 649.406 220.105, 650.412 222.602, 651.932 224.898 C 654.331 228.521, 654.864 228.869, 655.970 227.536 C 656.671 226.691, 658.540 226, 660.122 226 C 661.705 226, 663 225.638, 663 225.196 C 663 223.979, 657.591 215.950, 654.137 212.040 L 651.080 208.579 649.625 212.040 M 635.628 213.526 C 635.306 214.365, 636.447 217.732, 638.164 221.008 C 640.833 226.098, 641.780 227.056, 644.690 227.602 C 646.562 227.953, 648.359 227.975, 648.683 227.650 C 649.007 227.326, 648.311 224.826, 647.136 222.095 C 645.961 219.364, 645 216.248, 645 215.172 C 645 214.095, 644.288 212.941, 643.418 212.607 C 640.472 211.476, 636.222 211.978, 635.628 213.526 M 658 214 C 658.589 215.100, 659.730 216, 660.535 216 C 661.341 216, 662 216.664, 662 217.476 C 662 218.288, 662.844 220.340, 663.876 222.037 L 665.753 225.122 666.400 222.541 C 667.445 218.378, 662.861 212.111, 658.715 212.033 C 657.237 212.006, 657.114 212.345, 658 214 M 556.455 217.049 C 554.770 218.911, 554.770 219.088, 556.450 220.944 C 557.920 222.569, 558.091 223.907, 557.491 229.073 C 556.976 233.518, 557.087 235.064, 557.887 234.570 C 558.499 234.192, 559 234.359, 559 234.941 C 559 236.504, 563.915 236.228, 565.571 234.571 C 567.189 232.954, 567.587 224.519, 566 225.500 C 565.450 225.840, 565 225.162, 565 223.993 C 565 221.056, 563.520 218.571, 560.651 216.691 C 558.388 215.208, 558.100 215.233, 556.455 217.049 M 163.250 221.826 C 161.855 227.769, 161.726 234.488, 162.890 240.500 L 163.664 244.500 164.396 239 C 164.799 235.975, 164.987 229.675, 164.814 225 L 164.500 216.500 163.250 221.826 M 544 220.694 C 540.080 221.356, 535 223.969, 535 225.324 C 535 227.771, 541.832 236.222, 543.151 235.407 C 543.618 235.118, 544 235.584, 544 236.441 C 544 237.298, 543.554 238, 543.010 238 C 541.429 238, 545.272 242.093, 547.776 243.076 C 549.027 243.568, 550.352 244.764, 550.720 245.735 C 551.087 246.706, 551.924 248.042, 552.578 248.705 C 553.502 249.641, 553.905 249.223, 554.384 246.830 C 554.723 245.136, 554.993 243.019, 554.985 242.125 C 554.971 240.711, 554.844 240.694, 554 242 C 553.218 243.210, 553.028 243.061, 553.015 241.225 C 553.005 239.672, 553.848 238.628, 555.673 237.934 C 558.044 237.033, 558.177 236.749, 556.853 235.425 C 555.630 234.201, 555.547 233.020, 556.395 228.882 C 557.373 224.106, 557.296 223.730, 554.965 221.938 C 552.611 220.130, 549.463 219.772, 544 220.694 M 631.631 227.518 C 631.319 228.333, 630.374 229, 629.531 229 C 628.689 229, 628.007 229.338, 628.015 229.750 C 628.094 233.625, 635.266 234.147, 635.811 230.318 C 636.196 227.609, 632.537 225.158, 631.631 227.518 M 532.070 229.250 C 532.109 229.938, 532.468 231.331, 532.867 232.347 C 533.498 233.948, 533.756 233.998, 534.814 232.724 C 535.485 231.915, 535.754 230.521, 535.410 229.627 C 534.680 227.724, 531.967 227.418, 532.070 229.250 M 656.070 229.869 C 654.869 232.113, 655.574 233, 658.560 233 C 660.581 233, 662 231.316, 662 228.918 C 662 227.195, 657.079 227.983, 656.070 229.869 M 179.035 230.934 C 177.692 233.444, 177.717 236.317, 179.093 237.693 C 179.883 238.483, 179.881 239.354, 179.085 240.841 C 178.421 242.081, 177.751 252.734, 177.395 267.698 C 177.071 281.339, 176.367 296.775, 175.832 302 C 173.993 319.956, 175.790 344, 178.972 344 C 179.330 344, 180.510 344.827, 181.595 345.837 C 182.680 346.848, 184.677 347.951, 186.033 348.289 C 188.395 348.878, 188.512 348.682, 188.782 343.702 C 188.936 340.841, 189.299 336.475, 189.587 334 C 190.949 322.301, 191.858 302.310, 191.543 291 C 191.352 284.125, 191.625 274.039, 192.151 268.586 C 192.842 261.422, 192.762 256.151, 191.860 249.586 C 191.174 244.589, 190.705 238.195, 190.816 235.377 C 191.015 230.378, 190.944 230.239, 187.885 229.627 C 182.554 228.561, 180.112 228.921, 179.035 230.934 M 529.459 232.323 C 528.635 235.587, 530.296 238.104, 532.090 236.310 C 532.876 235.524, 532.761 234.424, 531.676 232.360 L 530.172 229.500 529.459 232.323 M 535.677 234.804 C 534.755 235.824, 534 237.873, 534 239.359 L 534 242.060 537.041 239.812 C 538.958 238.394, 539.974 236.842, 539.791 235.610 C 539.391 232.924, 537.681 232.590, 535.677 234.804 M 598.441 235.532 C 601.073 237.522, 605.129 237.500, 604.362 235.500 C 603.992 234.537, 602.481 234.011, 600.143 234.032 C 596.723 234.062, 596.619 234.153, 598.441 235.532 M 538.112 242.381 C 535.293 245.381, 536.658 246.505, 539.915 243.868 C 541.475 242.605, 541.978 241.578, 541.347 240.947 C 540.716 240.316, 539.578 240.820, 538.112 242.381 M 602.577 242.851 C 601.274 245.370, 601.278 245.952, 602.608 247.851 C 603.436 249.033, 604.538 250, 605.057 250 C 606.294 250, 606.282 244.292, 605.044 243.527 C 604.518 243.202, 604.341 242.275, 604.651 241.468 C 605.646 238.873, 604.101 239.904, 602.577 242.851 M 542.750 245.794 C 541.237 245.981, 539.534 247.003, 538.964 248.066 C 538.048 249.778, 538.274 250, 540.930 250 C 542.947 250, 544.295 249.317, 545.046 247.914 C 546.373 245.434, 546.291 245.359, 542.750 245.794 M 710 252.359 C 703.964 258.058, 699.889 263.910, 699.264 267.775 C 698.933 269.824, 697.163 275.322, 695.331 279.993 C 693.499 284.664, 692 289.250, 692 290.184 C 692 291.118, 691.550 292.160, 691 292.500 C 688.812 293.853, 690.217 295.881, 694.250 297.191 C 696.587 297.951, 698.387 299.119, 698.250 299.786 C 698.112 300.454, 698.675 301, 699.500 301 C 700.325 301, 701 300.142, 701 299.093 C 701 295.790, 706.658 284.666, 710.458 280.500 C 714.805 275.733, 719.436 266.215, 720.389 260.087 C 721.020 256.032, 720.813 255.403, 717.842 252.337 C 716.063 250.502, 714.358 249.012, 714.054 249.027 C 713.749 249.042, 711.925 250.541, 710 252.359 M 709.616 284.045 C 707.084 287.053, 703 295.251, 703 297.324 C 703 299.145, 708.818 290.591, 710.929 285.666 C 712.029 283.100, 712.760 281, 712.553 281 C 712.347 281, 711.025 282.370, 709.616 284.045 M 610 287.531 C 611.841 289.947, 614.219 291.926, 615.333 291.968 C 617.083 292.035, 615.323 289.809, 611.983 287.730 C 608.744 285.713, 608.605 285.700, 610 287.531 M 166.807 324.750 C 166.080 326.499, 165.743 333.144, 165.883 343 C 166.615 394.704, 166.509 405.026, 165.256 404.545 C 163.721 403.956, 163.709 404.039, 163.499 416.825 L 163.329 427.149 166.600 429.644 C 169.191 431.620, 170.274 431.924, 171.804 431.105 C 172.867 430.536, 174.034 430.368, 174.398 430.731 C 175.017 431.351, 174.838 420.198, 173.340 365 C 173.005 352.625, 172.629 338.396, 172.505 333.381 C 172.381 328.365, 171.965 323.753, 171.581 323.131 C 170.341 321.125, 167.981 321.926, 166.807 324.750 M 192.496 328.031 C 192.115 330.800, 191.871 338.339, 191.954 344.783 C 192.451 383.457, 192.049 415.236, 191.049 416.441 C 190.526 417.071, 189.789 420.605, 189.411 424.293 C 188.849 429.778, 188.986 431, 190.162 431 C 190.953 431, 192.106 430.494, 192.724 429.876 C 193.543 429.057, 194.692 429.045, 196.952 429.834 C 198.660 430.429, 200.668 430.681, 201.416 430.394 C 203.097 429.749, 204 425.479, 204 418.175 C 204 413.839, 203.733 412.867, 202.800 413.800 C 201.131 415.469, 199 415.300, 199 413.500 C 199 412.675, 199.653 412, 200.450 412 C 202.602 412, 203.869 409.032, 203.005 406.017 C 201.778 401.740, 202.503 396.652, 205.087 391.403 C 207.494 386.512, 207.499 386.432, 207.189 357.521 C 207.017 341.583, 206.507 328.308, 206.054 328.021 C 205.602 327.735, 205.062 326.600, 204.854 325.500 C 204.537 323.819, 203.576 323.460, 198.832 323.247 L 193.188 322.995 192.496 328.031 M 573.423 327.125 C 573.125 327.606, 572.009 328, 570.941 328 C 569.873 328, 569 328.168, 569 328.374 C 569 328.989, 574.105 338.237, 576.522 342 C 579.410 346.498, 580.818 356.155, 579.764 364.250 C 579.455 366.624, 579.684 368.005, 580.388 368.014 C 581 368.021, 582.415 368.273, 583.532 368.573 C 585.119 369, 586.051 368.255, 587.782 365.174 C 590.035 361.166, 590.868 353, 589.025 353 C 588.483 353, 588.307 351.715, 588.629 350.104 C 589.062 347.938, 588.653 346.653, 587.005 345.005 C 585.794 343.794, 583.455 339.922, 581.807 336.402 C 580.160 332.882, 578.405 329.750, 577.906 329.442 C 577.408 329.134, 577 328.432, 577 327.882 C 577 327.332, 577.450 327.160, 578 327.500 C 578.550 327.840, 579 327.698, 579 327.184 C 579 326.002, 574.149 325.951, 573.423 327.125 M 566.021 331.987 C 564.942 332.654, 564.613 334.628, 564.759 339.558 C 564.929 345.291, 565.435 346.950, 568.359 351.364 C 570.288 354.277, 571.758 357.765, 571.755 359.422 C 571.749 362.938, 574.636 365.547, 576.668 363.861 C 578.443 362.387, 578.359 356.917, 576.506 353.364 C 575.685 351.789, 575.010 349.516, 575.006 348.314 C 575.003 347.111, 573.308 342.743, 571.240 338.606 C 568.292 332.708, 567.166 331.279, 566.021 331.987 M 162.319 364.252 C 162.197 386.099, 162.450 395.532, 163.102 393.500 C 164.485 389.194, 164.623 331.999, 163.250 332.002 C 162.838 332.002, 162.419 346.515, 162.319 364.252 M 173.108 338 C 173.055 338.825, 173.465 342.200, 174.020 345.500 C 174.574 348.800, 175.295 358.475, 175.621 367 C 175.947 375.525, 176.521 382.833, 176.897 383.240 C 177.272 383.646, 177.252 387.246, 176.851 391.240 C 176.451 395.233, 176.096 400.807, 176.062 403.627 L 176 408.754 180.447 408.253 C 183.765 407.879, 185.319 408.177, 186.566 409.424 C 187.486 410.343, 188.359 410.961, 188.506 410.798 C 189.217 410.009, 190.010 350.980, 189.308 351.099 C 183.848 352.030, 175.395 345.893, 174.021 340 C 173.572 338.075, 173.161 337.175, 173.108 338 M 204.750 395.332 C 204.338 396.339, 204.014 399.264, 204.030 401.832 C 204.054 405.504, 204.279 406.125, 205.085 404.742 C 205.648 403.774, 205.972 400.849, 205.804 398.242 C 205.594 394.966, 205.268 394.066, 204.750 395.332 M 334.362 408.765 C 333.737 409.169, 332.514 411.208, 331.645 413.295 L 330.064 417.090 332.937 415.045 C 334.516 413.920, 336.997 413, 338.450 413 C 340.917 413, 341.048 413.226, 340.446 416.435 C 339.651 420.675, 341.071 423.714, 342.108 419.990 C 343.674 414.362, 343.129 412.049, 339.750 409.989 C 336.113 407.772, 335.956 407.736, 334.362 408.765 M 179.643 410.871 C 178.048 411.498, 177.716 413.064, 177.293 421.930 C 176.912 429.924, 177.105 432.455, 178.150 433.129 C 179.206 433.810, 179.230 434.175, 178.263 434.801 C 177.335 435.402, 177.009 442.312, 176.955 462.551 C 176.915 477.373, 176.637 492.684, 176.338 496.576 C 175.883 502.498, 176.084 503.941, 177.573 505.430 C 179.050 506.907, 179.142 507.542, 178.119 509.180 C 177.442 510.265, 176.617 513.435, 176.287 516.225 C 175.788 520.441, 175.998 521.525, 177.534 522.649 C 180.401 524.745, 187.631 524.369, 190 522 C 192.542 519.458, 192.677 513.560, 190.241 511.474 C 188.746 510.195, 188.573 508.882, 189.089 502.734 C 189.799 494.277, 189.664 487.569, 188.073 452.500 C 187.424 438.200, 187.128 423.238, 187.413 419.250 C 187.928 412.069, 187.909 412, 185.466 412 C 184.110 412, 183 411.550, 183 411 C 183 409.860, 182.283 409.833, 179.643 410.871 M 377.861 413.023 L 375.500 415.046 378.491 414.773 C 380.408 414.598, 381.602 413.871, 381.815 412.750 C 382.254 410.433, 380.763 410.536, 377.861 413.023 M 373.148 420.434 C 372.466 422.048, 372.052 424.298, 372.227 425.434 C 372.535 427.442, 372.580 427.435, 373.834 425.201 C 374.543 423.936, 374.957 421.686, 374.755 420.201 L 374.386 417.500 373.148 420.434 M 334.500 420 C 333.771 421.180, 334.717 423, 336.059 423 C 336.577 423, 337 422.100, 337 421 C 337 418.891, 335.545 418.309, 334.500 420 M 376.989 420.250 C 376.983 420.938, 376.726 423.300, 376.419 425.500 C 375.893 429.258, 375.954 429.382, 377.430 427.559 C 379.160 425.420, 379.588 419, 378 419 C 377.450 419, 376.995 419.563, 376.989 420.250 M 382 422.845 C 382 424.420, 382.893 426.498, 384 427.500 C 385.953 429.268, 386 429.247, 386 426.589 C 386 423.486, 384.394 420, 382.965 420 C 382.434 420, 382 421.280, 382 422.845 M 332.649 426.413 C 330.073 430.344, 330.713 431.742, 333.714 428.741 C 335.633 426.821, 336.116 425.716, 335.362 424.962 C 334.609 424.209, 333.815 424.634, 332.649 426.413 M 161.188 430.065 C 161.743 431.730, 166 434.536, 166 433.237 C 166 432.683, 164.823 431.459, 163.384 430.516 C 161.681 429.400, 160.914 429.243, 161.188 430.065 M 332.646 433.101 C 330.715 435.356, 328.702 436.934, 328.173 436.607 C 327.383 436.118, 326 437.997, 326 439.558 C 326 440.158, 336.876 439.195, 338.009 438.495 C 339.848 437.358, 338.935 429, 336.971 429 C 336.523 429, 334.576 430.845, 332.646 433.101 M 340.276 434.021 C 341.104 440.193, 340.115 440.814, 326.750 442.517 C 324.137 442.850, 322 443.564, 322 444.104 C 322 444.644, 319.935 447.294, 317.410 449.993 C 314.886 452.692, 313.112 455.372, 313.469 455.950 C 313.826 456.527, 313.754 457.003, 313.309 457.006 C 312.864 457.009, 312.441 459.088, 312.369 461.626 C 312.274 464.982, 312.767 466.767, 314.179 468.179 C 315.815 469.815, 316.065 471.243, 315.779 477.309 C 315.592 481.264, 315.065 485.102, 314.607 485.837 C 314.142 486.583, 314.200 487.600, 314.739 488.139 C 316.328 489.728, 314.975 493.787, 312.649 494.407 C 310.125 495.081, 305 501.983, 305 504.710 C 305 505.749, 305.445 507.045, 305.988 507.588 C 306.639 508.239, 306.303 509.758, 305.006 512.038 C 303.923 513.942, 301.924 517.750, 300.563 520.500 C 298.460 524.753, 297.299 525.843, 292.795 527.794 C 284.049 531.584, 283.213 532.591, 281.943 540.856 C 281.128 546.165, 281.116 548.516, 281.903 549.303 C 282.689 550.089, 283.388 549.851, 284.414 548.448 C 285.197 547.378, 286.162 546.829, 286.561 547.227 C 286.959 547.626, 286.763 548.581, 286.125 549.349 C 283.918 552.008, 285.993 553.838, 293.031 555.439 C 301.780 557.429, 304.893 557.407, 307.177 555.339 C 309.278 553.439, 310.869 554.248, 309.137 556.335 C 307.061 558.836, 321.766 560.080, 336 558.607 C 340.125 558.181, 345.075 557.857, 347 557.887 C 348.925 557.918, 356.479 557.683, 363.786 557.367 L 377.072 556.791 380.536 551.376 C 384.148 545.730, 384.680 544.462, 383 545.500 C 382.450 545.840, 382 545.447, 382 544.626 C 382 543.806, 382.788 542.871, 383.750 542.548 C 386.454 541.642, 391.344 529.844, 390.538 526.173 C 390.076 524.069, 390.498 521.945, 391.938 519.121 C 394.326 514.440, 394.535 509.560, 392.500 506 C 391.714 504.625, 391.055 501.614, 391.035 499.309 C 391.016 497.004, 390.500 494.809, 389.890 494.432 C 387.537 492.978, 389.952 486.739, 395.805 479.148 C 400.881 472.567, 401.882 470.547, 402.981 464.665 C 403.684 460.906, 404 455.648, 403.684 452.980 C 403.313 449.843, 403.501 448, 404.218 447.761 C 404.927 447.524, 404.387 445.341, 402.718 441.696 C 400.201 436.197, 398.198 433.897, 399.500 438 C 399.864 439.147, 399.680 440, 399.067 440 C 398.480 440, 397.986 438.988, 397.968 437.750 C 397.929 434.971, 395.778 432, 393.806 432 C 391.602 432, 390.878 433.148, 392.131 434.658 C 393.035 435.747, 392.389 436, 388.699 436 C 382.687 436, 373.777 434.007, 372.403 432.355 C 371.082 430.767, 359.224 431.262, 351.500 433.228 C 344.619 434.979, 340.716 434.471, 341.522 431.929 C 341.895 430.756, 341.665 430, 340.936 430 C 340.113 430, 339.906 431.262, 340.276 434.021 M 386 431.893 C 386 433.017, 388.601 434.066, 389.402 433.264 C 390.606 432.061, 389.949 431, 388 431 C 386.900 431, 386 431.402, 386 431.893 M 314.559 445.514 C 312.400 450.681, 312.685 451.265, 315.116 446.656 C 316.232 444.541, 316.913 442.580, 316.631 442.298 C 316.348 442.015, 315.416 443.462, 314.559 445.514 M 380.502 448.991 C 380.138 450.646, 379.761 452, 379.664 452 C 379.567 452, 377.983 452.431, 376.145 452.958 C 372.893 453.891, 372.821 453.848, 373.450 451.342 L 374.096 448.768 371.103 451.134 C 368.618 453.099, 368.101 454.243, 368.055 457.884 C 367.987 463.259, 366.180 469.882, 364.117 472.311 C 362.776 473.890, 362.766 474.240, 364.040 475.046 C 366.244 476.440, 373.675 476.182, 375.199 474.658 C 375.937 473.920, 377.566 472.767, 378.819 472.097 C 380.435 471.232, 380.918 470.317, 380.483 468.945 C 380.035 467.533, 380.256 467.161, 381.306 467.564 C 384.481 468.782, 385.879 459.155, 383.188 454.595 C 381.895 452.402, 381.557 450.726, 382.109 449.234 C 382.551 448.040, 382.518 446.820, 382.037 446.523 C 381.556 446.226, 380.865 447.336, 380.502 448.991 M 361.750 448.689 C 360.788 448.941, 360 449.789, 360 450.573 C 360 451.408, 359.015 452, 357.625 452 C 353.433 452, 349.142 453.188, 348.644 454.486 C 348.377 455.180, 347.841 459.394, 347.453 463.851 C 346.752 471.877, 346.770 471.962, 349.276 472.915 C 350.667 473.444, 352.101 474.354, 352.462 474.938 C 354.581 478.367, 363.899 471.549, 361.985 467.971 C 361.485 467.037, 361.185 463.017, 361.320 459.038 C 361.535 452.692, 361.841 451.656, 363.814 450.600 C 365.051 449.938, 365.749 449.082, 365.365 448.698 C 364.630 447.963, 364.530 447.963, 361.750 448.689 M 381.081 456.601 C 381.069 457.645, 380.770 459.962, 380.417 461.750 C 379.795 464.890, 381.092 466.278, 382.508 463.987 C 383.567 462.274, 383.370 456.970, 382.204 455.804 C 381.401 455.001, 381.096 455.217, 381.081 456.601 M 373.193 458.684 C 371.715 461.390, 371.621 468, 373.059 468 C 373.641 468, 373.798 467.482, 373.406 466.848 C 373.015 466.215, 373.507 465.102, 374.500 464.376 C 375.995 463.283, 376.141 462.493, 375.345 459.778 C 374.411 456.588, 374.353 456.559, 373.193 458.684 M 351 459.918 C 351 460.423, 350.727 461.548, 350.393 462.418 C 349.634 464.396, 351.650 464.493, 353.571 462.571 C 355.591 460.552, 355.343 459, 353 459 C 351.900 459, 351 459.413, 351 459.918 M 355 464.923 C 355 465.396, 353.875 466.066, 352.500 466.411 C 351.125 466.756, 350 467.532, 350 468.136 C 350 468.786, 350.917 468.987, 352.250 468.630 C 353.488 468.299, 355.288 468.021, 356.250 468.014 C 358.388 467.997, 358.578 465.436, 356.500 464.638 C 355.675 464.322, 355 464.450, 355 464.923 M 367 472 C 366.023 473.825, 366.240 474, 369.465 474 C 373.661 474, 373.778 473.739, 370.535 471.615 C 368.216 470.096, 368.007 470.118, 367 472 M 396.133 481.501 C 392.821 485.273, 392.457 486, 393.881 486 C 394.997 486, 400.364 479.031, 399.734 478.401 C 399.477 478.143, 397.856 479.539, 396.133 481.501 M 399.239 483.741 C 398.545 483.979, 397.530 485.010, 396.984 486.031 C 396.140 487.606, 396.314 487.825, 398.130 487.475 C 400.821 486.957, 401.261 486.511, 400.838 484.732 C 400.652 483.948, 399.932 483.502, 399.239 483.741 M 160.750 497.600 L 156 499.061 156 504.471 C 156 507.447, 156.472 510.174, 157.049 510.530 C 157.747 510.961, 157.765 511.578, 157.105 512.374 C 155.945 513.771, 155.100 574.059, 156.250 573.347 C 156.662 573.091, 157 573.546, 157 574.358 C 157 576.439, 158.667 576.761, 164.455 575.794 C 169.325 574.980, 172.453 574.671, 187.500 573.520 C 200.222 572.547, 205.492 571.889, 206.172 571.190 C 206.542 570.811, 206.992 554.525, 207.172 535 L 207.500 499.500 205.250 499.180 C 204.012 499.005, 203 498.517, 203 498.097 C 203 497.677, 202.438 497.284, 201.750 497.223 C 201.063 497.162, 198.363 496.920, 195.750 496.684 C 191.043 496.260, 191 496.283, 191 499.257 L 191 502.258 197 501.580 C 202.133 500.999, 203 501.134, 203 502.513 C 203 503.450, 202.267 504.051, 201.250 503.948 C 198.236 503.641, 194.441 504.134, 195.750 504.662 C 197.808 505.493, 197.162 508, 194.891 508 C 193.025 508, 192.843 508.433, 193.316 511.750 C 193.610 513.813, 194.407 524.629, 195.088 535.787 C 196.041 551.398, 196.054 556.346, 195.144 557.256 C 194.494 557.906, 191.608 558.581, 188.731 558.756 C 185.854 558.931, 182.375 559.181, 181 559.312 C 179.625 559.442, 177.037 558.706, 175.250 557.676 C 172.090 555.854, 171.996 555.605, 171.847 548.651 C 171.605 537.379, 172.046 530.193, 173.575 520.500 C 174.479 514.772, 174.761 508.683, 174.353 503.750 L 173.712 496 169.606 496.070 C 167.348 496.108, 163.363 496.797, 160.750 497.600 M 290.935 503.067 C 284.321 509.857, 284.662 511.298, 291.500 505.456 C 294.525 502.872, 297 500.137, 297 499.379 C 297 497.185, 296.177 497.685, 290.935 503.067 M 289.046 509.843 C 286.175 512.520, 284.745 514.795, 284.332 517.343 C 283.706 521.202, 285.455 522.592, 286.731 519.250 C 287.098 518.288, 288.860 514.913, 290.645 511.750 C 292.431 508.587, 293.729 506, 293.530 506 C 293.331 506, 291.313 507.729, 289.046 509.843 M 294.636 512.636 C 293.689 514.623, 293.153 516.486, 293.444 516.777 C 293.735 517.069, 294.681 515.614, 295.545 513.545 C 297.587 508.659, 296.873 507.945, 294.636 512.636 M 279.749 521.401 L 278.067 524.926 280.534 523.803 C 283.177 522.598, 283.235 522.452, 282.145 519.688 C 281.543 518.163, 281.163 518.435, 279.749 521.401 M 295.655 521.829 C 294.745 522.835, 294 523.975, 294 524.364 C 294 525.573, 297.732 523.140, 298.351 521.528 C 299.153 519.439, 297.668 519.605, 295.655 521.829 M 189.944 525.007 C 189.089 525.488, 185.411 525.978, 181.771 526.096 C 173.861 526.352, 174.033 526.030, 174.014 540.595 C 173.996 553.476, 174.726 554.391, 184.238 553.417 C 188.629 552.967, 190.953 553.115, 191.423 553.876 C 191.869 554.597, 191.111 555.049, 189.309 555.136 C 181.215 555.529, 179.994 555.673, 179.358 556.309 C 178.521 557.146, 186.321 557.015, 190.500 556.122 C 193.809 555.415, 194.846 551.947, 192.363 549.886 C 190.768 548.563, 190.485 537.281, 191.922 532.273 C 193.164 527.942, 192.044 523.827, 189.944 525.007 M 150.500 534.663 C 146.309 539.717, 146.294 540.304, 150.407 538.343 C 153.274 536.976, 154 536.061, 154 533.815 C 154 532.267, 153.887 531.010, 153.750 531.023 C 153.613 531.036, 152.150 532.674, 150.500 534.663 M 271.114 534.582 C 268.741 537.599, 268.374 539.370, 270.250 538.759 C 271.645 538.305, 274.451 533.117, 273.705 532.372 C 273.443 532.109, 272.277 533.104, 271.114 534.582 M 209 543.833 C 209 548.875, 209.398 553, 209.884 553 C 210.370 553, 210.648 554.462, 210.501 556.250 C 210.354 558.038, 210.857 560.715, 211.617 562.200 C 213.573 566.020, 213.275 566.910, 210.967 564.139 L 209 561.778 209 566.934 L 209 572.089 222.250 571.442 C 229.537 571.086, 235.629 570.675, 235.787 570.527 C 236.929 569.461, 228.421 556.649, 225.271 554.692 C 223.599 553.653, 223.102 553.062, 215.869 543.500 C 212.540 539.100, 209.633 535.313, 209.408 535.083 C 209.184 534.854, 209 538.792, 209 543.833 M 192.014 540.250 C 192.029 545.089, 192.894 549, 193.950 549 C 194.343 549, 194.553 547.987, 194.416 546.750 C 194.279 545.513, 194.129 542.587, 194.083 540.250 C 194.037 537.913, 193.550 536, 193 536 C 192.450 536, 192.006 537.913, 192.014 540.250 M 152 540.807 C 151.175 540.992, 147.915 544.374, 144.755 548.322 C 141.596 552.270, 135.863 558.875, 132.015 563 C 128.168 567.125, 125.016 570.837, 125.010 571.250 C 125.005 571.663, 124.325 572, 123.500 572 C 120.992 572, 121.756 570.406, 127.668 563.307 L 133.337 556.500 128.555 561 C 121.545 567.598, 113.877 576.992, 114.578 578.126 C 114.951 578.729, 119.120 578.891, 125.343 578.544 C 130.929 578.233, 138.200 577.950, 141.500 577.915 C 144.800 577.880, 148.925 577.412, 150.666 576.876 C 153.666 575.951, 153.782 575.733, 152.885 572.700 C 152.262 570.594, 152.307 568.133, 153.017 565.500 C 153.610 563.300, 153.961 556.768, 153.798 550.984 C 153.550 542.252, 153.246 540.526, 152 540.807 M 142.323 547.250 C 139.682 550.183, 138.325 552.535, 139.799 551.624 C 140.999 550.883, 145.389 545, 144.742 545 C 144.526 545, 143.437 546.013, 142.323 547.250 M 276.389 550.570 C 276.725 551.447, 277 552.352, 277 552.582 C 277 552.812, 277.450 553, 278 553 C 279.629 553, 279.138 550.267, 277.389 549.596 C 276.209 549.143, 275.941 549.404, 276.389 550.570 M 384.493 550.011 C 384.112 550.628, 384.066 551.399, 384.391 551.725 C 384.716 552.050, 384.515 552.880, 383.943 553.569 C 382.553 555.243, 384.350 556.341, 387.067 555.479 C 388.577 554.999, 389.035 554.130, 388.808 552.173 C 388.487 549.409, 385.721 548.024, 384.493 550.011 M 282.001 556.750 C 282.001 557.163, 283.914 557.605, 286.251 557.732 C 289.292 557.899, 290.074 557.690, 289 556.998 C 287.227 555.855, 282 555.670, 282.001 556.750 M 390 559.966 C 390 561.233, 391.462 562.009, 395.592 562.933 C 398.668 563.622, 402.061 565.061, 403.132 566.132 C 404.203 567.203, 406.111 568.472, 407.372 568.951 C 410.520 570.148, 417.292 570.556, 418.778 569.637 C 419.450 569.222, 420.398 569.128, 420.885 569.429 C 421.993 570.114, 428 568.083, 428 567.023 C 428 566.594, 429.359 565.680, 431.021 564.991 C 433.204 564.087, 437.156 563.934, 445.271 564.439 C 464.552 565.638, 466.199 565.811, 478.353 567.927 C 484.872 569.062, 490.600 569.747, 491.082 569.449 C 491.564 569.151, 492.870 569.395, 493.985 569.992 C 495.099 570.588, 498.821 571.301, 502.256 571.577 C 505.690 571.852, 509.850 572.284, 511.500 572.537 C 513.632 572.864, 514.075 572.724, 513.029 572.053 C 510.602 570.495, 512.151 570.072, 522.561 569.454 C 531.844 568.902, 536.264 567.688, 532.917 566.609 C 520.002 562.446, 502.325 559.767, 487.500 559.726 C 475.726 559.694, 469.919 560.006, 454.500 561.504 C 451.750 561.771, 444.325 562.211, 438 562.483 C 431.675 562.754, 422.675 563.256, 418 563.599 C 408.552 564.291, 399.612 563.007, 393.772 560.117 C 390.267 558.383, 390 558.372, 390 559.966 M 278.667 560.667 C 278.300 561.033, 278 561.937, 278 562.675 C 278 563.767, 278.373 563.784, 280 562.768 C 281.100 562.081, 282 561.177, 282 560.759 C 282 559.823, 279.578 559.755, 278.667 560.667 M 332.441 561.468 C 330.538 562.908, 330.542 562.937, 332.628 562.968 C 333.798 562.986, 335.315 562.325, 336 561.500 C 337.699 559.453, 335.136 559.430, 332.441 561.468 M 344 560.883 C 344 561.369, 345.125 561.982, 346.500 562.245 C 348.176 562.565, 349 562.274, 349 561.361 C 349 560.576, 347.942 560, 346.500 560 C 345.125 560, 344 560.398, 344 560.883 M 284.500 562.569 C 281.258 564.215, 274.835 571.923, 275.631 573.212 C 275.899 573.645, 277.231 574, 278.591 574 C 279.951 574, 282.512 574.563, 284.282 575.250 C 286.052 575.938, 288.400 576.435, 289.500 576.356 C 290.600 576.277, 292.495 576.165, 293.711 576.106 C 294.927 576.048, 296.830 575.025, 297.941 573.833 C 299.051 572.642, 301.148 570.887, 302.601 569.934 C 305.230 568.209, 305.232 568.195, 303.122 567.065 C 301.955 566.441, 301 565.098, 301 564.081 C 301 560.790, 289.992 559.780, 284.500 562.569 M 303 563.021 C 303 563.583, 304.125 564.555, 305.500 565.182 C 306.875 565.808, 308 566.924, 308 567.661 C 308 569.970, 311.445 569.103, 312.658 566.488 C 313.702 564.237, 313.578 563.932, 311.392 563.383 C 310.059 563.049, 308.075 563.009, 306.984 563.294 C 305.893 563.579, 305 563.405, 305 562.906 C 305 562.408, 304.550 562, 304 562 C 303.450 562, 303 562.460, 303 563.021 M 374.035 563.688 C 372.326 564.885, 371.510 565.030, 371.229 564.188 C 371.012 563.535, 369.062 563, 366.898 563 C 363.235 563, 363.004 563.167, 363.569 565.418 C 364.622 569.616, 358.571 571.571, 355.141 568.141 C 351.477 564.477, 326.994 564.863, 323.212 568.645 C 322.467 569.390, 320.773 570, 319.449 570 C 315.866 570, 309 573.016, 309 574.589 C 309 575.572, 309.920 575.820, 312.250 575.463 C 314.038 575.189, 320.225 574.776, 326 574.547 C 331.775 574.317, 341.675 573.865, 348 573.541 C 363.906 572.727, 392.305 571.877, 399.339 572.005 L 405.177 572.111 403.339 569.668 C 401.576 567.327, 397.688 565.405, 392.793 564.458 C 377.474 561.491, 377.188 561.480, 374.035 563.688 M 236.771 567.432 C 238.491 570.847, 241.486 572.640, 242.562 570.899 C 242.873 570.397, 242.423 569.716, 241.563 569.386 C 240.704 569.056, 240 567.961, 240 566.952 C 240 565.943, 239.480 564.797, 238.845 564.405 C 238.130 563.962, 237.962 564.130, 238.405 564.845 C 238.797 565.480, 238.641 566, 238.059 566 C 237.477 566, 237 565.550, 237 565 C 237 564.450, 236.560 564, 236.021 564 C 235.483 564, 235.820 565.544, 236.771 567.432 M 357.446 565.087 C 356.573 566.499, 358.501 568.427, 359.913 567.554 C 360.511 567.184, 361 566.234, 361 565.441 C 361 563.757, 358.426 563.501, 357.446 565.087 M 271.133 567.684 C 270.206 568.689, 270.093 569.493, 270.784 570.184 C 271.474 570.874, 272.024 570.501, 272.492 569.025 C 273.367 566.269, 272.881 565.789, 271.133 567.684 M 428.685 568.540 L 425.869 571.017 452.185 570.850 C 480.953 570.669, 482.356 569.855, 458 567.477 C 436.487 565.376, 432.101 565.535, 428.685 568.540 M 481.250 572.781 C 479.780 573.015, 479 573.837, 479 575.153 C 479 576.341, 478.488 576.979, 477.750 576.709 C 476.058 576.089, 468.874 580.121, 469.314 581.443 C 469.508 582.023, 473.175 583.366, 477.464 584.428 L 485.261 586.358 489.549 584.083 C 492.072 582.745, 494.243 580.717, 494.825 579.154 C 497.200 572.771, 497.299 573.010, 492.219 572.872 C 489.623 572.802, 486.600 572.672, 485.500 572.584 C 484.400 572.495, 482.488 572.584, 481.250 572.781 M 220 573.757 C 220 574.174, 223.713 574.381, 228.250 574.217 C 240.793 573.763, 241.673 573.288, 230.250 573.136 C 224.613 573.061, 220 573.341, 220 573.757 M 416.073 575.635 C 414.933 577.084, 414 578.643, 414 579.100 C 414 580.362, 417.038 581.691, 421.683 582.460 C 426.490 583.257, 435 580.175, 435 577.638 C 435 576.827, 435.273 575.452, 435.607 574.582 C 436.133 573.211, 435.007 573, 427.180 573 C 418.611 573, 418.038 573.136, 416.073 575.635 M 300.338 575.136 C 299.054 575.641, 299.630 575.881, 302.250 575.930 C 304.313 575.968, 306 575.578, 306 575.062 C 306 574.007, 303.110 574.044, 300.338 575.136 M 228.131 576.464 C 229.068 577.401, 240 577.828, 240 576.928 C 240 576.417, 237.225 576, 233.833 576 C 230.442 576, 227.876 576.209, 228.131 576.464 M 241 577 C 241 577.622, 245.815 577.942, 253.750 577.848 C 264.867 577.715, 265.668 577.601, 260 576.964 C 250.117 575.853, 241 575.871, 241 577 M 321.356 576.799 C 316.906 577.057, 316.278 577.348, 316.699 578.956 C 317.140 580.645, 319.699 581.951, 322.635 581.986 C 323.676 581.999, 327.586 577.037, 326.830 576.663 C 326.648 576.573, 324.185 576.634, 321.356 576.799 M 329.527 577.044 C 329.882 577.618, 329.613 578.762, 328.928 579.586 C 327.986 580.721, 327.966 581.366, 328.842 582.242 C 330.628 584.028, 330.243 584.582, 327.250 584.539 C 324.979 584.507, 324.500 584.932, 324.500 586.979 C 324.500 589.158, 324.985 589.493, 328.500 589.741 C 330.700 589.896, 333.790 590.544, 335.367 591.181 C 337.931 592.217, 338.434 592.084, 340.111 589.920 C 341.143 588.589, 342.467 585.700, 343.053 583.500 C 343.640 581.300, 344.348 578.712, 344.627 577.750 C 345.081 576.185, 344.275 576, 337.008 576 C 331.618 576, 329.099 576.351, 329.527 577.044 M 308 579 C 308 579.550, 308.900 580, 310 580 C 311.100 580, 312 579.550, 312 579 C 312 578.450, 311.100 578, 310 578 C 308.900 578, 308 578.450, 308 579 M 171.173 579.811 C 167.315 580.089, 166.693 580.491, 165.423 583.529 C 162.972 589.396, 163.352 590, 169.500 590 C 172.525 590, 175 589.599, 175 589.108 C 175 588.618, 176.125 587.934, 177.500 587.589 C 179.427 587.106, 180 586.316, 180 584.141 C 180 580.683, 177.321 579.369, 171.173 579.811 M 181.703 582.821 C 182.066 585.532, 181.748 587.110, 180.605 588.253 C 179.124 589.734, 179.135 589.905, 180.747 590.380 C 181.711 590.664, 185.650 591.197, 189.500 591.565 C 193.350 591.932, 197.190 592.360, 198.034 592.517 C 198.877 592.674, 200.504 592.284, 201.648 591.651 C 204.679 589.975, 215 580.855, 215 579.854 C 215 579.384, 207.393 579, 198.095 579 L 181.190 579 181.703 582.821 M 224.495 579.991 C 224.908 580.660, 224.314 581.792, 223.108 582.637 C 217.670 586.446, 222.632 592, 231.475 592 C 235.495 592, 236.171 591.681, 237.050 589.369 C 237.600 587.923, 238.988 585.422, 240.134 583.812 C 241.280 582.202, 242.057 580.737, 241.859 580.556 C 241.662 580.376, 237.511 579.912, 232.636 579.525 C 225.982 578.998, 223.952 579.114, 224.495 579.991 M 161 580.962 C 159.625 581.286, 156.925 582.294, 155 583.202 C 153.075 584.111, 150.713 585.098, 149.750 585.396 C 148.787 585.694, 148 586.626, 148 587.469 C 148 588.695, 149.368 589, 154.878 589 L 161.757 589 162.827 584.782 C 163.416 582.463, 163.808 580.522, 163.699 580.469 C 163.590 580.417, 162.375 580.639, 161 580.962 M 271.552 581.250 C 270.330 585.219, 270.080 588, 270.946 588 C 272.248 588, 279 582.045, 279 580.896 C 279 579.505, 271.987 579.838, 271.552 581.250 M 124.250 584.329 C 115.397 585.282, 112.976 586.267, 116.750 587.382 C 119.521 588.201, 125.057 587.493, 130.750 585.592 C 135.671 583.949, 137.584 582.789, 134.750 583.166 C 134.063 583.258, 129.338 583.781, 124.250 584.329 M 136.820 585.828 C 132.596 587.298, 128.919 588.725, 128.649 589 C 128.378 589.275, 132.172 589.356, 137.079 589.179 C 145.680 588.870, 146 588.774, 146 586.512 C 146 585.222, 146.563 583.940, 147.250 583.662 C 147.938 583.385, 147.600 583.158, 146.500 583.157 C 145.400 583.157, 141.044 584.359, 136.820 585.828 M 315.683 583.650 C 314.985 584.349, 319.551 589, 320.935 589 C 321.392 589, 321.975 587.909, 322.230 586.577 C 322.581 584.742, 322.183 584.016, 320.597 583.590 C 317.821 582.845, 316.472 582.862, 315.683 583.650 M 95 588.027 C 93.075 588.480, 90.278 588.606, 88.785 588.307 C 85.485 587.647, 78.198 588.886, 79.747 589.844 C 80.948 590.586, 80.960 594.156, 79.765 595.050 C 79.361 595.352, 78.755 596.975, 78.419 598.655 C 77.854 601.480, 78.062 601.771, 81.154 602.490 C 82.994 602.917, 84.888 603.191, 85.362 603.096 C 85.837 603.002, 86.806 603.721, 87.517 604.693 C 88.753 606.383, 88.958 606.382, 92.155 604.671 C 105.605 597.476, 105.493 597.558, 105.832 594.588 C 106.586 587.975, 103.409 586.051, 95 588.027 M 71 590 C 69.773 590.793, 69.887 590.972, 71.628 590.985 C 72.798 590.993, 74.333 591.696, 75.039 592.547 C 76.065 593.783, 76.489 593.834, 77.146 592.797 C 78.696 590.354, 78.017 589, 75.250 589.015 C 73.737 589.024, 71.825 589.467, 71 590 M 146.646 592.480 C 145.023 596.711, 147.247 607.023, 149.776 606.991 C 150.174 606.985, 152.898 605.606, 155.828 603.926 C 159.628 601.746, 161.584 599.848, 162.647 597.304 C 164.665 592.473, 163.545 591.617, 154.614 591.166 C 148.457 590.855, 147.189 591.064, 146.646 592.480 M 72.607 595.582 C 72.273 596.452, 72 598.477, 72 600.082 C 72 602.275, 72.469 603, 73.887 603 C 75.246 603, 75.912 602.093, 76.269 599.750 C 76.966 595.190, 74.037 591.856, 72.607 595.582 M 77.393 605.582 C 77.727 606.452, 78 607.352, 78 607.582 C 78 607.812, 79.350 608, 81 608 C 84.414 608, 84.929 606.567, 82.066 605.035 C 79.092 603.444, 76.681 603.726, 77.393 605.582" stroke="none" fill="#000000" fill-rule="evenodd"/>
</svg>