<svg xmlns="http://www.w3.org/2000/svg" width="158" height="168" viewBox="0 0 158 168" version="1.1">
	<path d="M 71 33.657 C 65.302 35.553, 58.262 38.516, 57 39.549 C 56.175 40.224, 53.025 42.034, 50 43.572 C 43.134 47.061, 33.401 56.771, 31.215 62.312 C 29.942 65.539, 29.579 69.712, 29.632 80.500 C 29.697 93.669, 29.889 95.007, 32.868 103.037 C 35.001 108.786, 37.448 113.195, 40.360 116.537 C 42.739 119.267, 45.222 122.513, 45.879 123.752 C 47.747 127.277, 65.561 133.892, 75 134.565 C 78.025 134.781, 82.785 135.230, 85.578 135.564 C 89.722 136.058, 91.818 135.681, 96.966 133.514 C 100.436 132.054, 104.356 130.776, 105.677 130.674 C 106.998 130.573, 108.399 130.033, 108.790 129.475 C 109.180 128.916, 110.737 127.916, 112.250 127.251 C 113.763 126.587, 115 125.520, 115 124.882 C 115 123.734, 115.768 123.005, 121.365 118.835 L 124.230 116.700 123.548 118.850 C 123.140 120.133, 123.295 121, 123.933 121 C 124.520 121, 125 120.325, 125 119.500 C 125 117.070, 125.124 116.678, 127.128 112.750 C 128.180 110.688, 128.570 109, 127.995 109 C 127.379 109, 127.587 107.766, 128.500 106 C 130.204 102.704, 131.264 101.995, 130.369 104.750 C 130.056 105.713, 131.148 104.250, 132.796 101.500 C 135.743 96.583, 136.193 93.648, 133.418 97.443 C 132.158 99.167, 132 98.319, 132 89.813 C 132 81.029, 132.183 80.123, 134.226 78.766 C 136.372 77.341, 136.404 77.094, 135.106 71.894 C 132.728 62.364, 130.023 57.369, 124.167 51.688 C 121.050 48.665, 117.373 44.877, 115.995 43.272 C 114.617 41.666, 111.242 39.552, 108.495 38.573 C 105.748 37.594, 101.864 35.940, 99.864 34.897 C 96.858 33.329, 94.172 33.014, 84.364 33.079 C 77.839 33.122, 71.825 33.383, 71 33.657 M 64.326 43.006 C 52.691 44.708, 37 58.500, 37 67.024 C 37 68.726, 36.602 69.872, 36.116 69.572 C 34.480 68.561, 32.780 74.722, 33.461 79.193 C 33.939 82.323, 33.833 83.090, 33.074 82 C 32.285 80.865, 32.027 81.656, 32.015 85.250 C 32.006 88.211, 32.439 90, 33.167 90 C 33.808 90, 34.069 90.265, 33.745 90.589 C 33.167 91.166, 38.837 102.726, 43.452 110.383 C 44.739 112.519, 47.189 115.151, 48.896 116.231 C 50.603 117.312, 52 118.519, 52 118.914 C 52 119.309, 53.913 120.647, 56.250 121.887 L 60.500 124.142 57.500 121.576 C 52.869 117.615, 55.724 118.533, 60.689 122.602 C 67.715 128.359, 82.735 131.232, 84.877 127.229 C 85.399 126.255, 88.175 124.613, 91.047 123.580 C 93.920 122.547, 97.743 120.409, 99.544 118.828 C 101.344 117.247, 102.971 116.382, 103.159 116.907 C 103.791 118.675, 106.688 115.549, 109.428 110.142 C 110.917 107.205, 112.359 105.025, 112.633 105.299 C 113.344 106.011, 107.473 117.363, 105.582 118.932 C 104.712 119.654, 104 120.640, 104 121.122 C 104 123.043, 106.722 121.765, 111 117.837 C 113.475 115.565, 114.713 114.277, 113.750 114.975 C 111.661 116.491, 111.559 115.418, 113.466 112 C 114.350 110.416, 114.748 107.302, 114.554 103.500 C 114.385 100.200, 114.432 99.075, 114.658 101 C 115.354 106.914, 115.872 107.628, 117.637 105.108 C 118.607 103.723, 119.046 101.524, 118.791 99.334 C 118.427 96.216, 118.533 96.009, 119.689 97.589 C 121.269 99.750, 121.335 102.255, 119.944 107.263 C 118.622 112.022, 119.534 113.732, 122.137 111.376 C 123.577 110.073, 123.913 108.878, 123.441 106.732 C 122.351 101.767, 122.242 99, 123.138 99 C 123.612 99, 124.315 99.006, 124.700 99.012 C 125.086 99.019, 125.277 101.044, 125.125 103.512 C 124.973 105.981, 125.096 108, 125.399 108 C 125.701 108, 126.706 106.538, 127.632 104.750 C 129.542 101.061, 131.276 79.807, 129.937 76.500 C 129.195 74.669, 129.121 74.707, 129.063 76.950 C 128.972 80.467, 127.647 78.446, 125.490 71.500 C 124.464 68.200, 122.809 64.752, 121.811 63.838 C 120.812 62.924, 120.238 61.543, 120.535 60.770 C 121.079 59.353, 117.184 53.482, 116.292 54.374 C 116.029 54.638, 113.267 52.905, 110.156 50.522 C 103.577 45.484, 101.793 45.419, 107.648 50.431 C 109.845 52.311, 112.735 56.017, 114.071 58.667 C 115.407 61.316, 117.136 63.985, 117.912 64.597 C 118.840 65.329, 119.050 66.361, 118.525 67.605 C 117.794 69.337, 117.659 69.284, 116.962 67 C 116.286 64.784, 116.188 64.919, 116.100 68.191 C 116.045 70.221, 116.450 72.160, 117 72.500 C 117.550 72.840, 118 73.766, 118 74.559 C 118 77.424, 116.294 75.898, 113.985 70.968 C 111.449 65.553, 109.023 62.729, 108.969 65.128 C 108.925 67.068, 104.020 56.865, 104.009 54.809 C 104.004 53.879, 103.550 52.840, 103 52.500 C 102.450 52.160, 102 52.368, 102 52.962 C 102 53.556, 99.717 51.783, 96.926 49.021 C 94.135 46.260, 91.247 44, 90.507 44 C 89.768 44, 88.339 43.687, 87.332 43.305 C 86.146 42.856, 86.652 43.838, 88.769 46.093 C 90.568 48.008, 93.371 52.391, 94.999 55.834 C 98.587 63.420, 97.494 63.307, 93.642 55.694 C 89.737 47.976, 88.027 46.507, 80.167 44.119 C 72.743 41.865, 72.331 41.836, 64.326 43.006 M 134.195 83.500 C 134.215 85.150, 134.439 85.704, 134.693 84.731 C 134.947 83.758, 134.930 82.408, 134.656 81.731 C 134.382 81.054, 134.175 81.850, 134.195 83.500" stroke="none" fill="#000000" fill-rule="evenodd"/>
</svg>