<svg xmlns="http://www.w3.org/2000/svg" width="949" height="534" viewBox="0 0 949 534" version="1.1">
	<path d="M 447.334 80.750 C 447.002 81.713, 445.939 84.360, 444.973 86.634 C 444.006 88.908, 442.891 92.687, 442.495 95.032 C 442.098 97.378, 441.173 100.736, 440.437 102.496 C 439.702 104.255, 438.633 109.251, 438.062 113.598 C 437.491 117.944, 436.311 126, 435.440 131.500 C 433.521 143.613, 433.369 145.492, 433.162 159.599 L 433 170.697 427.250 169.756 C 424.087 169.239, 417.823 169.057, 413.328 169.353 L 405.157 169.892 400.909 161.196 C 398.573 156.413, 395.512 150.489, 394.107 148.031 C 392.702 145.573, 391.472 143.010, 391.373 142.337 C 391.032 140.011, 384.133 126.480, 380.174 120.373 C 376.335 114.450, 368.099 107, 365.391 107 C 363.676 107, 361.845 110.426, 362.934 111.597 C 363.397 112.094, 365.820 117.900, 368.320 124.500 C 373.294 137.631, 382.008 158.744, 386.717 169.073 L 389.714 175.645 381.107 180.468 C 368.793 187.368, 362.423 191.568, 354.854 197.777 C 345.096 205.781, 343.895 207.769, 343.265 216.967 C 342.792 223.859, 343.020 225.350, 345.274 230.120 C 346.673 233.079, 348.934 238.650, 350.299 242.500 C 351.664 246.350, 353.259 250.711, 353.843 252.192 C 354.428 253.672, 357.852 257.758, 361.453 261.271 C 365.054 264.785, 368 267.925, 368 268.250 C 368 268.575, 366.700 269.127, 365.112 269.475 C 361.710 270.223, 356.830 274.882, 350.856 283.085 C 348.487 286.338, 345.985 289, 345.297 289 C 343.578 289, 341.287 292.728, 339.638 298.209 C 338.878 300.732, 337.109 304.305, 335.706 306.148 C 334.303 307.992, 332.835 310.850, 332.444 312.500 C 332.052 314.150, 331.004 316.335, 330.116 317.355 C 328.801 318.864, 328.500 321.700, 328.500 332.555 C 328.500 341.898, 328.875 346.275, 329.750 347.150 C 330.750 348.150, 331.014 347.810, 331.071 345.450 C 331.124 343.263, 331.593 344.072, 332.884 348.583 C 334.522 354.303, 338.665 361.668, 339.676 360.657 C 339.928 360.405, 338.963 357.887, 337.531 355.062 C 336.100 352.237, 335.238 349.424, 335.617 348.811 C 335.996 348.198, 335.550 347.144, 334.626 346.468 C 333.614 345.728, 332.388 342.313, 331.544 337.882 C 329.975 329.649, 330.176 327.939, 332.038 333.683 C 333.862 339.313, 338.762 348.840, 342.614 354.250 C 344.475 356.863, 345.547 359, 344.998 359 C 344.449 359, 343.987 358.663, 343.970 358.250 C 343.954 357.837, 342.117 355.475, 339.888 353 C 335.075 347.656, 335.725 349.426, 341.261 356.739 C 343.442 359.621, 345.636 361.725, 346.137 361.416 C 346.637 361.106, 349.235 362.685, 351.910 364.925 C 356.663 368.904, 359.157 369.580, 364.303 368.285 C 365.820 367.904, 365.899 367.583, 364.803 366.257 C 363.920 365.191, 363.487 361.267, 363.459 354.092 C 363.436 348.266, 363.070 340.800, 362.645 337.500 C 362.059 332.946, 362.141 331.922, 362.986 333.250 C 364.372 335.429, 366.589 335.514, 367.393 333.418 C 369.064 329.064, 366.789 318.634, 363.337 314.820 C 361.838 313.164, 361.997 312.713, 365.613 308.347 C 367.751 305.765, 370.229 302.573, 371.119 301.252 L 372.738 298.850 373.227 301.406 C 373.495 302.811, 373.198 304.758, 372.567 305.731 C 371.935 306.704, 370.874 309.645, 370.209 312.266 C 369.166 316.373, 369.289 318.375, 371.095 326.766 C 372.247 332.120, 373.764 337.175, 374.464 338 C 375.165 338.825, 375.987 340.175, 376.291 341 C 376.632 341.929, 376.872 342.020, 376.921 341.241 C 377.025 339.585, 385.530 347.572, 388.169 351.803 C 389.301 353.619, 390.468 354.865, 390.761 354.572 C 391.450 353.883, 396.936 361.106, 396.972 362.750 C 396.987 363.438, 396.663 363.947, 396.250 363.882 C 391.144 363.075, 383.958 368.912, 380.229 376.893 C 377.175 383.430, 376.579 388.398, 378.966 387.420 C 379.810 387.074, 381.805 386.400, 383.401 385.922 C 384.997 385.444, 387.112 384.254, 388.103 383.277 C 391.057 380.363, 392.251 379.529, 397.750 376.538 C 402.572 373.915, 405.173 370.952, 401.373 372.410 C 399.667 373.065, 397 371.455, 397 369.771 C 397 369.229, 397.646 369.034, 398.435 369.337 C 399.225 369.640, 400.041 369.378, 400.248 368.755 C 400.456 368.131, 402.279 369.394, 404.299 371.561 L 407.971 375.500 404.736 378.317 C 402.956 379.866, 399.772 382.638, 397.659 384.477 C 392.895 388.625, 392.996 391.355, 397.931 391.826 C 399.810 392.006, 402.281 391.734, 403.423 391.223 C 404.565 390.711, 407.650 389.327, 410.277 388.146 C 415.971 385.588, 417.972 385.476, 420.559 387.574 C 421.626 388.440, 421.938 388.863, 421.250 388.515 C 420.495 388.133, 420 388.546, 420 389.558 C 420 390.810, 420.638 391.111, 422.525 390.750 C 423.965 390.475, 425.362 390.806, 425.775 391.519 C 426.867 393.405, 450.541 401.355, 467.500 405.530 C 490.584 411.214, 492.022 411.467, 494.042 410.206 C 495.424 409.343, 495.947 409.419, 496.380 410.547 C 497.165 412.595, 500.284 412.351, 503.261 410.010 C 505.417 408.314, 507.881 407.408, 511.250 407.074 C 512.369 406.963, 512.156 402.215, 511 401.500 C 510.450 401.160, 510 399.828, 510 398.540 C 510 395.833, 504.398 392, 500.443 392 C 498.637 392, 498 391.459, 498 389.924 C 498 388.123, 497.439 387.871, 493.750 388.017 C 487.388 388.269, 486 388.095, 486 387.046 C 486 385.505, 498.776 386.623, 501.490 388.402 C 505.465 391.006, 515 390.211, 515 387.275 C 515 386.183, 515.670 385.951, 517.500 386.411 C 521.489 387.412, 520.417 386.242, 514.750 383.410 C 509.098 380.586, 504.064 375.812, 506.043 375.152 C 506.686 374.938, 502.819 372.586, 497.450 369.925 C 492.081 367.265, 487.196 364.563, 486.594 363.922 C 485.762 363.035, 486.023 363.024, 487.684 363.878 C 491.624 365.902, 493.024 365.106, 490.985 362 C 490.250 360.881, 489.803 360.804, 489.224 361.697 C 488.797 362.356, 487.892 362.551, 487.213 362.132 C 486.317 361.578, 486.667 360.722, 488.489 359.010 C 491.943 355.765, 491.654 355, 486.977 355 C 482.980 355, 482.964 354.985, 484.500 352.641 C 485.350 351.343, 485.796 349.633, 485.492 348.840 C 484.907 347.315, 477.669 345, 473.486 345 C 472.119 345, 471 344.580, 471 344.066 C 471 343.553, 469.780 342.990, 468.288 342.816 C 466.042 342.554, 465.362 341.754, 464.323 338.150 C 463.075 333.821, 463.080 333.803, 465.457 334.400 C 469.815 335.494, 483 343.150, 483 344.587 C 483 345.364, 483.450 346, 484 346 C 484.550 346, 485 345.532, 485 344.961 C 485 344.390, 485.985 344.840, 487.189 345.961 C 488.392 347.082, 489.929 348, 490.603 348 C 492.222 348, 507.678 353.653, 511.500 355.643 C 517.004 358.510, 533.060 360.024, 554.437 359.693 C 573.013 359.405, 575.020 359.193, 581.510 356.832 C 597.095 351.163, 606.838 345.783, 639.712 324.693 C 656.726 313.778, 665.549 304.299, 660.500 302.362 C 659.675 302.045, 659 301.198, 659 300.478 C 659 298.762, 646.541 297.570, 635.900 298.267 C 630.170 298.643, 627.775 298.441, 627.240 297.539 C 625.888 295.260, 621.573 293.646, 615 292.961 L 608.500 292.284 613.750 292.142 C 616.638 292.064, 619 291.604, 619 291.119 C 619 289.890, 601.280 288.685, 595.642 289.531 C 591.774 290.111, 590.979 289.958, 590.875 288.614 C 590.806 287.726, 590.694 286.544, 590.625 285.986 C 590.464 284.680, 585.355 281.930, 581.515 281.083 C 578.817 280.487, 579.202 280.248, 585.515 278.589 C 589.357 277.580, 593.625 276.049, 595 275.187 C 596.375 274.326, 600.524 272.106, 604.220 270.256 C 607.916 268.406, 611.763 265.846, 612.768 264.567 C 614.190 262.760, 616.029 262.077, 621.036 261.496 C 624.727 261.067, 630.751 259.308, 635.150 257.374 C 639.371 255.518, 643.159 254, 643.568 254 C 643.977 254, 645.786 252.875, 647.589 251.500 C 649.392 250.125, 651.247 249, 651.712 249 C 652.177 249, 655.252 246.188, 658.544 242.750 C 667.040 233.880, 671.694 228.590, 670.319 229.366 C 669.670 229.733, 668.886 229.625, 668.578 229.126 C 668.270 228.627, 669.493 227.942, 671.297 227.604 C 678.246 226.300, 690.325 219.061, 697.672 211.796 C 705.701 203.857, 709.447 198.049, 707.075 197.217 C 706.291 196.942, 704.223 195.289, 702.478 193.545 C 697.209 188.276, 692.835 186.813, 679.563 185.884 C 672.928 185.419, 666.825 185.226, 666 185.454 C 665.175 185.682, 660.675 186.161, 656 186.518 C 651.325 186.875, 645.700 187.568, 643.500 188.059 C 641.300 188.550, 637.444 188.962, 634.932 188.976 C 632.419 188.989, 628.069 189.681, 625.265 190.514 C 622.461 191.347, 616.787 192.456, 612.657 192.980 C 604.137 194.060, 577.060 202.840, 573.006 205.837 C 571.533 206.926, 566.542 209.389, 561.914 211.309 C 557.286 213.229, 547.200 218.057, 539.500 222.037 C 527.268 228.360, 521.120 231.822, 507.323 240.154 L 504.146 242.073 506.151 237.924 C 507.552 235.024, 508.258 231.174, 508.496 225.137 C 508.683 220.387, 509.107 215.815, 509.438 214.979 C 510.064 213.392, 503.714 202.794, 500.373 199.849 C 499.343 198.942, 496.250 196.972, 493.500 195.473 C 490.750 193.974, 487.600 191.945, 486.500 190.963 C 481.124 186.166, 447.302 172.077, 444.830 173.605 C 443.766 174.262, 443.838 170.412, 445.066 161 C 445.604 156.875, 446.249 147.650, 446.500 140.500 C 446.911 128.808, 447.525 121.308, 448.547 115.500 C 448.899 113.499, 451.092 89.713, 451.359 85 C 451.438 83.599, 450.996 82.595, 450.353 82.716 C 449.673 82.844, 449.415 82.131, 449.719 80.966 C 450.358 78.523, 448.170 78.325, 447.334 80.750 M 446.696 93.176 C 445.878 96.104, 444.648 101.650, 443.963 105.500 C 443.278 109.350, 442.299 113.625, 441.788 115 C 439.862 120.178, 436.846 137.755, 436.186 147.654 C 435.474 158.311, 435.537 184.146, 436.293 192 C 436.731 196.555, 435.729 200, 433.965 200 C 433.434 200, 433 199.142, 433 198.094 C 433 196.680, 432.483 196.322, 431 196.710 C 429.609 197.074, 429 196.741, 429 195.617 C 429 194.727, 429.401 194, 429.891 194 C 430.874 194, 431.745 189.676, 432.631 180.404 L 433.213 174.307 426.960 173.654 C 417.993 172.716, 409.212 172.848, 408.543 173.930 C 407.946 174.896, 411.439 181.276, 417.457 190.212 C 419.876 193.804, 420.597 195.631, 419.793 196.128 C 418.535 196.906, 419.207 198.075, 423.887 203.250 C 425.579 205.121, 425.915 205.984, 424.937 205.950 C 424.147 205.923, 421.712 203.709, 419.526 201.030 C 417.340 198.351, 415.203 196.375, 414.776 196.639 C 414.349 196.902, 414 196.728, 414 196.250 C 414 195.773, 412.429 192.773, 410.508 189.583 C 408.587 186.393, 407.211 183.468, 407.450 183.082 C 407.688 182.695, 402.510 171.619, 395.942 158.467 C 389.374 145.315, 384 133.712, 384 132.683 C 384 130.627, 371.618 114.451, 369.390 113.596 C 368.625 113.303, 368 113.216, 368 113.404 C 368 114.962, 373.632 130.426, 375.497 133.990 C 378.471 139.672, 385 156.494, 385 158.475 C 385 161.770, 398.128 187.537, 402.590 193 C 403.264 193.825, 403.969 195.850, 404.158 197.500 C 404.599 201.369, 401.946 201.629, 400.926 197.818 C 399.983 194.291, 391.715 179.002, 390.750 179.001 C 390.337 179, 390 179.382, 390 179.848 C 390 180.315, 388.087 181.523, 385.750 182.533 C 383.413 183.543, 380.600 185.115, 379.500 186.025 C 378.400 186.935, 374.350 189.373, 370.500 191.443 C 363.540 195.186, 358.192 199.124, 351.502 205.434 C 348.789 207.992, 348.016 209.498, 348.070 212.118 C 348.128 214.917, 348.289 215.155, 349 213.500 C 349.645 212, 349.877 212.702, 349.930 216.309 C 349.978 219.590, 349.648 220.900, 348.891 220.432 C 348.105 219.947, 347.983 221.025, 348.471 224.123 C 349.736 232.147, 352.380 239.438, 356.330 245.800 C 359.861 251.486, 360.365 251.924, 361.501 250.300 C 362.193 249.310, 362.969 247.600, 363.225 246.500 C 363.714 244.401, 364.001 244.784, 365.453 249.460 C 366.269 252.086, 374.116 257, 377.495 257 C 379.389 257, 381.406 257.791, 382.449 258.944 C 383.417 260.013, 385.174 261.059, 386.354 261.268 C 388.296 261.612, 388.330 261.724, 386.713 262.445 C 385.555 262.962, 384.322 262.696, 383.211 261.691 C 380.714 259.431, 376.534 258.052, 375.020 258.987 C 374.015 259.609, 374.316 260.407, 376.308 262.399 C 377.739 263.830, 378.592 265.031, 378.205 265.070 C 377.817 265.108, 379.620 265.792, 382.211 266.589 C 385.377 267.563, 386.754 268.476, 386.410 269.375 C 386.058 270.290, 387.409 271.098, 390.698 271.939 C 397.324 273.634, 400 274.785, 400 275.941 C 400 276.549, 402.531 276.688, 406.636 276.305 C 412.084 275.796, 413.187 275.937, 412.798 277.093 C 411.806 280.039, 398.154 278.743, 387.500 274.692 C 385.300 273.855, 382.345 272.919, 380.934 272.612 C 377.965 271.967, 373.730 268.603, 374.685 267.648 C 375.042 267.292, 374.514 267, 373.512 267 C 371.870 267, 371.838 267.172, 373.196 268.750 C 376.555 272.651, 379.333 278.893, 378.296 280.206 C 377.733 280.918, 376.977 284.135, 376.615 287.355 C 376.254 290.575, 375.501 294.063, 374.944 295.105 C 374.140 296.607, 374.270 297, 375.572 297 C 376.649 297, 377.008 297.537, 376.615 298.561 C 376.286 299.419, 377.138 302.228, 378.508 304.803 C 379.879 307.378, 381.282 310.988, 381.627 312.826 C 382.130 315.509, 382.635 316.067, 384.190 315.661 C 385.254 315.382, 387.590 315.766, 389.380 316.514 C 391.407 317.361, 398.449 318.070, 408.036 318.393 C 423.262 318.905, 423.538 318.876, 432.304 315.841 C 438.585 313.666, 441.482 313.082, 442.238 313.838 C 442.993 314.593, 442.531 315.257, 440.652 316.113 C 438.553 317.069, 438 318.018, 438 320.661 C 438 322.497, 437.550 324, 437 324 C 436.450 324, 436 322.602, 436 320.893 C 436 318.421, 435.664 317.915, 434.355 318.417 C 427.828 320.922, 401.738 321.770, 391.039 319.825 C 385.506 318.820, 383.859 319.259, 385.817 321.217 C 387.639 323.039, 387.218 324.422, 385.313 322.872 C 383.813 321.652, 383.711 321.722, 384.393 323.500 C 384.815 324.600, 385.632 328.143, 386.209 331.373 L 387.257 337.246 389.706 334.117 C 391.053 332.396, 393.011 330.529, 394.058 329.969 C 395.887 328.990, 395.883 329.080, 393.965 332.225 C 392.866 334.026, 390.955 336.726, 389.716 338.225 L 387.464 340.950 385.059 334.244 C 383.736 330.556, 382.478 328.067, 382.262 328.713 C 382.047 329.360, 382.335 330.757, 382.903 331.818 C 383.470 332.879, 384.419 335.908, 385.011 338.551 C 385.637 341.344, 387.430 344.922, 389.294 347.097 C 391.057 349.156, 394.288 353.291, 396.472 356.288 L 400.444 361.736 403.123 358.868 C 405.655 356.158, 411 354.811, 411 356.883 C 411 357.369, 411.900 358.002, 413 358.290 C 414.100 358.577, 415 359.257, 415 359.799 C 415 361.677, 411.885 361.971, 409.380 360.329 C 406.976 358.754, 406.758 358.788, 404.467 361.091 L 402.070 363.500 406.120 368.686 C 410.286 374.019, 423.984 386, 425.916 386 C 426.512 386, 427.868 386.868, 428.929 387.929 C 431.325 390.325, 444.415 392.934, 448.524 391.835 C 450.252 391.373, 451.670 391.466, 452.041 392.066 C 452.382 392.619, 454.313 393.339, 456.331 393.666 C 459.902 394.246, 460 394.178, 460 391.131 C 460 387.356, 463.042 384, 466.465 384 C 467.906 384, 469.374 384.830, 470 386 C 471.210 388.260, 477.235 388.916, 476.886 386.750 C 476.775 386.063, 477.036 384.693, 477.466 383.707 C 477.896 382.721, 478.079 381.780, 477.874 381.616 C 477.668 381.452, 475.208 379.534, 472.406 377.354 C 468.077 373.984, 467.434 373.059, 468.124 371.194 C 468.570 369.987, 468.655 369, 468.313 369 C 467.970 369, 468.380 368.212, 469.223 367.250 C 471.124 365.079, 472.328 357.017, 471.049 355.024 C 470.234 353.754, 469.713 353.827, 467.301 355.552 C 461.553 359.664, 451.413 363.908, 446.250 364.362 C 441.264 364.801, 439.262 363.881, 442.500 362.638 C 443.386 362.299, 444 360.797, 444 358.972 C 444 357.167, 444.416 356.139, 445 356.500 C 445.550 356.840, 446 358.044, 446 359.176 C 446 360.724, 446.483 361.107, 447.952 360.723 C 449.026 360.442, 450.065 360.696, 450.262 361.287 C 450.671 362.513, 458.143 359.100, 461.835 356.002 C 463.913 354.258, 464.050 353.683, 463.089 350.769 C 462.495 348.969, 460.483 346.224, 458.618 344.669 C 456.388 342.810, 455.390 341.225, 455.700 340.038 C 455.960 339.046, 455.426 336.790, 454.514 335.027 C 452.692 331.504, 453.195 328.477, 455.458 329.345 C 456.487 329.741, 456.713 329.415, 456.247 328.202 C 455.635 326.607, 455.751 326.607, 458.184 328.201 C 459.608 329.134, 462.665 330.125, 464.978 330.404 C 467.291 330.683, 470.743 331.831, 472.649 332.955 C 474.555 334.080, 476.329 335, 476.592 335 C 477.508 335, 475.056 331.471, 471.249 327.312 C 468.406 324.207, 467.039 323.363, 465.958 324.047 C 463.712 325.468, 461 325.169, 461 323.500 C 461 322.567, 461.944 322, 463.500 322 C 465.225 322, 465.991 321.458, 465.971 320.250 C 465.939 318.359, 460.631 312, 459.085 312 C 457.331 312, 455.646 300.869, 456.882 297.451 C 458.399 293.256, 458.366 287.656, 456.830 288.605 C 456.007 289.114, 455.889 288.760, 456.432 287.414 C 456.857 286.361, 457.446 282.679, 457.741 279.231 L 458.277 272.962 455.888 273.831 C 452.258 275.153, 446.742 282.836, 447.437 285.604 C 447.751 286.854, 447.586 288.138, 447.072 288.456 C 446.526 288.793, 446.730 290.171, 447.562 291.767 C 448.346 293.270, 448.996 296.525, 449.006 299 C 449.026 304.017, 450.999 312.300, 453.066 316.046 C 453.810 317.396, 454.313 319.029, 454.183 319.675 C 454.053 320.321, 454.409 321.135, 454.973 321.484 C 455.538 321.833, 456 322.597, 456 323.181 C 456 325.339, 453.167 321.858, 450.732 316.708 C 447.360 309.578, 445 298.539, 445 289.897 C 445 283.749, 445.368 282.207, 447.500 279.411 C 450.483 275.501, 450.874 272.423, 448.250 273.513 C 442.966 275.709, 437.076 277, 432.341 277 C 429.403 277, 427 277.402, 427 277.893 C 427 279.223, 423.800 280.200, 422.781 279.181 C 421.469 277.869, 425.708 275.490, 432 274.006 C 435.025 273.293, 437.759 272.313, 438.076 271.827 C 438.393 271.342, 441.543 270.481, 445.076 269.914 C 448.609 269.348, 451.912 268.476, 452.415 267.977 C 452.918 267.478, 451.584 267.552, 449.450 268.141 C 446.749 268.887, 445.465 268.894, 445.221 268.162 C 445.028 267.585, 444.225 267.360, 443.435 267.663 C 442.646 267.966, 442 267.716, 442 267.107 C 442 265.817, 443.529 265.633, 455 265.547 C 462.778 265.489, 464.137 265.163, 471 261.707 C 486.723 253.791, 495.453 247.411, 499.641 240.776 C 500.939 238.721, 502 236.802, 502 236.512 C 502 236.222, 498.845 238.082, 494.988 240.647 C 491.131 243.211, 488.204 245.537, 488.482 245.815 C 488.760 246.093, 489.778 245.634, 490.744 244.795 C 492.495 243.273, 498 241.507, 498 242.468 C 498 242.746, 496.425 243.631, 494.500 244.436 C 492.575 245.240, 491 246.521, 491 247.282 C 491 248.119, 489.912 248.678, 488.250 248.695 C 486.738 248.711, 483.925 249.456, 482 250.352 C 480.075 251.247, 479.569 251.711, 480.875 251.383 C 482.559 250.959, 483.037 251.131, 482.516 251.974 C 482.087 252.668, 480.774 252.909, 479.361 252.554 C 476.370 251.804, 457.028 257.763, 456.301 259.659 C 455.936 260.609, 454.675 260.812, 451.895 260.367 C 449.303 259.953, 448 260.122, 448 260.872 C 448 261.492, 447.438 262.011, 446.750 262.024 C 446.063 262.037, 442.913 263.112, 439.750 264.412 C 436.587 265.713, 434 266.417, 434 265.978 C 434 265.190, 439.333 262.484, 445.826 259.978 L 449.152 258.694 445.326 257.362 C 440.212 255.582, 429.398 255.648, 423.928 257.494 C 419.509 258.985, 414.325 258.507, 413.769 256.556 C 413.621 256.037, 414.932 254.776, 416.683 253.753 C 420.352 251.610, 434.318 250.927, 444.600 252.387 C 450.341 253.203, 450.733 253.128, 451.257 251.127 C 452.109 247.865, 454.452 248.596, 455.890 252.572 C 456.875 255.296, 457.576 255.981, 458.841 255.456 C 459.753 255.078, 462.300 254.347, 464.500 253.832 C 470.274 252.480, 487.358 243.907, 495.437 238.308 C 503.602 232.649, 504.394 230.819, 503.363 220 C 502.970 215.875, 502.738 212.129, 502.849 211.676 C 502.959 211.222, 502.639 211.105, 502.138 211.415 C 501.637 211.725, 499.312 209.497, 496.973 206.465 C 492.733 200.969, 484.050 193, 482.302 193 C 481.796 193, 478.934 191.533, 475.941 189.739 C 468.231 185.119, 455.210 179.387, 450.500 178.540 C 448.300 178.145, 445.938 177.356, 445.250 176.788 C 443.538 175.373, 443.625 185.179, 445.406 194.388 C 446.485 199.964, 446.498 201.740, 445.474 203.712 C 444.758 205.092, 443.932 205.699, 443.569 205.112 C 441.108 201.130, 440.692 158.083, 442.972 143.500 C 444.500 133.732, 448.919 88.861, 448.421 88.176 C 448.291 87.998, 447.515 90.248, 446.696 93.176 M 358.506 100.006 C 359.504 101.110, 360.538 101.795, 360.803 101.530 C 361.475 100.858, 358.981 98, 357.723 98 C 357.155 98, 357.507 98.903, 358.506 100.006 M 364 108.500 C 364 108.775, 364.225 109, 364.500 109 C 364.775 109, 365 108.775, 365 108.500 C 365 108.225, 364.775 108, 364.500 108 C 364.225 108, 364 108.225, 364 108.500 M 440 114.500 C 440 114.775, 440.225 115, 440.500 115 C 440.775 115, 441 114.775, 441 114.500 C 441 114.225, 440.775 114, 440.500 114 C 440.225 114, 440 114.225, 440 114.500 M 466.500 176 C 466.840 176.550, 467.343 177, 467.618 177 C 467.893 177, 467.840 176.550, 467.500 176 C 467.160 175.450, 466.657 175, 466.382 175 C 466.107 175, 466.160 175.450, 466.500 176 M 654.402 190.063 C 648.848 190.491, 642.439 191.343, 640.160 191.957 C 637.880 192.571, 633.649 193.300, 630.758 193.577 C 621.879 194.429, 620.030 194.895, 603 200.573 C 593.925 203.599, 580.425 209.043, 573 212.671 C 551.522 223.167, 539.693 228.703, 537 229.519 C 534.221 230.361, 517.172 241.526, 512.521 245.549 C 510.883 246.966, 509.383 247.648, 509.188 247.063 C 508.262 244.285, 503.828 246.295, 497.417 252.398 C 490.469 259.012, 483.302 263.139, 468.258 269.187 L 460.017 272.500 460.008 277.872 C 460.001 282.573, 460.191 283.087, 461.524 281.980 C 463.688 280.184, 464.205 281.168, 463.992 286.673 C 463.375 302.637, 463.833 309.023, 465.903 313.299 C 467.056 315.682, 468 318.164, 468 318.816 C 468 319.467, 468.450 320, 469 320 C 469.550 320, 470 319.625, 470 319.167 C 470 317.951, 478.029 311.695, 478.713 312.379 C 479.032 312.698, 477.199 314.965, 474.640 317.417 C 472.082 319.869, 470.441 322.154, 470.994 322.496 C 471.547 322.838, 472 322.641, 472 322.059 C 472 321.477, 472.675 321, 473.500 321 C 474.325 321, 475 321.519, 475 322.153 C 475 322.787, 476.350 326.164, 478 329.656 C 479.650 333.148, 481 336.435, 481 336.961 C 481 337.486, 482.913 339.030, 485.250 340.392 C 490.043 343.184, 510.908 351.425, 511.553 350.781 C 512.050 350.284, 503.589 338.482, 502.057 337.535 C 501.476 337.176, 501 336.403, 501 335.819 C 501 335.175, 501.628 335.277, 502.591 336.076 C 503.997 337.243, 504.125 337.053, 503.684 334.448 C 503.409 332.827, 502.468 329.827, 501.593 327.782 C 499.431 322.737, 499.558 321.290, 501.970 323.473 C 503.054 324.454, 504.928 328.382, 506.133 332.203 C 508.320 339.132, 513.070 347, 515.065 347 C 515.644 347, 515.863 347.412, 515.552 347.916 C 515.241 348.420, 516.901 350.483, 519.243 352.500 C 523.037 355.769, 523.935 356.106, 527.500 355.594 C 529.700 355.279, 540.950 354.730, 552.500 354.375 C 564.050 354.020, 574.288 353.324, 575.250 352.829 C 576.212 352.334, 577.052 350.933, 577.116 349.715 C 577.216 347.803, 577.299 347.760, 577.719 349.402 C 578.576 352.755, 580.264 353.850, 582.980 352.818 C 584.343 352.299, 585.758 351.391, 586.124 350.799 C 586.490 350.208, 588.142 349.673, 589.796 349.612 C 591.450 349.550, 592.644 349.240, 592.449 348.922 C 592.254 348.604, 593.985 347.521, 596.297 346.515 C 604.277 343.044, 617 336.789, 617 336.336 C 617 336.086, 616.480 336.203, 615.845 336.595 C 615.152 337.024, 614.962 336.871, 615.369 336.211 C 615.742 335.608, 619.524 333.206, 623.774 330.874 C 633.597 325.483, 641.204 319.904, 646.665 314.084 C 649.031 311.563, 650.974 309.275, 650.983 309 C 650.992 308.725, 643.924 308.422, 635.275 308.327 C 625.077 308.215, 619.425 307.776, 619.192 307.077 C 618.977 306.432, 615.741 306, 611.117 306 C 606.872 306, 602.912 305.512, 602.316 304.916 C 601.239 303.839, 597.836 303.323, 586.657 302.542 C 580.698 302.126, 571 299.218, 571 297.847 C 571 297.430, 572.697 297.687, 574.770 298.419 C 578.985 299.906, 584.362 300.680, 604 302.627 C 608.125 303.036, 611.950 303.250, 612.500 303.102 C 613.050 302.954, 616.099 303.384, 619.275 304.058 C 625.294 305.336, 626.765 305.036, 625.377 302.817 C 624.924 302.092, 624.541 300.846, 624.526 300.047 C 624.463 296.555, 603.343 294.448, 588.622 296.464 C 583.811 297.123, 582.827 297.018, 583.200 295.884 C 583.451 295.123, 584.609 294.359, 585.773 294.188 C 587.140 293.986, 587.694 293.366, 587.338 292.438 C 586.987 291.523, 587.427 291, 588.548 291 C 590.186 291, 590.176 290.852, 588.407 288.898 C 586.183 286.440, 581.766 284, 579.541 284 C 578.229 284, 578.181 284.320, 579.242 286.031 C 580.282 287.709, 580.240 288.226, 579 289.015 C 576.595 290.545, 576.139 290.195, 576.050 286.750 C 576.004 284.962, 575.947 282.700, 575.923 281.722 C 575.893 280.493, 575.203 280.020, 573.690 280.191 C 572.485 280.328, 569.025 279.924, 566 279.295 C 558.089 277.648, 548.858 276.961, 549.544 278.071 C 549.860 278.582, 552.540 279, 555.500 279 C 558.460 279, 561.134 279.408, 561.442 279.906 C 561.750 280.404, 562.902 280.577, 564.001 280.289 C 565.435 279.914, 566 280.259, 566 281.511 C 566 282.987, 565.345 283.167, 561.750 282.681 C 559.413 282.365, 558.063 282.345, 558.750 282.636 C 559.438 282.928, 560 283.767, 560 284.500 C 560 285.233, 560.563 286.060, 561.250 286.338 C 562.030 286.652, 561.873 286.872, 560.833 286.921 C 559.917 286.964, 558.996 287.511, 558.788 288.136 C 558.026 290.422, 554 286.685, 554 283.692 C 554 281.224, 553.714 280.952, 551.750 281.551 C 550.513 281.928, 548.778 282.869, 547.895 283.642 C 546.294 285.044, 543 284.561, 543 282.924 C 543 282.451, 543.727 282.342, 544.616 282.683 C 545.934 283.189, 546.051 282.952, 545.251 281.402 C 544.712 280.356, 544.451 278.999, 544.673 278.387 C 544.894 277.775, 543.808 276.749, 542.260 276.108 C 538.323 274.477, 536.358 271.207, 538.384 269.658 C 540.406 268.112, 541.218 260, 539.350 260 C 538.608 260, 538 259.070, 538 257.934 C 538 255.148, 539.778 252, 541.351 252 C 542.055 252, 543.621 250.241, 544.829 248.090 L 547.027 244.180 544.763 244.664 C 542.558 245.136, 542.550 245.108, 544.441 243.574 C 545.509 242.708, 546.746 242, 547.191 242 C 547.636 242, 548 241.331, 548 240.513 C 548 239.136, 555.119 231.785, 555.796 232.463 C 556.059 232.725, 552.501 238.546, 550.264 241.514 C 548.608 243.710, 542 258.122, 542 259.536 C 542 260.647, 542.664 260.871, 544.549 260.398 C 546.842 259.823, 547.039 259.997, 546.509 262.129 C 546.025 264.071, 546.464 264.740, 548.936 265.823 C 550.595 266.551, 552.464 266.831, 553.088 266.445 C 554.579 265.524, 556.103 268.022, 555.410 270.250 C 555.019 271.507, 555.418 272, 556.826 272 C 559.411 272, 560.581 268.898, 558.554 267.416 C 556.386 265.831, 556.617 265.087, 559.077 265.730 C 560.219 266.029, 561.558 267.337, 562.052 268.636 C 563.414 272.219, 568.816 275.142, 573 274.561 C 574.925 274.294, 579.136 274.059, 582.357 274.038 C 587.143 274.007, 588.109 273.726, 587.638 272.500 C 586.939 270.678, 587.853 268, 589.174 268 C 589.703 268, 589.849 268.900, 589.500 270 C 588.307 273.760, 595.115 271.432, 603.823 265.103 C 609.542 260.946, 609.925 260.453, 607.823 259.944 C 606.350 259.587, 605.073 259.951, 604.332 260.939 C 603.689 261.796, 602.838 262.171, 602.439 261.773 C 602.041 261.374, 602.253 260.400, 602.910 259.608 C 603.875 258.446, 603.709 258.042, 602.053 257.517 C 599.936 256.845, 599.373 255.505, 600.829 254.606 C 601.284 254.324, 604.496 255.241, 607.966 256.642 C 613.134 258.730, 615.379 259.099, 620.387 258.686 C 630.604 257.843, 638.389 254.981, 648.649 248.295 C 652.634 245.698, 653.681 244.495, 653.282 242.970 C 652.905 241.530, 653.268 241, 654.633 241 C 656.959 241, 667.475 229.630, 665.550 229.196 C 664.810 229.029, 661.505 229.592, 658.207 230.446 C 652.027 232.048, 644.828 232.495, 643.682 231.349 C 642.337 230.004, 646.668 228.062, 651.083 228.032 C 658.879 227.978, 667.188 225.963, 674.750 222.294 C 678.737 220.360, 682 218.407, 682 217.956 C 682 217.504, 682.958 216.831, 684.128 216.459 C 686.792 215.614, 696.643 205.700, 697.499 203.003 C 698.148 200.959, 699.149 200.482, 700.325 201.658 C 700.687 202.020, 700.432 203.032, 699.759 203.908 C 699.009 204.883, 699.399 204.762, 700.767 203.595 C 707.305 198.017, 698.095 191.422, 681.286 189.645 C 677.796 189.276, 676.968 189.526, 676.468 191.100 C 675.673 193.607, 674 193.539, 674 191 C 674 188.731, 672.575 188.662, 654.402 190.063 M 372.333 194.667 C 372.700 195.033, 373.300 195.033, 373.667 194.667 C 374.033 194.300, 373.733 194, 373 194 C 372.267 194, 371.967 194.300, 372.333 194.667 M 365.097 196.722 C 363.225 197.644, 362.181 198.560, 362.777 198.759 C 363.372 198.957, 365.579 198.213, 367.680 197.104 C 372.275 194.679, 369.944 194.334, 365.097 196.722 M 643 199.622 C 638.875 200.369, 634.825 201.279, 634 201.644 C 633.175 202.009, 631.701 202.208, 630.725 202.087 C 629.749 201.965, 625.383 203.021, 621.021 204.433 C 616.660 205.845, 612.208 207, 611.127 207 C 608.106 207, 605.941 208.095, 606.660 209.259 C 607.037 209.869, 606.829 210.012, 606.164 209.601 C 605.534 209.212, 599.964 211.055, 593.787 213.697 C 579.651 219.742, 579.386 219.820, 585.750 216.061 C 591.007 212.955, 592.534 211.494, 589.250 212.711 C 586.370 213.779, 580 218.201, 580 219.133 C 580 219.610, 579.374 220, 578.610 220 C 576.540 220, 563.579 226.597, 562.066 228.421 C 561.345 229.289, 560.098 230, 559.294 230 C 558.491 230, 558.040 230.563, 558.292 231.250 C 558.544 231.938, 559.256 232.388, 559.875 232.250 C 560.494 232.113, 561 232.450, 561 233 C 561 233.550, 562.125 234, 563.500 234 C 564.875 234, 566 233.550, 566 233 C 566 232.450, 565.352 232, 564.559 232 C 562.222 232, 562.114 230.640, 564.282 228.500 C 565.396 227.400, 566.013 227.021, 565.652 227.657 C 565.217 228.425, 565.669 228.638, 566.999 228.290 C 568.099 228.002, 569 227.400, 569 226.951 C 569 226.223, 571.774 224.952, 574.500 224.431 C 575.405 224.258, 590.911 217.114, 595.308 214.844 C 596.302 214.331, 599.100 213.741, 601.526 213.534 C 603.952 213.327, 606.430 212.853, 607.032 212.480 C 607.634 212.108, 609.057 212.636, 610.196 213.652 C 612.224 215.462, 612.252 215.457, 611.605 213.373 C 611.045 211.572, 611.673 210.903, 615.722 208.997 C 618.350 207.760, 622.226 206.515, 624.336 206.231 C 626.446 205.946, 628.411 205.091, 628.703 204.331 C 629.100 203.297, 629.571 203.229, 630.571 204.059 C 631.560 204.879, 633.288 204.777, 637.204 203.664 C 640.117 202.836, 646.437 202.141, 651.250 202.119 C 658.841 202.084, 660.298 201.791, 662.250 199.906 L 664.500 197.734 661 198.432 C 652.052 200.215, 650.686 200.318, 651.404 199.156 C 651.797 198.520, 651.754 198.059, 651.309 198.132 C 650.864 198.205, 647.125 198.875, 643 199.622 M 505 199.755 C 505 200.305, 505.675 201.315, 506.500 202 C 507.337 202.694, 508 202.803, 508 202.245 C 508 201.695, 507.325 200.685, 506.500 200 C 505.663 199.306, 505 199.197, 505 199.755 M 666.223 200.130 C 665.825 200.502, 664.600 201.022, 663.500 201.287 C 662.400 201.552, 665.775 201.891, 671 202.042 C 681.881 202.355, 682.537 202.336, 686.206 201.606 C 688.301 201.189, 688.784 201.398, 688.349 202.534 C 687.927 203.632, 688.581 204, 690.952 204 C 692.808 204, 693.862 203.586, 693.500 203 C 693.160 202.450, 693.584 202, 694.441 202 C 695.298 202, 696 201.286, 696 200.414 C 696 199.025, 694.201 198.867, 681.473 199.141 C 673.483 199.314, 666.620 199.759, 666.223 200.130 M 690 202.500 C 690 202.775, 690.225 203, 690.500 203 C 690.775 203, 691 202.775, 691 202.500 C 691 202.225, 690.775 202, 690.500 202 C 690.225 202, 690 202.225, 690 202.500 M 678 203.882 C 678 204.432, 678.450 205.160, 679 205.500 C 679.550 205.840, 680 205.668, 680 205.118 C 680 204.568, 679.550 203.840, 679 203.500 C 678.450 203.160, 678 203.332, 678 203.882 M 499.041 207.058 C 500.238 208.739, 501.455 209.878, 501.745 209.589 C 502.491 208.842, 499.168 204, 497.909 204 C 497.334 204, 497.844 205.376, 499.041 207.058 M 661 207 C 661 208.367, 661.667 209, 663.107 209 C 664.617 209, 665.042 208.552, 664.607 207.418 C 664.273 206.548, 664 205.648, 664 205.418 C 664 205.188, 663.325 205, 662.500 205 C 661.667 205, 661 205.889, 661 207 M 666 206 C 666 206.733, 666.300 207.033, 666.667 206.667 C 667.033 206.300, 667.033 205.700, 666.667 205.333 C 666.300 204.967, 666 205.267, 666 206 M 673.447 205.915 C 673.758 206.418, 673.447 207.057, 672.756 207.336 C 671.974 207.651, 671.925 207.872, 672.628 207.921 C 673.248 207.964, 674.315 207.325, 675 206.500 C 676.023 205.268, 675.945 205, 674.563 205 C 673.639 205, 673.136 205.412, 673.447 205.915 M 681 206 C 681 206.550, 681.702 207, 682.559 207 C 683.416 207, 683.840 206.550, 683.500 206 C 683.160 205.450, 682.459 205, 681.941 205 C 681.423 205, 681 205.450, 681 206 M 685 205.500 C 685 205.775, 685.225 206, 685.500 206 C 685.775 206, 686 205.775, 686 205.500 C 686 205.225, 685.775 205, 685.500 205 C 685.225 205, 685 205.225, 685 205.500 M 654.553 207.915 C 654.231 208.436, 654.394 209.125, 654.915 209.447 C 655.436 209.769, 656.125 209.606, 656.447 209.085 C 656.769 208.564, 656.606 207.875, 656.085 207.553 C 655.564 207.231, 654.875 207.394, 654.553 207.915 M 688 209 C 688 209.550, 688.675 210, 689.500 210 C 690.325 210, 691 209.550, 691 209 C 691 208.450, 690.325 208, 689.500 208 C 688.675 208, 688 208.450, 688 209 M 678.813 210.683 C 679.534 210.972, 680.397 210.936, 680.729 210.604 C 681.061 210.272, 680.471 210.036, 679.417 210.079 C 678.252 210.127, 678.015 210.364, 678.813 210.683 M 683.244 210.664 C 682.553 210.943, 682.230 211.563, 682.526 212.042 C 683.174 213.090, 686 212.156, 686 210.893 C 686 209.930, 685.225 209.866, 683.244 210.664 M 506.086 211.500 C 506.190 213.394, 507.856 216.584, 507.914 215 C 507.945 214.175, 507.533 212.825, 507 212 C 506.467 211.175, 506.055 210.950, 506.086 211.500 M 496 212.941 C 496 213.459, 496.450 214.160, 497 214.500 C 498.245 215.269, 498.328 223.679, 497.098 224.439 C 496.603 224.746, 495.707 226.460, 495.108 228.248 L 494.020 231.500 497.060 228.178 C 499.823 225.159, 500.043 224.428, 499.466 220.178 C 498.607 213.845, 498.036 212, 496.933 212 C 496.420 212, 496 212.423, 496 212.941 M 660.262 213.690 C 661.192 214.620, 662.233 215.100, 662.576 214.757 C 663.561 213.773, 662.050 212, 660.227 212 C 658.700 212, 658.703 212.132, 660.262 213.690 M 669.177 213.553 C 669.591 215.544, 671.305 215.526, 671.599 213.527 C 671.722 212.687, 671.155 212, 670.338 212 C 669.522 212, 668.999 212.699, 669.177 213.553 M 653 215 C 653 215.550, 653.450 216, 654 216 C 654.550 216, 655 215.550, 655 215 C 655 214.450, 654.550 214, 654 214 C 653.450 214, 653 214.450, 653 215 M 664.510 215.016 C 664.856 215.575, 665.557 215.774, 666.069 215.457 C 667.456 214.600, 667.198 214, 665.441 214 C 664.584 214, 664.165 214.457, 664.510 215.016 M 675.755 216.500 C 676.018 217.875, 676.631 219, 677.117 219 C 678.148 219, 678.245 217.803, 677.393 215.582 C 676.430 213.072, 675.229 213.746, 675.755 216.500 M 461.500 217.630 C 457.346 219.684, 455.443 220.028, 450.250 219.666 C 444.617 219.273, 444 219.418, 444 221.137 C 444 222.185, 445.085 223.537, 446.411 224.142 C 447.976 224.854, 449.037 226.385, 449.434 228.500 C 450.133 232.227, 453.042 233.319, 459.645 232.333 C 464.568 231.598, 466 229.731, 466 224.049 C 466 220.535, 466.470 219.187, 468.039 218.208 C 470.102 216.920, 469.881 214.934, 467.691 215.079 C 467.036 215.122, 464.250 216.270, 461.500 217.630 M 347.079 217.583 C 347.127 218.748, 347.364 218.985, 347.683 218.188 C 347.972 217.466, 347.936 216.603, 347.604 216.271 C 347.272 215.939, 347.036 216.529, 347.079 217.583 M 393.691 218.722 C 390.299 219.232, 390.631 221.377, 394.167 221.801 C 396.417 222.070, 396.698 222.588, 396.855 226.752 C 396.952 229.309, 397.572 231.736, 398.234 232.144 C 400.167 233.339, 411.651 234.288, 415.482 233.569 C 418.998 232.910, 419.368 232.371, 419.055 228.368 C 418.914 226.572, 419.644 226.099, 423.694 225.359 C 427.531 224.658, 428.500 224.080, 428.500 222.490 C 428.500 220.944, 427.943 220.575, 426 220.839 C 421.036 221.511, 416.349 221.197, 408 219.632 C 399.375 218.017, 398.678 217.972, 393.691 218.722 M 513.090 221.500 C 511.216 226.392, 511.041 227, 511.506 227 C 512.421 227, 515.103 220.816, 514.680 219.682 C 514.437 219.032, 513.721 219.850, 513.090 221.500 M 655.500 220 C 655.840 220.550, 656.316 221, 656.559 221 C 656.802 221, 657 220.550, 657 220 C 657 219.450, 656.523 219, 655.941 219 C 655.359 219, 655.160 219.450, 655.500 220 M 669 219.987 C 669 220.678, 671.352 222, 672.582 222 C 673.946 222, 672.665 220.146, 671 219.710 C 669.900 219.423, 669 219.547, 669 219.987 M 662 221.114 C 662 222.552, 663.810 223.006, 666.129 222.148 C 668.318 221.338, 668.270 221.267, 665.221 220.819 C 663.450 220.559, 662 220.692, 662 221.114 M 400 225.511 C 400 229.937, 402.315 231.189, 409.776 230.799 C 415.055 230.523, 415.523 230.304, 415.794 227.981 C 416.050 225.788, 415.534 225.303, 411.794 224.227 C 409.432 223.547, 405.813 222.789, 403.750 222.541 C 400.060 222.099, 400 222.146, 400 225.511 M 456.323 222.696 C 455.125 222.929, 453.567 223.817, 452.860 224.668 C 451.790 225.959, 451.902 226.456, 453.538 227.652 C 454.617 228.442, 456.850 228.956, 458.500 228.794 C 461.080 228.541, 461.544 228.045, 461.813 225.250 C 462.142 221.838, 461.725 221.645, 456.323 222.696 M 656.500 225 C 656.840 225.550, 657.316 226, 657.559 226 C 657.802 226, 658 225.550, 658 225 C 658 224.450, 657.523 224, 656.941 224 C 656.359 224, 656.160 224.450, 656.500 225 M 352.573 233.500 C 352.974 235.700, 353.936 238.475, 354.711 239.666 C 356.202 241.958, 359 243.530, 359 242.076 C 359 241.602, 358.350 240.965, 357.556 240.660 C 356.762 240.355, 355.561 238.169, 354.887 235.803 C 353.230 229.980, 351.644 228.402, 352.573 233.500 M 510.405 231.155 C 509.962 231.870, 510.130 232.038, 510.845 231.595 C 511.480 231.203, 512 230.684, 512 230.441 C 512 229.607, 511.117 230.002, 510.405 231.155 M 655 234.622 C 655 235.951, 655.271 236.020, 656.500 235 C 657.325 234.315, 658 233.585, 658 233.378 C 658 233.170, 657.325 233, 656.500 233 C 655.675 233, 655 233.730, 655 234.622 M 659 234.500 C 659 234.775, 659.225 235, 659.500 235 C 659.775 235, 660 234.775, 660 234.500 C 660 234.225, 659.775 234, 659.500 234 C 659.225 234, 659 234.225, 659 234.500 M 648 236 C 648 236.550, 648.477 237, 649.059 237 C 649.641 237, 649.840 236.550, 649.500 236 C 649.160 235.450, 648.684 235, 648.441 235 C 648.198 235, 648 235.450, 648 236 M 653 236.882 C 653 237.432, 653.450 238.160, 654 238.500 C 654.550 238.840, 655 238.668, 655 238.118 C 655 237.568, 654.550 236.840, 654 236.500 C 653.450 236.160, 653 236.332, 653 236.882 M 648 239 C 648 239.550, 648.702 240, 649.559 240 C 650.416 240, 650.840 239.550, 650.500 239 C 650.160 238.450, 649.459 238, 648.941 238 C 648.423 238, 648 238.450, 648 239 M 645.473 242.956 C 645.798 243.482, 646.725 243.659, 647.532 243.349 C 649.599 242.556, 649.356 242, 646.941 242 C 645.809 242, 645.148 242.430, 645.473 242.956 M 502 244 C 502 244.733, 502.300 245.033, 502.667 244.667 C 503.033 244.300, 503.033 243.700, 502.667 243.333 C 502.300 242.967, 502 243.267, 502 244 M 641.500 245 C 641.840 245.550, 642.316 246, 642.559 246 C 642.802 246, 643 245.550, 643 245 C 643 244.450, 642.523 244, 641.941 244 C 641.359 244, 641.160 244.450, 641.500 245 M 486 246.500 C 486 246.775, 486.225 247, 486.500 247 C 486.775 247, 487 246.775, 487 246.500 C 487 246.225, 486.775 246, 486.500 246 C 486.225 246, 486 246.225, 486 246.500 M 542 248 C 541.361 249.194, 541.063 250.396, 541.338 250.671 C 541.613 250.946, 542.361 250.194, 543 249 C 543.639 247.806, 543.937 246.604, 543.662 246.329 C 543.387 246.054, 542.639 246.806, 542 248 M 549.469 248.050 C 548.519 249.588, 549.820 250.580, 551.104 249.296 C 551.822 248.578, 551.839 248.019, 551.156 247.597 C 550.596 247.251, 549.837 247.455, 549.469 248.050 M 363 252.218 C 363 254.752, 370.958 264, 373.138 264 C 373.821 264, 373.555 263.166, 372.500 262 C 371.505 260.900, 370.085 260, 369.345 260 C 368.605 260, 368 259.316, 368 258.481 C 368 257.356, 368.713 257.106, 370.750 257.517 C 373.251 258.022, 373.328 257.956, 371.596 256.786 C 370.548 256.079, 368.186 254.216, 366.346 252.646 L 363 249.793 363 252.218 M 499.748 252.442 C 498.787 253.145, 498 254.233, 498 254.860 C 498 255.487, 497.273 256, 496.383 256 C 495.259 256, 494.926 256.609, 495.290 258.001 C 495.578 259.102, 495.460 259.785, 495.029 259.518 C 494.015 258.891, 489.692 265.433, 487.972 270.197 C 487.238 272.230, 486.306 273.689, 485.901 273.439 C 485.043 272.909, 486.760 265.946, 488.093 264.550 C 489.284 263.302, 489.250 262, 488.026 262 C 486.453 262, 484 267.622, 484 271.228 C 484 273.058, 483.299 275.555, 482.443 276.777 C 481.587 278, 481.337 279, 481.887 279 C 482.437 279, 483.587 278, 484.443 276.777 C 485.299 275.555, 486 274.858, 486 275.229 C 486 276.744, 480.037 293.384, 479.990 292 C 479.945 290.667, 479.844 290.667, 479.083 292 C 478.256 293.449, 479.407 305.232, 480.558 307.094 C 481.707 308.953, 483.072 308.003, 482.035 306.066 C 480.503 303.203, 480.723 295.044, 482.349 294.419 C 483.091 294.135, 483.735 292.686, 483.779 291.201 C 483.824 289.715, 484.783 286.475, 485.911 284 C 487.039 281.525, 487.858 280.353, 487.731 281.396 C 487.253 285.324, 489.670 283.847, 491.216 279.268 C 494.506 269.517, 498.093 260.506, 499.603 258.202 C 500.459 256.895, 500.903 255.569, 500.589 255.255 C 500.274 254.941, 500.528 254.069, 501.151 253.318 C 502.719 251.428, 501.864 250.895, 499.748 252.442 M 546 252.941 C 546 253.459, 546.450 254.160, 547 254.500 C 547.550 254.840, 548 254.416, 548 253.559 C 548 252.702, 547.550 252, 547 252 C 546.450 252, 546 252.423, 546 252.941 M 549 254 C 549 254.550, 549.450 255, 550 255 C 550.550 255, 551 254.550, 551 254 C 551 253.450, 550.550 253, 550 253 C 549.450 253, 549 253.450, 549 254 M 496 257.500 C 496 257.775, 496.225 258, 496.500 258 C 496.775 258, 497 257.775, 497 257.500 C 497 257.225, 496.775 257, 496.500 257 C 496.225 257, 496 257.225, 496 257.500 M 547.333 258.499 C 547.787 259.860, 554 259.777, 554 258.411 C 554 257.812, 552.425 257.362, 550.500 257.410 C 548.575 257.459, 547.150 257.949, 547.333 258.499 M 478 261 C 476.075 262.054, 474.852 262.935, 475.282 262.958 C 476.517 263.024, 483 260.162, 483 259.551 C 483 258.613, 481.639 259.008, 478 261 M 558 260.933 C 558 261.520, 558.900 262, 560 262 C 561.385 262, 562 262.667, 562 264.167 C 562 265.358, 562.296 266.037, 562.658 265.675 C 563.020 265.313, 563.998 265.576, 564.833 266.259 C 565.895 267.128, 565.788 266.601, 564.477 264.500 C 563.448 262.850, 562.582 261.443, 562.553 261.374 C 562.524 261.305, 561.487 260.937, 560.250 260.557 C 558.890 260.139, 558 260.287, 558 260.933 M 388.312 263.250 C 386.851 266.510, 387.789 268.612, 389.675 266.303 C 390.485 265.311, 390.883 265.031, 390.558 265.681 C 390.233 266.330, 390.425 267.144, 390.984 267.490 C 391.543 267.835, 392 267.748, 392 267.296 C 392 266.843, 394.626 266.485, 397.835 266.500 C 402.535 266.521, 403.424 266.281, 402.406 265.263 C 401.711 264.568, 399.366 264, 397.194 264 C 394.904 264, 392.722 263.370, 392 262.500 C 390.298 260.449, 389.495 260.612, 388.312 263.250 M 554.229 262.188 C 554.847 264.042, 557 264.349, 557 262.583 C 557 261.712, 556.288 261, 555.417 261 C 554.546 261, 554.011 261.534, 554.229 262.188 M 473 263.500 C 473 263.775, 473.225 264, 473.500 264 C 473.775 264, 474 263.775, 474 263.500 C 474 263.225, 473.775 263, 473.500 263 C 473.225 263, 473 263.225, 473 263.500 M 492.789 264.526 C 492.480 265.612, 491.922 267.400, 491.550 268.500 C 491.177 269.600, 491.605 269.236, 492.500 267.690 C 493.395 266.145, 493.952 264.356, 493.739 263.716 C 493.525 263.075, 493.098 263.440, 492.789 264.526 M 598.479 265.024 C 596.973 266.688, 596.932 267, 598.223 267 C 600.143 267, 602.429 264.383, 601.182 263.613 C 600.679 263.302, 599.462 263.937, 598.479 265.024 M 616 264.059 C 616 264.641, 616.450 264.840, 617 264.500 C 617.550 264.160, 618 263.684, 618 263.441 C 618 263.198, 617.550 263, 617 263 C 616.450 263, 616 263.477, 616 264.059 M 592 265.927 C 592 266.436, 592.788 267.059, 593.750 267.311 C 595.417 267.746, 595.417 267.774, 593.750 267.884 C 592.788 267.948, 592 268.408, 592 268.906 C 592 269.405, 592.900 269.577, 594 269.290 C 596.296 268.689, 596.500 267.900, 594.800 266.200 C 593.370 264.770, 592 264.636, 592 265.927 M 542 266.500 C 542 266.775, 542.225 267, 542.500 267 C 542.775 267, 543 266.775, 543 266.500 C 543 266.225, 542.775 266, 542.500 266 C 542.225 266, 542 266.225, 542 266.500 M 380.500 269 C 380.840 269.550, 381.793 270, 382.618 270 C 383.443 270, 383.840 269.550, 383.500 269 C 383.160 268.450, 382.207 268, 381.382 268 C 380.557 268, 380.160 268.450, 380.500 269 M 541 269.592 C 541 271.376, 546.134 272.393, 547.140 270.808 C 548.488 268.682, 548.178 268.400, 544.500 268.400 C 542.458 268.400, 541 268.896, 541 269.592 M 570 269.383 C 570 270.310, 570.818 271, 571.917 271 C 572.971 271, 573.995 271.484, 574.192 272.075 C 574.682 273.545, 580 272.135, 580 270.535 C 580 269.843, 578.775 269.282, 577.250 269.276 C 575.737 269.269, 573.487 268.927, 572.250 268.516 C 570.536 267.945, 570 268.152, 570 269.383 M 467.947 272.639 C 466.517 276.400, 467.502 276.705, 469.319 273.062 C 470.159 271.378, 470.420 270, 469.899 270 C 469.377 270, 468.499 271.187, 467.947 272.639 M 567 271 C 567 271.550, 567.450 272, 568 272 C 568.550 272, 569 271.550, 569 271 C 569 270.450, 568.550 270, 568 270 C 567.450 270, 567 270.450, 567 271 M 549 271.500 C 549 271.775, 549.225 272, 549.500 272 C 549.775 272, 550 271.775, 550 271.500 C 550 271.225, 549.775 271, 549.500 271 C 549.225 271, 549 271.225, 549 271.500 M 367.770 272.669 C 368.638 273.018, 368.270 273.786, 366.613 275.090 C 363.700 277.381, 362.261 277.595, 364.020 275.476 C 366.001 273.089, 364.574 272.761, 361.778 274.960 C 360.294 276.127, 358.789 278.782, 358.132 281.389 C 357.517 283.831, 355.998 287.109, 354.757 288.673 C 351.743 292.470, 350.065 295.133, 349.354 297.250 C 348.681 299.256, 346.984 299.621, 347.032 297.750 C 347.049 297.063, 347.724 295.626, 348.532 294.559 C 350.234 292.309, 350.413 291, 349.020 291 C 347.903 291, 343.979 298.258, 344.041 300.210 C 344.081 301.472, 358.526 309.195, 360.500 309.009 C 362.282 308.841, 369.182 299.026, 371.140 293.873 C 372.188 291.115, 373.326 286.177, 373.668 282.899 C 374.225 277.571, 374.045 276.677, 371.971 274.469 C 370.695 273.111, 368.942 272.036, 368.076 272.079 C 367.013 272.132, 366.914 272.324, 367.770 272.669 M 490 272.500 C 490 272.775, 490.225 273, 490.500 273 C 490.775 273, 491 272.775, 491 272.500 C 491 272.225, 490.775 272, 490.500 272 C 490.225 272, 490 272.225, 490 272.500 M 555 273.500 C 555 273.775, 555.225 274, 555.500 274 C 555.775 274, 556 273.775, 556 273.500 C 556 273.225, 555.775 273, 555.500 273 C 555.225 273, 555 273.225, 555 273.500 M 489 275 C 489 275.733, 489.300 276.033, 489.667 275.667 C 490.033 275.300, 490.033 274.700, 489.667 274.333 C 489.300 273.967, 489 274.267, 489 275 M 545.500 275 C 546.600 275.473, 548.175 275.859, 549 275.859 C 549.945 275.859, 549.761 275.542, 548.500 275 C 547.400 274.527, 545.825 274.141, 545 274.141 C 544.055 274.141, 544.239 274.458, 545.500 275 M 557.333 274.667 C 557.700 275.033, 558.300 275.033, 558.667 274.667 C 559.033 274.300, 558.733 274, 558 274 C 557.267 274, 556.967 274.300, 557.333 274.667 M 560 275.500 C 560 275.775, 560.225 276, 560.500 276 C 560.775 276, 561 275.775, 561 275.500 C 561 275.225, 560.775 275, 560.500 275 C 560.225 275, 560 275.225, 560 275.500 M 488 278 C 488 278.733, 488.300 279.033, 488.667 278.667 C 489.033 278.300, 489.033 277.700, 488.667 277.333 C 488.300 276.967, 488 277.267, 488 278 M 465 282 C 465 282.733, 465.300 283.033, 465.667 282.667 C 466.033 282.300, 466.033 281.700, 465.667 281.333 C 465.300 280.967, 465 281.267, 465 282 M 568.229 282.187 C 568.727 283.682, 571 284.505, 571 283.190 C 571 282.653, 570.287 281.941, 569.416 281.606 C 568.443 281.233, 567.985 281.456, 568.229 282.187 M 353.471 284.750 L 351.712 287.500 354.356 285.076 C 357.215 282.454, 357.475 282, 356.115 282 C 355.628 282, 354.438 283.238, 353.471 284.750 M 460.079 285.583 C 460.127 286.748, 460.364 286.985, 460.683 286.188 C 460.972 285.466, 460.936 284.603, 460.604 284.271 C 460.272 283.939, 460.036 284.529, 460.079 285.583 M 462.195 286.500 C 462.215 288.150, 462.439 288.704, 462.693 287.731 C 462.947 286.758, 462.930 285.408, 462.656 284.731 C 462.382 284.054, 462.175 284.850, 462.195 286.500 M 380.791 288.250 C 379.896 294.036, 384.771 312, 387.236 312 C 387.813 312, 387.716 311.363, 387.011 310.513 C 386.332 309.695, 386.003 308.436, 386.279 307.715 C 386.556 306.994, 386.161 302.832, 385.401 298.466 C 384.642 294.100, 384.070 290.071, 384.129 289.514 C 384.550 285.562, 381.392 284.366, 380.791 288.250 M 408 287.441 C 408 288.298, 408.450 289, 409 289 C 409.550 289, 410 288.577, 410 288.059 C 410 287.541, 409.550 286.840, 409 286.500 C 408.450 286.160, 408 286.584, 408 287.441 M 548.011 287.858 C 548.018 288.799, 549.823 290.353, 552.243 291.500 C 554.564 292.600, 557.343 294.372, 558.419 295.438 C 559.718 296.724, 560.508 296.976, 560.771 296.188 C 560.989 295.534, 562.142 294.977, 563.333 294.948 C 564.929 294.911, 564.512 294.487, 561.750 293.342 C 559.688 292.486, 558 291.384, 558 290.893 C 558 290.402, 557.420 290, 556.711 290 C 556.003 290, 553.753 289.149, 551.711 288.108 C 548.372 286.405, 548.001 286.380, 548.011 287.858 M 563 287.882 C 563 288.432, 563.450 289.160, 564 289.500 C 564.550 289.840, 565 289.668, 565 289.118 C 565 288.568, 564.550 287.840, 564 287.500 C 563.450 287.160, 563 287.332, 563 287.882 M 422.615 289.155 C 421.579 289.757, 418.316 290.250, 415.365 290.250 C 410.837 290.250, 410 290.535, 410 292.076 C 410 295.325, 412.143 304, 412.945 304 C 413.735 304, 413.640 302.520, 412.416 295.750 L 411.738 292 416.119 291.993 C 418.808 291.989, 421.659 291.219, 423.500 290 C 426.625 287.930, 425.907 287.244, 422.615 289.155 M 385 290.500 C 385 290.775, 385.225 291, 385.500 291 C 385.775 291, 386 290.775, 386 290.500 C 386 290.225, 385.775 290, 385.500 290 C 385.225 290, 385 290.225, 385 290.500 M 456 290.500 C 456 290.775, 456.225 291, 456.500 291 C 456.775 291, 457 290.775, 457 290.500 C 457 290.225, 456.775 290, 456.500 290 C 456.225 290, 456 290.225, 456 290.500 M 566 291 C 566 291.733, 566.300 292.033, 566.667 291.667 C 567.033 291.300, 567.033 290.700, 566.667 290.333 C 566.300 289.967, 566 290.267, 566 291 M 571 290.941 C 571 291.459, 571.450 292.160, 572 292.500 C 572.550 292.840, 573 292.416, 573 291.559 C 573 290.702, 572.550 290, 572 290 C 571.450 290, 571 290.423, 571 290.941 M 600.750 291.706 C 601.987 291.944, 604.013 291.944, 605.250 291.706 C 606.487 291.467, 605.475 291.272, 603 291.272 C 600.525 291.272, 599.513 291.467, 600.750 291.706 M 563 292.500 C 563 292.775, 563.225 293, 563.500 293 C 563.775 293, 564 292.775, 564 292.500 C 564 292.225, 563.775 292, 563.500 292 C 563.225 292, 563 292.225, 563 292.500 M 459.462 300.565 C 459.621 305.042, 460.246 308.614, 460.994 309.315 C 462.007 310.265, 462.135 309.408, 461.638 305 C 461.296 301.975, 461.013 298.038, 461.009 296.250 C 461.004 294.462, 460.594 293, 460.097 293 C 459.600 293, 459.315 296.404, 459.462 300.565 M 579.131 294.342 C 578.519 295.080, 578.310 295.976, 578.667 296.333 C 579.417 297.084, 582 295.181, 582 293.878 C 582 292.561, 580.393 292.821, 579.131 294.342 M 572.333 294.667 C 572.700 295.033, 573.300 295.033, 573.667 294.667 C 574.033 294.300, 573.733 294, 573 294 C 572.267 294, 571.967 294.300, 572.333 294.667 M 566.554 296.088 C 566.864 296.590, 567.841 297, 568.726 297 C 570.621 297, 569.608 295.706, 567.466 295.392 C 566.655 295.273, 566.244 295.586, 566.554 296.088 M 427.755 298.500 C 428.151 300.570, 427.845 301, 425.973 301 C 424.615 301, 422.454 302.456, 420.561 304.645 C 417.795 307.845, 417.149 308.150, 415.271 307.145 C 414.094 306.515, 411.302 306, 409.066 306 C 405.781 306, 405 305.646, 405 304.155 C 405 301.613, 401.814 298.879, 400.092 299.943 C 399.022 300.604, 399.188 301.030, 400.865 301.928 C 404.926 304.101, 403.121 307.479, 396.250 310.567 C 394.462 311.370, 393 312.455, 393 312.978 C 393 314.457, 396.478 315.967, 401.460 316.650 C 405.069 317.144, 406 316.971, 406 315.803 C 406 314.728, 404.791 314.333, 401.500 314.333 C 399.025 314.333, 396.676 314.009, 396.279 313.612 C 395.102 312.435, 397.675 311.417, 401.507 311.544 C 403.967 311.626, 404.937 311.278, 404.611 310.430 C 404.022 308.894, 410.721 308.127, 416.750 309.040 C 420.108 309.548, 421 309.376, 421 308.219 C 421 307.012, 421.271 306.980, 422.546 308.038 C 423.396 308.743, 423.877 309.878, 423.616 310.559 C 423.040 312.059, 428.909 312.948, 431.952 311.822 C 434.518 310.873, 436.501 306.733, 435.550 304.314 C 434.952 302.791, 434.525 303.102, 432.895 306.250 C 430.792 310.310, 428.492 311.017, 426.392 308.250 C 424.451 305.693, 424.713 303.308, 427 302.710 C 428.456 302.329, 429 301.346, 429 299.094 C 429 297.392, 428.612 296, 428.139 296 C 427.665 296, 427.492 297.125, 427.755 298.500 M 595.700 298.659 C 596.301 300.226, 599.131 300.113, 599.666 298.500 C 599.849 297.950, 598.907 297.437, 597.573 297.360 C 595.842 297.261, 595.306 297.633, 595.700 298.659 M 603.500 298 C 603.840 298.550, 604.541 299, 605.059 299 C 605.577 299, 606 298.550, 606 298 C 606 297.450, 605.298 297, 604.441 297 C 603.584 297, 603.160 297.450, 603.500 298 M 614 297.893 C 614 299.002, 617.076 300.257, 617.864 299.469 C 618.182 299.151, 617.780 298.473, 616.971 297.961 C 615.101 296.778, 614 296.753, 614 297.893 M 483 300.382 C 483 301.757, 483.450 303.160, 484 303.500 C 484.565 303.849, 485 303.030, 485 301.618 C 485 300.243, 484.550 298.840, 484 298.500 C 483.435 298.151, 483 298.970, 483 300.382 M 343.813 304.683 C 344.534 304.972, 345.397 304.936, 345.729 304.604 C 346.061 304.272, 345.471 304.036, 344.417 304.079 C 343.252 304.127, 343.015 304.364, 343.813 304.683 M 630 304.395 C 630 304.612, 631.800 304.962, 634 305.171 C 636.200 305.381, 638 305.203, 638 304.776 C 638 304.349, 636.200 304, 634 304 C 631.800 304, 630 304.178, 630 304.395 M 640 304.383 C 640 305.232, 645.085 305.671, 645.583 304.866 C 645.877 304.390, 644.741 304, 643.059 304 C 641.377 304, 640 304.173, 640 304.383 M 649 304.879 C 649 306.193, 654.738 308.315, 656.482 307.645 C 659.253 306.582, 658.100 305.030, 655 305.650 C 653.089 306.032, 652 305.842, 652 305.125 C 652 304.506, 651.325 304, 650.500 304 C 649.675 304, 649 304.395, 649 304.879 M 339.929 307.013 C 336.866 307.731, 334.410 312.737, 333.688 319.734 C 333.011 326.298, 335.426 335.233, 340.432 344.683 C 344.267 351.924, 348.800 358.237, 347.480 354.500 C 345.662 349.356, 346.145 348.945, 348.654 353.500 C 350.169 356.250, 351.429 358.797, 351.454 359.159 C 351.530 360.252, 357 364.222, 357 363.185 C 357 362.657, 355.695 359.362, 354.101 355.862 C 351.568 350.303, 351.132 347.953, 350.650 337.250 C 350.187 326.959, 350.331 325, 351.549 325 C 352.347 325, 353.056 325.450, 353.125 326 C 353.286 327.288, 353.697 328.930, 353.939 329.250 C 354.043 329.387, 354.295 331.975, 354.500 335 C 354.835 339.954, 355.394 343.090, 357.602 352.399 C 358.120 354.582, 357.982 355.107, 357.041 354.526 C 356.354 354.101, 356.606 354.996, 357.601 356.513 C 358.595 358.031, 359.576 358.773, 359.779 358.162 C 359.983 357.550, 359.665 351.373, 359.072 344.434 C 358.479 337.496, 358.267 331.376, 358.602 330.835 C 358.936 330.295, 358.325 328.873, 357.243 327.676 C 354.306 324.427, 353.716 321, 356.094 321 C 357.142 321, 358 321.513, 358 322.140 C 358 323.338, 360.913 325.914, 362.329 325.968 C 364.220 326.041, 359.034 311.627, 356.500 309.765 C 354.935 308.615, 353.805 308.875, 354.622 310.197 C 355.028 310.855, 354.042 310.462, 352.431 309.324 C 349.279 307.098, 343.848 306.094, 339.929 307.013 M 376 306.500 C 376 306.775, 376.225 307, 376.500 307 C 376.775 307, 377 306.775, 377 306.500 C 377 306.225, 376.775 306, 376.500 306 C 376.225 306, 376 306.225, 376 306.500 M 377.070 309.691 C 377.032 310.896, 377.450 312.160, 378 312.500 C 379.183 313.231, 379.183 312.252, 378 309.500 C 377.171 307.572, 377.138 307.579, 377.070 309.691 M 487.032 309.379 C 486.991 311.770, 495.758 328.471, 498.226 330.704 C 499.984 332.295, 500.047 332.281, 499.380 330.444 C 498.992 329.375, 497.912 327.375, 496.979 326 C 496.047 324.625, 494.720 322.375, 494.032 321 C 493.077 319.093, 493.508 319.330, 495.850 322 C 499.246 325.873, 500.187 324.778, 496.973 320.693 C 495.859 319.276, 494.278 316.516, 493.460 314.558 C 492.642 312.601, 491.466 311, 490.847 311 C 490.227 311, 489.123 310.212, 488.392 309.250 C 487.138 307.598, 487.062 307.605, 487.032 309.379 M 338.200 311.200 C 337.540 311.860, 337.061 313.547, 337.136 314.950 C 337.270 317.458, 337.280 317.461, 337.721 315.134 C 337.968 313.833, 339.031 312.543, 340.085 312.268 C 341.138 311.992, 342 311.369, 342 310.883 C 342 309.601, 339.599 309.801, 338.200 311.200 M 375.606 321.488 C 375.901 326.432, 376.336 330.669, 376.571 330.905 C 377.862 332.195, 377.851 329.389, 376.538 321.414 L 375.069 312.500 375.606 321.488 M 379.079 315.583 C 379.127 316.748, 379.364 316.985, 379.683 316.188 C 379.972 315.466, 379.936 314.603, 379.604 314.271 C 379.272 313.939, 379.036 314.529, 379.079 315.583 M 484.500 315 C 484.160 315.550, 482.671 316.007, 481.191 316.015 C 479.711 316.024, 477.838 316.450, 477.028 316.962 C 474.511 318.553, 478.666 319.438, 482.758 318.182 C 485.797 317.249, 486.537 317.342, 487.638 318.791 C 488.836 320.368, 488.939 320.342, 488.968 318.450 C 489.019 315.181, 485.884 312.761, 484.500 315 M 380 319 C 380 319.733, 380.300 320.033, 380.667 319.667 C 381.033 319.300, 381.033 318.700, 380.667 318.333 C 380.300 317.967, 380 318.267, 380 319 M 460 318.500 C 460 318.775, 460.225 319, 460.500 319 C 460.775 319, 461 318.775, 461 318.500 C 461 318.225, 460.775 318, 460.500 318 C 460.225 318, 460 318.225, 460 318.500 M 336.405 320.155 C 335.962 320.870, 336.130 321.038, 336.845 320.595 C 337.480 320.203, 338 319.684, 338 319.441 C 338 318.607, 337.117 319.002, 336.405 320.155 M 378.271 323.050 C 378.192 324.101, 378.549 325.221, 379.064 325.539 C 379.579 325.858, 380 325.218, 380 324.118 C 380 321.511, 378.459 320.558, 378.271 323.050 M 336.306 327.673 C 336.745 331.929, 337.529 333.984, 339.446 335.900 L 342 338.455 342 336.168 C 342 334.911, 341.573 334.146, 341.050 334.469 C 339.516 335.417, 338 331.489, 338 326.566 C 338 323.815, 337.547 322, 336.860 322 C 336.072 322, 335.901 323.751, 336.306 327.673 M 620.200 327.500 C 620.200 331.555, 620.947 331.847, 623.595 328.828 C 624.643 327.634, 624.989 326.954, 624.364 327.317 C 623.717 327.693, 623.003 327.121, 622.707 325.989 C 621.856 322.733, 620.200 323.731, 620.200 327.500 M 381 326.500 C 381 326.775, 381.225 327, 381.500 327 C 381.775 327, 382 326.775, 382 326.500 C 382 326.225, 381.775 326, 381.500 326 C 381.225 326, 381 326.225, 381 326.500 M 378.923 329.750 C 378.881 330.712, 378.709 332.200, 378.541 333.056 C 378.372 333.911, 379.563 336.161, 381.188 338.056 C 382.813 339.950, 383.912 340.825, 383.631 340 C 383.350 339.175, 382.386 336.137, 381.489 333.250 C 379.791 327.784, 379.053 326.778, 378.923 329.750 M 555 331 C 555 331.733, 555.300 332.033, 555.667 331.667 C 556.033 331.300, 556.033 330.700, 555.667 330.333 C 555.300 329.967, 555 330.267, 555 331 M 457.599 334 C 457.958 335.925, 458.532 337.725, 458.876 338 C 459.219 338.275, 459.500 339.137, 459.500 339.917 C 459.500 340.696, 460.063 341.521, 460.750 341.750 C 462.648 342.383, 462.179 339.988, 459.428 335 L 456.946 330.500 457.599 334 M 549.250 332.584 C 547.462 333.366, 546 334.152, 546 334.330 C 546 335.252, 552.100 333.584, 553.090 332.391 C 554.509 330.681, 553.484 330.733, 549.250 332.584 M 444.333 334.667 C 444.700 335.033, 445.300 335.033, 445.667 334.667 C 446.033 334.300, 445.733 334, 445 334 C 444.267 334, 443.967 334.300, 444.333 334.667 M 600 337.124 C 596.425 338.173, 587.763 340.261, 580.750 341.764 C 573.737 343.268, 568 344.778, 568 345.120 C 568 345.462, 570.138 345.339, 572.750 344.848 C 575.362 344.356, 578.850 343.726, 580.500 343.447 C 582.150 343.168, 586.200 342.482, 589.500 341.923 C 592.800 341.363, 597.750 340.158, 600.500 339.246 C 603.250 338.333, 605.725 337.637, 606 337.698 C 606.275 337.759, 607.080 337.177, 607.789 336.404 C 609.485 334.557, 608.409 334.657, 600 337.124 M 397.505 337.008 C 397.848 337.562, 399.279 337.807, 400.687 337.552 C 404.727 336.819, 404.685 336, 400.608 336 C 398.359 336, 397.129 336.400, 397.505 337.008 M 441 338 C 441 338.550, 440.282 339, 439.405 339 C 438.528 339, 434.816 339.843, 431.155 340.873 C 420.360 343.910, 415.558 344.892, 415.012 344.175 C 414.731 343.804, 409.483 343.640, 403.351 343.811 C 393.298 344.091, 392.152 344.312, 391.694 346.062 C 391.403 347.176, 391.602 347.746, 392.161 347.401 C 392.696 347.070, 393.382 347.744, 393.684 348.899 C 393.986 350.055, 394.589 351, 395.023 351 C 395.457 351, 395.577 350.100, 395.290 349 C 394.899 347.505, 395.259 347, 396.717 347 C 397.789 347, 398.991 347.324, 399.386 347.720 C 400.913 349.246, 408.942 348.943, 419.339 346.966 C 425.301 345.833, 430.926 344.517, 431.839 344.041 C 432.753 343.566, 435.750 342.521, 438.500 341.720 C 441.519 340.840, 443.628 339.617, 443.823 338.632 C 444.012 337.677, 443.494 337, 442.573 337 C 441.708 337, 441 337.450, 441 338 M 499 339.924 C 499 340.398, 499.675 341.045, 500.500 341.362 C 501.325 341.678, 502 341.549, 502 341.076 C 502 340.602, 501.325 339.955, 500.500 339.638 C 499.675 339.322, 499 339.451, 499 339.924 M 463.166 346.250 C 463.846 347.488, 464.550 349.390, 464.730 350.479 C 465.202 353.333, 466.513 354.292, 467.808 352.732 C 468.668 351.695, 468.317 350.517, 466.306 347.689 C 463.443 343.666, 461.175 342.626, 463.166 346.250 M 469 345 C 469 345.733, 469.300 346.033, 469.667 345.667 C 470.033 345.300, 470.033 344.700, 469.667 344.333 C 469.300 343.967, 469 344.267, 469 345 M 470.022 347.750 C 470.034 348.163, 470.864 349.565, 471.865 350.867 C 473.192 352.592, 474.257 353.053, 475.792 352.566 C 477.096 352.152, 477.686 351.346, 477.342 350.449 C 477.036 349.652, 477.284 349, 477.893 349 C 478.502 349, 479 349.708, 479 350.573 C 479 351.505, 479.680 352.015, 480.667 351.823 C 483.612 351.252, 483.126 349.447, 479.694 348.206 C 475.990 346.867, 469.988 346.584, 470.022 347.750 M 472.229 349.188 C 472.847 351.042, 475 351.349, 475 349.583 C 475 348.712, 474.288 348, 473.417 348 C 472.546 348, 472.011 348.534, 472.229 349.188 M 513 352 C 513 352.550, 513.413 353, 513.918 353 C 514.423 353, 515.661 353.309, 516.668 353.687 C 518.281 354.292, 518.336 354.172, 517.128 352.687 C 515.627 350.843, 513 350.405, 513 352 M 356 352.500 C 356 352.775, 356.225 353, 356.500 353 C 356.775 353, 357 352.775, 357 352.500 C 357 352.225, 356.775 352, 356.500 352 C 356.225 352, 356 352.225, 356 352.500 M 396 353 C 396 353.733, 396.300 354.033, 396.667 353.667 C 397.033 353.300, 397.033 352.700, 396.667 352.333 C 396.300 351.967, 396 352.267, 396 353 M 476.500 355 C 475.239 355.542, 475.055 355.859, 476 355.859 C 476.825 355.859, 478.400 355.473, 479.500 355 C 480.761 354.458, 480.945 354.141, 480 354.141 C 479.175 354.141, 477.600 354.527, 476.500 355 M 569 355.500 C 569 355.775, 569.225 356, 569.500 356 C 569.775 356, 570 355.775, 570 355.500 C 570 355.225, 569.775 355, 569.500 355 C 569.225 355, 569 355.225, 569 355.500 M 538.286 356.619 C 539.056 357.389, 566.999 357.335, 567.771 356.562 C 568.080 356.253, 561.433 356, 553 356 C 544.567 356, 537.945 356.279, 538.286 356.619 M 478.566 357.893 C 477.906 358.961, 482.672 360.321, 484.062 359.461 C 484.596 359.132, 484.774 358.443, 484.457 357.931 C 483.723 356.743, 479.294 356.715, 478.566 357.893 M 473 360.706 C 473 362.326, 473.466 362.691, 475.016 362.286 C 476.124 361.996, 477.323 361.286, 477.680 360.709 C 478.071 360.076, 477.717 359.895, 476.786 360.252 C 475.938 360.577, 474.739 360.339, 474.122 359.722 C 473.293 358.893, 473 359.150, 473 360.706 M 455.244 363.664 C 454.553 363.943, 454.179 364.481, 454.413 364.859 C 454.647 365.238, 452.963 365.569, 450.669 365.594 C 448.376 365.620, 443.125 366.145, 439 366.761 C 434.010 367.507, 429.087 367.578, 424.288 366.973 C 418.835 366.286, 416.305 366.389, 413.912 367.395 C 412.171 368.127, 411.147 368.973, 411.637 369.276 C 412.126 369.578, 417.921 369.641, 424.513 369.416 C 431.106 369.191, 440.611 368.878, 445.636 368.720 C 451.840 368.526, 455.339 367.963, 456.540 366.967 C 457.512 366.160, 458.463 365.613, 458.654 365.750 C 459.727 366.525, 464 365.823, 464 364.872 C 464 364.111, 462.617 363.953, 459.750 364.386 C 456.765 364.837, 455.947 364.731, 457 364.030 C 458.549 362.998, 457.459 362.771, 455.244 363.664 M 394.402 366.371 C 390.484 367.802, 387.855 369.957, 388.585 371.138 C 388.895 371.639, 388.573 371.926, 387.870 371.775 C 387.166 371.624, 386.559 371.950, 386.519 372.500 C 386.480 373.050, 385.611 374.752, 384.589 376.281 C 383.566 377.811, 383.015 379.348, 383.365 379.698 C 383.714 380.047, 384.138 380.146, 384.307 379.917 C 388.397 374.368, 391.317 371.078, 391.856 371.411 C 392.839 372.019, 400.085 366.419, 399.314 365.647 C 398.550 364.884, 398.419 364.903, 394.402 366.371 M 477.035 366.934 C 476.466 367.998, 476 369.600, 476 370.493 C 476 371.391, 475.522 371.823, 474.932 371.458 C 474.344 371.095, 474.105 370.168, 474.400 369.399 C 475.216 367.275, 473.216 367.727, 472.035 369.934 C 470.572 372.668, 470.444 372.495, 476.485 375.905 C 483.031 379.599, 484.037 379.682, 486.677 376.750 C 490.256 372.774, 490.159 372.302, 484.998 368.594 C 479.238 364.456, 478.450 364.291, 477.035 366.934 M 444.333 367.667 C 444.700 368.033, 445.300 368.033, 445.667 367.667 C 446.033 367.300, 445.733 367, 445 367 C 444.267 367, 443.967 367.300, 444.333 367.667 M 391 368.500 C 391 368.775, 391.225 369, 391.500 369 C 391.775 369, 392 368.775, 392 368.500 C 392 368.225, 391.775 368, 391.500 368 C 391.225 368, 391 368.225, 391 368.500 M 463.524 371.619 C 462.633 372.510, 462.164 373.497, 462.480 373.813 C 462.797 374.130, 464.043 373.401, 465.250 372.194 C 466.457 370.988, 466.927 370, 466.294 370 C 465.661 370, 464.414 370.729, 463.524 371.619 M 392.097 374.383 C 391.222 375.438, 391.263 375.887, 392.270 376.273 C 393.055 376.575, 393.649 376.014, 393.733 374.890 C 393.903 372.636, 393.620 372.548, 392.097 374.383 M 396.500 374 C 396.160 374.550, 396.332 375, 396.882 375 C 397.432 375, 398.160 374.550, 398.500 374 C 398.840 373.450, 398.668 373, 398.118 373 C 397.568 373, 396.840 373.450, 396.500 374 M 492.050 375.369 C 491.555 376.671, 490.002 378.639, 488.601 379.742 L 486.052 381.747 489.776 382.362 C 495.528 383.313, 495.839 383.212, 497.598 379.810 C 499.191 376.730, 499.171 376.556, 497.013 374.810 C 494.063 372.421, 493.131 372.526, 492.050 375.369 M 386.803 379.533 C 386.039 381.209, 384.979 381.970, 383.667 381.783 C 382.578 381.627, 381.494 382.063, 381.260 382.750 C 381.025 383.438, 381.405 384, 382.105 384 C 384.041 384, 389.985 379.667, 389.993 378.250 C 390.005 376.087, 388.007 376.891, 386.803 379.533 M 475 378.393 C 475 378.609, 475.698 379.054, 476.552 379.382 C 477.442 379.723, 477.843 379.555, 477.493 378.989 C 476.906 378.038, 475 377.583, 475 378.393 M 501.669 380.157 C 500.849 383.294, 503.445 387, 506.464 387 C 510.297 387, 510.201 385.602, 506.094 381.592 C 502.350 377.936, 502.258 377.906, 501.669 380.157 M 403.339 382.551 C 400.524 384.438, 397.960 386.661, 397.642 387.491 C 396.835 389.595, 398.722 389.388, 399.868 387.247 C 400.384 386.283, 402.875 384.883, 405.403 384.137 C 410.127 382.742, 410.513 382.355, 409.213 380.311 C 408.676 379.466, 406.974 380.115, 403.339 382.551 M 411.507 384.989 C 411.157 385.555, 411.558 385.723, 412.448 385.382 C 414.180 384.717, 414.497 384, 413.059 384 C 412.541 384, 411.843 384.445, 411.507 384.989 M 435.554 384.912 C 435.086 385.670, 435.423 386.852, 436.382 387.810 C 438.097 389.526, 438.347 388.746, 437.102 385.566 C 436.538 384.125, 436.144 383.958, 435.554 384.912 M 482 386.031 C 482 386.564, 482.675 387, 483.500 387 C 484.325 387, 485 386.823, 485 386.607 C 485 386.391, 484.325 385.955, 483.500 385.638 C 482.675 385.322, 482 385.499, 482 386.031 M 406 387 C 406 387.733, 406.300 388.033, 406.667 387.667 C 407.033 387.300, 407.033 386.700, 406.667 386.333 C 406.300 385.967, 406 386.267, 406 387 M 464.018 387.478 C 463.374 388.255, 462.994 389.927, 463.173 391.195 C 463.446 393.120, 464.243 393.583, 468 394 C 471.261 394.362, 471.995 394.707, 470.668 395.250 C 469.661 395.663, 467.796 396, 466.525 396 C 464.381 396, 462.285 398.619, 463.476 399.810 C 463.764 400.098, 464 400.008, 464 399.610 C 464 399.212, 465 399.587, 466.223 400.443 C 467.445 401.299, 470.156 402, 472.247 402 L 476.048 402 475.774 396.750 C 475.553 392.511, 475.161 391.498, 473.738 391.490 C 472.768 391.485, 470.449 390.262, 468.583 388.773 C 465.724 386.492, 465.006 386.288, 464.018 387.478 M 480 386.500 C 480 386.775, 480.225 387, 480.500 387 C 480.775 387, 481 386.775, 481 386.500 C 481 386.225, 480.775 386, 480.500 386 C 480.225 386, 480 386.225, 480 386.500 M 510.500 388 C 510.160 388.550, 510.359 389, 510.941 389 C 511.523 389, 512 388.550, 512 388 C 512 387.450, 511.802 387, 511.559 387 C 511.316 387, 510.840 387.450, 510.500 388 M 401.405 389.155 C 400.962 389.870, 401.130 390.038, 401.845 389.595 C 402.998 388.883, 403.393 388, 402.559 388 C 402.316 388, 401.797 388.520, 401.405 389.155 M 483.070 393.416 C 481.711 395.054, 482.698 395.491, 490.108 396.535 C 493.853 397.063, 494.833 396.877, 495.346 395.540 C 495.716 394.578, 495.567 394.149, 494.989 394.507 C 494.445 394.843, 494 394.650, 494 394.078 C 494 392.429, 489.146 391.634, 487.487 393.011 C 486.454 393.868, 486 393.902, 486 393.122 C 486 391.566, 484.478 391.719, 483.070 393.416 M 444 394.951 C 446.498 395.800, 452.704 396.331, 451.917 395.628 C 451.688 395.424, 449.250 394.996, 446.500 394.679 C 443.128 394.289, 442.314 394.378, 444 394.951 M 429 395.500 C 429 395.775, 429.225 396, 429.500 396 C 429.775 396, 430 395.775, 430 395.500 C 430 395.225, 429.775 395, 429.500 395 C 429.225 395, 429 395.225, 429 395.500 M 454.500 397 C 457.289 398.198, 461 398.198, 461 397 C 461 396.450, 459.087 396.032, 456.750 396.070 C 453.458 396.125, 452.951 396.334, 454.500 397 M 500.580 397.912 C 499.673 398.914, 499.231 400.439, 499.583 401.355 C 499.934 402.271, 499.723 403, 499.107 403 C 497.368 403, 497.814 405.991, 499.658 406.699 C 500.747 407.117, 502.118 406.402, 503.658 404.612 C 506.494 401.315, 506.642 398.882, 504.104 397.297 C 502.556 396.330, 501.909 396.443, 500.580 397.912 M 481 397.764 C 481 399.939, 483.845 401.926, 487.350 402.200 C 490.343 402.433, 491.515 402.036, 492.612 400.417 C 493.931 398.468, 493.844 398.333, 491.261 398.329 C 489.743 398.327, 486.813 398.006, 484.750 397.617 C 482.688 397.228, 481 397.294, 481 397.764 M 478.636 402.506 C 478.288 403.413, 478.639 404, 479.531 404 C 481.149 404, 481.517 402.437, 480.105 401.565 C 479.612 401.260, 478.952 401.684, 478.636 402.506 M 494 404 C 494 404.733, 494.300 405.033, 494.667 404.667 C 495.033 404.300, 495.033 403.700, 494.667 403.333 C 494.300 402.967, 494 403.267, 494 404 M 509.667 403.667 C 509.300 404.033, 509.014 405.046, 509.030 405.917 C 509.055 407.217, 509.251 407.174, 510.122 405.675 C 511.199 403.823, 510.887 402.447, 509.667 403.667" stroke="none" fill="#000000" fill-rule="evenodd"/>
</svg>