<svg xmlns="http://www.w3.org/2000/svg" width="180" height="193" viewBox="0 0 180 193" version="1.1">
	<path d="M 82.184 21.872 C 81.461 22.327, 80.246 23.899, 79.486 25.365 C 77.549 29.097, 77.664 47.032, 79.665 53.304 C 81.158 57.988, 81.289 58.101, 84.848 57.804 L 88.500 57.500 88.624 51.500 C 88.692 48.200, 88.379 41.241, 87.929 36.036 C 87.461 30.629, 87.491 26.113, 87.998 25.502 C 89.850 23.271, 84.888 20.173, 82.184 21.872 M 108.021 55.624 C 104.188 61.304, 103.271 65.150, 105.342 66.869 C 107.565 68.714, 112.773 65.797, 113.620 62.232 C 113.977 60.729, 114.937 58.731, 115.753 57.790 C 117.981 55.224, 116.612 51, 113.552 51 C 111.802 51, 110.286 52.268, 108.021 55.624 M 50.518 62.971 C 49.668 64.347, 52.773 69.979, 54.802 70.739 C 55.736 71.090, 56.972 72.005, 57.549 72.774 C 58.157 73.584, 59.839 74.030, 61.549 73.836 C 63.744 73.586, 64.584 72.909, 64.827 71.195 C 65.216 68.449, 63.427 66, 61.033 66 C 60.085 66, 58.495 65.100, 57.500 64 C 55.605 61.906, 51.546 61.307, 50.518 62.971 M 81.481 74.327 C 77.416 76.188, 72 82.520, 72 85.412 C 72 86.701, 71.322 88.318, 70.493 89.006 C 69.379 89.931, 69.025 92.112, 69.136 97.378 C 69.275 103.942, 69.530 104.736, 72.393 107.506 C 74.102 109.159, 78.015 111.366, 81.090 112.409 L 86.680 114.305 91.772 111.885 C 96.995 109.403, 102.990 102.848, 104.472 98 C 104.893 96.625, 105.928 94.713, 106.773 93.750 C 108.158 92.173, 108.147 91.820, 106.655 90.171 C 105.745 89.165, 105 86.856, 105 85.039 C 105 81.307, 101.833 75.538, 99.230 74.527 C 95.479 73.071, 84.496 72.947, 81.481 74.327 M 88.190 79.682 C 87.469 79.971, 85.142 82.069, 83.018 84.346 C 80.195 87.373, 79.436 88.820, 80.192 89.731 C 80.918 90.606, 80.735 92.205, 79.578 95.098 C 77.951 99.163, 77.963 99.263, 80.515 102.609 C 83.419 106.416, 83.215 106.351, 88 105.002 C 90.784 104.218, 91.873 103.145, 93.326 99.758 C 94.330 97.416, 95.340 93.060, 95.571 90.079 C 95.947 85.224, 95.704 84.365, 93.245 81.857 C 90.346 78.899, 90.250 78.858, 88.190 79.682 M 140.195 87.205 C 139.447 87.953, 135.154 88.491, 128.860 88.626 C 121.326 88.787, 118.337 89.234, 117.201 90.371 C 115.885 91.687, 115.867 92.135, 117.071 93.586 C 118.314 95.084, 120.276 95.210, 134.693 94.720 C 143.616 94.417, 151.386 93.880, 151.958 93.526 C 153.717 92.439, 153.126 88.138, 151.066 87.035 C 148.427 85.623, 141.672 85.728, 140.195 87.205 M 20 93.847 C 16.848 94.774, 16.287 98.045, 18.879 100.391 C 20.578 101.928, 22.835 102.169, 35.413 102.156 C 54.247 102.137, 55.973 101.618, 52.250 97.095 C 50.728 95.247, 49.150 94.906, 40.163 94.483 C 34.478 94.215, 28.178 93.797, 26.163 93.554 C 24.148 93.312, 21.375 93.443, 20 93.847 M 106.394 114.790 C 105.792 115.181, 105.054 117.387, 104.753 119.693 C 104.288 123.255, 104.654 124.496, 107.189 127.943 C 110.282 132.148, 111.780 132.723, 115.066 130.965 C 117.727 129.541, 117.490 127.180, 114.551 125.841 C 112.643 124.972, 112.035 123.841, 111.801 120.727 C 111.490 116.590, 108.567 113.381, 106.394 114.790 M 63.973 119.788 C 62.613 121.321, 60.473 123.286, 59.219 124.154 C 56.453 126.067, 54.704 131.304, 56.299 132.899 C 57.968 134.568, 60.489 134.222, 62.449 132.056 C 63.417 130.987, 65.161 129.974, 66.325 129.806 C 67.915 129.576, 68.787 128.273, 69.830 124.567 C 71.107 120.034, 71.073 119.527, 69.419 118.317 C 66.990 116.541, 66.810 116.589, 63.973 119.788 M 82.200 131.200 C 80.750 132.650, 80.595 140.632, 82 141.500 C 82.550 141.840, 83 143.640, 83 145.500 C 83 147.360, 82.550 149.160, 82 149.500 C 81.450 149.840, 81 152.551, 81 155.524 C 81 159.845, 81.388 161.137, 82.934 161.965 C 86.342 163.789, 87.772 163.102, 90.415 158.374 C 92.701 154.284, 92.998 152.633, 92.983 144.124 C 92.967 135.305, 92.767 134.312, 90.592 132.250 C 88.002 129.795, 84.094 129.306, 82.200 131.200" stroke="none" fill="#000000" fill-rule="evenodd"/>
</svg>