<?xml version="1.0" encoding="UTF-8" standalone="no"?>
<svg
   width="180"
   height="193"
   viewBox="0 0 180 193"
   version="1.1"
   id="svg1"
   sodipodi:docname="sun.svg"
   inkscape:version="1.4 (e7c3feb100, 2024-10-09)"
   xmlns:inkscape="http://www.inkscape.org/namespaces/inkscape"
   xmlns:sodipodi="http://sodipodi.sourceforge.net/DTD/sodipodi-0.dtd"
   xmlns="http://www.w3.org/2000/svg"
   xmlns:svg="http://www.w3.org/2000/svg">
  <defs
     id="defs1" />
  <sodipodi:namedview
     id="namedview1"
     pagecolor="#505050"
     bordercolor="#eeeeee"
     borderopacity="1"
     inkscape:showpageshadow="0"
     inkscape:pageopacity="0"
     inkscape:pagecheckerboard="0"
     inkscape:deskcolor="#505050"
     inkscape:zoom="4.5440415"
     inkscape:cx="89.897948"
     inkscape:cy="96.5"
     inkscape:window-width="1920"
     inkscape:window-height="1048"
     inkscape:window-x="0"
     inkscape:window-y="16"
     inkscape:window-maximized="1"
     inkscape:current-layer="svg1" />
  <path
     d="M 82.184 21.872 C 81.461 22.327, 80.246 23.899, 79.486 25.365 C 77.549 29.097, 77.664 47.032, 79.665 53.304 C 81.158 57.988, 81.289 58.101, 84.848 57.804 L 88.500 57.500 88.624 51.500 C 88.692 48.200, 88.379 41.241, 87.929 36.036 C 87.461 30.629, 87.491 26.113, 87.998 25.502 C 89.850 23.271, 84.888 20.173, 82.184 21.872 M 108.021 55.624 C 104.188 61.304, 103.271 65.150, 105.342 66.869 C 107.565 68.714, 112.773 65.797, 113.620 62.232 C 113.977 60.729, 114.937 58.731, 115.753 57.790 C 117.981 55.224, 116.612 51, 113.552 51 C 111.802 51, 110.286 52.268, 108.021 55.624 M 50.518 62.971 C 49.668 64.347, 52.773 69.979, 54.802 70.739 C 55.736 71.090, 56.972 72.005, 57.549 72.774 C 58.157 73.584, 59.839 74.030, 61.549 73.836 C 63.744 73.586, 64.584 72.909, 64.827 71.195 C 65.216 68.449, 63.427 66, 61.033 66 C 60.085 66, 58.495 65.100, 57.500 64 C 55.605 61.906, 51.546 61.307, 50.518 62.971 M 81.481 74.327 C 77.416 76.188, 72 82.520, 72 85.412 C 72 86.701, 71.322 88.318, 70.493 89.006 C 69.379 89.931, 69.025 92.112, 69.136 97.378 C 69.275 103.942, 69.530 104.736, 72.393 107.506 C 74.102 109.159, 78.015 111.366, 81.090 112.409 L 86.680 114.305 91.772 111.885 C 96.995 109.403, 102.990 102.848, 104.472 98 C 104.893 96.625, 105.928 94.713, 106.773 93.750 C 108.158 92.173, 108.147 91.820, 106.655 90.171 C 105.745 89.165, 105 86.856, 105 85.039 C 105 81.307, 101.833 75.538, 99.230 74.527 C 95.479 73.071, 84.496 72.947, 81.481 74.327 M 88.190 79.682 C 87.469 79.971, 85.142 82.069, 83.018 84.346 C 80.195 87.373, 79.436 88.820, 80.192 89.731 C 80.918 90.606, 80.735 92.205, 79.578 95.098 C 77.951 99.163, 77.963 99.263, 80.515 102.609 C 83.419 106.416, 83.215 106.351, 88 105.002 C 90.784 104.218, 91.873 103.145, 93.326 99.758 C 94.330 97.416, 95.340 93.060, 95.571 90.079 C 95.947 85.224, 95.704 84.365, 93.245 81.857 C 90.346 78.899, 90.250 78.858, 88.190 79.682 M 140.195 87.205 C 139.447 87.953, 135.154 88.491, 128.860 88.626 C 121.326 88.787, 118.337 89.234, 117.201 90.371 C 115.885 91.687, 115.867 92.135, 117.071 93.586 C 118.314 95.084, 120.276 95.210, 134.693 94.720 C 143.616 94.417, 151.386 93.880, 151.958 93.526 C 153.717 92.439, 153.126 88.138, 151.066 87.035 C 148.427 85.623, 141.672 85.728, 140.195 87.205 M 20 93.847 C 16.848 94.774, 16.287 98.045, 18.879 100.391 C 20.578 101.928, 22.835 102.169, 35.413 102.156 C 54.247 102.137, 55.973 101.618, 52.250 97.095 C 50.728 95.247, 49.150 94.906, 40.163 94.483 C 34.478 94.215, 28.178 93.797, 26.163 93.554 C 24.148 93.312, 21.375 93.443, 20 93.847 M 106.394 114.790 C 105.792 115.181, 105.054 117.387, 104.753 119.693 C 104.288 123.255, 104.654 124.496, 107.189 127.943 C 110.282 132.148, 111.780 132.723, 115.066 130.965 C 117.727 129.541, 117.490 127.180, 114.551 125.841 C 112.643 124.972, 112.035 123.841, 111.801 120.727 C 111.490 116.590, 108.567 113.381, 106.394 114.790 M 63.973 119.788 C 62.613 121.321, 60.473 123.286, 59.219 124.154 C 56.453 126.067, 54.704 131.304, 56.299 132.899 C 57.968 134.568, 60.489 134.222, 62.449 132.056 C 63.417 130.987, 65.161 129.974, 66.325 129.806 C 67.915 129.576, 68.787 128.273, 69.830 124.567 C 71.107 120.034, 71.073 119.527, 69.419 118.317 C 66.990 116.541, 66.810 116.589, 63.973 119.788 M 82.200 131.200 C 80.750 132.650, 80.595 140.632, 82 141.500 C 82.550 141.840, 83 143.640, 83 145.500 C 83 147.360, 82.550 149.160, 82 149.500 C 81.450 149.840, 81 152.551, 81 155.524 C 81 159.845, 81.388 161.137, 82.934 161.965 C 86.342 163.789, 87.772 163.102, 90.415 158.374 C 92.701 154.284, 92.998 152.633, 92.983 144.124 C 92.967 135.305, 92.767 134.312, 90.592 132.250 C 88.002 129.795, 84.094 129.306, 82.200 131.200"
     stroke="none"
     fill="#000000"
     fill-rule="evenodd"
     id="path1" />
  <path
     style="fill:#000000"
     d="m 82.745724,87.587229 c 0.872618,-1.471919 2.396464,-2.184492 3.741163,-3.080958 0.351327,-0.234218 0.390682,-0.61075 0.660205,-0.880273 0.05187,-0.05187 0.168198,0.05187 0.220069,0 0.146712,-0.146713 -0.146713,-0.733562 0,-0.880274 0.880273,-0.880274 -0.366781,0.95363 0.220068,-0.220068 0.0063,-0.01269 1.288477,-1.508546 1.320411,-1.540479 0.456938,-0.456938 0.440137,-0.06433 0.440137,-0.660206 0.440137,0.733562 0.961918,1.42395 1.32041,2.200685 0.293298,0.63548 0,3.261145 0,4.1813 0,0.331941 -0.167934,1.100342 0.220068,1.100342"
     id="path2" />
  <path
     style="fill:#000000"
     d="m 91.768529,89.787913 c 0.50738,1.489525 0.440137,2.889341 0.440137,4.401369"
     id="path3" />
  <path
     style="fill:#000000"
     d="m 87.807298,86.04675 0.880273,-3.301026"
     id="path4" />
  <path
     style="fill:#000000"
     id="path5"
     d="m 89.299631,89.503279 c 0.856019,-1.159597 2.132868,-1.884207 3.411002,-2.489811 0.890935,-0.370838 1.837987,-0.645603 2.809756,-0.629317 0.502294,0.04965 1.007407,0.06382 1.511695,0.07894 0.372727,0.02503 0.74644,0.02215 1.119577,0.03571 0.371457,-0.01143 0.742675,-0.02568 1.114501,-0.01645 0.439017,-0.0029 0.878058,-0.0087 1.317218,-0.0089 0.38656,0.0068 0.77401,0.02028 1.16053,0.0099 0.45675,-0.01322 0.9129,-0.01326 1.3697,-0.0066 0.0374,0.01553 0.55828,-0.02327 0.56784,0.01706 0.0255,0.107607 0.0147,0.377136 -0.081,0.321739 -12.963251,-7.502509 -16.468727,-4.583859 -12.486831,-7.80856 0.175688,0.471383 -0.868504,1.262619 -1.156808,1.518515 -1.063687,0.813419 -2.275283,1.379768 -3.518657,1.855304 -1.306907,0.565437 -2.59438,1.093794 -3.989472,1.395556 -0.675891,0.12601 -1.366174,0.186441 -2.051494,0.116143 -0.371945,0.118309 -0.636972,0.42472 -0.971558,0.607508 -0.09871,0.05392 -0.416781,0.1605 -0.518484,0.196177 -0.64436,0.06064 -1.178431,0.34728 -1.750916,0.631635 -0.535631,0.273938 -1.123714,0.335715 -1.715371,0.337386 -0.127667,0.05939 -0.273513,-0.05536 -0.401932,-0.01676 -0.378475,0.113753 -0.624919,0.623251 -0.791782,0.94302 -0.344515,0.805756 0.02924,1.562871 0.285883,2.337132 0.245209,0.700943 0.347967,1.433237 0.409951,2.168889 0.06637,0.553047 0.08101,1.108091 0.09241,1.664309 -7.9e-5,0.523442 -0.01425,1.047138 -0.05765,1.568826 -1.116606,5.666824 5.522851,4.341684 12.984537,8.33736 0.105161,0.0563 0.22454,-0.0835 0.341494,-0.10701 0.131897,-0.0265 0.267588,-0.0281 0.401382,-0.0422 1.0226,-0.11092 1.970589,-0.47098 2.871734,-0.94957 0.647101,-0.36047 1.218066,-0.81905 1.916172,-1.07846 0.659857,-0.517262 1.139047,-1.215933 1.610933,-1.89961 0.3697,-0.616027 0.878918,-1.127525 1.302145,-1.69965 0.230631,-0.209415 0.427714,-0.539268 0.743241,-0.630437 0.147402,-0.135266 0.476629,-0.442582 0.685097,-0.44797 0.3202,0.163987 0.74904,0.09249 1.106664,0.112422 0.20612,0.05579 0.705278,-0.112357 0.788752,0.146973 0.02353,0.07309 0.01071,0.153198 0.01607,0.229797 -4.208487,-2.50122 -8.424788,-4.989337 -12.62546,-7.50366 -0.04887,-0.02925 0.118827,0.01159 0.164757,0.04527 0.05464,0.04007 0.09103,0.102728 0.120373,0.163801 0.182132,0.379037 0.191833,0.870369 0.240789,1.275179 0.06476,1.106513 0.096,2.217406 -0.131708,3.306038 -0.207701,0.668263 -0.473583,0.802446 -1.138427,0.881743 -0.839246,0.0445 -1.679542,0.03867 -2.519405,0.02281 -0.622491,-0.02336 -1.244437,-0.06021 -1.867314,-0.07282 -0.429038,-0.0121 -0.858261,-0.0079 -1.287329,0.005 -0.468055,-0.01582 -0.936008,0.0073 -1.40397,-0.0046 -0.463551,-0.0029 -0.926982,0.01129 -1.390502,-0.0035 -0.54557,0.02764 -1.09218,0.02403 -1.63802,0.0086 -0.401451,-0.0078 -0.802976,-0.0077 -1.204222,-0.02322 -0.01202,-8.8e-5 -0.285922,-0.003 -0.296128,5.05e-4 -0.44824,0.152428 -0.731139,0.706241 -0.947972,1.089195 -0.206066,0.439308 -0.326677,0.913755 -0.383873,1.394364 -0.02057,0.337756 -0.0072,0.676208 -0.02255,1.014161 -0.0018,0.28529 0.01245,0.570888 0.0038,0.856059 0.01027,0.234932 -0.01689,0.469799 -0.01318,0.70435 0.0278,0.19812 -0.02956,0.3871 -0.04149,0.5816 -0.0084,0.13657 0.03462,0.27146 0.05077,0.40733 0.0044,0.0157 0.07429,0.27665 0.09404,0.30789 0.02186,0.0346 0.125913,0.0714 0.128429,0.12867 0.0052,0.11944 -0.02145,0.23814 -0.03217,0.35721 4.301768,2.549 8.603536,5.098 12.905303,7.647 0.06233,-0.009 0.125738,-0.013 0.186975,-0.0279 0.344292,-0.0836 0.114111,-0.0731 0.474947,-0.12195 0.274564,-0.0372 0.559337,-0.0318 0.835501,-0.0546 0.65489,-0.021 1.310257,-0.004 1.965224,0.005 0.520898,-0.002 1.041556,0.003 1.5625,0.005 0.592887,0.0336 0.609348,-0.003 1.096353,-0.34234 0.467082,-0.32566 0.05481,0.031 0.53987,-0.43071 0.48658,-0.46475 0.84119,-1.01777 1.132251,-1.62093 0.143112,-0.31893 0.225006,-0.67033 0.41387,-0.96729 0.150618,-0.27497 0.246641,-0.5486 0.41464,-0.80853 0.123785,-0.17332 0.06072,-0.0741 0.181441,-0.30246 0,0 -13.055711,-7.403855 -13.055711,-7.403855 v 0 c -0.03363,0.104845 -0.0095,0.04067 -0.08466,0.187441 -0.159267,0.280311 -0.3609,0.52906 -0.444885,0.842249 -0.190669,0.363617 -0.372268,0.721831 -0.418874,1.136113 -0.140363,0.375985 -0.372429,0.718837 -0.710568,0.944599 -0.02047,0.0062 -0.354609,0.107823 -0.357219,0.107703 -0.04733,-0.002 -0.07781,-0.05597 -0.122157,-0.07265 -0.211657,-0.07959 -0.436799,-0.0264 -0.655666,-0.03882 -0.516042,0.0025 -1.031684,0.009 -1.547683,0.0096 -0.636934,0.01326 -1.274575,0.03533 -1.911378,0.0062 -0.295719,-0.0289 -0.771759,0.0016 -1.022665,-0.199138 -0.06138,-0.0491 -0.127221,-0.191714 -0.163781,-0.262672 4.221043,2.505586 8.487885,4.935576 12.663129,7.516766 0.07784,0.0481 -0.110478,0.16884 -0.199931,0.18813 -0.0462,0.01 -0.0238,-0.0915 -0.03323,-0.13785 -0.03546,-0.17427 -0.06437,-0.24006 -0.201907,-0.35644 -0.03269,-0.0148 -0.07102,-0.0209 -0.09807,-0.0445 -0.02485,-0.0217 -0.01921,-0.0746 -0.05046,-0.0851 -0.03379,-0.0114 -0.07461,0.0576 -0.101395,0.034 -0.04466,-0.0392 0.04795,-0.24908 0.0073,-0.30827 0.0039,-0.23986 -0.02341,-0.48003 -0.01358,-0.72023 -0.0092,-0.28847 0.0036,-0.57736 -0.0024,-0.86597 -0.01845,-0.31607 -0.01627,-0.6324 -0.02178,-0.94885 -0.01437,-0.26041 -0.039,-0.52503 0.01323,-0.78298 0.03274,-0.0482 0.0014,0.11938 0.02386,0.17313 0.05984,0.14323 0.288863,0.0581 0.395593,0.0748 0.379899,-0.0165 0.760171,-0.015 1.14031,-0.0232 0.553698,-0.017 1.108097,-0.0168 1.661611,0.009 0.4603,-0.0161 0.920618,4.4e-4 1.380975,-0.004 0.463131,-0.0128 0.926333,0.0115 1.389572,-0.004 0.431313,0.0125 0.862735,0.0188 1.294095,0.0128 0.578304,-0.003 1.156403,-0.0254 1.733937,-0.053 0.964591,-0.034 1.965929,-0.0264 2.871425,-0.40044 0.904474,-0.48977 1.59502,-1.16737 1.82479,-2.20452 0.2605,-1.203109 0.21065,-2.41751 0.23003,-3.642029 0.50281,-6.644364 -0.3866,-3.30078 -12.7185,-9.940977 -0.104419,0.04206 -0.367744,0.155567 -0.487498,0.176759 -0.232604,0.04116 -0.48677,-0.02993 -0.719553,0.03247 -0.53094,0.07477 -1.088439,0.102551 -1.53148,0.440586 -0.253957,0.205076 -0.510099,0.403773 -0.761468,0.608929 -0.348164,0.324897 -0.655728,0.680616 -0.929286,1.071814 -0.418384,0.577465 -0.737767,1.221042 -1.17161,1.788881 -0.377918,0.496365 -0.799239,0.984447 -1.386013,1.236047 -0.573461,0.395256 -1.127599,0.826954 -1.774631,1.099508 -0.790415,0.324399 -1.610545,0.492581 -2.466949,0.352303 -0.140248,-0.0259 -0.286542,-0.02943 -0.420744,-0.0777 -0.09759,-0.0351 -0.352322,-0.218749 -0.261959,-0.167859 4.25832,2.39819 8.574009,4.698097 12.766257,7.209998 0.04732,0.0284 -0.373555,0.38983 -0.446559,0.41761 -0.03267,0.0124 -0.06758,-0.0179 -0.101375,-0.0268 -0.03909,-0.54051 -0.05158,-1.0826 -0.04838,-1.624501 0.01399,-0.591862 0.05221,-1.185379 0.02452,-1.776546 -0.09725,-0.840826 -0.277254,-1.670002 -0.458026,-2.496152 -0.440213,-1.714089 0.161771,0.599133 -0.246207,-0.881105 -0.0275,-0.09977 -0.02421,-0.209918 -0.0709,-0.302281 -0.01667,-0.03297 -0.07591,-0.01603 -0.102815,-0.04134 -0.01753,-0.01649 0.0014,-0.05382 -0.01601,-0.07041 -0.01071,-0.01019 -0.02765,0.01048 -0.04148,0.01572 -0.265035,0.379934 -0.238136,0.470565 0.264848,0.307015 0.645241,-0.166581 1.257836,-0.418177 1.856845,-0.709441 0.603175,-0.206825 1.241918,-0.295099 1.808898,-0.597445 0.397215,-0.195783 0.822495,-0.519871 1.278864,-0.340877 0.66399,-0.150186 1.317824,-0.348065 1.958731,-0.576756 1.350086,-0.499807 2.682464,-1.04595 4.023771,-1.5687 1.334758,-0.601424 2.629159,-1.290995 3.793789,-2.185967 0.85186,-0.656372 1.67946,-1.393577 2.08916,-2.415495 1.8549,-5.170683 0.42871,-0.712889 -12.579613,-8.40519 -0.107118,-0.06334 -0.193404,0.159761 -0.304192,0.216443 -0.141264,0.07228 -0.374944,-0.03124 -0.520893,0.01706 -0.462795,0.0071 -0.924983,0.0059 -1.387765,-0.0066 -0.377509,-0.0095 -0.755865,0.0018 -1.1334,0.0099 -0.447135,-1.54e-4 -0.894157,-0.0059 -1.341155,-0.0087 -0.382533,0.0102 -0.764565,-0.0058 -1.146728,-0.01916 -0.346593,0.0093 -0.693358,-0.0029 -1.039903,0.01053 -0.556219,0.0024 -1.12388,-0.0058 -1.662769,0.150309 -0.93598,0.333651 -1.833372,0.772722 -2.691911,1.271451 -1.37901,0.811203 -2.747332,1.638782 -4.00887,2.626805 z" />
  <path
     style="fill:#000000"
     id="path6"
     d="m 85.143385,76.761222 c -0.07448,0.841654 -0.446136,1.607084 -0.826937,2.347133 -0.277443,0.45176 -0.608731,0.881468 -0.991323,1.249177 0,0 12.746343,7.681374 12.746343,7.681374 v 0 c 0.395728,-0.53034 0.795915,-1.062975 1.098819,-1.653541 0.359821,-0.843826 0.739417,-1.680249 1.11809,-2.515598 z" />
  <path
     style="fill:#000000"
     id="path7"
     d="m 85.979499,74.910375 c 0.224709,1.030427 0.147329,2.043009 -0.107817,3.054861 -0.04104,0.11073 -0.08207,0.22146 -0.123105,0.33219 0,0 12.96441,7.097136 12.96441,7.097136 v 0 c 0.04106,-0.158171 0.08212,-0.316342 0.123177,-0.474513 0.194282,-1.067388 0.328581,-2.139927 0.481943,-3.213314 z" />
</svg>
